<?xml version="1.0" encoding="UTF-8" standalone="no"?>
<!-- Created with Inkscape (http://www.inkscape.org/) -->

<svg
   width="232.93274mm"
   height="35.652847mm"
   viewBox="0 0 232.93274 35.652847"
   version="1.1"
   id="svg20552"
   inkscape:version="1.1.1 (1:1.1+202109281949+c3084ef5ed)"
   sodipodi:docname="rm-artists-collab.svg"
   xmlns:inkscape="http://www.inkscape.org/namespaces/inkscape"
   xmlns:sodipodi="http://sodipodi.sourceforge.net/DTD/sodipodi-0.dtd"
   xmlns="http://www.w3.org/2000/svg"
   xmlns:svg="http://www.w3.org/2000/svg">
  <sodipodi:namedview
     id="namedview20554"
     pagecolor="#ffffff"
     bordercolor="#666666"
     borderopacity="1.0"
     inkscape:pageshadow="2"
     inkscape:pageopacity="0.0"
     inkscape:pagecheckerboard="0"
     inkscape:document-units="mm"
     showgrid="false"
     inkscape:zoom="0.71090067"
     inkscape:cx="913.62974"
     inkscape:cy="187.78995"
     inkscape:window-width="1920"
     inkscape:window-height="970"
     inkscape:window-x="0"
     inkscape:window-y="27"
     inkscape:window-maximized="1"
     inkscape:current-layer="layer1" />
  <defs
     id="defs20549" />
  <g
     inkscape:label="Layer 1"
     inkscape:groupmode="layer"
     id="layer1"
     transform="translate(285.43629,-99.038233)">
    <path
       d="m -273.84529,111.05102 c 0.007,1.38324 -0.17568,2.7619 -0.10336,4.1462 0.0212,0.40252 -0.20108,0.41557 -0.48577,0.38171 -0.37148,-0.001 -0.7426,-0.008 -1.11372,-0.002 -0.2667,0.005 -0.40217,-0.0416 -0.26847,-0.36337 0.64206,-1.54622 1.33139,-3.07375 1.85702,-4.6676 v 0 0 c 0.17392,0.13758 0.0794,0.3362 0.11254,0.50553 3.5e-4,7.1e-4 3.5e-4,0.001 3.5e-4,0.001 7.1e-4,-7e-4 7.1e-4,-0.002 10e-4,-0.002 z m 8.38024,15.42803 c -0.17251,-1.64324 -0.3623,-3.28295 -0.66675,-4.90396 -0.56903,-3.0353 -1.20262,-6.06002 -1.57127,-9.12813 -0.32738,-2.72697 -0.90593,-5.38515 -1.84538,-7.96148 -0.25788,-0.70697 -0.49072,-1.42805 -0.92499,-2.0514 -0.66463,-0.95356 -1.9124,-0.87348 -2.40982,0.16121 -0.53905,1.12007 -0.97331,2.29976 -1.59526,3.36903 -1.50601,2.59045 -2.68923,5.34423 -4.05695,8.00417 -1.27211,2.47439 -2.18404,5.11246 -3.26178,7.67398 -1.08903,2.58939 -1.94733,5.27756 -3.03459,7.87294 -0.26953,0.64417 -0.56374,1.29082 -0.60255,2.01189 -0.0138,0.25153 0.0423,0.39582 0.33761,0.40288 0.69462,0.0166 1.3903,0.0452 2.08245,0.10618 0.39969,0.0356 0.62759,-0.10724 0.79657,-0.47096 0.47484,-1.02376 0.93768,-2.04893 1.276,-3.13125 1.02235,-3.2706 2.45921,-6.37681 3.7151,-9.55464 0.0924,-0.23389 0.25682,-0.25329 0.46461,-0.24976 0.82479,0.0148 1.64888,0.002 2.47332,0.0825 0.33267,0.0325 0.42651,0.12594 0.44556,0.46037 0.0794,1.38748 0.23918,2.76684 0.43956,4.14267 0.22613,1.55187 0.40675,3.11044 0.63077,4.66267 0.17745,1.22802 0.26846,2.46979 0.57044,3.67947 0.0815,0.32667 0.19015,0.49847 0.57644,0.48507 0.95497,-0.0335 1.9117,-0.0113 2.86773,-0.0113 0,-0.005 0,-0.01 0,-0.0152 0.97226,0 1.94451,-0.006 2.91677,0.003 0.36971,0.003 0.54962,-0.10231 0.55174,-0.53481 0.008,-1.70463 0.004,-3.40396 -0.17533,-5.10505"
       style="fill:#dfa6a8;fill-opacity:1;fill-rule:nonzero;stroke:none;stroke-width:0.0352778"
       id="path933-94" />
    <path
       d="m -270.55599,110.86723 c -0.14569,-1.79106 -0.28151,-3.58282 -0.40745,-5.37528 -0.0222,-0.3115 -1.07703,-0.0998 -1.05058,0.28152 0.44803,6.37328 1.02235,12.73774 1.72544,19.08774 0.19756,1.78612 0.40534,3.57082 0.62336,5.35447 0.0392,0.32173 1.09573,0.0921 1.04987,-0.28152 -0.77365,-6.34189 -1.42135,-12.69894 -1.94064,-19.06693"
       style="fill:#c67379;fill-opacity:1;fill-rule:nonzero;stroke:none;stroke-width:0.0352778"
       id="path935-8" />
    <path
       d="m -267.53656,122.20797 c -0.004,-0.22084 -1.05622,-0.0504 -1.05057,0.28117 0.0413,2.25178 0.28187,4.49439 0.71966,6.70348 0.0522,0.26247 1.10914,0.0134 1.05058,-0.28116 -0.4378,-2.20945 -0.67875,-4.45171 -0.71967,-6.70349"
       style="fill:#c67379;fill-opacity:1;fill-rule:nonzero;stroke:none;stroke-width:0.0352778"
       id="path937-1" />
    <path
       d="m -268.03151,118.31401 c -0.0275,-0.11924 -0.0773,-0.22754 -0.13229,-0.33655 -0.0441,-0.0871 -0.0988,-0.16722 -0.16404,-0.23989 -0.0808,-0.0896 -0.17956,-0.13723 -0.29986,-0.1531 -0.13088,-0.0176 -0.29704,0.009 -0.41452,0.0716 -0.10583,0.0557 -0.22295,0.13546 -0.26846,0.25153 -0.037,0.0931 -0.0519,0.21343 0.0219,0.29527 0.0543,0.0603 0.0991,0.127 0.13864,0.19721 0.0445,0.10265 0.0734,0.20955 0.0871,0.32032 0.002,0.1076 -0.008,0.21449 -0.037,0.31856 -0.0272,0.097 0.0564,0.21554 0.12806,0.26705 0.0956,0.0681 0.24482,0.0953 0.35912,0.0833 0.13829,-0.0141 0.28575,-0.055 0.39476,-0.14499 0.0303,-0.0286 0.0607,-0.0572 0.091,-0.0857 0.0501,-0.0568 0.0808,-0.12242 0.0921,-0.19721 0.0582,-0.20778 0.0526,-0.43815 0.004,-0.64734"
       style="fill:#c67379;fill-opacity:1;fill-rule:nonzero;stroke:none;stroke-width:0.0352778"
       id="path939-2" />
    <path
       d="m -258.41257,130.97271 c -0.24589,-3.42512 -0.49178,-6.85024 -0.73766,-10.27571 l -0.73766,-10.27571 c -0.13864,-1.93146 -0.27728,-3.86292 -0.41593,-5.79438 -0.0113,-0.15628 -0.23354,-0.26846 -0.35277,-0.3055 -0.20462,-0.0642 -0.47343,-0.0547 -0.67698,-7.1e-4 -0.30798,0.0815 -0.70344,0.25965 -0.77365,0.59161 -0.11218,-0.002 -0.22472,0.009 -0.32208,0.0353 -0.40111,0.10795 -0.80293,0.37747 -0.75918,0.83608 0.31362,3.30483 0.60396,6.61177 0.86924,9.92118 0.26423,3.296 0.50412,6.59447 0.72002,9.894 0.12171,1.86196 0.23566,3.72428 0.34184,5.58694 0.0148,0.26106 0.37148,0.39511 0.57609,0.42969 0.1965,0.0335 0.40887,0.0342 0.62089,0.003 0.0649,0.042 0.13582,0.073 0.18768,0.0896 0.20426,0.0635 0.47343,0.0543 0.67733,7e-4 0.34996,-0.0928 0.81351,-0.31044 0.78282,-0.73625"
       style="fill:#bf7340;fill-opacity:1;fill-rule:nonzero;stroke:none;stroke-width:0.0352778"
       id="path699-9" />
    <path
       d="m -254.10269,105.84541 c -1.30281,-1.10314 -3.26108,-0.99378 -4.68736,-0.19862 -0.0723,0.0399 -0.24165,0.16475 -0.21484,0.27764 0.0272,0.11501 0.23319,0.14499 0.3168,0.15205 0.4325,0.0342 0.89147,-0.09 1.26929,-0.29775 7.1e-4,-3.5e-4 10e-4,-3.5e-4 0.002,-3.5e-4 -0.0748,0.0416 -0.0402,0.0226 0.007,-0.001 0.006,-3.5e-4 0.0116,-7e-4 0.0173,-10e-4 0.019,0.002 0.10866,0.003 0.12947,0.005 0.0589,0.005 0.11783,0.0123 0.17639,0.0208 0.0116,0.004 0.1083,0.0229 0.13017,0.0279 0.49883,0.12418 0.92922,0.37747 1.30105,0.73343 0.7627,0.72954 1.15746,1.78329 1.3014,2.81128 0.26423,1.88454 -0.37818,3.90208 -1.59985,5.3086 -0.17957,0.20673 -0.37112,0.40287 -0.57397,0.58632 -0.10125,0.0917 -0.20567,0.18027 -0.31256,0.26529 -0.019,0.0152 -0.0854,0.0663 -0.0963,0.0748 -0.0494,0.0363 -0.0995,0.072 -0.14993,0.10689 -0.10548,0.072 -0.21308,0.14076 -0.32209,0.20673 -0.0632,0.0374 -0.12665,0.0734 -0.19015,0.10936 -3.5e-4,0 -7e-4,3.5e-4 -0.001,3.5e-4 -0.0176,0.009 -0.0388,0.0201 -0.0455,0.0236 -0.32526,0.16263 -0.66322,0.29739 -1.00012,0.43251 -0.16933,0.0681 -0.61419,0.38135 -0.22684,0.49318 0.40464,0.11642 0.89253,-0.0356 1.26577,-0.18521 1.14582,-0.45896 2.20839,-1.03399 3.06917,-1.93534 0.74753,-0.78246 1.32926,-1.72579 1.67569,-2.75131 0.69356,-2.05176 0.51788,-4.77485 -1.24107,-6.26463"
       style="fill:#bf7340;fill-opacity:1;fill-rule:nonzero;stroke:none;stroke-width:0.0352778"
       id="path701-3" />
    <path
       d="m -243.80863,132.0314 c -0.002,-7.1e-4 -0.0229,-0.008 -0.0402,-0.0127 -0.0152,-0.007 -0.0332,-0.0155 -0.0349,-0.0166 -0.0572,-0.0332 -0.11289,-0.0667 -0.16651,-0.10442 -0.10831,-0.0765 -0.14782,-0.11818 -0.26988,-0.22543 -0.22824,-0.19967 -0.45579,-0.4004 -0.68262,-0.60254 -0.46285,-0.41134 -0.92287,-0.82586 -1.37972,-1.24355 -0.90522,-0.82726 -1.79881,-1.66687 -2.68111,-2.51848 -1.76389,-1.70356 -3.48156,-3.45545 -5.14985,-5.25286 -0.94156,-1.01459 -1.8669,-2.04364 -2.77671,-3.0868 -0.26952,-0.30868 -0.86537,-0.22754 -1.19698,-0.0825 -0.23706,0.10336 -0.77011,0.43815 -0.48824,0.76094 1.63583,1.87537 3.32352,3.70593 5.06095,5.48816 1.73743,1.78188 3.5246,3.51543 5.35834,5.19783 0.51894,0.47625 1.0414,0.94827 1.56775,1.41605 0.254,0.22578 0.5087,0.45085 0.76482,0.67451 0.30797,0.26847 0.60219,0.49742 0.99977,0.61454 0.40076,0.11818 0.98178,-0.005 1.28164,-0.30374 0.27411,-0.2734 0.22049,-0.58808 -0.16651,-0.70238"
       style="fill:#bf7340;fill-opacity:1;fill-rule:nonzero;stroke:none;stroke-width:0.0352778"
       id="path703-9" />
    <path
       d="m -257.82379,105.32118 c 0.10972,-0.0466 0.21766,-0.0963 0.3295,-0.13829 0.007,-0.002 0.0138,-0.005 0.0208,-0.007 0.005,-10e-4 0.009,-0.002 0.0134,-0.004 0.0847,-0.0222 0.17004,-0.0406 0.25576,-0.0582 0.0614,-0.007 0.12241,-0.0138 0.1838,-0.0187 0.13546,-0.0109 0.57538,0.009 0.0698,-0.0116 0.121,0.005 0.24165,0.005 0.3623,0.0141 0.12136,0.01 0.24059,0.0275 0.36125,0.0399 -0.43251,-0.0437 -0.0116,0.001 0.1083,0.0286 0.12735,0.0286 0.25365,0.0621 0.37853,0.10054 0.0586,0.0176 0.11642,0.0363 0.17427,0.0561 0.0152,0.005 0.0374,0.0138 0.0603,0.0226 0.4131,0.18027 0.80081,0.3937 1.16135,0.66428 0.46884,0.39723 0.85054,0.8756 1.14758,1.41288 0.41522,0.84243 0.61031,1.76989 0.61383,2.70686 -0.03,0.88195 -0.22577,1.74908 -0.58137,2.55658 -0.20567,0.41875 -0.45085,0.81633 -0.73484,1.1871 -0.0705,0.0928 -0.14393,0.18415 -0.21907,0.2734 -0.0247,0.0293 -0.0497,0.0579 -0.0748,0.0868 0.007,-0.008 0.0127,-0.0127 0.0212,-0.0215 -0.0123,0.0123 -0.024,0.0254 -0.036,0.0388 -0.008,0.01 -0.0162,0.0187 -0.0243,0.0286 -0.0205,0.0233 -0.0508,0.0519 -0.0575,0.0561 -0.16262,0.16934 -0.33266,0.33232 -0.50976,0.48719 -0.17321,0.15134 -0.35419,0.29316 -0.53763,0.43109 -3.5e-4,3.6e-4 -3.5e-4,3.6e-4 -7.1e-4,7.1e-4 -0.0487,0.0335 -0.0974,0.0663 -0.1464,0.0988 -0.10619,0.0702 -0.21449,0.13829 -0.3235,0.20426 -0.20038,0.1203 -0.40569,0.23036 -0.61348,0.33761 -0.0505,0.0236 -0.10125,0.0469 -0.1524,0.0695 -0.11712,0.0519 -0.2353,0.1016 -0.35419,0.14887 -0.13758,0.0547 -0.27622,0.10654 -0.41592,0.15487 -0.0395,0.0138 -0.079,0.0268 -0.11889,0.0402 -0.0741,0.0215 -0.14887,0.0409 -0.22295,0.0607 -0.14676,-2.09832 -0.2727,-4.1977 -0.37289,-6.29885 -0.0713,-1.48978 -0.12771,-2.98027 -0.17568,-4.4711 0.0631,-0.0384 0.12382,-0.0808 0.18309,-0.12454 0.0575,-0.037 0.1143,-0.0748 0.17286,-0.11006 0.11853,-0.0713 0.51823,-0.23954 0.0543,-0.043 z m 16.02987,25.70339 c -1.95756,-1.85667 -3.91583,-3.71404 -5.8741,-5.57107 -1.95792,-1.85667 -3.91619,-3.71369 -5.8741,-5.57071 -0.86043,-0.81562 -1.7205,-1.6316 -2.58128,-2.44722 2.75872,-1.03223 5.24651,-3.07199 6.02545,-5.97782 0.40816,-1.52224 0.33337,-3.25367 -0.37536,-4.67713 -0.35631,-0.71614 -0.80574,-1.35396 -1.43334,-1.85702 -0.6551,-0.52529 -1.3716,-0.90382 -2.17875,-1.14617 -1.53176,-0.45967 -3.21769,-0.34573 -4.68136,0.2801 -0.002,-7e-4 -0.006,-0.001 -0.008,-0.002 -0.31115,-0.0649 -0.70097,-0.0296 -1.00401,0.0487 -0.4385,0.11324 -1.23014,0.36619 -1.21461,0.93486 0.0949,3.36303 0.24765,6.72465 0.45967,10.08204 0.21237,3.35774 0.4833,6.71195 0.8135,10.05981 0.18521,1.88419 0.38982,3.76661 0.61242,5.64656 0.0247,0.20638 0.35031,0.30727 0.50095,0.33902 0.3115,0.0649 0.70062,0.03 1.00436,-0.0487 0.31714,-0.0819 0.66498,-0.19191 0.91863,-0.4071 0.16228,-0.13794 0.32315,-0.29422 0.29528,-0.52776 -0.39547,-3.34116 -0.73308,-6.68902 -1.01177,-10.04182 -0.0152,-0.18344 -0.0282,-0.36689 -0.043,-0.55033 1.30916,1.24178 2.61867,2.4832 3.92783,3.72498 1.95827,1.85667 3.91618,3.71369 5.87445,5.57071 1.10561,1.04811 2.21121,2.09656 3.31647,3.14537 0.45085,0.42721 1.264,0.33725 1.79281,0.10971 0.26388,-0.11394 0.5835,-0.26705 0.73343,-0.52599 0.1016,-0.17533 0.18062,-0.42404 0.004,-0.5909"
       style="fill:#e7c079;fill-opacity:1;fill-rule:nonzero;stroke:none;stroke-width:0.0352778"
       id="path705-0" />
    <path
       d="m -254.28966,114.33501 c 0.0127,-0.0127 0.0257,-0.0254 0.0381,-0.0381 0.0148,-0.0155 0.0293,-0.031 0.0438,-0.0466 0.005,-0.006 0.01,-0.0116 0.0148,-0.0173 -0.0825,0.0825 -0.10336,0.10618 -0.0967,0.10195"
       style="fill:#e7c079;fill-opacity:1;fill-rule:nonzero;stroke:none;stroke-width:0.0352778"
       id="path707-8" />
    <path
       d="m -240.35423,117.44651 c -0.10972,-2.3749 -0.26776,-4.75368 -0.31186,-7.13105 -0.0247,-1.31128 0.0346,-2.62467 0.31045,-3.91055 0.0977,-0.45473 -1.016,-0.33196 -1.10243,0.0695 -0.4953,2.30929 -0.3048,4.69689 -0.19615,7.03616 0.11148,2.40841 0.22296,4.81683 0.33444,7.22524 0.0639,1.37654 0.12735,2.75272 0.1912,4.12891 0.0113,0.24342 0.47237,0.21696 0.61948,0.18521 0.20779,-0.0451 0.49918,-0.17427 0.48754,-0.42474 l -0.33267,-7.17868"
       style="fill:#ffffff;fill-opacity:1;fill-rule:nonzero;stroke:none;stroke-width:0.0352778"
       id="path719-0-8" />
    <path
       d="m -225.69402,108.62766 c -0.0106,-0.0554 -0.0293,-0.11077 -0.0522,-0.1651 0.13053,-0.0452 0.2473,-0.11465 0.31892,-0.21273 l -0.006,0.25259 c -0.0628,0.0173 -0.16828,0.0688 -0.26035,0.12524 z m -0.62512,-0.72425 -5.24051,0.005 c -0.20073,3.5e-4 -0.49495,0.0582 -0.66957,0.20602 -0.006,-0.0127 -0.0113,-0.0258 -0.0176,-0.0381 l -0.0406,-0.0427 c -0.0176,-0.0102 -0.0356,-0.0205 -0.0536,-0.031 -0.0547,-0.0236 -0.11571,-0.0258 -0.17392,-0.0176 -0.0511,0.008 -0.0963,0.0233 -0.14041,0.0501 -0.0427,0.0258 -0.0967,0.0677 -0.11218,0.11748 -0.006,0.0176 -0.0113,0.0356 -0.0169,0.0529 -0.002,-3.6e-4 -0.003,-0.002 -0.005,-0.002 -0.0663,-0.0265 -0.14288,-0.0289 -0.21167,-0.0123 -0.0638,0.0159 -0.14147,0.0554 -0.18203,0.10936 -0.0342,0.0466 -0.0635,0.10725 -0.0452,0.16686 0.0127,0.0395 0.0367,0.0727 0.0684,0.097 -0.0268,0.0434 -0.0427,0.09 -0.0427,0.14005 l 0.0233,23.06532 c -1.15959,0.12065 -0.85761,0.25259 -2.01719,0.37289 -0.0176,-0.003 -0.036,-0.004 -0.054,-0.007 -0.11254,-0.0169 -0.22966,-0.0116 -0.34537,0.006 0.42545,-6.01697 0.38594,-17.84279 -0.10266,-23.85483 -0.009,-0.11218 -0.0783,-0.18344 -0.17604,-0.2219 0.007,-0.008 0.0187,-0.0138 0.0247,-0.0229 0.14358,-0.21378 -0.12453,-0.27481 -0.29422,-0.26811 -2.22709,0.0822 -4.45347,0.1651 -6.6802,0.2473 -0.0233,0.001 -0.0526,0.006 -0.0787,0.008 l 0.0646,-2.48426 c 1.98579,-0.09 3.83364,-0.16016 5.64197,-0.2092 -0.0864,0.0402 -0.16827,0.10901 -0.21025,0.17674 -0.0642,0.10337 -0.0155,0.15981 0.097,0.15699 2.72698,-0.0653 5.4543,-0.0949 8.18233,-0.0896 0.76905,0.002 1.53846,0.006 2.30787,0.0131 0.13335,0.001 0.26776,-0.0692 0.35807,-0.16581 3.5e-4,-3.5e-4 7.1e-4,-0.001 0.001,-0.001 0.0705,-0.005 0.0921,-0.0519 0.0607,-0.10936 0.003,-0.0102 0.004,-0.0205 0.005,-0.03 0.0363,7.1e-4 0.0723,0.001 0.1083,0.002 0.09,1.42734 0.0215,1.18639 -0.0321,2.61585 z m -4.90784,1.19697 c 0.001,-0.007 0.003,-0.013 0.004,-0.0197 0.001,-0.0159 7e-4,-0.0325 -7.1e-4,-0.0487 l 4.25062,-0.0328 c 0.003,0.0282 0.0116,0.0554 0.0251,0.0804 z m -0.7814,23.63435 -0.11677,0.0134 c 0.066,-0.0628 0.10795,-0.13582 0.10795,-0.21696 v -0.10654 c 0.005,-0.005 0.0106,-0.008 0.0155,-0.0131 0.0236,-0.0219 0.0444,-0.0452 0.0653,-0.0688 0.004,0.004 0.007,0.007 0.012,0.0102 -0.0254,0.12736 -0.0529,0.25471 -0.084,0.38171 z m -1.34832,0.15452 c 0.0116,-0.0152 0.0201,-0.0325 0.0275,-0.0498 0.0663,-0.002 0.13652,-0.005 0.21237,-0.008 0.008,0.01 0.0191,0.018 0.0286,0.0265 z m -3.87703,-23.5003 c -0.0145,-0.008 -0.16333,-0.0702 -0.23424,-0.0935 0.12841,-0.0106 0.25682,-0.0226 0.38523,-0.0378 0.001,0.0727 0.002,0.14499 0.003,0.21731 -0.054,-0.037 -0.12135,-0.0684 -0.15381,-0.0861 z m -1.6958,-0.96308 c 0,-3.5e-4 0,-7.1e-4 0,-0.001 3.5e-4,0 3.5e-4,0 7.1e-4,0 -3.6e-4,3.5e-4 -3.6e-4,7.1e-4 -7.1e-4,0.001 z m -3.20957,0.11747 c 0.14358,-0.005 0.28716,-0.0106 0.43074,-0.0159 0.002,0.013 0.004,0.0261 0.008,0.0378 -0.1464,-0.006 -0.29245,-0.0145 -0.43885,-0.0219 z m -0.90064,-2.88995 c -0.043,-0.008 -0.09,-0.0102 -0.13794,-0.0102 0.008,-0.0275 0.0138,-0.0557 0.0173,-0.0843 0.0557,-0.002 0.11253,-0.005 0.16792,-0.008 -0.0191,0.0631 -0.036,0.10443 -0.0473,0.10231 z m 18.1811,-0.901 c 0.0198,-0.0832 0.0229,-0.17074 0.006,-0.26176 -0.003,-0.0169 -0.15487,0.0399 -0.28857,0.1136 -0.042,-0.0265 -0.085,-0.0462 -0.12559,-0.0519 -0.0642,-0.008 -0.12841,-0.0152 -0.19262,-0.0229 -0.001,-7.1e-4 -0.002,-0.001 -0.003,-0.002 0.0265,3.5e-4 0.0529,3.5e-4 0.0794,3.5e-4 0.0833,7.1e-4 0.20109,-0.043 0.12877,-0.13617 -0.0755,-0.0967 -0.26952,-0.10971 -0.37853,-0.11006 l -2.25249,-0.0113 c -1.94239,-0.17322 -3.89149,-0.26529 -5.842,-0.26917 -0.7941,-0.002 -1.5882,0.0109 -2.3816,0.037 -0.0646,0.002 0,0.0917 0.0497,0.15064 -1.80128,-0.0931 -3.60327,-0.18627 -5.40491,-0.27905 -0.54081,-0.0279 -1.08161,-0.0557 -1.62242,-0.084 -0.12983,-0.007 -0.18803,0.12347 -0.13935,0.23001 0.0279,0.061 0.0744,0.1076 0.12912,0.14217 -0.0272,0.004 -0.0561,0.0116 -0.0776,0.0261 -0.0677,-0.004 -0.13617,-0.008 -0.2039,-0.0127 -0.13194,-0.0617 -0.33973,-0.0875 -0.41451,-0.0258 -0.0843,-0.006 -0.16863,-0.01 -0.25295,-0.0155 -0.12276,-0.008 -0.26952,0.0875 -0.35701,0.16545 -0.0176,0.0159 -0.0413,0.0409 -0.0589,0.0667 -0.10972,-0.0162 -0.20144,-0.004 -0.19579,0.0568 0.0515,0.57715 0.0818,1.15535 0.0942,1.73391 -0.002,0.0903 -0.005,0.18062 -0.008,0.27093 -3.5e-4,0.007 0.002,0.0138 0.004,0.0208 -0.0183,0.69886 -0.0367,1.39771 -0.0547,2.09727 -0.001,0.0582 0.0709,0.11148 0.16299,0.15063 0.031,0.0702 0.0748,0.13476 0.13582,0.19015 0.13335,0.11995 0.31538,0.15028 0.48965,0.14781 0.0561,0.0342 0.1397,0.0519 0.20532,0.06 -0.0272,0.007 -0.0533,0.0159 -0.078,0.0265 -0.0173,0.007 -0.0462,0.0222 -0.0512,0.0339 -0.0159,0.0152 0.005,0.0261 0.0723,0.0272 l 1.5748,0.0226 c 0.0183,0 0.0374,-0.001 0.0564,-0.002 0.82938,0.078 1.6637,0.10689 2.49661,0.0829 0.0511,-0.001 0.13123,-0.007 0.20214,-0.0282 0.61524,0.0519 1.23366,0.0543 1.85032,0.006 0.11183,0.92005 0.12029,1.84785 0.0258,2.77001 -0.007,0.0635 0.18591,0.1517 0.23001,0.17604 0.01,0.005 0.091,0.0441 0.16228,0.073 -0.0289,1.91594 -0.0706,3.83188 -0.12841,5.74746 -0.0258,0.83785 -0.054,1.67605 -0.0847,2.51389 0,0.0113 0.067,0.0166 0.15558,0.0145 -0.003,0.13335 -0.002,0.26635 0.002,0.39934 -0.0519,0.0145 -0.0843,0.0423 -0.078,0.0878 0.2293,1.60126 0.1778,3.23674 -0.14217,4.82212 -0.0198,0.097 0.20249,0.17851 0.37359,0.18451 -0.0229,1.0287 -0.0462,2.05704 -0.0695,3.08539 -0.0173,0.40605 -0.03,0.81245 -0.0367,1.21885 -3.5e-4,0.0205 0.003,0.0388 0.008,0.0568 l -0.055,2.44016 c -10e-4,0.0497 0.0363,0.10478 0.091,0.15487 -0.001,0.0794 -0.002,0.15875 -0.004,0.23848 -0.001,0.12065 0.11536,0.39123 0.25683,0.40746 0.31326,0.0353 0.62829,0.0307 0.93803,-0.0106 0.26776,0.0176 0.5454,-0.0205 0.80434,-0.0501 1.09643,-0.12594 2.19286,-0.25118 3.28894,-0.37642 0.0448,-0.005 0.0557,-0.0208 0.067,-0.0656 0.0593,-0.23389 0.10795,-0.46955 0.14852,-0.70591 0.0406,-0.006 0.0677,-0.0254 0.0684,-0.0642 0.004,-0.16298 0.008,-0.32596 0.0123,-0.48895 0.10195,-0.86395 0.10266,-1.73813 0.0656,-2.61055 0.01,-0.375 0.0191,-0.75001 0.0286,-1.12501 10e-4,-0.0409 -0.0395,-0.0861 -0.0974,-0.12771 l 0.012,-0.49106 c 0.13017,0.0293 0.25964,-0.0243 0.25082,-0.20779 -0.10936,-2.33645 -0.17603,-4.67501 -0.19614,-7.01393 -0.0208,-2.34103 0.004,-4.68206 0.0723,-7.02204 0.0367,-1.258 0.0875,-2.51495 0.14957,-3.77155 1.71662,-0.008 3.43288,-0.0162 5.1488,-0.0247 0.0571,-3.5e-4 0.10653,-0.0208 0.14428,-0.0526 0.15275,0.0155 0.30339,-0.0289 0.41416,-0.16017 0.006,-0.008 0.0113,-0.0159 0.0169,-0.024 0.003,3.5e-4 0.005,0.001 0.008,0.002 0.0882,0.0127 0.22261,-0.0847 0.28963,-0.12806 0.0529,-0.0346 0.16369,-0.0928 0.18063,-0.16228 0.0123,-0.0169 0.0208,-0.0349 0.0212,-0.0529 l 0.0145,-0.58844 h -3.6e-4 c 0.0296,-1.20473 0.0589,-2.40982 0.0886,-3.61421"
       style="fill:#000000;fill-opacity:1;fill-rule:nonzero;stroke:none;stroke-width:0.0352778"
       id="path449-5" />
    <path
       d="m -216.99572,130.07538 c -0.024,0.68862 -0.0208,1.3783 0.0205,2.06904 -0.16086,-0.01 -0.32138,-0.0219 -0.48224,-0.0321 0.20355,-0.66781 0.3563,-1.34761 0.46178,-2.03694 z m -0.6798,-18.7632 c -0.0254,1.97591 -0.0504,3.95147 -0.0762,5.92773 -0.0437,3.41207 -0.0109,6.83648 -0.14746,10.24713 -0.0395,-5.14949 -0.079,-10.29864 -0.11889,-15.44813 -0.0113,-1.4732 -0.0226,-2.94676 -0.0339,-4.42031 0.17216,1.22696 0.29951,2.45851 0.37642,3.69358 z m 0.31327,-5.22005 c -0.14394,0.0765 -0.24836,0.18803 -0.25012,0.32385 -0.001,0.061 -0.002,0.12171 -0.002,0.18274 -0.18133,0.0466 -0.35349,0.14323 -0.44309,0.27164 -0.002,-0.24695 -0.004,-0.4946 -0.006,-0.74154 0.23389,-0.0141 0.46743,-0.0261 0.70132,-0.0367 z m 0.69955,14.02645 0.24413,2.64865 c -0.0977,0.0201 -0.19403,0.048 -0.27905,0.0829 z m 0.0642,-5.00028 c 0.084,-0.0691 0.14006,-0.15381 0.14147,-0.25188 0.002,-0.15205 -0.003,-0.30445 -0.002,-0.45649 0.0332,0.61912 0.066,1.23789 0.0988,1.85702 0.0593,1.11654 0.11889,2.23308 0.17815,3.34962 -0.2159,0.0536 -0.41663,0.14147 -0.47695,0.24659 0.0205,-1.58185 0.0406,-3.16335 0.061,-4.74486 z m 0.74613,16.16816 c 0.0843,-0.0353 0.15593,-0.0773 0.20708,-0.12347 0.0321,0.34855 0.0642,0.69709 0.096,1.04563 -0.16192,-0.006 -0.32385,-0.0123 -0.48613,-0.0191 0.10936,-0.0603 0.18345,-0.13229 0.18345,-0.21166 z m 0.8643,-18.50707 c 0.004,0.9017 0.009,1.8034 0.007,2.7051 -0.004,1.57868 -0.0173,3.15736 -0.0356,4.73639 -0.127,-2.39536 -0.254,-4.79002 -0.38135,-7.18502 0.17286,-0.0533 0.33267,-0.14217 0.40993,-0.25647 z m 4.02626,19.41689 c -0.87701,0.003 -1.75366,0.0187 -2.63031,0.048 -0.26212,-3.5e-4 -0.52423,-0.002 -0.78635,-0.006 -0.003,-0.0586 -0.006,-0.11713 -0.01,-0.17569 0.13935,-0.0801 0.24095,-0.20037 0.24624,-0.35418 0.23954,-7.12471 0.33585,-14.25364 0.28364,-21.38222 -0.01,-1.40088 0.11324,-3.02825 -0.6537,-4.26261 0.93027,0.0173 1.8602,0.0607 2.78941,0.1404 0.25506,0.0219 0.61948,-0.0794 0.7292,-0.33972 0.10442,-0.24836 -0.0942,-0.43851 -0.33797,-0.45932 -3.62549,-0.3115 -7.27604,-0.18803 -10.87014,0.38206 -0.23424,0.037 -0.59408,0.1591 -0.61771,0.44661 -0.0215,0.26423 0.29139,0.39194 0.51435,0.35666 1.03434,-0.16404 2.07292,-0.28681 3.11362,-0.37712 l 0.16263,21.07424 c 0.012,1.56881 0.0243,3.13726 0.0363,4.70606 -0.50342,-0.0459 -1.00648,-0.0952 -1.50884,-0.15346 -0.26458,-0.0307 -0.62053,0.0811 -0.72495,0.35313 -0.0991,0.25718 0.0931,0.48119 0.35172,0.51118 0.14534,0.0166 0.29104,0.0303 0.43603,0.0459 -0.4766,0.0547 -0.9525,0.11289 -1.42805,0.17568 -0.25082,0.0328 -0.59125,0.17498 -0.6103,0.47272 -0.018,0.27305 0.28257,0.43498 0.52634,0.40288 0.99942,-0.13159 2.00096,-0.24342 3.00355,-0.33973 0.1524,0.31715 0.82198,0.18239 1.01706,-0.0924 1.39771,-0.11712 2.79788,-0.19967 4.19982,-0.2473 0.89465,0.002 1.78964,-0.0134 2.68394,-0.0494 0.65581,-0.0265 0.84278,-0.87771 0.084,-0.87594"
       style="fill:#c67379;fill-opacity:1;fill-rule:nonzero;stroke:none;stroke-width:0.0352778"
       id="path761-0"
       sodipodi:nodetypes="sccssccccccscccccsccccccccccccccccccccccccccccccccccccccccccccccccccc" />
    <path
       d="m -214.75769,100.00848 c -0.0589,-0.11748 -0.13371,-0.21978 -0.21626,-0.31433 -0.28187,-0.4512 -0.79833,-0.67416 -1.33808,-0.65475 -0.43251,0.0152 -0.90488,0.13829 -1.288,0.38135 -0.24623,0.14852 -0.45614,0.34784 -0.58878,0.60254 -0.27235,0.52176 -0.23213,1.14477 0.09,1.63478 0.35983,0.54821 1.05657,0.68862 1.66828,0.56232 0.58209,-0.0582 1.15994,-0.38946 1.43828,-0.90416 0.1845,-0.34149 0.27023,-0.75918 0.20073,-1.14689 0.0349,-0.0511 0.0596,-0.10936 0.0339,-0.16086"
       style="fill:#c67379;fill-opacity:1;fill-rule:nonzero;stroke:none;stroke-width:0.0352778"
       id="path763-9" />
    <path
       d="m -216.27676,101.57128 c 7.1e-4,-7e-4 0.002,-0.001 0.002,-0.001 -0.001,3.6e-4 -0.002,0.001 -0.003,0.001 3.6e-4,0 3.6e-4,0 7.1e-4,0"
       style="fill:#c67379;fill-opacity:1;fill-rule:nonzero;stroke:none;stroke-width:0.0352778"
       id="path765-6" />
    <path
       d="m -193.61351,125.14333 c -1.08656,-3.59939 -3.76591,-6.7377 -6.34083,-9.86155 -1.44357,-1.75084 -3.90878,-4.3621 -3.68688,-6.66468 0.15275,-0.24483 0.32032,-0.48648 0.52034,-0.72002 0.19297,-0.22472 0.008,-0.27693 -0.23918,-0.26882 0.28434,-0.57008 0.7874,-1.10807 1.57798,-1.59244 0.42933,-0.26281 0.87347,-0.36336 1.35431,-0.54504 0.002,-7e-4 0.002,-7e-4 0.004,-0.001 -0.013,-0.005 -0.0257,-0.009 -0.0395,-0.018 0.0109,0.007 0.0303,0.0106 0.0434,0.0169 0.21449,-0.078 0.15981,0.0377 0.036,0.0138 0.0963,0.0388 0.21555,0.0677 0.30374,0.10654 0.88442,0.39123 1.39524,1.1236 1.73673,1.79388 0.73272,1.43862 1.25836,3.51896 -0.15911,4.8962 -0.47589,0.46285 2.43664,0.83538 2.95664,0.32985 1.31198,-1.27494 1.09431,-2.87655 0.64135,-4.28061 -0.41663,-1.29152 -1.17123,-2.60209 -2.92594,-3.23885 -1.91806,-0.69603 -4.57835,-0.61489 -6.41139,0.31962 -1.29081,0.65863 -2.08633,1.60055 -2.36326,2.63172 -0.0473,0.007 -0.0836,0.019 -0.10759,0.0367 -0.42298,-0.006 -0.73943,0.0152 -0.75671,0.0769 -0.22754,0.80151 -0.31715,1.61113 -0.28363,2.41335 -0.0159,0.1464 -0.024,0.29245 -0.0247,0.4385 -0.0317,0.29422 -0.0635,0.58879 -0.0952,0.88301 -0.004,0.0374 0.0755,0.072 0.20143,0.10336 0.0236,0.10089 0.0628,0.19897 0.0935,0.29845 0.0219,0.86819 0.27164,1.72473 0.74789,2.51919 0.27764,0.82902 0.68792,1.63653 1.19274,2.39536 2.07786,3.12349 5.51463,5.70407 7.2196,8.96691 0.95321,1.82492 1.32574,3.79307 0.50236,5.73088 -0.0705,0.1651 0.1524,0.17885 0.4258,0.14322 -0.66252,0.83609 -1.64924,1.51413 -3.08787,1.75331 -2.13571,0.35454 -3.71228,-1.51095 -3.89643,-2.74038 -0.0963,-0.641 -3.16935,-0.59337 -3.09844,-0.11994 0.50024,3.33727 6.22229,4.52049 10.29934,3.20639 4.72123,-1.52153 4.52332,-6.1602 3.65937,-9.02229"
       style="fill:#ebc532;fill-opacity:1;fill-rule:nonzero;stroke:none;stroke-width:0.0352778"
       id="path435-61-38" />
    <path
       d="m -200.42354,105.48937 c 0.0138,0.006 0.0268,0.0109 0.0399,0.0131 -0.0123,-0.005 -0.0254,-0.009 -0.036,-0.0141 -0.001,3.5e-4 -0.002,7.1e-4 -0.004,10e-4"
       style="fill:#ebc532;fill-opacity:1;fill-rule:nonzero;stroke:none;stroke-width:0.0352778"
       id="path437-5-5" />
    <path
       d="m -183.88626,102.54837 c -0.0138,0.003 -0.0265,0.007 -0.0388,0.0141 3.5e-4,-0.004 0,-0.009 0,-0.0138 0,0 0,0 0,-3.5e-4 0.013,0 0.0257,0 0.0388,0 z m -0.86289,30.2761 c -0.013,-0.003 -0.0254,-0.01 -0.0381,-0.0145 -0.0452,-0.0166 -0.0892,-0.0406 -0.13053,-0.0825 0.22895,-0.0663 0.45967,-0.16087 0.69956,-0.11007 0.24271,0.0512 0.13017,0.14499 0.002,0.22084 -0.17039,-0.0501 -0.3616,0.0289 -0.5334,-0.0138 z m 0.0307,-30.18226 c -0.002,0.0356 -0.006,0.072 -0.0109,0.1076 -0.0148,0.0984 -0.0395,0.19544 -0.085,0.29139 -0.007,-0.15769 -0.013,-0.31503 -0.0198,-0.47237 0,-3.5e-4 0,-3.5e-4 0,-7e-4 0,3.5e-4 0,3.5e-4 0,7e-4 0.002,-0.11147 0.003,-0.2226 0.005,-0.33408 7e-4,-0.0455 0.001,-0.091 0.002,-0.13652 10e-4,-0.11571 0.003,-0.23107 0.004,-0.34713 0.03,-0.0931 0.0642,-0.10055 0.10407,-0.005 -0.0406,0.29598 0.0215,0.59901 3.5e-4,0.8964 z m 6.8065,12.32571 c -1.5935,-0.0236 -3.187,-0.0783 -4.78014,-0.0656 -0.49707,0.004 -0.59796,-0.15487 -0.61101,-0.6103 -0.0498,-1.75684 -0.14112,-3.51261 -0.21661,-5.26839 v 0 0 c 0.0473,-1.52153 -0.0762,-3.03741 -0.16051,-4.55366 -0.0356,-0.64029 0.0229,-1.2901 -0.13865,-1.92228 -0.0102,-0.26388 0.002,-0.53164 -0.0363,-0.79164 -0.0854,-0.57749 -0.28258,-0.71367 -0.8763,-0.69003 -0.71932,0.0289 -1.2506,0.34925 -1.59491,0.98072 -0.0896,0.29493 -0.23777,0.58561 -0.25929,0.88548 -0.14041,1.99849 -0.38947,3.98921 -0.44591,5.9944 -0.055,1.95439 -0.13512,3.90807 -0.20426,5.86211 -0.85443,-0.0547 -1.7085,-0.1143 -2.56364,-0.16263 -0.56444,-0.0314 -1.11513,0.0423 -1.64147,0.26035 h -3.6e-4 c -0.34889,0.0215 -0.62124,0.16016 -0.66886,0.53516 -0.0519,0.41099 0.23671,0.5962 0.5655,0.71155 0.21696,0.0762 0.44803,0.13723 0.67628,0.1524 0.84419,0.0564 1.69015,0.0935 2.53541,0.13335 1.35749,0.0631 1.09149,-0.11042 1.07315,1.13066 -0.0765,5.17419 -0.23283,10.34803 -0.0656,15.52363 0.0194,0.60431 0.28081,0.85655 0.90276,0.87277 0.65052,0.0173 1.29293,-0.0751 1.92899,-0.18979 1.19168,-0.21484 1.36137,-0.4385 1.36984,-1.65312 0.0318,-4.82776 3.5e-4,-9.65482 -0.085,-14.48153 -0.0226,-1.28481 -0.0198,-1.28764 1.30069,-1.29857 1.36137,-0.0113 2.72168,-0.0444 4.07493,-0.21061 0.38735,-0.0473 0.69992,-0.21096 0.6597,-0.64841 -0.0388,-0.41804 -0.37712,-0.49036 -0.73836,-0.496"
       style="fill:#b3b2e9;fill-opacity:1;fill-rule:nonzero;stroke:none;stroke-width:0.0352778"
       id="path447-9-6" />
    <path
       d="m -162.00804,124.95525 c -0.45216,-2.05895 -1.97895,-3.91579 -3.61541,-5.56338 -1.86903,-1.88174 -3.96877,-3.62997 -5.34617,-5.76866 -0.8132,-1.33396 -1.31939,-2.78606 -1.10537,-4.2273 0.1192,-0.56526 0.35098,-1.08258 0.74777,-1.54984 0.26542,-0.26568 0.56871,-0.49878 0.90167,-0.71333 0.0281,-0.0154 0.0559,-0.0305 0.0842,-0.0453 0.10251,-0.0532 0.20688,-0.1041 0.31309,-0.15231 0.0824,-0.0373 0.16662,-0.0713 0.25085,-0.10542 0.0209,-0.008 0.0416,-0.0143 0.063,-0.0212 0.0972,-0.0315 0.19655,-0.0598 0.29614,-0.0871 0.0633,-0.0127 0.12741,-0.0233 0.19125,-0.0342 0.035,0 0.0702,2.6e-4 0.10542,5.2e-4 0.0289,0.003 0.0577,0.007 0.0866,0.0101 0.0723,0.0154 0.14437,0.0312 0.21588,0.0501 0.0233,0.006 0.0464,0.013 0.0697,0.0196 0.18754,0.0704 0.36396,0.15682 0.53375,0.25191 0.28263,0.1947 0.52447,0.41852 0.72287,0.67069 0.17244,0.21879 0.7875,0.31124 1.0447,0.34117 0.51573,0.0591 1.12338,0.0339 1.6158,-0.0668 0.5062,-0.10331 1.72996,-0.40661 1.26562,-0.99651 -1.24999,-1.58612 -3.92718,-1.8881 -5.99779,-1.6942 -2.30211,0.21588 -4.50463,1.01637 -5.82322,2.50688 -0.57904,0.65399 -0.80155,1.43196 -0.87757,2.23747 -0.0864,0.91677 0.11761,1.8497 0.49825,2.73706 0.81293,1.89551 2.30662,3.57939 3.91473,5.13373 1.68361,1.6264 3.49171,3.21835 4.70489,5.09162 0.88604,1.45501 1.28469,3.00697 1.05,4.56688 -0.2233,1.15278 -0.7634,2.23959 -1.59699,3.17782 -0.35574,0.36766 -0.75042,0.7038 -1.20284,0.99888 -0.0289,0.0159 -0.0572,0.0318 -0.0869,0.0472 -0.12423,0.0649 -0.25217,0.12582 -0.38276,0.1833 -0.0525,0.0233 -0.10516,0.0456 -0.15867,0.0676 -0.0111,0.005 -0.0262,0.0106 -0.0429,0.017 -0.0641,0.0217 -0.12873,0.0429 -0.19389,0.0628 -0.0943,0.0291 -0.18966,0.0551 -0.28528,0.0808 -0.0344,0.008 -0.0689,0.0149 -0.10357,0.0215 -0.0623,0.0119 -0.12476,0.0227 -0.18728,0.0333 -0.0535,0.005 -0.10674,0.0111 -0.16052,0.0156 -0.005,2.6e-4 -0.009,5.3e-4 -0.0135,7.5e-4 -0.0826,2.7e-4 -0.16502,2.7e-4 -0.24766,-7.5e-4 -0.0665,-0.006 -0.13324,-0.014 -0.19973,-0.0225 -0.006,-7.5e-4 -0.0143,-0.002 -0.0233,-0.003 -0.002,-5.2e-4 -0.005,-7.5e-4 -0.007,-0.002 -0.0726,-0.0151 -0.14515,-0.0318 -0.21667,-0.0498 -0.0516,-0.013 -0.10225,-0.0276 -0.15311,-0.0416 -0.19151,-0.071 -0.37481,-0.15389 -0.54937,-0.24899 -0.33587,-0.22489 -0.60923,-0.49242 -0.81717,-0.79704 -0.0103,-0.0185 -0.0215,-0.0366 -0.0315,-0.0548 -0.13853,-0.25853 -0.37772,-0.36396 -0.71466,-0.44872 -0.46381,-0.11628 -1.04894,-0.12794 -1.51302,-0.0808 -0.48527,0.0496 -1.01689,0.1245 -1.42481,0.33429 -0.18834,0.0967 -0.62619,0.32104 -0.50143,0.55334 0.42408,0.79015 1.15331,1.42243 2.15722,1.78268 1.40998,0.5054 2.92009,0.5989 4.40768,0.50619 1.41369,-0.0879 2.8001,-0.41719 4.02572,-0.93213 1.13424,-0.47679 1.99565,-1.18218 2.7262,-2.00094 1.44256,-1.61686 2.0314,-3.77037 1.58745,-5.79224"
       style="fill:#000000;fill-opacity:1;fill-rule:nonzero;stroke:none;stroke-width:0.0264885"
       id="path547-1" />
    <path
       d="m -157.90021,125.05511 v 0 c 0,0 0,7.5e-4 2.7e-4,0.002 -2.7e-4,-7.5e-4 -2.7e-4,-10e-4 -2.7e-4,-0.002"
       style="fill:#c8c7ee;fill-opacity:1;fill-rule:nonzero;stroke:none;stroke-width:0.0264885"
       id="path889-4-1" />
    <path
       d="m -133.61832,108.04386 c 0.51647,0.0384 1.02835,0.12453 1.53282,0.25718 0.57433,0.18873 1.1303,0.4378 1.663,0.74718 0.57679,0.38171 1.11336,0.83397 1.59526,1.36137 0.44662,0.54928 0.82656,1.16099 1.12818,1.82739 0.03,0.0769 0.0614,0.15346 0.0896,0.23178 0.16581,0.46284 0.40464,0.76517 0.81986,0.95497 0.42898,0.19543 1.01423,0.20637 1.45309,0.054 0.45755,-0.15875 0.94474,-0.42156 1.23402,-0.87771 0.21978,-0.34642 0.44943,-0.85795 0.2928,-1.29575 -0.69709,-1.94733 -1.89053,-3.59234 -3.46004,-4.70464 -1.59632,-1.13136 -3.43923,-1.81928 -5.31989,-1.91029 -2.11138,-0.10196 -4.23404,0.34889 -6.07801,1.57691 -1.02941,0.68545 -1.91558,1.48943 -2.74496,2.46415 -0.69886,0.82162 -1.26083,1.75895 -1.76601,2.74603 -1.92864,3.77119 -2.24966,8.64411 -0.72108,12.66013 0.29492,0.77435 0.64029,1.51554 1.03399,2.21686 0.18662,1.09608 0.5013,2.16711 1.07703,3.06282 0.88265,1.37336 2.28212,2.28776 3.69853,2.74178 1.33455,0.42793 2.71674,0.60608 4.10033,0.42757 1.40582,-0.18133 2.76754,-0.61559 4.0446,-1.31586 0.0444,-0.0243 0.0882,-0.0515 0.13264,-0.0765 0.40887,-0.19579 0.80787,-0.42086 1.19204,-0.6798 1.7466,-1.17793 3.27942,-2.85009 4.04918,-5.03732 0.19262,-0.54857 0.32915,-1.12783 0.43039,-1.70638 0.0723,-0.41381 -0.1905,-0.94368 -0.47872,-1.1677 -0.31926,-0.24871 -0.67768,-0.35595 -1.0608,-0.37288 -0.42051,-0.018 -0.88124,0.0663 -1.25624,0.29915 -0.37783,0.23495 -0.82374,0.58773 -0.96379,1.0795 -0.17674,0.62124 -0.4131,1.21426 -0.69744,1.77977 -0.31221,0.54716 -0.66993,1.05657 -1.06645,1.52682 -0.38805,0.41275 -0.80363,0.78705 -1.24425,1.12289 -0.1651,0.11148 -0.33231,0.21767 -0.502,0.31785 -0.008,0.004 -0.0152,0.007 -0.0226,0.0102 -0.34643,0.13441 -0.69956,0.24483 -1.05833,0.32879 0.007,-0.25505 -0.0427,-0.50764 -0.19862,-0.69215 -0.98742,-1.16663 -1.79705,-2.5086 -2.4264,-3.96169 -0.71085,-1.77836 -1.14724,-3.68512 -1.30951,-5.63104 -0.10654,-1.82915 0.0303,-3.66889 0.42263,-5.44724 0.3249,-1.29611 0.78634,-2.54141 1.38676,-3.70241 0.0293,-0.0522 0.0575,-0.10512 0.0871,-0.15698 0.17287,-0.30198 0.34643,-0.66746 0.33091,-1.04422 0.19297,-0.0124 0.38629,-0.0159 0.58032,-0.0145"
       style="fill:#ebc532;fill-opacity:1;fill-rule:nonzero;stroke:none;stroke-width:0.0352778"
       id="path655" />
    <path
       d="m -136.56084,107.64769 c -0.39969,-0.14181 -0.94085,0.006 -1.21778,0.32632 -2.80953,3.25367 -4.06295,7.66833 -3.51544,11.91895 0.15382,1.1931 0.46179,2.36044 0.91405,3.47487 0.16052,0.39616 0.64559,0.44943 1.01671,0.3503 0.28716,-0.0773 0.86536,-0.41698 0.7052,-0.81174 -1.51342,-3.73027 -1.31762,-8.0391 0.46426,-11.64343 0.49918,-1.00965 1.11724,-1.94169 1.85314,-2.79365 0.25999,-0.30092 0.15204,-0.68932 -0.22014,-0.82162"
       style="fill:#e2ae2b;fill-opacity:1;fill-rule:nonzero;stroke:none;stroke-width:0.0352778"
       id="path657" />
    <path
       d="m -137.22617,128.12574 c -0.19368,-0.41346 -0.38735,-0.82691 -0.58068,-1.24072 -0.0219,-0.091 -0.0677,-0.16439 -0.13899,-0.22084 -0.0607,-0.0727 -0.13829,-0.12382 -0.23178,-0.1531 -0.19438,-0.0765 -0.45931,-0.0801 -0.65757,-0.0201 -0.20744,0.0632 -0.42828,0.16651 -0.55986,0.34642 -0.0339,0.054 -0.067,0.10831 -0.1009,0.16228 -0.0512,0.11183 -0.0621,0.22754 -0.0332,0.34678 0.19368,0.41381 0.387,0.82727 0.58068,1.24072 0.0215,0.091 0.0677,0.16475 0.13828,0.22084 0.0614,0.0727 0.13865,0.12382 0.23178,0.15346 0.19473,0.0765 0.45967,0.0797 0.65828,0.0198 0.20744,-0.0628 0.42827,-0.16651 0.55986,-0.34608 0.0335,-0.0543 0.067,-0.1083 0.1009,-0.16263 0.0508,-0.11183 0.0621,-0.22719 0.0332,-0.34678"
       style="fill:#e2ae2b;fill-opacity:1;fill-rule:nonzero;stroke:none;stroke-width:0.0352778"
       id="path659" />
    <path
       d="m -110.01069,122.72511 c -0.0609,0.56267 -0.11021,1.12642 -0.18163,1.68748 -0.27325,2.14235 -1.14312,3.97454 -2.84623,5.34699 -0.94587,0.76209 -2.02594,1.08627 -3.24291,0.83862 -0.0665,-0.0137 -0.13582,-0.0121 -0.20454,-0.0154 -0.007,-2.7e-4 -0.0134,-2.7e-4 -0.0202,-7.6e-4 v 0 c -1.23745,-0.28727 -1.96288,-1.19083 -2.61637,-2.18144 -0.0825,-0.12504 -0.16599,-0.24953 -0.249,-0.3743 -0.004,-0.008 -0.006,-0.0162 -0.01,-0.0245 -1.1698,-2.7274 -1.38539,-5.59007 -1.23017,-8.51391 0.1342,-2.52152 0.50851,-5.00126 1.16442,-7.43762 0.12585,-0.46727 0.29966,-0.92162 0.45192,-1.38188 7.6e-4,-0.003 0.002,-0.006 0.003,-0.01 0.28376,-0.55324 0.68744,-1.01297 1.12292,-1.44792 v 0 0 c 0.14471,0.0984 0.0283,0.29024 0.14201,0.39992 0.20615,1.44656 1.68613,2.92896 3.2615,3.23374 0.90114,0.17435 1.80335,0.17435 2.68536,-0.13151 0.007,-0.002 0.0134,-0.004 0.0205,-0.007 0.53168,-0.0539 1.01863,-0.26273 1.50719,-0.45514 0.23472,-0.0924 0.30047,-0.0291 0.34116,0.19834 0.1431,0.79469 0.21074,1.59908 0.22771,2.40186 0.0547,2.63038 -0.0437,5.25618 -0.32688,7.87363 z m -5.51945,-14.86552 c 0.42416,-0.30236 0.89223,-0.15414 1.33769,-0.1051 0.62222,0.0682 1.15606,0.37754 1.66349,0.72894 0.001,0 0.003,0 0.005,0 0.19618,0.19914 0.40691,0.38697 0.58396,0.60201 0.13259,0.16115 0.38805,0.23876 0.37081,0.50959 v 2.7e-4 c -0.14202,0.0776 -0.29024,0.14525 -0.42417,0.23498 -0.63974,0.4282 -1.33526,0.55001 -2.08172,0.38724 -0.77799,-0.1695 -1.28137,-0.67558 -1.54788,-1.3932 -0.11131,-0.29993 -0.13368,-0.66265 0.093,-0.96473 z m 9.6565,-1.20969 c 0.0943,-0.24388 0.07,-0.38239 -0.15899,-0.52522 -0.41231,-0.25816 -0.80575,-0.54839 -1.20996,-0.82514 -0.0242,-0.0175 -0.0512,-0.0348 -0.0781,-0.0523 -0.19133,-0.128 -0.38535,-0.25466 -0.57399,-0.3867 -0.11857,-0.0825 -0.19753,-0.0819 -0.25331,0.0676 -0.37566,1.00542 -1.01944,1.87342 -1.45492,2.84812 -0.0623,0.0865 -0.14228,0.16519 -0.18297,0.26086 -0.13232,0.31151 -0.28646,0.31879 -0.47752,0.0539 -0.18837,-0.25924 -0.41177,-0.48291 -0.66966,-0.67262 v 0 c -0.0781,-0.0779 -0.15656,-0.15576 -0.23471,-0.23364 -0.0558,-0.12989 -0.14471,-0.21666 -0.29293,-0.2269 -0.0752,-0.0501 -0.15063,-0.10024 -0.22582,-0.15037 -0.15414,-0.1924 -0.37053,-0.26571 -0.59905,-0.31502 -2.7e-4,0 -2.7e-4,0 -2.7e-4,-2.7e-4 v 2.7e-4 0 c 2.7e-4,2.7e-4 5.4e-4,5.4e-4 7.7e-4,5.4e-4 -0.13312,-0.11022 -0.28781,-0.15333 -0.45866,-0.14498 v 0 c -0.31313,-0.0399 -0.61629,-0.12154 -0.91515,-0.22044 -0.94048,-0.25357 -1.87476,-0.22986 -2.80204,0.0672 -2.7e-4,0 -2.7e-4,0 -5.3e-4,2.7e-4 -0.34305,0.10024 -0.67316,0.22717 -0.97282,0.42955 -0.66724,0.45164 -1.22479,1.02401 -1.76725,1.61229 -0.35598,0.38616 -0.7222,0.7672 -0.93374,1.26196 -0.13528,0.13043 -0.19187,0.30344 -0.25493,0.47321 0,0 0,0 -2.6e-4,0 -0.0582,0.0916 -0.12908,0.17894 -0.11669,0.29858 -0.0248,0.0426 -0.0577,0.0827 -0.0733,0.12855 -0.81922,2.40213 -1.46031,4.84469 -1.67455,7.38479 -0.0122,0.14633 0.063,0.332 -0.13204,0.42578 0,0.22662 0,0.45326 0,0.67989 0,0.15117 0,0.30209 0,0.45326 0,0.30182 0,0.6039 0,0.90599 0,0.15091 0,0.30209 0,0.45326 0,0.2261 0,0.45273 0,0.67936 0,0.22663 0,0.45326 0,0.67963 0.0294,-0.002 0.0582,-0.003 0.0873,-0.005 0.0173,0.007 0.0348,0.0116 0.0528,0.015 -0.006,0.4088 -0.0321,0.81895 0.0789,1.2202 0,2.7e-4 0,5.4e-4 2.7e-4,7.7e-4 -0.0157,0.0164 -0.0159,0.0331 -2.7e-4,0.0496 -0.005,0.46889 0.034,0.9324 0.14984,1.38781 v 2.7e-4 c -0.0146,0.0162 -0.014,0.0323 0.002,0.0474 2.6e-4,0.31232 0.0445,0.6171 0.15171,0.91138 -7.6e-4,-7.6e-4 -0.002,-0.002 -0.002,-0.002 -0.002,0.13177 -0.0148,0.2657 0.0727,0.37969 -5.3e-4,-5.3e-4 -7.6e-4,-7.6e-4 -0.002,-0.002 -2.7e-4,0.15603 -0.008,0.31314 0.0811,0.45273 -0.005,0.13366 -0.002,0.26516 0.0746,0.38266 7.6e-4,0.002 7.6e-4,0.003 0.002,0.005 -0.008,0.31664 0.10752,0.60606 0.19619,0.90168 0.0512,0.18055 0.0684,0.37295 0.18055,0.53249 0,2.7e-4 0,2.7e-4 0,2.7e-4 0.0515,0.35194 0.22394,0.66238 0.33954,0.99249 0.66022,1.885 2.63658,2.72065 4.38711,2.77913 0.64487,0.0757 1.29027,0.13286 1.93513,5.4e-4 2.7e-4,0 2.7e-4,0 5.4e-4,0 l 0.0226,0.0118 0.0229,-0.0121 c 0.15765,0.004 0.31798,0.0224 0.45892,-0.0746 -5.4e-4,7.7e-4 -0.001,0.002 -0.002,0.002 0.13716,0.005 0.27298,0.005 0.39182,-0.0798 2.6e-4,-2.7e-4 2.6e-4,-2.7e-4 5.4e-4,-2.7e-4 0.18702,0.007 0.35248,-0.0593 0.50932,-0.15361 0.31178,-0.0167 0.58826,-0.15467 0.83322,-0.31852 1.20645,-0.80816 2.32102,-1.7252 3.08365,-2.98824 0.87311,-1.44603 1.2175,-3.07341 1.50935,-4.70969 0.43116,-2.4121 0.47967,-4.85007 0.43925,-7.29047 -0.0296,-1.84243 -0.31799,-3.65306 -0.82326,-5.42461 -0.0816,-0.28646 -0.0552,-0.49396 0.12557,-0.72517 0.88632,-1.13343 1.63009,-2.35147 2.15288,-3.69913"
       style="fill:#617e83;fill-opacity:1;fill-rule:nonzero;stroke:none;stroke-width:0.0269479"
       id="path675-3" />
    <path
       d="m -98.50067,131.01653 c -1.69413,0.0101 -3.39201,-0.0719 -5.07917,0.13712 -0.56587,0.0698 -0.45368,-0.30902 -0.44789,-0.61109 0.0791,-4.38372 0.1635,-8.76686 0.20989,-11.21267 0.16089,-6.24568 0.31511,-10.55403 0.22438,-14.86441 -0.0127,-0.60037 0.10957,-0.82039 0.7569,-0.79691 1.22217,0.0444 2.43304,0.16872 3.64652,0.29859 0.52384,0.0562 0.74734,0.29047 0.79256,0.78241 0.14988,1.63528 0.36121,3.26677 0.45136,4.90465 0.24757,4.48084 0.13104,8.96747 0.16524,13.45178 0.0177,2.34174 0.0632,4.68347 0.13335,7.02433 0.0197,0.65168 -0.21829,0.88272 -0.85314,0.8862 z m 1.19144,-26.62671 c -0.17538,-1.06303 -0.4786,-1.32075 -1.54744,-1.49352 -1.68165,-0.2722 -3.37432,-0.27801 -5.06959,-0.27945 -0.53949,-2.9e-4 -0.77053,0.22496 -0.75923,0.76357 0.0977,4.66173 -0.1003,9.31765 -0.25742,13.97416 -0.25539,4.63013 -0.0484,9.26982 -0.31627,13.89995 -0.0476,0.82329 0.35338,1.19087 1.18682,1.11579 1.93675,-0.17452 3.87988,-0.20177 5.82157,-0.25337 1.3448,-0.0357 1.7176,-0.38584 1.70774,-1.74978 -0.0484,-6.57934 -0.073,-13.15898 -0.17451,-19.73775 -0.0325,-2.08693 -0.25104,-4.17355 -0.59167,-6.2396"
       style="fill:#2f2c2c;fill-opacity:1;fill-rule:nonzero;stroke:none;stroke-width:0.028989"
       id="path525" />
    <path
       d="m -88.40592,131.1175 c -1.69413,0.0101 -3.39201,-0.0719 -5.07917,0.13712 -0.56587,0.0698 -0.45368,-0.30902 -0.44789,-0.61109 0.0791,-4.38372 0.1635,-8.76686 0.20989,-11.21267 0.16089,-6.24568 0.31511,-10.55403 0.22438,-14.86441 -0.0127,-0.60037 0.10957,-0.82039 0.7569,-0.79691 1.22217,0.0444 2.43304,0.16872 3.64652,0.29859 0.52384,0.0562 0.74734,0.29047 0.79256,0.78241 0.14988,1.63528 0.36121,3.26677 0.45136,4.90465 0.24757,4.48084 0.13104,8.96747 0.16524,13.45178 0.0177,2.34174 0.0632,4.68347 0.13335,7.02433 0.0197,0.65168 -0.21829,0.88272 -0.85314,0.8862 z m 1.19144,-26.62671 c -0.17538,-1.06303 -0.4786,-1.32075 -1.54744,-1.49352 -1.68165,-0.2722 -3.37432,-0.27801 -5.06959,-0.27945 -0.53949,-2.9e-4 -0.77053,0.22496 -0.75923,0.76357 0.0977,4.66173 -0.1003,9.31765 -0.25742,13.97416 -0.25539,4.63013 -0.0484,9.26982 -0.31627,13.89995 -0.0476,0.82329 0.35338,1.19087 1.18682,1.11579 1.93675,-0.17452 3.87988,-0.20177 5.82157,-0.25337 1.3448,-0.0357 1.7176,-0.38584 1.70774,-1.74978 -0.0484,-6.57934 -0.073,-13.15898 -0.17451,-19.73775 -0.0325,-2.08693 -0.25104,-4.17355 -0.59167,-6.2396"
       style="fill:#2f2c2c;fill-opacity:1;fill-rule:nonzero;stroke:none;stroke-width:0.028989"
       id="path525-3" />
    <path
       d="m -68.66824,129.45961 c -0.84738,0.0201 -1.69545,0.0529 -2.54141,0.10407 -2.89313,0.17462 -5.78697,0.33373 -8.68292,0.45508 -1.28976,0.054 -2.57951,0.11536 -3.86856,0.18309 -0.24942,0.013 -0.28258,-0.0399 -0.17216,-0.26564 2.13396,-4.36774 4.28202,-8.72913 6.38387,-13.1124 1.19874,-2.49907 2.32022,-5.0359 3.47662,-7.55509 0.0522,-0.11394 0.11183,-0.22436 0.20355,-0.40745 0.15346,0.33655 0.19227,0.62371 0.26141,0.9024 1.48802,5.97817 3.03812,11.94012 4.71311,17.8689 0.14076,0.49918 0.29528,0.99484 0.45862,1.48731 0.0787,0.23707 0.0476,0.33303 -0.23213,0.33973 z m 1.56598,0.34713 c 3.5e-4,0 3.5e-4,0 3.5e-4,0 -0.0991,-0.12982 -0.14252,-0.27516 -0.12488,-0.43815 0,-3.5e-4 -3.6e-4,-7e-4 -3.6e-4,-0.001 -0.12735,-0.27093 -0.19896,-0.55703 -0.22648,-0.85478 v 0 0 c 0,3.5e-4 3.5e-4,7.1e-4 7.1e-4,0.001 -0.10972,-0.21519 -0.15029,-0.44626 -0.15558,-0.68545 l 0.004,0.005 c 0,0 0,0 0,-3.5e-4 -0.17357,-0.52246 -0.31609,-1.05269 -0.3877,-1.6002 l 0.004,0.006 c 0,0 0,0 0,-3.5e-4 -0.14535,-0.26035 -0.17639,-0.55527 -0.25188,-0.83679 -0.0755,-0.0843 -0.0533,-0.18732 -0.055,-0.2854 0,-3.5e-4 0,-3.5e-4 0,-7e-4 -0.10795,-0.16792 -0.12524,-0.36442 -0.17322,-0.55139 -0.0765,-0.084 -0.0526,-0.18768 -0.0554,-0.28611 v 0 0 c -0.12488,-0.27269 -0.20038,-0.5588 -0.23072,-0.85689 10e-4,3.5e-4 0.002,10e-4 0.004,0.002 -0.13864,-0.26247 -0.20108,-0.54646 -0.23318,-0.83856 l 0.004,0.005 v 0 c -0.11959,-0.15733 -0.12453,-0.35242 -0.17427,-0.53304 v 0 c -0.0769,-0.0843 -0.0533,-0.18803 -0.0557,-0.28681 0,0 0,0 0,-3.5e-4 -0.0988,-0.17145 -0.14676,-0.35737 -0.1524,-0.55457 0.001,0.001 0.002,0.002 0.002,0.003 -0.13512,-0.26035 -0.19403,-0.54222 -0.23848,-0.82868 0,-3.5e-4 3.5e-4,-3.5e-4 3.5e-4,-3.5e-4 l -3.5e-4,3.5e-4 c -0.1009,-0.1651 -0.121,-0.35524 -0.16651,-0.53728 -0.0751,-0.0843 -0.054,-0.18697 -0.055,-0.28575 l -3.6e-4,-3.5e-4 c -0.0984,-0.1718 -0.14675,-0.35772 -0.15169,-0.55527 h -3.5e-4 c 0,0 0,0 3.5e-4,0 v 0 c 3.5e-4,3.5e-4 7.1e-4,7e-4 10e-4,0.001 -0.11359,-0.15875 -0.12418,-0.35031 -0.17216,-0.52987 -0.11606,-0.36901 -0.26317,-0.72955 -0.2868,-1.12184 v -3.5e-4 c -0.0981,-0.1718 -0.14782,-0.35701 -0.15276,-0.55421 3.6e-4,3.5e-4 7.1e-4,0.001 0.001,0.001 -0.1143,-0.15805 -0.12312,-0.35031 -0.17392,-0.52952 -0.0653,-0.16898 -0.12841,-0.33832 -0.12911,-0.52317 0,-3.6e-4 0,-3.6e-4 0,-3.6e-4 -0.0988,-0.16827 -0.14746,-0.35101 -0.15452,-0.54539 3.5e-4,7.1e-4 7.1e-4,0.001 0.001,0.002 -0.10548,-0.16157 -0.14429,-0.3429 -0.15416,-0.53199 7e-4,7.1e-4 0.002,0.001 0.003,0.002 -0.11607,-0.15804 -0.12594,-0.35172 -0.17569,-0.53163 -0.18027,-0.60714 -0.39123,-1.20545 -0.50729,-1.83057 -0.054,-0.0663 -0.0903,-0.13864 -0.0713,-0.22789 -0.0134,-0.019 -0.0162,-0.0392 -0.009,-0.061 v 0 0 c -0.10689,-0.16263 -0.12982,-0.35349 -0.17851,-0.53552 -3.5e-4,0 -3.5e-4,0 -3.5e-4,0 -0.012,-0.0293 -0.024,-0.0586 -0.0356,-0.0878 -0.005,-0.0444 -0.01,-0.0885 -0.0152,-0.133 0,-3.5e-4 0,-3.5e-4 0,-3.5e-4 -0.10054,-0.16898 -0.14887,-0.35313 -0.15451,-0.54892 7e-4,0.001 10e-4,0.002 0.002,0.003 -0.10548,-0.16263 -0.1517,-0.3422 -0.15628,-0.53446 10e-4,10e-4 0.003,0.003 0.004,0.004 -0.12595,-0.24024 -0.20885,-0.49319 -0.23072,-0.76482 l 0.003,0.005 v 0 0 c -0.10866,-0.16263 -0.15452,-0.34326 -0.15734,-0.53693 0.001,0.002 0.002,0.003 0.004,0.005 -0.19932,-0.44274 -0.30868,-0.91405 -0.44521,-1.37689 -0.20672,-0.30516 -0.4519,-0.41699 -0.77187,-0.15417 v 0 c -0.0487,0.0519 -0.0974,0.10372 -0.1457,0.15558 v 0 c -0.0483,0.10124 -0.0967,0.20179 -0.14464,0.30268 v 0 0 c 0,0 0,0 0,3.5e-4 -0.35525,0.90311 -0.7627,1.78012 -1.29787,2.59292 -0.30762,0.49671 -0.48507,1.06327 -0.82127,1.54481 v 0 c -0.002,0.14041 -0.0889,0.24236 -0.15804,0.35243 -0.25329,0.50765 -0.50588,1.01529 -0.75918,1.52294 0,3.5e-4 0,3.5e-4 0,3.5e-4 -0.0512,0.1009 -0.1023,0.20179 -0.15346,0.30269 -0.23495,0.49882 -0.44838,1.00859 -0.75141,1.47284 v 0 c -0.0519,0.14253 -0.10407,0.2847 -0.15628,0.42687 v 0 0 c -0.0413,0.25294 -0.1517,0.47307 -0.31292,0.66957 -0.12382,0.25858 -0.24835,0.51682 -0.37218,0.7754 v 0 0 c -0.0159,0.20074 -0.0963,0.37218 -0.2346,0.51753 -0.14887,0.30903 -0.29774,0.61807 -0.44696,0.92675 0,3.5e-4 0,3.5e-4 0,3.5e-4 v 0 0 c -0.0628,0.30621 -0.19968,0.5775 -0.38806,0.82479 -0.14887,0.30833 -0.2981,0.61666 -0.44732,0.92463 v 0 c 0,3.6e-4 0,3.6e-4 0,3.6e-4 -0.0617,0.30727 -0.19862,0.57926 -0.38771,0.82691 -0.0988,0.20637 -0.19755,0.41239 -0.29668,0.61842 v 0 3.5e-4 c -0.0402,0.25435 -0.14393,0.47942 -0.31009,0.67522 -0.0734,0.15522 -0.14676,0.31044 -0.22014,0.46531 0,0 0,0 0,3.5e-4 -0.0166,0.20214 -0.0949,0.37677 -0.2353,0.52317 -0.073,0.15487 -0.1464,0.3101 -0.21907,0.46496 0,0 -3.6e-4,0 -3.6e-4,3.6e-4 -0.0166,0.20214 -0.0956,0.37676 -0.23601,0.52317 -0.0988,0.20602 -0.1972,0.41204 -0.29562,0.61806 v 0 0 c -0.0413,0.25436 -0.145,0.47978 -0.31186,0.67593 -0.0483,0.10442 -0.0967,0.20884 -0.14464,0.31326 v 0 c -0.0342,0.25859 -0.15134,0.48119 -0.29986,0.68968 v 0 c 0,3.6e-4 0,3.6e-4 0,3.6e-4 l 3.5e-4,-3.6e-4 c -3.5e-4,3.6e-4 -3.5e-4,3.6e-4 -3.5e-4,7.1e-4 -0.18097,0.5528 -0.40358,1.08796 -0.68439,1.59808 7.1e-4,-3.5e-4 0.001,-0.001 0.002,-0.001 v 0 0 c -0.008,0.14535 -0.0557,0.27411 -0.15946,0.37924 -0.0332,0.15134 -0.0907,0.28892 -0.21872,0.38629 -0.15099,0.34325 -0.30586,0.68439 -0.45226,1.0294 -0.0646,0.15135 -0.0907,0.31327 -0.0797,0.47908 -7.1e-4,-3.6e-4 -7.1e-4,-0.001 -0.002,-0.001 0.16086,0.17709 0.35524,0.2293 0.59901,0.23742 0.78917,0.0272 1.57727,0.0878 2.36573,0.13582 -0.005,0.005 -0.009,0.0109 -0.0134,0.0162 3.6e-4,0 7.1e-4,0 7.1e-4,0 l 0.0127,-0.0162 c 0.58032,3.5e-4 1.16099,0.001 1.74131,0.002 0.14535,-7.1e-4 0.29034,-0.001 0.43498,-0.002 0.37218,-0.0938 0.75177,-0.0416 1.12712,-0.0497 0.86995,-0.0183 1.7399,-0.0205 2.6102,-0.0293 0.14182,-0.0762 0.29634,-0.0409 0.44521,-0.0469 0.96943,-0.0374 1.93922,-0.0713 2.90865,-0.10619 v 0 c 0.0187,-0.0113 0.0367,-0.0106 0.0547,0.002 0.0624,-0.0219 0.12524,-0.0374 0.18698,-0.0335 0.42333,-0.0621 0.8516,-0.0325 1.27776,-0.0434 0.0194,-0.0113 0.0388,-0.012 0.0589,-0.001 0.61136,-0.0956 1.22766,-0.0688 1.84326,-0.0787 v 0 c 0.018,-0.0102 0.0367,-0.0102 0.0554,-3.5e-4 h -3.5e-4 c 0.33196,-0.0977 0.67345,-0.0328 1.00965,-0.0582 0.23812,-0.018 0.47978,-0.007 0.71402,-0.0444 0.64594,-0.1016 0.81386,-0.3616 0.69109,-1.02765"
       style="fill:#7b79cd;fill-opacity:1;fill-rule:nonzero;stroke:none;stroke-width:0.0352778"
       id="path911-88" />
    <path
       d="m -68.86403,128.82249 c -0.30974,-1.31656 -0.7112,-2.61055 -0.93945,-3.94688 -0.2734,-1.60125 -0.49707,-3.21239 -0.90629,-4.78684 -0.5521,-2.12513 -1.12995,-4.24356 -1.6704,-6.37187 -0.36583,-1.44004 -0.71014,-2.88431 -1.30034,-4.25238 -0.0815,-0.18945 -0.1524,-0.47202 -0.34995,-0.48084 -0.14147,-0.006 -0.19439,0.29457 -0.27305,0.4639 -0.97261,2.08704 -1.8983,4.19559 -2.80812,6.31155 -0.85371,1.98473 -1.7533,3.94935 -2.62043,5.92808 -1.01952,2.32728 -2.03094,4.65808 -3.11679,6.95466 -0.27375,0.5782 -0.47307,1.19063 -0.78987,1.74943 -0.0646,0.11359 -0.14287,0.2794 0.11042,0.24024 0.53869,-0.0833 1.08021,-0.0116 1.47073,-0.0395 0.84138,-0.0166 1.53459,-0.0494 2.22603,-0.0586 2.82151,-0.0385 5.64409,0.005 8.46455,-0.10301 0.83361,-0.0318 1.66617,-0.0811 2.50049,-0.0624 0.22119,0.005 0.31009,-0.0818 0.26775,-0.29351 -0.0829,-0.4184 -0.16721,-0.83679 -0.26528,-1.25201"
       style="fill:#b3b2e9;fill-opacity:1;fill-rule:nonzero;stroke:none;stroke-width:0.0352778"
       id="path913-3" />
    <path
       d="m -85.22707,130.95266 -0.0107,-0.0148 c 0.002,0.006 0.005,0.0119 0.007,0.0177 8.2e-4,-8.2e-4 0.002,-0.002 0.003,-0.002"
       style="fill:#c67379;fill-opacity:1;fill-rule:nonzero;stroke:none;stroke-width:0.028989"
       id="path531-9" />
    <path
       d="m -57.35319,128.28557 c -0.86106,0.43964 -1.92397,0.5263 -2.91766,0.57465 -0.002,-0.002 -0.004,-0.004 -0.007,-0.006 0.0256,-0.28772 0.003,-0.57835 -0.0748,-0.86475 -0.0137,-0.0504 -0.0933,-0.0666 -0.18969,-0.0676 0.0107,-1.42619 0.009,-2.85239 -0.0259,-4.27832 0.27451,0.0111 0.59209,-0.0668 0.81455,-0.18997 0.14241,-0.0784 0.26077,-0.1276 0.39156,-0.16592 -0.004,0.002 0.1181,-0.0269 0.16512,-0.0375 -0.004,0.003 0.19843,-0.0217 0.16778,-0.0193 0.37465,-0.0271 0.7522,0.0215 1.10888,0.11493 0.34242,0.0895 0.66475,0.22801 0.95194,0.40344 0.28826,0.34929 0.53238,0.72631 0.74032,1.11602 0.17886,0.33502 0.33396,0.67796 0.47848,1.02381 -0.0256,0.94612 -0.60107,1.88538 -1.60348,2.39742 z m 1.11601,0.21084 c -0.30542,0.0595 -0.61058,0.11862 -0.916,0.17833 0.51335,-0.18732 0.98734,-0.42484 1.38735,-0.73054 -0.12947,0.19948 -0.28508,0.38733 -0.47135,0.55221 z m -0.28138,0.8621 c -0.69962,0.37518 -1.52554,0.52815 -2.34405,0.4806 0.42035,-0.084 0.84044,-0.16777 1.26079,-0.25153 0.13396,-0.0266 0.40293,-0.10492 0.50068,-0.22722 0.33898,-0.069 0.67188,-0.15588 0.99421,-0.26051 -0.13104,0.0927 -0.26658,0.18099 -0.41163,0.25866 z m -4.76553,-7.95002 c 0.45761,-0.14241 0.93293,-0.21295 1.45025,-0.21903 0.59658,-0.006 1.2328,0.0956 1.80955,0.27531 0.25576,0.0798 0.50095,0.17622 0.73424,0.28719 -0.0574,-0.007 -0.11493,-0.0124 -0.17226,-0.019 -0.0705,-0.018 -0.15033,-0.0235 -0.20767,-0.023 -0.33872,-0.0322 -0.67875,-0.0502 -1.01905,-0.0549 -0.42247,-0.10939 -0.86423,-0.18284 -1.31999,-0.21956 -0.42484,-0.0341 -0.85048,-0.041 -1.27507,-0.0269 z m -1.31496,-9.83779 c -0.18864,0.0322 -0.37623,0.0877 -0.49064,0.16274 7.5e-4,-0.0534 10e-4,-0.10641 0.003,-0.15957 0.0232,-1.37389 0.0467,-2.74752 0.0705,-4.12138 0.056,0.75854 0.11229,1.51707 0.16857,2.27561 -0.0441,0.2872 -0.0883,0.5744 -0.13263,0.86132 -0.0325,0.21296 0.18204,0.30701 0.44148,0.31019 -0.0214,0.22352 -0.0402,0.4473 -0.0603,0.67109 z m -0.57783,18.69801 c -2.5e-4,7.5e-4 -2.5e-4,0.001 -7.4e-4,0.002 -0.0816,0.0199 -0.15825,0.0481 -0.23092,0.0809 0.0256,-1.50546 0.0515,-3.01065 0.0775,-4.51585 0.005,0.17545 0.01,0.35088 0.0154,0.52604 0.0452,1.28723 0.10642,2.57392 0.18072,3.86009 -0.014,0.0156 -0.031,0.0294 -0.0418,0.0465 z m 10.15432,-7.64777 c -0.29115,-0.62063 -0.76197,-1.19897 -1.42461,-1.59767 -0.74903,-0.45047 -1.65235,-0.67003 -2.55568,-0.81507 -1.12237,-0.18072 -2.32186,-0.32129 -3.45638,-0.13872 -0.18838,0.0305 -0.3765,0.0721 -0.5625,0.12074 0.1144,-3.56364 0.15615,-7.12913 0.11837,-10.69382 -0.0117,-1.09726 -0.0305,-2.19426 -0.0565,-3.29125 -10e-4,-0.0816 -0.17306,-0.1247 -0.23806,-0.1403 -0.58204,-0.13896 -1.19502,-0.16459 -1.79477,-0.0962 -0.14796,0.017 -0.38494,0.0666 -0.54109,0.1617 -0.32656,0.0455 -0.68113,0.17676 -0.6843,0.36223 -0.054,3.15121 -0.1078,6.30242 -0.16196,9.45364 -0.0536,3.13694 -0.10753,6.27415 -0.16117,9.41109 -0.0307,1.78236 -0.061,3.5647 -0.0917,5.34705 0.0217,0.0441 0.0607,0.0732 0.11784,0.0867 0.52763,0.19683 1.12976,0.16434 1.67165,0.0131 0.91257,0.16144 1.85765,0.26211 2.79982,0.27902 0.01,0.003 0.0163,0.006 0.0277,0.009 1.46504,0.29062 3.01911,0.2679 4.4017,-0.26051 0.58708,-0.22458 1.09383,-0.56066 1.45659,-0.97625 0.0431,-0.0285 0.089,-0.0536 0.13026,-0.0838 0.2568,-0.10407 0.49591,-0.23515 0.68324,-0.41137 0.28957,-0.27214 0.40476,-0.62803 0.48403,-0.97335 0.0985,-0.43013 0.17279,-0.86449 0.22695,-1.2999 0.18151,-1.45553 0.26421,-3.07406 -0.38944,-4.46617"
       style="fill:#c1d9c8;fill-opacity:1;fill-rule:nonzero;stroke:none;stroke-width:0.0264208"
       id="path563" />
  </g>
</svg>
