<?xml version="1.0" encoding="UTF-8" standalone="no"?>
<!-- Created with Inkscape (http://www.inkscape.org/) -->

<svg
   width="344.40622mm"
   height="38.464283mm"
   viewBox="0 0 344.40622 38.464283"
   version="1.1"
   id="svg19880"
   inkscape:version="1.1.1 (1:1.1+202109281949+c3084ef5ed)"
   sodipodi:docname="rm-artists-trust-opens.svg"
   xmlns:inkscape="http://www.inkscape.org/namespaces/inkscape"
   xmlns:sodipodi="http://sodipodi.sourceforge.net/DTD/sodipodi-0.dtd"
   xmlns="http://www.w3.org/2000/svg"
   xmlns:svg="http://www.w3.org/2000/svg">
  <sodipodi:namedview
     id="namedview19882"
     pagecolor="#ffffff"
     bordercolor="#666666"
     borderopacity="1.0"
     inkscape:pageshadow="2"
     inkscape:pageopacity="0.0"
     inkscape:pagecheckerboard="0"
     inkscape:document-units="mm"
     showgrid="false"
     inkscape:zoom="0.71090067"
     inkscape:cx="-291.88325"
     inkscape:cy="-16.176662"
     inkscape:window-width="1920"
     inkscape:window-height="970"
     inkscape:window-x="0"
     inkscape:window-y="27"
     inkscape:window-maximized="1"
     inkscape:current-layer="layer1" />
  <defs
     id="defs19877" />
  <g
     inkscape:label="Layer 1"
     inkscape:groupmode="layer"
     id="layer1"
     transform="translate(-182.48486,-153.08741)">
    <path
       d="m 194.07586,167.91163 c 0.007,1.38324 -0.17568,2.7619 -0.10336,4.1462 0.0212,0.40252 -0.20108,0.41557 -0.48577,0.38171 -0.37148,-0.001 -0.7426,-0.008 -1.11372,-0.002 -0.2667,0.005 -0.40217,-0.0416 -0.26847,-0.36337 0.64206,-1.54622 1.33139,-3.07375 1.85702,-4.6676 v 0 0 c 0.17392,0.13758 0.0794,0.3362 0.11254,0.50553 3.5e-4,7.1e-4 3.5e-4,10e-4 3.5e-4,10e-4 7.1e-4,-7e-4 7.1e-4,-0.002 10e-4,-0.002 z m 8.38023,15.42803 c -0.1725,-1.64324 -0.36229,-3.28295 -0.66674,-4.90396 -0.56903,-3.0353 -1.20263,-6.06002 -1.57127,-9.12813 -0.32738,-2.72697 -0.90593,-5.38515 -1.84538,-7.96148 -0.25788,-0.70697 -0.49073,-1.42805 -0.92499,-2.0514 -0.66463,-0.95356 -1.9124,-0.87348 -2.40982,0.16121 -0.53905,1.12007 -0.97331,2.29976 -1.59526,3.36903 -1.50601,2.59045 -2.68923,5.34423 -4.05695,8.00417 -1.27211,2.47439 -2.18404,5.11246 -3.26178,7.67398 -1.08903,2.58939 -1.94733,5.27756 -3.03459,7.87294 -0.26953,0.64417 -0.56374,1.29082 -0.60255,2.01189 -0.0138,0.25153 0.0423,0.39582 0.33761,0.40288 0.69462,0.0166 1.3903,0.0452 2.08245,0.10618 0.39969,0.0356 0.62759,-0.10724 0.79657,-0.47096 0.47484,-1.02376 0.93768,-2.04893 1.276,-3.13125 1.02235,-3.2706 2.45921,-6.37681 3.7151,-9.55464 0.0924,-0.23389 0.25682,-0.25329 0.46461,-0.24976 0.82479,0.0148 1.64888,0.002 2.47332,0.0825 0.33267,0.0325 0.42651,0.12594 0.44556,0.46037 0.0794,1.38748 0.23918,2.76684 0.43956,4.14267 0.22613,1.55187 0.40675,3.11044 0.63077,4.66267 0.17745,1.22802 0.26846,2.46979 0.57044,3.67947 0.0815,0.32667 0.19015,0.49847 0.57644,0.48507 0.95497,-0.0335 1.9117,-0.0113 2.86773,-0.0113 0,-0.005 0,-0.01 0,-0.0152 0.97226,0 1.94451,-0.006 2.91677,0.003 0.36971,0.003 0.54962,-0.10231 0.55174,-0.53481 0.008,-1.70463 0.004,-3.40396 -0.17533,-5.10505"
       style="fill:#dfa6a8;fill-opacity:1;fill-rule:nonzero;stroke:none;stroke-width:0.0352778"
       id="path933" />
    <path
       d="m 197.36516,167.72784 c -0.14569,-1.79106 -0.28151,-3.58282 -0.40745,-5.37528 -0.0222,-0.3115 -1.07703,-0.0998 -1.05059,0.28152 0.44804,6.37328 1.02236,12.73774 1.72545,19.08774 0.19755,1.78612 0.40534,3.57082 0.62336,5.35447 0.0392,0.32173 1.09573,0.0921 1.04987,-0.28152 -0.77365,-6.34189 -1.42135,-12.69894 -1.94064,-19.06693"
       style="fill:#c67379;fill-opacity:1;fill-rule:nonzero;stroke:none;stroke-width:0.0352778"
       id="path935" />
    <path
       d="m 200.38459,179.06858 c -0.004,-0.22084 -1.05622,-0.0504 -1.05057,0.28117 0.0413,2.25178 0.28187,4.49439 0.71966,6.70348 0.0522,0.26247 1.10914,0.0134 1.05058,-0.28116 -0.4378,-2.20945 -0.67875,-4.45171 -0.71967,-6.70349"
       style="fill:#c67379;fill-opacity:1;fill-rule:nonzero;stroke:none;stroke-width:0.0352778"
       id="path937" />
    <path
       d="m 199.88964,175.17462 c -0.0275,-0.11924 -0.0773,-0.22754 -0.13229,-0.33655 -0.0441,-0.0871 -0.0988,-0.16722 -0.16404,-0.23989 -0.0808,-0.0896 -0.17957,-0.13723 -0.29986,-0.1531 -0.13088,-0.0176 -0.29705,0.009 -0.41453,0.0716 -0.10583,0.0557 -0.22295,0.13546 -0.26845,0.25153 -0.037,0.0931 -0.0519,0.21343 0.0219,0.29527 0.0543,0.0603 0.0991,0.127 0.13864,0.19721 0.0445,0.10265 0.0734,0.20955 0.0871,0.32032 0.002,0.1076 -0.008,0.21449 -0.037,0.31856 -0.0272,0.097 0.0564,0.21554 0.12806,0.26705 0.0956,0.0681 0.24482,0.0953 0.35911,0.0833 0.1383,-0.0141 0.28576,-0.055 0.39477,-0.14499 0.0303,-0.0286 0.0607,-0.0572 0.091,-0.0857 0.0501,-0.0568 0.0808,-0.12242 0.0921,-0.19721 0.0582,-0.20778 0.0526,-0.43815 0.004,-0.64734"
       style="fill:#c67379;fill-opacity:1;fill-rule:nonzero;stroke:none;stroke-width:0.0352778"
       id="path939" />
    <path
       d="m 209.50857,187.83332 c -0.24589,-3.42512 -0.49177,-6.85024 -0.73766,-10.27571 l -0.73766,-10.27571 c -0.13864,-1.93146 -0.27728,-3.86292 -0.41592,-5.79438 -0.0113,-0.15628 -0.23354,-0.26846 -0.35278,-0.3055 -0.20461,-0.0642 -0.47343,-0.0547 -0.67698,-7.1e-4 -0.30798,0.0815 -0.70344,0.25965 -0.77364,0.59161 -0.11219,-0.002 -0.22472,0.009 -0.32209,0.0353 -0.40111,0.10795 -0.80292,0.37747 -0.75918,0.83608 0.31362,3.30483 0.60396,6.61177 0.86925,9.92118 0.26423,3.296 0.50412,6.59447 0.72002,9.894 0.12171,1.86196 0.23565,3.72428 0.34184,5.58694 0.0148,0.26106 0.37147,0.39511 0.57608,0.42969 0.1965,0.0335 0.40887,0.0342 0.62089,0.003 0.0649,0.042 0.13582,0.073 0.18768,0.0896 0.20426,0.0635 0.47343,0.0543 0.67733,7e-4 0.34996,-0.0928 0.81351,-0.31044 0.78282,-0.73625"
       style="fill:#bf7340;fill-opacity:1;fill-rule:nonzero;stroke:none;stroke-width:0.0352778"
       id="path699" />
    <path
       d="m 213.81846,162.70602 c -1.30281,-1.10314 -3.26108,-0.99378 -4.68736,-0.19862 -0.0723,0.0399 -0.24166,0.16475 -0.21485,0.27764 0.0272,0.11501 0.23319,0.14499 0.3168,0.15205 0.4325,0.0342 0.89147,-0.09 1.26929,-0.29775 7.1e-4,-3.5e-4 0.001,-3.5e-4 0.002,-3.5e-4 -0.0748,0.0416 -0.0402,0.0226 0.007,-0.001 0.006,-3.5e-4 0.0116,-7e-4 0.0173,-0.001 0.019,0.002 0.10866,0.003 0.12947,0.005 0.0589,0.005 0.11783,0.0123 0.17639,0.0208 0.0116,0.004 0.1083,0.0229 0.13018,0.0279 0.49882,0.12418 0.92921,0.37747 1.30104,0.73343 0.76271,0.72954 1.15746,1.78329 1.3014,2.81128 0.26423,1.88454 -0.37818,3.90208 -1.59985,5.3086 -0.17956,0.20673 -0.37112,0.40287 -0.57397,0.58632 -0.10125,0.0917 -0.20567,0.18027 -0.31256,0.26529 -0.019,0.0152 -0.0854,0.0663 -0.0963,0.0748 -0.0494,0.0363 -0.0995,0.072 -0.14993,0.10689 -0.10548,0.072 -0.21308,0.14076 -0.32209,0.20673 -0.0631,0.0374 -0.12664,0.0734 -0.19014,0.10936 -3.6e-4,0 -7.1e-4,3.5e-4 -0.001,3.5e-4 -0.0176,0.009 -0.0388,0.0201 -0.0455,0.0236 -0.32526,0.16263 -0.66322,0.29739 -1.00013,0.43251 -0.16933,0.0681 -0.61418,0.38135 -0.22683,0.49318 0.40463,0.11642 0.89252,-0.0356 1.26576,-0.18521 1.14583,-0.45896 2.20839,-1.03399 3.06917,-1.93534 0.74754,-0.78246 1.32927,-1.72579 1.67569,-2.75131 0.69357,-2.05176 0.51788,-4.77485 -1.24107,-6.26463"
       style="fill:#bf7340;fill-opacity:1;fill-rule:nonzero;stroke:none;stroke-width:0.0352778"
       id="path701" />
    <path
       d="m 224.11251,188.89201 c -0.002,-7.1e-4 -0.0229,-0.008 -0.0402,-0.0127 -0.0152,-0.007 -0.0332,-0.0155 -0.0349,-0.0166 -0.0572,-0.0332 -0.11289,-0.0667 -0.16651,-0.10442 -0.1083,-0.0765 -0.14781,-0.11818 -0.26987,-0.22543 -0.22825,-0.19967 -0.45579,-0.4004 -0.68263,-0.60254 -0.46284,-0.41134 -0.92287,-0.82586 -1.37971,-1.24355 -0.90523,-0.82726 -1.79882,-1.66687 -2.68111,-2.51848 -1.76389,-1.70356 -3.48157,-3.45545 -5.14986,-5.25286 -0.94156,-1.01459 -1.8669,-2.04364 -2.77671,-3.0868 -0.26952,-0.30868 -0.86536,-0.22754 -1.19697,-0.0825 -0.23707,0.10336 -0.77012,0.43815 -0.48825,0.76094 1.63583,1.87537 3.32352,3.70593 5.06095,5.48816 1.73743,1.78188 3.5246,3.51543 5.35834,5.19783 0.51894,0.47625 1.0414,0.94827 1.56775,1.41605 0.254,0.22578 0.5087,0.45085 0.76482,0.67451 0.30797,0.26847 0.60219,0.49742 0.99977,0.61454 0.40076,0.11818 0.98178,-0.005 1.28164,-0.30374 0.27411,-0.2734 0.22049,-0.58808 -0.16651,-0.70238"
       style="fill:#bf7340;fill-opacity:1;fill-rule:nonzero;stroke:none;stroke-width:0.0352778"
       id="path703" />
    <path
       d="m 210.09735,162.18179 c 0.10972,-0.0466 0.21767,-0.0963 0.3295,-0.13829 0.007,-0.002 0.0138,-0.005 0.0208,-0.007 0.005,-10e-4 0.009,-0.002 0.0134,-0.004 0.0847,-0.0222 0.17004,-0.0406 0.25576,-0.0582 0.0614,-0.007 0.12242,-0.0138 0.1838,-0.0187 0.13547,-0.0109 0.57538,0.009 0.0699,-0.0116 0.121,0.005 0.24165,0.005 0.3623,0.0141 0.12136,0.01 0.2406,0.0275 0.36125,0.0399 -0.43251,-0.0437 -0.0116,0.001 0.1083,0.0286 0.12735,0.0286 0.25365,0.0621 0.37853,0.10054 0.0586,0.0176 0.11642,0.0363 0.17427,0.0561 0.0152,0.005 0.0374,0.0138 0.0603,0.0226 0.41311,0.18027 0.80081,0.3937 1.16135,0.66428 0.46884,0.39723 0.85055,0.8756 1.14758,1.41288 0.41522,0.84243 0.61031,1.76989 0.61384,2.70686 -0.03,0.88195 -0.22578,1.74908 -0.58138,2.55658 -0.20567,0.41875 -0.45085,0.81633 -0.73484,1.1871 -0.0705,0.0928 -0.14393,0.18415 -0.21907,0.2734 -0.0247,0.0293 -0.0497,0.0579 -0.0748,0.0868 0.007,-0.008 0.0127,-0.0127 0.0212,-0.0215 -0.0123,0.0123 -0.024,0.0254 -0.036,0.0388 -0.008,0.01 -0.0162,0.0187 -0.0243,0.0286 -0.0205,0.0233 -0.0508,0.0519 -0.0575,0.0561 -0.16263,0.16934 -0.33267,0.33232 -0.50977,0.48719 -0.17321,0.15134 -0.35419,0.29316 -0.53763,0.43109 -3.5e-4,3.6e-4 -3.5e-4,3.6e-4 -7e-4,7.1e-4 -0.0487,0.0335 -0.0974,0.0663 -0.14641,0.0988 -0.10618,0.0702 -0.21449,0.13829 -0.3235,0.20426 -0.20037,0.1203 -0.40569,0.23036 -0.61347,0.33761 -0.0505,0.0236 -0.10125,0.0469 -0.15241,0.0695 -0.11712,0.0519 -0.2353,0.1016 -0.35418,0.14887 -0.13759,0.0547 -0.27623,0.10654 -0.41593,0.15487 -0.0395,0.0138 -0.079,0.0268 -0.11889,0.0402 -0.0741,0.0215 -0.14887,0.0409 -0.22295,0.0607 -0.14676,-2.09832 -0.2727,-4.1977 -0.37289,-6.29885 -0.0713,-1.48978 -0.1277,-2.98027 -0.17568,-4.4711 0.0632,-0.0384 0.12382,-0.0808 0.18309,-0.12454 0.0575,-0.037 0.1143,-0.0748 0.17286,-0.11006 0.11854,-0.0713 0.51823,-0.23954 0.0543,-0.043 z m 16.02987,25.70339 c -1.95756,-1.85667 -3.91583,-3.71404 -5.8741,-5.57107 -1.95792,-1.85667 -3.91618,-3.71369 -5.8741,-5.57071 -0.86043,-0.81562 -1.7205,-1.6316 -2.58128,-2.44722 2.75873,-1.03223 5.24652,-3.07199 6.02545,-5.97782 0.40816,-1.52224 0.33337,-3.25367 -0.37536,-4.67713 -0.3563,-0.71614 -0.80574,-1.35396 -1.43333,-1.85702 -0.65511,-0.52529 -1.3716,-0.90382 -2.17876,-1.14617 -1.53176,-0.45967 -3.21769,-0.34573 -4.68136,0.2801 -0.002,-7e-4 -0.006,-0.001 -0.008,-0.002 -0.31115,-0.0649 -0.70097,-0.0296 -1.00401,0.0487 -0.4385,0.11324 -1.23013,0.36619 -1.21461,0.93486 0.0949,3.36303 0.24765,6.72465 0.45967,10.08204 0.21237,3.35774 0.48331,6.71195 0.81351,10.05981 0.1852,1.88419 0.38981,3.76661 0.61242,5.64656 0.0247,0.20638 0.35031,0.30727 0.50094,0.33902 0.3115,0.0649 0.70062,0.03 1.00436,-0.0487 0.31715,-0.0819 0.66499,-0.19191 0.91863,-0.4071 0.16228,-0.13794 0.32315,-0.29422 0.29528,-0.52776 -0.39547,-3.34116 -0.73307,-6.68902 -1.01177,-10.04182 -0.0152,-0.18344 -0.0282,-0.36689 -0.043,-0.55033 1.30916,1.24178 2.61867,2.4832 3.92783,3.72498 1.95827,1.85667 3.91618,3.71369 5.87445,5.57071 1.10561,1.04811 2.21122,2.09656 3.31647,3.14537 0.45085,0.42721 1.264,0.33725 1.79282,0.10971 0.26387,-0.11394 0.58349,-0.26705 0.73342,-0.52599 0.1016,-0.17533 0.18062,-0.42404 0.004,-0.5909"
       style="fill:#e7c079;fill-opacity:1;fill-rule:nonzero;stroke:none;stroke-width:0.0352778"
       id="path705" />
    <path
       d="m 213.63148,171.19562 c 0.0127,-0.0127 0.0257,-0.0254 0.0381,-0.0381 0.0148,-0.0155 0.0293,-0.031 0.0438,-0.0466 0.005,-0.006 0.01,-0.0116 0.0148,-0.0173 -0.0825,0.0825 -0.10336,0.10618 -0.0967,0.10195"
       style="fill:#e7c079;fill-opacity:1;fill-rule:nonzero;stroke:none;stroke-width:0.0352778"
       id="path707" />
    <path
       d="m 227.56691,174.30712 c -0.10971,-2.3749 -0.26776,-4.75368 -0.31185,-7.13105 -0.0247,-1.31128 0.0346,-2.62467 0.31044,-3.91055 0.0977,-0.45473 -1.016,-0.33196 -1.10243,0.0695 -0.4953,2.30929 -0.3048,4.69689 -0.19614,7.03616 0.11147,2.40841 0.22295,4.81683 0.33443,7.22524 0.0639,1.37654 0.12735,2.75272 0.1912,4.12891 0.0113,0.24342 0.47237,0.21696 0.61948,0.18521 0.20779,-0.0451 0.49918,-0.17427 0.48754,-0.42474 l -0.33267,-7.17868"
       style="fill:#ffffff;fill-opacity:1;fill-rule:nonzero;stroke:none;stroke-width:0.0352778"
       id="path719-0" />
    <path
       d="m 242.22712,165.48827 c -0.0106,-0.0554 -0.0293,-0.11077 -0.0522,-0.1651 0.13053,-0.0452 0.2473,-0.11465 0.31892,-0.21273 l -0.006,0.25259 c -0.0628,0.0173 -0.16828,0.0688 -0.26035,0.12524 z m -0.62512,-0.72425 -5.24051,0.005 c -0.20073,3.5e-4 -0.49495,0.0582 -0.66957,0.20602 -0.006,-0.0127 -0.0113,-0.0258 -0.0176,-0.0381 l -0.0406,-0.0427 c -0.0176,-0.0102 -0.0356,-0.0205 -0.0536,-0.031 -0.0547,-0.0236 -0.11571,-0.0258 -0.17392,-0.0176 -0.0511,0.008 -0.0963,0.0233 -0.14041,0.0501 -0.0427,0.0258 -0.0967,0.0677 -0.11218,0.11748 -0.006,0.0176 -0.0113,0.0356 -0.0169,0.0529 -0.002,-3.6e-4 -0.003,-0.002 -0.005,-0.002 -0.0663,-0.0265 -0.14288,-0.0289 -0.21167,-0.0123 -0.0638,0.0159 -0.14147,0.0554 -0.18203,0.10936 -0.0342,0.0466 -0.0635,0.10725 -0.0452,0.16686 0.0127,0.0395 0.0367,0.0727 0.0684,0.097 -0.0268,0.0434 -0.0427,0.09 -0.0427,0.14005 l 0.0233,23.06532 c -1.15959,0.12065 -0.85761,0.25259 -2.01719,0.37289 -0.0176,-0.003 -0.036,-0.004 -0.054,-0.007 -0.11254,-0.0169 -0.22966,-0.0116 -0.34537,0.006 0.42545,-6.01697 0.38594,-17.84279 -0.10266,-23.85483 -0.009,-0.11218 -0.0783,-0.18344 -0.17604,-0.2219 0.007,-0.008 0.0187,-0.0138 0.0247,-0.0229 0.14358,-0.21378 -0.12453,-0.27481 -0.29422,-0.26811 -2.22709,0.0822 -4.45347,0.1651 -6.6802,0.2473 -0.0233,0.001 -0.0526,0.006 -0.0787,0.008 l 0.0646,-2.48426 c 1.98579,-0.09 3.83364,-0.16016 5.64197,-0.2092 -0.0864,0.0402 -0.16827,0.10901 -0.21025,0.17674 -0.0642,0.10337 -0.0155,0.15981 0.097,0.15699 2.72698,-0.0653 5.4543,-0.0949 8.18233,-0.0896 0.76905,0.002 1.53846,0.006 2.30787,0.0131 0.13335,0.001 0.26776,-0.0692 0.35807,-0.16581 3.5e-4,-3.5e-4 7.1e-4,-0.001 0.001,-0.001 0.0705,-0.005 0.0921,-0.0519 0.0607,-0.10936 0.003,-0.0102 0.004,-0.0205 0.005,-0.03 0.0363,7.1e-4 0.0723,0.001 0.1083,0.002 0.09,1.42734 0.0215,1.18639 -0.0321,2.61585 z m -4.90784,1.19697 c 10e-4,-0.007 0.003,-0.013 0.004,-0.0197 0.001,-0.0159 7e-4,-0.0325 -7.1e-4,-0.0487 l 4.25062,-0.0328 c 0.003,0.0282 0.0116,0.0554 0.0251,0.0804 z m -0.7814,23.63435 -0.11677,0.0134 c 0.066,-0.0628 0.10795,-0.13582 0.10795,-0.21696 v -0.10654 c 0.005,-0.005 0.0106,-0.008 0.0155,-0.0131 0.0236,-0.0219 0.0444,-0.0452 0.0653,-0.0688 0.004,0.004 0.007,0.007 0.012,0.0102 -0.0254,0.12736 -0.0529,0.25471 -0.084,0.38171 z m -1.34832,0.15452 c 0.0116,-0.0152 0.0201,-0.0325 0.0275,-0.0498 0.0663,-0.002 0.13652,-0.005 0.21237,-0.008 0.008,0.01 0.0191,0.018 0.0286,0.0265 z m -3.87703,-23.5003 c -0.0145,-0.008 -0.16333,-0.0702 -0.23424,-0.0935 0.12841,-0.0106 0.25682,-0.0226 0.38523,-0.0378 0.001,0.0727 0.002,0.14499 0.003,0.21731 -0.054,-0.037 -0.12135,-0.0684 -0.15381,-0.0861 z m -1.6958,-0.96308 c 0,-3.5e-4 0,-7.1e-4 0,-0.001 3.5e-4,0 3.5e-4,0 7.1e-4,0 -3.6e-4,3.5e-4 -3.6e-4,7.1e-4 -7.1e-4,0.001 z m -3.20957,0.11747 c 0.14358,-0.005 0.28716,-0.0106 0.43074,-0.0159 0.002,0.013 0.004,0.0261 0.008,0.0378 -0.1464,-0.006 -0.29245,-0.0145 -0.43885,-0.0219 z M 224.8814,162.514 c -0.043,-0.008 -0.09,-0.0102 -0.13794,-0.0102 0.008,-0.0275 0.0138,-0.0557 0.0173,-0.0843 0.0557,-0.002 0.11253,-0.005 0.16792,-0.008 -0.0191,0.0631 -0.036,0.10443 -0.0473,0.10231 z m 18.18111,-0.901 c 0.0198,-0.0832 0.0229,-0.17074 0.006,-0.26176 -0.003,-0.0169 -0.15487,0.0399 -0.28857,0.1136 -0.042,-0.0265 -0.085,-0.0462 -0.12559,-0.0519 -0.0642,-0.008 -0.12842,-0.0152 -0.19263,-0.0229 -0.001,-7.1e-4 -0.002,-0.001 -0.003,-0.002 0.0265,3.5e-4 0.0529,3.5e-4 0.0794,3.5e-4 0.0833,7.1e-4 0.2011,-0.043 0.12877,-0.13617 -0.0755,-0.0967 -0.26952,-0.10971 -0.37853,-0.11006 l -2.25249,-0.0113 c -1.94239,-0.17322 -3.89149,-0.26529 -5.842,-0.26917 -0.7941,-0.002 -1.5882,0.0109 -2.3816,0.037 -0.0646,0.002 0,0.0917 0.0497,0.15064 -1.80128,-0.0931 -3.60327,-0.18627 -5.40491,-0.27905 -0.54081,-0.0279 -1.08161,-0.0557 -1.62242,-0.084 -0.12983,-0.007 -0.18803,0.12347 -0.13935,0.23001 0.0279,0.061 0.0744,0.1076 0.12912,0.14217 -0.0272,0.004 -0.0561,0.0116 -0.0776,0.0261 -0.0677,-0.004 -0.13617,-0.008 -0.2039,-0.0127 -0.13194,-0.0617 -0.33973,-0.0875 -0.41451,-0.0258 -0.0843,-0.006 -0.16863,-0.01 -0.25295,-0.0155 -0.12276,-0.008 -0.26952,0.0875 -0.35701,0.16545 -0.0176,0.0159 -0.0413,0.0409 -0.0589,0.0667 -0.10972,-0.0162 -0.20144,-0.004 -0.19579,0.0568 0.0515,0.57715 0.0818,1.15535 0.0942,1.73391 -0.002,0.0903 -0.005,0.18062 -0.008,0.27093 -3.5e-4,0.007 0.002,0.0138 0.004,0.0208 -0.0183,0.69886 -0.0367,1.39771 -0.0547,2.09727 -0.001,0.0582 0.0709,0.11148 0.16299,0.15063 0.031,0.0702 0.0748,0.13476 0.13582,0.19015 0.13335,0.11995 0.31538,0.15028 0.48965,0.14781 0.0561,0.0342 0.1397,0.0519 0.20532,0.06 -0.0272,0.007 -0.0533,0.0159 -0.078,0.0265 -0.0173,0.007 -0.0462,0.0222 -0.0512,0.0339 -0.0159,0.0152 0.005,0.0261 0.0723,0.0272 l 1.5748,0.0226 c 0.0183,0 0.0374,-0.001 0.0564,-0.002 0.82938,0.078 1.6637,0.10689 2.49661,0.0829 0.0511,-0.001 0.13123,-0.007 0.20214,-0.0282 0.61524,0.0519 1.23366,0.0543 1.85032,0.006 0.11183,0.92005 0.12029,1.84785 0.0258,2.77001 -0.007,0.0635 0.18591,0.1517 0.23001,0.17604 0.01,0.005 0.091,0.0441 0.16228,0.073 -0.0289,1.91594 -0.0706,3.83188 -0.12841,5.74746 -0.0258,0.83785 -0.054,1.67605 -0.0847,2.51389 0,0.0113 0.067,0.0166 0.15558,0.0145 -0.003,0.13335 -0.002,0.26635 0.002,0.39934 -0.0519,0.0145 -0.0843,0.0423 -0.078,0.0878 0.2293,1.60126 0.1778,3.23674 -0.14217,4.82212 -0.0198,0.097 0.20249,0.17851 0.37359,0.18451 -0.0229,1.0287 -0.0462,2.05704 -0.0695,3.08539 -0.0173,0.40605 -0.03,0.81245 -0.0367,1.21885 -3.5e-4,0.0205 0.003,0.0388 0.008,0.0568 l -0.055,2.44016 c -0.001,0.0497 0.0363,0.10478 0.091,0.15487 -0.001,0.0794 -0.002,0.15875 -0.004,0.23848 -0.001,0.12065 0.11536,0.39123 0.25683,0.40746 0.31326,0.0353 0.62829,0.0307 0.93803,-0.0106 0.26776,0.0176 0.5454,-0.0205 0.80434,-0.0501 1.09643,-0.12594 2.19286,-0.25118 3.28894,-0.37642 0.0448,-0.005 0.0557,-0.0208 0.067,-0.0656 0.0593,-0.23389 0.10795,-0.46955 0.14852,-0.70591 0.0406,-0.006 0.0677,-0.0254 0.0684,-0.0642 0.004,-0.16298 0.008,-0.32596 0.0123,-0.48895 0.10195,-0.86395 0.10266,-1.73813 0.0656,-2.61055 0.01,-0.375 0.0191,-0.75001 0.0286,-1.12501 0.001,-0.0409 -0.0395,-0.0861 -0.0974,-0.12771 l 0.012,-0.49106 c 0.13017,0.0293 0.25964,-0.0243 0.25082,-0.20779 -0.10936,-2.33645 -0.17603,-4.67501 -0.19614,-7.01393 -0.0208,-2.34103 0.004,-4.68206 0.0723,-7.02204 0.0367,-1.258 0.0875,-2.51495 0.14957,-3.77155 1.71662,-0.008 3.43288,-0.0162 5.1488,-0.0247 0.0571,-3.5e-4 0.10653,-0.0208 0.14428,-0.0526 0.15275,0.0155 0.30339,-0.0289 0.41416,-0.16017 0.006,-0.008 0.0113,-0.0159 0.0169,-0.024 0.003,3.5e-4 0.005,0.001 0.008,0.002 0.0882,0.0127 0.22262,-0.0847 0.28963,-0.12806 0.0529,-0.0346 0.16369,-0.0928 0.18063,-0.16228 0.0123,-0.0169 0.0208,-0.0349 0.0212,-0.0529 l 0.0145,-0.58844 h -3.6e-4 c 0.0296,-1.20473 0.0589,-2.40982 0.0886,-3.61421"
       style="fill:#000000;fill-opacity:1;fill-rule:nonzero;stroke:none;stroke-width:0.0352778"
       id="path449" />
    <path
       d="m 250.92543,186.93599 c -0.024,0.68862 -0.0208,1.3783 0.0205,2.06904 -0.16087,-0.01 -0.32138,-0.0219 -0.48225,-0.0321 0.20355,-0.66781 0.3563,-1.34761 0.46179,-2.03694 z m -0.67981,-18.7632 c -0.0254,1.97591 -0.0505,3.95147 -0.0762,5.92773 -0.0437,3.41207 -0.0109,6.83648 -0.14746,10.24713 -0.0395,-5.14949 -0.079,-10.29864 -0.11888,-15.44813 -0.0113,-1.4732 -0.0226,-2.94676 -0.0339,-4.42031 0.17215,1.22696 0.2995,2.45851 0.37641,3.69358 z m 0.31327,-5.22005 c -0.14393,0.0765 -0.24836,0.18803 -0.25012,0.32385 -0.001,0.061 -0.002,0.12171 -0.002,0.18274 -0.18133,0.0466 -0.35348,0.14323 -0.44309,0.27164 -0.002,-0.24695 -0.004,-0.4946 -0.006,-0.74154 0.23389,-0.0141 0.46743,-0.0261 0.70132,-0.0367 z m 0.69956,14.02645 0.24412,2.64865 c -0.0977,0.0201 -0.19403,0.048 -0.27905,0.0829 z m 0.0642,-5.00028 c 0.084,-0.0691 0.14005,-0.15381 0.14146,-0.25188 0.002,-0.15205 -0.003,-0.30445 -0.002,-0.45649 0.0332,0.61912 0.066,1.23789 0.0988,1.85702 0.0593,1.11654 0.11889,2.23308 0.17815,3.34962 -0.2159,0.0536 -0.41663,0.14147 -0.47695,0.24659 0.0205,-1.58185 0.0406,-3.16335 0.061,-4.74486 z m 0.74612,16.16816 c 0.0843,-0.0353 0.15593,-0.0773 0.20708,-0.12347 0.0321,0.34855 0.0642,0.69709 0.096,1.04563 -0.16192,-0.006 -0.32385,-0.0123 -0.48612,-0.0191 0.10936,-0.0603 0.18344,-0.13229 0.18344,-0.21166 z M 252.93309,169.64 c 0.004,0.9017 0.009,1.8034 0.007,2.7051 -0.004,1.57868 -0.0173,3.15736 -0.0356,4.73639 -0.127,-2.39536 -0.254,-4.79002 -0.38136,-7.18502 0.17287,-0.0533 0.33267,-0.14217 0.40993,-0.25647 z m 4.02625,19.41689 c -0.87701,0.003 -1.75366,0.0187 -2.63031,0.048 -0.26211,-3.5e-4 -0.52423,-0.002 -0.78634,-0.006 -0.003,-0.0586 -0.006,-0.11713 -0.01,-0.17569 0.13934,-0.0801 0.24094,-0.20037 0.24624,-0.35418 0.23953,-7.12471 0.33584,-14.25364 0.28363,-21.38222 -0.01,-1.40088 0.11324,-3.02825 -0.6537,-4.26261 0.93028,0.0173 1.8602,0.0607 2.78942,0.1404 0.25505,0.0219 0.61947,-0.0794 0.72919,-0.33972 0.10442,-0.24836 -0.0942,-0.43851 -0.33796,-0.45932 -3.6255,-0.3115 -7.27604,-0.18803 -10.87014,0.38206 -0.23425,0.037 -0.59408,0.1591 -0.61772,0.44661 -0.0215,0.26423 0.2914,0.39194 0.51435,0.35666 1.03435,-0.16404 2.07292,-0.28681 3.11362,-0.37712 l 0.16263,21.07424 c 0.012,1.56881 0.0243,3.13726 0.0363,4.70606 -0.50342,-0.0459 -1.00648,-0.0952 -1.50883,-0.15346 -0.26458,-0.0307 -0.62054,0.0811 -0.72496,0.35313 -0.0991,0.25718 0.0931,0.48119 0.35172,0.51118 0.14534,0.0166 0.29104,0.0303 0.43603,0.0459 -0.4766,0.0547 -0.9525,0.11289 -1.42804,0.17568 -0.25083,0.0328 -0.59126,0.17498 -0.61031,0.47272 -0.018,0.27305 0.28258,0.43498 0.52635,0.40288 0.99942,-0.13159 2.00095,-0.24342 3.00355,-0.33973 0.1524,0.31715 0.82197,0.18239 1.01706,-0.0924 1.3977,-0.11712 2.79788,-0.19967 4.19981,-0.2473 0.89465,0.002 1.78965,-0.0134 2.68394,-0.0494 0.65581,-0.0265 0.84278,-0.87771 0.084,-0.87594"
       style="fill:#c67379;fill-opacity:1;fill-rule:nonzero;stroke:none;stroke-width:0.0352778"
       id="path761"
       sodipodi:nodetypes="sccssccccccscccccsccccccccccccccccccccccccccccccccccccccccccccccccccc" />
    <path
       d="m 253.16345,156.86909 c -0.0589,-0.11748 -0.13371,-0.21978 -0.21626,-0.31433 -0.28187,-0.4512 -0.79833,-0.67416 -1.33808,-0.65475 -0.43251,0.0152 -0.90488,0.13829 -1.28799,0.38135 -0.24624,0.14852 -0.45614,0.34784 -0.58879,0.60254 -0.27234,0.52176 -0.23213,1.14477 0.09,1.63478 0.35983,0.54821 1.05657,0.68862 1.66829,0.56232 0.58208,-0.0582 1.15993,-0.38946 1.43827,-0.90416 0.1845,-0.34149 0.27023,-0.75918 0.20073,-1.14689 0.0349,-0.0511 0.0596,-0.10936 0.0339,-0.16086"
       style="fill:#c67379;fill-opacity:1;fill-rule:nonzero;stroke:none;stroke-width:0.0352778"
       id="path763" />
    <path
       d="m 251.64439,158.43189 c 7e-4,-7e-4 0.002,-0.001 0.003,-0.001 -0.001,3.6e-4 -0.003,0.001 -0.003,0.001 3.5e-4,0 3.5e-4,0 7e-4,0"
       style="fill:#c67379;fill-opacity:1;fill-rule:nonzero;stroke:none;stroke-width:0.0352778"
       id="path765" />
    <path
       d="m 274.30763,182.00394 c -1.08656,-3.59939 -3.7659,-6.7377 -6.34083,-9.86155 -1.44357,-1.75084 -3.90878,-4.3621 -3.68688,-6.66468 0.15275,-0.24483 0.32032,-0.48648 0.52035,-0.72002 0.19297,-0.22472 0.008,-0.27693 -0.23919,-0.26882 0.28434,-0.57008 0.7874,-1.10807 1.57798,-1.59244 0.42933,-0.26281 0.87348,-0.36336 1.35431,-0.54504 0.002,-7e-4 0.002,-7e-4 0.004,-0.001 -0.0131,-0.005 -0.0258,-0.009 -0.0395,-0.018 0.0109,0.007 0.0303,0.0106 0.0434,0.0169 0.21449,-0.078 0.15981,0.0377 0.036,0.0138 0.0963,0.0388 0.21555,0.0677 0.30375,0.10654 0.88441,0.39123 1.39523,1.1236 1.73672,1.79388 0.73272,1.43862 1.25836,3.51896 -0.1591,4.8962 -0.4759,0.46285 2.43663,0.83538 2.95663,0.32985 1.31198,-1.27494 1.09432,-2.87655 0.64135,-4.28061 -0.41663,-1.29152 -1.17122,-2.60209 -2.92594,-3.23885 -1.91805,-0.69603 -4.57835,-0.61489 -6.41138,0.31962 -1.29082,0.65863 -2.08633,1.60055 -2.36326,2.63172 -0.0473,0.007 -0.0836,0.019 -0.1076,0.0367 -0.42298,-0.006 -0.73942,0.0152 -0.75671,0.0769 -0.22754,0.80151 -0.31715,1.61113 -0.28363,2.41335 -0.0159,0.1464 -0.024,0.29245 -0.0247,0.4385 -0.0317,0.29422 -0.0635,0.58879 -0.0952,0.88301 -0.004,0.0374 0.0755,0.072 0.20143,0.10336 0.0236,0.10089 0.0628,0.19897 0.0935,0.29845 0.0219,0.86819 0.27164,1.72473 0.74789,2.51919 0.27764,0.82902 0.68792,1.63653 1.19275,2.39536 2.07786,3.12349 5.51462,5.70407 7.21959,8.96691 0.95321,1.82492 1.32574,3.79307 0.50236,5.73088 -0.0706,0.1651 0.1524,0.17885 0.4258,0.14322 -0.66252,0.83609 -1.64923,1.51413 -3.08786,1.75331 -2.13572,0.35454 -3.71228,-1.51095 -3.89643,-2.74038 -0.0963,-0.641 -3.16936,-0.59337 -3.09845,-0.11994 0.50024,3.33727 6.22229,4.52049 10.29935,3.20639 4.72122,-1.52153 4.52332,-6.1602 3.65936,-9.02229"
       style="fill:#ebc532;fill-opacity:1;fill-rule:nonzero;stroke:none;stroke-width:0.0352778"
       id="path435-61" />
    <path
       d="m 267.49761,162.34998 c 0.0138,0.006 0.0268,0.0109 0.0399,0.0131 -0.0123,-0.005 -0.0254,-0.009 -0.036,-0.0141 -10e-4,3.5e-4 -0.002,7.1e-4 -0.004,10e-4"
       style="fill:#ebc532;fill-opacity:1;fill-rule:nonzero;stroke:none;stroke-width:0.0352778"
       id="path437-5" />
    <path
       d="m 284.03488,159.40898 c -0.0138,0.003 -0.0265,0.007 -0.0388,0.0141 3.5e-4,-0.004 0,-0.009 0,-0.0138 0,0 0,0 0,-3.5e-4 0.013,0 0.0257,0 0.0388,0 z m -0.86289,30.2761 c -0.013,-0.003 -0.0254,-0.01 -0.0381,-0.0145 -0.0452,-0.0166 -0.0892,-0.0406 -0.13053,-0.0825 0.22895,-0.0663 0.45967,-0.16087 0.69956,-0.11007 0.24271,0.0512 0.13017,0.14499 0.002,0.22084 -0.17039,-0.0501 -0.3616,0.0289 -0.5334,-0.0138 z m 0.0307,-30.18226 c -0.002,0.0356 -0.006,0.072 -0.0109,0.1076 -0.0148,0.0984 -0.0395,0.19544 -0.085,0.29139 -0.007,-0.15769 -0.013,-0.31503 -0.0198,-0.47237 0,-3.5e-4 0,-3.5e-4 0,-7e-4 0,3.5e-4 0,3.5e-4 0,7e-4 0.002,-0.11147 0.003,-0.2226 0.005,-0.33408 7e-4,-0.0455 10e-4,-0.091 0.002,-0.13652 10e-4,-0.11571 0.003,-0.23107 0.004,-0.34713 0.03,-0.0931 0.0642,-0.10055 0.10407,-0.005 -0.0406,0.29598 0.0215,0.59901 3.5e-4,0.8964 z m 6.8065,12.32571 c -1.5935,-0.0236 -3.187,-0.0783 -4.78014,-0.0656 -0.49707,0.004 -0.59796,-0.15487 -0.61101,-0.6103 -0.0498,-1.75684 -0.14112,-3.51261 -0.21661,-5.26839 v 0 0 c 0.0473,-1.52153 -0.0762,-3.03741 -0.16051,-4.55366 -0.0356,-0.64029 0.0229,-1.2901 -0.13865,-1.92228 -0.0102,-0.26388 0.002,-0.53164 -0.0363,-0.79164 -0.0854,-0.57749 -0.28258,-0.71367 -0.8763,-0.69003 -0.71932,0.0289 -1.2506,0.34925 -1.59491,0.98072 -0.0896,0.29493 -0.23777,0.58561 -0.25929,0.88548 -0.14041,1.99849 -0.38947,3.98921 -0.44591,5.9944 -0.055,1.95439 -0.13512,3.90807 -0.20426,5.86211 -0.85443,-0.0547 -1.7085,-0.1143 -2.56364,-0.16263 -0.56444,-0.0314 -1.11513,0.0423 -1.64147,0.26035 h -3.6e-4 c -0.34889,0.0215 -0.62124,0.16016 -0.66886,0.53516 -0.0519,0.41099 0.23671,0.5962 0.5655,0.71155 0.21696,0.0762 0.44803,0.13723 0.67628,0.1524 0.84419,0.0564 1.69015,0.0935 2.53541,0.13335 1.35749,0.0631 1.09149,-0.11042 1.07315,1.13066 -0.0765,5.17419 -0.23283,10.34803 -0.0656,15.52363 0.0194,0.60431 0.28081,0.85655 0.90276,0.87277 0.65052,0.0173 1.29293,-0.0751 1.92899,-0.18979 1.19168,-0.21484 1.36137,-0.4385 1.36984,-1.65312 0.0318,-4.82776 3.5e-4,-9.65482 -0.085,-14.48153 -0.0226,-1.28481 -0.0198,-1.28764 1.30069,-1.29857 1.36137,-0.0113 2.72168,-0.0444 4.07493,-0.21061 0.38735,-0.0473 0.69992,-0.21096 0.6597,-0.64841 -0.0388,-0.41804 -0.37712,-0.49036 -0.73836,-0.496"
       style="fill:#b3b2e9;fill-opacity:1;fill-rule:nonzero;stroke:none;stroke-width:0.0352778"
       id="path447-9" />
    <path
       d="m 305.9131,181.81586 c -0.45216,-2.05895 -1.97895,-3.91579 -3.61541,-5.56338 -1.86903,-1.88174 -3.96877,-3.62997 -5.34617,-5.76866 -0.8132,-1.33396 -1.31939,-2.78606 -1.10537,-4.2273 0.1192,-0.56526 0.35098,-1.08258 0.74778,-1.54984 0.26541,-0.26568 0.5687,-0.49878 0.90166,-0.71333 0.0281,-0.0154 0.0559,-0.0305 0.0842,-0.0453 0.10251,-0.0532 0.20688,-0.1041 0.3131,-0.15231 0.0824,-0.0373 0.16661,-0.0713 0.25084,-0.10542 0.0209,-0.008 0.0416,-0.0143 0.063,-0.0212 0.0972,-0.0315 0.19655,-0.0598 0.29614,-0.0871 0.0633,-0.0127 0.12741,-0.0233 0.19125,-0.0342 0.035,0 0.0702,2.6e-4 0.10543,5.2e-4 0.0289,0.003 0.0577,0.007 0.0866,0.0101 0.0723,0.0154 0.14436,0.0312 0.21588,0.0501 0.0233,0.006 0.0464,0.013 0.0697,0.0196 0.18754,0.0704 0.36395,0.15682 0.53374,0.25191 0.28263,0.1947 0.52447,0.41852 0.72287,0.67069 0.17244,0.21879 0.7875,0.31124 1.04471,0.34117 0.51573,0.0591 1.12337,0.0339 1.61579,-0.0668 0.5062,-0.10331 1.72997,-0.40661 1.26562,-0.99651 -1.24999,-1.58612 -3.92718,-1.8881 -5.99778,-1.6942 -2.30212,0.21588 -4.50463,1.01637 -5.82323,2.50688 -0.57904,0.65399 -0.80154,1.43196 -0.87757,2.23747 -0.0863,0.91677 0.11761,1.8497 0.49825,2.73706 0.81294,1.89551 2.30662,3.57939 3.91474,5.13373 1.6836,1.6264 3.49171,3.21835 4.70488,5.09162 0.88604,1.45501 1.28469,3.00697 1.05,4.56688 -0.2233,1.15278 -0.7634,2.23959 -1.59699,3.17782 -0.35574,0.36766 -0.75042,0.7038 -1.20284,0.99888 -0.0289,0.0159 -0.0572,0.0318 -0.0869,0.0472 -0.12423,0.0649 -0.25217,0.12582 -0.38276,0.1833 -0.0524,0.0233 -0.10516,0.0456 -0.15866,0.0676 -0.0111,0.005 -0.0262,0.0106 -0.0429,0.017 -0.0641,0.0217 -0.12874,0.0429 -0.1939,0.0628 -0.0943,0.0291 -0.18966,0.0551 -0.28528,0.0808 -0.0344,0.008 -0.0689,0.0149 -0.10357,0.0215 -0.0623,0.0119 -0.12476,0.0227 -0.18727,0.0333 -0.0535,0.005 -0.10675,0.0111 -0.16052,0.0156 -0.005,2.6e-4 -0.009,5.3e-4 -0.0135,7.5e-4 -0.0826,2.7e-4 -0.16503,2.7e-4 -0.24767,-7.5e-4 -0.0665,-0.006 -0.13324,-0.014 -0.19972,-0.0225 -0.006,-7.5e-4 -0.0143,-0.002 -0.0233,-0.003 -0.002,-5.2e-4 -0.005,-7.5e-4 -0.007,-0.002 -0.0726,-0.0151 -0.14516,-0.0318 -0.21668,-0.0498 -0.0516,-0.013 -0.10225,-0.0276 -0.1531,-0.0416 -0.19151,-0.071 -0.37482,-0.15389 -0.54937,-0.24899 -0.33588,-0.22489 -0.60924,-0.49242 -0.81717,-0.79704 -0.0103,-0.0185 -0.0215,-0.0366 -0.0315,-0.0548 -0.13854,-0.25853 -0.37773,-0.36396 -0.71466,-0.44872 -0.46382,-0.11628 -1.04895,-0.12794 -1.51303,-0.0808 -0.48526,0.0496 -1.01689,0.1245 -1.42481,0.33429 -0.18833,0.0967 -0.62619,0.32104 -0.50143,0.55334 0.42408,0.79015 1.15331,1.42243 2.15722,1.78268 1.40999,0.5054 2.92009,0.5989 4.40769,0.50619 1.41369,-0.0879 2.80009,-0.41719 4.02572,-0.93213 1.13423,-0.47679 1.99564,-1.18218 2.72619,-2.00094 1.44256,-1.61686 2.0314,-3.77037 1.58746,-5.79224"
       style="fill:#000000;fill-opacity:1;fill-rule:nonzero;stroke:none;stroke-width:0.0264885"
       id="path547" />
    <path
       d="m 310.02094,181.91572 v 0 c 0,0 0,7.5e-4 2.6e-4,0.002 -2.6e-4,-7.5e-4 -2.6e-4,-0.001 -2.6e-4,-0.002"
       style="fill:#c8c7ee;fill-opacity:1;fill-rule:nonzero;stroke:none;stroke-width:0.0264885"
       id="path889-4" />
    <path
       d="m 337.899,164.51677 c -0.14193,0.34114 -1.17228,0.60996 -1.44928,0.38065 -0.11617,-0.0956 -0.0654,-0.21625 -0.0386,-0.33126 0.52116,-2.21474 0.98665,-4.44394 1.58679,-6.63716 0.31694,-1.15888 0.64643,-2.34774 1.39186,-3.34434 0.11006,-0.1471 0.0684,-0.32808 0.11535,-0.57009 0.58033,0.39476 0.63959,0.9271 0.6671,1.45098 0.0847,1.64924 -0.32526,3.22545 -0.75106,4.79602 -0.39511,1.45768 -0.94227,2.86279 -1.5222,4.2552 z m -0.76369,1.73708 c -0.45311,0.9772 -0.92396,1.94592 -1.38948,2.91783 -0.1261,-0.0758 -0.0937,-0.20638 -0.11093,-0.31997 0.0838,-0.9017 0.30771,-1.77906 0.47267,-2.66665 0.0476,-0.25329 0.87685,-0.54575 1.07805,-0.38276 0.18672,0.15169 0.0103,0.32067 -0.0503,0.45155 z m -1.29674,22.83213 c -0.0342,0.0321 -0.0679,0.0639 -0.10195,0.096 -0.46785,-0.19085 -0.83235,-0.52705 -1.19893,-0.85866 -0.29459,-0.266 0.10915,-0.58067 -0.05,-0.87666 0.50712,0.51153 0.84542,1.14477 1.35089,1.63936 z m 1.57398,-0.12664 c 0.0363,-0.0868 0.11854,-0.0893 0.19295,-0.10584 0.16674,0.007 0.33319,0.0127 0.49995,0.0194 0,0 0,0 0,3.5e-4 0.002,0.16721 0.003,0.33408 0.004,0.5013 -0.34756,0.055 -0.43437,-0.32738 -0.6973,-0.41522 z m -3.51977,-6.48759 c -4.1e-4,0 -4.1e-4,0 -4.1e-4,0 -0.0313,-10e-4 -0.0627,-0.003 -0.094,-0.005 -0.0707,-0.31997 -0.14163,-0.64029 -0.21261,-0.96026 0.25079,0.28999 0.31252,0.61948 0.30701,0.9652 z m -0.83893,-15.881 c -0.0961,0.55457 -0.1257,1.12113 -0.29492,1.66265 v 0 c -0.0313,0.20884 0.0503,0.43568 -0.10196,0.62441 v 0 c -0.004,0.0628 -0.008,0.12559 -0.0113,0.18803 v 0 c -0.0572,1.08374 -0.29279,2.13889 -0.51716,3.19546 0,0 0,0 4.2e-4,0 -0.0362,0.27411 -0.0724,0.54822 -0.10816,0.82198 -0.0335,-0.0709 -0.0669,-0.14147 -0.10034,-0.21238 -2.7e-4,7.1e-4 -2.7e-4,0.001 -7e-4,0.001 4.3e-4,-3.5e-4 4.3e-4,-7e-4 7e-4,-0.001 0.0369,-0.27587 -0.0719,-0.56938 0.10129,-0.82797 0.0858,-1.14793 0.24875,-2.28458 0.51538,-3.40465 4.2e-4,0 4.2e-4,0 4.2e-4,0 -0.003,-0.0289 2.8e-4,-0.0575 0.01,-0.0854 -0.0213,-0.24765 0.041,-0.48189 0.11261,-0.71472 0.0654,-0.45967 0.12195,-0.92075 0.29351,-1.35749 v 0 c 0.0245,-0.11959 -0.0464,-0.27058 0.12954,-0.36125 0.0948,0.17075 -0.0496,0.31856 -0.0289,0.47131 z m 12.8881,-2.22038 c -0.26846,-0.0914 -0.54645,-0.0459 -0.8188,-0.0279 -1.9491,0.12912 -3.89819,0.26035 -5.84623,0.40217 -0.39053,0.0286 -0.49707,-0.0579 -0.32385,-0.44944 0.47731,-1.08338 0.86678,-2.20204 1.19944,-3.33763 0.56022,-1.91241 1.01107,-3.8414 0.86854,-5.86282 -0.0688,-0.97684 -0.50694,-1.64112 -1.34972,-1.90994 -0.003,-0.0325 -0.005,-0.0649 -0.004,-0.0974 -0.24093,0 -0.48154,0 -0.72249,0 7.2e-4,0.0328 -6.9e-4,0.0656 -0.004,0.0984 v 0 c -0.61136,0.14464 -1.08367,0.52423 -1.48607,0.96944 -0.99466,1.10066 -1.75603,2.36608 -2.47149,3.6576 -1.19793,2.16182 -1.96067,4.48698 -2.54593,6.87528 -0.0879,0.35913 -0.17501,0.58914 -0.64743,0.59302 -0.83603,0.007 -1.6725,0.11289 -2.50689,0.19826 -1.60102,0.16299 -3.20119,0.33303 -4.81049,0.38418 -0.54666,0.0173 -1.0965,0.048 -1.63986,-0.0857 -0.23218,-0.0572 -0.46506,-0.002 -0.52982,0.27482 -0.0641,0.27128 0.11476,0.40993 0.34244,0.49318 0.0792,0.0289 0.16605,0.0381 0.24983,0.0547 1.33601,0.25929 2.66926,0.0296 4,-0.0448 1.57167,-0.0878 3.13988,-0.23883 4.70879,-0.37253 0.39203,-0.0332 0.46369,0.11465 0.38833,0.47872 -0.66671,3.22086 -1.14861,6.4643 -1.22234,9.76136 -0.0145,0.65052 -0.0806,1.27035 -0.53164,1.86831 -1.33767,1.77482 -2.76736,3.4477 -4.50687,4.84258 -0.94767,0.75988 -1.82591,1.62242 -3.0117,2.02671 -0.30484,0.10336 -0.64795,0.31714 -0.935,0.1397 -0.35444,-0.21908 -0.60936,-0.10619 -0.89874,0.0579 0,0.13759 0,0.27517 0,0.41275 0.44192,0.40887 0.94393,0.48613 1.52435,0.34361 0.6422,-0.15734 1.26436,-0.36724 1.79808,-0.74542 2.14905,-1.52047 4.18676,-3.16653 5.78018,-5.29661 0.23523,-0.31467 0.43547,-0.66781 0.7775,-0.93944 0.0889,1.45203 0.1881,2.8522 0.44164,4.23474 0.40076,2.18123 1.12173,4.18959 2.84635,5.73723 1.75398,1.57339 3.41933,1.78505 5.43536,0.5789 1.03116,-0.617 1.71414,-1.56598 2.41829,-2.49519 1.17087,-1.54482 1.63442,-3.33446 1.78999,-5.22641 0.0247,-0.2995 -0.0579,-0.55915 -0.40322,-0.61595 -0.31433,-0.0511 -0.48049,0.1517 -0.57291,0.41064 -0.13795,0.38699 -0.29845,0.77364 -0.3736,1.17439 -0.36618,1.94875 -1.66087,3.23921 -3.14148,4.36175 -1.07509,0.81562 -1.95125,0.62406 -2.62784,-0.4893 -1.20855,-1.98791 -1.62913,-4.21041 -1.74048,-6.48477 -0.0995,-2.0387 -0.0533,-4.08269 0.0789,-6.12351 0.0593,-0.91193 0.15985,-1.77412 0.62357,-2.60879 0.99244,-1.78541 1.82312,-3.65513 2.66249,-5.5178 0.11077,-0.24659 0.23036,-0.38806 0.51998,-0.40076 2.26026,-0.0995 4.50922,-0.37782 6.77299,-0.42262 0.15205,-0.003 0.3041,-0.0459 0.45438,-0.0766 0.21378,-0.043 0.32562,-0.16968 0.32491,-0.39546 -7.1e-4,-0.23107 -0.14393,-0.33902 -0.33373,-0.40358"
       style="fill:#d8673f;fill-opacity:1;fill-rule:nonzero;stroke:none;stroke-width:0.0352778"
       id="path445" />
    <path
       d="m 363.74513,166.35974 c -0.29633,-1.06151 -0.94827,-2.04999 -1.90006,-2.63173 -1.44569,-0.8837 -3.31364,-0.6611 -4.82777,-0.073 -1.13135,0.43921 -1.99107,1.25342 -2.58974,2.29729 -0.57538,1.00295 -0.95673,2.12796 -1.3021,3.22651 -0.1718,0.54645 -0.3235,1.09925 -0.46285,1.65559 -0.20566,-0.3676 -0.42333,-0.72884 -0.65757,-1.08056 -0.91758,-1.37866 -2.03377,-2.61691 -3.36797,-3.60292 -0.19121,-0.14111 -0.5715,-0.13194 -0.78317,-0.12559 -0.40216,0.012 -0.84137,0.0882 -1.22449,0.20884 -0.16686,0.0526 -1.40864,0.48754 -0.98037,0.80434 1.08232,0.79939 2.02495,1.76494 2.82893,2.84233 1.38429,1.90958 2.32656,4.11444 2.89383,6.39762 0.10548,0.42616 0.1965,0.85514 0.27764,1.28623 -0.0692,1.0601 -0.10478,2.12231 -0.1136,3.18382 -0.0251,2.93546 0.14252,5.86811 0.31821,8.79687 0.0109,0.18344 0.4445,0.22366 0.53128,0.23177 0.36654,0.0353 0.7874,-0.0183 1.143,-0.0981 0.3676,-0.0825 0.75847,-0.17815 1.08585,-0.37077 0.17004,-0.10019 0.37606,-0.20672 0.39229,-0.4265 0.266,-3.53872 0.48048,-7.11483 0.009,-10.64613 -0.0593,-0.44415 -0.13159,-0.88689 -0.21519,-1.32786 0.0434,-0.65864 0.0984,-1.31692 0.17074,-1.97379 0.1397,-1.27423 0.34149,-2.54071 0.61595,-3.79271 0.38382,-1.70251 0.87842,-3.43006 1.63266,-5.00769 0.15804,-0.3302 0.33372,-0.65263 0.53622,-0.95743 0.10019,-0.14994 0.20602,-0.29528 0.32032,-0.43498 0.0265,-0.0325 0.0533,-0.0642 0.0804,-0.096 0.005,-0.006 0.0176,-0.0201 0.0296,-0.0342 0.0162,-0.0173 0.0384,-0.0413 0.0462,-0.0494 0.0363,-0.036 0.073,-0.072 0.11077,-0.10654 0.0233,-0.0212 0.0476,-0.0402 0.0713,-0.0603 0.0138,0.005 0.0272,0.009 0.0409,0.0141 0.0159,0.005 0.0272,0.008 0.0367,0.0116 0.006,0.003 0.012,0.006 0.0201,0.01 0.18768,0.09 0.36795,0.19227 0.53834,0.31221 0.33726,0.23671 0.62901,0.52846 0.88018,0.85407 1.04634,1.49437 0.97543,3.43994 0.84597,5.17878 -0.0131,0.17886 0.47307,0.22649 0.53092,0.23213 0.36654,0.0349 0.78741,-0.0187 1.14336,-0.0981 0.36759,-0.0829 0.75847,-0.17851 1.0855,-0.37112 0.17039,-0.0998 0.37641,-0.20673 0.39228,-0.42651 0.0931,-1.24672 0.15664,-2.534 -0.18344,-3.75179"
       style="fill:#7bbab4;fill-opacity:1;fill-rule:nonzero;stroke:none;stroke-width:0.0352778"
       id="path715-5" />
    <path
       d="m 385.70918,170.96638 c -0.043,-0.88759 -0.0956,-1.77553 -0.15981,-2.66276 -0.0663,-0.90594 -0.14358,-1.81117 -0.23142,-2.71604 -0.0335,-0.34608 -0.74577,-0.37112 -1.02023,-0.34043 -0.11571,0.0127 -0.25188,0.0402 -0.38594,0.0808 -0.0339,-0.15134 -0.072,-0.30127 -0.12665,-0.44626 -0.15487,-0.41169 -0.45896,-0.70555 -0.84561,-0.89217 0.92464,0.0776 1.84856,0.16474 2.77072,0.26211 0.26106,2.25778 0.38418,4.52261 0.37253,6.78568 -0.11359,-0.0416 -0.24235,-0.066 -0.37359,-0.0709 z m -3.35597,17.26671 c -0.24554,0.27094 -0.59373,0.57715 -0.95638,0.8375 -0.0769,0.055 -0.15522,0.10865 -0.23495,0.16086 -0.0145,0.008 -0.1517,0.0928 -0.18662,0.11289 -0.22084,0.12806 -0.44979,0.24659 -0.68651,0.35419 -0.0462,0.0208 -0.0931,0.0409 -0.1397,0.0617 -0.005,0.001 -0.006,0.001 -0.0116,0.004 -0.11712,0.0413 -0.23071,0.0879 -0.34819,0.12806 -0.10407,0.0353 -0.20955,0.0684 -0.31574,0.0998 -0.0526,0.0155 -0.10724,0.0286 -0.15945,0.0448 0.24024,-0.0744 -0.0148,0.003 -0.0575,0.0123 -0.21555,0.0483 -0.43286,0.0829 -0.65264,0.115 -3.5e-4,0 -3.5e-4,0 -7e-4,0 -0.004,0 -0.007,3.6e-4 -0.0127,3.6e-4 -0.0547,0.003 -0.10971,0.009 -0.16474,0.0123 -0.0339,0.002 -0.0684,0.002 -0.10266,0.003 0.0293,-0.0642 0.049,-0.133 0.0466,-0.21202 -0.0868,-2.89807 -0.17392,-5.79649 -0.26106,-8.69491 -0.0145,-0.89006 -0.0374,-1.78012 -0.0653,-2.66983 -0.0257,-0.82267 -0.0564,-1.6457 -0.0868,-2.46838 0.23001,0.0727 0.5267,0.0744 0.69992,0.0554 0.3175,-0.0353 0.82408,-0.17744 0.96837,-0.45684 0.0459,1.15534 0.0917,2.31104 0.13758,3.46639 l 0.0416,1.04246 c -0.13511,-0.009 -0.26317,-0.005 -0.35313,0.005 -0.3115,0.0346 -1.01247,0.22013 -1.00683,0.56409 0.0194,1.15147 0.0384,2.30329 0.0575,3.45475 -0.32737,1.62913 -0.30092,3.30871 0.0826,4.94171 0.0804,0.34467 0.70627,0.37536 1.01988,0.34043 0.31151,-0.0346 1.01248,-0.21978 1.00683,-0.56409 -0.008,-0.46037 -0.0152,-0.92145 -0.0233,-1.38218 0.005,0.008 0.008,0.0162 0.012,0.0247 0.16863,0.33056 0.63183,0.38347 1.02024,0.34043 0.33302,-0.037 0.98425,-0.2159 1.00682,-0.56409 0.002,-0.0437 0.005,-0.0871 0.007,-0.13052 0.12454,-0.0656 0.21979,-0.14323 0.26247,-0.23143 0.0226,-0.0466 0.043,-0.0935 0.0656,-0.14005 h 0.002 c 7e-4,-0.002 10e-4,-0.005 10e-4,-0.007 0.57185,-1.19591 1.08655,-2.40876 1.54128,-3.63678 0.009,-3.5e-4 0.0187,3.5e-4 0.0282,0 0.0459,-0.003 0.0963,-0.008 0.15028,-0.0152 -0.41628,1.76354 -1.01247,3.5366 -2.33186,4.99145 z m -3.87033,-22.48852 c 0.22402,-0.018 0.44803,-0.0363 0.67205,-0.055 -0.18663,1.22802 -0.37289,2.45569 -0.55916,3.68336 -0.19685,-1.12819 -0.39299,-2.25637 -0.58949,-3.3842 0.18309,-0.0547 0.35454,-0.13723 0.4766,-0.24412 z m -2.72803,23.77792 c -0.58878,-0.35418 -1.09361,-0.84984 -1.51518,-1.38994 0.27975,-0.0914 0.54892,-0.24412 0.56233,-0.46531 0.012,-0.19685 0.0183,-0.39335 0.0268,-0.58985 0.3242,0.7493 0.70238,1.48555 1.13312,2.20486 0.0596,0.0991 0.18909,0.15911 0.34255,0.19297 0.005,0.11607 0.0109,0.23178 0.0166,0.34784 -0.17815,-0.078 -0.35348,-0.17286 -0.56621,-0.30057 z m 5.17984,-25.68645 c -0.12136,0.025 -0.2406,0.0536 -0.35772,0.0864 -0.58561,-0.0751 -1.17193,-0.14605 -1.75895,-0.21308 0.70415,0.036 1.4097,0.0783 2.11667,0.12665 z m -9.25866,-1.36067 c -0.90663,0.008 -1.81257,0.0293 -2.71815,0.0568 -0.005,-0.0469 -0.0201,-0.0893 -0.0409,-0.1277 1.88983,0.007 3.77896,0.0145 5.66844,0.0282 2.5594,0.0187 5.12198,0.0695 7.67256,0.30021 0.79728,0.072 1.59279,0.16404 2.38548,0.27623 -4.30812,-0.393 -8.64129,-0.57256 -12.9674,-0.53376 z m -0.98918,24.55157 c -0.16969,-0.24482 -0.32597,-0.49635 -0.47378,-0.75212 0.13758,0.21872 0.27869,0.43498 0.42827,0.64629 0.41769,0.59055 0.88723,1.14582 1.40793,1.64465 -0.51682,-0.45438 -0.97437,-0.97931 -1.36242,-1.53882 z m -0.86607,-2.61055 c 0.13088,-0.0191 0.26176,-0.10407 0.22119,-0.21167 -0.35878,-0.94615 -0.7172,-1.89195 -1.07527,-2.83774 -0.0247,-0.0649 -0.0885,-0.0981 -0.16087,-0.10654 -0.16016,-0.49001 -0.30056,-0.98672 -0.42156,-1.48767 0.13687,0.007 0.30338,-0.0822 0.28751,-0.21731 -0.009,-0.0801 -0.0205,-0.1591 -0.0303,-0.23918 0.24447,0.94262 0.51329,1.88136 0.80821,2.81517 0.33056,1.04528 0.69215,2.08491 1.08515,3.11679 0.24765,0.65017 0.51505,1.29434 0.83785,1.92193 -0.53199,-0.68721 -0.99448,-1.43792 -1.39665,-2.21509 -0.0526,-0.17886 -0.10337,-0.35913 -0.15522,-0.53869 z m 2.46133,-13.91955 c -0.0822,2.0514 -3.6e-4,4.11197 0.12559,6.1722 -0.46003,-2.75097 -0.8121,-5.51286 -1.05481,-8.2797 -0.0751,-0.85478 -0.13864,-1.70991 -0.19262,-2.5654 0.0896,0.25118 0.15805,0.51118 0.21731,0.768 0.30128,1.3014 0.6029,2.60315 0.90453,3.9049 z m 0.2159,-6.50064 c -0.1397,-0.0522 -0.28187,-0.1009 -0.4251,-0.14746 -0.17039,-0.12136 -0.3556,-0.21943 -0.55104,-0.29492 0.3803,-0.003 0.76059,-0.007 1.13983,-0.007 -0.13406,0.11501 -0.21908,0.29881 -0.16369,0.44909 z m -3.57682,-0.20285 c 0.0303,-0.002 0.0603,-0.005 0.0907,-0.007 0.001,0.0286 0.002,0.0575 0.004,0.0864 -0.006,0.0109 -0.0145,0.0208 -0.0187,0.0321 -0.0473,0.11395 -0.03,0.22296 0.0332,0.31292 0.13088,2.92029 0.37994,5.83812 0.75212,8.74712 0.28787,2.25037 0.64947,4.49474 1.08127,6.73135 -0.27975,-1.01917 -0.53023,-2.04399 -0.75107,-3.07234 -0.88582,-4.12926 -1.29857,-8.32414 -1.20332,-12.50491 0.002,-0.10901 0.009,-0.21731 0.012,-0.32597 z m -1.20897,11.45822 c -0.17991,-1.0287 -0.32596,-2.06304 -0.43638,-3.10127 0.12665,1.03964 0.28398,2.07716 0.47166,3.1115 -0.0109,-0.004 -0.0233,-0.008 -0.0353,-0.0102 z m -0.67063,-1.26612 c 0.10513,0.73025 0.22649,1.45804 0.36619,2.18229 0.0201,0.42757 0.0536,0.85443 0.10089,1.27952 -0.21766,-1.14441 -0.37394,-2.30046 -0.46708,-3.46181 z m -0.0995,-11.33968 c -0.1524,0.0367 -0.30092,0.0917 -0.42651,0.16545 0.0603,-0.15522 0.1651,-0.32174 0.34467,-0.2981 0.042,0.005 0.0818,0.0176 0.11747,0.036 -0.0169,0.0307 -0.03,0.0624 -0.0356,0.0967 z m -0.13723,1.52223 c -0.0169,-0.16968 -0.33408,-0.13229 -0.42792,-0.006 0.007,-0.19367 0.0127,-0.3877 0.0222,-0.58102 3.6e-4,-0.0162 0.001,-0.0328 0.002,-0.049 0.0579,0.0363 0.12559,0.0649 0.2025,0.0815 0.0984,0.0212 0.19791,0.0385 0.29739,0.0564 -0.0131,0.40287 -0.0205,0.8061 -0.0251,1.20932 -0.0236,-0.23742 -0.0476,-0.47413 -0.0709,-0.7112 z m -0.18062,4.24215 c 0.008,-0.39758 0.0187,-0.79516 0.0321,-1.19274 0.0169,0.0395 0.0508,0.0624 0.0942,0.0709 -0.048,0.37359 -0.091,0.74754 -0.12629,1.12183 z m 21.25733,-3.14924 c -0.0508,-0.55422 -0.11042,-1.10773 -0.17745,-1.66159 -0.0272,-0.22507 -0.41063,-0.3242 -0.62653,-0.34784 -0.0561,-0.006 -0.11289,-0.0113 -0.16933,-0.0173 0.0511,-0.0571 0.0702,-0.12594 -0.0445,-0.14817 -2.52907,-0.48507 -5.09764,-0.71402 -7.66833,-0.8195 -2.59433,-0.10654 -5.19148,-0.0977 -7.78687,-0.10971 -0.95885,-0.004 -1.91735,-0.009 -2.87584,-0.0131 -0.14358,-0.0399 -0.3048,-0.0536 -0.45262,-0.0448 -0.0822,0.005 -0.18838,0.019 -0.30162,0.0416 -0.27799,-0.001 -0.55633,-0.002 -0.83503,-0.004 -0.0804,-3.6e-4 -0.20849,0.0138 -0.27375,0.079 -0.2981,0.0822 -0.51788,0.32738 -0.62018,0.63641 -0.16052,0.48648 -0.12136,1.05057 -0.13759,1.55575 -0.019,0.58949 -0.0286,1.17898 -0.0296,1.76883 -0.003,2.34844 0.13547,4.69688 0.41593,7.02874 0.28187,2.34174 0.70661,4.66655 1.27247,6.95643 0.53551,2.16923 1.12218,4.40937 2.25742,6.35353 0.90488,1.5494 2.25249,2.9083 3.92783,3.56199 0.6604,0.47625 1.43228,0.84032 2.33045,1.02306 2.37455,0.48366 4.83623,-0.17321 6.68514,-1.39065 1.80763,-1.18992 2.82716,-2.98591 3.44382,-4.78578 0.69144,-2.01825 1.02693,-4.14091 1.32644,-6.22265 0.64135,-4.44959 0.75142,-8.9595 0.33973,-13.44048"
       style="fill:#d3894c;fill-opacity:1;fill-rule:nonzero;stroke:none;stroke-width:0.0352778"
       id="path953" />
    <path
       d="m 385.41144,162.97949 c -0.0494,-0.52564 -0.10619,-1.05092 -0.16792,-1.57515 -0.0265,-0.21978 -1.05834,-0.0145 -1.02412,0.27411 0.47484,3.99097 0.56409,8.02499 0.26071,12.0329 -0.15205,2.01436 -0.40394,4.02131 -0.75424,6.01098 -0.17322,0.9846 -0.37042,1.96532 -0.59161,2.9404 -0.19615,0.86536 -0.40993,1.73143 -0.74472,2.55517 -0.32914,0.80963 -0.77752,1.57903 -1.43086,2.17029 -0.52035,0.47096 -1.18675,0.85937 -1.90888,0.83185 -1.71027,-0.0642 -2.96757,-1.81222 -3.81,-3.10656 -0.99237,-1.52577 -1.71838,-3.2064 -2.35056,-4.90749 -0.6858,-1.84538 -1.2633,-3.73063 -1.73038,-5.64304 -0.92957,-3.80682 -1.42205,-7.72019 -1.45838,-11.63884 -0.005,-0.47837 -0.002,-0.95674 0.007,-1.43511 0.003,-0.18309 -1.01812,-0.0392 -1.02376,0.27447 -0.0734,4.08481 0.34113,8.17386 1.23719,12.1606 0.44767,1.99214 1.01565,3.95782 1.69968,5.88187 0.64206,1.80587 1.36949,3.59903 2.37702,5.23592 0.86325,1.40265 2.03482,3.10551 3.73486,3.5232 1.67287,0.41098 3.55776,-0.43957 4.62668,-1.72791 1.20191,-1.44886 1.58891,-3.38208 1.96956,-5.1756 0.43039,-2.02848 0.75635,-4.07847 0.98284,-6.13975 0.45684,-4.16278 0.49142,-8.37247 0.10019,-12.54231"
       style="fill:#e2a56d;fill-opacity:1;fill-rule:nonzero;stroke:none;stroke-width:0.0352778"
       id="path955" />
    <path
       d="m 382.39731,160.83001 c -0.0145,-0.20496 -1.04493,-0.0222 -1.02377,0.27411 0.47484,6.7109 0.0639,13.47718 -1.23648,20.07835 -0.14111,0.7172 -0.24166,1.47709 -0.50342,2.16253 -0.10124,0.26529 -0.2293,0.53552 -0.41239,0.75495 -0.018,0.0212 -0.10548,0.0952 -0.16898,0.15275 -0.0561,-0.0148 -0.1196,-0.0303 -0.12947,-0.0346 -0.58138,-0.28081 -0.88724,-1.10772 -1.16382,-1.64501 -0.34008,-0.66075 -0.65158,-1.33632 -0.93556,-2.02318 -1.13948,-2.75695 -1.83022,-5.67866 -2.27965,-8.62153 -0.51259,-3.35668 -0.71685,-6.7497 -0.90876,-10.13672 -0.0113,-0.20109 -1.04069,-0.0247 -1.02341,0.27446 0.35631,6.28791 0.7359,12.76703 3.1496,18.66477 0.29457,0.71896 0.61842,1.42593 0.97367,2.11702 0.29033,0.56303 0.5909,1.33632 1.15464,1.68557 0.55986,0.34713 1.35961,0.18838 1.88278,-0.16016 0.48965,-0.32632 0.77822,-0.87842 0.95144,-1.42663 0.24306,-0.76906 0.36089,-1.59491 0.51223,-2.38619 0.16792,-0.87912 0.31962,-1.76142 0.4565,-2.64619 0.26705,-1.72932 0.47483,-3.46851 0.62335,-5.21229 0.33585,-3.94794 0.36125,-7.91986 0.0815,-11.87204"
       style="fill:#e2a56d;fill-opacity:1;fill-rule:nonzero;stroke:none;stroke-width:0.0352778"
       id="path957" />
    <path
       d="m 392.72771,182.82376 v 0 c 0,0 0,0.001 3.6e-4,0.003 -3.6e-4,-0.001 -3.6e-4,-0.002 -3.6e-4,-0.003"
       style="fill:#c8c7ee;fill-opacity:1;fill-rule:nonzero;stroke:none;stroke-width:0.0352778"
       id="path889-9" />
    <path
       d="m 406.90832,178.21543 c -0.10724,-0.27693 -0.1718,-0.44345 -0.23636,-0.61031 -0.15981,-0.34043 -0.3108,-0.68368 -0.38594,-1.05516 0,-3.5e-4 0,-3.5e-4 0,-3.5e-4 -0.0681,-0.139 -0.13582,-0.27764 -0.22507,-0.46038 0.23954,0.0388 0.26529,0.2152 0.32456,0.35984 0.15804,0.33972 0.30762,0.68227 0.38876,1.05057 0,0 0,0 0,3.5e-4 0.10195,0.18062 0.18379,0.36619 0.13405,0.71544 z m -1.12536,7.12858 c 0.0229,-0.28046 0.13229,-0.45932 0.37395,-0.69286 -0.0413,0.35454 -0.14747,0.5274 -0.37395,0.69286 z m -2.02,-6.46007 c -0.1016,-0.0314 -0.11889,-0.12136 -0.14888,-0.20144 -0.066,-0.14146 -0.13194,-0.28328 -0.19755,-0.42474 -0.11642,-0.21555 -0.23248,-0.43074 -0.3489,-0.64594 v 0 0 c -0.12876,-0.13511 -0.20144,-0.29457 -0.25929,-0.53763 0.18838,0.16051 0.27129,0.30656 0.3429,0.46108 0.12171,0.20532 0.24306,0.41099 0.36477,0.6163 v 0 c 0.0928,0.13618 0.17569,0.27693 0.19967,0.4445 v 0 c 0.0833,0.0836 0.097,0.17886 0.0473,0.28787 z m -0.0497,3.54259 c -0.26247,-0.50658 -0.51964,-0.9592 -0.83679,-1.37195 -0.18063,-0.2353 0.0374,-0.39687 0.091,-0.60219 0.36689,0.59902 1.04598,1.05798 0.74577,1.97414 z m -3.95676,-12.37297 c -0.0988,0.0635 -0.2219,0.15275 -0.26776,-0.0505 -0.0713,-0.31397 -0.23706,-0.61101 -0.1912,-1.08091 0.24765,0.35772 0.41663,0.6163 0.60113,0.86325 0.15346,0.20567 -0.0487,0.20849 -0.14217,0.26811 z m -2.90407,0.35383 c -0.20073,-0.18309 -0.15487,-0.31961 -0.036,-0.47272 0.10972,0.14641 0.0833,0.28963 0.036,0.47272 z m -0.89923,2.32834 c -0.21731,-0.27764 -0.28116,-0.65793 -0.32385,-1.12748 0.33796,0.37677 0.60925,0.67839 0.90453,1.00683 -0.21379,-0.0183 -0.46109,0.27305 -0.58068,0.12065 z m 12.68801,6.49076 c -0.003,-0.06 -0.006,-0.11959 -0.01,-0.17957 -0.001,-0.0265 -0.002,-0.0529 -0.004,-0.0794 v 0 0 l 0.007,-0.001 c -0.0466,-0.38911 -0.12559,-0.77047 -0.22084,-1.14759 -0.0639,-0.254 -0.13441,-0.50623 -0.20849,-0.75741 -0.0691,-0.23495 -0.14041,-0.46919 -0.21061,-0.70344 0,-3.5e-4 0,-3.5e-4 0,-7e-4 v 3.5e-4 -3.5e-4 c 0,3.5e-4 0,3.5e-4 0,3.5e-4 l 0.006,0.008 c -0.0466,-0.0529 -0.0801,-0.11077 -0.10795,-0.17109 -0.0173,-0.0381 -0.0321,-0.0776 -0.0441,-0.11818 -0.0155,-0.0543 -0.0282,-0.10972 -0.0353,-0.16757 0,0 0,0 0,-3.6e-4 v 3.6e-4 0 c 10e-4,3.5e-4 10e-4,10e-4 0.002,0.002 -0.0187,-0.0342 -0.0378,-0.0684 -0.0564,-0.1023 -0.0547,-0.0988 -0.10901,-0.19756 -0.16369,-0.29634 -0.0254,-0.0459 -0.0508,-0.0917 -0.0759,-0.13758 h -3.5e-4 c -0.049,-0.0829 -0.0984,-0.16616 -0.14711,-0.24906 -0.0603,-0.0709 -0.12065,-0.14182 -0.18062,-0.21308 -0.15946,-0.18838 -0.31927,-0.37641 -0.47872,-0.5648 -0.0907,-0.10689 -0.18098,-0.21378 -0.27164,-0.32032 -3.5e-4,-3.5e-4 -3.5e-4,-3.5e-4 -7.1e-4,-7e-4 -0.0194,-0.0215 -0.0384,-0.0427 -0.0579,-0.0642 -0.0522,-0.0533 -0.10513,-0.10725 -0.15734,-0.16051 -0.13511,-0.13794 -0.27058,-0.27552 -0.40569,-0.41346 -0.054,-0.055 -0.1076,-0.11007 -0.16193,-0.1651 0,-3.5e-4 -3.5e-4,-3.5e-4 -3.5e-4,-3.5e-4 h 3.5e-4 c 0,0 -3.5e-4,0 -3.5e-4,-3.6e-4 3.5e-4,3.6e-4 0.001,3.6e-4 0.001,7.1e-4 -0.085,-0.0582 -0.16686,-0.11924 -0.24588,-0.18274 -0.1771,-0.14358 -0.33797,-0.30409 -0.48119,-0.48154 -0.0614,-0.0762 -0.12065,-0.15452 -0.17533,-0.23742 0,-3.5e-4 -3.6e-4,-3.5e-4 -7.1e-4,-7.1e-4 l -0.005,0.005 v 0 c -0.0198,-0.0194 -0.0392,-0.0395 -0.0589,-0.0593 -0.3362,-0.33796 -0.67204,-0.67592 -1.00789,-1.01424 -0.0296,-0.0296 -0.0589,-0.0593 -0.0885,-0.0889 v 0 l 0.006,-0.002 c -0.0512,-0.0251 -0.0998,-0.0529 -0.14675,-0.0829 -0.11677,-0.0752 -0.21978,-0.16687 -0.31362,-0.26953 -0.0286,-0.0314 -0.0572,-0.0628 -0.0847,-0.096 -0.0356,-0.012 -0.0699,-0.0265 -0.10195,-0.0434 -0.0628,-0.0332 -0.11818,-0.0766 -0.16722,-0.12736 -0.0321,-0.0332 -0.0624,-0.0691 -0.0889,-0.109 h -3.5e-4 l -0.001,0.004 v 0 c -0.0434,-0.0286 -0.0857,-0.0586 -0.12841,-0.0879 -0.5267,-0.36265 -0.99343,-0.78916 -1.39348,-1.28763 -0.0402,-0.0501 -0.0804,-0.0998 -0.11923,-0.15135 v 0 c -0.26917,-0.32561 -0.508,-0.67134 -0.69039,-1.05375 -0.0536,-0.0579 -0.10054,-0.11924 -0.14217,-0.18379 -0.0335,-0.0515 -0.0639,-0.10443 -0.0875,-0.16087 -0.0183,-0.043 -0.0335,-0.0878 -0.0452,-0.13476 -0.042,-0.036 -0.0765,-0.0769 -0.10689,-0.1203 -0.0279,-0.0388 -0.0522,-0.0797 -0.0741,-0.12241 -0.0353,-0.0681 -0.067,-0.13829 -0.1009,-0.20708 v 0 c -0.0667,-0.0289 -0.0765,-0.0857 -0.072,-0.14923 -0.0568,-0.0709 -0.10724,-0.14499 -0.15416,-0.22084 -0.067,-0.10689 -0.12347,-0.21837 -0.16369,-0.33831 -0.0208,-0.0617 -0.0385,-0.12488 -0.0508,-0.1905 0,0 0,-3.5e-4 -3.5e-4,-3.5e-4 h 3.5e-4 v 0 c 10e-4,10e-4 0.002,0.003 0.004,0.004 -0.0395,-0.043 -0.0681,-0.0896 -0.091,-0.139 -0.0222,-0.0494 -0.0392,-0.10125 -0.0529,-0.15416 -0.0219,-0.0825 -0.0385,-0.16722 -0.0646,-0.24871 v 0 c -0.0741,-0.10195 -0.0603,-0.21837 -0.0536,-0.33338 -0.10725,-0.14111 -0.0751,-0.31926 -0.12594,-0.47589 v 0 c -0.0681,-0.12524 -0.0674,-0.25083 0,-0.37606 0.0303,-0.11466 0.061,-0.22931 0.0945,-0.3429 0.0635,-0.21414 0.1404,-0.42298 0.25365,-0.61666 0.0406,-0.0699 0.0854,-0.13794 0.13687,-0.20355 0,0 0,0 -3.5e-4,0 0.0113,-0.0416 0.0286,-0.079 0.0462,-0.11607 0.0505,-0.10407 0.12312,-0.19085 0.20743,-0.26917 0.0339,-0.0314 0.0691,-0.0617 0.10513,-0.0914 v 0 0 c 0.0547,-0.0529 0.11007,-0.10512 0.16475,-0.15804 0.0356,-0.042 0.0723,-0.0825 0.11007,-0.12136 0.0695,-0.0716 0.14463,-0.13511 0.23142,-0.18379 0.0395,-0.0219 0.0808,-0.0413 0.12559,-0.0561 0.0328,-0.042 0.0699,-0.0751 0.10971,-0.10337 0.0293,-0.0208 0.061,-0.037 0.0942,-0.049 0.0508,-0.018 0.10442,-0.0286 0.16545,-0.024 v 0 c 0.0744,-0.0529 0.14358,-0.11853 0.24765,-0.0903 v 0 c 0.066,-0.0257 0.13159,-0.0444 0.19756,-0.0575 0.15275,-0.0303 0.30621,-0.0275 0.45967,0.004 0.0589,0.012 0.11818,0.0279 0.17745,0.048 7e-4,0 10e-4,0 0.002,0 0.14675,0.002 0.30056,-0.0236 0.41592,0.10443 0.0688,0.0342 0.13758,0.0681 0.20602,0.10195 0.0702,0.0208 0.13335,0.049 0.1905,0.0836 0.1009,0.061 0.18168,0.14287 0.24589,0.2413 0.0399,0.0614 0.0741,0.12876 0.10195,0.20249 0.23883,0.36301 0.47802,0.72602 0.71685,1.08903 0.0293,0.0247 0.0522,0.0515 0.0734,0.079 0.0938,0.12453 0.115,0.27693 0.12241,0.43427 -0.005,7e-4 -0.0109,0.001 -0.0169,0.002 0.004,0.002 0.007,0.004 0.0102,0.006 0,-0.002 0,-0.004 3.5e-4,-0.006 0.001,0.003 0.002,0.006 0.003,0.008 0.11995,0.25858 0.17851,0.53093 0.18027,0.81562 0,0 0,0 0,3.5e-4 0.0109,0.12524 -0.0335,0.26212 0.0773,0.36654 0.12771,0.12135 0.0949,0.2801 0.10195,0.42968 3.6e-4,7.1e-4 0,0.001 3.6e-4,0.002 0.025,0.048 0.043,0.097 0.0561,0.14676 0.0409,0.15592 0.0318,0.31856 0.0307,0.48048 0,7.1e-4 0,0.001 0,0.002 v 0 c 0.061,0.13935 0.0624,0.2854 0.0635,0.43145 10e-4,0.10654 10e-4,0.21308 0.0247,0.31679 0,0 0,0 0,3.5e-4 0.0759,0.33761 0.25717,0.58491 0.62829,0.58562 0.34925,7e-4 0.52988,-0.23107 0.61419,-0.54822 0.0296,-0.1136 0.0526,-0.22895 0.0787,-0.34325 0,-3.6e-4 0,-3.6e-4 0,-7.1e-4 0.0138,-0.15099 0.0275,-0.30127 0.0413,-0.45226 0.0187,-0.20391 0.0378,-0.40781 0.0564,-0.61207 v 0 c 10e-4,-0.06 0.003,-0.11959 0.004,-0.17956 0,-0.0515 0,-0.10231 0,-0.15346 0,-0.12665 0,-0.25365 3.5e-4,-0.3803 0,-0.0318 0,-0.0635 0,-0.0949 -0.002,-0.0829 -0.004,-0.1651 -0.005,-0.248 v 0 c -0.0582,-0.28116 -0.0974,-0.56621 -0.14075,-0.8509 -0.0617,-0.4064 -0.13265,-0.81139 -0.27905,-1.19839 -0.0367,-0.0977 -0.0787,-0.19438 -0.1263,-0.28963 v 0 l 0.005,-0.003 c -0.0755,-0.10724 -0.15063,-0.21449 -0.22613,-0.32173 -0.0536,-0.0759 -0.10689,-0.15205 -0.16016,-0.22789 -0.0617,-0.0882 -0.12382,-0.17604 -0.18556,-0.26388 0,0 -3.5e-4,0 -3.5e-4,-3.6e-4 -0.10689,-0.1464 -0.21414,-0.29245 -0.32138,-0.43885 -0.0198,-0.0198 -0.0395,-0.0392 -0.0593,-0.0593 -0.14535,-0.14464 -0.29104,-0.28928 -0.43639,-0.43392 -0.0198,-0.0194 -0.0392,-0.0388 -0.0586,-0.0582 -0.11536,-0.0797 -0.23072,-0.15981 -0.34643,-0.23953 -0.10618,-0.0684 -0.21695,-0.12559 -0.32984,-0.17533 -0.16369,-0.0723 -0.33338,-0.12912 -0.50589,-0.1771 -0.16827,-0.0473 -0.34007,-0.0871 -0.51117,-0.12735 0,-3.5e-4 0,-3.5e-4 0,-3.5e-4 l -0.003,0.008 v 0 c -0.0198,3.5e-4 -0.0402,3.5e-4 -0.0603,7e-4 -0.14252,0.003 -0.2854,0.004 -0.42827,0.003 -0.66323,-0.005 -1.32751,-0.0399 -1.98967,-0.002 -0.12171,0.007 -0.24342,0.0173 -0.36477,0.0296 -0.15064,0.0155 -0.30128,0.0342 -0.45191,0.061 v 0 l -0.003,-0.007 c -0.13653,0.054 -0.27305,0.1083 -0.40958,0.16228 -0.24835,0.0984 -0.49671,0.1972 -0.74506,0.29563 -0.12771,0.0505 -0.25577,0.1016 -0.38383,0.1524 -0.0815,0.0656 -0.16333,0.13158 -0.24482,0.1972 -0.0434,0.0423 -0.0832,0.0892 -0.127,0.13194 -0.0406,0.0399 -0.0843,0.0762 -0.13512,0.1016 -0.0374,0.0183 -0.078,0.031 -0.12453,0.0349 v 0 c -0.14605,0.1464 -0.2921,0.2928 -0.43815,0.43921 v 0 c -0.0113,0.0649 -0.037,0.11818 -0.0684,0.16686 -0.019,0.0286 -0.0406,0.055 -0.0653,0.0787 -0.042,0.0409 -0.0896,0.0769 -0.14499,0.10654 v 0 c -0.14923,0.21272 -0.29845,0.4251 -0.44768,0.63747 -0.01,0.0593 -0.0258,0.1143 -0.0459,0.16686 -0.0275,0.0734 -0.0639,0.14147 -0.11747,0.19932 -0.0307,0.0328 -0.0667,0.0628 -0.1076,0.09 0,0 0,0 -3.5e-4,0 -0.0261,0.0568 -0.0529,0.1136 -0.079,0.17039 -0.007,0.0642 -0.0201,0.12559 -0.0377,0.18486 -0.0272,0.0917 -0.0674,0.17745 -0.11324,0.26141 -0.037,0.0663 -0.0769,0.13229 -0.12065,0.19579 v 3.5e-4 l 0.005,-0.007 c -0.0765,0.25506 -0.15346,0.51012 -0.23037,0.76553 -0.0247,0.0822 -0.0494,0.16475 -0.0744,0.24694 -0.079,0.26282 -0.15804,0.52564 -0.23742,0.78882 0.002,-0.002 0.003,-0.003 0.006,-0.005 -0.007,0.15628 0.0102,0.3175 -0.0921,0.45437 0.002,-0.001 0.003,-0.003 0.005,-0.004 -0.0123,0.14852 0.0194,0.30798 -0.10795,0.42757 v 0 c -0.11782,0.10619 -0.066,0.248 -0.079,0.37641 0,0.004 0,0.007 0,0.0109 0.005,0.1196 10e-4,0.23813 -0.0388,0.34996 -0.0123,0.0335 -0.0268,0.0667 -0.0469,0.0991 -3.5e-4,10e-4 -3.5e-4,0.002 -3.5e-4,0.002 0,0.003 -3.5e-4,0.006 -3.5e-4,0.009 -0.0116,0.20884 3.5e-4,0.42086 -0.0871,0.61877 l -0.002,-0.002 c 7e-4,10e-4 10e-4,0.002 0.002,0.003 -0.003,0.0713 -0.006,0.14288 -0.009,0.21449 -0.0385,0.89148 -0.0466,1.78119 0.0162,2.67054 0.0141,0.19896 0.0332,0.39828 0.0543,0.59725 0.006,0.0536 0.0123,0.10654 0.0187,0.15981 0.007,0.0642 0.0138,0.12876 0.0222,0.19262 0.055,0.41698 0.14464,0.82091 0.25541,1.21743 0.007,0.0265 0.0148,0.0529 0.0222,0.079 0.19085,0.65935 0.44732,1.2947 0.74083,1.91805 0.10196,0.2166 0.20673,0.43215 0.31609,0.64665 v 0 l -0.005,0.002 c 0.0384,0.0374 0.0737,0.0765 0.10654,0.11677 0.0529,0.0653 0.0974,0.13511 0.12594,0.21447 0.0152,0.042 0.0261,0.0868 0.0318,0.13442 v 0 c 0.0579,0.0889 0.11536,0.17744 0.17322,0.266 0.11218,0.12947 0.2226,0.25999 0.33302,0.39052 0.54081,0.63993 1.07668,1.28341 1.73214,1.81786 0.23707,0.19298 0.48754,0.3743 0.69744,0.59902 0.0434,0.0462 0.0875,0.0921 0.127,0.14323 0.0579,0.0303 0.11324,0.0646 0.16616,0.10054 0.13511,0.0921 0.2547,0.2025 0.36442,0.32384 0.0346,0.0374 0.0688,0.0755 0.1016,0.11536 v 0 c 0,0 0.004,-0.004 0.004,-0.004 h 3.5e-4 c 0.0861,0.0649 0.16792,0.13476 0.25153,0.20284 0.0508,0.0406 0.0991,0.084 0.14887,0.12595 0.37959,0.32102 0.73131,0.67027 1.04846,1.05445 0.0864,0.10477 0.17392,0.20814 0.25541,0.31785 0,0 0,0 0,3.5e-4 l -0.004,0.005 c 0.0335,0.0261 0.0649,0.0543 0.0963,0.0822 0.10795,0.0949 0.20285,0.20144 0.27764,0.3242 0.0268,0.0441 0.0522,0.0903 0.0734,0.139 0.0388,0.0282 0.0744,0.0586 0.1083,0.0907 0.0437,0.0416 0.0801,0.0878 0.1076,0.14111 0.0212,0.0427 0.0378,0.0882 0.043,0.14217 0.0586,0.0882 0.11677,0.17639 0.17533,0.26494 0.043,0.0222 0.0783,0.049 0.10865,0.0797 0.0639,0.0642 0.10337,0.14358 0.1337,0.2293 0.0155,0.0448 0.0293,0.0914 0.042,0.13759 0,3.5e-4 0,3.5e-4 0,3.5e-4 0,0 -3.5e-4,-0.004 -7e-4,-0.004 v -3.5e-4 c 0.066,0.10372 0.11183,0.20849 0.14358,0.31397 0.0945,0.31539 0.0572,0.63783 -0.003,0.96168 -0.0169,0.0885 -0.0349,0.17709 -0.0526,0.26564 0,10e-4 0,0.003 0,0.005 -10e-4,0.13124 -0.009,0.26106 -0.031,0.38735 -0.004,0.024 -0.01,0.0473 -0.0148,0.0706 -0.0279,0.12171 -0.0702,0.23989 -0.13723,0.35242 0.002,-0.002 0.003,-0.004 0.005,-0.006 -0.008,0.0617 -0.0226,0.12065 -0.0388,0.17815 -0.0416,0.14817 -0.10795,0.28363 -0.20073,0.4064 -0.036,0.0473 -0.0748,0.0935 -0.11818,0.13688 -0.0113,0.0427 -0.0275,0.0815 -0.0466,0.11888 -0.0317,0.0621 -0.0741,0.11677 -0.12489,0.16475 -0.0314,0.0296 -0.0653,0.0579 -0.10301,0.0829 v 0 l 0.004,7.1e-4 v 0 0 0 c -0.0328,0.0536 -0.067,0.10619 -0.10266,0.15734 -0.16016,0.23318 -0.34889,0.43744 -0.61947,0.55986 v 0 c -0.31503,0.24588 -0.69251,0.3436 -1.06998,0.43039 -0.31891,0.0734 -0.62794,0.10618 -0.93063,0.11147 -0.0903,0.001 -0.18027,0 -0.26987,-0.004 -0.10407,-0.004 -0.20744,-0.012 -0.31009,-0.0229 -0.16263,-0.018 -0.32421,-0.0416 -0.48331,-0.0744 -0.55845,-0.11465 -1.09643,-0.31503 -1.6263,-0.54927 -0.48437,-0.21414 -0.96168,-0.45685 -1.44145,-0.68933 -3.6e-4,-3.5e-4 -3.6e-4,-3.5e-4 -7.1e-4,-3.5e-4 l 0.005,-0.002 c -0.0536,-0.018 -0.10442,-0.0409 -0.15416,-0.0646 -0.14323,-0.0688 -0.26917,-0.16122 -0.37889,-0.27552 -0.0346,-0.0363 -0.0692,-0.0723 -0.10054,-0.11324 -0.0434,-0.018 -0.0836,-0.0399 -0.121,-0.0642 -0.0737,-0.049 -0.13582,-0.10972 -0.18486,-0.1838 -0.0222,-0.0339 -0.0416,-0.0702 -0.0589,-0.10901 -0.0272,-0.0169 -0.0512,-0.036 -0.0751,-0.0554 -0.0737,-0.06 -0.12982,-0.13335 -0.16616,-0.22083 -0.0123,-0.0293 -0.024,-0.0586 -0.0314,-0.0907 0,-3.5e-4 0,-3.5e-4 0,-3.5e-4 10e-4,3.5e-4 0.002,7e-4 0.003,0.001 -0.0582,-0.0709 -0.10724,-0.14499 -0.15098,-0.22049 -0.11642,-0.20179 -0.18945,-0.4191 -0.23884,-0.64593 -0.0219,-0.1016 -0.0399,-0.20497 -0.0547,-0.30939 0,-3.5e-4 -3.5e-4,-3.5e-4 -3.5e-4,-3.5e-4 h 3.5e-4 v 0 0 l 0.006,0.008 c -0.0445,-0.0903 -0.0776,-0.18345 -0.10407,-0.27729 -0.0254,-0.0917 -0.0444,-0.1845 -0.0568,-0.27834 -0.0152,-0.11571 -0.0219,-0.23283 -0.0243,-0.35066 0,-3.5e-4 0,-3.5e-4 0,-3.5e-4 v 0 0 0 l 0.006,0.008 c -0.10195,-0.13547 -0.0882,-0.29492 -0.0967,-0.44979 0,-3.5e-4 0,-3.5e-4 0,-3.5e-4 -0.0381,-0.0864 -0.0748,-0.17322 -0.11183,-0.26036 -0.0501,-0.11747 -0.1016,-0.23389 -0.16016,-0.34678 -0.0134,-0.0247 -0.0265,-0.0497 -0.0402,-0.0744 -0.0511,-0.0928 -0.109,-0.18168 -0.18203,-0.248 -0.0878,-0.0804 -0.19685,-0.127 -0.34219,-0.10407 -0.0928,0.0152 -0.16122,0.0515 -0.2152,0.0995 -0.13547,0.121 -0.16968,0.32597 -0.19332,0.52035 -0.0377,0.31044 -0.0325,0.62089 -0.0176,0.93098 0.003,0.061 0.006,0.12241 0.009,0.18379 0.005,0.0819 0.01,0.16334 0.0134,0.24483 0.003,0.0564 0.006,0.11289 0.008,0.16934 7.1e-4,0.0109 0.001,0.0219 0.002,0.0332 v 0 0 l -0.005,3.5e-4 c 0.10477,0.16863 0.0882,0.35913 0.0974,0.54504 v 0 3.5e-4 c -0.002,-0.002 -0.003,-0.004 -0.005,-0.005 0.0568,0.14323 0.10125,0.28963 0.14041,0.43745 0.018,0.067 0.0349,0.13405 0.0501,0.20143 0.0335,0.1457 0.0635,0.29281 0.0907,0.44027 0,0 0,3.5e-4 3.5e-4,3.5e-4 l -3.5e-4,-3.5e-4 c 0,3.5e-4 0,3.5e-4 0,3.5e-4 0,-3.5e-4 -3.6e-4,-7e-4 -3.6e-4,-10e-4 l -0.007,-0.008 c 0.0448,0.0547 0.0773,0.1143 0.10372,0.17604 0.0109,0.0261 0.0215,0.0526 0.03,0.0794 0.0208,0.066 0.0356,0.13406 0.0441,0.20461 0.0413,0.0473 0.073,0.0981 0.0998,0.15099 0.0226,0.0441 0.0409,0.09 0.055,0.13794 0.0148,0.0512 0.0265,0.10336 0.0328,0.15804 v 0 h 3.5e-4 c 0,0 7.1e-4,-0.004 10e-4,-0.005 v -7.1e-4 0 c 0.0526,0.0914 0.10866,0.17922 0.1644,0.2667 0.53234,0.83115 1.22802,1.49614 2.10961,1.9738 0.0568,0.0307 0.11994,0.0571 0.16616,0.10336 0.0247,0.0247 0.0455,0.0533 0.0547,0.0945 0.0892,0.0607 0.1785,0.12101 0.26811,0.18133 0.0819,0.0243 0.16016,0.0547 0.23636,0.0885 0.16545,0.0737 0.31856,0.16757 0.46143,0.27869 0.0684,0.0529 0.13547,0.11007 0.20003,0.17004 0.0603,0.0318 0.12065,0.0632 0.18097,0.0949 0.29528,0.0885 0.59126,0.17604 0.88653,0.26494 0.79728,0.24059 1.60302,0.30974 2.41194,0.31185 0.002,0 0.005,-3.5e-4 0.007,-3.5e-4 0.75636,0.002 1.51483,-0.0547 2.27225,-0.0857 0.17533,-0.007 0.34678,-0.0847 0.5274,-0.0409 0.23001,0.0296 0.37147,-0.20955 0.59655,-0.1965 0.0907,-0.048 0.17956,-0.10054 0.26987,-0.15098 0.0889,-0.0498 0.17851,-0.097 0.27305,-0.13547 0.0674,-0.0279 0.13723,-0.0515 0.21026,-0.0677 v -3.6e-4 c 0.16792,-0.121 0.33655,-0.24271 0.50447,-0.36442 0.1277,-0.0977 0.25506,-0.19544 0.38241,-0.29315 0,-3.6e-4 0,-3.6e-4 0,-3.6e-4 0.0268,-0.0205 0.0533,-0.0413 0.0794,-0.0621 0.15346,-0.12911 0.30621,-0.25823 0.45932,-0.38735 3.5e-4,-3.5e-4 3.5e-4,-3.5e-4 3.5e-4,-3.5e-4 0.0261,-0.0208 0.0522,-0.0409 0.0783,-0.0614 0.0434,-0.0519 0.0896,-0.0995 0.1397,-0.14288 0.0226,-0.0198 0.0469,-0.0377 0.072,-0.0543 0.048,-0.0324 0.0991,-0.0607 0.15804,-0.078 0.0272,-0.0392 0.0575,-0.0737 0.09,-0.10583 0.0459,-0.0459 0.097,-0.0854 0.15381,-0.11712 0.0353,-0.0198 0.073,-0.0367 0.11289,-0.0508 0.0222,-0.0275 0.0473,-0.0529 0.0709,-0.079 0.11536,-0.12876 0.24236,-0.24412 0.37818,-0.3496 0.0596,-0.0459 0.1203,-0.0907 0.18239,-0.13441 0,0 0,0 3.5e-4,-3.5e-4 0.13794,-0.13935 0.27587,-0.27834 0.41381,-0.41769 0.10124,-0.12771 0.20214,-0.25612 0.30303,-0.38382 v -3.5e-4 c 0.14111,-0.26212 0.28152,-0.52388 0.42228,-0.78599 v 0 c 0.0145,-0.0416 0.0293,-0.0833 0.0437,-0.12453 0.0342,-0.0977 0.0684,-0.19615 0.10266,-0.29387 0.025,-0.072 0.0511,-0.14358 0.0748,-0.21625 0.37747,-1.13595 0.65581,-2.28635 0.8008,-3.45546 0.03,-0.24306 0.0543,-0.48683 0.0727,-0.73131 0.0423,-0.57008 0.0504,-1.1444 0.0222,-1.72401"
       style="fill:#c8c7ee;fill-opacity:1;fill-rule:nonzero;stroke:none;stroke-width:0.0352778"
       id="path891-8" />
    <path
       d="m 404.34257,165.83892 c 0,0 0,0 0,-3.5e-4 0,3.5e-4 0,3.5e-4 0,3.5e-4 v 0"
       style="fill:#c8c7ee;fill-opacity:1;fill-rule:nonzero;stroke:none;stroke-width:0.0352778"
       id="path893-4" />
    <path
       d="m 408.13775,182.10339 c -0.0924,0.89288 -0.23353,1.78611 -0.49636,2.64583 -0.25788,0.84138 -0.66145,1.65876 -1.25059,2.31811 -0.58173,0.65052 -1.3268,1.11301 -2.12796,1.44568 -1.65841,0.68862 -3.56693,0.85443 -5.34317,0.71261 -1.60937,-0.12876 -3.19934,-0.53693 -4.66796,-1.21038 -1.22766,-1.02129 -2.31986,-2.19463 -3.25225,-3.48968 0.0102,-0.0102 0.0222,-0.0191 0.0317,-0.0303 0.11572,-0.13934 0.23813,-0.27234 0.36619,-0.4004 0.16051,-0.1083 0.32103,-0.2166 0.48154,-0.32455 0.20108,-0.042 0.39476,-0.14147 0.48542,-0.32527 3.6e-4,-7e-4 7.1e-4,-0.002 0.001,-0.002 0.12595,-0.085 0.25224,-0.16968 0.37818,-0.25505 0.55774,1.42839 1.51624,2.72662 2.85574,3.50343 0.17815,0.10301 0.36124,0.19403 0.54857,0.27376 0.0349,0.0215 0.0691,0.0441 0.10407,0.0653 0.0483,0.0286 0.11324,0.0427 0.1852,0.0469 1.27283,0.45015 2.7044,0.38382 3.95041,-0.16686 0.72602,-0.32068 1.38359,-0.80892 1.84256,-1.46191 0.47907,-0.68263 0.67592,-1.5046 0.64735,-2.3301 -0.061,-1.76213 -1.149,-3.37679 -2.36432,-4.57659 -1.2827,-1.26718 -2.79118,-2.31845 -3.89008,-3.76449 -1.11372,-1.46614 -1.57798,-3.30447 -1.59315,-5.12621 -0.007,-0.92675 0.0907,-1.85385 0.26035,-2.76473 0.18098,-0.97049 0.43463,-1.94627 0.87948,-2.8328 0.69038,-1.37689 1.84503,-2.42217 3.24238,-2.98203 0.62971,-0.25224 1.2894,-0.39864 2.02177,-0.43427 0.65969,-0.0325 1.41287,0.0667 2.07892,0.27658 0.36195,0.11394 0.7373,0.26352 1.05128,0.47871 0.38876,0.26741 0.53445,0.65899 0.6417,1.10102 0.25365,1.04811 0.43921,2.1142 0.56444,3.18488 0.0201,0.17639 0.0363,0.35313 0.0533,0.52987 -0.0448,0.0226 -0.0903,0.0441 -0.13088,0.073 -0.16933,0.1203 -0.16757,0.2921 0.0787,0.29422 0.0183,3.5e-4 0.0275,-0.001 0.0328,-0.004 0.002,0.005 0.007,0.0116 0.0198,0.0229 0.0162,0.0148 0.0272,0.0265 0.0388,0.0392 0.0148,0.1838 0.0282,0.3683 0.0395,0.5521 -0.0183,0.0339 -0.0356,0.0624 -0.0353,0.0459 3.6e-4,-0.0102 -0.004,-0.005 -0.009,0.007 -0.33372,0.018 -0.66146,0.0335 -0.98037,0.0875 -0.21942,-1.02553 -0.43815,-2.05035 -0.65722,-3.07552 -0.15558,-0.72813 -0.33267,-1.64571 -1.15253,-1.88701 -0.0367,-0.0106 -0.0751,-0.0173 -0.11465,-0.0212 -0.0374,-0.0332 -0.0836,-0.061 -0.14146,-0.0794 -1.86972,-0.59231 -3.64561,0.98602 -4.09787,2.71251 -0.42122,1.60726 0.0773,3.28119 1.12501,4.5332 1.80199,2.15335 4.6161,3.10162 6.52745,5.13256 0.53657,0.57044 0.98142,1.2185 1.27776,1.94557 0.34643,0.84878 0.51752,1.76142 0.58137,2.67335 0.066,0.9458 0.01,1.90147 -0.0875,2.84339 z m 0.94439,-5.04931 c -0.4565,-1.62595 -1.45627,-2.8889 -2.75237,-3.93382 -1.13701,-0.91617 -2.40877,-1.64395 -3.59234,-2.49591 -1.07456,-0.77329 -2.14171,-1.70039 -2.65112,-2.95734 -0.34996,-0.86183 -0.43039,-1.79775 -0.21167,-2.70404 0.18662,-0.77505 0.69109,-1.56104 1.41534,-1.89512 0.1203,-0.0557 0.25153,-0.0942 0.35737,-0.10478 0.16439,-0.0162 0.30303,7.1e-4 0.47942,0.0568 0.10372,0.0328 0.21978,0.0402 0.33444,0.025 0.43003,0.39829 0.52034,1.20404 0.629,1.71415 l 0.6664,3.11715 c 0.0293,0.13723 0.33302,0.1023 0.41098,0.0935 0.20426,-0.0233 0.40323,-0.0868 0.58173,-0.18909 0.008,0 0.0131,-3.5e-4 0.0226,-3.5e-4 0.0808,-3.6e-4 0.16263,-0.008 0.24342,-0.0106 0.19861,-0.005 0.3944,-0.0127 0.59126,-0.0388 0.30726,-0.0409 0.63076,-0.12312 0.9144,-0.26882 0.0226,-0.004 0.043,-0.008 0.0586,-0.0127 0.22119,-0.0593 0.51752,-0.20426 0.502,-0.46955 -10e-4,-0.0205 -0.003,-0.0413 -0.005,-0.0621 0.0762,-0.20602 0.0628,-0.43109 -0.0438,-0.60007 -0.0699,-0.85725 -0.1771,-1.71062 -0.32738,-2.558 -0.0963,-0.54292 -0.20602,-1.08514 -0.33831,-1.62066 -0.10548,-0.42651 -0.26565,-0.84243 -0.60925,-1.13382 -0.61419,-0.52035 -1.48343,-0.79093 -2.26307,-0.93839 -0.78634,-0.14852 -1.59491,-0.1711 -2.38901,-0.0748 -1.60443,0.19438 -3.15913,0.85054 -4.38715,1.90535 -1.40193,1.20368 -2.13324,2.90618 -2.51389,4.68136 -0.38735,1.80516 -0.50976,3.72358 -0.10548,5.53685 0.19861,0.89289 0.5394,1.74696 1.02129,2.52519 0.47378,0.76482 1.08797,1.43016 1.7399,2.04576 1.29999,1.22802 2.80141,2.29058 3.80365,3.798 0.90241,1.35714 1.49895,3.2505 0.57891,4.75263 -0.36301,0.59196 -0.90946,0.99342 -1.51448,1.23013 -0.2607,0.10195 -0.56867,0.16828 -0.90417,0.19897 -0.28998,0.0265 -0.64805,0.0127 -0.97049,-0.0497 -0.25752,-0.0494 -0.50588,-0.127 -0.74612,-0.22402 -1.36949,-0.9592 -2.41547,-2.35161 -2.97604,-3.92465 -0.0642,-0.17886 -0.30303,-0.22437 -0.54962,-0.18838 0.042,-0.0328 0.084,-0.0649 0.12629,-0.0974 0.0632,-0.0487 0.14358,-0.15064 0.11959,-0.23954 -0.0205,-0.0773 -0.1016,-0.11218 -0.17004,-0.13229 -0.242,-0.0702 -0.5655,-0.001 -0.7747,0.13194 -0.50905,0.3242 -0.98354,0.69109 -1.42945,1.0915 -0.15628,0.0342 -0.30586,0.0868 -0.44874,0.15345 0.0247,0.0416 0.0483,0.084 0.0727,0.12559 -0.19367,0.14817 -0.37923,0.30692 -0.55421,0.47661 -0.10583,0.0709 -0.21131,0.14216 -0.31679,0.21343 -0.1009,0.0148 -0.20109,0.042 -0.28963,0.0794 -0.17181,0.0723 -0.45932,0.24765 -0.31433,0.46143 1.00259,1.47955 2.21086,2.80988 3.58775,3.95006 0.042,0.0349 0.0903,0.0578 0.14217,0.0741 0.008,0.0367 0.0116,0.073 0.0159,0.10936 0.66957,0.31327 1.36243,0.5782 2.07116,0.7867 1.94204,0.57255 4.00579,0.76094 6.01803,0.52563 1.95475,-0.2286 3.96911,-0.81526 5.46312,-2.15194 1.43792,-1.28658 2.0507,-3.16583 2.32022,-5.02497 0.27235,-1.88242 0.37959,-3.90877 -0.13935,-5.75839"
       style="fill:#7b79cd;fill-opacity:1;fill-rule:nonzero;stroke:none;stroke-width:0.0352778"
       id="path895-8" />
    <path
       d="m 417.84983,175.29338 c -0.003,-0.006 -0.005,-0.0127 -0.008,-0.0194 -0.29386,-0.59196 -0.13194,-1.22907 -0.17745,-1.84608 -0.002,-0.0893 -0.004,-0.17851 -0.005,-0.26776 -3.5e-4,-3.5e-4 -3.5e-4,-3.5e-4 -3.5e-4,-7.1e-4 -0.16086,-0.52281 -0.0554,-1.06045 -0.085,-1.59032 -0.003,-0.09 -0.005,-0.17992 -0.007,-0.26917 v -3.5e-4 0 c -0.0286,-0.0656 -0.0568,-0.13088 -0.0847,-0.1965 v 0 c -7.1e-4,-1.05339 -10e-4,-2.10749 -0.002,-3.16089 -7e-4,-0.0737 -10e-4,-0.14711 -10e-4,-0.22048 -0.002,-0.38876 -0.005,-0.77753 -0.007,-1.16629 0,-3.5e-4 0,-3.5e-4 0,-3.5e-4 -0.0286,-0.0589 -0.0476,-0.11889 -0.0624,-0.17886 -0.0582,-0.23283 -0.0314,-0.47272 -0.0159,-0.70838 0.004,-0.0508 0.006,-0.10124 0.007,-0.15134 0.004,-0.14746 7e-4,-0.29527 -0.003,-0.44309 -0.0134,-0.50729 -0.0487,-1.01564 0.0236,-1.52012 0.013,-0.0907 0.0296,-0.18168 0.0508,-0.27234 0,0 0,0 0,3.5e-4 0.004,-0.0656 0.007,-0.13123 0.0106,-0.19685 0.004,-0.0624 0.007,-0.12523 0.0102,-0.18768 0.0282,0.001 0.0565,0.002 0.0847,0.004 0,0.0123 0,0.0247 0,0.037 0,0.17674 0,0.35313 0,0.52952 3.5e-4,3.5e-4 3.5e-4,7e-4 3.5e-4,7e-4 0.16228,0.30269 0.0642,0.62724 0.0783,0.94157 v 0 c 0,3.5e-4 0,0 0,3.5e-4 10e-4,0.40181 0.003,0.80398 0.005,1.20579 0.003,0.1831 0.006,0.36548 0.008,0.54822 3.6e-4,3.5e-4 3.6e-4,3.5e-4 3.6e-4,7.1e-4 0.16756,0.45967 0.0631,0.93556 0.085,1.40405 0.002,0.36865 0.005,0.73766 0.007,1.10631 0,0 0,0 0,3.6e-4 0.17498,0.61348 0.0395,1.24389 0.0995,1.86407 0.12136,0.13018 0.079,0.2921 0.0794,0.44203 0.002,1.82175 0.001,3.64349 7e-4,5.46524 0,0.0166 3.6e-4,0.0328 3.6e-4,0.049 h -3.6e-4 c -0.018,3.6e-4 -0.0356,3.6e-4 -0.0533,7.1e-4 -0.0127,0 -0.0254,0 -0.0377,0 -0.16122,-0.39158 -0.11607,-0.78387 -0.007,-1.17581 0.002,-0.009 0.004,-0.018 0.007,-0.0272 z m -1.85632,-11.6325 c 0.14393,0.13547 0.0741,0.30903 0.0833,0.46849 v 0 c -0.14253,-0.13547 -0.0691,-0.31009 -0.0833,-0.46849 z m 0.0949,0.92851 c 0.0296,-0.0293 0.0589,-0.0589 0.0885,-0.0882 3.6e-4,-7.1e-4 10e-4,-0.001 10e-4,-0.002 -10e-4,-0.0113 -10e-4,-0.0226 -0.002,-0.0342 -0.007,-0.0893 -0.008,-0.17886 -0.007,-0.26847 0.006,-0.32314 0.0451,-0.6484 -0.0226,-0.96661 -0.0155,-0.0727 -0.0349,-0.14464 -0.0635,-0.21625 v 0 c -0.006,-0.13794 -0.005,-0.27164 0.18556,-0.2794 v 0 c 0,0.58914 0,1.17792 0,1.76706 v 0 c -0.0515,0.46249 0.11324,0.93874 -0.0914,1.391 v 0 c 0.0307,-0.4385 -0.0399,-0.86995 -0.0893,-1.30316 z m 0.93309,24.64224 c -0.17709,-0.0311 -0.25858,-0.0804 -0.23565,-0.30022 0.066,-0.64029 0.0938,-1.28446 0.13652,-1.92722 v 0 c 0,0 0,0 0,3.5e-4 -0.003,-1.85773 -0.006,-3.71581 -0.01,-5.57354 -0.0282,-0.0501 -0.0367,-0.10195 -0.0381,-0.15381 -0.11536,-0.52034 -0.0106,-1.05163 -0.0462,-1.57585 -0.012,-0.16828 7e-4,-0.33797 0.002,-0.50695 v 0 0 c -0.002,-0.12382 -0.004,-0.248 -0.006,-0.37147 0.006,-0.0751 0.0183,-0.14605 0.0942,-0.18556 v 0 c -0.001,0.18591 -0.002,0.37147 -0.003,0.55703 h -3.5e-4 3.5e-4 c 0.03,0.43604 0.0603,0.87136 0.0907,1.3074 -0.15452,0.16157 -0.0639,0.35913 -0.0815,0.54116 -3.5e-4,0.004 -3.5e-4,0.008 -7e-4,0.012 l 0.0406,-7e-4 c 0,0 0.0402,3.5e-4 0.0406,3.5e-4 v 0 c 0.002,0.46955 0.16051,0.92886 0.0903,1.403 0.11641,2.12372 0.30057,4.24427 0.29915,6.37399 0,0.27587 -0.0353,0.45861 -0.37324,0.40005 z m 4.72617,-27.73822 c -0.0444,-0.1845 -0.14676,-0.33125 -0.34502,-0.3122 -1.16946,0.11077 -2.34279,0.15416 -3.51578,0.19155 -1.60726,0.0504 -3.21557,0.12242 -4.82212,0.11184 -0.6156,-0.004 -1.23613,-0.0219 -1.85385,-0.0444 -0.18062,-0.007 -0.34537,0.003 -0.3877,0.23036 -0.0988,0.53305 0.22684,0.93874 0.77682,0.97014 1.01776,0.0582 2.03517,0.127 3.05364,0.17356 0.24589,0.0113 0.31962,0.1016 0.31785,0.33479 -0.005,0.6029 0.0515,1.20615 0.0632,1.80728 0.042,2.21298 0.11324,4.42419 0.18768,6.63646 0.0677,2.01083 0.0744,4.02413 0.11077,6.03638 0.0367,2.02812 0.0765,4.05553 0.11606,6.0833 10e-4,0.0928 0.0152,0.18521 0.0212,0.27728 0.0808,1.28411 0.0706,2.56999 0.0141,3.85339 -0.0201,0.46567 -0.0564,0.92181 0.0476,1.37901 3.5e-4,0 3.5e-4,0 3.5e-4,0 0.0762,0.0536 0.12771,0.11854 0.15557,0.19685 0.0169,0.0459 0.0275,0.0949 0.025,0.15205 -0.008,0.16334 0.0219,0.28681 0.079,0.37994 0.007,0.0116 0.0145,0.0229 0.0229,0.0335 0.11148,0.14675 0.30763,0.20214 0.56127,0.19579 0.42969,-0.0106 0.85902,-0.018 1.2887,-0.0261 0.06,-0.001 0.11995,-0.002 0.17992,-0.004 0.33443,-0.19544 0.4699,-0.49459 0.46567,-0.87277 -0.003,-0.25788 0.005,-0.51576 0.008,-0.77364 0.20779,-0.85937 0.23072,-1.74273 0.254,-2.61444 0.0801,-2.97145 0.0208,-5.94466 0.0878,-8.91716 0.0748,-3.31188 0.0688,-6.62693 -0.0702,-9.93917 -0.0455,-1.08196 -0.1083,-2.16288 -0.0991,-3.24661 7e-4,-0.0921 -0.0152,-0.18486 -0.0303,-0.27622 -0.11536,-0.69462 -0.11571,-0.69462 0.51893,-0.8636 h 3.6e-4 c 0.68086,0.0113 1.36031,0.0258 2.03658,-0.0917 0.57362,-0.0995 0.86537,-0.50729 0.73096,-1.06151"
       style="fill:#e7c0a8;fill-opacity:1;fill-rule:nonzero;stroke:none;stroke-width:0.0352778"
       id="path439" />
    <path
       d="m 422.94449,165.40893 c 0,0 0,-3.5e-4 0,-7.1e-4 h -3.5e-4 c 0,3.6e-4 3.5e-4,7.1e-4 3.5e-4,7.1e-4"
       style="fill:#e7c0a8;fill-opacity:1;fill-rule:nonzero;stroke:none;stroke-width:0.0352778"
       id="path441" />
    <path
       d="m 451.98248,186.39871 c 0.85902,-0.31602 1.62858,-0.78206 2.32274,-1.33481 0.13985,0.032 0.27696,0.0582 0.40314,0.0777 -0.0476,0.0363 -0.0946,0.0739 -0.1461,0.10741 -0.79963,0.5219 -1.67115,0.90004 -2.57978,1.14966 z m -4.44705,0.25626 c 0.20196,-0.0742 0.3922,-0.16015 0.57346,-0.2504 0.021,0.0199 0.0437,0.0399 0.0664,0.0593 0.0261,0.0824 0.0742,0.17501 0.13947,0.27266 -0.26057,-0.0195 -0.52073,-0.0453 -0.77934,-0.0816 z m -0.10276,-1.23832 c -0.0187,0.12071 -0.0504,0.23907 -0.0922,0.35508 -0.0668,-0.0578 -0.1258,-0.12227 -0.17306,-0.19257 -0.0496,-0.0742 -0.0867,-0.15236 -0.11992,-0.23205 -0.0297,-0.12734 -0.0547,-0.25509 -0.0746,-0.38283 0.15235,0.14766 0.30196,0.2965 0.46095,0.43987 -3.8e-4,0.003 -3.8e-4,0.008 -10e-4,0.0125 z m -3.1884,0.27931 c 0.19454,-0.0695 0.38322,-0.15627 0.54416,-0.25001 0.01,0.0547 0.0179,0.10973 0.0286,0.16446 0.0227,0.12304 0.0555,0.24727 0.0977,0.36797 -0.22735,-0.0871 -0.4504,-0.18203 -0.67034,-0.28242 z m -2.34968,-20.14414 c -0.30783,0.27423 -0.60705,0.55471 -0.89417,0.84339 0.85941,-1.50748 1.97937,-2.91222 3.53372,-3.96656 0.68988,-0.46759 1.48561,-0.8555 2.33057,-1.13871 -1.7993,0.73479 -3.27279,1.79772 -4.30837,3.22903 -0.24298,0.33555 -0.46252,0.6801 -0.66175,1.03285 z m -1.00199,17.69053 c -0.23595,-0.2719 -0.4508,-0.55081 -0.65081,-0.83363 0.10121,-0.0309 0.19141,-0.0691 0.27228,-0.11172 0.12149,0.20352 0.24102,0.40783 0.37071,0.60861 0.0821,0.12735 0.24963,0.20509 0.45472,0.24298 0.0312,0.0719 0.059,0.14415 0.0906,0.21524 0.10786,0.2422 0.21759,0.49768 0.3383,0.75237 -0.31447,-0.27305 -0.60823,-0.56447 -0.87581,-0.87385 z m 6.74088,-20.1543 c -0.13242,1.48405 -0.2379,2.96965 -0.32071,4.45642 -0.17071,-0.23321 -0.50119,-0.42228 -0.77659,-0.54689 0.1625,-0.86058 0.3504,-1.71803 0.60197,-2.56065 0.13555,-0.45275 0.29923,-0.90628 0.49533,-1.34888 z m 2.18017,-1.49731 c 0.0934,0.0199 0.18282,0.0191 0.26289,-0.009 0.0383,-0.0136 0.0785,-0.0227 0.1172,-0.036 0.13672,0.18477 0.31212,0.35196 0.50315,0.46408 0.0261,0.17618 0.055,0.35158 0.0824,0.52736 -0.17305,-0.22813 -0.41095,-0.44103 -0.64299,-0.59103 -0.045,-0.0289 -0.19259,-0.10974 -0.34063,-0.16173 0.006,-0.0644 0.0117,-0.12891 0.0179,-0.19337 z m -3.94039,1.47818 c -0.26486,0.0383 -0.51603,0.10431 -0.69455,0.18594 0.36211,-0.39611 0.77111,-0.75941 1.23481,-1.05199 -0.20314,0.27774 -0.37737,0.56955 -0.54026,0.86605 z m 1.18207,19.85505 c 0.0476,-0.20392 0.10387,-0.40783 0.17502,-0.61017 0.0425,-0.1215 -0.1922,-0.26877 -0.51917,-0.3965 0.0774,-0.30119 0.15586,-0.60159 0.22892,-0.90317 0.0972,0.0625 0.20156,0.11603 0.30821,0.15978 0.0312,0.64299 0.0672,1.28559 0.1063,1.92858 -0.0984,-0.0617 -0.19805,-0.12148 -0.29923,-0.17852 z m 4.44822,-15.76154 c 0.008,0.0808 0.0121,0.16173 0.0192,0.2422 -0.002,-0.003 -0.004,-0.007 -0.007,-0.01 -0.10431,-0.28673 -0.21328,-0.57268 -0.32266,-0.85784 -0.01,-0.0672 -0.025,-0.13321 -0.0343,-0.20002 0.11524,0.27502 0.22697,0.5512 0.34416,0.82542 z m 1.19302,-4.94824 c 0.009,0.24455 0.0199,0.48909 0.0305,0.73363 -0.16679,0.17891 -0.22851,0.38516 -0.0933,0.59221 0.0437,0.0676 0.0832,0.13672 0.12656,0.20469 0.004,0.125 0.009,0.25001 0.0153,0.37502 -0.12813,-0.004 -0.22306,0.0524 -0.21212,0.22695 0.002,0.034 0.002,0.0683 0.006,0.10232 -0.0989,-0.53987 -0.20351,-1.07894 -0.32187,-1.61608 -0.0543,-0.24571 -0.2133,-0.48321 -0.41409,-0.69065 0.29142,0.007 0.57971,0.0309 0.8641,0.0719 z m 4.71034,2.55518 c 0.12422,0.14414 0.23907,0.2922 0.34922,0.4422 0.0344,0.17579 0.0547,0.3551 0.0813,0.53283 -0.0703,-0.10541 -0.15117,-0.20664 -0.2293,-0.3086 -0.21486,-0.47151 -0.49494,-0.91839 -0.8473,-1.32348 0.23165,0.20781 0.44845,0.42735 0.64612,0.65705 z m 2.09344,8.15422 c -0.0145,1.30317 -0.0938,2.62002 -0.28361,3.91773 -0.0918,-0.0352 -0.19102,-0.0683 -0.29571,-0.0997 0.27853,-1.26177 0.47385,-2.53565 0.57932,-3.81812 z m -0.334,-7.92374 c -0.0989,-0.14649 -0.2043,-0.29103 -0.3133,-0.43478 -0.0457,-0.11251 -0.0847,-0.22736 -0.13633,-0.3383 -0.75941,-1.63287 -2.23485,-3.07628 -4.1361,-3.86655 -0.68596,-0.28478 -1.40981,-0.48401 -2.14656,-0.59065 -2.61299,-1.12074 -5.7889,-0.75277 -8.2304,0.5215 -2.6208,1.36763 -4.2736,3.70522 -5.38223,6.03618 -2.39931,5.04511 -3.27708,10.8426 -0.27229,15.81192 7.9e-4,0.002 10e-4,0.004 0.002,0.007 0.01,0.025 0.0286,0.0465 0.0442,0.0695 0.10464,0.16993 0.20157,0.34181 0.31525,0.50979 1.48833,2.20048 3.79935,4.10523 6.65962,5.0416 2.78097,0.91097 5.9639,1.00785 8.68433,-0.10819 2.71494,-1.11371 4.51227,-3.32044 5.51075,-5.6256 1.19653,-2.76183 1.34731,-5.8182 1.40748,-8.72573 0.059,-2.84582 -0.30353,-5.7807 -2.00672,-8.30696"
       style="fill:#d8673f;fill-opacity:1;fill-rule:nonzero;stroke:none;stroke-width:0.039064"
       id="path677-5" />
    <path
       d="m 458.26045,171.85011 c -0.11329,-0.17774 -0.41017,-0.21094 -0.59573,-0.2086 -2.59892,0.0325 -5.1955,0.15586 -7.78584,0.36447 0.73011,-1.07153 1.46959,-2.13681 2.22821,-3.1884 0.79222,-1.09809 1.60006,-2.18486 2.42198,-3.26068 0.3125,-0.409 -0.39338,-0.99106 -0.7055,-0.58167 -1.57545,2.06103 -3.09114,4.16618 -4.55448,6.30768 -0.0164,-1.4782 -0.0199,-2.95638 -0.0111,-4.43456 0.01,-1.67232 0.0368,-3.34388 0.0785,-5.01542 0.006,-0.23321 -0.31134,-0.30588 -0.48518,-0.26407 -0.23594,0.0567 -0.38633,0.24141 -0.39259,0.47775 -0.0816,3.23489 -0.10121,6.47134 -0.0621,9.70701 -0.53049,-0.81096 -1.06293,-1.62155 -1.60124,-2.42744 -0.80666,-1.20824 -1.62154,-2.41063 -2.44423,-3.60834 -0.12657,-0.18477 -0.35782,-0.23907 -0.57189,-0.1875 -0.13634,0.0324 -0.42893,0.20782 -0.3008,0.39415 1.42584,2.07626 2.82511,4.17125 4.20329,6.27993 -1.43248,0.14298 -2.86223,0.30978 -4.28845,0.50705 -1.34146,0.18555 -2.67901,0.3969 -4.01344,0.62854 -0.1918,0.0332 -0.19336,0.21134 -0.0664,0.32032 0.16837,0.14493 0.42502,0.16799 0.63323,0.13165 2.67041,-0.46369 5.35802,-0.82738 8.055,-1.09847 0.0516,0.0789 0.10309,0.15703 0.1543,0.23555 -0.89183,1.3434 -1.76335,2.7001 -2.61025,4.07203 -0.72933,1.18247 -1.44146,2.37509 -2.13837,3.57709 -0.11798,0.20431 0.0816,0.48205 0.25978,0.56955 0.2211,0.10818 0.43556,0.0352 0.55393,-0.16953 1.34028,-2.3122 2.74932,-4.58495 4.215,-6.8194 0.0402,1.88913 0.0984,3.77826 0.1797,5.66623 0.0723,1.67076 0.16055,3.34036 0.26407,5.00918 0.0317,0.50548 0.90707,0.25313 0.87777,-0.2133 -0.20392,-3.28411 -0.34455,-6.57135 -0.42502,-9.86014 0.87816,1.36724 1.75045,2.73839 2.60674,4.1193 0.76566,1.23481 1.5231,2.47392 2.27274,3.7185 0.19064,0.31681 1.04145,0.23751 0.87269,-0.20626 -0.0808,-0.2129 -0.16172,-0.42579 -0.24259,-0.6387 -0.0402,-0.10541 -0.14297,-0.16679 -0.26485,-0.19258 -1.71764,-2.83371 -3.47904,-5.64084 -5.27988,-8.4222 -0.001,-0.0914 -0.002,-0.18282 -0.004,-0.27423 0.0708,-0.10387 0.14219,-0.20743 0.21289,-0.31172 1.50552,-0.13127 3.01379,-0.23557 4.52322,-0.30705 1.33442,-0.0633 2.67003,-0.10232 4.00601,-0.11875 0.15743,-0.002 0.32931,-0.1133 0.22501,-0.27697"
       style="fill:#ffffff;fill-opacity:1;fill-rule:nonzero;stroke:none;stroke-width:0.039064"
       id="path679-9" />
    <path
       d="m 474.3265,172.63621 c 0.0202,0.45313 -0.16324,0.86802 -0.25886,1.29815 -0.0452,0.20343 -0.094,0.42902 -0.27603,0.57674 0.14605,0.0513 0.17792,-0.0862 0.21201,-0.17404 0.19539,-0.50164 0.3481,-1.01574 0.3808,-1.55785 0.006,-0.0975 -0.0191,-0.2012 0.0602,-0.28324 -0.0834,0.009 -0.12194,0.0584 -0.11806,0.14024"
       style="fill:#617e83;fill-opacity:1;fill-rule:nonzero;stroke:none;stroke-width:0.0277146"
       id="path477-6" />
    <path
       d="m 463.81196,188.21154 c 0.47171,-0.10144 0.96137,-0.0962 1.426,-0.23391 0.11022,-0.0324 0.28366,0.003 0.29883,-0.18375 -0.11067,0.089 -0.25193,0.082 -0.37914,0.11945 -0.44202,0.12943 -0.92378,0.079 -1.34569,0.29821"
       style="fill:#617e83;fill-opacity:1;fill-rule:nonzero;stroke:none;stroke-width:0.0277146"
       id="path479-2" />
    <path
       d="m 474.39135,171.39127 c 0.005,0.28796 -0.0745,0.5845 0.0532,0.86553 0,-0.51799 0,-1.0357 0,-1.55368 -0.12444,0.22061 -0.0571,0.46006 -0.0532,0.68815"
       style="fill:#617e83;fill-opacity:1;fill-rule:nonzero;stroke:none;stroke-width:0.0277146"
       id="path481-1" />
    <path
       d="m 472.984,171.93254 c -0.0216,0.32592 -0.0834,0.64879 -0.12028,0.97389 -0.0931,0.82007 -0.54293,1.47857 -1.0368,2.08247 -0.70534,0.86276 -1.51599,1.61992 -2.53968,2.12488 -0.56383,0.27797 -1.15872,0.35004 -1.7601,0.38357 -0.42601,0.0236 -0.85167,0.0577 -1.2777,0.0806 -0.22407,0.0122 -0.28882,-0.0601 -0.28743,-0.28435 0.009,-1.53289 0.005,-3.06579 0.005,-4.59896 -0.004,0 -0.009,0 -0.013,0 0,-1.48301 0.0312,-2.9674 -0.0132,-4.44902 -0.0214,-0.72336 0.0368,-1.45253 -0.0859,-2.17228 -0.0281,-0.16628 0.0346,-0.23862 0.2095,-0.2849 0.89402,-0.23697 1.79094,-0.14661 2.69383,-0.0829 0.90707,0.0637 1.60769,0.51217 2.26536,1.0817 0.70561,0.6111 1.35691,1.26296 1.67175,2.16922 0.33534,0.96641 0.3553,1.9694 0.28906,2.976 z m 1.30591,0.30652 c 0.0923,-1.20309 0.0119,-2.38484 -0.39271,-3.52669 -0.59116,-1.66869 -1.85882,-2.73903 -3.30109,-3.63421 -0.77407,-0.48057 -1.67643,-0.44094 -2.54229,-0.52215 -0.96621,-0.0909 -1.8926,0.14385 -2.81876,0.37859 -0.52647,0.1333 -1.08456,0.15492 -1.55191,0.48168 -0.19974,0.13968 -0.32185,0.31788 -0.34785,0.56094 -0.135,1.26517 -0.16316,2.53672 -0.22756,3.80605 -0.0639,1.26157 -0.0339,2.52674 -0.0518,3.78969 -0.0392,2.76758 -0.0138,5.53572 -0.013,8.30358 0,0.12859 0.0192,0.25719 0.028,0.38578 0.0514,0.7738 0.0736,1.55451 0.0482,2.32332 -0.0333,1.00687 0.0267,2.00681 0.0409,3.00953 0.005,0.31983 0.29805,0.59448 0.56652,0.52131 0.42243,-0.11557 0.86068,-0.13968 1.27964,-0.26163 0.17723,-0.0216 0.35422,-0.0432 0.53124,-0.0648 0,0.002 -2.3e-4,0.002 -5.3e-4,0.004 0.002,-0.002 0.004,-0.003 0.006,-0.005 v 0 c 0.43715,-0.13829 0.793,-0.34199 0.71809,-0.89241 0.1756,-0.39964 0.13913,-0.82284 0.0996,-1.2344 -0.10047,-1.04706 -0.14994,-2.09717 -0.2057,-3.14672 -0.0583,-1.10027 -0.075,-2.20248 -0.11421,-3.30385 -0.005,-0.12361 0.0335,-0.20011 0.15969,-0.19568 0.48877,0.0169 0.9648,-0.1067 1.45122,-0.12554 0.54584,-0.0211 1.08422,-0.0978 1.60767,-0.26856 1.07679,-0.35142 1.92791,-1.03902 2.74216,-1.79424 0.7228,-0.67042 1.27377,-1.4661 1.77457,-2.30336 0.005,-0.004 0.01,-0.009 0.0152,-0.0133 -0.003,-7.8e-4 -0.005,-0.002 -0.009,-0.003 0.28961,-0.72889 0.44676,-1.48495 0.50717,-2.26871"
       style="fill:#617e83;fill-opacity:1;fill-rule:nonzero;stroke:none;stroke-width:0.0277146"
       id="path483-7" />
    <path
       d="m 474.38774,158.80662 -0.0102,-0.0141 c 0.002,0.006 0.005,0.0114 0.007,0.0169 7.9e-4,-7.8e-4 0.002,-0.002 0.003,-0.003"
       style="fill:#c67379;fill-opacity:1;fill-rule:nonzero;stroke:none;stroke-width:0.0277146"
       id="path531-85" />
    <path
       d="m 472.19026,158.86898 -0.0108,-0.0152 c 0.002,0.006 0.005,0.0108 0.008,0.0163 7.9e-4,-2.8e-4 0.002,-5.5e-4 0.002,-7.9e-4"
       style="fill:#c67379;fill-opacity:1;fill-rule:nonzero;stroke:none;stroke-width:0.0277146"
       id="path533-7" />
    <path
       d="m 468.33421,158.87119 c 0.0295,0.002 0.0593,0.003 0.0888,0.005 -5.3e-4,-0.002 -7.9e-4,-0.002 -0.002,-0.004 -0.0289,-2.8e-4 -0.0581,-5.5e-4 -0.0872,-7.9e-4"
       style="fill:#c67379;fill-opacity:1;fill-rule:nonzero;stroke:none;stroke-width:0.0277146"
       id="path535-4" />
    <path
       d="m 478.49613,186.65899 c -0.45276,-0.15343 -0.24478,-0.43896 -0.23821,-0.66008 0.10219,-3.52184 0.22244,-7.04336 0.33777,-10.56489 -0.0628,-0.002 -0.12585,-0.005 -0.1886,-0.007 0.11335,-3.44496 0.21882,-6.89091 0.35484,-10.33521 0.01,-0.26055 -0.30259,-0.67717 0.4636,-0.74025 0.76687,-0.0628 0.6936,0.37784 0.79578,0.67059 0.13504,0.38639 0.20897,0.79315 0.2185,1.19103 0.16,6.57058 -0.0279,13.13555 -0.0306,19.70349 0,0.74157 -0.76851,1.06158 -1.71312,0.74157 z m 9.61107,0.13997 c 0.0703,-0.41465 -0.26712,-0.4383 -0.68669,-0.40512 -1.66876,0.13209 -3.37005,0.008 -5.02206,0.27271 -0.58878,0.0943 -0.75898,-0.0651 -0.72579,-0.50435 0.0602,-0.80267 0.0562,-1.60928 0.0657,-2.41426 0.0295,-2.59169 0.0539,-5.18338 0.0772,-7.77507 0.004,-0.36044 -0.025,-0.69787 0.63347,-0.78855 1.60141,-0.22079 3.21201,-0.22506 4.83017,-0.10087 0.34433,0.0266 0.82733,0.38902 0.78823,-0.22211 -0.0226,-0.36207 0.36174,-0.87857 -0.6867,-0.88185 -1.61849,-0.006 -3.23863,-0.0536 -4.83543,0.14555 -0.56217,0.07 -0.73269,-0.0105 -0.74157,-0.46525 -0.0568,-2.86735 -0.1426,-5.73437 -0.26088,-8.60107 -0.0174,-0.41924 0.16494,-0.50631 0.65811,-0.51354 1.85112,-0.0273 3.70059,-0.10547 5.55171,-0.10283 0.70673,9.3e-4 0.88711,-0.15837 0.9203,-0.67093 0.0407,-0.62066 -0.48233,-0.4866 -0.90782,-0.4912 -2.69157,-0.0292 -5.37099,0.21028 -8.07538,0.01 -2.16653,-0.16067 -2.51317,0.12945 -2.56212,1.7601 -9.3e-4,0.0503 0.002,0.10087 3.3e-4,0.15081 -0.11007,3.37038 -0.22112,6.74043 -0.33185,10.11049 -0.26515,3.84186 -0.58286,7.68275 -0.47543,11.53709 0.0234,0.83324 0.19681,1.01033 1.354,1.04746 3.34344,0.10678 6.6261,-0.41563 9.96001,-0.4084 0.80531,0.002 0.4268,-0.41892 0.47247,-0.68867"
       style="fill:#2f2c2c;fill-opacity:1;fill-rule:nonzero;stroke:none;stroke-width:0.0328561"
       id="path663" />
    <path
       d="m 504.06408,178.58154 c -0.75642,-0.93267 -1.48794,-1.87859 -2.19656,-2.83681 0.36975,0.36808 0.74049,0.73551 1.11422,1.1006 0.70397,0.96884 1.39997,1.94166 2.08669,2.91813 -0.33688,-0.39264 -0.67211,-0.78662 -1.00435,-1.18192 z m 5.66765,5.1336 c -0.11352,-0.81051 -0.22736,-1.6207 -0.34087,-2.43155 0.1384,-0.11849 0.20478,-0.2476 0.12546,-0.36177 -0.0714,-0.10356 -0.14637,-0.20512 -0.21939,-0.30769 -0.0196,-0.14138 -0.0395,-0.28277 -0.0591,-0.42417 0.0452,-1.27486 0.0784,-2.55004 0.0856,-3.82557 0.01,-1.67014 -0.0136,-3.3403 -0.0693,-5.00946 -0.0285,-0.84636 -0.065,-1.69239 -0.11019,-2.53843 -0.0319,-0.60009 -0.009,-1.24067 -0.088,-1.85105 -0.0385,-1.09562 -0.0843,-2.19125 -0.14836,-3.28621 -0.009,-0.16296 -0.15202,-0.21342 -0.34685,-0.19648 -0.0209,-0.34685 -0.0356,-0.69402 -0.0608,-1.0412 -0.0355,-0.48757 -1.54303,0.0564 -1.5437,0.47994 -9.4e-4,0.49122 -0.002,0.98277 -0.004,1.47399 -0.44243,-0.0179 -1.26722,0.3515 -1.26987,0.6678 -0.002,0.23433 -0.005,0.46899 -0.007,0.70332 -0.0402,0.0793 -0.0398,0.14803 -0.002,0.1998 l -0.0388,4.45487 c -0.0259,0.99107 -0.0328,1.98247 -0.0263,2.97387 -0.008,0.90877 -0.0159,1.8172 -0.0235,2.72629 -1.3263,-1.40861 -2.74288,-2.75847 -4.20858,-4.06884 -0.88221,-1.12882 -1.78433,-2.24635 -2.71798,-3.3463 -0.93101,-1.09728 -1.90051,-2.17066 -2.89324,-3.22911 -0.0252,-0.22172 -0.0482,-0.4431 -0.0754,-0.66448 -0.0498,-0.4046 -1.46803,-1.03257 -1.4823,-0.48227 -0.002,0.0787 -0.005,0.15733 -0.007,0.23566 -9.4e-4,-3.3e-4 -0.002,-6.6e-4 -0.002,-9.4e-4 -0.18985,-0.0756 -0.79691,-0.20976 -0.80886,0.11683 -0.009,0.25822 -0.0156,0.51612 -0.0232,0.77467 -0.6273,-0.14836 -1.2722,0.066 -1.60079,0.621 -0.19085,0.32228 0.22537,0.65187 0.56291,0.72887 0.008,0.50449 0.0189,1.00833 0.0312,1.5125 -0.086,0.004 -0.14703,0.0199 -0.14604,0.0488 0.0136,0.34717 0.0276,0.69435 0.0411,1.04152 0.002,0.0369 0.0574,0.0707 0.13608,0.0976 -0.0116,0.31 -0.0232,0.62033 -0.0345,0.93034 -0.15035,-0.0332 -0.29739,-0.009 -0.30668,0.12479 -0.13342,1.97485 -0.17558,3.95302 -0.12977,5.93018 -0.33888,2.03394 -0.43978,4.0891 -0.29076,6.13531 0.0452,0.62465 0.11418,1.2483 0.20512,1.86996 -0.0421,1.1411 -0.0847,2.28253 -0.12713,3.42363 -0.0289,0.77799 1.63531,0.79557 1.69473,0.0213 0.0196,-0.25956 0.0395,-0.51878 0.0591,-0.77766 0.38899,0.22038 0.854,0.30303 0.93697,-0.0378 0.0471,-0.19517 0.0913,-0.39066 0.13709,-0.58582 0.0199,-0.0302 0.0358,-0.0641 0.0415,-0.10787 0.006,-0.0471 0.0106,-0.0943 0.0163,-0.14139 0.008,-0.0299 0.0139,-0.0595 0.0213,-0.0889 0.41123,-0.0594 0.84337,-0.33356 0.85166,-0.70364 -9.4e-4,-1.25993 -0.002,-2.52051 -0.003,-3.78075 0.49156,-3.23478 0.72256,-6.49642 0.69601,-9.7584 1.68775,2.90584 3.64367,5.70016 5.85982,8.3448 0.88652,1.05812 1.81454,2.09102 2.77906,3.09968 0.063,0.0664 0.16661,0.0969 0.29108,0.10157 0.15135,0.16429 0.29341,0.33256 0.42716,0.50516 -9.4e-4,0.11815 -0.002,0.23698 -0.003,0.35514 -0.002,0.155 0.13741,0.20478 0.33257,0.18885 0.19782,0.3724 0.39597,0.74514 0.59378,1.11786 0.0196,0.33423 0.0391,0.66847 0.0597,1.0027 0.0169,0.28543 0.41322,0.231 0.79658,0.079 0.007,0.0804 0.0146,0.16064 0.0215,0.24096 0.0458,0.50317 1.50985,-0.074 1.54437,-0.47993 0.0163,-0.19085 0.0302,-0.3817 0.0452,-0.57288 0.0803,0.0448 0.17889,0.0693 0.2768,0.0385 0.13642,-0.0432 0.18587,-0.1769 0.12181,-0.27382 -0.11351,-0.17193 -0.22702,-0.34419 -0.34086,-0.51612 0.0172,-0.23632 0.0341,-0.4723 0.0504,-0.70829 0.11118,0.0561 0.26851,0.0737 0.36244,-0.0113 0.10256,-0.0926 0.0537,-0.231 -0.0395,-0.31896 0.23831,-0.13376 0.41223,-0.29905 0.39298,-0.43778"
       style="fill:#e2a56d;fill-opacity:1;fill-rule:nonzero;stroke:none;stroke-width:0.0331907"
       id="path467" />
    <path
       d="m 525.50445,175.93537 c -0.87806,-1.12889 -1.97168,-2.0133 -3.12067,-2.84974 -1.03364,-0.75212 -2.07645,-1.48731 -2.94817,-2.42781 -0.43144,-0.51718 -0.80504,-1.07986 -1.07456,-1.69757 -0.14464,-0.4311 -0.2286,-0.87454 -0.23848,-1.32927 0.019,-0.2099 0.0564,-0.41628 0.11818,-0.61842 0.0483,-0.0928 0.1016,-0.18274 0.15981,-0.27023 0.0755,-0.0815 0.15487,-0.1591 0.23778,-0.23283 0.0522,-0.0342 0.10548,-0.0681 0.15945,-0.0995 0.048,0.072 0.0924,0.1464 0.13159,0.22401 0.19226,0.37889 0.74718,0.61454 1.12677,0.6985 0.514,0.11289 1.17898,0.0649 1.66617,-0.13476 0.81985,-0.33655 1.66335,-1.08832 1.18286,-2.03694 -0.80257,-1.58256 -2.79964,-1.93322 -4.3942,-1.71097 -1.59632,0.22225 -3.20851,1.143 -4.07987,2.51813 -0.895,1.41252 -0.6537,3.18135 0.0229,4.62386 0.66569,1.41958 1.86055,2.60209 3.08998,3.54683 1.3021,1.00048 2.71709,1.87819 3.83893,3.08998 0.38064,0.46249 0.70449,0.9652 0.94191,1.51553 0.2025,0.60607 0.30198,1.23755 0.30798,1.87643 -0.0399,0.66886 -0.17745,1.32609 -0.40499,1.9558 -0.21378,0.48612 -0.47978,0.94438 -0.79869,1.36913 -0.20779,0.2353 -0.43251,0.45402 -0.67345,0.65546 -0.14746,0.10125 -0.29951,0.19473 -0.45544,0.28187 -0.14393,0.061 -0.29034,0.11641 -0.43885,0.1651 -0.16087,0.0335 -0.3228,0.0603 -0.48578,0.0808 -0.17216,0.003 -0.34361,-3.6e-4 -0.5147,-0.0106 -0.27199,-0.042 -0.54046,-0.0998 -0.80504,-0.17392 -0.36724,-0.13441 -0.72143,-0.29775 -1.06186,-0.49001 -0.42298,-0.28081 -0.81245,-0.60466 -1.16276,-0.9719 -0.36548,-0.44521 -0.6664,-0.93486 -0.88935,-1.4665 -0.0356,-0.11007 -0.0695,-0.22084 -0.0991,-0.33338 -0.25894,-0.9846 -1.48731,-1.2647 -2.37772,-1.08408 -0.51047,0.10336 -1.06716,0.2921 -1.43334,0.68227 -0.27234,0.28998 -0.56021,0.70591 -0.44838,1.13101 0.58173,2.2105 2.22673,3.94123 4.28343,4.88456 1.11654,0.51258 2.35267,0.79057 3.58034,0.82126 1.45909,0.0363 2.86103,-0.31291 4.16101,-0.95849 3.98216,-1.97662 5.71395,-7.60095 2.89631,-11.22363"
       style="fill:#db8377;fill-opacity:1;fill-rule:nonzero;stroke:none;stroke-width:0.0352778"
       id="path545" />
  </g>
</svg>
