<?xml version="1.0" encoding="UTF-8" standalone="no"?>
<!-- Created with Inkscape (http://www.inkscape.org/) -->

<svg
   width="273.08533mm"
   height="32.357769mm"
   viewBox="0 0 273.08533 32.357769"
   version="1.1"
   id="svg20857"
   inkscape:version="1.1.1 (1:1.1+202109281949+c3084ef5ed)"
   sodipodi:docname="rm-advent-callendar.svg"
   xmlns:inkscape="http://www.inkscape.org/namespaces/inkscape"
   xmlns:sodipodi="http://sodipodi.sourceforge.net/DTD/sodipodi-0.dtd"
   xmlns="http://www.w3.org/2000/svg"
   xmlns:svg="http://www.w3.org/2000/svg">
  <sodipodi:namedview
     id="namedview20859"
     pagecolor="#ffffff"
     bordercolor="#666666"
     borderopacity="1.0"
     inkscape:pageshadow="2"
     inkscape:pageopacity="0.0"
     inkscape:pagecheckerboard="0"
     inkscape:document-units="mm"
     showgrid="false"
     inkscape:zoom="0.71090067"
     inkscape:cx="-142.77663"
     inkscape:cy="-300.32325"
     inkscape:window-width="1920"
     inkscape:window-height="970"
     inkscape:window-x="0"
     inkscape:window-y="27"
     inkscape:window-maximized="1"
     inkscape:current-layer="layer1" />
  <defs
     id="defs20854" />
  <g
     inkscape:label="Layer 1"
     inkscape:groupmode="layer"
     id="layer1"
     transform="translate(-142.96486,-227.97149)">
    <path
       d="m 220.6027,246.31858 c -0.0127,0.21696 -0.0385,0.43745 -0.0773,0.66817 -3.58951,0.48295 -7.25099,0.82056 -10.88672,1.0033 -0.0159,7e-4 -0.0931,0.006 -0.18944,0.0282 -0.0882,-0.0649 -0.1905,-0.0981 -0.2727,-0.1076 -0.25505,-0.0293 -0.51011,0.0949 -0.6477,0.31644 -0.3249,0.52529 -0.34395,1.18322 -0.35806,1.663 -0.0155,0.52916 0.0208,1.05657 0.10865,1.56845 0.18697,1.09114 0.61913,2.0955 1.25025,2.90406 1.26753,1.62313 3.30341,2.42253 5.18724,2.03659 1.03434,-0.21202 1.9431,-0.73343 2.58974,-1.48061 0.0102,0.0116 0.0201,0.0226 0.0296,0.0332 0.12982,0.14887 0.2487,0.30903 0.37465,0.47837 0.0522,0.0709 0.10442,0.14181 0.15804,0.21166 l 0.94932,1.24531 c -2.82963,1.91946 -6.52533,2.0641 -9.08932,0.32703 -2.41511,-1.63654 -3.82834,-4.7043 -3.78036,-8.20667 0.024,-1.76601 0.37394,-3.6255 1.01212,-5.3774 0.57961,-1.59103 1.44709,-2.81481 2.57916,-3.63784 1.28622,-0.93522 2.8395,-1.38607 4.36068,-1.33597 1.10349,0.036 2.18969,0.3362 3.14361,0.90629 2.28493,1.3663 3.71474,4.08093 3.55846,6.75604 z m -2.1082,-7.06155 c -2.38618,-1.78047 -5.80072,-1.94592 -8.69914,-0.42227 -1.4224,0.74824 -2.56893,1.87713 -3.31435,3.26425 -0.41275,0.76764 -0.74507,1.63901 -1.04458,2.74249 -0.27657,1.01495 -0.46531,2.01683 -0.56232,2.97745 -0.21343,2.1149 0.004,4.04107 0.64558,5.72488 0.61101,1.60549 1.58679,2.98132 2.82046,3.97968 1.34937,1.0915 3.05188,1.69792 4.93677,1.75966 0.0748,0.002 0.14993,0.004 0.22543,0.005 1.80728,0.0176 3.68829,-0.47343 5.2966,-1.38218 0.39264,-0.22225 0.77717,-0.47343 1.1437,-0.74754 0.0423,-0.0318 0.15417,-0.11571 0.17569,-0.27058 0.0131,-0.0942 -0.013,-0.19015 -0.0734,-0.26952 -0.18204,-0.23848 -0.36407,-0.48578 -0.54081,-0.72531 -0.37289,-0.50624 -0.75883,-1.02941 -1.17404,-1.51624 -0.30374,-0.35701 -0.66181,-0.51576 -1.06433,-0.47343 -0.0995,0.0106 -0.20496,0.0328 -0.30692,0.0642 -0.16757,0.0212 -0.31256,0.0942 -0.40534,0.20355 -0.0977,0.0769 -0.17427,0.16793 -0.22719,0.27164 -0.9405,1.01 -2.48708,1.32715 -3.86362,0.78775 -1.4792,-0.57961 -2.59292,-1.97379 -2.97956,-3.72992 -0.10619,-0.4833 -0.15805,-0.98601 -0.15346,-1.49471 0.003,-0.38524 0.006,-0.81386 0.12806,-1.16452 3.83152,-0.19333 7.72336,-0.56163 11.56793,-1.09432 0.0833,-0.0116 0.50306,-0.0854 0.5715,-0.40182 0.64276,-2.97356 -0.60431,-6.22405 -3.10268,-8.08813"
       style="fill:#d8673f;fill-opacity:1;fill-rule:nonzero;stroke:none;stroke-width:0.0352778"
       id="path669-9-7" />
    <path
       d="m 209.78336,245.17558 c -0.003,-0.0144 -0.006,-0.0275 -0.01,-0.0388 -0.0131,-0.0416 -0.0325,-0.0804 -0.0582,-0.11465 0.22119,-1.4605 0.84455,-3.25578 2.53506,-3.89784 1.80058,-0.68333 3.94265,-0.14817 5.09376,1.27353 0.53904,0.66604 0.84702,1.49401 0.8643,2.30822 z m 5.98417,-5.05389 c -2.37631,-0.70203 -4.90326,0.0868 -6.14539,1.91841 -0.60148,0.88688 -0.96696,2.00448 -1.1176,3.417 -0.009,0.0825 0.005,0.16193 0.0395,0.23178 0.007,0.0628 0.0226,0.12488 0.0452,0.18485 0.0494,0.13088 0.16933,0.28117 0.46037,0.29069 0.0268,0.001 0.0554,7.1e-4 0.0854,-0.001 l 9.62024,-0.53622 c 0.21696,-0.012 0.55422,-0.17216 0.58844,-0.47802 0.24835,-2.22708 -1.25554,-4.34163 -3.57611,-5.02743"
       style="fill:#d8673f;fill-opacity:1;fill-rule:nonzero;stroke:none;stroke-width:0.0352778"
       id="path671-3-7" />
    <path
       d="m 338.60636,256.75246 c -0.42608,-0.43735 -0.89148,-0.85761 -1.35271,-1.27916 -0.35607,-0.32576 -0.56088,-0.68571 -0.63733,-1.08146 v -3.2e-4 c -0.15126,-0.20642 -0.14191,-0.42832 -0.11191,-0.65958 0.0745,0.14966 0.14901,0.29964 0.22352,0.44961 0.63861,1.28658 1.57557,2.41706 3.52141,3.04052 -0.70635,0.08 -1.29916,-0.11708 -1.64298,-0.46961 z m -3.56979,-14.4501 c -0.22384,0.41865 -0.44768,0.8373 -0.67151,1.25595 0,0 0,0 -3.3e-4,0 -0.0342,-0.0242 -0.068,-0.0487 -0.10225,-0.0729 0.16773,-0.45832 0.3435,-0.9147 0.66604,-1.33464 0.51895,-1.17337 1.27142,-2.25741 2.51446,-3.15307 0.0848,-0.0613 0.18127,-0.10547 0.31382,-0.0977 v 0 h 3.2e-4 c 0.0316,-0.19707 0.27416,-0.26513 0.48058,-0.35511 -0.11772,0.14417 -0.14675,0.34253 -0.48058,0.35511 v 0 h -3.2e-4 c -0.22867,0.26931 -0.43058,0.55185 -0.69086,0.80601 -0.8273,0.80987 -1.42624,1.70329 -2.02937,2.59638 z m 4.58963,-2.60605 c 0.40639,-0.66313 1.0463,-1.23595 1.77909,-1.74942 0.44671,-0.31285 1.01017,-0.28931 1.3756,0.0842 0.64635,0.66087 1.12016,1.37464 1.31432,2.16419 0.10514,0.42801 0.0542,0.85117 0.0642,1.46527 0.18319,0.91116 -0.59862,1.82489 -1.12661,2.787 -0.37123,0.67635 -0.84342,1.31593 -1.5617,1.84553 -0.95695,0.7057 -2.16935,1.08177 -3.59107,1.15692 -0.36317,0.019 -0.52606,-0.0484 -0.5138,-0.33575 0.10741,-2.57639 0.81278,-5.05795 2.25998,-7.41793 z m 6.22456,13.6215 c -0.01,-0.0274 -0.022,-0.0523 -0.0348,-0.0754 -0.0787,-0.14352 -0.20965,-0.20254 -0.4309,-0.16093 -0.0555,0.0103 -0.1145,0.0249 -0.18191,0.0481 -0.27093,0.0945 -0.32351,0.25963 -0.41607,0.40928 -0.0264,0.0433 -0.0558,0.0855 -0.0955,0.12386 v 0 c -0.26996,1.16434 -1.20047,2.02357 -2.60186,2.6596 -0.36575,0.1661 -0.77183,0.11611 -1.14016,-0.0129 -0.88309,-0.30899 -1.49042,-0.80117 -1.82134,-1.42882 -0.3364,-0.63894 -0.62152,-1.29045 -0.90438,-1.941 -0.57701,-1.32883 -0.93567,-2.67702 -0.91083,-4.06036 0.005,-0.25963 0.14095,-0.35737 0.51185,-0.3593 0.0274,0 0.0542,-9.1e-4 0.0816,-0.002 0.0677,-9.1e-4 0.13482,-0.002 0.20158,-0.005 1.69523,-0.0551 3.13534,-0.52798 4.37,-1.30013 1.02436,-0.64055 1.73328,-1.44365 2.32158,-2.29611 0.78795,-1.14208 1.3298,-2.32933 1.35625,-3.623 0.0132,-0.64119 -0.2477,-1.23885 -0.48058,-1.84618 -0.15287,-0.1003 -0.19513,-0.22867 -0.21093,-0.36381 -3.3e-4,0 -3.3e-4,0 -3.3e-4,-3.3e-4 -0.149,-0.12772 -0.24996,-0.26996 -0.28834,-0.43057 -0.0661,-0.0439 -0.12256,-0.0916 -0.17384,-0.14128 -0.0893,-0.0878 -0.15965,-0.18288 -0.22448,-0.28027 -0.0378,-0.0568 -0.0742,-0.11419 -0.11128,-0.17127 -3.2e-4,0 -3.2e-4,0 -3.2e-4,-3.2e-4 -0.0977,-0.0971 -0.1961,-0.19416 -0.29414,-0.29157 -0.0625,-0.0348 -0.12289,-0.0713 -0.18095,-0.1087 -0.0951,-0.0616 -0.18385,-0.12707 -0.26705,-0.19578 -0.0574,-0.0474 -0.1129,-0.0961 -0.1645,-0.14707 -3.2e-4,0 -3.2e-4,0 -3.2e-4,0 -0.57153,-0.34478 -1.26884,-0.51702 -1.96228,-0.69538 v 0 c -0.0268,-0.002 -0.0536,-0.004 -0.0803,-0.005 -0.12546,-0.009 -0.25093,-0.0167 -0.37639,-0.0239 -0.61313,-0.0336 -1.22531,-0.0403 -1.83618,0.0139 -0.68183,0.15578 -1.33626,0.34769 -1.90713,0.64991 -0.031,0.0384 -0.0661,0.0732 -0.10612,0.10256 -0.0435,0.0326 -0.0945,0.0581 -0.15449,0.0749 -0.0468,0.0129 -0.0984,0.0209 -0.15739,0.0216 -0.11064,0.0677 -0.22095,0.13547 -0.33125,0.2032 v 0 c -0.0464,0.038 -0.0961,0.0739 -0.14449,0.11063 -0.24545,0.18706 -0.51283,0.35833 -0.80085,0.51508 -0.0716,0.039 -0.1432,0.0784 -0.21739,0.11547 v 0 c -0.5783,0.38252 -1.10532,0.79084 -1.40882,1.31271 -0.0152,0.1103 -0.0716,0.2048 -0.20997,0.26866 v 0 c -0.12675,0.0752 -0.19158,0.17288 -0.21706,0.28544 -3.3e-4,0.031 -0.004,0.0613 -0.01,0.0906 -0.0158,0.0735 -0.0522,0.1403 -0.12159,0.19739 -0.0255,0.0209 -0.0545,0.041 -0.0897,0.0587 v 0 c -0.52444,0.69313 -0.85923,1.43947 -1.21046,2.17936 -0.2619,0.55088 -0.56766,1.09531 -0.68797,1.67652 -0.0264,0.11869 0.049,0.25545 -0.11966,0.34897 v 0 c -0.14933,0.0726 -0.0926,0.18578 -0.1103,0.28448 -0.031,0.14353 0.0564,0.30448 -0.11966,0.42639 0,0 0,0 -3.2e-4,0 h 0.002 v 0 0 c -0.006,0.0255 -0.008,0.0509 -0.009,0.0768 -0.005,0.14223 0.041,0.29124 -0.10837,0.41478 -9.2e-4,9.1e-4 -0.002,0.002 -0.004,0.004 -0.004,0.0545 -0.009,0.10902 -0.0129,0.16353 -0.005,0.0623 -0.009,0.12481 -0.0145,0.18707 -0.0207,0.2248 -0.0494,0.44928 -0.0861,0.67312 -0.0129,0.0777 -0.0258,0.15514 -0.0407,0.23255 -0.0325,0.17029 -0.0694,0.34027 -0.1132,0.50927 -3.2e-4,0.002 -6.5e-4,0.004 -9.1e-4,0.005 v 0 c -0.003,0.0517 -0.005,0.10321 -0.008,0.1545 -0.0242,0.4654 -0.0342,0.9305 -0.0174,1.39527 0.0135,0.38188 0.0464,0.76375 0.10418,1.14531 0.0316,0.209 0.068,0.41768 0.11611,0.62636 0.0484,0.20932 0.12127,0.41606 0.19125,0.6228 0.0346,0.10225 0.0678,0.20482 0.0968,0.3077 0.0496,0.17611 0.0871,0.35382 0.0932,0.53476 0,0 0,0 0,3.2e-4 h -0.003 c 0.0578,0.0771 0.099,0.15643 0.12998,0.23706 0.0158,0.0406 0.0281,0.0815 0.0374,0.12322 0.0161,0.0716 0.0262,0.14352 0.0239,0.21738 0.0551,0.0536 0.0955,0.10934 0.12515,0.16708 0.0222,0.0439 0.039,0.089 0.0494,0.13481 0.0152,0.0665 0.0194,0.13482 0.0155,0.20449 v 0 0 c 0.006,0.15513 0.0564,0.30253 0.19254,0.43284 0.0561,0.0335 0.0971,0.0709 0.12773,0.11062 0.0264,0.0345 0.0452,0.0707 0.0564,0.1087 0.0139,0.0462 0.0181,0.0942 0.0164,0.14417 v 0 c 0.0319,0.0494 0.0642,0.0981 0.0958,0.14707 0.0481,0.0338 0.088,0.0703 0.12353,0.10805 0.0539,0.0574 0.0942,0.11902 0.12417,0.18385 0.0216,0.0464 0.0397,0.0939 0.0513,0.14288 0.0923,0.22513 0.3106,0.4009 0.50348,0.587 0.0506,0.02 0.0958,0.0429 0.13675,0.0678 0.0606,0.0365 0.11063,0.0781 0.13934,0.12966 0.0164,0.0293 0.0268,0.0616 0.0297,0.0974 v 0 0 c 0.0332,0.0249 0.0665,0.0496 0.1,0.0745 0.072,0.041 0.1416,0.0838 0.21029,0.12707 0.19094,0.12031 0.36769,0.24932 0.5296,0.38802 0.0597,0.0506 0.11805,0.10191 0.17353,0.15545 v 0 0 c 0.069,0.0494 0.13836,0.099 0.20803,0.14837 0.0629,0.005 0.11675,0.0177 0.16482,0.0355 0.0587,0.0219 0.10739,0.0522 0.14868,0.0887 0.0352,0.031 0.0655,0.0658 0.0922,0.10386 v 0 c 0.49542,0.33092 1.03823,0.61829 1.64976,0.84148 0.0836,0.0116 0.16094,0.0304 0.23642,0.0522 0.061,0.0181 0.11901,0.0393 0.17448,0.0648 0.0707,0.0323 0.13837,0.0684 0.19965,0.11289 0.23641,0.15127 0.52895,0.20642 0.83536,0.2377 v 0 c 0.17384,0.01 0.34672,0.0268 0.5196,0.0452 0.14966,0.0158 0.29931,0.0323 0.44897,0.0474 0.19932,0.0197 0.39865,0.0352 0.59958,0.0387 0.0487,9.2e-4 0.0981,3.3e-4 0.14708,-3.2e-4 0.0184,-3.2e-4 0.0371,3.2e-4 0.0558,-3.2e-4 l 0.0484,-6.5e-4 0.0484,0.004 c 0.19351,-0.1074 0.42316,-0.0374 0.63603,-0.0487 3.3e-4,0 3.3e-4,0 3.3e-4,0 0.24254,-0.04 0.48541,-0.0796 0.72827,-0.11966 0.14804,-0.0977 0.32834,-0.13514 0.5338,-0.12547 v 0 c 0.5441,-0.19545 1.00791,-0.46347 1.46655,-0.73665 0.0187,-0.0462 0.0477,-0.0861 0.0826,-0.12224 0.0532,-0.0551 0.12224,-0.10032 0.199,-0.14095 0.0523,-0.0277 0.1074,-0.0536 0.16384,-0.0787 v 0 c 0.0677,-0.0916 0.17385,-0.15643 0.30609,-0.20255 0.0181,-0.0477 0.0474,-0.089 0.0832,-0.12611 0.0484,-0.0503 0.1103,-0.0926 0.17868,-0.13127 0.0564,-0.0319 0.11643,-0.0616 0.17707,-0.091 0,-3.2e-4 3.3e-4,-3.2e-4 3.3e-4,-3.2e-4 0.003,-0.0555 0.0209,-0.10547 0.10353,-0.13095 0.0319,-0.069 0.0703,-0.13579 0.11611,-0.19965 0.012,-0.0165 0.0245,-0.0325 0.0378,-0.0487 0.0503,-0.061 0.10805,-0.11869 0.18158,-0.17062 3.2e-4,0 3.2e-4,0 3.2e-4,-3.2e-4 0.0274,-0.26706 0.27674,-0.46671 0.43155,-0.69538 v 0 c 0.0648,-0.16933 0.13418,-0.33769 0.19319,-0.50767 0.0226,-0.0629 0.0435,-0.12611 0.0632,-0.18965 0.13353,-0.42993 0.19933,-0.86406 0.0329,-1.30593"
       style="fill:#ebc532;fill-opacity:1;fill-rule:nonzero;stroke:none;stroke-width:0.0322533"
       id="path665-4" />
    <path
       d="m 338.18448,233.73461 c -0.11192,-0.21126 -0.53121,-0.17126 -0.71183,0.0306 0.23642,-0.0135 0.47348,-0.0232 0.71183,-0.0306"
       style="fill:#d8673f;fill-opacity:1;fill-rule:nonzero;stroke:none;stroke-width:0.0322533"
       id="path923-6" />
    <path
       d="m 345.86432,245.44051 c 0.0188,0.42335 -0.15251,0.81097 -0.24184,1.21281 -0.0422,0.19006 -0.0878,0.40083 -0.25789,0.53882 0.13646,0.0479 0.16624,-0.0805 0.19808,-0.1626 0.18254,-0.46865 0.32521,-0.94896 0.35577,-1.45542 0.005,-0.0911 -0.0178,-0.18798 0.0562,-0.26461 -0.0779,0.009 -0.11393,0.0546 -0.1103,0.131"
       style="fill:#617e83;fill-opacity:1;fill-rule:nonzero;stroke:none;stroke-width:0.0258926"
       id="path477-7-9" />
    <path
       d="m 345.92491,244.27742 c 0.005,0.26902 -0.0697,0.54607 0.0497,0.80863 0,-0.48393 0,-0.96761 0,-1.45154 -0.11626,0.2061 -0.0534,0.42982 -0.0497,0.64291"
       style="fill:#617e83;fill-opacity:1;fill-rule:nonzero;stroke:none;stroke-width:0.0258926"
       id="path481-4-2" />
    <path
       d="m 350.1309,236.49852 c -0.005,0.004 -0.008,0.006 -0.0122,0.01 -0.006,0.005 -0.0119,0.0117 -0.0185,0.0173 0.008,-0.006 0.0212,-0.0171 0.0393,-0.0329 -0.003,0.002 -0.005,0.005 -0.009,0.005"
       style="fill:#c1d9c8;fill-opacity:1;fill-rule:nonzero;stroke:none;stroke-width:0.0258926"
       id="path495-78-2" />
    <path
       d="m 154.55586,237.25616 c 0.007,1.38324 -0.17568,2.7619 -0.10336,4.1462 0.0212,0.40252 -0.20108,0.41557 -0.48577,0.38171 -0.37148,-0.001 -0.7426,-0.008 -1.11372,-0.002 -0.2667,0.005 -0.40217,-0.0416 -0.26847,-0.36337 0.64206,-1.54622 1.33139,-3.07375 1.85702,-4.6676 v 0 0 c 0.17392,0.13758 0.0794,0.3362 0.11254,0.50553 3.5e-4,7.1e-4 3.5e-4,0.001 3.5e-4,0.001 7.1e-4,-7e-4 7.1e-4,-0.002 0.001,-0.002 z m 8.38024,15.42803 c -0.17251,-1.64324 -0.3623,-3.28295 -0.66675,-4.90396 -0.56903,-3.0353 -1.20262,-6.06002 -1.57127,-9.12813 -0.32738,-2.72697 -0.90593,-5.38515 -1.84538,-7.96148 -0.25788,-0.70697 -0.49072,-1.42805 -0.92499,-2.0514 -0.66463,-0.95356 -1.9124,-0.87348 -2.40982,0.16121 -0.53905,1.12007 -0.97331,2.29976 -1.59526,3.36903 -1.50601,2.59045 -2.68923,5.34423 -4.05695,8.00417 -1.27211,2.47439 -2.18404,5.11246 -3.26178,7.67398 -1.08903,2.58939 -1.94733,5.27756 -3.03459,7.87294 -0.26953,0.64417 -0.56374,1.29082 -0.60255,2.01189 -0.0138,0.25153 0.0423,0.39582 0.33761,0.40288 0.69462,0.0166 1.3903,0.0452 2.08245,0.10618 0.39969,0.0356 0.62759,-0.10724 0.79657,-0.47096 0.47484,-1.02376 0.93768,-2.04893 1.276,-3.13125 1.02235,-3.2706 2.45921,-6.37681 3.7151,-9.55464 0.0924,-0.23389 0.25682,-0.25329 0.46461,-0.24976 0.82479,0.0148 1.64888,0.002 2.47332,0.0825 0.33267,0.0325 0.42651,0.12594 0.44556,0.46037 0.0794,1.38748 0.23918,2.76684 0.43956,4.14267 0.22613,1.55187 0.40675,3.11044 0.63077,4.66267 0.17745,1.22802 0.26846,2.46979 0.57044,3.67947 0.0815,0.32667 0.19015,0.49847 0.57644,0.48507 0.95497,-0.0335 1.9117,-0.0113 2.86773,-0.0113 0,-0.005 0,-0.01 0,-0.0152 0.97226,0 1.94451,-0.006 2.91677,0.003 0.36971,0.003 0.54962,-0.10231 0.55174,-0.53481 0.008,-1.70463 0.004,-3.40396 -0.17533,-5.10505"
       style="fill:#dfa6a8;fill-opacity:1;fill-rule:nonzero;stroke:none;stroke-width:0.0352778"
       id="path933-9-8" />
    <path
       d="m 157.84516,237.07237 c -0.14569,-1.79106 -0.28151,-3.58282 -0.40745,-5.37528 -0.0222,-0.3115 -1.07703,-0.0998 -1.05058,0.28152 0.44803,6.37328 1.02235,12.73774 1.72544,19.08774 0.19756,1.78612 0.40534,3.57082 0.62336,5.35447 0.0392,0.32173 1.09573,0.0921 1.04987,-0.28152 -0.77365,-6.34189 -1.42135,-12.69894 -1.94064,-19.06693"
       style="fill:#c67379;fill-opacity:1;fill-rule:nonzero;stroke:none;stroke-width:0.0352778"
       id="path935-0-6" />
    <path
       d="m 160.86459,248.41311 c -0.004,-0.22084 -1.05622,-0.0504 -1.05057,0.28117 0.0413,2.25178 0.28187,4.49439 0.71966,6.70348 0.0522,0.26247 1.10914,0.0134 1.05058,-0.28116 -0.4378,-2.20945 -0.67875,-4.45171 -0.71967,-6.70349"
       style="fill:#c67379;fill-opacity:1;fill-rule:nonzero;stroke:none;stroke-width:0.0352778"
       id="path937-9-0" />
    <path
       d="m 160.36964,244.51915 c -0.0275,-0.11924 -0.0773,-0.22754 -0.13229,-0.33655 -0.0441,-0.0871 -0.0988,-0.16722 -0.16404,-0.23989 -0.0808,-0.0896 -0.17956,-0.13723 -0.29986,-0.1531 -0.13088,-0.0176 -0.29704,0.009 -0.41452,0.0716 -0.10583,0.0557 -0.22295,0.13546 -0.26846,0.25153 -0.037,0.0931 -0.0519,0.21343 0.0219,0.29527 0.0543,0.0603 0.0991,0.127 0.13864,0.19721 0.0445,0.10265 0.0734,0.20955 0.0871,0.32032 0.002,0.1076 -0.008,0.21449 -0.037,0.31856 -0.0272,0.097 0.0564,0.21554 0.12806,0.26705 0.0956,0.0681 0.24482,0.0953 0.35912,0.0833 0.13829,-0.0141 0.28575,-0.055 0.39476,-0.14499 0.0303,-0.0286 0.0607,-0.0572 0.091,-0.0857 0.0501,-0.0568 0.0808,-0.12242 0.0921,-0.19721 0.0582,-0.20778 0.0526,-0.43815 0.004,-0.64734"
       style="fill:#c67379;fill-opacity:1;fill-rule:nonzero;stroke:none;stroke-width:0.0352778"
       id="path939-1-4" />
    <path
       d="m 249.60299,245.44187 c -0.003,-0.006 -0.005,-0.0127 -0.008,-0.0194 -0.29386,-0.59196 -0.13194,-1.22907 -0.17745,-1.84608 -0.002,-0.0893 -0.004,-0.17851 -0.005,-0.26776 -3.5e-4,-3.5e-4 -3.5e-4,-3.5e-4 -3.5e-4,-7.1e-4 -0.16086,-0.52281 -0.0554,-1.06045 -0.085,-1.59032 -0.003,-0.09 -0.005,-0.17992 -0.007,-0.26917 v -3.5e-4 0 c -0.0286,-0.0656 -0.0568,-0.13088 -0.0847,-0.1965 v 0 c -7.1e-4,-1.05339 -0.001,-2.10749 -0.002,-3.16089 -7e-4,-0.0737 -10e-4,-0.14711 -10e-4,-0.22048 -0.002,-0.38876 -0.005,-0.77753 -0.007,-1.16629 0,-3.5e-4 0,-3.5e-4 0,-3.5e-4 -0.0286,-0.0589 -0.0476,-0.11889 -0.0624,-0.17886 -0.0582,-0.23283 -0.0314,-0.47272 -0.0159,-0.70838 0.004,-0.0508 0.006,-0.10124 0.007,-0.15134 0.004,-0.14746 7e-4,-0.29527 -0.003,-0.44309 -0.0134,-0.50729 -0.0487,-1.01564 0.0236,-1.52012 0.013,-0.0907 0.0296,-0.18168 0.0508,-0.27234 0,0 0,0 0,3.5e-4 0.004,-0.0656 0.007,-0.13123 0.0106,-0.19685 0.004,-0.0624 0.007,-0.12523 0.0102,-0.18768 0.0282,10e-4 0.0565,0.002 0.0847,0.004 0,0.0123 0,0.0247 0,0.037 0,0.17674 0,0.35313 0,0.52952 3.5e-4,3.5e-4 3.5e-4,7e-4 3.5e-4,7e-4 0.16228,0.30269 0.0642,0.62724 0.0783,0.94157 v 0 c 0,3.5e-4 0,0 0,3.5e-4 0.001,0.40181 0.003,0.80398 0.005,1.20579 0.003,0.1831 0.006,0.36548 0.008,0.54822 3.6e-4,3.5e-4 3.6e-4,3.5e-4 3.6e-4,7.1e-4 0.16756,0.45967 0.0631,0.93556 0.085,1.40405 0.002,0.36865 0.005,0.73766 0.007,1.10631 0,0 0,0 0,3.6e-4 0.17498,0.61348 0.0395,1.24389 0.0995,1.86407 0.12136,0.13018 0.079,0.2921 0.0794,0.44203 0.002,1.82175 0.001,3.64349 7e-4,5.46524 0,0.0166 3.6e-4,0.0328 3.6e-4,0.049 h -3.6e-4 c -0.018,3.6e-4 -0.0356,3.6e-4 -0.0533,7.1e-4 -0.0127,0 -0.0254,0 -0.0377,0 -0.16122,-0.39158 -0.11607,-0.78387 -0.007,-1.17581 0.002,-0.009 0.004,-0.018 0.007,-0.0272 z m -1.85632,-11.6325 c 0.14393,0.13547 0.0741,0.30903 0.0833,0.46849 v 0 c -0.14253,-0.13547 -0.0691,-0.31009 -0.0833,-0.46849 z m 0.0949,0.92851 c 0.0296,-0.0293 0.0589,-0.0589 0.0885,-0.0882 3.6e-4,-7.1e-4 0.001,-10e-4 0.001,-0.002 -0.001,-0.0113 -0.001,-0.0226 -0.002,-0.0342 -0.007,-0.0893 -0.008,-0.17886 -0.007,-0.26847 0.006,-0.32314 0.0451,-0.6484 -0.0226,-0.96661 -0.0155,-0.0727 -0.0349,-0.14464 -0.0635,-0.21625 v 0 c -0.006,-0.13794 -0.005,-0.27164 0.18556,-0.2794 v 0 c 0,0.58914 0,1.17792 0,1.76706 v 0 c -0.0515,0.46249 0.11324,0.93874 -0.0914,1.391 v 0 c 0.0307,-0.4385 -0.0399,-0.86995 -0.0893,-1.30316 z m 0.93309,24.64224 c -0.17709,-0.0311 -0.25858,-0.0804 -0.23565,-0.30022 0.066,-0.64029 0.0938,-1.28446 0.13652,-1.92722 v 0 c 0,0 0,0 0,3.5e-4 -0.003,-1.85773 -0.006,-3.71581 -0.01,-5.57354 -0.0282,-0.0501 -0.0367,-0.10195 -0.0381,-0.15381 -0.11536,-0.52034 -0.0106,-1.05163 -0.0462,-1.57585 -0.012,-0.16828 7e-4,-0.33797 0.002,-0.50695 v 0 0 c -0.002,-0.12382 -0.004,-0.248 -0.006,-0.37147 0.006,-0.0751 0.0183,-0.14605 0.0942,-0.18556 v 0 c -10e-4,0.18591 -0.002,0.37147 -0.003,0.55703 h -3.5e-4 3.5e-4 c 0.03,0.43604 0.0603,0.87136 0.0907,1.3074 -0.15452,0.16157 -0.0639,0.35913 -0.0815,0.54116 -3.5e-4,0.004 -3.5e-4,0.008 -7e-4,0.012 l 0.0406,-7e-4 c 0,0 0.0402,3.5e-4 0.0406,3.5e-4 v 0 c 0.002,0.46955 0.16051,0.92886 0.0903,1.403 0.11641,2.12372 0.30057,4.24427 0.29915,6.37399 0,0.27587 -0.0353,0.45861 -0.37324,0.40005 z m 4.72617,-27.73822 c -0.0444,-0.1845 -0.14676,-0.33125 -0.34502,-0.3122 -1.16946,0.11077 -2.34279,0.15416 -3.51578,0.19155 -1.60726,0.0504 -3.21557,0.12242 -4.82212,0.11184 -0.6156,-0.004 -1.23613,-0.0219 -1.85385,-0.0444 -0.18062,-0.007 -0.34537,0.003 -0.3877,0.23036 -0.0988,0.53305 0.22684,0.93874 0.77682,0.97014 1.01776,0.0582 2.03517,0.127 3.05364,0.17356 0.24589,0.0113 0.31962,0.1016 0.31785,0.33479 -0.005,0.6029 0.0515,1.20615 0.0632,1.80728 0.042,2.21298 0.11324,4.42419 0.18768,6.63646 0.0677,2.01083 0.0744,4.02413 0.11077,6.03638 0.0367,2.02812 0.0765,4.05553 0.11606,6.0833 0.001,0.0928 0.0152,0.18521 0.0212,0.27728 0.0808,1.28411 0.0706,2.56999 0.0141,3.85339 -0.0201,0.46567 -0.0564,0.92181 0.0476,1.37901 3.5e-4,0 3.5e-4,0 3.5e-4,0 0.0762,0.0536 0.12771,0.11854 0.15557,0.19685 0.0169,0.0459 0.0275,0.0949 0.025,0.15205 -0.008,0.16334 0.0219,0.28681 0.079,0.37994 0.007,0.0116 0.0145,0.0229 0.0229,0.0335 0.11148,0.14675 0.30763,0.20214 0.56127,0.19579 0.42969,-0.0106 0.85902,-0.018 1.2887,-0.0261 0.06,-10e-4 0.11995,-0.002 0.17992,-0.004 0.33443,-0.19544 0.4699,-0.49459 0.46567,-0.87277 -0.003,-0.25788 0.005,-0.51576 0.008,-0.77364 0.20779,-0.85937 0.23072,-1.74273 0.254,-2.61444 0.0801,-2.97145 0.0208,-5.94466 0.0878,-8.91716 0.0748,-3.31188 0.0688,-6.62693 -0.0702,-9.93917 -0.0455,-1.08196 -0.1083,-2.16288 -0.0991,-3.24661 7e-4,-0.0921 -0.0152,-0.18486 -0.0303,-0.27622 -0.11536,-0.69462 -0.11571,-0.69462 0.51893,-0.8636 h 3.6e-4 c 0.68086,0.0113 1.36031,0.0258 2.03658,-0.0917 0.57362,-0.0995 0.86537,-0.50729 0.73096,-1.06151"
       style="fill:#e7c0a8;fill-opacity:1;fill-rule:nonzero;stroke:none;stroke-width:0.0352778"
       id="path439-4" />
    <path
       d="m 272.1178,228.72672 c 0,0 0,-3.5e-4 0,-7.1e-4 h -3.5e-4 c 0,3.6e-4 3.5e-4,7.1e-4 3.5e-4,7.1e-4"
       style="fill:#e7c0a8;fill-opacity:1;fill-rule:nonzero;stroke:none;stroke-width:0.0352778"
       id="path441-3" />
    <path
       d="m 415.79265,234.67486 c -0.29633,-1.06151 -0.94827,-2.04999 -1.90006,-2.63173 -1.44569,-0.8837 -3.31364,-0.6611 -4.82776,-0.073 -1.13135,0.43921 -1.99107,1.25342 -2.58974,2.29729 -0.57538,1.00295 -0.95673,2.12796 -1.3021,3.22651 -0.1718,0.54645 -0.3235,1.09925 -0.46285,1.65559 -0.20566,-0.3676 -0.42333,-0.72884 -0.65757,-1.08056 -0.91758,-1.37866 -2.03377,-2.61691 -3.36797,-3.60292 -0.19121,-0.14111 -0.5715,-0.13194 -0.78317,-0.12559 -0.40216,0.012 -0.84137,0.0882 -1.22449,0.20884 -0.16686,0.0526 -1.40864,0.48754 -0.98037,0.80434 1.08232,0.79939 2.02495,1.76494 2.82893,2.84233 1.38429,1.90958 2.32656,4.11444 2.89383,6.39762 0.10548,0.42616 0.1965,0.85514 0.27764,1.28623 -0.0692,1.0601 -0.10478,2.12231 -0.1136,3.18382 -0.0251,2.93546 0.14252,5.86811 0.31821,8.79687 0.0109,0.18344 0.4445,0.22366 0.53128,0.23177 0.36654,0.0353 0.7874,-0.0183 1.143,-0.0981 0.3676,-0.0825 0.75847,-0.17815 1.08585,-0.37077 0.17004,-0.10019 0.37606,-0.20672 0.39229,-0.4265 0.266,-3.53872 0.48048,-7.11483 0.009,-10.64613 -0.0593,-0.44415 -0.13159,-0.88689 -0.21519,-1.32786 0.0434,-0.65864 0.0984,-1.31692 0.17074,-1.97379 0.1397,-1.27423 0.34149,-2.54071 0.61595,-3.79271 0.38382,-1.70251 0.87842,-3.43006 1.63266,-5.00769 0.15804,-0.3302 0.33372,-0.65263 0.53622,-0.95743 0.10018,-0.14994 0.20601,-0.29528 0.32031,-0.43498 0.0265,-0.0325 0.0533,-0.0642 0.0804,-0.096 0.005,-0.006 0.0176,-0.0201 0.0296,-0.0342 0.0162,-0.0173 0.0384,-0.0413 0.0462,-0.0494 0.0363,-0.036 0.073,-0.072 0.11077,-0.10654 0.0233,-0.0212 0.0476,-0.0402 0.0713,-0.0603 0.0138,0.005 0.0272,0.009 0.0409,0.0141 0.0159,0.005 0.0272,0.008 0.0367,0.0116 0.006,0.003 0.012,0.006 0.0201,0.01 0.18768,0.09 0.36795,0.19227 0.53834,0.31221 0.33726,0.23671 0.62901,0.52846 0.88018,0.85407 1.04634,1.49437 0.97543,3.43994 0.84597,5.17878 -0.0131,0.17886 0.47307,0.22649 0.53092,0.23213 0.36654,0.0349 0.78741,-0.0187 1.14336,-0.0981 0.36759,-0.0829 0.75847,-0.17851 1.0855,-0.37112 0.17039,-0.0998 0.37641,-0.20673 0.39228,-0.42651 0.0931,-1.24672 0.15664,-2.534 -0.18344,-3.75179"
       style="fill:#7bbab4;fill-opacity:1;fill-rule:nonzero;stroke:none;stroke-width:0.0352778"
       id="path715-5-0-6" />
    <path
       d="m 361.02831,248.98728 c -0.75642,-0.93267 -1.48794,-1.87859 -2.19656,-2.83681 0.36975,0.36808 0.74049,0.73551 1.11422,1.1006 0.70397,0.96884 1.39997,1.94166 2.08669,2.91813 -0.33688,-0.39264 -0.67211,-0.78662 -1.00435,-1.18192 z m 5.66765,5.1336 c -0.11352,-0.81051 -0.22736,-1.6207 -0.34087,-2.43155 0.1384,-0.11849 0.20478,-0.2476 0.12546,-0.36177 -0.0714,-0.10356 -0.14637,-0.20512 -0.21939,-0.30769 -0.0196,-0.14138 -0.0395,-0.28277 -0.0591,-0.42417 0.0452,-1.27486 0.0784,-2.55004 0.0856,-3.82557 0.01,-1.67014 -0.0136,-3.3403 -0.0693,-5.00946 -0.0285,-0.84636 -0.065,-1.69239 -0.11019,-2.53843 -0.0319,-0.60009 -0.009,-1.24067 -0.088,-1.85105 -0.0385,-1.09562 -0.0843,-2.19125 -0.14836,-3.28621 -0.009,-0.16296 -0.15202,-0.21342 -0.34685,-0.19648 -0.0209,-0.34685 -0.0356,-0.69402 -0.0608,-1.0412 -0.0355,-0.48757 -1.54303,0.0564 -1.5437,0.47994 -9.4e-4,0.49122 -0.002,0.98277 -0.004,1.47399 -0.44243,-0.0179 -1.26722,0.3515 -1.26987,0.6678 -0.002,0.23433 -0.005,0.46899 -0.007,0.70332 -0.0402,0.0793 -0.0398,0.14803 -0.002,0.1998 l -0.0388,4.45487 c -0.0259,0.99107 -0.0328,1.98247 -0.0263,2.97387 -0.008,0.90877 -0.0159,1.8172 -0.0235,2.72629 -1.3263,-1.40861 -2.74288,-2.75847 -4.20858,-4.06884 -0.88221,-1.12882 -1.78433,-2.24635 -2.71798,-3.3463 -0.93101,-1.09728 -1.90051,-2.17066 -2.89324,-3.22911 -0.0252,-0.22172 -0.0482,-0.4431 -0.0754,-0.66448 -0.0498,-0.4046 -1.46803,-1.03257 -1.4823,-0.48227 -0.002,0.0787 -0.005,0.15733 -0.007,0.23566 -9.4e-4,-3.3e-4 -0.002,-6.6e-4 -0.002,-9.4e-4 -0.18985,-0.0756 -0.79691,-0.20976 -0.80886,0.11683 -0.009,0.25822 -0.0156,0.51612 -0.0232,0.77467 -0.6273,-0.14836 -1.2722,0.066 -1.60079,0.621 -0.19085,0.32228 0.22537,0.65187 0.56291,0.72887 0.008,0.50449 0.0189,1.00833 0.0312,1.5125 -0.086,0.004 -0.14703,0.0199 -0.14604,0.0488 0.0136,0.34717 0.0276,0.69435 0.0411,1.04152 0.002,0.0369 0.0574,0.0707 0.13608,0.0976 -0.0116,0.31 -0.0232,0.62033 -0.0345,0.93034 -0.15035,-0.0332 -0.29739,-0.009 -0.30668,0.12479 -0.13342,1.97485 -0.17558,3.95302 -0.12977,5.93018 -0.33888,2.03394 -0.43978,4.0891 -0.29076,6.13531 0.0452,0.62465 0.11418,1.2483 0.20512,1.86996 -0.0421,1.1411 -0.0847,2.28253 -0.12713,3.42363 -0.0289,0.77799 1.63531,0.79557 1.69473,0.0213 0.0196,-0.25956 0.0395,-0.51878 0.0591,-0.77766 0.38899,0.22038 0.854,0.30303 0.93697,-0.0378 0.0471,-0.19517 0.0913,-0.39066 0.13709,-0.58582 0.0199,-0.0302 0.0358,-0.0641 0.0415,-0.10787 0.006,-0.0471 0.0106,-0.0943 0.0163,-0.14139 0.008,-0.0299 0.0139,-0.0595 0.0213,-0.0889 0.41123,-0.0594 0.84337,-0.33356 0.85166,-0.70364 -9.4e-4,-1.25993 -0.002,-2.52051 -0.003,-3.78075 0.49156,-3.23478 0.72256,-6.49642 0.69601,-9.7584 1.68775,2.90584 3.64367,5.70016 5.85982,8.3448 0.88652,1.05812 1.81454,2.09102 2.77906,3.09968 0.063,0.0664 0.16661,0.0969 0.29108,0.10157 0.15135,0.16429 0.29341,0.33256 0.42716,0.50516 -9.4e-4,0.11815 -0.002,0.23698 -0.003,0.35514 -0.002,0.155 0.13741,0.20478 0.33257,0.18885 0.19782,0.3724 0.39597,0.74514 0.59378,1.11786 0.0196,0.33423 0.0391,0.66847 0.0597,1.0027 0.0169,0.28543 0.41322,0.231 0.79658,0.079 0.007,0.0804 0.0146,0.16064 0.0215,0.24096 0.0458,0.50317 1.50985,-0.074 1.54437,-0.47993 0.0163,-0.19085 0.0302,-0.3817 0.0452,-0.57288 0.0803,0.0448 0.17889,0.0693 0.2768,0.0385 0.13642,-0.0432 0.18587,-0.1769 0.12181,-0.27382 -0.11351,-0.17193 -0.22702,-0.34419 -0.34086,-0.51612 0.0172,-0.23632 0.0341,-0.4723 0.0504,-0.70829 0.11118,0.0561 0.26851,0.0737 0.36244,-0.0113 0.10256,-0.0926 0.0537,-0.231 -0.0395,-0.31896 0.23831,-0.13376 0.41223,-0.29905 0.39298,-0.43778"
       style="fill:#e2a56d;fill-opacity:1;fill-rule:nonzero;stroke:none;stroke-width:0.0331907"
       id="path467-7" />
    <path
       d="m 235.16416,249.81578 c -0.75642,-0.93267 -1.48794,-1.87859 -2.19656,-2.83681 0.36975,0.36808 0.74049,0.73551 1.11422,1.1006 0.70397,0.96884 1.39997,1.94166 2.08669,2.91813 -0.33688,-0.39264 -0.67211,-0.78662 -1.00435,-1.18192 z m 5.66765,5.1336 c -0.11352,-0.81051 -0.22736,-1.6207 -0.34087,-2.43155 0.1384,-0.11849 0.20478,-0.2476 0.12546,-0.36177 -0.0714,-0.10356 -0.14637,-0.20512 -0.21939,-0.30769 -0.0196,-0.14138 -0.0395,-0.28277 -0.0591,-0.42417 0.0452,-1.27486 0.0784,-2.55004 0.0856,-3.82557 0.01,-1.67014 -0.0136,-3.3403 -0.0693,-5.00946 -0.0285,-0.84636 -0.065,-1.69239 -0.11019,-2.53843 -0.0319,-0.60009 -0.009,-1.24067 -0.088,-1.85105 -0.0385,-1.09562 -0.0843,-2.19125 -0.14836,-3.28621 -0.009,-0.16296 -0.15202,-0.21342 -0.34685,-0.19648 -0.0209,-0.34685 -0.0356,-0.69402 -0.0608,-1.0412 -0.0355,-0.48757 -1.54303,0.0564 -1.5437,0.47994 -9.4e-4,0.49122 -0.002,0.98277 -0.004,1.47399 -0.44243,-0.0179 -1.26722,0.3515 -1.26987,0.6678 -0.002,0.23433 -0.005,0.46899 -0.007,0.70332 -0.0402,0.0793 -0.0398,0.14803 -0.002,0.1998 l -0.0388,4.45487 c -0.0259,0.99107 -0.0328,1.98247 -0.0263,2.97387 -0.008,0.90877 -0.0159,1.8172 -0.0235,2.72629 -1.3263,-1.40861 -2.74288,-2.75847 -4.20858,-4.06884 -0.88221,-1.12882 -1.78433,-2.24635 -2.71798,-3.3463 -0.93101,-1.09728 -1.90051,-2.17066 -2.89324,-3.22911 -0.0252,-0.22172 -0.0482,-0.4431 -0.0754,-0.66448 -0.0498,-0.4046 -1.46803,-1.03257 -1.4823,-0.48227 -0.002,0.0787 -0.005,0.15733 -0.007,0.23566 -9.4e-4,-3.3e-4 -0.002,-6.6e-4 -0.002,-9.4e-4 -0.18985,-0.0756 -0.79691,-0.20976 -0.80886,0.11683 -0.009,0.25822 -0.0156,0.51612 -0.0232,0.77467 -0.6273,-0.14836 -1.2722,0.066 -1.60079,0.621 -0.19085,0.32228 0.22537,0.65187 0.56291,0.72887 0.008,0.50449 0.0189,1.00833 0.0312,1.5125 -0.086,0.004 -0.14703,0.0199 -0.14604,0.0488 0.0136,0.34717 0.0276,0.69435 0.0411,1.04152 0.002,0.0369 0.0574,0.0707 0.13608,0.0976 -0.0116,0.31 -0.0232,0.62033 -0.0345,0.93034 -0.15035,-0.0332 -0.29739,-0.009 -0.30668,0.12479 -0.13342,1.97485 -0.17558,3.95302 -0.12977,5.93018 -0.33888,2.03394 -0.43978,4.0891 -0.29076,6.13531 0.0452,0.62465 0.11418,1.2483 0.20512,1.86996 -0.0421,1.1411 -0.0847,2.28253 -0.12713,3.42363 -0.0289,0.77799 1.63531,0.79557 1.69473,0.0213 0.0196,-0.25956 0.0395,-0.51878 0.0591,-0.77766 0.38899,0.22038 0.854,0.30303 0.93697,-0.0378 0.0471,-0.19517 0.0913,-0.39066 0.13709,-0.58582 0.0199,-0.0302 0.0358,-0.0641 0.0415,-0.10787 0.006,-0.0471 0.0106,-0.0943 0.0163,-0.14139 0.008,-0.0299 0.0139,-0.0595 0.0213,-0.0889 0.41123,-0.0594 0.84337,-0.33356 0.85166,-0.70364 -9.4e-4,-1.25993 -0.002,-2.52051 -0.003,-3.78075 0.49156,-3.23478 0.72256,-6.49642 0.69601,-9.7584 1.68775,2.90584 3.64367,5.70016 5.85982,8.3448 0.88652,1.05812 1.81454,2.09102 2.77906,3.09968 0.063,0.0664 0.16661,0.0969 0.29108,0.10157 0.15135,0.16429 0.29341,0.33256 0.42716,0.50516 -9.4e-4,0.11815 -0.002,0.23698 -0.003,0.35514 -0.002,0.155 0.13741,0.20478 0.33257,0.18885 0.19782,0.3724 0.39597,0.74514 0.59378,1.11786 0.0196,0.33423 0.0391,0.66847 0.0597,1.0027 0.0169,0.28543 0.41322,0.231 0.79658,0.079 0.007,0.0804 0.0146,0.16064 0.0215,0.24096 0.0458,0.50317 1.50985,-0.074 1.54437,-0.47993 0.0163,-0.19085 0.0302,-0.3817 0.0452,-0.57288 0.0803,0.0448 0.17889,0.0693 0.2768,0.0385 0.13642,-0.0432 0.18587,-0.1769 0.12181,-0.27382 -0.11351,-0.17193 -0.22702,-0.34419 -0.34086,-0.51612 0.0172,-0.23632 0.0341,-0.4723 0.0504,-0.70829 0.11118,0.0561 0.26851,0.0737 0.36244,-0.0113 0.10256,-0.0926 0.0537,-0.231 -0.0395,-0.31896 0.23831,-0.13376 0.41223,-0.29905 0.39298,-0.43778"
       style="fill:#e2a56d;fill-opacity:1;fill-rule:nonzero;stroke:none;stroke-width:0.0331907"
       id="path467-6" />
    <path
       d="m 181.60662,243.81516 c -0.10641,3.1099 -0.30362,6.21704 -0.47317,9.32457 -0.0749,1.36864 -0.1735,2.73649 -0.26419,4.10434 -0.0237,0.34542 -0.1735,0.57056 -0.55202,0.59737 -0.53626,0.0382 -1.07647,0.0997 -1.61666,0.13723 -1.69158,0.11632 -3.37133,-0.0718 -5.04713,-0.28429 -1.5102,-0.19164 -2.98885,-0.49368 -4.29006,-1.36904 -1.73101,-1.16676 -2.29881,-3.03183 -2.89816,-4.87482 -0.15377,-0.47948 -0.14195,-0.98025 -0.071,-1.48653 0.3667,-2.59967 1.99913,-3.92178 4.40835,-4.51048 2.078,-0.50865 4.15599,-0.47435 6.24582,-0.0793 0.72552,0.13722 1.00153,-0.11632 1.00548,-0.86195 0.0158,-2.02713 -0.16167,-4.04598 -0.32727,-6.06168 -0.21292,-2.60873 -0.20899,-5.21904 -0.23264,-7.83132 -0.004,-0.31466 0.0867,-0.40851 0.40219,-0.39313 0.86747,0.0414 1.73495,0.0423 2.59848,0.0658 0.83987,0.0232 1.01336,0.16244 1.01731,0.98103 0.0197,2.02437 0.008,4.04913 0.008,6.0739 0.0315,0 0.0671,0 0.1025,0 0,2.15646 0.0591,4.3145 -0.0158,6.46821 z m 1.04885,-8.57301 c -0.0158,0 -0.0315,-0.001 -0.0473,-4e-4 0,-0.60487 -0.004,-1.20934 -0.008,-1.81381 0,-0.007 0,-0.013 0,-0.0193 -0.0395,-0.9349 -0.11829,-1.8698 -0.11435,-2.80431 0,-0.69792 -0.32727,-1.07645 -0.9621,-1.16714 -1.50627,-0.2145 -3.02434,-0.18572 -4.53848,-0.21293 -0.32333,-0.006 -0.55597,0.19282 -0.50866,0.53744 0.23265,1.64742 0.071,3.30114 0.0867,4.95092 0.0315,2.91904 0.32728,5.82076 0.46134,8.7331 0.0434,0.92347 0.071,0.89627 -0.8517,0.776 -2.16869,-0.28193 -4.30978,-0.19676 -6.41932,0.45661 -3.72225,1.15058 -4.87599,4.34644 -4.29203,6.8152 0.95225,4.02784 2.45456,6.21348 6.82742,7.02418 1.29728,0.23974 2.61426,0.36158 3.91941,0.53744 0.008,0 0.0158,0 0.0237,0 0.86353,-0.001 1.72312,-0.002 2.58665,-0.003 0.61906,-0.0816 1.24207,-0.17034 1.86113,-0.24369 0.68609,-0.0808 1.06068,-0.49367 1.1356,-1.14309 0.11435,-1.01259 0.2011,-2.03029 0.26024,-3.04799 0.18533,-3.1442 0.35094,-6.2892 0.52443,-9.43419 0.0315,-0.35014 -0.15772,-0.72592 0.11829,-1.04886 0,-0.34856 0,-0.69713 0,-1.04609 0,-0.7409 0,-1.4818 0,-2.22271 0,-0.30519 0,-0.61038 0,-0.91558 0,-0.3048 0,-0.60999 0,-0.91519 0,-0.17428 0,-0.34857 0,-0.52284 0,-0.56663 0,-1.13325 0,-1.69987 0,-0.26142 0,-0.52284 0,-0.78467 0,-0.26142 0,-0.52285 0,-0.78427 -0.0197,-0.001 -0.0434,-7.9e-4 -0.063,-7.9e-4"
       style="fill:#f28559;fill-opacity:1;fill-rule:nonzero;stroke:none;stroke-width:0.0394307"
       id="path829-8" />
    <path
       d="m 175.79847,250.07203 c -0.0237,0.82489 -0.0906,1.6482 -0.11434,2.47229 -0.008,0.27405 -0.0947,0.33596 -0.347,0.28549 -0.63483,-0.12658 -1.2815,-0.19952 -1.9045,-0.36237 -0.77284,-0.2007 -1.11982,-0.67112 -1.13166,-1.3919 -0.0118,-0.73381 0.35488,-1.30831 1.07252,-1.52795 0.5126,-0.15692 1.05279,-0.21647 1.38402,-0.28073 0.96604,-0.0387 1.06068,0.0379 1.04096,0.80517 z m 0.13407,-1.64151 c -1.00549,-0.21174 -1.9873,-0.0891 -2.94547,0.21293 -1.01731,0.32097 -1.6837,1.30318 -1.69552,2.38832 -0.0118,1.10248 0.57174,1.96956 1.62848,2.34376 0.81622,0.28981 1.67186,0.43491 2.53934,0.46371 1.0528,0.0178 1.09618,-0.0205 1.15137,-1.06267 0.0434,-0.89073 0.0789,-1.78147 0.12225,-2.67261 0.008,-0.15181 0,-0.30716 0.0276,-0.45543 0.16561,-0.90216 0.0828,-1.02558 -0.82804,-1.21801"
       style="fill:#f28559;fill-opacity:1;fill-rule:nonzero;stroke:none;stroke-width:0.0394307"
       id="path831-8" />
    <path
       d="m 205.76951,232.74788 c 0.0376,-0.32728 -0.60505,-0.58874 -0.84018,-0.65865 -0.52666,-0.15832 -1.21949,-0.16427 -1.76184,-0.079 -0.56742,0.089 -1.19127,0.22603 -1.65525,0.54674 -0.11286,0.0893 -0.22571,0.17869 -0.34171,0.26835 -0.17556,0.16459 -0.25393,0.35926 -0.23512,0.58435 -0.0251,0.21005 -0.0501,0.41977 -0.0753,0.6295 -0.41068,3.20142 -1.09723,6.37399 -2.05026,9.48292 -0.89973,2.9409 -2.04085,5.8238 -3.40456,8.61956 -0.47965,-1.4286 -0.95616,-2.85689 -1.43267,-4.28517 -1.05021,-3.13997 -2.10042,-6.27963 -3.15063,-9.4196 l -1.78065,-5.31813 c -0.11913,-0.36209 -0.4483,-0.54235 -0.83703,-0.65897 -0.52981,-0.15769 -1.22263,-0.16364 -1.76185,-0.0786 -0.56742,0.0893 -1.19442,0.22572 -1.65525,0.54704 -0.26334,0.18309 -0.69597,0.50474 -0.57997,0.8524 1.05648,3.15125 2.10983,6.30282 3.16317,9.45439 l 3.15063,9.41929 c 0.59251,1.77313 1.18501,3.54562 1.77752,5.31813 0.26333,0.78781 1.54239,0.81916 2.27597,0.76273 0.511,-0.0389 1.05961,-0.12947 1.52046,-0.33763 0.15361,-0.078 0.30722,-0.15612 0.46083,-0.23387 0.24139,-0.13888 0.42322,-0.32415 0.53922,-0.55708 1.84334,-2.94936 3.42022,-6.02852 4.71183,-9.2014 1.29473,-3.18355 2.30732,-6.45864 3.01896,-9.78513 0.41694,-1.94336 0.72417,-3.90333 0.94362,-5.87208"
       style="fill:#ebc532;fill-opacity:1;fill-rule:nonzero;stroke:none;stroke-width:0.0313495"
       id="path741-8" />
    <path
       d="m 203.25841,234.42978 c -0.56429,2.92868 -1.34803,5.82318 -2.35121,8.65718 -0.99692,2.8202 -2.21015,5.58053 -3.62714,8.25496 -0.70537,1.33298 -1.46403,2.64308 -2.26972,3.93029 -2.4672,-5.27769 -4.65853,-10.65696 -6.55518,-16.11836 -0.55802,-1.6004 -1.08783,-3.208 -1.59255,-4.82156 -0.0533,-0.1649 -0.65834,-0.0195 -0.60819,0.14483 1.78066,5.67646 3.87167,11.2758 6.26364,16.77107 0.68029,1.56214 1.38565,3.11552 2.11296,4.66041 0.0721,0.15488 0.51413,0.0329 0.5831,-0.0759 1.65212,-2.58037 3.113,-5.25731 4.36072,-8.01294 1.25398,-2.76847 2.29478,-5.61376 3.113,-8.50857 0.46398,-1.63896 0.85272,-3.29327 1.17248,-4.95887 0.0376,-0.1812 -0.57056,-0.0878 -0.60191,0.0774"
       style="fill:#ffffff;fill-opacity:1;fill-rule:nonzero;stroke:none;stroke-width:0.0313495"
       id="path743-9" />
    <path
       d="m 280.25937,235.53158 c 0.51647,0.0384 1.02835,0.12453 1.53282,0.25718 0.57432,0.18873 1.1303,0.4378 1.66299,0.74718 0.57679,0.38171 1.11337,0.83397 1.59526,1.36137 0.44662,0.54928 0.82656,1.16099 1.12819,1.82739 0.03,0.0769 0.0614,0.15346 0.0896,0.23178 0.1658,0.46284 0.40463,0.76517 0.81985,0.95497 0.42898,0.19543 1.01424,0.20637 1.45309,0.054 0.45756,-0.15875 0.94474,-0.42156 1.23402,-0.87771 0.21978,-0.34642 0.44944,-0.85795 0.29281,-1.29575 -0.69709,-1.94733 -1.89054,-3.59234 -3.46005,-4.70464 -1.59632,-1.13136 -3.43923,-1.81928 -5.31989,-1.91029 -2.11137,-0.10196 -4.23404,0.34889 -6.07801,1.57691 -1.0294,0.68545 -1.91558,1.48943 -2.74496,2.46415 -0.69885,0.82162 -1.26083,1.75895 -1.76601,2.74603 -1.92863,3.77119 -2.24966,8.64411 -0.72107,12.66013 0.29492,0.77435 0.64029,1.51554 1.03399,2.21686 0.18662,1.09608 0.50129,2.16711 1.07703,3.06282 0.88265,1.37336 2.28212,2.28776 3.69852,2.74178 1.33456,0.42793 2.71674,0.60608 4.10034,0.42757 1.40582,-0.18133 2.76754,-0.61559 4.0446,-1.31586 0.0444,-0.0243 0.0882,-0.0515 0.13264,-0.0765 0.40887,-0.19579 0.80786,-0.42086 1.19204,-0.6798 1.7466,-1.17793 3.27942,-2.85009 4.04918,-5.03732 0.19262,-0.54857 0.32914,-1.12783 0.43039,-1.70638 0.0723,-0.41381 -0.1905,-0.94368 -0.47872,-1.1677 -0.31927,-0.24871 -0.67769,-0.35595 -1.0608,-0.37288 -0.42052,-0.018 -0.88124,0.0663 -1.25625,0.29915 -0.37782,0.23495 -0.82373,0.58773 -0.96379,1.0795 -0.17674,0.62124 -0.4131,1.21426 -0.69744,1.77977 -0.3122,0.54716 -0.66992,1.05657 -1.06644,1.52682 -0.38806,0.41275 -0.80363,0.78705 -1.24425,1.12289 -0.1651,0.11148 -0.33232,0.21767 -0.502,0.31785 -0.008,0.004 -0.0152,0.007 -0.0226,0.0102 -0.34643,0.13441 -0.69956,0.24483 -1.05834,0.32879 0.007,-0.25505 -0.0427,-0.50764 -0.19861,-0.69215 -0.98743,-1.16663 -1.79705,-2.5086 -2.42641,-3.96169 -0.71084,-1.77836 -1.14723,-3.68512 -1.30951,-5.63104 -0.10654,-1.82915 0.0303,-3.66889 0.42263,-5.44724 0.32491,-1.29611 0.78634,-2.54141 1.38677,-3.70241 0.0293,-0.0522 0.0575,-0.10512 0.0871,-0.15698 0.17286,-0.30198 0.34643,-0.66746 0.3309,-1.04422 0.19297,-0.0124 0.3863,-0.0159 0.58032,-0.0145"
       style="fill:#ebc532;fill-opacity:1;fill-rule:nonzero;stroke:none;stroke-width:0.0352778"
       id="path655-0" />
    <path
       d="m 277.31685,235.13541 c -0.3997,-0.14181 -0.94086,0.006 -1.21779,0.32632 -2.80952,3.25367 -4.06294,7.66833 -3.51543,11.91895 0.15381,1.1931 0.46178,2.36044 0.91405,3.47487 0.16051,0.39616 0.64558,0.44943 1.0167,0.3503 0.28716,-0.0773 0.86537,-0.41698 0.7052,-0.81174 -1.51341,-3.73027 -1.31762,-8.0391 0.46426,-11.64343 0.49918,-1.00965 1.11725,-1.94169 1.85314,-2.79365 0.26,-0.30092 0.15205,-0.68932 -0.22013,-0.82162"
       style="fill:#e2ae2b;fill-opacity:1;fill-rule:nonzero;stroke:none;stroke-width:0.0352778"
       id="path657-3" />
    <path
       d="m 276.65151,255.61346 c -0.19368,-0.41346 -0.38735,-0.82691 -0.58067,-1.24072 -0.0219,-0.091 -0.0677,-0.16439 -0.139,-0.22084 -0.0607,-0.0727 -0.13829,-0.12382 -0.23177,-0.1531 -0.19438,-0.0765 -0.45932,-0.0801 -0.65758,-0.0201 -0.20743,0.0632 -0.42827,0.16651 -0.55986,0.34642 -0.0339,0.054 -0.067,0.10831 -0.10089,0.16228 -0.0512,0.11183 -0.0621,0.22754 -0.0332,0.34678 0.19367,0.41381 0.38699,0.82727 0.58067,1.24072 0.0215,0.091 0.0677,0.16475 0.13829,0.22084 0.0614,0.0727 0.13864,0.12382 0.23177,0.15346 0.19474,0.0765 0.45967,0.0797 0.65829,0.0198 0.20743,-0.0628 0.42827,-0.16651 0.55985,-0.34608 0.0335,-0.0543 0.067,-0.1083 0.1009,-0.16263 0.0508,-0.11183 0.0621,-0.22719 0.0332,-0.34678"
       style="fill:#e2ae2b;fill-opacity:1;fill-rule:nonzero;stroke:none;stroke-width:0.0352778"
       id="path659-0" />
    <path
       d="m 316.9133,258.08904 c -1.69413,0.0101 -3.392,-0.0719 -5.07916,0.13712 -0.56587,0.0698 -0.45368,-0.30902 -0.44789,-0.61109 0.0791,-4.38372 0.1635,-8.76686 0.20989,-11.21267 0.16089,-6.24568 0.31511,-10.55403 0.22438,-14.86441 -0.0127,-0.60037 0.10957,-0.82039 0.7569,-0.79691 1.22216,0.0444 2.43303,0.16872 3.64651,0.29859 0.52384,0.0562 0.74734,0.29047 0.79256,0.78241 0.14988,1.63528 0.36121,3.26677 0.45136,4.90465 0.24757,4.48084 0.13104,8.96747 0.16524,13.45178 0.0177,2.34174 0.0632,4.68347 0.13335,7.02433 0.0197,0.65168 -0.21829,0.88272 -0.85314,0.8862 z m 1.19144,-26.62671 c -0.17538,-1.06303 -0.4786,-1.32075 -1.54744,-1.49352 -1.68165,-0.2722 -3.37431,-0.27801 -5.06958,-0.27945 -0.53949,-2.9e-4 -0.77053,0.22496 -0.75923,0.76357 0.0977,4.66173 -0.1003,9.31765 -0.25742,13.97416 -0.25539,4.63013 -0.0484,9.26982 -0.31627,13.89995 -0.0476,0.82329 0.35338,1.19087 1.18682,1.11579 1.93675,-0.17452 3.87987,-0.20177 5.82156,-0.25337 1.3448,-0.0357 1.7176,-0.38584 1.70774,-1.74978 -0.0484,-6.57934 -0.073,-13.15898 -0.17451,-19.73775 -0.0325,-2.08693 -0.25103,-4.17355 -0.59167,-6.2396"
       style="fill:#2f2c2c;fill-opacity:1;fill-rule:nonzero;stroke:none;stroke-width:0.028989"
       id="path525-4" />
    <path
       d="m 327.00806,258.19001 c -1.69413,0.0101 -3.39202,-0.0719 -5.07918,0.13712 -0.56586,0.0698 -0.45368,-0.30902 -0.44789,-0.61109 0.0791,-4.38372 0.1635,-8.76686 0.20989,-11.21267 0.16089,-6.24568 0.31511,-10.55403 0.22438,-14.86441 -0.0127,-0.60037 0.10957,-0.82039 0.7569,-0.79691 1.22217,0.0444 2.43305,0.16872 3.64653,0.29859 0.52384,0.0562 0.74734,0.29047 0.79256,0.78241 0.14988,1.63528 0.36121,3.26677 0.45136,4.90465 0.24757,4.48084 0.13104,8.96747 0.16524,13.45178 0.0177,2.34174 0.0632,4.68347 0.13335,7.02433 0.0197,0.65168 -0.21829,0.88272 -0.85314,0.8862 z m 1.19144,-26.62671 c -0.17538,-1.06303 -0.4786,-1.32075 -1.54744,-1.49352 -1.68165,-0.2722 -3.37433,-0.27801 -5.06959,-0.27945 -0.53949,-2.9e-4 -0.77054,0.22496 -0.75924,0.76357 0.0977,4.66173 -0.1003,9.31765 -0.25741,13.97416 -0.2554,4.63013 -0.0484,9.26982 -0.31628,13.89995 -0.0476,0.82329 0.35339,1.19087 1.18683,1.11579 1.93674,-0.17452 3.87988,-0.20177 5.82157,-0.25337 1.3448,-0.0357 1.7176,-0.38584 1.70774,-1.74978 -0.0484,-6.57934 -0.073,-13.15898 -0.17451,-19.73775 -0.0325,-2.08693 -0.25104,-4.17355 -0.59167,-6.2396"
       style="fill:#2f2c2c;fill-opacity:1;fill-rule:nonzero;stroke:none;stroke-width:0.028989"
       id="path525-3-0" />
    <path
       d="m 330.18691,258.02517 -0.0107,-0.0148 c 0.002,0.006 0.005,0.0119 0.007,0.0177 8.2e-4,-8.2e-4 0.002,-0.002 0.003,-0.002"
       style="fill:#c67379;fill-opacity:1;fill-rule:nonzero;stroke:none;stroke-width:0.028989"
       id="path531-9-59" />
    <path
       d="m 306.72229,256.91702 c -0.84738,0.0201 -1.69545,0.0529 -2.54141,0.10407 -2.89313,0.17462 -5.78697,0.33373 -8.68292,0.45508 -1.28976,0.054 -2.57951,0.11536 -3.86856,0.18309 -0.24942,0.013 -0.28258,-0.0399 -0.17216,-0.26564 2.13396,-4.36774 4.28202,-8.72913 6.38387,-13.1124 1.19874,-2.49907 2.32022,-5.0359 3.47662,-7.55509 0.0522,-0.11394 0.11183,-0.22436 0.20355,-0.40745 0.15346,0.33655 0.19227,0.62371 0.26141,0.9024 1.48802,5.97817 3.03812,11.94012 4.71311,17.8689 0.14076,0.49918 0.29528,0.99484 0.45862,1.48731 0.0787,0.23707 0.0476,0.33303 -0.23213,0.33973 z m 1.56598,0.34713 c 3.5e-4,0 3.5e-4,0 3.5e-4,0 -0.0991,-0.12982 -0.14252,-0.27516 -0.12488,-0.43815 0,-3.5e-4 -3.6e-4,-7e-4 -3.6e-4,-0.001 -0.12735,-0.27093 -0.19896,-0.55703 -0.22648,-0.85478 v 0 0 c 0,3.5e-4 3.5e-4,7.1e-4 7.1e-4,10e-4 -0.10972,-0.21519 -0.15029,-0.44626 -0.15558,-0.68545 l 0.004,0.005 c 0,0 0,0 0,-3.5e-4 -0.17357,-0.52246 -0.31609,-1.05269 -0.3877,-1.6002 l 0.004,0.006 c 0,0 0,0 0,-3.5e-4 -0.14535,-0.26035 -0.17639,-0.55527 -0.25188,-0.83679 -0.0755,-0.0843 -0.0533,-0.18732 -0.055,-0.2854 0,-3.5e-4 0,-3.5e-4 0,-7e-4 -0.10795,-0.16792 -0.12524,-0.36442 -0.17322,-0.55139 -0.0765,-0.084 -0.0526,-0.18768 -0.0554,-0.28611 v 0 0 c -0.12488,-0.27269 -0.20038,-0.5588 -0.23072,-0.85689 0.001,3.5e-4 0.002,0.001 0.004,0.002 -0.13864,-0.26247 -0.20108,-0.54646 -0.23318,-0.83856 l 0.004,0.005 v 0 c -0.11959,-0.15733 -0.12453,-0.35242 -0.17427,-0.53304 v 0 c -0.0769,-0.0843 -0.0533,-0.18803 -0.0557,-0.28681 0,0 0,0 0,-3.5e-4 -0.0988,-0.17145 -0.14676,-0.35737 -0.1524,-0.55457 10e-4,0.001 0.002,0.002 0.002,0.003 -0.13512,-0.26035 -0.19403,-0.54222 -0.23848,-0.82868 0,-3.5e-4 3.5e-4,-3.5e-4 3.5e-4,-3.5e-4 l -3.5e-4,3.5e-4 c -0.1009,-0.1651 -0.121,-0.35524 -0.16651,-0.53728 -0.0751,-0.0843 -0.054,-0.18697 -0.055,-0.28575 l -3.6e-4,-3.5e-4 c -0.0984,-0.1718 -0.14675,-0.35772 -0.15169,-0.55527 h -3.5e-4 c 0,0 0,0 3.5e-4,0 v 0 c 3.5e-4,3.5e-4 7.1e-4,7e-4 10e-4,0.001 -0.11359,-0.15875 -0.12418,-0.35031 -0.17216,-0.52987 -0.11606,-0.36901 -0.26317,-0.72955 -0.2868,-1.12184 v -3.5e-4 c -0.0981,-0.1718 -0.14782,-0.35701 -0.15276,-0.55421 3.6e-4,3.5e-4 7.1e-4,10e-4 0.001,10e-4 -0.1143,-0.15805 -0.12312,-0.35031 -0.17392,-0.52952 -0.0653,-0.16898 -0.12841,-0.33832 -0.12911,-0.52317 0,-3.6e-4 0,-3.6e-4 0,-3.6e-4 -0.0988,-0.16827 -0.14746,-0.35101 -0.15452,-0.54539 3.5e-4,7.1e-4 7.1e-4,0.001 0.001,0.002 -0.10548,-0.16157 -0.14429,-0.3429 -0.15416,-0.53199 7e-4,7.1e-4 0.002,0.001 0.003,0.002 -0.11607,-0.15804 -0.12594,-0.35172 -0.17569,-0.53163 -0.18027,-0.60714 -0.39123,-1.20545 -0.50729,-1.83057 -0.054,-0.0663 -0.0903,-0.13864 -0.0713,-0.22789 -0.0134,-0.019 -0.0162,-0.0392 -0.009,-0.061 v 0 0 c -0.10689,-0.16263 -0.12982,-0.35349 -0.17851,-0.53552 -3.5e-4,0 -3.5e-4,0 -3.5e-4,0 -0.012,-0.0293 -0.024,-0.0586 -0.0356,-0.0878 -0.005,-0.0444 -0.01,-0.0885 -0.0152,-0.133 0,-3.5e-4 0,-3.5e-4 0,-3.5e-4 -0.10054,-0.16898 -0.14887,-0.35313 -0.15451,-0.54892 7e-4,10e-4 0.001,0.002 0.002,0.003 -0.10548,-0.16263 -0.1517,-0.3422 -0.15628,-0.53446 10e-4,0.001 0.003,0.003 0.004,0.004 -0.12595,-0.24024 -0.20885,-0.49319 -0.23072,-0.76482 l 0.003,0.005 v 0 0 c -0.10866,-0.16263 -0.15452,-0.34326 -0.15734,-0.53693 10e-4,0.002 0.002,0.003 0.004,0.005 -0.19932,-0.44274 -0.30868,-0.91405 -0.44521,-1.37689 -0.20672,-0.30516 -0.4519,-0.41699 -0.77187,-0.15417 v 0 c -0.0487,0.0519 -0.0974,0.10372 -0.1457,0.15558 v 0 c -0.0483,0.10124 -0.0967,0.20179 -0.14464,0.30268 v 0 0 c 0,0 0,0 0,3.5e-4 -0.35525,0.90311 -0.7627,1.78012 -1.29787,2.59292 -0.30762,0.49671 -0.48507,1.06327 -0.82127,1.54481 v 0 c -0.002,0.14041 -0.0889,0.24236 -0.15804,0.35243 -0.25329,0.50765 -0.50588,1.01529 -0.75918,1.52294 0,3.5e-4 0,3.5e-4 0,3.5e-4 -0.0512,0.1009 -0.1023,0.20179 -0.15346,0.30269 -0.23495,0.49882 -0.44838,1.00859 -0.75141,1.47284 v 0 c -0.0519,0.14253 -0.10407,0.2847 -0.15628,0.42687 v 0 0 c -0.0413,0.25294 -0.1517,0.47307 -0.31292,0.66957 -0.12382,0.25858 -0.24835,0.51682 -0.37218,0.7754 v 0 0 c -0.0159,0.20074 -0.0963,0.37218 -0.2346,0.51753 -0.14887,0.30903 -0.29774,0.61807 -0.44696,0.92675 0,3.5e-4 0,3.5e-4 0,3.5e-4 v 0 0 c -0.0628,0.30621 -0.19968,0.5775 -0.38806,0.82479 -0.14887,0.30833 -0.2981,0.61666 -0.44732,0.92463 v 0 c 0,3.6e-4 0,3.6e-4 0,3.6e-4 -0.0617,0.30727 -0.19862,0.57926 -0.38771,0.82691 -0.0988,0.20637 -0.19755,0.41239 -0.29668,0.61842 v 0 3.5e-4 c -0.0402,0.25435 -0.14393,0.47942 -0.31009,0.67522 -0.0734,0.15522 -0.14676,0.31044 -0.22014,0.46531 0,0 0,0 0,3.5e-4 -0.0166,0.20214 -0.0949,0.37677 -0.2353,0.52317 -0.073,0.15487 -0.1464,0.3101 -0.21907,0.46496 0,0 -3.6e-4,0 -3.6e-4,3.6e-4 -0.0166,0.20214 -0.0956,0.37676 -0.23601,0.52317 -0.0988,0.20602 -0.1972,0.41204 -0.29562,0.61806 v 0 0 c -0.0413,0.25436 -0.145,0.47978 -0.31186,0.67593 -0.0483,0.10442 -0.0967,0.20884 -0.14464,0.31326 v 0 c -0.0342,0.25859 -0.15134,0.48119 -0.29986,0.68968 v 0 c 0,3.6e-4 0,3.6e-4 0,3.6e-4 l 3.5e-4,-3.6e-4 c -3.5e-4,3.6e-4 -3.5e-4,3.6e-4 -3.5e-4,7.1e-4 -0.18097,0.5528 -0.40358,1.08796 -0.68439,1.59808 7.1e-4,-3.5e-4 10e-4,-10e-4 0.002,-10e-4 v 0 0 c -0.008,0.14535 -0.0557,0.27411 -0.15946,0.37924 -0.0332,0.15134 -0.0907,0.28892 -0.21872,0.38629 -0.15099,0.34325 -0.30586,0.68439 -0.45226,1.0294 -0.0646,0.15135 -0.0907,0.31327 -0.0797,0.47908 -7.1e-4,-3.6e-4 -7.1e-4,-10e-4 -0.002,-10e-4 0.16086,0.17709 0.35524,0.2293 0.59901,0.23742 0.78917,0.0272 1.57727,0.0878 2.36573,0.13582 -0.005,0.005 -0.009,0.0109 -0.0134,0.0162 3.6e-4,0 7.1e-4,0 7.1e-4,0 l 0.0127,-0.0162 c 0.58032,3.5e-4 1.16099,0.001 1.74131,0.002 0.14535,-7.1e-4 0.29034,-10e-4 0.43498,-0.002 0.37218,-0.0938 0.75177,-0.0416 1.12712,-0.0497 0.86995,-0.0183 1.7399,-0.0205 2.6102,-0.0293 0.14182,-0.0762 0.29634,-0.0409 0.44521,-0.0469 0.96943,-0.0374 1.93922,-0.0713 2.90865,-0.10619 v 0 c 0.0187,-0.0113 0.0367,-0.0106 0.0547,0.002 0.0624,-0.0219 0.12524,-0.0374 0.18698,-0.0335 0.42333,-0.0621 0.8516,-0.0325 1.27776,-0.0434 0.0194,-0.0113 0.0388,-0.012 0.0589,-10e-4 0.61136,-0.0956 1.22766,-0.0688 1.84326,-0.0787 v 0 c 0.018,-0.0102 0.0367,-0.0102 0.0554,-3.5e-4 h -3.5e-4 c 0.33196,-0.0977 0.67345,-0.0328 1.00965,-0.0582 0.23812,-0.018 0.47978,-0.007 0.71402,-0.0444 0.64594,-0.1016 0.81386,-0.3616 0.69109,-1.02765"
       style="fill:#7b79cd;fill-opacity:1;fill-rule:nonzero;stroke:none;stroke-width:0.0352778"
       id="path911-88-9" />
    <path
       d="m 306.5265,256.2799 c -0.30974,-1.31656 -0.7112,-2.61055 -0.93945,-3.94688 -0.2734,-1.60125 -0.49707,-3.21239 -0.90629,-4.78684 -0.5521,-2.12513 -1.12995,-4.24356 -1.6704,-6.37187 -0.36583,-1.44004 -0.71014,-2.88431 -1.30034,-4.25238 -0.0815,-0.18945 -0.1524,-0.47202 -0.34995,-0.48084 -0.14147,-0.006 -0.19439,0.29457 -0.27305,0.4639 -0.97261,2.08704 -1.8983,4.19559 -2.80812,6.31155 -0.85371,1.98473 -1.7533,3.94935 -2.62043,5.92808 -1.01952,2.32728 -2.03094,4.65808 -3.11679,6.95466 -0.27375,0.5782 -0.47307,1.19063 -0.78987,1.74943 -0.0646,0.11359 -0.14287,0.2794 0.11042,0.24024 0.53869,-0.0833 1.08021,-0.0116 1.47073,-0.0395 0.84138,-0.0166 1.53459,-0.0494 2.22603,-0.0586 2.82151,-0.0385 5.64409,0.005 8.46455,-0.10301 0.83361,-0.0318 1.66617,-0.0811 2.50049,-0.0624 0.22119,0.005 0.31009,-0.0818 0.26775,-0.29351 -0.0829,-0.4184 -0.16721,-0.83679 -0.26528,-1.25201"
       style="fill:#b3b2e9;fill-opacity:1;fill-rule:nonzero;stroke:none;stroke-width:0.0352778"
       id="path913-3-2" />
    <path
       d="m 290.16346,258.41007 -0.0107,-0.0148 c 0.002,0.006 0.005,0.0119 0.007,0.0177 8.2e-4,-8.2e-4 0.002,-0.002 0.003,-0.002"
       style="fill:#c67379;fill-opacity:1;fill-rule:nonzero;stroke:none;stroke-width:0.028989"
       id="path531-9-5" />
    <path
       d="m 384.71085,238.86635 c 0.29899,0.2537 0.47956,0.54173 0.46476,0.87357 -0.15393,-0.29129 -0.30786,-0.58228 -0.46476,-0.87357 z m -2.27051,-2.65681 c -0.16576,0.0998 -0.38186,0.0136 -0.53876,-0.1421 -0.49436,-0.48666 -1.12193,-0.86261 -1.79095,-1.20807 -0.52988,-0.27501 -1.16929,-0.40704 -1.66069,-0.73089 v -2.9e-4 c -0.50028,-0.1936 -0.9976,-0.38721 -1.49789,-0.5808 h -0.003 c -0.32267,-0.082 -0.64534,-0.164 -0.96801,-0.2457 v 0 c -0.33155,-0.0322 -0.62461,-0.19065 -0.97096,-0.16252 v 0 0 c -0.21905,-0.0373 -0.44107,-0.0746 -0.66013,-0.1119 0.26346,-0.031 0.52692,-0.11545 0.7667,0.0302 0.33451,-0.003 0.66014,0.0388 0.97096,0.13114 0.0326,0.005 0.0711,0.0172 0.10953,0.0317 0.31674,0.0263 0.6187,0.0799 0.87032,0.24037 0.595,0.10005 1.10713,0.33658 1.61924,0.57281 1.23443,0.37092 2.38892,0.84011 3.31548,1.5784 0.0977,0.0785 0.22794,0.14683 0.28418,0.24037 0.0681,0.11693 0.37596,0.22617 0.15393,0.3573 z m -0.0207,6.8645 c -0.25755,-0.71845 -0.16578,-1.3703 -0.14209,-2.01977 0.11841,0.64503 0.25162,1.28918 0.14209,2.01977 z m -0.9828,3.59433 c -0.0651,-0.25695 -0.0947,-0.51213 0.009,-0.84752 0.29011,0.35641 -0.0237,0.59323 -0.009,0.84752 z m -0.37003,-8.41183 c -0.62757,-0.1936 -0.78151,0.1415 -0.99761,0.43871 -0.0355,0.0488 -0.0829,0.1409 -0.18057,0.058 -0.0385,-0.0308 -0.0178,-0.10153 -0.0237,-0.15393 -0.21018,-0.775 -0.50029,-1.53489 -0.86736,-2.32557 0.45292,0.15097 0.73118,0.36766 0.97393,0.61662 0.0591,0.0453 0.1184,0.0906 0.1776,0.13588 -0.41738,0.26553 0.0681,0.50679 0.0355,0.76197 0.15689,0.055 0.30787,0.12107 0.47363,0.009 0.18058,-0.12285 0.30491,-0.077 0.38484,0.0799 v 0 c 0.0355,0.0527 0.068,0.10539 0.10065,0.15837 0.18946,0.12256 0.1036,0.27619 -0.0769,0.22054 z m 0.0711,1.98899 c -0.46179,-0.23534 -0.51211,-0.48696 -0.17169,-1.08316 0.20722,0.38661 0.22794,0.72881 0.17169,1.08316 z m -0.79334,12.09999 c -0.068,-0.2004 -0.077,-0.34842 0.26939,-0.50265 -0.0622,0.2383 -0.074,0.37921 -0.26939,0.50265 z m -2.22019,-0.14741 c -0.0414,0.44817 -0.16576,0.89192 -0.25457,1.33773 -0.29603,-0.44522 -0.54173,-0.88038 -0.58909,-1.35254 -0.0118,-0.11308 -0.0799,-0.36766 0.12729,-0.32089 0.2457,0.056 0.74894,-0.0275 0.71637,0.3357 z m -0.8851,3.34477 c -0.24571,0.1942 -0.48844,0.39401 -0.91472,0.45617 0.13025,-0.40555 0.24274,-0.7667 0.37595,-1.18468 0.24866,0.17761 0.33747,0.41177 0.60093,0.52929 0.12433,0.0562 0.009,0.14298 -0.0622,0.19922 z m -1.21373,-17.49503 c -0.0651,-0.12612 -0.077,-0.23505 0.0118,-0.35849 0.0651,0.12611 0.0799,0.23504 -0.0118,0.35849 z m -1.04792,10.79571 c -0.18946,0.0154 -0.19242,-0.10213 -0.18354,-0.1933 0.068,-0.58258 -0.12137,-1.15509 -0.10953,-1.735 v 0 c 0.0651,-0.7901 -0.18649,-1.57219 -0.10953,-2.36288 v 0 c -0.20426,-0.34664 -0.0799,-0.70364 -0.0504,-1.05887 0.009,0.35759 0.11249,0.70572 0.1569,1.05918 -0.0355,0.57309 0.18649,1.13672 0.10953,1.71101 0.23089,0.43368 0.0888,0.89844 0.18945,1.3478 0.0769,0.33688 0.11249,0.69241 0.13025,1.04142 0.006,0.0781 0.009,0.17938 -0.13321,0.19064 z m -0.12137,7.24016 c -0.25755,-0.13617 -0.15394,-0.30165 -0.15986,-0.52899 0.26346,0.19952 0.20722,0.3496 0.15986,0.52899 z m -1.71991,0.60597 c -0.24866,0.0267 -0.41147,-0.0252 -0.40555,-0.25577 0.0148,-0.48015 0.006,-0.96031 0.006,-1.44016 0.16873,0.27531 0.23682,0.56215 0.38187,0.83538 0.13913,0.26346 0.30195,0.51124 0.55949,0.76463 -0.20722,0.0373 -0.373,0.0775 -0.54173,0.0959 z m -0.93544,-19.4719 v 0 c 0,0.67819 0,1.35668 -0.003,2.03487 v 0 0 c 0,0.92419 0.003,1.84808 0.003,2.77227 v 0 c 0,0.42894 0,0.85788 0,1.28652 -0.0355,5.9e-4 -0.0711,8.4e-4 -0.10656,0.002 0,-0.42953 0,-0.85906 0,-1.2883 0.0711,-1.13792 -0.1717,-2.2705 -0.10657,-3.40842 0.009,-0.14328 -0.0681,-0.30165 0.1036,-0.42361 v 0 c 0,-0.56926 0.003,-1.1388 0.003,-1.70865 0.0414,-0.51479 0.0858,-1.02988 0.12729,-1.54496 0.0118,0.76138 0.22202,1.52335 -0.0207,2.2785 z m 13.91019,0.92419 c -0.65718,-0.9082 -1.5186,-1.71014 -2.24091,-2.58222 -0.3937,-0.47512 -0.90583,-0.8709 -1.51564,-1.19386 -2.03664,-1.08315 -4.26867,-1.85341 -6.7464,-2.09023 -1.34098,-0.12848 -2.72934,-0.14565 -4.01408,0.34486 -0.27827,0.10539 -0.57134,0.21255 -0.92064,0.20249 -0.75487,-0.021 -0.93544,0.12226 -0.95024,0.70957 -0.0148,0.5432 0.0385,1.08966 -0.0266,1.62901 -0.21906,1.83151 -0.39667,3.66597 -0.49732,5.50221 -0.0888,1.56952 -0.16281,3.14052 -0.21609,4.71064 -0.0622,1.87057 -0.0148,3.74322 -0.0148,5.61469 -0.2013,1.22199 -0.0562,2.44102 0.0148,3.65886 0.068,1.15835 0.27233,2.31224 0.41442,3.46852 0.0415,0.32799 0.3434,0.52396 0.70455,0.51982 1.19001,-0.0134 2.35339,0.27442 3.53749,0.16843 1.75838,-0.15689 3.53157,-0.19566 5.28995,-0.38601 1.81167,-0.19626 3.22074,-0.80252 4.25091,-1.9653 1.79094,-2.02363 2.84479,-4.27637 3.69734,-6.59484 0.6631,-1.80575 0.61573,-3.67159 0.72823,-5.51789 0.0711,-1.15952 -0.0769,-2.32557 -0.30787,-3.4777 -0.18946,-0.95586 -0.56245,-1.86258 -1.18706,-2.72105"
       style="fill:#c1d9c8;fill-opacity:1;fill-rule:nonzero;stroke:none;stroke-width:0.0296025"
       id="path841-8" />
    <path
       d="m 374.98053,247.6115 c -0.10064,-0.44936 0.0414,-0.91412 -0.18945,-1.3478 -0.0473,0.2161 0.10952,0.45144 -0.10657,0.65156 -0.0118,0.57991 0.17761,1.15242 0.10953,1.735 -0.009,0.0912 -0.006,0.20869 0.18354,0.1933 0.14209,-0.0113 0.13912,-0.1125 0.13321,-0.19064 -0.0178,-0.34901 -0.0533,-0.70454 -0.13026,-1.04142"
       style="fill:#c1d9c8;fill-opacity:1;fill-rule:nonzero;stroke:none;stroke-width:0.0296025"
       id="path843-6" />
    <path
       d="m 372.09133,238.1929 v 0 0 c -0.17169,0.12196 -0.0947,0.28033 -0.1036,0.4236 -0.0651,1.13792 0.17761,2.27051 0.10657,3.40843 0.0355,3e-4 0.0711,3e-4 0.10656,0 v 0 c 0,-0.92419 -0.003,-1.84808 -0.003,-2.77227 v 0 c -0.23386,-0.34191 -0.0414,-0.70809 -0.10657,-1.05976"
       style="fill:#c1d9c8;fill-opacity:1;fill-rule:nonzero;stroke:none;stroke-width:0.0296025"
       id="path845-2" />
    <path
       d="m 380.88622,238.05732 c -0.0947,-0.11397 0,-0.17229 0.15689,-0.17969 -0.0799,-0.15689 -0.20425,-0.20277 -0.38483,-0.0799 -0.16577,0.1116 -0.31674,0.0456 -0.47364,-0.009 0,3e-4 0,5.9e-4 0,5.9e-4 0,0 0,0 0,-2.9e-4 0.2161,0.39667 0.13913,0.5956 -0.3197,0.81081 0.006,0.0524 -0.0148,0.12314 0.0237,0.15393 0.0977,0.0829 0.14505,-0.009 0.18057,-0.058 0.2161,-0.2972 0.37004,-0.6323 0.99761,-0.4387 0.18057,0.0556 0.26642,-0.098 0.0769,-0.22054 -0.074,0.0793 -0.18353,0.10865 -0.25754,0.0213"
       style="fill:#c1d9c8;fill-opacity:1;fill-rule:nonzero;stroke:none;stroke-width:0.0296025"
       id="path847-8" />
    <path
       d="m 380.18464,237.78852 v 0 c 0.0237,0.29958 0.0385,0.5965 -0.3197,0.81082 0.45883,-0.21521 0.5358,-0.41414 0.3197,-0.81082"
       style="fill:#c1d9c8;fill-opacity:1;fill-rule:nonzero;stroke:none;stroke-width:0.0296025"
       id="path849-4" />
    <path
       d="m 372.0943,236.48424 c 0.2161,0.22942 0.0562,0.49022 0.10656,0.73325 v 3e-4 0 c 0.24275,-0.75516 0.0326,-1.51712 0.0207,-2.2785 -0.0414,0.51508 -0.0858,1.03016 -0.12729,1.54495"
       style="fill:#c1d9c8;fill-opacity:1;fill-rule:nonzero;stroke:none;stroke-width:0.0296025"
       id="path851-7" />
    <path
       d="m 374.79108,246.2637 c 0.0769,-0.57429 -0.14505,-1.13792 -0.10953,-1.71101 -0.0355,-3.1e-4 -0.0711,-3.1e-4 -0.10657,-3.1e-4 v 0 c -0.0769,0.79069 0.17466,1.57278 0.10953,2.36288 0.14802,-0.20633 -0.0385,-0.44464 0.10657,-0.65156"
       style="fill:#c1d9c8;fill-opacity:1;fill-rule:nonzero;stroke:none;stroke-width:0.0296025"
       id="path853-2" />
    <path
       d="m 374.79108,246.2637 c -0.14505,0.20692 0.0414,0.44523 -0.10657,0.65156 v 0 c 0.21609,-0.20012 0.0592,-0.43546 0.10657,-0.65156"
       style="fill:#c1d9c8;fill-opacity:1;fill-rule:nonzero;stroke:none;stroke-width:0.0296025"
       id="path855-4" />
    <path
       d="m 380.18464,237.78823 v 0 c 0.0326,-0.25517 -0.45291,-0.49643 -0.0355,-0.76197 -0.0592,-0.0453 -0.11841,-0.0906 -0.17761,-0.13588 -0.38188,0.36057 0.0504,0.6113 0.21314,0.89785"
       style="fill:#c1d9c8;fill-opacity:1;fill-rule:nonzero;stroke:none;stroke-width:0.0296025"
       id="path857-0" />
    <path
       d="m 380.18464,237.78852 c 0,-2.9e-4 0,-2.9e-4 0,-2.9e-4 v 0 0 0 0 c -0.16281,-0.28655 -0.59501,-0.53728 -0.21313,-0.89785 -0.42628,0.28064 -0.39667,0.40349 0.21313,0.89814"
       style="fill:#c1d9c8;fill-opacity:1;fill-rule:nonzero;stroke:none;stroke-width:0.0296025"
       id="path859-6" />
    <path
       d="m 380.18464,237.78883 c 0,0 0,-3.1e-4 0,-6e-4 v 0 c 0,2.9e-4 0,2.9e-4 0,6e-4"
       style="fill:#c1d9c8;fill-opacity:1;fill-rule:nonzero;stroke:none;stroke-width:0.0296025"
       id="path861-2" />
    <path
       d="m 380.18464,237.78823 v 2.9e-4 c 0,3.1e-4 0,3.1e-4 0,3.1e-4 v -6e-4 0"
       style="fill:#c1d9c8;fill-opacity:1;fill-rule:nonzero;stroke:none;stroke-width:0.0296025"
       id="path863-9" />
    <path
       d="m 380.18464,237.78852 v 0 -2.9e-4 c 0,0 0,0 0,2.9e-4"
       style="fill:#c1d9c8;fill-opacity:1;fill-rule:nonzero;stroke:none;stroke-width:0.0296025"
       id="path865-9" />
    <path
       d="m 380.18464,237.78823 v 0 0 6e-4 c 0,-3.1e-4 0,-3.1e-4 0,-6e-4 v 0"
       style="fill:#c1d9c8;fill-opacity:1;fill-rule:nonzero;stroke:none;stroke-width:0.0296025"
       id="path867-0" />
    <path
       d="m 385.17561,239.73992 c 0.0148,-0.33184 -0.16577,-0.61987 -0.46476,-0.87357 0.1569,0.29129 0.31083,0.58228 0.46476,0.87357"
       style="fill:#c1d9c8;fill-opacity:1;fill-rule:nonzero;stroke:none;stroke-width:0.0296025"
       id="path869-8" />
    <path
       d="m 372.0943,242.02493 c 0,0.42923 0,0.85876 0,1.28829 0.0355,-5.8e-4 0.0711,-8.3e-4 0.10656,-0.002 0,-0.42864 0,-0.85758 0,-1.28652 -0.0355,0.0364 -0.0711,0.0385 -0.10656,0"
       style="fill:#c1d9c8;fill-opacity:1;fill-rule:nonzero;stroke:none;stroke-width:0.0296025"
       id="path871-1" />
    <path
       d="m 372.20086,242.02493 c -0.0355,3e-4 -0.0711,3e-4 -0.10656,0 0.0355,0.0385 0.0711,0.0364 0.10656,0"
       style="fill:#c1d9c8;fill-opacity:1;fill-rule:nonzero;stroke:none;stroke-width:0.0296025"
       id="path873-3" />
    <path
       d="m 374.68155,244.55269 c -0.0444,-0.35346 -0.14801,-0.70159 -0.15689,-1.05918 -0.0296,0.35523 -0.15394,0.71223 0.0504,1.05887 0.0355,-0.0382 0.0711,-0.0379 0.10657,3.1e-4"
       style="fill:#c1d9c8;fill-opacity:1;fill-rule:nonzero;stroke:none;stroke-width:0.0296025"
       id="path875-1" />
    <path
       d="m 374.57498,244.55238 c 0.0355,0 0.0711,0 0.10657,3.1e-4 -0.0355,-0.0382 -0.0711,-0.0385 -0.10657,-3.1e-4"
       style="fill:#c1d9c8;fill-opacity:1;fill-rule:nonzero;stroke:none;stroke-width:0.0296025"
       id="path877-1" />
    <path
       d="m 374.85621,256.08372 c 0.0473,-0.17939 0.1036,-0.32947 -0.15986,-0.52899 0.006,0.22734 -0.0977,0.39282 0.15986,0.52899"
       style="fill:#c1d9c8;fill-opacity:1;fill-rule:nonzero;stroke:none;stroke-width:0.0296025"
       id="path879-0" />
    <path
       d="m 375.1167,233.05747 c -0.23978,-0.14565 -0.50324,-0.0613 -0.7667,-0.0302 0.21906,0.0373 0.44108,0.0746 0.66014,0.1119 v 0 c -0.0267,-0.0728 -0.009,-0.1125 0.10656,-0.0817"
       style="fill:#c1d9c8;fill-opacity:1;fill-rule:nonzero;stroke:none;stroke-width:0.0296025"
       id="path881-3" />
    <path
       d="m 375.01014,233.13917 c 0.0355,-0.0273 0.0711,-0.0542 0.10656,-0.0817 -0.11544,-0.0308 -0.13321,0.009 -0.10656,0.0817"
       style="fill:#c1d9c8;fill-opacity:1;fill-rule:nonzero;stroke:none;stroke-width:0.0296025"
       id="path883-4" />
    <path
       d="m 376.0255,238.04785 c 0.0918,-0.12345 0.0769,-0.23238 0.0118,-0.35849 -0.0888,0.12344 -0.077,0.23237 -0.0118,0.35849"
       style="fill:#c1d9c8;fill-opacity:1;fill-rule:nonzero;stroke:none;stroke-width:0.0296025"
       id="path885-0" />
    <path
       d="m 383.55044,249.11294 c -0.69861,2.14706 -2.14618,3.96909 -4.0881,5.12152 -1.95375,1.15834 -4.25979,1.61807 -6.49477,1.10002 -0.10361,-5.32607 -0.0444,-10.6551 0.18354,-15.97732 0.0591,-1.42654 0.13617,-2.85249 0.21905,-4.27785 4.3782,0.0675 8.62912,2.91436 10.09147,7.09363 0.77854,2.22907 0.82295,4.69229 0.0888,6.94 z m 1.68438,-6.25825 c -0.61277,-2.47151 -2.08105,-4.62153 -4.09994,-6.15997 -2.28531,-1.74151 -5.18338,-2.64025 -8.0489,-2.54167 -0.2309,0.008 -0.57725,0.0992 -0.7519,0.30105 -0.21314,0.0779 -0.41444,0.20663 -0.42332,0.39905 -0.32859,5.44537 -0.48844,10.90139 -0.47659,16.35683 0.006,1.5411 0.0237,3.0822 0.0533,4.62271 0.003,0.12108 0.18353,0.24274 0.28122,0.26909 4.89328,1.31523 10.57399,-1.10299 12.74385,-5.74998 1.0864,-2.32527 1.33802,-5.00518 0.7223,-7.49711"
       style="fill:#ffffff;fill-opacity:1;fill-rule:nonzero;stroke:none;stroke-width:0.0296025"
       id="path887-3" />
    <path
       d="m 389.08059,257.21413 c -0.0679,-0.12817 -0.32227,-0.1039 -0.43185,0.0186 0.14343,-0.008 0.28724,-0.0141 0.43185,-0.0186"
       style="fill:#d8673f;fill-opacity:1;fill-rule:nonzero;stroke:none;stroke-width:0.0195672"
       id="path923-1-9" />
    <path
       d="m 392.41189,249.42308 c 0.1673,-0.0208 0.3346,-0.0415 0.5017,-0.0622 0.005,0.008 0.01,0.0153 0.0153,0.0225 -0.17239,0.0133 -0.34458,0.0268 -0.51696,0.0401 0,-2e-4 0,-2e-4 0,-3.9e-4 z m -1.04136,3.16479 c 0.007,-0.10273 0.0149,-0.20546 0.0225,-0.30799 l 0.0157,-0.21563 c 0.0162,-0.007 0.0311,-0.0147 0.0431,-0.0242 -0.026,0.18276 -0.0528,0.36532 -0.0812,0.54788 z m 7.0064,3.81833 c -0.43869,-2.30442 -0.87758,-4.60865 -1.31627,-6.91287 -0.49447,-2.59715 -0.98912,-5.1943 -1.48379,-7.79144 -0.13462,-0.70638 -0.26904,-1.41294 -0.40367,-2.11932 -0.036,-0.0474 -0.063,-0.10469 -0.0773,-0.17317 -0.1626,-0.77309 -0.35221,-1.69901 -0.79521,-2.42241 -0.28901,-0.28177 -0.57958,-0.56216 -0.86331,-0.84902 l -0.18275,0.005 c -0.0732,0.002 -0.13776,-0.008 -0.1943,-0.027 -0.0133,0.22385 0.26083,0.35828 0.46413,0.30994 0.0278,0.0279 0.0508,0.0618 0.0716,0.0986 -0.0722,0.0438 -0.11994,0.12542 -0.10057,0.21328 0.5741,2.62825 1.12433,5.26141 1.65049,7.89944 0.033,0.16574 0.0651,0.33167 0.098,0.4974 -0.003,0.0879 -0.011,0.17571 -0.0252,0.26298 -0.0157,0.0957 0.037,0.16828 0.117,0.20448 0.20057,1.0169 0.39702,2.03479 0.59034,3.05306 -0.0162,-0.011 -0.0338,-0.0201 -0.0529,-0.0266 -0.0491,-0.0722 -0.11545,-0.12601 -0.18041,-0.12053 -0.0258,0.002 -0.0519,0.004 -0.0779,0.007 -0.0217,-0.0108 -0.045,-0.0188 -0.0702,-0.0213 -0.49486,-0.0495 -0.98775,0.001 -1.46284,0.13931 -0.0595,0.008 -0.11878,0.0157 -0.17806,0.0245 -0.0562,0.008 -0.0839,0.0446 -0.0918,0.0931 -0.37921,-0.0164 -0.76469,-0.0371 -1.14351,-0.0172 -0.0407,0.002 -0.082,0.006 -0.12327,0.0105 0.37197,-1.9303 0.6917,-3.87038 0.95703,-5.8177 0.0845,-0.62048 0.16378,-1.24154 0.23774,-1.86338 0.007,-0.0604 -0.0164,-0.12054 -0.0552,-0.17082 -5.6e-4,-0.0192 -0.002,-0.0386 -0.003,-0.0577 0.0571,-0.30506 0.11349,-0.60991 0.16907,-0.91516 0.0325,-0.17865 -0.43518,-0.35201 -0.46081,-0.21094 -0.012,0.0663 -0.0251,0.13247 -0.037,0.19881 -0.0375,-0.01 -0.0759,-0.008 -0.0908,0.0323 -0.0371,0.0998 -0.0744,0.19959 -0.11154,0.29938 -0.0375,0.10136 0.0176,0.21583 0.0847,0.29547 -0.3708,1.98293 -0.77741,3.95941 -1.22472,5.92727 -0.1442,0.63457 -0.29252,1.26815 -0.44456,1.90076 -0.008,0.0325 0.002,0.0649 0.0233,0.0957 -0.19,0.53575 -0.33871,1.08481 -0.44438,1.64305 -0.01,0.0524 0.0298,0.0912 0.0902,0.11467 -0.0423,0.12582 -0.0836,0.25182 -0.12346,0.37862 -0.0364,0.0351 -0.0614,0.0769 -0.0648,0.12249 -0.003,0.0395 -0.006,0.079 -0.009,0.11858 -0.15948,0.53241 -0.29625,1.07129 -0.4074,1.61546 -0.20701,1.01534 -0.30407,2.0434 -0.39897,3.07341 -0.0548,0.59641 -0.10957,1.19281 -0.16436,1.78922 -0.009,0.0953 0.0632,0.1761 0.15399,0.22267 0.001,0.0151 0.003,0.0302 0.005,0.0452 0.0429,-0.003 0.0857,-0.003 0.12836,-0.006 0.027,0.003 0.0531,0.002 0.0769,-0.003 0.1133,-0.006 0.22659,-0.0112 0.33988,-0.0145 0.0135,-0.01 0.0272,-0.0196 0.0419,-0.0278 0.10116,-0.0567 0.1898,-0.13051 0.28195,-0.19998 0.40095,-2.02558 0.73339,-4.06428 0.99226,-6.11218 0.0598,-0.47568 0.11466,-0.95233 0.16652,-1.42919 1.01964,-0.079 2.03909,-0.1581 3.05853,-0.23715 0.0926,-0.007 0.20507,-0.0378 0.25653,-0.12014 0.13247,-0.009 0.26494,-0.0172 0.39741,-0.0284 0.0505,-0.005 0.0777,-0.0292 0.0892,-0.0643 0.20232,1.07482 0.40131,2.15023 0.59543,3.22642 0.2575,1.4284 0.50776,2.85798 0.75117,4.28892 -0.002,5.6e-4 -0.003,0.002 -0.005,0.003 -0.14382,-0.08 -0.48096,-0.0243 -0.43009,0.14304 0.0349,0.11388 0.0697,0.22757 0.1041,0.34125 0.40582,-0.0955 0.81673,-0.1718 1.22705,-0.25731 0.0401,-0.14108 0.0865,-0.2802 0.13345,-0.41932 -0.0184,-0.0859 -0.0368,-0.1718 -0.0552,-0.2577"
       style="fill:#d8673f;fill-opacity:1;fill-rule:nonzero;stroke:none;stroke-width:0.0195672"
       id="path925-1" />
    <path
       d="m 391.96361,248.2514 c 0.27903,-1.7135 0.55453,-3.42738 0.82358,-5.14224 0.17532,-1.11749 0.34672,-2.23555 0.51774,-3.35361 0.6512,2.7392 1.25172,5.48858 1.79646,8.24754 -1.05075,0.0278 -2.09799,0.11173 -3.13778,0.24831 z m -1.02963,0.1536 c -0.0959,0.0159 -0.19214,0.0311 -0.28803,0.0479 0.3575,-2.01268 0.77193,-4.01695 1.24135,-6.01084 -0.31053,1.98861 -0.62929,3.97605 -0.95332,5.9629 z m -0.82377,4.97494 c -0.21935,1.30005 -0.44222,2.59951 -0.66763,3.89856 0.25437,-2.69107 0.60932,-5.37431 1.06386,-8.04346 0.0677,0.054 0.1358,0.0853 0.19352,0.0745 0.0297,-0.006 0.0599,-0.0108 0.0898,-0.0163 -0.22365,1.36265 -0.44965,2.72492 -0.67956,4.0866 z m 2.84291,-15.09663 c 0.0366,0.1493 0.071,0.29938 0.10723,0.44887 -0.0732,-0.0129 -0.14949,-0.0197 -0.22346,-0.0205 0.0391,-0.14284 0.0767,-0.28588 0.11623,-0.42833 z m 1.63914,2.64822 c -0.3528,-1.52193 -0.72242,-3.04053 -1.1077,-4.55562 -0.0951,-0.37432 -0.86213,-0.43635 -0.98089,-0.0341 -1.59004,5.38154 -2.7668,10.86113 -3.52327,16.39061 -0.21211,1.5501 -0.39095,3.10393 -0.53692,4.6603 -0.016,0.17004 0.18667,0.26357 0.36434,0.29449 -0.003,0.0334 0.007,0.0665 0.039,0.0939 0.0683,0.0574 0.17316,0.0742 0.26219,0.0718 0.21857,-0.006 0.43733,-0.0121 0.65609,-0.0182 0.11759,-0.003 0.23715,-0.0282 0.34633,-0.0708 0.14715,-0.0137 0.26338,-0.0585 0.27825,-0.1446 0.004,-0.0213 0.007,-0.0429 0.0112,-0.0643 0.0172,-0.0346 0.0264,-0.0718 0.018,-0.10703 0.48115,-2.77442 0.94822,-5.551 1.40316,-8.32914 1.13743,-0.17121 2.28485,-0.27708 3.43657,-0.31817 0.24126,1.24722 0.47235,2.49618 0.69171,3.74691 0.26923,1.53661 0.52165,3.07577 0.75802,4.61707 0.0681,0.44397 1.06015,0.38116 0.99323,-0.0555 -0.8318,-5.42441 -1.86807,-10.82121 -3.10922,-16.17752"
       style="fill:#f28559;fill-opacity:1;fill-rule:nonzero;stroke:none;stroke-width:0.0195672"
       id="path927-9" />
  </g>
</svg>
