<?xml version="1.0" encoding="UTF-8" standalone="no"?>
<!-- Created with Inkscape (http://www.inkscape.org/) -->

<svg
   width="162.27977mm"
   height="48.536396mm"
   viewBox="0 0 162.27977 48.536396"
   version="1.1"
   id="svg21771"
   inkscape:version="1.1.1 (1:1.1+202109281949+c3084ef5ed)"
   sodipodi:docname="rm-doodledo.svg"
   xmlns:inkscape="http://www.inkscape.org/namespaces/inkscape"
   xmlns:sodipodi="http://sodipodi.sourceforge.net/DTD/sodipodi-0.dtd"
   xmlns="http://www.w3.org/2000/svg"
   xmlns:svg="http://www.w3.org/2000/svg">
  <sodipodi:namedview
     id="namedview21773"
     pagecolor="#ffffff"
     bordercolor="#666666"
     borderopacity="1.0"
     inkscape:pageshadow="2"
     inkscape:pageopacity="0.0"
     inkscape:pagecheckerboard="0"
     inkscape:document-units="mm"
     showgrid="false"
     inkscape:zoom="0.71090067"
     inkscape:cx="291.88325"
     inkscape:cy="-335.48991"
     inkscape:window-width="1920"
     inkscape:window-height="970"
     inkscape:window-x="0"
     inkscape:window-y="27"
     inkscape:window-maximized="1"
     inkscape:current-layer="layer1" />
  <defs
     id="defs21768" />
  <g
     inkscape:label="Layer 1"
     inkscape:groupmode="layer"
     id="layer1"
     transform="translate(-27.908989,-237.37466)">
    <path
       d="m 143.99951,261.42656 c -0.018,0.30339 -0.0529,0.60678 -0.10689,0.9278 -4.98298,0.67028 -10.06581,1.13948 -15.113,1.39348 -0.0219,0 -0.12947,0.007 -0.26282,0.0388 -0.12241,-0.0882 -0.26423,-0.13405 -0.37853,-0.14816 -0.35419,-0.0423 -0.70838,0.13052 -0.89888,0.43744 -0.45085,0.73025 -0.47766,1.64394 -0.49741,2.31069 -0.0212,0.73378 0.0293,1.46756 0.15099,2.17664 0.25929,1.51342 0.85972,2.90689 1.73602,4.03225 1.7593,2.25073 4.5854,3.36198 7.20019,2.82575 1.43581,-0.2928 2.69769,-1.016 3.59481,-2.05669 0.0148,0.0176 0.0286,0.0317 0.0413,0.0494 0.18062,0.20461 0.34537,0.42686 0.51964,0.66322 0.073,0.0988 0.14569,0.19756 0.21943,0.29281 l 1.31868,1.72861 c -3.92853,2.66347 -9.05863,2.86455 -12.6178,0.45508 -3.35245,-2.27189 -5.31425,-6.52992 -5.24793,-11.39472 0.0335,-2.44828 0.51929,-5.03061 1.40512,-7.46478 0.80433,-2.20839 2.00907,-3.90525 3.58034,-5.04825 1.78541,-1.29822 3.94229,-1.92264 6.05331,-1.85561 1.53141,0.0529 3.03954,0.46919 4.36387,1.25941 3.17182,1.89442 5.1569,5.66562 4.93959,9.37684 z m -2.92664,-9.80017 c -3.31223,-2.47297 -8.05215,-2.70228 -12.07523,-0.58561 -1.9752,1.03717 -3.56658,2.6035 -4.60163,4.52967 -0.57292,1.06539 -1.03364,2.27541 -1.44992,3.80647 -0.38312,1.41111 -0.64594,2.80105 -0.77999,4.13456 -0.29598,2.93511 0.005,5.60916 0.8957,7.94808 0.84878,2.22603 2.20274,4.13808 3.91548,5.52097 1.87325,1.51695 4.23686,2.36008 6.85306,2.44475 0.10372,0.004 0.20849,0.007 0.31292,0.007 2.50895,0.0247 5.11986,-0.65617 7.35259,-1.91911 0.54469,-0.30692 1.07879,-0.65617 1.58785,-1.03717 0.0586,-0.0459 0.21379,-0.16228 0.24377,-0.37747 0.0183,-0.13053 -0.0183,-0.26459 -0.1023,-0.37395 -0.25224,-0.33161 -0.50553,-0.6738 -0.75036,-1.00541 -0.51788,-0.70203 -1.0534,-1.42875 -1.62948,-2.10609 -0.42192,-0.49389 -0.91969,-0.71614 -1.47814,-0.65616 -0.13758,0.0141 -0.28399,0.0459 -0.42616,0.0882 -0.23212,0.0282 -0.43356,0.13053 -0.56232,0.28222 -0.13582,0.10936 -0.24166,0.23284 -0.31574,0.37747 -1.30528,1.40406 -3.45193,1.8415 -5.36328,1.09362 -2.05282,-0.80434 -3.59904,-2.73756 -4.13562,-5.17878 -0.14781,-0.67028 -0.21978,-1.36878 -0.21343,-2.07434 0.005,-0.53269 0.01,-1.12888 0.1778,-1.61572 5.31919,-0.26811 10.72127,-0.77964 16.0581,-1.52047 0.11606,-0.0141 0.6985,-0.11642 0.79339,-0.55739 0.89253,-4.1275 -0.83855,-8.63953 -4.30706,-11.22539"
       style="fill:#d8673f;fill-opacity:1;fill-rule:nonzero;stroke:none;stroke-width:0.0352778"
       id="path279" />
    <path
       d="m 128.9807,259.84259 c -0.004,-0.0212 -0.009,-0.0388 -0.0134,-0.0564 -0.0176,-0.0564 -0.0452,-0.10936 -0.0811,-0.15875 0.30727,-2.02494 1.17299,-4.51908 3.51967,-5.40808 2.49943,-0.94897 5.47299,-0.20814 7.07037,1.76389 0.74895,0.9278 1.17616,2.07786 1.20015,3.20675 z m 8.30686,-7.01675 c -3.29847,-0.97367 -6.80614,0.11994 -8.53087,2.66347 -0.83467,1.23119 -1.34196,2.78341 -1.55152,4.74133 -0.0116,0.11642 0.007,0.22578 0.055,0.32456 0.0102,0.0847 0.0314,0.17286 0.0628,0.254 0.0684,0.18344 0.23495,0.39158 0.63852,0.40569 0.0378,0 0.0773,0 0.11889,-0.004 l 13.3544,-0.74436 c 0.30127,-0.0141 0.76941,-0.23636 0.81668,-0.66322 0.34502,-3.09033 -1.74272,-6.02544 -4.96393,-6.97794"
       style="fill:#d8673f;fill-opacity:1;fill-rule:nonzero;stroke:none;stroke-width:0.0352778"
       id="path281" />
    <path
       d="m 126.98328,280.83286 c -0.26741,-0.92427 -1.36984,-1.02658 -2.16288,-0.89252 l -2.7679,0.46919 c -0.77293,0.13053 -1.54658,0.28222 -2.32374,0.39511 -0.0575,0.007 -0.11501,0.0106 -0.17251,0.0141 -0.0399,-0.0564 -0.0773,-0.11289 -0.11078,-0.17639 -0.2614,-0.73377 -0.26634,-1.56633 -0.33478,-2.33186 -0.0914,-1.03364 -0.17568,-2.06727 -0.25188,-3.10091 -0.15029,-2.04259 -0.27059,-4.08517 -0.36019,-6.12775 -0.0487,-1.10773 -0.0875,-2.21898 -0.11889,-3.3267 -0.121,-4.68136 -0.0864,-9.36272 0.10901,-14.04055 0.0557,-1.33703 0.12488,-2.67406 0.20638,-4.01109 0.024,-0.39158 -0.0956,-0.71614 -0.41134,-0.96661 -0.32562,-0.254 -0.84808,-0.37394 -1.25272,-0.35278 -0.49071,0.0282 -1.01635,0.1517 -1.41499,0.45156 -0.30303,0.2293 -0.66428,0.56444 -0.68897,0.97014 -0.34431,5.64797 -0.45897,11.30653 -0.34149,16.96155 0.061,2.91748 0.17568,5.83495 0.35454,8.74889 0.0868,1.41111 0.18803,2.82223 0.30374,4.22981 0.0589,0.71967 0.12171,1.43933 0.18838,2.159 0.0487,0.52564 0.0832,1.06892 0.26141,1.56986 0.30833,0.87136 0.88653,1.58045 1.80058,1.8662 0.55774,0.17286 1.12924,0.254 1.71521,0.21519 0.48824,-0.0353 0.97366,-0.11994 1.45626,-0.20108 1.57727,-0.26811 3.15489,-0.53623 4.73252,-0.80081 0.43074,-0.0741 0.94544,-0.34925 1.24036,-0.67733 0.23072,-0.254 0.44909,-0.68439 0.34467,-1.04423"
       style="fill:#e2a56d;fill-opacity:1;fill-rule:nonzero;stroke:none;stroke-width:0.0352778"
       id="path295" />
    <path
       d="m 85.202391,279.36178 c -0.568677,0.79728 -1.201561,1.55928 -1.927578,2.21897 -0.05009,0.0459 -0.101247,0.0882 -0.1524,0.13406 -0.0078,0.007 -0.01552,0.0141 -0.02364,0.0176 -0.09878,0.0776 -0.197555,0.15875 -0.300214,0.2293 -0.104775,0.0776 -0.212372,0.14817 -0.321733,0.2152 -0.04551,0.0247 -0.09066,0.0494 -0.136878,0.0741 -0.0314,0.0141 -0.08079,0.0317 -0.122061,0.0494 -0.02152,0 -0.04339,0.004 -0.06491,0.004 -0.06526,-0.004 -0.130528,-0.007 -0.195792,-0.0141 -0.0074,-0.004 -0.01517,-0.004 -0.02223,-0.004 -0.04904,-0.0141 -0.163689,-0.0282 -0.177447,-0.0317 -0.236008,-0.0564 -0.464608,-0.13758 -0.686858,-0.23283 -0.969081,-0.47625 -1.752248,-1.25942 -2.391128,-2.12373 -0.930981,-1.30527 -1.588911,-2.82575 -2.067278,-4.34975 -0.499533,-1.59455 -0.784931,-3.25614 -0.854075,-4.92477 -0.0381,-0.91017 -0.0092,-1.82739 0.08149,-2.73403 0.23883,-2.16253 0.831497,-4.30742 1.833386,-6.24417 0.253294,-0.48683 0.536222,-0.95956 0.848078,-1.41464 0.350308,-0.48683 0.734836,-0.94897 1.165225,-1.36525 0.108302,-0.10583 0.21978,-0.21167 0.333727,-0.31044 0.06068,-0.0529 0.285398,-0.21873 0.0254,-0.0247 0.07091,-0.0529 0.138642,-0.11289 0.208845,-0.1658 0.112889,-0.0847 0.227894,-0.16934 0.345369,-0.24695 0.05856,-0.0388 0.117828,-0.0776 0.177448,-0.11641 0.02117,-0.0141 0.04233,-0.0247 0.06385,-0.0388 0.03387,-0.0176 0.06738,-0.0353 0.100895,-0.0529 0.03351,-0.007 0.06597,-0.0141 0.08467,-0.0176 0.0067,0 0.01305,-0.004 0.01975,-0.004 -0.04304,0.0952 -0.02928,0.1905 0.07726,0.28222 1.100667,0.9278 2.081742,1.99319 2.933701,3.15383 1.062919,1.48167 1.913466,3.1115 2.5273,4.82953 0.621947,1.7392 1.002947,3.56658 1.119716,5.41161 0.05186,0.81139 0.04904,1.62278 -0.0039,2.43417 -0.357717,1.29822 -0.857956,2.55764 -1.500011,3.74297 -0.301625,0.55739 -0.635706,1.09714 -0.998009,1.61925 z m 5.559426,-14.99305 c -0.26917,-1.11478 -0.651228,-2.20839 -1.151467,-3.24203 -0.182386,-0.37748 -0.384881,-0.75142 -0.607131,-1.11125 0.03069,-0.06 0.04657,-0.11995 0.03034,-0.18698 -0.518936,-2.10961 -2.631369,-3.23497 -4.647847,-3.47133 -1.400175,-0.1658 -2.88537,0.0847 -4.183945,0.61736 -0.127353,0.0529 -0.252236,0.10936 -0.377472,0.16581 -0.03775,0.0141 -0.0762,0.0247 -0.113947,0.0388 -1.313745,0.4445 -2.539648,1.16417 -3.569053,2.09198 -0.924631,0.83255 -1.657703,1.89794 -2.211212,3.00919 -1.119364,2.24367 -1.54693,4.79425 -1.728258,7.27428 -0.168628,2.30717 -0.04763,4.66019 0.556683,6.8968 0.597253,2.21545 1.7145,4.31095 3.406423,5.88081 0.940152,0.87136 2.096911,1.57692 3.348567,1.88736 1.567391,0.39159 3.252964,0.19403 4.749094,-0.38453 1.216025,-0.46919 2.314223,-1.20297 3.195109,-2.16958 0.768703,-0.83961 1.389239,-1.83092 1.859844,-2.86808 0.757062,-1.66511 1.141237,-3.51367 1.269648,-5.34811 0.191205,-0.70556 0.34043,-1.41817 0.446616,-2.13784 0.339725,-2.30716 0.275167,-4.67078 -0.271991,-6.94266"
       style="fill:#ebc532;fill-opacity:1;fill-rule:nonzero;stroke:none;stroke-width:0.0352778"
       id="path297" />
    <path
       d="m 82.181555,282.311 c -0.0035,0 -0.0071,0 -0.01023,0.004 0.0042,0 0.0085,-0.004 0.0127,-0.004 -0.0011,0 -0.0018,0 -0.0025,0"
       style="fill:#ebc532;fill-opacity:1;fill-rule:nonzero;stroke:none;stroke-width:0.0352778"
       id="path299" />
    <path
       d="m 82.768577,281.71834 c -1.6256,-0.31397 -2.815872,-1.73567 -3.632553,-3.07623 -0.954264,-1.56633 -1.618544,-3.32316 -2.036233,-5.10469 -0.845609,-3.60186 -0.645936,-7.493 0.694267,-10.95375 0.686858,-1.77447 1.709561,-3.50308 3.386666,-4.49439 0.200731,-0.11994 0.292453,-0.40922 0.07197,-0.55386 -0.249767,-0.16581 -0.588786,-0.0565 -0.819856,0.0776 -1.607608,0.9525 -2.718152,2.54353 -3.461808,4.22628 -0.775406,1.7533 -1.248833,3.65125 -1.440039,5.55625 -0.390878,3.89819 0.396169,7.92339 2.321278,11.34533 0.993775,1.76389 2.4384,3.3655 4.506031,3.76414 0.256116,0.0494 0.630061,-0.10583 0.749653,-0.34219 0.134408,-0.26811 -0.119945,-0.40217 -0.339373,-0.4445"
       style="fill:#000000;fill-opacity:1;fill-rule:nonzero;stroke:none;stroke-width:0.0352778"
       id="path301" />
    <path
       d="m 86.555647,259.20759 c -0.138289,-0.14464 -0.586317,0.0141 -0.737306,0.067 -0.08996,0.0353 -0.482247,0.17639 -0.344664,0.3175 1.468614,1.49931 2.420409,3.4537 2.714978,5.52803 0.03069,0.2152 1.187803,-0.0212 1.147234,-0.30691 -0.300214,-2.11314 -1.28517,-4.08164 -2.780242,-5.60564"
       style="fill:#000000;fill-opacity:1;fill-rule:nonzero;stroke:none;stroke-width:0.0352778"
       id="path303" />
    <path
       d="m 89.953603,267.45906 c 0,0 0,-0.004 0,-0.007 0.0134,-0.0423 0.0067,-0.0847 -0.02117,-0.11641 -0.0018,-0.007 -0.0063,-0.0106 -0.0088,-0.0141 -0.03457,-0.13759 -0.08149,-0.27164 -0.144992,-0.39864 -0.0127,-0.0423 -0.03916,-0.0776 -0.07973,-0.0988 -0.04092,-0.0353 -0.0889,-0.0529 -0.14358,-0.06 -0.132292,-0.0317 -0.300214,-0.0176 -0.428978,0.0212 -0.134056,0.0388 -0.281517,0.0952 -0.382411,0.19403 -0.05574,0.0564 -0.156986,0.16581 -0.112536,0.254 0.08467,0.16581 0.140405,0.34572 0.172861,0.5327 -0.0018,0.20461 -0.0035,0.40922 -0.0049,0.61383 -0.01376,0.0459 -0.0067,0.0847 0.02081,0.11994 0.01799,0.0423 0.05045,0.0741 0.09737,0.0882 0.105128,0.0564 0.265289,0.06 0.378884,0.0423 0.149577,-0.0212 0.306916,-0.0635 0.433916,-0.14464 0.08714,-0.06 0.195087,-0.13758 0.216606,-0.24694 0.05045,-0.25753 0.05221,-0.52211 0.0067,-0.77964"
       style="fill:#000000;fill-opacity:1;fill-rule:nonzero;stroke:none;stroke-width:0.0352778"
       id="path305" />
    <path
       d="m 99.371006,265.45528 c -0.35313,0.6597 -0.714728,1.31586 -1.092553,1.96145 -0.249061,0.42686 -0.793044,1.54516 -1.389591,1.47108 -0.739776,-0.0917 -0.783167,-1.1042 -0.807862,-1.64747 -0.03845,-0.86078 -0.0053,-1.72509 0.103364,-2.57881 0.215547,-1.68981 0.706967,-3.34433 1.449211,-4.87892 0.365478,-0.75494 0.770467,-1.57691 1.364898,-2.18369 0.301625,-0.31045 0.470958,-0.45508 0.865011,-0.20108 0.336196,0.21519 0.548216,0.5715 0.480836,0.97366 -0.0413,0.25047 0.37924,0.29986 0.80151,0.22931 -0.0303,0.254 -0.0635,0.51153 -0.0907,0.76905 -0.11395,1.07245 -0.19826,2.15195 -0.25506,3.23145 -0.45649,0.96308 -0.927097,1.91558 -1.4291,2.85397 z m 5.378094,-17.72356 c 0.47484,-1.91558 0.97932,-3.82764 1.5547,-5.71852 0.20073,-0.65617 0.42792,-1.31234 0.71437,-1.93323 -0.53799,5.66562 -1.79352,11.25714 -3.73874,16.61231 -0.14887,0.41275 -0.31221,0.81844 -0.46955,1.22414 0.4244,-3.429 1.1102,-6.83331 1.93922,-10.1847 z m 5.75487,20.29531 c -0.60607,1.62278 -1.32574,3.20322 -2.17064,4.71664 -0.38206,0.68792 -0.78846,1.35819 -1.21779,2.01436 -0.4057,0.62089 -0.88124,1.3582 -1.53317,1.75683 -1.17793,0.7232 -2.1142,-1.62983 -2.32622,-2.40241 -0.42757,-1.56634 -0.58597,-3.24203 -0.72778,-4.8507 -0.20214,-2.28952 -0.22719,-4.58258 -0.1136,-6.86858 0.0787,-0.16581 0.15946,-0.32808 0.23636,-0.49389 1.68311,-3.6195 3.04201,-7.38717 4.05942,-11.24303 1.13171,-4.28625 1.83021,-8.67833 2.10714,-13.10217 0.0258,-0.40922 -1.29434,-0.007 -1.4411,0.11289 -1.29399,1.06186 -2.00695,2.48003 -2.51848,4.04284 -0.60184,1.83444 -1.08126,3.7218 -1.5561,5.59153 -0.79834,3.14677 -1.46826,6.33236 -1.92864,9.54616 -0.66463,-0.39864 -1.730372,-0.38805 -2.417936,-0.14816 -1.631597,0.56797 -2.480028,2.26483 -3.135489,3.73591 -0.772936,1.73567 -1.222375,3.59834 -1.346906,5.49275 -0.09948,1.50284 -0.286455,3.6442 1.750484,3.70417 1.746602,0.0494 2.84868,-1.03011 3.662891,-2.42358 0.288216,-0.49389 0.566916,-0.99131 0.839966,-1.49225 0.009,1.83444 0.11359,3.66889 0.34008,5.49275 0.31679,2.55058 0.81774,7.00616 4.53002,6.02191 1.8168,-0.47977 2.81516,-2.13077 3.72216,-3.62655 1.11477,-1.83797 2.04293,-3.77472 2.794,-5.78556 0.14534,-0.39158 -1.4404,-0.23989 -1.60867,0.20814"
       style="fill:#272726;fill-opacity:1;fill-rule:nonzero;stroke:none;stroke-width:0.0352778"
       id="path307" />
    <path
       d="m 51.381584,257.43664 c 0.421216,0.381 0.674511,0.80433 0.638527,1.28411 -0.213077,-0.42686 -0.42545,-0.85372 -0.638527,-1.28411 z m -3.186642,-3.93347 c -0.247297,0.13758 -0.554214,0.004 -0.776817,-0.22578 -0.695678,-0.72319 -1.592792,-1.29469 -2.545997,-1.82033 -0.758473,-0.41628 -1.678517,-0.63147 -2.37737,-1.12184 0,0 0,0 3.53e-4,0 -0.717197,-0.29986 -1.434395,-0.59972 -2.151592,-0.89605 v 0 c -0.464961,-0.13406 -0.930275,-0.26458 -1.395236,-0.39511 0,0 0,0 0,0 -0.477309,-0.06 -0.896056,-0.29986 -1.400881,-0.27164 v 0 c -3.53e-4,0 -3.53e-4,0 -3.53e-4,0 -0.316441,-0.0635 -0.633588,-0.12347 -0.950383,-0.18697 0.383117,-0.0353 0.769408,-0.14817 1.108781,0.0741 0.486833,0.007 0.955322,0.0811 1.402644,0.22578 0.04763,0.007 0.1016,0.0282 0.157692,0.0494 0.456494,0.0494 0.89288,0.14111 1.249892,0.381 0.859366,0.16933 1.591027,0.52916 2.322689,0.89252 1.775178,0.58562 3.427236,1.30881 4.743803,2.413 0.139347,0.11642 0.325261,0.22225 0.401461,0.35984 0.0949,0.16933 0.536222,0.33866 0.211314,0.52211 z m -0.293864,9.94128 c -0.346781,-1.05128 -0.187678,-1.98967 -0.128764,-2.93159 0.14605,0.93839 0.316089,1.87678 0.128764,2.93159 z m -1.561042,5.16819 c -0.08326,-0.37394 -0.118886,-0.74436 0.04445,-1.22766 0.409928,0.52916 -0.05539,0.85725 -0.04445,1.22766 z m -0.212372,-12.19905 c -0.905228,-0.30339 -1.139825,0.17638 -1.46297,0.59972 -0.05256,0.067 -0.124177,0.20108 -0.266347,0.0776 -0.05221,-0.0459 -0.0194,-0.14817 -0.0254,-0.22578 -0.277636,-1.12889 -0.666397,-2.24014 -1.167342,-3.40078 0.648053,0.23636 1.044223,0.56092 1.387123,0.93134 0.08361,0.067 0.167569,0.13405 0.25153,0.20108 -0.61348,0.37042 0.07761,0.73731 0.02293,1.10772 0.222955,0.0847 0.441678,0.18697 0.68333,0.0317 0.265289,-0.17286 0.444148,-0.1023 0.555978,0.13053 h 3.53e-4 c 0.04657,0.0776 0.09384,0.15522 0.140406,0.23283 0.268463,0.18345 0.140052,0.40217 -0.119592,0.31398 z m 0.02611,2.88572 c -0.662869,-0.35984 -0.723194,-0.72672 -0.210255,-1.57692 0.289278,0.56797 0.303742,1.06539 0.210255,1.57692 z m -1.612194,17.49425 c -0.08855,-0.29281 -0.09984,-0.508 0.409928,-0.71614 -0.100189,0.34219 -0.122061,0.54328 -0.409928,0.71614 z m -3.211336,-0.29633 c -0.0762,0.64558 -0.274462,1.28411 -0.419806,1.92616 -0.408869,-0.65616 -0.750711,-1.29469 -0.799747,-1.98261 -0.01164,-0.16228 -0.102306,-0.53269 0.195439,-0.45861 0.356658,0.0917 1.08585,-0.0106 1.024114,0.51506 z m -1.406173,4.80836 c -0.365478,0.27164 -0.725664,0.55386 -1.344083,0.62794 0.202142,-0.58561 0.382411,-1.10067 0.590903,-1.70392 0.353483,0.26812 0.472016,0.61031 0.847725,0.79023 0.180269,0.0882 0.01058,0.20814 -0.09454,0.28575 z M 38.833282,255.9197 c -0.09031,-0.18345 -0.104775,-0.3422 0.03069,-0.51859 0.09031,0.18698 0.104775,0.34573 -0.03069,0.51859 z m -1.932517,15.5963 c -0.271638,0.0141 -0.273402,-0.15522 -0.255058,-0.28575 0.117828,-0.83961 -0.13335,-1.67922 -0.09595,-2.51883 v 0 c 0.123825,-1.13947 -0.206375,-2.28247 -0.06632,-3.42547 v 0 c -0.285044,-0.508 -0.09137,-1.02306 -0.03351,-1.53459 -3.52e-4,0.51859 0.137584,1.02659 0.188384,1.53812 -0.0762,0.82902 0.224014,1.65452 0.09349,2.48355 0.314678,0.63853 0.09313,1.30528 0.22225,1.95792 0.09666,0.49389 0.135819,1.00894 0.149225,1.51694 0.0025,0.11289 0.0039,0.25753 -0.202495,0.26811 z m -0.449086,10.48456 c -0.370769,-0.20814 -0.213077,-0.4445 -0.212372,-0.77258 0.372886,0.29633 0.28822,0.51152 0.212372,0.77258 z m -2.517418,0.81139 c -0.3616,0.0282 -0.59338,-0.0529 -0.57538,-0.38806 0.0381,-0.69497 0.0427,-1.38994 0.061,-2.08491 0.23777,0.40569 0.32526,0.82197 0.52316,1.22414 0.19086,0.38805 0.41875,0.75141 0.77964,1.12888 -0.29986,0.0459 -0.54186,0.0988 -0.78845,0.11995 z m -0.60819,-28.23986 v 0 c -0.0279,0.98425 -0.0554,1.96497 -0.0829,2.94569 -3.6e-4,0 -3.6e-4,0 -3.6e-4,0 v 0 c -0.0342,1.34056 -0.0691,2.67758 -0.10406,4.01814 v 0 c -0.0166,0.62089 -0.0328,1.24178 -0.049,1.86267 -0.0515,0 -0.10266,0 -0.15417,-0.004 0.0162,-0.62089 0.0328,-1.24178 0.0494,-1.86267 0.14993,-1.64747 -0.16122,-3.29494 -0.0236,-4.94242 0.0176,-0.20813 -0.0875,-0.44097 0.16651,-0.6103 v 0 c 0.0229,-0.8255 0.0462,-1.64747 0.0691,-2.47297 0.0815,-0.74436 0.16263,-1.48873 0.24413,-2.23309 -0.0106,1.1042 0.26281,2.21545 -0.11501,3.29848 z m 20.111507,1.86972 c -0.918634,-1.34056 -2.133953,-2.53647 -3.148895,-3.82411 -0.553861,-0.70556 -1.280231,-1.29823 -2.148064,-1.78859 -2.912181,-1.64747 -6.112934,-2.84691 -9.69257,-3.28436 -1.939572,-0.23636 -3.946168,-0.31397 -5.828238,0.34572 -0.40499,0.14112 -0.83362,0.28575 -1.3388,0.25753 -1.09537,-0.06 -1.36066,0.14111 -1.40476,0.99131 -0.0406,0.78669 0.0141,1.58044 -0.0998,2.36008 -0.38806,2.64231 -0.71579,5.2952 -0.93345,7.94808 -0.18592,2.27189 -0.35384,4.54378 -0.49037,6.81567 -0.16227,2.70581 -0.16439,5.4222 -0.23565,8.13153 -0.33867,1.76389 -0.17533,3.53483 -0.11818,5.29872 0.054,1.68275 0.30762,3.36198 0.46919,5.0412 0.0455,0.47625 0.47661,0.77258 1.00013,0.77964 1.7212,0.0282 3.39549,0.48683 5.11634,0.381 2.554107,-0.16228 5.121976,-0.1517 7.674677,-0.35984 2.634191,-0.21519 4.699,-1.03716 6.233936,-2.68464 2.672292,-2.86102 4.282722,-6.08541 5.606698,-9.40858 1.030816,-2.58939 1.031522,-5.29519 1.266472,-7.96572 0.147461,-1.6757 -0.02399,-3.37256 -0.313267,-5.04825 -0.239536,-1.39348 -0.747183,-2.71992 -1.615369,-3.98639"
       style="fill:#c1d9c8;fill-opacity:1;fill-rule:nonzero;stroke:none;stroke-width:0.0352778"
       id="path309" />
    <path
       d="m 36.95403,269.73095 c -0.129117,-0.65264 0.09243,-1.31939 -0.22225,-1.95792 -0.08008,0.31045 0.137936,0.6597 -0.182033,0.93839 -0.0374,0.83961 0.213783,1.67922 0.09595,2.51883 -0.01834,0.13053 -0.01658,0.29986 0.255058,0.28575 0.206376,-0.0106 0.204964,-0.15522 0.202495,-0.26811 -0.01341,-0.508 -0.05256,-1.02305 -0.149225,-1.51694"
       style="fill:#c1d9c8;fill-opacity:1;fill-rule:nonzero;stroke:none;stroke-width:0.0352778"
       id="path311" />
    <path
       d="m 33.127801,255.97967 v 0 0 c -0.254,0.16933 -0.14887,0.40217 -0.16651,0.6103 -0.13758,1.64748 0.17357,3.29495 0.0236,4.94242 0.0512,0 0.10266,0.004 0.15381,0.004 v 0 c 0.0349,-1.34056 0.0698,-2.67758 0.10407,-4.01814 v 0 c -0.32455,-0.50094 -0.0353,-1.02658 -0.115,-1.53811"
       style="fill:#c1d9c8;fill-opacity:1;fill-rule:nonzero;stroke:none;stroke-width:0.0352778"
       id="path313" />
    <path
       d="m 45.872958,256.12078 c -0.13335,-0.16933 0.0035,-0.25047 0.233539,-0.254 -0.11183,-0.23283 -0.290689,-0.30339 -0.555978,-0.13053 -0.241652,0.15522 -0.460375,0.0529 -0.68333,-0.0317 0,0 0,0 0,0 -3.53e-4,0 -3.53e-4,0 -7.06e-4,0 0.298097,0.58209 0.177095,0.86784 -0.493536,1.16064 0.006,0.0776 -0.02681,0.17992 0.0254,0.22578 0.14217,0.12347 0.213783,-0.0106 0.266347,-0.0776 0.323145,-0.42334 0.557742,-0.90311 1.46297,-0.59972 0.259644,0.0882 0.388055,-0.13053 0.119592,-0.31398 -0.113595,0.11289 -0.271992,0.14817 -0.374298,0.0212"
       style="fill:#c1d9c8;fill-opacity:1;fill-rule:nonzero;stroke:none;stroke-width:0.0352778"
       id="path315" />
    <path
       d="m 44.866483,255.7045 c 0,0 0,0 -3.53e-4,0 0.02434,0.43392 0.03104,0.86431 -0.493183,1.16064 0.670631,-0.2928 0.791633,-0.57855 0.493536,-1.16064"
       style="fill:#c1d9c8;fill-opacity:1;fill-rule:nonzero;stroke:none;stroke-width:0.0352778"
       id="path317" />
    <path
       d="m 33.196951,253.5067 c 0.30303,0.33866 0.0617,0.71261 0.12911,1.06539 v 0 0 c 0.37783,-1.08303 0.10442,-2.19428 0.11501,-3.29848 -0.0815,0.74436 -0.16263,1.48873 -0.24412,2.23309"
       style="fill:#c1d9c8;fill-opacity:1;fill-rule:nonzero;stroke:none;stroke-width:0.0352778"
       id="path319" />
    <path
       d="m 36.73178,267.77303 c 0.130528,-0.82903 -0.169686,-1.65453 -0.09349,-2.48355 -0.05151,0 -0.103364,-0.004 -0.15487,-0.004 v 0 c -0.140052,1.143 0.190148,2.286 0.06632,3.42547 0.223308,-0.29281 -0.03634,-0.64558 0.182033,-0.93839"
       style="fill:#c1d9c8;fill-opacity:1;fill-rule:nonzero;stroke:none;stroke-width:0.0352778"
       id="path321" />
    <path
       d="m 36.73178,267.77303 c -0.21837,0.29281 0.04127,0.64558 -0.182033,0.93839 v 0 c 0.319969,-0.27869 0.101952,-0.62794 0.182033,-0.93839"
       style="fill:#c1d9c8;fill-opacity:1;fill-rule:nonzero;stroke:none;stroke-width:0.0352778"
       id="path323" />
    <path
       d="m 44.866483,255.7045 c 0,0 3.53e-4,0 7.06e-4,0 0.05468,-0.37041 -0.636411,-0.7373 -0.02293,-1.10772 -0.08396,-0.067 -0.167922,-0.13406 -0.25153,-0.20108 -0.567973,0.508 0.04692,0.88547 0.273755,1.3088"
       style="fill:#c1d9c8;fill-opacity:1;fill-rule:nonzero;stroke:none;stroke-width:0.0352778"
       id="path325" />
    <path
       d="m 44.86613,255.7045 c 0,0 0,0 0,0 v 0 0 0 c 3.53e-4,0 3.53e-4,0 3.53e-4,0 -0.226836,-0.42333 -0.841728,-0.8008 -0.273755,-1.3088 -0.629003,0.38805 -0.591609,0.56797 0.273402,1.3088"
       style="fill:#c1d9c8;fill-opacity:1;fill-rule:nonzero;stroke:none;stroke-width:0.0352778"
       id="path327" />
    <path
       d="m 44.867189,255.7045 c 0,0 0,0 0,0 -3.53e-4,0 -7.06e-4,0 -7.06e-4,0 0,0 3.53e-4,0 7.06e-4,0"
       style="fill:#c1d9c8;fill-opacity:1;fill-rule:nonzero;stroke:none;stroke-width:0.0352778"
       id="path329" />
    <path
       d="m 44.86613,255.7045 c 3.53e-4,0 3.53e-4,0 3.53e-4,0 3.53e-4,0 3.53e-4,0 7.06e-4,0 h -0.0011 v 0"
       style="fill:#c1d9c8;fill-opacity:1;fill-rule:nonzero;stroke:none;stroke-width:0.0352778"
       id="path331" />
    <path
       d="m 44.86613,255.7045 c 3.53e-4,0 3.53e-4,0 3.53e-4,0 0,0 0,0 -3.53e-4,0 0,0 0,0 0,0"
       style="fill:#c1d9c8;fill-opacity:1;fill-rule:nonzero;stroke:none;stroke-width:0.0352778"
       id="path333" />
    <path
       d="m 44.86613,255.7045 v 0 0 h 0.0011 c -3.53e-4,0 -7.06e-4,0 -7.06e-4,0 0,0 0,0 -3.53e-4,0"
       style="fill:#c1d9c8;fill-opacity:1;fill-rule:nonzero;stroke:none;stroke-width:0.0352778"
       id="path335" />
    <path
       d="m 52.020111,258.72075 c 0.03598,-0.47978 -0.217311,-0.90311 -0.638527,-1.28411 0.213077,0.43039 0.42545,0.85725 0.638527,1.28411"
       style="fill:#c1d9c8;fill-opacity:1;fill-rule:nonzero;stroke:none;stroke-width:0.0352778"
       id="path337" />
    <path
       d="m 32.984931,261.53239 c -0.0166,0.62089 -0.0332,1.24178 -0.0494,1.86267 0.0515,0.004 0.10265,0.004 0.15416,0.004 0.0162,-0.62089 0.0324,-1.24178 0.049,-1.86267 -0.0529,0.0494 -0.10442,0.0529 -0.15381,-0.004"
       style="fill:#c1d9c8;fill-opacity:1;fill-rule:nonzero;stroke:none;stroke-width:0.0352778"
       id="path339" />
    <path
       d="m 33.138741,261.53592 c -0.0512,0 -0.10266,-0.004 -0.15381,-0.004 0.0494,0.0564 0.10089,0.0529 0.15381,0.004"
       style="fill:#c1d9c8;fill-opacity:1;fill-rule:nonzero;stroke:none;stroke-width:0.0352778"
       id="path341" />
    <path
       d="m 36.638294,265.28948 c -0.0508,-0.51153 -0.188736,-1.01953 -0.188384,-1.53812 -0.05786,0.51153 -0.25153,1.02659 0.03351,1.53459 0.05327,-0.0529 0.105128,-0.0529 0.15487,0.004"
       style="fill:#c1d9c8;fill-opacity:1;fill-rule:nonzero;stroke:none;stroke-width:0.0352778"
       id="path343" />
    <path
       d="m 36.483424,265.28595 c 0.05151,0 0.103364,0.004 0.15487,0.004 -0.04974,-0.0565 -0.1016,-0.0565 -0.15487,-0.004"
       style="fill:#c1d9c8;fill-opacity:1;fill-rule:nonzero;stroke:none;stroke-width:0.0352778"
       id="path345" />
    <path
       d="m 36.451674,282.00056 c 0.07585,-0.26106 0.160514,-0.47625 -0.212372,-0.77258 -7.05e-4,0.32808 -0.158397,0.56444 0.212372,0.77258"
       style="fill:#c1d9c8;fill-opacity:1;fill-rule:nonzero;stroke:none;stroke-width:0.0352778"
       id="path347" />
    <path
       d="m 37.705447,248.65953 c -0.339373,-0.22225 -0.725664,-0.10936 -1.108781,-0.0741 0.316795,0.0635 0.633942,0.12347 0.950383,0.18697 0,0 0,0 3.53e-4,0 -0.03457,-0.10583 -0.0053,-0.16228 0.158045,-0.11289"
       style="fill:#c1d9c8;fill-opacity:1;fill-rule:nonzero;stroke:none;stroke-width:0.0352778"
       id="path349" />
    <path
       d="m 37.547402,248.77242 c 0.05256,-0.0388 0.105128,-0.0776 0.158045,-0.11289 -0.163336,-0.0494 -0.192617,0.007 -0.158045,0.11289"
       style="fill:#c1d9c8;fill-opacity:1;fill-rule:nonzero;stroke:none;stroke-width:0.0352778"
       id="path351" />
    <path
       d="m 38.833277,255.9197 c 0.135467,-0.17286 0.121003,-0.33161 0.03069,-0.51859 -0.135467,0.17639 -0.121003,0.33514 -0.03069,0.51859"
       style="fill:#c1d9c8;fill-opacity:1;fill-rule:nonzero;stroke:none;stroke-width:0.0352778"
       id="path353" />
    <path
       d="m 49.310072,272.23214 c -1.094669,3.08681 -3.261078,5.66914 -6.119283,7.2637 -2.87267,1.60161 -6.228292,2.18016 -9.447388,1.34408 0.0536,-7.71525 0.34149,-15.43403 0.87453,-23.13164 0.14288,-2.06375 0.3048,-4.1275 0.48155,-6.18772 6.340119,0.26458 12.386025,4.55083 14.344647,10.65741 1.044575,3.25967 1.012119,6.82978 -0.134056,10.05417 z m 2.676878,-8.99936 c -0.791986,-3.60186 -2.836686,-6.77333 -5.703006,-9.07697 -3.245203,-2.61056 -7.405158,-4.02167 -11.562993,-3.98992 -0.33373,0.004 -0.83997,0.12347 -1.09926,0.40922 -0.31186,0.10231 -0.60537,0.28223 -0.62971,0.56092 -0.68298,7.874 -1.12148,15.7727 -1.31057,23.67492 -0.0533,2.22955 -0.0861,4.46264 -0.0998,6.69572 -10e-4,0.17639 0.25506,0.35983 0.39441,0.40217 7.03862,2.09197 15.357121,-1.19592 18.680287,-7.84225 1.662642,-3.3267 2.129367,-7.2002 1.330678,-10.83381"
       style="fill:#ffffff;fill-opacity:1;fill-rule:nonzero;stroke:none;stroke-width:0.0352778"
       id="path355" />
    <path
       d="m 67.773051,266.63003 c -0.04833,0.44803 -0.08749,0.89606 -0.144286,1.34056 -0.216605,1.70039 -0.907697,3.15736 -2.260247,4.24744 -0.751064,0.60325 -1.60902,0.86078 -2.575278,0.66322 -0.05292,-0.0106 -0.108303,-0.007 -0.162631,-0.0106 -0.0053,0 -0.01058,0 -0.01587,0 v 0 c -0.982486,-0.22931 -1.558925,-0.94544 -2.077861,-1.73214 -0.06526,-0.0988 -0.131939,-0.19755 -0.197555,-0.29986 -0.0028,-0.004 -0.0053,-0.0106 -0.0081,-0.0176 -0.928864,-2.16605 -1.100314,-4.43794 -0.976842,-6.76275 0.106539,-2.00025 0.403578,-3.96875 0.924631,-5.9055 0.100188,-0.37042 0.238125,-0.73025 0.358775,-1.09714 7.05e-4,-0.004 0.0018,-0.007 0.0028,-0.007 0.225072,-0.44098 0.545747,-0.80434 0.891822,-1.15006 v 0 0 c 0.114653,0.0776 0.02222,0.22931 0.112889,0.3175 0.163689,1.14653 1.338792,2.32481 2.590095,2.56822 0.715433,0.13759 1.431925,0.13759 2.132189,-0.10583 0.0053,0 0.01094,-0.004 0.01658,-0.004 0.421922,-0.0423 0.808567,-0.20814 1.196975,-0.36336 0.185914,-0.0706 0.238478,-0.0212 0.270934,0.15875 0.113241,0.63147 0.166863,1.27 0.180269,1.90853 0.04374,2.08844 -0.03422,4.17336 -0.259292,6.25122 z m -4.383264,-11.80394 c 0.33655,-0.23989 0.708731,-0.12348 1.062567,-0.0847 0.493889,0.0529 0.917575,0.29986 1.3208,0.57855 0.0014,0 0.0025,0 0.0039,0 0.155927,0.15875 0.323144,0.30692 0.46355,0.47978 0.10548,0.127 0.308327,0.18697 0.294569,0.40217 v 0 c -0.112536,0.0635 -0.230364,0.11642 -0.336903,0.18697 -0.508,0.3422 -1.060097,0.43745 -1.652764,0.30692 -0.617714,-0.13406 -1.017764,-0.53622 -1.22943,-1.1042 -0.08855,-0.23989 -0.106539,-0.52564 0.07373,-0.76552 z m 7.668684,-0.96309 c 0.07549,-0.19403 0.05539,-0.30339 -0.126294,-0.41628 -0.328437,-0.20461 -0.640645,-0.43391 -0.959909,-0.65616 -0.02081,-0.0141 -0.04163,-0.0247 -0.06209,-0.0388 -0.152753,-0.1023 -0.306211,-0.20461 -0.456141,-0.30691 -0.09384,-0.067 -0.157339,-0.067 -0.201789,0.0529 -0.298098,0.79728 -0.809625,1.48872 -1.155348,2.26131 -0.04939,0.067 -0.112889,0.13053 -0.145344,0.20814 -0.105128,0.24694 -0.227542,0.25047 -0.378883,0.0423 -0.149578,-0.20814 -0.327378,-0.38453 -0.531989,-0.53622 v 0 c -0.06244,-0.06 -0.124531,-0.12347 -0.186267,-0.18345 -0.04445,-0.1023 -0.115358,-0.17286 -0.233186,-0.17991 -0.05962,-0.0423 -0.119239,-0.0811 -0.178859,-0.11995 -0.122413,-0.15169 -0.294216,-0.21166 -0.475897,-0.25047 -3.53e-4,0 -3.53e-4,0 -3.53e-4,0 v 0 0 c 3.53e-4,0 3.53e-4,0 7.06e-4,0 -0.105833,-0.0882 -0.2286,-0.11994 -0.364067,-0.11642 v 0 c -0.248708,-0.0318 -0.489655,-0.0953 -0.727075,-0.17286 -0.74683,-0.20108 -1.488722,-0.18344 -2.224969,0.0529 0,0 0,0 -3.53e-4,0 -0.272697,0.0811 -0.534811,0.17992 -0.772583,0.34219 -0.530226,0.35631 -0.972962,0.81139 -1.403351,1.28059 -0.282927,0.30691 -0.573616,0.60677 -0.741891,1.00189 -0.107245,0.1023 -0.1524,0.23988 -0.202142,0.37394 0,0 0,0 -3.53e-4,0 -0.04621,0.0741 -0.102305,0.14111 -0.09278,0.23636 -0.01976,0.0353 -0.04586,0.067 -0.05821,0.10231 -0.650522,1.90852 -1.15958,3.8488 -1.329619,5.86669 -0.0099,0.11642 0.04974,0.26458 -0.104775,0.33867 0,0.17991 0,0.35983 0,0.53975 0,0.11994 0,0.23989 0,0.35983 0,0.23989 0,0.47978 0,0.71967 0,0.11994 0,0.23989 0,0.35983 0,0.17992 0,0.35984 0,0.53975 0,0.17992 0,0.35984 0,0.53975 0.02293,-0.004 0.04621,-0.004 0.06914,-0.004 0.01376,0.004 0.02752,0.007 0.04198,0.0106 -0.0053,0.32455 -0.02575,0.64911 0.06279,0.97014 0,0 0,0 0,0 -0.01235,0.0141 -0.01235,0.0247 0,0.0388 -0.0039,0.37395 0.02681,0.74084 0.118886,1.10067 0,0 0,0 0,0 -0.01164,0.0141 -0.01129,0.0282 0.0018,0.0388 3.53e-4,0.24695 0.03493,0.49037 0.119945,0.7232 -7.06e-4,0 -7.06e-4,0 -0.0011,0 -0.0018,0.10583 -0.01199,0.21167 0.05786,0.29986 -7.06e-4,0 -7.06e-4,0 -0.0014,0 -3.53e-4,0.12347 -0.0067,0.25047 0.06421,0.35983 -0.0039,0.10584 -0.0014,0.21167 0.05891,0.30339 0.0011,0.004 0.0011,0.004 0.0021,0.004 -0.0056,0.25047 0.08502,0.48331 0.155928,0.71614 0.04057,0.14464 0.05433,0.29633 0.143228,0.42333 v 0 c 0.04092,0.2787 0.1778,0.52564 0.269522,0.7867 0.52458,1.4993 2.094089,2.16252 3.484033,2.20839 0.512586,0.06 1.02482,0.10583 1.537053,0 v 0 l 0.01834,0.0106 0.01799,-0.0106 c 0.125589,0.004 0.252589,0.0176 0.364773,-0.06 -7.06e-4,0.004 -0.0014,0.004 -0.0018,0.004 0.108655,0.004 0.216605,0.004 0.31115,-0.0635 h 3.52e-4 c 0.14852,0.004 0.279753,-0.0459 0.404284,-0.12347 0.24765,-0.0106 0.46743,-0.12347 0.661811,-0.25047 0.958144,-0.64206 1.843264,-1.37231 2.448631,-2.3742 0.693561,-1.15005 0.967316,-2.44122 1.199091,-3.73944 0.341489,-1.91559 0.381706,-3.85234 0.34925,-5.79261 -0.02434,-1.4605 -0.252236,-2.89984 -0.65405,-4.30742 -0.06526,-0.22578 -0.0441,-0.39158 0.09948,-0.57503 0.703439,-0.89958 1.293636,-1.86619 1.709561,-2.93864"
       style="fill:#617e83;fill-opacity:1;fill-rule:nonzero;stroke:none;stroke-width:0.0352778"
       id="path357" />
    <path
       d="m 170.47056,255.56323 c 0.42121,0.381 0.67451,0.80433 0.63852,1.28411 -0.21307,-0.42686 -0.42545,-0.85372 -0.63852,-1.28411 z m -3.18665,-3.93347 c -0.24729,0.13758 -0.55421,0.004 -0.77681,-0.22578 -0.69568,-0.72319 -1.59279,-1.29469 -2.546,-1.82033 -0.75847,-0.41628 -1.67852,-0.63147 -2.37737,-1.12184 0,0 0,0 3.5e-4,0 -0.71719,-0.29986 -1.43439,-0.59972 -2.15159,-0.89605 v 0 c -0.46496,-0.13406 -0.93027,-0.26458 -1.39523,-0.39511 0,0 0,0 0,0 -0.47731,-0.06 -0.89606,-0.29986 -1.40088,-0.27164 v 0 c -3.6e-4,0 -3.6e-4,0 -3.6e-4,0 -0.31644,-0.0635 -0.63359,-0.12347 -0.95038,-0.18697 0.38312,-0.0353 0.76941,-0.14817 1.10878,0.0741 0.48683,0.007 0.95532,0.0811 1.40264,0.22578 0.0476,0.007 0.1016,0.0282 0.1577,0.0494 0.45649,0.0494 0.89288,0.14111 1.24989,0.381 0.85936,0.16933 1.59102,0.52916 2.32269,0.89252 1.77517,0.58562 3.42723,1.30881 4.7438,2.413 0.13935,0.11642 0.32526,0.22225 0.40146,0.35984 0.0949,0.16933 0.53622,0.33866 0.21131,0.52211 z m -0.29386,9.94128 c -0.34678,-1.05128 -0.18768,-1.98967 -0.12876,-2.93159 0.14605,0.93839 0.31609,1.87678 0.12876,2.93159 z m -1.56104,5.16819 c -0.0833,-0.37394 -0.11889,-0.74436 0.0444,-1.22766 0.40993,0.52916 -0.0554,0.85725 -0.0444,1.22766 z m -0.21237,-12.19905 c -0.90523,-0.30339 -1.13983,0.17638 -1.46297,0.59972 -0.0526,0.067 -0.12418,0.20108 -0.26635,0.0776 -0.0522,-0.0459 -0.0194,-0.14817 -0.0254,-0.22578 -0.27764,-1.12889 -0.6664,-2.24014 -1.16734,-3.40078 0.64805,0.23636 1.04422,0.56092 1.38712,0.93134 0.0836,0.067 0.16757,0.13405 0.25153,0.20108 -0.61348,0.37042 0.0776,0.73731 0.0229,1.10772 0.22296,0.0847 0.44168,0.18697 0.68333,0.0317 0.26529,-0.17286 0.44415,-0.1023 0.55598,0.13053 h 3.5e-4 c 0.0466,0.0776 0.0938,0.15522 0.14041,0.23283 0.26846,0.18345 0.14005,0.40217 -0.11959,0.31398 z m 0.0261,2.88572 c -0.66287,-0.35984 -0.7232,-0.72672 -0.21026,-1.57692 0.28928,0.56797 0.30374,1.06539 0.21026,1.57692 z m -1.6122,17.49425 c -0.0885,-0.29281 -0.0998,-0.508 0.40993,-0.71614 -0.10019,0.34219 -0.12206,0.54328 -0.40993,0.71614 z m -3.21133,-0.29633 c -0.0762,0.64558 -0.27447,1.28411 -0.41981,1.92616 -0.40887,-0.65616 -0.75071,-1.29469 -0.79975,-1.98261 -0.0116,-0.16228 -0.1023,-0.53269 0.19544,-0.45861 0.35666,0.0917 1.08585,-0.0106 1.02412,0.51506 z m -1.40618,4.80836 c -0.36547,0.27164 -0.72566,0.55386 -1.34408,0.62794 0.20214,-0.58561 0.38241,-1.10067 0.5909,-1.70392 0.35349,0.26812 0.47202,0.61031 0.84773,0.79023 0.18027,0.0882 0.0106,0.20814 -0.0945,0.28575 z m -1.09079,-25.38589 c -0.0903,-0.18345 -0.10477,-0.3422 0.0307,-0.51859 0.0903,0.18698 0.10478,0.34573 -0.0307,0.51859 z m -1.93251,15.5963 c -0.27164,0.0141 -0.2734,-0.15522 -0.25506,-0.28575 0.11783,-0.83961 -0.13335,-1.67922 -0.0959,-2.51883 v 0 c 0.12382,-1.13947 -0.20638,-2.28247 -0.0663,-3.42547 v 0 c -0.28504,-0.508 -0.0914,-1.02306 -0.0335,-1.53459 -3.5e-4,0.51859 0.13758,1.02659 0.18838,1.53812 -0.0762,0.82902 0.22402,1.65452 0.0935,2.48355 0.31468,0.63853 0.0931,1.30528 0.22225,1.95792 0.0967,0.49389 0.13582,1.00894 0.14923,1.51694 0.002,0.11289 0.004,0.25753 -0.2025,0.26811 z m -0.44909,10.48456 c -0.37077,-0.20814 -0.21308,-0.4445 -0.21237,-0.77258 0.37289,0.29633 0.28822,0.51152 0.21237,0.77258 z m -2.51742,0.81139 c -0.3616,0.0282 -0.59338,-0.0529 -0.57538,-0.38806 0.0381,-0.69497 0.0427,-1.38994 0.061,-2.08491 0.23777,0.40569 0.32526,0.82197 0.52316,1.22414 0.19086,0.38805 0.41875,0.75141 0.77964,1.12888 -0.29986,0.0459 -0.54186,0.0988 -0.78845,0.11995 z m -0.60819,-28.23986 v 0 c -0.0279,0.98425 -0.0554,1.96497 -0.0829,2.94569 -3.6e-4,0 -3.6e-4,0 -3.6e-4,0 v 0 c -0.0342,1.34056 -0.0691,2.67758 -0.10406,4.01814 v 0 c -0.0166,0.62089 -0.0328,1.24178 -0.049,1.86267 -0.0515,0 -0.10266,0 -0.15417,-0.004 0.0162,-0.62089 0.0328,-1.24178 0.0494,-1.86267 0.14993,-1.64747 -0.16122,-3.29494 -0.0236,-4.94242 0.0176,-0.20813 -0.0875,-0.44097 0.16651,-0.6103 v 0 c 0.0229,-0.8255 0.0462,-1.64747 0.0691,-2.47297 0.0815,-0.74436 0.16263,-1.48873 0.24413,-2.23309 -0.0106,1.1042 0.26281,2.21545 -0.11501,3.29848 z m 20.11151,1.86972 c -0.91863,-1.34056 -2.13395,-2.53647 -3.14889,-3.82411 -0.55387,-0.70556 -1.28024,-1.29823 -2.14807,-1.78859 -2.91218,-1.64747 -6.11293,-2.84691 -9.69257,-3.28436 -1.93957,-0.23636 -3.94617,-0.31397 -5.82824,0.34572 -0.40499,0.14112 -0.83362,0.28575 -1.3388,0.25753 -1.09537,-0.06 -1.36066,0.14111 -1.40476,0.99131 -0.0406,0.78669 0.0141,1.58044 -0.0998,2.36008 -0.38806,2.64231 -0.71579,5.2952 -0.93345,7.94808 -0.18592,2.27189 -0.35384,4.54378 -0.49037,6.81567 -0.16227,2.70581 -0.16439,5.4222 -0.23565,8.13153 -0.33867,1.76389 -0.17533,3.53483 -0.11818,5.29872 0.054,1.68275 0.30762,3.36198 0.46919,5.0412 0.0455,0.47625 0.47661,0.77258 1.00013,0.77964 1.7212,0.0282 3.39549,0.48683 5.11634,0.381 2.55411,-0.16228 5.12198,-0.1517 7.67468,-0.35984 2.63419,-0.21519 4.699,-1.03716 6.23394,-2.68464 2.67229,-2.86102 4.28272,-6.08541 5.60669,-9.40858 1.03082,-2.58939 1.03153,-5.29519 1.26648,-7.96572 0.14746,-1.6757 -0.024,-3.37256 -0.31327,-5.04825 -0.23954,-1.39348 -0.74718,-2.71992 -1.61537,-3.98639"
       style="fill:#c1d9c8;fill-opacity:1;fill-rule:nonzero;stroke:none;stroke-width:0.0352778"
       id="path309-2" />
    <path
       d="m 156.043,267.85754 c -0.12911,-0.65264 0.0924,-1.31939 -0.22225,-1.95792 -0.0801,0.31045 0.13794,0.6597 -0.18203,0.93839 -0.0374,0.83961 0.21378,1.67922 0.0959,2.51883 -0.0183,0.13053 -0.0166,0.29986 0.25506,0.28575 0.20637,-0.0106 0.20496,-0.15522 0.20249,-0.26811 -0.0134,-0.508 -0.0526,-1.02305 -0.14922,-1.51694"
       style="fill:#c1d9c8;fill-opacity:1;fill-rule:nonzero;stroke:none;stroke-width:0.0352778"
       id="path311-9" />
    <path
       d="m 152.21677,254.10626 v 0 0 c -0.254,0.16933 -0.14887,0.40217 -0.16651,0.6103 -0.13758,1.64748 0.17357,3.29495 0.0236,4.94242 0.0512,0 0.10266,0.004 0.15381,0.004 v 0 c 0.0349,-1.34056 0.0698,-2.67758 0.10407,-4.01814 v 0 c -0.32455,-0.50094 -0.0353,-1.02658 -0.115,-1.53811"
       style="fill:#c1d9c8;fill-opacity:1;fill-rule:nonzero;stroke:none;stroke-width:0.0352778"
       id="path313-0" />
    <path
       d="m 164.96193,254.24737 c -0.13335,-0.16933 0.004,-0.25047 0.23354,-0.254 -0.11183,-0.23283 -0.29069,-0.30339 -0.55598,-0.13053 -0.24165,0.15522 -0.46037,0.0529 -0.68333,-0.0317 0,0 0,0 0,0 -3.5e-4,0 -3.5e-4,0 -7e-4,0 0.29809,0.58209 0.17709,0.86784 -0.49354,1.16064 0.006,0.0776 -0.0268,0.17992 0.0254,0.22578 0.14217,0.12347 0.21378,-0.0106 0.26635,-0.0776 0.32314,-0.42334 0.55774,-0.90311 1.46297,-0.59972 0.25964,0.0882 0.38805,-0.13053 0.11959,-0.31398 -0.1136,0.11289 -0.27199,0.14817 -0.3743,0.0212"
       style="fill:#c1d9c8;fill-opacity:1;fill-rule:nonzero;stroke:none;stroke-width:0.0352778"
       id="path315-2" />
    <path
       d="m 163.95546,253.83109 c 0,0 0,0 -3.6e-4,0 0.0243,0.43392 0.031,0.86431 -0.49318,1.16064 0.67063,-0.2928 0.79163,-0.57855 0.49354,-1.16064"
       style="fill:#c1d9c8;fill-opacity:1;fill-rule:nonzero;stroke:none;stroke-width:0.0352778"
       id="path317-8" />
    <path
       d="m 152.28592,251.63329 c 0.30303,0.33866 0.0617,0.71261 0.12911,1.06539 v 0 0 c 0.37783,-1.08303 0.10442,-2.19428 0.11501,-3.29848 -0.0815,0.74436 -0.16263,1.48873 -0.24412,2.23309"
       style="fill:#c1d9c8;fill-opacity:1;fill-rule:nonzero;stroke:none;stroke-width:0.0352778"
       id="path319-3" />
    <path
       d="m 155.82075,265.89962 c 0.13053,-0.82903 -0.16968,-1.65453 -0.0935,-2.48355 -0.0515,0 -0.10336,-0.004 -0.15487,-0.004 v 0 c -0.14005,1.143 0.19015,2.286 0.0663,3.42547 0.22331,-0.29281 -0.0363,-0.64558 0.18204,-0.93839"
       style="fill:#c1d9c8;fill-opacity:1;fill-rule:nonzero;stroke:none;stroke-width:0.0352778"
       id="path321-8" />
    <path
       d="m 155.82075,265.89962 c -0.21837,0.29281 0.0413,0.64558 -0.18203,0.93839 v 0 c 0.31997,-0.27869 0.10195,-0.62794 0.18203,-0.93839"
       style="fill:#c1d9c8;fill-opacity:1;fill-rule:nonzero;stroke:none;stroke-width:0.0352778"
       id="path323-0" />
    <path
       d="m 163.95546,253.83109 c 0,0 3.5e-4,0 7e-4,0 0.0547,-0.37041 -0.63641,-0.7373 -0.0229,-1.10772 -0.084,-0.067 -0.16792,-0.13406 -0.25153,-0.20108 -0.56797,0.508 0.0469,0.88547 0.27376,1.3088"
       style="fill:#c1d9c8;fill-opacity:1;fill-rule:nonzero;stroke:none;stroke-width:0.0352778"
       id="path325-4" />
    <path
       d="m 163.9551,253.83109 c 0,0 0,0 0,0 v 0 0 0 c 3.6e-4,0 3.6e-4,0 3.6e-4,0 -0.22684,-0.42333 -0.84173,-0.8008 -0.27376,-1.3088 -0.629,0.38805 -0.59161,0.56797 0.2734,1.3088"
       style="fill:#c1d9c8;fill-opacity:1;fill-rule:nonzero;stroke:none;stroke-width:0.0352778"
       id="path327-0" />
    <path
       d="m 163.95616,253.83109 c 0,0 0,0 0,0 -3.5e-4,0 -7e-4,0 -7e-4,0 0,0 3.5e-4,0 7e-4,0"
       style="fill:#c1d9c8;fill-opacity:1;fill-rule:nonzero;stroke:none;stroke-width:0.0352778"
       id="path329-9" />
    <path
       d="m 163.9551,253.83109 c 3.6e-4,0 3.6e-4,0 3.6e-4,0 3.5e-4,0 3.5e-4,0 7e-4,0 h -0.001 v 0"
       style="fill:#c1d9c8;fill-opacity:1;fill-rule:nonzero;stroke:none;stroke-width:0.0352778"
       id="path331-1" />
    <path
       d="m 163.9551,253.83109 c 3.6e-4,0 3.6e-4,0 3.6e-4,0 0,0 0,0 -3.6e-4,0 0,0 0,0 0,0"
       style="fill:#c1d9c8;fill-opacity:1;fill-rule:nonzero;stroke:none;stroke-width:0.0352778"
       id="path333-9" />
    <path
       d="m 163.9551,253.83109 v 0 0 h 0.001 c -3.5e-4,0 -7e-4,0 -7e-4,0 0,0 0,0 -3.6e-4,0"
       style="fill:#c1d9c8;fill-opacity:1;fill-rule:nonzero;stroke:none;stroke-width:0.0352778"
       id="path335-6" />
    <path
       d="m 171.10908,256.84734 c 0.036,-0.47978 -0.21731,-0.90311 -0.63852,-1.28411 0.21307,0.43039 0.42545,0.85725 0.63852,1.28411"
       style="fill:#c1d9c8;fill-opacity:1;fill-rule:nonzero;stroke:none;stroke-width:0.0352778"
       id="path337-2" />
    <path
       d="m 152.0739,259.65898 c -0.0166,0.62089 -0.0332,1.24178 -0.0494,1.86267 0.0515,0.004 0.10265,0.004 0.15416,0.004 0.0162,-0.62089 0.0324,-1.24178 0.049,-1.86267 -0.0529,0.0494 -0.10442,0.0529 -0.15381,-0.004"
       style="fill:#c1d9c8;fill-opacity:1;fill-rule:nonzero;stroke:none;stroke-width:0.0352778"
       id="path339-5" />
    <path
       d="m 152.22771,259.66251 c -0.0512,0 -0.10266,-0.004 -0.15381,-0.004 0.0494,0.0564 0.10089,0.0529 0.15381,0.004"
       style="fill:#c1d9c8;fill-opacity:1;fill-rule:nonzero;stroke:none;stroke-width:0.0352778"
       id="path341-4" />
    <path
       d="m 155.72727,263.41607 c -0.0508,-0.51153 -0.18874,-1.01953 -0.18839,-1.53812 -0.0579,0.51153 -0.25153,1.02659 0.0335,1.53459 0.0533,-0.0529 0.10513,-0.0529 0.15487,0.004"
       style="fill:#c1d9c8;fill-opacity:1;fill-rule:nonzero;stroke:none;stroke-width:0.0352778"
       id="path343-4" />
    <path
       d="m 155.5724,263.41254 c 0.0515,0 0.10336,0.004 0.15487,0.004 -0.0497,-0.0565 -0.1016,-0.0565 -0.15487,-0.004"
       style="fill:#c1d9c8;fill-opacity:1;fill-rule:nonzero;stroke:none;stroke-width:0.0352778"
       id="path345-9" />
    <path
       d="m 155.54065,280.12715 c 0.0759,-0.26106 0.16051,-0.47625 -0.21237,-0.77258 -7.1e-4,0.32808 -0.1584,0.56444 0.21237,0.77258"
       style="fill:#c1d9c8;fill-opacity:1;fill-rule:nonzero;stroke:none;stroke-width:0.0352778"
       id="path347-9" />
    <path
       d="m 156.79442,246.78612 c -0.33937,-0.22225 -0.72566,-0.10936 -1.10878,-0.0741 0.31679,0.0635 0.63394,0.12347 0.95038,0.18697 0,0 0,0 3.5e-4,0 -0.0346,-0.10583 -0.005,-0.16228 0.15805,-0.11289"
       style="fill:#c1d9c8;fill-opacity:1;fill-rule:nonzero;stroke:none;stroke-width:0.0352778"
       id="path349-3" />
    <path
       d="m 156.63637,246.89901 c 0.0526,-0.0388 0.10513,-0.0776 0.15805,-0.11289 -0.16334,-0.0494 -0.19262,0.007 -0.15805,0.11289"
       style="fill:#c1d9c8;fill-opacity:1;fill-rule:nonzero;stroke:none;stroke-width:0.0352778"
       id="path351-6" />
    <path
       d="m 157.92225,254.04629 c 0.13547,-0.17286 0.121,-0.33161 0.0307,-0.51859 -0.13547,0.17639 -0.121,0.33514 -0.0307,0.51859"
       style="fill:#c1d9c8;fill-opacity:1;fill-rule:nonzero;stroke:none;stroke-width:0.0352778"
       id="path353-0" />
    <path
       d="m 168.39904,270.35873 c -1.09466,3.08681 -3.26107,5.66914 -6.11928,7.2637 -2.87267,1.60161 -6.22829,2.18016 -9.44739,1.34408 0.0536,-7.71525 0.34149,-15.43403 0.87453,-23.13164 0.14288,-2.06375 0.3048,-4.1275 0.48155,-6.18772 6.34012,0.26458 12.38603,4.55083 14.34465,10.65741 1.04458,3.25967 1.01212,6.82978 -0.13406,10.05417 z m 2.67688,-8.99936 c -0.79198,-3.60186 -2.83668,-6.77333 -5.703,-9.07697 -3.24521,-2.61056 -7.40516,-4.02167 -11.563,-3.98992 -0.33373,0.004 -0.83997,0.12347 -1.09926,0.40922 -0.31186,0.10231 -0.60537,0.28223 -0.62971,0.56092 -0.68298,7.874 -1.12148,15.7727 -1.31057,23.67492 -0.0533,2.22955 -0.0861,4.46264 -0.0998,6.69572 -0.001,0.17639 0.25506,0.35983 0.39441,0.40217 7.03862,2.09197 15.35712,-1.19592 18.68029,-7.84225 1.66264,-3.3267 2.12937,-7.2002 1.33068,-10.83381"
       style="fill:#ffffff;fill-opacity:1;fill-rule:nonzero;stroke:none;stroke-width:0.0352778"
       id="path355-5" />
    <path
       d="m 186.86202,264.75662 c -0.0483,0.44803 -0.0875,0.89606 -0.14428,1.34056 -0.21661,1.70039 -0.9077,3.15736 -2.26025,4.24744 -0.75106,0.60325 -1.60902,0.86078 -2.57528,0.66322 -0.0529,-0.0106 -0.1083,-0.007 -0.16263,-0.0106 -0.005,0 -0.0106,0 -0.0159,0 v 0 c -0.98248,-0.22931 -1.55892,-0.94544 -2.07786,-1.73214 -0.0653,-0.0988 -0.13194,-0.19755 -0.19755,-0.29986 -0.003,-0.004 -0.005,-0.0106 -0.008,-0.0176 -0.92887,-2.16605 -1.10032,-4.43794 -0.97685,-6.76275 0.10654,-2.00025 0.40358,-3.96875 0.92463,-5.9055 0.10019,-0.37042 0.23813,-0.73025 0.35878,-1.09714 7e-4,-0.004 0.002,-0.007 0.003,-0.007 0.22507,-0.44098 0.54575,-0.80434 0.89182,-1.15006 v 0 0 c 0.11466,0.0776 0.0222,0.22931 0.11289,0.3175 0.16369,1.14653 1.33879,2.32481 2.5901,2.56822 0.71543,0.13759 1.43192,0.13759 2.13218,-0.10583 0.005,0 0.0109,-0.004 0.0166,-0.004 0.42192,-0.0423 0.80856,-0.20814 1.19697,-0.36336 0.18591,-0.0706 0.23848,-0.0212 0.27093,0.15875 0.11324,0.63147 0.16687,1.27 0.18027,1.90853 0.0437,2.08844 -0.0342,4.17336 -0.25929,6.25122 z m -4.38326,-11.80394 c 0.33655,-0.23989 0.70873,-0.12348 1.06257,-0.0847 0.49389,0.0529 0.91757,0.29986 1.3208,0.57855 0.001,0 0.002,0 0.004,0 0.15592,0.15875 0.32314,0.30692 0.46355,0.47978 0.10548,0.127 0.30832,0.18697 0.29457,0.40217 v 0 c -0.11254,0.0635 -0.23037,0.11642 -0.33691,0.18697 -0.508,0.3422 -1.06009,0.43745 -1.65276,0.30692 -0.61772,-0.13406 -1.01777,-0.53622 -1.22943,-1.1042 -0.0885,-0.23989 -0.10654,-0.52564 0.0737,-0.76552 z m 7.66868,-0.96309 c 0.0755,-0.19403 0.0554,-0.30339 -0.12629,-0.41628 -0.32844,-0.20461 -0.64065,-0.43391 -0.95991,-0.65616 -0.0208,-0.0141 -0.0416,-0.0247 -0.0621,-0.0388 -0.15275,-0.1023 -0.30621,-0.20461 -0.45614,-0.30691 -0.0938,-0.067 -0.15734,-0.067 -0.20179,0.0529 -0.2981,0.79728 -0.80962,1.48872 -1.15535,2.26131 -0.0494,0.067 -0.11289,0.13053 -0.14534,0.20814 -0.10513,0.24694 -0.22754,0.25047 -0.37888,0.0423 -0.14958,-0.20814 -0.32738,-0.38453 -0.53199,-0.53622 v 0 c -0.0624,-0.06 -0.12453,-0.12347 -0.18627,-0.18345 -0.0444,-0.1023 -0.11536,-0.17286 -0.23319,-0.17991 -0.0596,-0.0423 -0.11924,-0.0811 -0.17886,-0.11995 -0.12241,-0.15169 -0.29421,-0.21166 -0.47589,-0.25047 -3.6e-4,0 -3.6e-4,0 -3.6e-4,0 v 0 0 c 3.6e-4,0 3.6e-4,0 7.1e-4,0 -0.10583,-0.0882 -0.2286,-0.11994 -0.36407,-0.11642 v 0 c -0.2487,-0.0318 -0.48965,-0.0953 -0.72707,-0.17286 -0.74683,-0.20108 -1.48872,-0.18344 -2.22497,0.0529 0,0 0,0 -3.5e-4,0 -0.2727,0.0811 -0.53481,0.17992 -0.77259,0.34219 -0.53022,0.35631 -0.97296,0.81139 -1.40335,1.28059 -0.28292,0.30691 -0.57361,0.60677 -0.74189,1.00189 -0.10724,0.1023 -0.1524,0.23988 -0.20214,0.37394 0,0 0,0 -3.5e-4,0 -0.0462,0.0741 -0.10231,0.14111 -0.0928,0.23636 -0.0198,0.0353 -0.0459,0.067 -0.0582,0.10231 -0.65053,1.90852 -1.15958,3.8488 -1.32962,5.86669 -0.01,0.11642 0.0497,0.26458 -0.10478,0.33867 0,0.17991 0,0.35983 0,0.53975 0,0.11994 0,0.23989 0,0.35983 0,0.23989 0,0.47978 0,0.71967 0,0.11994 0,0.23989 0,0.35983 0,0.17992 0,0.35984 0,0.53975 0,0.17992 0,0.35984 0,0.53975 0.0229,-0.004 0.0462,-0.004 0.0691,-0.004 0.0138,0.004 0.0275,0.007 0.042,0.0106 -0.005,0.32455 -0.0257,0.64911 0.0628,0.97014 0,0 0,0 0,0 -0.0123,0.0141 -0.0123,0.0247 0,0.0388 -0.004,0.37395 0.0268,0.74084 0.11889,1.10067 0,0 0,0 0,0 -0.0116,0.0141 -0.0113,0.0282 0.002,0.0388 3.5e-4,0.24695 0.0349,0.49037 0.11994,0.7232 -7e-4,0 -7e-4,0 -0.001,0 -0.002,0.10583 -0.012,0.21167 0.0579,0.29986 -7e-4,0 -7e-4,0 -10e-4,0 -3.5e-4,0.12347 -0.007,0.25047 0.0642,0.35983 -0.004,0.10584 -0.001,0.21167 0.0589,0.30339 0.001,0.004 0.001,0.004 0.002,0.004 -0.006,0.25047 0.085,0.48331 0.15593,0.71614 0.0406,0.14464 0.0543,0.29633 0.14323,0.42333 v 0 c 0.0409,0.2787 0.1778,0.52564 0.26952,0.7867 0.52458,1.4993 2.09409,2.16252 3.48403,2.20839 0.51259,0.06 1.02482,0.10583 1.53706,0 v 0 l 0.0183,0.0106 0.018,-0.0106 c 0.12559,0.004 0.25259,0.0176 0.36477,-0.06 -7.1e-4,0.004 -0.001,0.004 -0.002,0.004 0.10866,0.004 0.21661,0.004 0.31115,-0.0635 h 3.5e-4 c 0.14852,0.004 0.27976,-0.0459 0.40429,-0.12347 0.24765,-0.0106 0.46743,-0.12347 0.66181,-0.25047 0.95814,-0.64206 1.84326,-1.37231 2.44863,-2.3742 0.69356,-1.15005 0.96731,-2.44122 1.19909,-3.73944 0.34149,-1.91559 0.38171,-3.85234 0.34925,-5.79261 -0.0243,-1.4605 -0.25224,-2.89984 -0.65405,-4.30742 -0.0653,-0.22578 -0.0441,-0.39158 0.0995,-0.57503 0.70344,-0.89958 1.29364,-1.86619 1.70956,-2.93864"
       style="fill:#617e83;fill-opacity:1;fill-rule:nonzero;stroke:none;stroke-width:0.0352778"
       id="path357-0" />
  </g>
</svg>
