<?xml version="1.0" encoding="UTF-8" standalone="no"?>
<!-- Created with Inkscape (http://www.inkscape.org/) -->

<svg
   width="164.24644mm"
   height="28.081995mm"
   viewBox="0 0 164.24644 28.081995"
   version="1.1"
   id="svg19534"
   inkscape:version="1.1.1 (1:1.1+202109281949+c3084ef5ed)"
   sodipodi:docname="rm-merch-dropd.svg"
   xmlns:inkscape="http://www.inkscape.org/namespaces/inkscape"
   xmlns:sodipodi="http://sodipodi.sourceforge.net/DTD/sodipodi-0.dtd"
   xmlns="http://www.w3.org/2000/svg"
   xmlns:svg="http://www.w3.org/2000/svg">
  <sodipodi:namedview
     id="namedview19536"
     pagecolor="#ffffff"
     bordercolor="#666666"
     borderopacity="1.0"
     inkscape:pageshadow="2"
     inkscape:pageopacity="0.0"
     inkscape:pagecheckerboard="0"
     inkscape:document-units="mm"
     showgrid="false"
     inkscape:zoom="1.4218013"
     inkscape:cx="231.04494"
     inkscape:cy="-62.948316"
     inkscape:window-width="1920"
     inkscape:window-height="970"
     inkscape:window-x="0"
     inkscape:window-y="27"
     inkscape:window-maximized="1"
     inkscape:current-layer="layer1" />
  <defs
     id="defs19531" />
  <g
     inkscape:label="Layer 1"
     inkscape:groupmode="layer"
     id="layer1"
     transform="translate(-79.403092,-242.30952)">
    <path
       d="m 103.22696,262.24435 c 0.0548,-5.91752 0.13802,-11.83418 0.18068,-17.75127 0.013,-1.8147 -0.62609,-2.33498 -2.44246,-2.14762 -1.197384,0.1238 -2.410247,0.42243 -3.590487,0.32832 -2.465873,-0.19614 -3.804621,0.7775 -4.559523,3.16391 -0.888317,2.80797 -1.889137,5.59001 -2.861099,8.46158 -0.369714,-0.24383 -0.336674,-0.52321 -0.397316,-0.76452 -0.652437,-2.58089 -1.120015,-5.20777 -1.93556,-7.74727 -0.413628,-1.2873 -0.91132,-1.60348 -2.195698,-1.32661 -1.605161,0.34587 -3.192755,0.76368 -4.7448,1.3103 -0.859877,0.30281 -1.346275,0.82434 -1.26974,1.78835 0.100385,1.27267 0.120868,2.5537 0.266829,3.82052 0.593048,5.13751 0.462978,10.3248 1.090739,15.46022 0.117937,0.96611 0.532823,1.51692 1.570029,1.61311 2.26847,0.21036 3.035918,-0.422 3.063522,-2.69716 0.02384,-1.99035 0.005,-3.98153 0.005,-5.97188 0.535332,0.40443 0.826837,0.88455 1.114578,1.36719 0.897518,1.50813 1.797963,3.01208 3.114128,4.21156 1.415284,1.28982 2.518151,1.11917 3.391412,-0.58008 0.456285,-0.8879 0.824328,-1.82098 1.30069,-2.88704 0.146797,1.68212 -0.12045,3.18313 0.194057,4.66492 0.215806,1.01797 0.783759,1.57046 1.855679,1.68588 1.648655,0.17817 3.2856,0.0142 4.92589,-0.0553 1.56125,-0.066 2.03343,-0.62776 1.97947,-2.22329 -0.0422,-1.24046 -0.0673,-2.48303 -0.056,-3.72391"
       style="fill:#ebc532;fill-opacity:1;fill-rule:nonzero;stroke:none;stroke-width:0.0418229"
       id="path393" />
    <path
       d="m 120.30609,256.3848 c -0.0127,0.21696 -0.0385,0.43745 -0.0773,0.66817 -3.58951,0.48295 -7.25099,0.82056 -10.88672,1.0033 -0.0159,7e-4 -0.0931,0.006 -0.18944,0.0282 -0.0882,-0.0649 -0.1905,-0.0981 -0.2727,-0.1076 -0.25505,-0.0293 -0.51011,0.0949 -0.6477,0.31644 -0.3249,0.52529 -0.34395,1.18322 -0.35806,1.663 -0.0155,0.52916 0.0208,1.05656 0.10865,1.56845 0.18697,1.09114 0.61913,2.0955 1.25025,2.90406 1.26753,1.62313 3.30341,2.42253 5.18724,2.03659 1.03434,-0.21202 1.9431,-0.73343 2.58974,-1.48061 0.0102,0.0116 0.0201,0.0226 0.0296,0.0332 0.12982,0.14887 0.2487,0.30903 0.37465,0.47837 0.0522,0.0709 0.10442,0.14181 0.15804,0.21166 l 0.94932,1.24531 c -2.82963,1.91946 -6.52533,2.0641 -9.08932,0.32702 -2.41511,-1.63653 -3.82834,-4.70429 -3.78036,-8.20667 0.024,-1.766 0.37394,-3.62549 1.01212,-5.37739 0.57961,-1.59103 1.44709,-2.81481 2.57916,-3.63784 1.28622,-0.93522 2.8395,-1.38607 4.36068,-1.33597 1.10349,0.036 2.18969,0.3362 3.14361,0.90628 2.28493,1.36631 3.71474,4.08094 3.55846,6.75605 z m -2.1082,-7.06155 c -2.38618,-1.78047 -5.80072,-1.94592 -8.69914,-0.42227 -1.4224,0.74824 -2.56893,1.87713 -3.31435,3.26425 -0.41275,0.76764 -0.74507,1.63901 -1.04458,2.74249 -0.27657,1.01495 -0.46531,2.01683 -0.56232,2.97745 -0.21343,2.1149 0.004,4.04107 0.64558,5.72488 0.61101,1.60549 1.58679,2.98132 2.82046,3.97968 1.34937,1.0915 3.05188,1.69792 4.93677,1.75966 0.0748,0.002 0.14993,0.004 0.22543,0.005 1.80728,0.0176 3.68829,-0.47343 5.2966,-1.38218 0.39264,-0.22225 0.77717,-0.47343 1.1437,-0.74754 0.0423,-0.0318 0.15417,-0.11571 0.17569,-0.27058 0.0131,-0.0942 -0.013,-0.19015 -0.0734,-0.26952 -0.18204,-0.23848 -0.36407,-0.48578 -0.54081,-0.72531 -0.37289,-0.50624 -0.75883,-1.02941 -1.17404,-1.51624 -0.30374,-0.35701 -0.66181,-0.51576 -1.06433,-0.47343 -0.0995,0.0106 -0.20496,0.0328 -0.30692,0.0642 -0.16757,0.0212 -0.31256,0.0942 -0.40534,0.20355 -0.0977,0.0769 -0.17427,0.16792 -0.22719,0.27164 -0.9405,1.01 -2.48708,1.32715 -3.86362,0.78775 -1.4792,-0.57961 -2.59292,-1.97379 -2.97956,-3.72992 -0.10619,-0.4833 -0.15805,-0.98601 -0.15346,-1.49472 0.003,-0.38523 0.006,-0.81385 0.12806,-1.16452 3.83152,-0.19332 7.72336,-0.56162 11.56793,-1.09431 0.0833,-0.0116 0.50306,-0.0854 0.5715,-0.40182 0.64276,-2.97356 -0.60431,-6.22405 -3.10268,-8.08813"
       style="fill:#d8673f;fill-opacity:1;fill-rule:nonzero;stroke:none;stroke-width:0.0352778"
       id="path669-2" />
    <path
       d="m 109.48675,255.2418 c -0.003,-0.0145 -0.006,-0.0275 -0.01,-0.0388 -0.0131,-0.0416 -0.0325,-0.0804 -0.0582,-0.11465 0.22119,-1.4605 0.84455,-3.25578 2.53506,-3.89784 1.80058,-0.68333 3.94265,-0.14817 5.09376,1.27353 0.53904,0.66604 0.84702,1.49401 0.8643,2.30822 z m 5.98417,-5.05389 c -2.37631,-0.70203 -4.90326,0.0868 -6.14539,1.91841 -0.60148,0.88688 -0.96696,2.00448 -1.1176,3.417 -0.009,0.0825 0.005,0.16193 0.0395,0.23178 0.007,0.0628 0.0226,0.12488 0.0452,0.18485 0.0494,0.13088 0.16933,0.28117 0.46037,0.29069 0.0268,0.001 0.0554,7.1e-4 0.0854,-10e-4 l 9.62024,-0.53622 c 0.21696,-0.012 0.55422,-0.17216 0.58844,-0.47802 0.24835,-2.22708 -1.25554,-4.34163 -3.57611,-5.02743"
       style="fill:#d8673f;fill-opacity:1;fill-rule:nonzero;stroke:none;stroke-width:0.0352778"
       id="path671-66" />
    <path
       d="m 133.13908,255.5161 c -1.08126,-0.82727 -2.57245,-1.0848 -3.89749,-0.87172 -1.08303,0.17357 -2.14136,0.57256 -3.02119,1.22485 -0.0169,-0.75248 -0.0155,-1.50531 0.007,-2.25778 0.018,-0.58702 -0.635,-0.768 -1.12606,-0.70909 -0.32738,0.0392 -0.67522,0.13371 -0.94227,0.3355 -0.18662,0.14005 -0.4438,0.35666 -0.45191,0.61207 -0.10619,3.53342 0.20708,7.08377 0.9532,10.53959 0.20814,0.96414 0.45085,1.92087 0.72461,2.86879 0.16263,0.56162 1.00824,0.56479 1.45556,0.43144 0.29598,-0.0878 0.61842,-0.22084 0.82374,-0.46108 0.14958,-0.17462 0.29104,-0.39793 0.22084,-0.64064 -0.7038,-2.43346 -1.19063,-4.92796 -1.45415,-7.44785 0.19544,-0.15487 0.34431,-0.35877 0.40252,-0.61877 0.0134,-0.0596 0.0307,-0.11783 0.0462,-0.17639 0.0889,-0.24835 0.20461,-0.48507 0.34396,-0.70908 0.0857,-0.11642 0.17497,-0.23001 0.27305,-0.33655 0.0536,-0.0582 0.10936,-0.11324 0.16545,-0.16863 0.0187,-0.0159 0.0374,-0.0321 0.0561,-0.0476 0.13617,-0.11113 0.27975,-0.21343 0.42792,-0.30833 0.0162,-0.009 0.0325,-0.018 0.0487,-0.0265 0.0871,-0.0466 0.17568,-0.0903 0.26564,-0.13088 0.0632,-0.0289 0.12771,-0.055 0.19226,-0.0811 0.019,-0.006 0.0377,-0.0127 0.0568,-0.0183 0.0878,-0.0275 0.17604,-0.0519 0.26494,-0.0741 0.0459,-0.0116 0.0917,-0.0219 0.13758,-0.0317 0.0536,-0.008 0.11642,-0.0173 0.145,-0.0205 0.0974,-0.0106 0.19508,-0.0183 0.29315,-0.0226 0.0261,-10e-4 0.0522,-10e-4 0.0783,-0.002 0.0755,0.004 0.15064,0.007 0.22613,0.0152 0.0991,0.01 0.19791,0.024 0.29598,0.0416 0.0226,0.006 0.0455,0.0109 0.0677,0.0173 0.16581,0.0455 0.32632,0.10654 0.48366,0.17427 0.17533,0.0938 0.34467,0.19721 0.50271,0.31856 0.21767,0.16687 0.59126,0.20179 0.84949,0.18203 0.31045,-0.024 0.69356,-0.14428 0.94086,-0.34184 0.19791,-0.15769 0.42615,-0.37994 0.44132,-0.65123 0.0145,-0.25929 -0.0903,-0.44838 -0.29739,-0.60677"
       style="fill:#000000;fill-opacity:1;fill-rule:nonzero;stroke:none;stroke-width:0.0352778"
       id="path709" />
    <path
       d="m 143.26892,253.18163 c 0.11401,-0.0653 0.24325,0.054 0.35235,0.11229 0.41574,0.22065 0.49289,0.61059 0.53736,0.98554 0.0658,0.55997 0.15013,1.12191 0.0921,1.68901 -0.0265,0.37888 0.0614,0.76317 -0.0452,1.13861 -0.0334,0.1172 -0.0315,0.3005 -0.24129,0.2661 -0.1624,-0.0267 -0.13513,-0.18035 -0.14127,-0.29632 -0.0595,-1.08702 -0.19288,-2.16569 -0.43933,-3.23157 -0.0267,-0.11524 -0.068,-0.22801 -0.0884,-0.34399 -0.0189,-0.10836 -0.17102,-0.23686 -0.0263,-0.31967 z m 1.84675,12.30707 c 0.22163,0.0132 0.22261,0.15578 0.18158,0.28257 -0.12335,0.37937 -0.16069,0.78356 -0.41746,1.13296 0,-0.38871 10e-4,-0.77742 -7e-4,-1.16613 -4.9e-4,-0.14792 0.0288,-0.26193 0.23686,-0.2494 z m -2.80207,4.90189 c 0.005,-0.0116 0.0116,-0.0228 0.0221,-0.0339 0.38257,-0.23342 0.84549,-0.27838 1.26442,-0.43073 1.18358,-0.43121 2.00794,-1.13959 2.42442,-2.24356 0.28772,-0.76342 0.55382,-1.52929 0.70911,-2.32367 0.12826,-0.65457 -0.10271,-0.96785 -0.82042,-1.12314 -0.51427,-0.11155 -1.03616,-0.16536 -1.56714,-0.14201 -0.49166,0.0219 -0.75236,0.19509 -0.89561,0.62016 -0.0941,0.27913 -0.12776,0.56661 -0.12826,0.85949 -10e-4,0.40788 -0.0219,0.81502 -0.0506,1.22314 -0.0428,0.61182 -0.82386,0.94525 -1.43592,0.79241 -1.44404,-0.3607 -2.39321,-1.1536 -2.87676,-2.42859 -0.39117,-1.03074 -0.59191,-2.0895 -0.71477,-3.16988 -0.0929,-0.81699 -0.10737,-1.63446 -0.0678,-2.44874 0.0627,-1.29292 0.22188,-2.57724 0.7875,-3.78957 0.2403,-0.51549 0.5612,-0.98406 0.96441,-1.40791 0.22409,-0.23564 0.5069,-0.39878 0.81674,-0.52262 0.49264,-0.19657 0.7354,-0.0914 0.87177,0.38502 0.1833,0.6413 0.24522,1.30275 0.28183,1.9583 0.0322,0.57865 0.0934,1.15582 0.11278,1.73545 0.0292,0.88774 0.61107,1.36638 1.58704,1.29537 0.40689,-0.0295 0.81551,-0.0695 1.2165,-0.14964 0.63762,-0.12776 1.0251,-0.47962 1.16491,-1.05335 0.23833,-0.97669 0.21401,-1.96567 0.13956,-2.95317 -0.0305,-0.40665 -0.0821,-0.8133 -0.14448,-1.21848 -0.11302,-0.73245 -0.48233,-1.33419 -1.15016,-1.75436 -1.8873,-1.18726 -4.48272,-1.17449 -6.18303,-0.0288 -0.94769,0.6386 -1.57966,1.51823 -2.08189,2.4652 -0.84302,1.58973 -1.24771,3.28267 -1.4111,5.03334 -0.11352,1.21405 -0.13392,2.42048 0.0929,3.6252 0.41524,2.20498 1.48482,4.13184 3.10772,5.80462 0.64229,0.6617 1.51431,1.02338 2.46177,1.22609 0.18403,0.0393 0.37789,0.0529 0.53392,0.16585 0.0118,0.0108 0.0194,0.0221 0.0248,0.0334 0.31451,-0.16953 0.62926,-0.17003 0.94376,-7e-4"
       style="fill:#afe0dc;fill-opacity:1;fill-rule:nonzero;stroke:none;stroke-width:0.0245709"
       id="path647-4" />
    <path
       d="m 162.79575,267.39579 c 0.0148,0.004 0.0336,0.005 0.0558,0.005 7e-4,0.21937 0.001,0.4385 0.002,0.65787 -0.0193,-0.22086 -0.0385,-0.44171 -0.058,-0.66282 z m -0.15687,-1.85282 c -7e-4,-0.27521 -0.001,-0.55066 -0.001,-0.82586 0.0175,0.004 0.0365,0.004 0.0422,0.005 0.0511,0.001 0.10895,-0.007 0.15787,-0.0183 0.002,-4.9e-4 0.004,-10e-4 0.006,-10e-4 l 7e-4,0.25519 c 7e-4,0.35155 0.002,0.70285 0.003,1.05438 -0.0657,0.0134 -0.12846,0.0336 -0.16429,0.0583 -0.0146,-0.17565 -0.0301,-0.3513 -0.044,-0.52695 z m -0.004,-1.91211 c 0.0627,-0.006 0.1549,-0.0324 0.20405,-0.0818 5e-4,0.15094 7.1e-4,0.30213 0.001,0.45307 -0.0309,0.004 -0.0615,0.008 -0.0894,0.0148 -0.039,0.009 -0.0786,0.0207 -0.11537,0.0363 z m -0.016,-8.43847 c 0.0889,-0.0205 0.16601,-0.0543 0.16651,-0.0986 l 0.0205,-1.75177 0.007,2.23301 c -0.0857,0.0192 -0.15885,0.0501 -0.16009,0.0904 -0.009,0.28533 -0.0205,0.57042 -0.0319,0.8555 -7e-4,-0.4427 -0.001,-0.88564 -0.003,-1.32859 z m -0.75224,-2.14038 c -0.0181,-0.40983 -0.0321,-0.82018 -0.0485,-1.23002 0.0289,-0.0116 0.0553,-0.0244 0.0778,-0.0388 l 0.004,1.93806 c -0.0101,-0.22333 -0.0232,-0.44616 -0.0328,-0.66924 z m -0.27595,-4.70739 c -0.11734,-0.0109 -0.30782,0.0144 -0.44542,0.0662 0.002,-0.0805 0.004,-0.16107 0.006,-0.2416 0.009,0.008 0.0186,0.016 0.0306,0.022 0.023,0.01 0.0457,0.0197 0.0687,0.0296 0.0563,0.016 0.11414,0.0223 0.17368,0.0181 0.0324,-0.005 0.0647,-0.009 0.0973,-0.0139 0.0289,-0.006 0.0566,-0.0151 0.0833,-0.0252 -0.004,0.0484 -0.009,0.0966 -0.0136,0.14476 z m -4.09596,9.12674 2.86174,0.0252 c 2.4e-4,0.0412 4.9e-4,0.0823 7e-4,0.12352 -0.95284,-0.066 -1.90717,-0.11191 -2.86248,-0.14872 z m 2.52502,-0.81796 c 0.11018,0.001 0.22036,0.003 0.33054,0.004 0,0.0254 4.9e-4,0.0506 4.9e-4,0.0761 -0.15168,-0.0178 -0.30361,-0.0356 -0.4553,-0.0534 0.0412,-0.009 0.083,-0.0165 0.12427,-0.0259 z m -4.21875,0.11438 c -1.19395,0.005 -2.38766,0.0338 -3.5809,0.0879 l -2.9e-4,-0.0553 c 1.20655,-0.0615 2.41397,-0.10178 3.62196,-0.12821 -0.0454,0.0368 -0.0585,0.0694 -0.0408,0.0956 z m -3.57897,0.64231 -3e-4,-0.0773 c 0.13395,-0.006 0.26779,-0.007 0.40174,-0.0118 -0.004,0.0413 0.0229,0.0692 0.0656,0.0862 -0.15583,0.002 -0.31149,5e-4 -0.46705,0.003 z m -0.85259,-0.94988 c -0.023,7e-4 -0.0462,0.005 -0.0688,0.0111 -10e-4,-0.74903 -0.003,-1.49806 -0.004,-2.24709 0.0541,0.0353 0.12351,0.0509 0.19222,0.0474 0.002,0.73866 0.005,1.47706 0.007,2.21548 -0.037,-0.0181 -0.0791,-0.0289 -0.12644,-0.027 z m -0.77759,12.85386 c 0.0476,-0.0338 0.0799,-0.0739 0.0814,-0.11908 2e-4,-0.006 2e-4,-0.0111 4.7e-4,-0.0165 0.0559,0.0151 0.14204,0.0158 0.23326,0.004 0.005,0.0524 0.01,0.10475 0.0138,0.15688 -0.10935,-0.0123 -0.21885,-0.0215 -0.32886,-0.0254 z m 0.303,0.49532 c -0.11068,0.016 -0.22145,0.0321 -0.33215,0.0479 0.0101,-0.0183 0.0195,-0.0363 0.0291,-0.0546 0.0415,0.003 0.0854,-0.003 0.1211,-0.0113 0.0249,-0.006 0.0929,-0.0286 0.14165,-0.059 0.0137,-2.5e-4 0.0275,-5e-4 0.0412,-7e-4 -0.0301,0.0252 -0.0468,0.0573 -7e-4,0.0778 z m -0.44794,-19.37479 c 0.047,-0.0153 0.0912,-0.0346 0.12591,-0.0576 l 0.006,3.2444 c -0.0101,-0.22307 -0.0233,-0.44615 -0.033,-0.66923 -0.0361,-0.83895 -0.0688,-1.67816 -0.0989,-2.51761 z m -0.23549,-2.37432 c -0.10834,0.0262 -0.33128,0.0902 -0.3168,0.21838 2.9e-4,0.004 5e-4,0.006 7e-4,0.01 -0.0244,0.007 -0.0485,0.0144 -0.0707,0.0225 0.004,-0.13538 0.006,-0.271 0.009,-0.40688 0.008,0.005 0.0186,0.008 0.0278,0.0118 5e-4,0.001 -7e-4,0.004 0,0.005 0.0212,0.0492 0.0806,0.0593 0.13288,0.0707 0.0893,0.0197 0.17854,0.0393 0.26809,0.059 -0.0207,0.004 -0.0394,0.006 -0.0512,0.009 z m -0.2034,19.20432 c -0.0545,-1.25274 -0.10038,-2.50574 -0.1382,-3.75874 0.0417,0.006 0.0912,0.006 0.1435,0.002 0.0159,1.25201 0.0183,2.50427 -0.006,3.75652 z m 13.5343,-9.83203 c -0.005,-1.58255 -0.0101,-3.16412 -0.0153,-4.74519 -0.005,-1.59466 -0.0104,-3.18932 -0.0153,-4.78372 -7e-4,-0.2342 -0.39773,-0.24334 -0.60303,-0.12352 0,-10e-4 0,-0.004 0,-0.005 -2.4e-4,-0.0583 -0.0469,-0.0902 -0.10944,-0.10227 -0.0247,-0.0427 -0.0966,-0.0561 -0.17465,-0.0467 -0.009,-0.0993 -0.1213,-0.14477 -0.22975,-0.15984 -0.10845,-0.0153 -0.23197,0.003 -0.34117,0.0432 l -0.67096,0.13241 c -0.0771,0.0151 -0.1638,0.0541 -0.22234,0.10351 7e-4,-0.0366 0.001,-0.0734 0.003,-0.10993 0.004,-0.12525 -0.71098,-0.0388 -0.71593,0.15959 -0.002,0.0709 -0.004,0.14205 -0.005,0.2132 -0.009,0.006 -0.0165,0.0116 -0.0235,0.0178 -0.10376,0.019 -0.20332,0.0568 -0.20405,0.10869 -0.017,1.26017 -0.0343,2.52033 -0.0514,3.78049 -5e-4,0.0291 0.10054,0.0326 0.20529,0.0163 -7e-4,0.081 -0.003,0.16206 -0.004,0.24333 -0.0158,0.32388 -0.0348,0.64775 -0.0576,0.97138 -0.003,0.0375 0.0173,0.063 0.0489,0.0793 -0.007,0.98989 -0.0113,1.97979 -0.008,2.96969 -0.33276,-0.004 -0.66504,-0.007 -0.99756,-0.01 -0.004,-0.0181 -0.023,-0.0338 -0.065,-0.0447 -0.87576,-0.22926 -1.79327,-0.31053 -2.70461,-0.23889 -0.14502,0.0113 -0.34537,0.0363 -0.45308,0.13266 -0.085,0.0761 -0.0551,0.13118 0.0731,0.14551 0.0568,0.006 0.11339,0.0128 0.16997,0.0192 -1.38487,0.0247 -2.76917,0.0721 -4.15231,0.14329 l -0.0121,-3.75504 c -0.005,-1.59466 -0.0102,-3.18932 -0.0154,-4.78373 -7e-4,-0.31572 -0.72377,-0.22284 -0.72278,0.0447 l 0.004,1.03757 c -0.0292,-0.0778 -0.0939,-0.14031 -0.18528,-0.1623 -2.7e-4,-0.20999 -7e-4,-0.42023 -10e-4,-0.63046 0.0521,-0.0361 0.10759,-0.084 0.1127,-0.14328 0.003,-0.0358 -0.0102,-0.0684 -0.0317,-0.0973 0.0265,-0.0331 0.0495,-0.0771 0.006,-0.11018 -0.042,-0.0319 -0.10208,-0.0398 -0.15729,-0.0417 -0.003,-0.006 -0.005,-0.0106 -0.007,-0.0163 0.0429,-0.0319 0.0933,-0.0793 0.098,-0.13118 0.0103,-0.11907 -0.11319,-0.1707 -0.23093,-0.18701 -0.10857,-0.0151 -0.23227,0.003 -0.34131,0.0432 l -0.67117,0.13242 c -0.0767,0.0153 -0.16386,0.0541 -0.22224,0.10375 7e-4,-0.0366 10e-4,-0.0734 0.002,-0.11018 0.003,-0.12525 -0.71071,-0.0388 -0.71602,0.15959 -0.15218,5.69877 -0.13222,11.40051 0.0627,17.09829 0.0466,1.3654 0.10595,2.73056 0.17253,4.09522 -0.0439,0.0239 -0.0782,0.0568 -0.0724,0.10154 0.0506,0.38143 0.10101,0.76286 0.15148,1.14429 0.01,0.0714 0.16715,0.06 0.21589,0.0524 0.0868,-0.0138 0.18027,-0.0477 0.2174,-0.12179 0.0137,-0.0277 0.0234,-0.0566 0.0354,-0.0847 0.0501,0.0151 0.12383,0.008 0.15779,0.003 0.0273,-0.004 0.0582,-0.0123 0.0881,-0.0228 -0.02,0.0155 -0.0386,0.0341 -0.0415,0.0536 -0.0128,0.0818 0.12132,0.0949 0.18674,0.0852 0.18355,-0.0264 0.36691,-0.0529 0.55053,-0.0793 0.006,-7e-4 0.0115,-0.002 0.0174,-0.004 0.003,0.005 0.007,0.009 0.0132,0.0131 0.13392,0.0837 0.28321,0.14278 0.44677,0.16724 0.0791,0.0118 0.15905,0.0173 0.23721,0.009 0.0796,0.0163 0.16377,0.0192 0.2432,0.009 0.0661,-0.009 0.12883,-0.0249 0.18402,-0.0585 0.0337,-0.0205 0.0734,-0.0506 0.064,-0.0912 l -0.0106,-0.0457 c 0.0666,-0.0304 0.12448,-0.081 0.13799,-0.14649 0.009,-0.0427 -0.003,-0.0885 -0.0114,-0.13069 0.0536,-0.0388 0.0888,-0.0877 0.0886,-0.14576 l -0.0376,-11.74562 c 2.66699,-0.044 5.33374,0.0284 7.99241,0.21493 0.0232,0.0363 0.0581,0.0682 0.11834,0.0825 0.009,0.002 0.018,0.004 0.0272,0.005 0.0158,1.59021 0.0454,3.18067 0.0884,4.77064 -0.059,0.0299 -0.10129,0.0724 -0.0976,0.12327 0.0148,0.20406 0.0212,0.40836 0.023,0.61266 -0.0282,0.0205 -0.0459,0.0443 -0.0448,0.0712 0.009,0.24284 0.0141,0.48593 0.0193,0.72877 -0.0158,0.21962 -0.0361,0.439 -0.0665,0.65788 -0.006,0.0485 0.026,0.0773 0.0749,0.0912 0.004,0.78584 -0.0129,1.57192 -0.0524,2.35752 -0.002,0.0366 0.0625,0.0501 0.14204,0.0454 -0.0183,0.71568 -0.0366,1.43136 -0.0548,2.14705 -0.001,0.0637 0.15292,0.0662 0.27792,0.0333 -0.004,0.0346 -0.007,0.0692 -0.0141,0.10326 -0.007,0.0361 0.0181,0.0721 0.0506,0.0921 0.039,0.024 0.1003,0.0328 0.14675,0.0291 0.0195,-10e-4 0.0401,-0.006 0.0605,-0.0102 0.0267,0.0165 0.0887,0.02 0.15835,0.0121 0.004,0.0168 0.008,0.0333 0.0123,0.0499 0.0165,0.0657 0.19195,0.0341 0.2379,0.0232 0.0514,-0.0121 0.17318,-0.0422 0.1922,-0.0995 0.0939,-0.022 0.17862,-0.0625 0.18232,-0.11586 7e-4,-0.0284 0.002,-0.0568 0.003,-0.0852 l 0.10648,7.1e-4 c 0.002,2.5e-4 0.004,0 0.006,0 -0.009,0.0625 -0.0215,0.12476 -0.042,0.18651 -0.023,0.0684 0.1371,0.0524 0.17515,0.0467 0.0496,-0.007 0.0986,-0.0195 0.14501,-0.037 0.0499,0.0217 0.13019,0.009 0.17491,7e-4 0.0272,-0.005 0.0541,-0.0118 0.0808,-0.0198 0.19245,0.0118 0.38489,0.0233 0.57709,0.0348 0.10005,0.006 0.22406,-0.016 0.30633,-0.0682 4.9e-4,-2.5e-4 0.001,-7e-4 0.001,-7e-4 0.17688,-0.0195 0.34981,-0.10796 0.34931,-0.23914 -0.0131,-4.09251 -0.0262,-8.18007 -0.0395,-12.26367"
       style="fill:#ed9694;fill-opacity:1;fill-rule:nonzero;stroke:none;stroke-width:0.0247042"
       id="path903" />
    <path
       d="m 162.45014,267.00645 c -2.5e-4,-0.007 -0.024,-0.01 -0.0598,-0.009 0.0296,-2.23672 0.0252,-4.47368 -0.0153,-6.71041 -0.0274,-1.52845 -0.0731,-3.0564 -0.1334,-4.58386 0.0321,-0.009 0.0524,-0.02 0.0521,-0.0326 -0.0338,-1.74807 -0.0674,-3.49614 -0.10129,-5.24446 0.0714,-0.31473 0.066,-0.6349 -0.0183,-0.94864 -0.001,-0.005 -0.008,-0.009 -0.0181,-0.0128 l -0.004,-0.1796 c -7e-4,-0.0375 -0.48791,-0.0173 -0.51878,0.0412 -0.12773,-0.01 -0.24952,0.045 -0.24038,0.18034 0.15613,2.28292 0.27644,4.56806 0.35944,6.85419 0.006,0.16799 0.0106,0.33598 0.016,0.50372 l -5.12933,0.0593 c -1.24139,-0.0121 -2.48283,-0.041 -3.72335,-0.0892 -0.75464,-0.0291 -1.50878,-0.0657 -2.26246,-0.10796 0.004,-0.71148 0.0128,-1.42272 0.0328,-2.13395 4.9e-4,-0.016 -0.0526,-0.0205 -0.12399,-0.0151 0.0424,-1.22508 0.0849,-2.44992 0.12737,-3.675 0.0101,-0.009 0.0171,-0.0207 0.0183,-0.0368 0.007,-0.11142 0.0149,-0.22308 0.0227,-0.3345 0.0121,-0.01 0.0207,-0.0225 0.0237,-0.04 0.0709,-0.4521 0.0948,-0.90838 0.0719,-1.36467 -0.006,-0.13167 -0.46658,-0.32189 -0.47719,-0.16403 -0.006,0.0939 -0.0128,0.1875 -0.0191,0.28113 -0.029,0.007 -0.047,0.0239 -0.0473,0.0529 -10e-4,0.23247 -0.003,0.46494 -0.004,0.69716 -0.004,0.061 -0.008,0.12203 -0.0125,0.18281 -0.0403,0.0272 -0.0692,0.0627 -0.0706,0.10697 -0.0579,1.67247 -0.11581,3.34471 -0.17399,5.01693 -0.003,0.0919 0.0599,0.14897 0.14455,0.1712 -0.0278,1.37331 -0.0263,2.74711 0.009,4.12042 0.0413,1.62134 0.1267,3.24194 0.25571,4.85907 0.0469,0.58426 0.10114,1.16753 0.15924,1.75079 -0.0352,0.0378 -0.055,0.0842 -0.0459,0.13736 0.0202,0.12006 0.0386,0.24037 0.0558,0.36093 -0.0317,0.0358 -0.0507,0.079 -0.0471,0.12772 0.0548,0.73594 0.10951,1.47188 0.16433,2.20757 0.0202,0.27026 0.4994,0.14723 0.50876,-0.0845 0.0246,-0.61316 0.005,-1.22632 -0.0574,-1.83602 0.0188,-0.0155 0.0302,-0.0321 0.0283,-0.0494 -0.17834,-1.61319 -0.31362,-3.23057 -0.40483,-4.85042 -0.0912,-1.61962 -0.13877,-3.2412 -0.14212,-4.86328 0,-0.0437 4.7e-4,-0.0872 7e-4,-0.13093 0.0342,0.0484 0.11068,0.17465 0.17273,0.17391 2.01077,-0.0232 4.02168,-0.0464 6.03238,-0.0697 0.8219,0.009 1.64357,0.0104 2.46499,0.004 0.54695,-0.005 1.0939,-0.0141 1.64061,-0.0259 -7.1e-4,0.004 -0.004,0.006 -0.003,0.01 0.005,0.0356 0.0455,0.0546 0.0773,0.0652 0.0598,0.0195 0.12303,0.0252 0.18577,0.0252 h 0.45209 c 0.0353,0 0.0739,-0.004 0.11191,-0.0111 0.0616,1.95114 0.0981,3.90278 0.10573,5.85465 0.004,1.05438 -0.001,2.10827 -0.0128,3.16239 -0.10796,0.0301 -0.2006,0.0689 -0.19245,0.0934 0.16157,0.4921 0.24779,1.00101 0.26039,1.51313 -0.005,0.23543 -0.0138,0.47062 -0.0284,0.7058 -10e-4,0.0197 0.49705,-0.0136 0.50866,-0.11759 0.0262,-0.23494 0.0343,-0.47062 0.0286,-0.7058 0.006,-0.29695 0.005,-0.5939 -0.005,-0.89083"
       style="fill:#ffffff;fill-opacity:1;fill-rule:nonzero;stroke:none;stroke-width:0.0247042"
       id="path905" />
    <path
       d="m 193.98159,263.06264 c -0.38694,1.15572 -1.04746,2.15902 -1.82915,3.08259 -0.73479,0.86924 -1.79007,1.09749 -2.82581,1.3402 -1.5751,0.36857 -3.18148,0.34317 -4.78393,0.37131 -0.21106,0.003 -0.30095,-0.0622 -0.28141,-0.28492 0.19151,-2.14809 0.16806,-4.30398 0.22278,-6.45637 0.043,-1.74043 0.008,-3.48281 0.0547,-5.22285 0.0351,-1.45003 0.0508,-2.89968 -0.0117,-4.35011 0,-2.44472 0.008,-4.88985 -0.004,-7.33497 -0.004,-0.32322 0.0742,-0.42211 0.41038,-0.41898 2.16528,0.0199 3.99443,0.89542 5.63207,2.21843 1.46958,1.18817 2.56003,2.70034 3.48633,4.33408 0.65663,1.16353 0.94584,2.43808 1.07092,3.75483 0.28923,3.07283 -0.16806,6.05419 -1.14127,8.96676 z m -10.47854,-18.84223 c -0.0508,3.45234 -0.0977,6.90506 -0.16025,10.35699 -0.0469,2.51274 -0.086,5.02587 -0.18761,7.53666 -0.0391,0.98806 0.0195,1.98432 -0.20715,2.97902 -0.0625,-1.93195 -0.11725,-3.86389 -0.19151,-5.79506 -0.11334,-2.8985 -0.16025,-5.79817 -0.16806,-8.69863 -0.004,-2.12502 0.0235,-4.24965 0.0899,-6.37389 0.0156,-0.5335 0.3713,-0.31932 0.6019,-0.36427 0.32049,-0.0629 0.22278,0.21144 0.22278,0.35918 z m -1.97768,23.79696 c -0.31658,-0.009 -0.63317,-0.008 -0.95366,0.003 -0.22278,0.008 -0.29704,-0.0962 -0.28141,-0.30056 0.004,-0.0551 0,-0.11057 -0.004,-0.16572 -0.0391,-3.42535 -0.0821,-6.85072 -0.12507,-10.27608 0.0195,0 0.0391,0 0.0586,0 0,-2.21101 -0.0274,-4.42163 0.008,-6.63185 0.0312,-1.90302 0.11334,-3.80682 0.56281,-5.67155 0.11725,-0.48425 0.41429,-0.65427 0.90286,-0.51982 0.15242,0.0422 0.13679,0.13172 0.12506,0.25092 -0.28141,2.98684 -0.22278,5.98539 -0.26576,8.97888 -0.0351,2.54048 0.0351,5.08254 0.0821,7.62342 0.0274,1.7248 0.0899,3.4492 0.14071,5.174 0.0117,0.39944 0.0391,0.79927 0.0781,1.19715 0.0274,0.26069 -0.0821,0.34512 -0.32831,0.33769 z m 15.17649,-13.30746 c -0.0938,-1.08733 -0.25795,-2.16607 -0.6058,-3.20415 -0.75433,-2.22313 -2.08712,-4.07416 -3.76383,-5.67819 -2.59522,-2.48538 -5.62816,-3.54496 -9.22394,-2.72614 -0.63708,0.1454 -1.25851,0.41508 -1.94249,0.34395 -0.77387,-0.0805 -1.14127,0.16806 -1.34842,0.91028 -0.23841,0.85008 -0.41429,1.71736 -0.52373,2.59285 -0.28923,2.31537 -0.37911,4.64675 -0.48074,6.97462 -0.086,2.11056 -0.14461,4.22425 -0.10547,6.42861 -0.0274,2.1477 0.0665,4.3841 0.0938,6.6213 0.008,0.51006 0.0391,1.02049 0.0742,1.52976 0.0391,0.61989 0.31658,0.91498 0.94193,1.01191 0.7856,0.12076 1.57119,0.11998 2.34116,-0.0918 0.37521,-0.10237 0.75824,-0.154 1.14517,-0.16612 2.177,-0.0676 4.36965,0.0673 6.52319,-0.41234 1.18036,-0.26264 2.36462,-0.5464 3.27919,-1.3828 1.00448,-0.91653 1.73926,-2.05897 2.19264,-3.32961 1.08654,-3.04194 1.67672,-6.17261 1.40313,-9.42208"
       style="fill:#7b79cd;fill-opacity:1;fill-rule:nonzero;stroke:none;stroke-width:0.0390845"
       id="path825" />
    <path
       d="m 202.55796,253.66945 c 0.39722,-0.98672 0.871,-1.95121 1.49119,-2.81798 0.24553,-0.31821 0.51188,-0.62019 0.81244,-0.88724 0.0127,-0.0102 0.0254,-0.0205 0.0384,-0.0307 0.079,-0.0603 0.16017,-0.11818 0.24272,-0.17286 0.0272,-0.018 0.0547,-0.0346 0.0822,-0.0511 0.0483,-0.0265 0.16051,-0.0875 0.21836,-0.11183 0.0448,-0.019 0.11713,-0.0413 0.17498,-0.0579 0.0332,-0.008 0.0667,-0.0162 0.10125,-0.0226 0.004,-10e-4 0.008,-10e-4 0.012,-0.002 0.0755,-0.005 0.15099,-0.006 0.22613,-0.005 0.0374,0.005 0.0744,0.009 0.11183,0.0152 0.0536,0.008 0.14958,0.0367 0.20532,0.0529 0.0833,0.031 0.16545,0.0642 0.24624,0.10195 0.1598,0.0998 0.30868,0.21413 0.44767,0.34184 0.24871,0.27552 0.44944,0.58632 0.60713,0.92251 0.18627,0.47484 0.28857,0.97649 0.3115,1.4859 -0.006,0.4251 -0.0681,0.84597 -0.19402,1.25201 -0.13653,0.34714 -0.32103,0.67169 -0.53446,0.9772 -0.12383,0.15839 -0.25294,0.31256 -0.39194,0.4579 -0.0871,0.0907 -0.17709,0.17886 -0.26881,0.26494 -0.0508,0.0469 -0.21943,0.18097 -0.23848,0.19826 -0.35208,0.26317 -0.70979,0.51012 -1.09608,0.72531 -0.0296,0.0152 -0.0593,0.0307 -0.0892,0.0459 -0.11677,0.0586 -0.23425,0.11501 -0.35243,0.16933 -0.23812,0.10972 -0.47978,0.21167 -0.72355,0.30622 -0.24412,0.0952 -0.49036,0.18379 -0.73871,0.26599 -0.0388,0.013 -0.078,0.0254 -0.11642,0.0385 -0.1136,0.0342 -0.22789,0.0681 -0.3422,0.10054 -0.11429,0.0328 -0.23071,0.0716 -0.34395,0.11854 0.008,-1.15535 -0.007,-2.30999 -0.0455,-3.46464 0.0617,-0.0649 0.1143,-0.13617 0.1464,-0.2166 z m 13.16249,14.04444 c -0.0536,-0.24765 -0.28505,-0.45332 -0.51471,-0.53799 -0.30797,-0.11253 -0.66639,-0.12805 -1.0033,-0.0533 0.0533,-0.0579 0.0998,-0.12101 0.1323,-0.19015 0.0963,-0.20708 0.16298,-0.51435 -0.0155,-0.70415 -1.99673,-2.11525 -4.20194,-4.01743 -6.60083,-5.65291 -0.48789,-0.41522 -0.97578,-0.83044 -1.46367,-1.24601 l -1.15959,-0.98778 c 1.19134,-0.47448 2.3167,-1.08832 3.30659,-1.9371 1.22767,-1.05198 2.11279,-2.55164 2.09268,-4.19806 -0.0187,-1.48448 -0.6029,-3.08962 -1.9244,-3.90313 -1.64712,-1.01353 -3.82129,-0.75212 -5.32765,0.41381 -0.393,0.30409 -0.74719,0.64664 -1.06963,1.0167 -0.10019,-1.21955 -0.22683,-2.43698 -0.37853,-3.65125 -0.0222,-0.17674 -0.22154,-0.28292 -0.36512,-0.33831 -0.22684,-0.0871 -0.48472,-0.11254 -0.72602,-0.0896 -0.50165,0.0476 -1.0728,0.21273 -1.40158,0.62018 -0.0695,0.0861 -0.1323,0.17533 -0.19262,0.26529 -0.0367,0.007 -0.0727,0.0145 -0.10725,0.0229 -0.44238,0.10619 -1.19097,0.36901 -1.1564,0.93945 l 0.49777,8.19785 c 0.1658,2.73226 0.33196,5.46488 0.49812,8.1975 l 0.28081,4.63197 c 0.0127,0.20391 0.32879,0.34643 0.48154,0.38276 0.22119,0.0533 0.44486,0.0557 0.66887,0.0325 10e-4,7.1e-4 0.002,10e-4 0.003,0.002 0.22931,0.13371 0.58773,0.1584 0.84173,0.13441 0.33725,-0.0325 0.69285,-0.10901 0.98672,-0.28363 0.17497,-0.10407 0.49812,-0.29281 0.51153,-0.52247 0.13335,-2.26307 0.1524,-4.53037 0.0487,-6.79414 0.87418,1.16875 1.83479,2.27153 2.86878,3.3087 0.81492,0.81668 1.67852,1.58432 2.58587,2.29694 0.89993,0.70732 1.84467,1.43721 2.89983,1.89688 1.44462,0.63006 3.30165,0.65052 4.45629,-0.56691 0.17074,-0.17992 0.30162,-0.44768 0.24588,-0.70273"
       style="fill:#c67379;fill-opacity:1;fill-rule:nonzero;stroke:none;stroke-width:0.0352778"
       id="path717" />
    <path
       d="m 201.03466,258.977 c -0.10971,-2.3749 -0.26776,-4.75368 -0.31186,-7.13105 -0.0247,-1.31128 0.0346,-2.62467 0.31045,-3.91055 0.0977,-0.45473 -1.016,-0.33196 -1.10243,0.0695 -0.4953,2.30929 -0.3048,4.69689 -0.19615,7.03616 0.11148,2.40841 0.22296,4.81683 0.33444,7.22524 0.0638,1.37654 0.12735,2.75272 0.1912,4.12891 0.0113,0.24342 0.47237,0.21696 0.61948,0.18521 0.20779,-0.0451 0.49918,-0.17427 0.48754,-0.42475 l -0.33267,-7.17867"
       style="fill:#ffffff;fill-opacity:1;fill-rule:nonzero;stroke:none;stroke-width:0.0352778"
       id="path719" />
    <path
       d="m 212.96949,266.66614 c -2.17841,-1.52153 -4.22522,-3.2258 -6.11576,-5.09305 -0.22472,-0.22155 -1.24425,0.14217 -1.04387,0.33937 1.89054,1.86725 3.93735,3.57152 6.11576,5.09305 0.1905,0.133 0.50906,0.061 0.71155,-0.006 0.066,-0.0212 0.50906,-0.21025 0.33232,-0.33372"
       style="fill:#ffffff;fill-opacity:1;fill-rule:nonzero;stroke:none;stroke-width:0.0352778"
       id="path721" />
    <path
       d="m 208.43594,248.96551 c -0.21343,-0.13052 -0.57715,-0.0554 -0.77893,0.0642 -0.15734,0.0931 -0.33902,0.28787 -0.11572,0.42404 0.0483,0.03 0.0956,0.0617 0.14288,0.0942 0.007,0.005 0.0102,0.007 0.0148,0.0102 0.002,0.002 0.005,0.004 0.009,0.008 0.0222,0.018 0.0438,0.0363 0.0653,0.0554 0.085,0.0751 0.16439,0.15734 0.23671,0.24518 0.14676,0.17816 0.24906,0.3489 0.32773,0.54681 0.1711,0.42827 0.21167,0.86642 0.10302,1.29611 -0.10407,0.40992 1.00471,0.28927 1.09925,-0.0829 0.25823,-1.01988 -0.21308,-2.11667 -1.10455,-2.66136"
       style="fill:#ffffff;fill-opacity:1;fill-rule:nonzero;stroke:none;stroke-width:0.0352778"
       id="path723" />
    <path
       d="m 209.24874,252.9198 c -0.25682,-0.0127 -0.58808,0.0413 -0.7306,0.28787 -0.12595,0.21837 0.0804,0.41804 0.30092,0.42862 0.25682,0.0127 0.58843,-0.0413 0.73025,-0.28751 0.12629,-0.21837 -0.0801,-0.41875 -0.30057,-0.42898"
       style="fill:#ffffff;fill-opacity:1;fill-rule:nonzero;stroke:none;stroke-width:0.0352778"
       id="path725" />
    <path
       d="m 224.84963,258.19672 c -0.0454,0.41944 -0.0821,0.83968 -0.13539,1.25792 -0.20369,1.59701 -0.85214,2.9628 -2.12171,3.98588 -0.70509,0.5681 -1.51022,0.80976 -2.4174,0.62515 -0.0496,-0.0102 -0.10124,-0.009 -0.15247,-0.0114 -0.005,-2.1e-4 -0.0101,-2.1e-4 -0.015,-5.8e-4 v 0 c -0.92245,-0.21413 -1.46322,-0.88769 -1.95035,-1.62613 -0.0615,-0.0932 -0.12374,-0.18601 -0.18562,-0.27902 -0.003,-0.006 -0.005,-0.012 -0.007,-0.0183 -0.87203,-2.03311 -1.03273,-4.16707 -0.91702,-6.34663 0.10003,-1.87965 0.37906,-3.72815 0.868,-5.54432 0.0938,-0.34833 0.22338,-0.68702 0.33688,-1.03012 5.7e-4,-0.002 0.002,-0.005 0.002,-0.007 0.21153,-0.41241 0.51245,-0.75512 0.83708,-1.07934 v 0 0 c 0.10787,0.0734 0.0211,0.21635 0.10586,0.29811 0.15367,1.07833 1.25692,2.18338 2.43127,2.41057 0.67174,0.12998 1.34429,0.12998 2.00177,-0.098 0.005,-0.002 0.0101,-0.003 0.0152,-0.005 0.39634,-0.0402 0.75933,-0.19586 1.12352,-0.33929 0.17497,-0.0689 0.22398,-0.0217 0.25432,0.14785 0.10667,0.5924 0.15709,1.19202 0.16974,1.79045 0.0408,1.96081 -0.0326,3.91819 -0.24367,5.86935 z m -4.11444,-11.0814 c 0.31619,-0.22539 0.66511,-0.11491 0.99718,-0.0784 0.46383,0.0508 0.86177,0.28143 1.24003,0.54338 8e-4,0 0.002,0 0.003,0 0.14625,0.14846 0.30334,0.28847 0.43531,0.44877 0.0988,0.12013 0.28927,0.17798 0.27642,0.37987 v 2e-4 c -0.10587,0.0579 -0.21636,0.10827 -0.31619,0.17517 -0.47689,0.31919 -0.99537,0.41 -1.55181,0.28866 -0.57994,-0.12635 -0.95518,-0.50361 -1.15386,-1.03855 -0.083,-0.22358 -0.0996,-0.49397 0.0693,-0.71915 z m 7.19837,-0.90176 c 0.0703,-0.1818 0.0522,-0.28504 -0.11852,-0.39152 -0.30734,-0.19244 -0.60063,-0.40879 -0.90195,-0.61509 -0.018,-0.013 -0.0382,-0.0259 -0.0583,-0.0389 -0.14262,-0.0954 -0.28726,-0.18983 -0.42787,-0.28827 -0.0884,-0.0615 -0.14725,-0.0611 -0.18883,0.0504 -0.28003,0.74949 -0.75994,1.39653 -1.08456,2.12312 -0.0464,0.0645 -0.10607,0.12314 -0.1364,0.19445 -0.0986,0.23222 -0.21353,0.23764 -0.35596,0.0402 -0.14042,-0.19325 -0.30695,-0.35998 -0.49919,-0.5014 v 0 c -0.0583,-0.058 -0.11671,-0.11611 -0.17497,-0.17416 -0.0416,-0.0968 -0.10787,-0.16151 -0.21836,-0.16915 -0.056,-0.0374 -0.11228,-0.0747 -0.16833,-0.11209 -0.1149,-0.14343 -0.27622,-0.19807 -0.44657,-0.23483 -2e-4,0 -2e-4,0 -2e-4,-2e-4 v 2e-4 0 c 2e-4,2e-4 4e-4,4e-4 5.8e-4,4e-4 -0.0992,-0.0822 -0.21454,-0.1143 -0.34191,-0.10807 v 0 c -0.23342,-0.0298 -0.45941,-0.0906 -0.68218,-0.16433 -0.70108,-0.18902 -1.39753,-0.17134 -2.08877,0.05 -2e-4,0 -2e-4,0 -4e-4,2e-4 -0.25572,0.0747 -0.5018,0.16934 -0.72518,0.32021 -0.49738,0.33667 -0.91301,0.76334 -1.31738,1.20187 -0.26537,0.28786 -0.53836,0.5719 -0.69605,0.94072 -0.10085,0.0972 -0.14303,0.22619 -0.19004,0.35275 0,0 0,0 -2e-4,0 -0.0434,0.0683 -0.0962,0.13338 -0.087,0.22258 -0.0184,0.0317 -0.043,0.0617 -0.0546,0.0958 -0.61068,1.79066 -1.08857,3.61144 -1.24827,5.50494 -0.009,0.10908 0.047,0.24749 -0.0984,0.31739 0,0.16895 0,0.33788 0,0.50683 0,0.11269 0,0.22519 0,0.33788 0,0.22499 0,0.45017 0,0.67536 0,0.11249 0,0.22519 0,0.33788 0,0.16854 0,0.33749 0,0.50642 0,0.16895 0,0.33788 0,0.50663 0.0219,-8e-4 0.0434,-0.002 0.0651,-0.003 0.0129,0.005 0.0259,0.009 0.0394,0.0113 -0.005,0.30474 -0.0239,0.61048 0.0589,0.9096 0,2e-4 0,4e-4 2e-4,5.6e-4 -0.0117,0.0122 -0.0119,0.0247 -2e-4,0.037 -0.003,0.34953 0.0253,0.69505 0.11169,1.03454 v 2e-4 c -0.0109,0.0121 -0.0104,0.0241 0.002,0.0354 2e-4,0.23282 0.0331,0.46001 0.11309,0.67938 -5.7e-4,-5.7e-4 -10e-4,-8e-4 -0.002,-8e-4 -0.002,0.0982 -0.0111,0.19807 0.0542,0.28304 -3.9e-4,-3.9e-4 -5.6e-4,-5.7e-4 -10e-4,-7.9e-4 -2e-4,0.11631 -0.006,0.23342 0.0605,0.33748 -0.004,0.0996 -0.001,0.19766 0.0556,0.28525 5.7e-4,8e-4 5.7e-4,0.002 0.002,0.003 -0.006,0.23604 0.0802,0.45179 0.14625,0.67215 0.0382,0.13459 0.051,0.27802 0.13459,0.39694 0,2e-4 0,2e-4 0,2e-4 0.0384,0.26236 0.16693,0.49377 0.25311,0.73985 0.49215,1.40516 1.96542,2.02809 3.27034,2.07169 0.48071,0.0564 0.96182,0.099 1.44253,4e-4 2e-4,0 2e-4,0 4e-4,0 l 0.0168,0.009 0.0171,-0.009 c 0.11752,0.003 0.23704,0.0167 0.3421,-0.0556 -4e-4,5.6e-4 -7.9e-4,8e-4 -0.002,0.002 0.10224,0.003 0.20349,0.003 0.29207,-0.0595 2e-4,-2e-4 2e-4,-2e-4 4.1e-4,-2e-4 0.1394,0.005 0.26275,-0.0442 0.37966,-0.1145 0.23243,-0.0125 0.43852,-0.1153 0.62113,-0.23744 0.89934,-0.60245 1.73019,-1.28604 2.29868,-2.22757 0.65086,-1.07793 0.90758,-2.29105 1.12514,-3.5108 0.3214,-1.79809 0.35756,-3.61545 0.32743,-5.43464 -0.0221,-1.37343 -0.23704,-2.72315 -0.61369,-4.04374 -0.0609,-0.21353 -0.0412,-0.36822 0.0936,-0.54057 0.6607,-0.84491 1.21513,-1.75289 1.60484,-2.75749"
       style="fill:#617e83;fill-opacity:1;fill-rule:nonzero;stroke:none;stroke-width:0.0200881"
       id="path675" />
    <path
       d="m 226.85033,254.66797 c 0.0221,0.49667 -0.17893,0.95142 -0.28373,1.42288 -0.0495,0.22298 -0.10298,0.47025 -0.30256,0.63216 0.16009,0.0562 0.19502,-0.0945 0.23238,-0.19077 0.21417,-0.54983 0.38155,-1.11334 0.4174,-1.70753 0.006,-0.10692 -0.0209,-0.22053 0.066,-0.31046 -0.0914,0.0103 -0.13366,0.0641 -0.12941,0.15372"
       style="fill:#617e83;fill-opacity:1;fill-rule:nonzero;stroke:none;stroke-width:0.0303777"
       id="path477-5" />
    <path
       d="m 226.92141,253.3034 c 0.005,0.31563 -0.0817,0.64067 0.0583,0.9487 0,-0.56776 0,-1.13521 0,-1.70297 -0.13639,0.2418 -0.0626,0.50427 -0.0583,0.75427"
       style="fill:#617e83;fill-opacity:1;fill-rule:nonzero;stroke:none;stroke-width:0.0303777"
       id="path481-0" />
    <path
       d="m 232.02637,244.0926 c -0.002,3e-4 -0.004,6e-4 -0.007,8.6e-4 -0.002,3e-4 -0.003,8.6e-4 -0.006,0.002 0.002,-3.1e-4 0.004,-6.1e-4 0.007,-6.1e-4 0.002,-6e-4 0.004,-8.6e-4 0.006,-0.002"
       style="fill:#c1d9c8;fill-opacity:1;fill-rule:nonzero;stroke:none;stroke-width:0.0303777"
       id="path487-48" />
    <path
       d="m 231.99448,244.1002 c -0.002,6e-4 -0.003,8.6e-4 -0.004,0.002 -0.002,6e-4 -0.003,0.002 -0.005,0.003 8.6e-4,-3.1e-4 0.002,-6.1e-4 0.002,-6.1e-4 0.003,-8.6e-4 0.005,-0.003 0.008,-0.003"
       style="fill:#c1d9c8;fill-opacity:1;fill-rule:nonzero;stroke:none;stroke-width:0.0303777"
       id="path489-7" />
    <path
       d="m 241.58834,251.20279 c -0.17133,1.06899 -0.60391,2.08816 -1.26735,2.9445 -0.26125,0.31927 -0.54893,0.61576 -0.86273,0.88399 -0.082,0.0702 -0.16586,0.13852 -0.25092,0.20505 -0.0127,0.01 -0.0252,0.0195 -0.0383,0.0292 -0.0382,0.028 -0.0768,0.0562 -0.11573,0.0835 -0.18288,0.12849 -0.37122,0.24849 -0.56473,0.36028 -0.024,0.0139 -0.048,0.0274 -0.0723,0.041 -0.014,0.008 -0.0282,0.0164 -0.0416,0.0231 -0.10238,0.0535 -0.20566,0.10481 -0.31046,0.15372 -0.0629,0.0294 -0.12637,0.0568 -0.18986,0.0845 -0.009,0.004 -0.0197,0.009 -0.0286,0.0127 -0.009,0.004 -0.0185,0.009 -0.0282,0.0125 -0.0543,0.0216 -0.10906,0.0425 -0.16374,0.0626 -0.0905,0.0338 -0.18135,0.065 -0.27309,0.0954 -0.0419,0.0125 -0.0841,0.0252 -0.12637,0.037 -0.0975,0.0273 -0.19624,0.0529 -0.29497,0.0765 -0.0382,0.009 -0.0762,0.0164 -0.11453,0.0237 -0.11482,0.0225 -0.22995,0.0422 -0.34539,0.0598 -0.0301,-0.01 -0.15037,0.0197 -0.17801,0.0228 -0.12182,0.0127 -0.24424,0.0228 -0.36696,0.03 -0.061,0.004 -0.12212,0.007 -0.18349,0.009 -0.0237,8.6e-4 -0.0501,0 -0.0738,0.003 -0.36697,0.0106 -0.72269,0.0853 -1.06353,0.22632 -0.16981,0.0705 -0.54679,0.21295 -0.53799,0.44716 0.11726,3.04627 0.23421,6.09283 0.35148,9.13881 0.0161,0.42528 0.0325,0.85087 0.0489,1.27585 0.0139,0.36514 0.055,0.74274 0.0143,1.10787 -0.0209,0.10846 -0.0531,0.21114 -0.10358,0.30591 -0.29648,0.0486 -0.59267,0.0966 -0.88915,0.1449 -0.44352,0.072 -0.88703,0.1443 -1.33054,0.21629 -0.15766,-3.14135 -0.2977,-6.28392 -0.41952,-9.42648 -0.12485,-3.22064 -0.23056,-6.44159 -0.31715,-9.66344 -0.0352,-1.31444 -0.0662,-2.62888 -0.0954,-3.94332 0.0814,-0.0647 0.16434,-0.15036 0.12,-0.21568 -0.055,-0.0821 -0.0975,-0.16829 -0.13032,-0.25699 -0.006,-0.27704 -0.0127,-0.5544 -0.0185,-0.83144 0.0656,-0.20596 0.16738,-0.39794 0.29649,-0.57262 0.0614,-0.0714 0.12667,-0.13913 0.19745,-0.2011 -0.0328,0.0252 -0.006,-0.005 0.0222,-0.0228 0.004,-0.003 0.009,-0.006 0.0137,-0.009 0.0137,-0.0107 0.0276,-0.0213 0.0407,-0.0328 -0.0119,0.0103 -0.0207,0.0182 -0.0304,0.0261 0.0219,-0.0139 0.0431,-0.0282 0.065,-0.0419 -0.009,0.004 -0.0189,0.009 -0.0298,0.0134 0.006,-0.003 0.0176,-0.008 0.0306,-0.0137 0.002,-8.6e-4 0.004,-0.003 0.006,-0.003 0.004,-0.003 0.0103,-0.006 0.0161,-0.009 0.008,-0.003 0.0158,-0.006 0.0249,-0.009 8.6e-4,-6e-4 0.003,-8.6e-4 0.004,-8.6e-4 6.1e-4,-3e-4 8.7e-4,-3e-4 0.002,-6e-4 -0.002,3e-4 -0.003,8.6e-4 -0.005,8.6e-4 0.003,-8.6e-4 0.007,-0.003 0.0103,-0.003 0.002,-8.6e-4 0.003,-0.002 0.004,-0.003 6.1e-4,0 8.6e-4,-3.1e-4 0.002,-3.1e-4 -8.6e-4,3.1e-4 -0.002,6.2e-4 -0.002,8.6e-4 8.6e-4,-6e-4 0.003,-8.6e-4 0.004,-8.6e-4 0.005,-8.6e-4 0.01,-0.003 0.0152,-0.004 -0.002,0 -0.004,3.1e-4 -0.007,6.1e-4 8.6e-4,-3e-4 0.002,-8.6e-4 0.003,-8.6e-4 0.003,-3e-4 0.007,-6.1e-4 0.01,-8.6e-4 0.0131,-0.003 0.0264,-0.007 0.0392,-0.01 -0.0121,0.003 -0.0219,0.006 -0.0326,0.009 0.0121,-0.002 0.024,-0.003 0.0358,-0.004 0.006,-8.6e-4 0.0119,-8.6e-4 0.0177,-0.002 0.0461,-0.005 0.0969,-0.009 0.069,-0.006 0.045,-0.004 0.0893,-0.009 0.13427,-0.0115 0.0595,-0.004 0.11939,-0.007 0.17892,-0.009 0.0316,-3.1e-4 0.0632,-8.6e-4 0.0948,-8.6e-4 0.26338,-8.7e-4 0.52706,0.007 0.79013,0.0195 0.24059,0.0109 0.48118,0.0264 0.72146,0.0468 0.11787,0.01 0.23604,0.0213 0.35391,0.0334 0.0483,0.005 0.0966,0.0106 0.14459,0.0161 0.002,3e-4 0.075,0.009 0.0923,0.0112 0.4903,0.0635 0.97816,0.14855 1.45964,0.26095 0.51005,0.11938 1.01249,0.27036 1.50188,0.45778 1.10453,0.44443 2.12947,1.09725 2.88618,2.02771 0.94413,1.21754 1.29348,2.75313 1.08144,4.27049 z m 2.04563,-1.84119 c -0.069,-0.97148 -0.38762,-1.90954 -0.94322,-2.7109 -0.51552,-0.74364 -1.18898,-1.35545 -1.9627,-1.82205 -1.63978,-0.9891 -3.58942,-1.38006 -5.47679,-1.528 -1.31687,-0.10328 -2.64801,-0.10237 -3.91203,0.33021 -0.65069,0.22328 -1.25885,0.56502 -1.67836,1.1185 -0.0859,0.11361 -0.15949,0.23908 -0.21994,0.37091 -0.065,0.0547 -0.11665,0.11999 -0.11482,0.21082 6e-4,0.0334 0.002,0.0668 0.002,0.0999 -0.0523,0.19441 -0.0747,0.39551 -0.0568,0.59357 0.01,0.11362 0.037,0.22328 0.0769,0.32778 0.0623,2.88162 0.13822,5.76294 0.23087,8.64396 0.10329,3.22124 0.2254,6.44188 0.36697,9.6613 0.0796,1.8102 0.16495,3.6198 0.25638,5.4294 0.0191,0.024 0.0383,0.0483 0.0574,0.0729 0.0647,0.0364 0.13366,0.0556 0.20688,0.0571 0.18348,0.0219 0.36635,0.002 0.54831,-0.0283 1.10028,-0.17893 2.20481,-0.34084 3.30205,-0.53768 0.42954,-0.0772 0.85999,-0.19108 1.25642,-0.37699 0.31046,-0.14611 0.62304,-0.34357 0.7968,-0.64978 0.23816,-0.42042 0.14521,-0.99791 0.12789,-1.45782 l -0.26033,-6.76966 c -0.0419,-1.08904 -0.0835,-2.17777 -0.12547,-3.26681 1.91805,-0.29254 3.79691,-1.04681 5.24501,-2.32815 1.53651,-1.36061 2.42262,-3.38042 2.2765,-5.44032"
       style="fill:#c1d9c8;fill-opacity:1;fill-rule:nonzero;stroke:none;stroke-width:0.0303777"
       id="path491-1" />
    <path
       d="m 231.98324,244.10505 c -0.0177,0.008 -0.0356,0.0164 -0.0511,0.0231 -3e-4,0 -6.1e-4,3e-4 -8.6e-4,3e-4 0.0225,-0.009 0.0398,-0.0173 0.0537,-0.0237 -6e-4,0 -8.6e-4,3.1e-4 -0.002,3.1e-4"
       style="fill:#c1d9c8;fill-opacity:1;fill-rule:nonzero;stroke:none;stroke-width:0.0303777"
       id="path493-7" />
    <path
       d="m 231.85595,244.17705 c -0.005,0.004 -0.01,0.008 -0.0143,0.0115 -0.008,0.007 -0.0139,0.0137 -0.0216,0.0203 0.01,-0.008 0.0249,-0.0201 0.0462,-0.0386 -0.003,0.003 -0.007,0.005 -0.0103,0.007"
       style="fill:#c1d9c8;fill-opacity:1;fill-rule:nonzero;stroke:none;stroke-width:0.0303777"
       id="path495-2" />
    <path
       d="m 231.98688,244.10384 c -6.1e-4,3e-4 -8.6e-4,6e-4 -0.002,8.6e-4 0.0219,-0.005 0.0435,-0.01 0.0608,-0.0131 -0.008,8.6e-4 -0.0157,0.002 -0.0252,0.003 -0.0119,0.003 -0.0234,0.006 -0.0337,0.009"
       style="fill:#c1d9c8;fill-opacity:1;fill-rule:nonzero;stroke:none;stroke-width:0.0303777"
       id="path497-7" />
    <path
       d="m 232.04582,244.09169 c 0.0583,-0.005 0.0899,-0.009 0.10297,-0.0109 -0.0228,0.002 -0.0459,0.003 -0.069,0.006 -0.0115,0.002 -0.0228,0.003 -0.0322,0.005 -6.1e-4,0 -8.7e-4,3e-4 -0.002,3e-4"
       style="fill:#c1d9c8;fill-opacity:1;fill-rule:nonzero;stroke:none;stroke-width:0.0303777"
       id="path499-2" />
    <path
       d="m 235.94539,252.64967 c 0,-8.6e-4 -3.1e-4,-0.002 -3.1e-4,-0.003 -0.007,0.006 -0.0137,0.0115 -0.0207,0.0173 l -3e-4,3.1e-4 c 0.007,-0.006 0.0145,-0.0121 0.0209,-0.0177 -0.19472,-1.59361 -0.39004,-3.18722 -0.58537,-4.78113 -0.005,-6.1e-4 -0.0107,-8.6e-4 -0.0167,-0.002 0.005,6.1e-4 0.0106,6.1e-4 0.0161,8.7e-4 3.1e-4,0 3.1e-4,3e-4 6.1e-4,3e-4 v 0 c 0.003,0 0.006,3e-4 0.009,3e-4 0.0501,0.003 0.13913,0.0173 0.0666,0.009 0.0477,0.006 0.0951,0.0121 0.14216,0.0197 0.11088,0.0183 0.22054,0.0428 0.3293,0.0714 0.14581,0.0498 0.28585,0.1124 0.41859,0.19047 0.16587,0.1209 0.30682,0.26671 0.42104,0.43744 0.2409,0.44807 0.30135,0.97117 0.30286,1.47483 -0.0164,0.5869 -0.13336,1.16711 -0.38184,1.70024 -0.12121,0.22692 -0.26581,0.43835 -0.43623,0.63094 -0.0902,0.0859 -0.185,0.16404 -0.28099,0.24332 0.12789,-0.10449 0.0543,-0.0368 -0.005,0.007 z m 3.0484,-3.81937 c -0.062,-0.38823 -0.20019,-0.75155 -0.43197,-1.07112 -0.20111,-0.27705 -0.49759,-0.48787 -0.8044,-0.63368 -0.74456,-0.35359 -1.62065,-0.3788 -2.42961,-0.36665 -0.2652,0.004 -0.53677,0.0559 -0.78192,0.15827 -0.17315,0.0723 -0.43348,0.20717 -0.53798,0.37819 -0.0422,0.0692 -0.0769,0.14916 -0.0766,0.22662 -0.14429,0.058 -0.28281,0.13214 -0.39339,0.23543 -0.12151,0.11452 -0.22419,0.23482 -0.20231,0.41435 0.22267,1.81749 0.44503,3.63529 0.6677,5.45309 0.0298,0.24363 0.43744,0.26732 0.60421,0.27735 1.02706,0.062 2.06295,-0.32018 2.88132,-0.92257 0.63611,-0.46812 1.09602,-1.15041 1.34148,-1.89678 0.23421,-0.71054 0.28129,-1.51524 0.16343,-2.2525"
       style="fill:#c1d9c8;fill-opacity:1;fill-rule:nonzero;stroke:none;stroke-width:0.0303777"
       id="path501-2" />
    <path
       d="m 235.94508,252.64694 v 0 c 0.002,-8.6e-4 0.003,-0.003 0.005,-0.004 -0.002,8.6e-4 -0.003,0.003 -0.005,0.004"
       style="fill:#c1d9c8;fill-opacity:1;fill-rule:nonzero;stroke:none;stroke-width:0.0303777"
       id="path503-6" />
    <path
       d="m 235.38188,247.86732 c -0.008,-8.6e-4 -0.0145,-0.002 -0.0221,-0.003 0,3.1e-4 0,6.1e-4 0,8.6e-4 0.035,0.004 0.0601,0.007 0.076,0.009 -0.0179,-0.003 -0.0358,-0.005 -0.0538,-0.007"
       style="fill:#c1d9c8;fill-opacity:1;fill-rule:nonzero;stroke:none;stroke-width:0.0303777"
       id="path505-1" />
  </g>
</svg>
