<?xml version="1.0" encoding="UTF-8" standalone="no"?>
<!-- Created with Inkscape (http://www.inkscape.org/) -->

<svg
   width="296.16684mm"
   height="48.317909mm"
   viewBox="0 0 296.16684 48.317909"
   version="1.1"
   id="svg18429"
   inkscape:version="1.1.1 (1:1.1+202109281949+c3084ef5ed)"
   sodipodi:docname="rm-public-sale-launch.svg"
   xmlns:inkscape="http://www.inkscape.org/namespaces/inkscape"
   xmlns:sodipodi="http://sodipodi.sourceforge.net/DTD/sodipodi-0.dtd"
   xmlns="http://www.w3.org/2000/svg"
   xmlns:svg="http://www.w3.org/2000/svg">
  <sodipodi:namedview
     id="namedview18431"
     pagecolor="#ffffff"
     bordercolor="#666666"
     borderopacity="1.0"
     inkscape:pageshadow="2"
     inkscape:pageopacity="0.0"
     inkscape:pagecheckerboard="0"
     inkscape:document-units="mm"
     showgrid="false"
     inkscape:zoom="0.71090067"
     inkscape:cx="-58.37665"
     inkscape:cy="-342.52324"
     inkscape:window-width="1920"
     inkscape:window-height="970"
     inkscape:window-x="0"
     inkscape:window-y="27"
     inkscape:window-maximized="1"
     inkscape:current-layer="layer1" />
  <defs
     id="defs18426" />
  <g
     inkscape:label="Layer 1"
     inkscape:groupmode="layer"
     id="layer1"
     transform="translate(-239.72862,-239.29021)">
    <path
       d="m 439.83972,244.63056 c -0.002,3.6e-4 -0.005,7.1e-4 -0.008,0.001 -0.002,3.6e-4 -0.004,0.001 -0.007,0.002 0.002,-3.5e-4 0.005,-7e-4 0.008,-7e-4 0.002,-7.1e-4 0.005,-0.001 0.007,-0.002"
       style="fill:#c1d9c8;fill-opacity:1;fill-rule:nonzero;stroke:none;stroke-width:0.0352778"
       id="path487" />
    <path
       d="m 439.80268,244.63938 c -0.002,7.1e-4 -0.003,0.001 -0.005,0.002 -0.002,7.1e-4 -0.004,0.002 -0.006,0.003 0.001,-3.5e-4 0.002,-7e-4 0.002,-7e-4 0.003,-10e-4 0.006,-0.003 0.009,-0.004"
       style="fill:#c1d9c8;fill-opacity:1;fill-rule:nonzero;stroke:none;stroke-width:0.0352778"
       id="path489" />
    <path
       d="m 439.78963,244.64503 c -0.0205,0.009 -0.0413,0.0191 -0.0593,0.0268 -3.5e-4,0 -7.1e-4,3.5e-4 -10e-4,3.5e-4 0.0261,-0.0109 0.0462,-0.0201 0.0624,-0.0275 -7e-4,0 -10e-4,3.5e-4 -0.002,3.5e-4"
       style="fill:#c1d9c8;fill-opacity:1;fill-rule:nonzero;stroke:none;stroke-width:0.0352778"
       id="path493" />
    <path
       d="m 439.64181,244.72864 c -0.006,0.005 -0.0113,0.009 -0.0166,0.0134 -0.009,0.008 -0.0162,0.0159 -0.0251,0.0236 0.0113,-0.009 0.0289,-0.0233 0.0536,-0.0448 -0.004,0.003 -0.008,0.006 -0.012,0.008"
       style="fill:#c1d9c8;fill-opacity:1;fill-rule:nonzero;stroke:none;stroke-width:0.0352778"
       id="path495" />
    <path
       d="m 439.79386,244.64362 c -7.1e-4,3.5e-4 -10e-4,7e-4 -0.002,0.001 0.0254,-0.006 0.0505,-0.0116 0.0706,-0.0152 -0.009,10e-4 -0.0183,0.002 -0.0293,0.003 -0.0138,0.004 -0.0272,0.007 -0.0392,0.0109"
       style="fill:#c1d9c8;fill-opacity:1;fill-rule:nonzero;stroke:none;stroke-width:0.0352778"
       id="path497" />
    <path
       d="m 439.8623,244.62951 c 0.0677,-0.006 0.10442,-0.0106 0.11959,-0.0127 -0.0265,0.003 -0.0533,0.004 -0.0801,0.007 -0.0134,0.002 -0.0265,0.004 -0.0374,0.006 -7e-4,0 -0.001,3.5e-4 -0.002,3.5e-4"
       style="fill:#c1d9c8;fill-opacity:1;fill-rule:nonzero;stroke:none;stroke-width:0.0352778"
       id="path499" />
    <path
       d="m 433.9067,239.30821 -0.013,-0.018 c 0.003,0.007 0.006,0.0145 0.009,0.0215 0.001,-0.001 0.003,-0.002 0.004,-0.003"
       style="fill:#c67379;fill-opacity:1;fill-rule:nonzero;stroke:none;stroke-width:0.0352778"
       id="path531" />
    <path
       d="m 431.10953,239.38758 -0.0138,-0.0194 c 0.003,0.007 0.007,0.0138 0.0106,0.0208 10e-4,-3.5e-4 0.002,-7e-4 0.003,-0.001"
       style="fill:#c67379;fill-opacity:1;fill-rule:nonzero;stroke:none;stroke-width:0.0352778"
       id="path533" />
    <path
       d="m 426.20119,239.3904 c 0.0376,0.002 0.0755,0.004 0.11299,0.006 -6.7e-4,-0.002 -0.001,-0.003 -0.002,-0.005 -0.0368,-3.5e-4 -0.074,-7e-4 -0.11095,-0.001"
       style="fill:#c67379;fill-opacity:1;fill-rule:nonzero;stroke:none;stroke-width:0.0352778"
       id="path535" />
    <path
       d="m 363.20441,272.14616 c -0.89578,-2.96743 -3.10471,-5.55473 -5.22754,-8.13012 -1.19011,-1.44343 -3.2225,-3.59622 -3.03956,-5.49453 0.12593,-0.20184 0.26408,-0.40106 0.42899,-0.5936 0.15909,-0.18526 0.007,-0.22831 -0.19719,-0.22162 0.23442,-0.46999 0.64915,-0.91352 1.30092,-1.31284 0.35395,-0.21668 0.72012,-0.29957 1.11653,-0.44935 10e-4,-5.8e-4 0.002,-5.8e-4 0.003,-0.001 -0.0108,-0.004 -0.0212,-0.008 -0.0326,-0.0148 0.009,0.005 0.025,0.009 0.0358,0.0139 0.17683,-0.0643 0.13175,0.0311 0.0297,0.0113 0.0794,0.032 0.17771,0.0558 0.25042,0.0878 0.72913,0.32254 1.15026,0.92632 1.4318,1.47892 0.60407,1.18604 1.03742,2.90111 -0.13117,4.03655 -0.39234,0.38158 2.00882,0.68871 2.43752,0.27193 1.08163,-1.05109 0.90218,-2.3715 0.52875,-3.52904 -0.34349,-1.06476 -0.96559,-2.14522 -2.41222,-2.67019 -1.58129,-0.57382 -3.77451,-0.50693 -5.28571,0.2635 -1.06418,0.543 -1.72002,1.31954 -1.94833,2.16966 -0.039,0.006 -0.0689,0.0157 -0.0887,0.0302 -0.34872,-0.005 -0.6096,0.0125 -0.62385,0.0634 -0.18759,0.66079 -0.26146,1.32826 -0.23383,1.98963 -0.0131,0.1207 -0.0198,0.24111 -0.0204,0.36151 -0.0262,0.24256 -0.0524,0.48541 -0.0785,0.72797 -0.003,0.0308 0.0623,0.0593 0.16606,0.0852 0.0195,0.0832 0.0518,0.16403 0.0771,0.24605 0.018,0.71576 0.22395,1.42191 0.61658,2.07688 0.2289,0.68347 0.56714,1.34921 0.98333,1.9748 1.71304,2.57509 4.5464,4.70258 5.95202,7.39255 0.78585,1.50451 1.09297,3.1271 0.41416,4.72468 -0.0582,0.13612 0.12564,0.14745 0.35104,0.11808 -0.5462,0.68929 -1.35967,1.24828 -2.54572,1.44547 -1.76073,0.29229 -3.06049,-1.24566 -3.21231,-2.25924 -0.0794,-0.52846 -2.6129,-0.48919 -2.55444,-0.0989 0.41241,2.75133 5.12982,3.72681 8.49104,2.64343 3.8923,-1.25439 3.72914,-5.07862 3.01688,-7.4382"
       style="fill:#ebc532;fill-opacity:1;fill-rule:nonzero;stroke:none;stroke-width:0.029084"
       id="path435-6" />
    <path
       d="m 357.59005,255.94294 c 0.0113,0.005 0.0221,0.009 0.0329,0.0108 -0.0102,-0.004 -0.0209,-0.007 -0.0297,-0.0116 -0.001,2.9e-4 -0.002,5.8e-4 -0.003,9e-4"
       style="fill:#ebc532;fill-opacity:1;fill-rule:nonzero;stroke:none;stroke-width:0.029084"
       id="path437-1" />
    <path
       d="m 381.59818,278.85441 c -0.84737,0.0201 -1.69545,0.0529 -2.54141,0.10407 -2.89312,0.17462 -5.78696,0.33372 -8.68291,0.45508 -1.28976,0.054 -2.57951,0.11536 -3.86856,0.18309 -0.24942,0.0131 -0.28258,-0.0399 -0.17216,-0.26564 2.13396,-4.36774 4.28202,-8.72913 6.38387,-13.1124 1.19874,-2.49908 2.32022,-5.0359 3.47662,-7.55509 0.0522,-0.11395 0.11183,-0.22436 0.20355,-0.40746 0.15346,0.33655 0.19227,0.62372 0.26141,0.90241 1.48801,5.97817 3.03812,11.94012 4.71311,17.8689 0.14076,0.49918 0.29527,0.99483 0.45861,1.48731 0.0787,0.23707 0.0476,0.33302 -0.23213,0.33973 z m 1.56598,0.34713 c 3.6e-4,0 3.6e-4,0 3.6e-4,0 -0.0991,-0.12982 -0.14253,-0.27517 -0.12489,-0.43815 0,-3.5e-4 -3.5e-4,-7.1e-4 -3.5e-4,-0.001 -0.12735,-0.27093 -0.19897,-0.55704 -0.22648,-0.85478 v 0 0 c 0,3.5e-4 3.5e-4,7e-4 7e-4,0.001 -0.10971,-0.2152 -0.15028,-0.44627 -0.15557,-0.68545 l 0.003,0.005 c 0,0 0,0 0,-3.5e-4 -0.17357,-0.52246 -0.31609,-1.05269 -0.3877,-1.6002 l 0.004,0.006 c 0,0 0,0 0,-3.5e-4 -0.14534,-0.26035 -0.17638,-0.55528 -0.25188,-0.83679 -0.0755,-0.0843 -0.0533,-0.18733 -0.055,-0.2854 0,-3.5e-4 0,-3.5e-4 0,-7.1e-4 -0.10795,-0.16792 -0.12524,-0.36441 -0.17321,-0.55139 -0.0765,-0.084 -0.0526,-0.18767 -0.0554,-0.2861 v 0 0 c -0.12489,-0.2727 -0.20038,-0.5588 -0.23072,-0.8569 0.001,3.6e-4 0.002,0.001 0.004,0.002 -0.13864,-0.26246 -0.20108,-0.54645 -0.23319,-0.83855 l 0.004,0.005 v 0 c -0.11959,-0.15734 -0.12453,-0.35242 -0.17427,-0.53305 v 0 c -0.0769,-0.0843 -0.0533,-0.18803 -0.0557,-0.2868 0,0 0,0 0,-3.6e-4 -0.0988,-0.17145 -0.14675,-0.35736 -0.1524,-0.55456 10e-4,0.001 0.002,0.002 0.002,0.003 -0.13511,-0.26035 -0.19403,-0.54222 -0.23848,-0.82868 0,-3.5e-4 3.6e-4,-3.5e-4 3.6e-4,-3.5e-4 l -3.6e-4,3.5e-4 c -0.10089,-0.1651 -0.121,-0.35525 -0.16651,-0.53728 -0.0751,-0.0843 -0.054,-0.18697 -0.055,-0.28575 l -3.5e-4,-3.5e-4 c -0.0984,-0.1718 -0.14675,-0.35772 -0.15169,-0.55527 h -3.6e-4 c 0,0 0,0 3.6e-4,0 v 0 c 3.5e-4,3.5e-4 7e-4,7e-4 10e-4,10e-4 -0.1136,-0.15875 -0.12418,-0.35031 -0.17216,-0.52988 -0.11606,-0.369 -0.26317,-0.72954 -0.28681,-1.12183 v -3.5e-4 c -0.0981,-0.1718 -0.14781,-0.35701 -0.15275,-0.55422 3.5e-4,3.6e-4 7.1e-4,10e-4 0.001,10e-4 -0.1143,-0.15804 -0.12312,-0.3503 -0.17392,-0.52952 -0.0653,-0.16898 -0.12841,-0.33831 -0.12912,-0.52316 0,-3.6e-4 0,-3.6e-4 0,-3.6e-4 -0.0988,-0.16827 -0.14746,-0.35101 -0.15451,-0.54539 3.5e-4,7e-4 7e-4,10e-4 0.001,0.002 -0.10548,-0.16157 -0.14429,-0.3429 -0.15417,-0.53199 7.1e-4,7.1e-4 0.002,0.001 0.003,0.002 -0.11606,-0.15804 -0.12594,-0.35172 -0.17568,-0.53164 -0.18027,-0.60713 -0.39123,-1.20544 -0.50729,-1.83056 -0.054,-0.0663 -0.0903,-0.13864 -0.0713,-0.22789 -0.0134,-0.0191 -0.0162,-0.0392 -0.009,-0.061 v 0 0 c -0.1069,-0.16264 -0.12983,-0.35349 -0.17851,-0.53552 -3.5e-4,0 -3.5e-4,0 -3.5e-4,0 -0.012,-0.0293 -0.024,-0.0586 -0.0356,-0.0878 -0.005,-0.0444 -0.01,-0.0885 -0.0152,-0.133 0,-3.5e-4 0,-3.5e-4 0,-3.5e-4 -0.10054,-0.16898 -0.14887,-0.35313 -0.15451,-0.54892 7e-4,0.001 0.001,0.002 0.002,0.003 -0.10548,-0.16264 -0.1517,-0.3422 -0.15628,-0.53446 10e-4,0.001 0.003,0.003 0.004,0.004 -0.12595,-0.24025 -0.20885,-0.49319 -0.23072,-0.76483 l 0.003,0.005 v 0 0 c -0.10866,-0.16263 -0.15452,-0.34325 -0.15734,-0.53692 10e-4,0.002 0.002,0.003 0.004,0.005 -0.19932,-0.44274 -0.30868,-0.91405 -0.44521,-1.3769 -0.20672,-0.30515 -0.4519,-0.41698 -0.77187,-0.15416 v 0 c -0.0487,0.0519 -0.0974,0.10372 -0.1457,0.15558 v 0 c -0.0483,0.10124 -0.0967,0.20178 -0.14464,0.30268 v 0 0 c 0,0 0,0 0,3.5e-4 -0.35525,0.90311 -0.7627,1.78012 -1.29787,2.59292 -0.30762,0.49671 -0.48507,1.06327 -0.82127,1.54481 v 0 c -0.002,0.14041 -0.0889,0.24236 -0.15804,0.35243 -0.25329,0.50764 -0.50588,1.01529 -0.75918,1.52294 0,3.5e-4 0,3.5e-4 0,3.5e-4 -0.0512,0.1009 -0.1023,0.20179 -0.15346,0.30269 -0.23495,0.49882 -0.44838,1.00859 -0.75141,1.47284 v 0 c -0.0519,0.14252 -0.10407,0.28469 -0.15628,0.42686 v 0 0 c -0.0413,0.25295 -0.1517,0.47308 -0.31292,0.66958 -0.12382,0.25858 -0.24835,0.51682 -0.37218,0.7754 v 0 0 c -0.0159,0.20073 -0.0963,0.37218 -0.2346,0.51753 -0.14887,0.30903 -0.29774,0.61806 -0.44696,0.92674 0,3.6e-4 0,3.6e-4 0,3.6e-4 v 0 0 c -0.0628,0.30621 -0.19968,0.57749 -0.38806,0.82479 -0.14887,0.30833 -0.2981,0.61666 -0.44732,0.92463 v 0 c 0,3.5e-4 0,3.5e-4 0,3.5e-4 -0.0617,0.30727 -0.19862,0.57927 -0.38771,0.82691 -0.0988,0.20638 -0.19755,0.4124 -0.29668,0.61842 v 0 3.6e-4 c -0.0402,0.25435 -0.14393,0.47942 -0.31009,0.67521 -0.0734,0.15523 -0.14676,0.31045 -0.22014,0.46532 0,0 0,0 0,3.5e-4 -0.0166,0.20214 -0.0949,0.37677 -0.2353,0.52317 -0.073,0.15487 -0.1464,0.31009 -0.21907,0.46496 0,0 -3.6e-4,0 -3.6e-4,3.5e-4 -0.0166,0.20215 -0.0956,0.37677 -0.23601,0.52317 -0.0988,0.20603 -0.1972,0.41205 -0.29562,0.61807 v 0 0 c -0.0413,0.25435 -0.145,0.47978 -0.31186,0.67592 -0.0483,0.10442 -0.0967,0.20885 -0.14464,0.31327 v 0 c -0.0342,0.25858 -0.15134,0.48119 -0.29986,0.68968 v 0 c 0,3.5e-4 0,3.5e-4 0,3.5e-4 l 3.5e-4,-3.5e-4 c -3.5e-4,3.5e-4 -3.5e-4,3.5e-4 -3.5e-4,7e-4 -0.18097,0.55281 -0.40358,1.08797 -0.68439,1.59809 7.1e-4,-3.5e-4 10e-4,-10e-4 0.002,-10e-4 v 0 0 c -0.008,0.14534 -0.0557,0.27411 -0.15946,0.37923 -0.0332,0.15135 -0.0907,0.28893 -0.21872,0.3863 -0.15099,0.34325 -0.30586,0.68439 -0.45226,1.0294 -0.0646,0.15134 -0.0907,0.31327 -0.0797,0.47907 -7.1e-4,-3.5e-4 -7.1e-4,-0.001 -0.002,-0.001 0.16086,0.1771 0.35524,0.22931 0.59901,0.23742 0.78917,0.0272 1.57727,0.0878 2.36573,0.13582 -0.005,0.005 -0.009,0.0109 -0.0134,0.0162 3.6e-4,0 7.1e-4,0 7.1e-4,0 l 0.0127,-0.0162 c 0.58032,3.6e-4 1.16099,0.001 1.74131,0.002 0.14535,-7e-4 0.29034,-10e-4 0.43498,-0.002 0.37218,-0.0938 0.75177,-0.0416 1.12712,-0.0497 0.86995,-0.0183 1.7399,-0.0205 2.6102,-0.0293 0.14182,-0.0762 0.29634,-0.0409 0.44521,-0.0469 0.96943,-0.0374 1.93922,-0.0713 2.90865,-0.10618 v 0 c 0.0187,-0.0113 0.0367,-0.0106 0.0547,0.002 0.0624,-0.0219 0.12524,-0.0374 0.18698,-0.0335 0.42333,-0.0621 0.8516,-0.0325 1.27775,-0.0434 0.0194,-0.0113 0.0388,-0.012 0.0589,-10e-4 0.61137,-0.0956 1.22767,-0.0688 1.84327,-0.0787 v 0 c 0.018,-0.0102 0.0367,-0.0102 0.0554,-3.6e-4 h -3.6e-4 c 0.33197,-0.0977 0.67346,-0.0328 1.00965,-0.0582 0.23813,-0.018 0.47978,-0.007 0.71403,-0.0445 0.64593,-0.1016 0.81385,-0.36159 0.69109,-1.02764"
       style="fill:#7b79cd;fill-opacity:1;fill-rule:nonzero;stroke:none;stroke-width:0.0352778"
       id="path911-8" />
    <path
       d="m 381.40239,278.21729 c -0.30974,-1.31657 -0.7112,-2.61056 -0.93945,-3.94688 -0.2734,-1.60126 -0.49706,-3.21239 -0.90628,-4.78684 -0.5521,-2.12513 -1.12995,-4.24356 -1.6704,-6.37187 -0.36583,-1.44004 -0.71014,-2.88431 -1.30034,-4.25239 -0.0815,-0.18944 -0.1524,-0.47201 -0.34995,-0.48083 -0.14147,-0.006 -0.19439,0.29457 -0.27305,0.4639 -0.97261,2.08703 -1.8983,4.19559 -2.80812,6.31155 -0.85371,1.98473 -1.7533,3.94935 -2.62043,5.92808 -1.01952,2.32727 -2.03094,4.65807 -3.11679,6.95466 -0.27375,0.5782 -0.47307,1.19062 -0.78987,1.74942 -0.0646,0.1136 -0.14287,0.2794 0.11042,0.24024 0.53869,-0.0833 1.08021,-0.0116 1.47073,-0.0395 0.84138,-0.0166 1.53459,-0.0494 2.22603,-0.0586 2.82151,-0.0385 5.64409,0.005 8.46454,-0.10301 0.83362,-0.0317 1.66617,-0.0811 2.50049,-0.0624 0.22119,0.005 0.31009,-0.0819 0.26776,-0.29351 -0.0829,-0.41839 -0.16722,-0.83679 -0.26529,-1.25201"
       style="fill:#b3b2e9;fill-opacity:1;fill-rule:nonzero;stroke:none;stroke-width:0.0352778"
       id="path913-7" />
    <path
       d="m 389.73687,256.68971 c -0.18909,-2.17594 -0.43074,-4.34693 -0.72354,-6.51122 -0.018,-0.13194 -0.0984,-0.25083 -0.2032,-0.35243 -0.004,-0.0656 -0.007,-0.13088 -0.0117,-0.19614 0.0286,-0.16475 -10e-4,-0.31362 -0.0885,-0.44697 -0.055,-0.15346 -0.15628,-0.2727 -0.30269,-0.35772 -0.29598,-0.20708 -0.75812,-0.28293 -1.10878,-0.24553 -0.42827,0.0455 -0.88371,0.1718 -1.22449,0.44697 -0.23954,0.19367 -0.59267,0.51929 -0.5715,0.85866 0.24306,3.96699 0.44238,7.93679 0.59619,11.90801 0.15382,3.97158 0.26247,7.94456 0.32632,11.9186 0.036,2.24049 0.0575,4.48063 0.0649,6.72148 10e-4,0.34184 0.10124,0.60113 0.39158,0.80468 0.29598,0.20708 0.75812,0.28258 1.10843,0.24518 0.42862,-0.0455 0.88406,-0.1718 1.22484,-0.44661 0.26458,-0.21414 0.54116,-0.49918 0.5715,-0.85902 0.32491,-3.8675 0.48578,-7.74876 0.47978,-11.63002 -0.006,-3.95782 -0.18733,-7.91493 -0.52917,-11.85792"
       style="fill:#e2a56d;fill-opacity:1;fill-rule:nonzero;stroke:none;stroke-width:0.0352778"
       id="path539-9" />
    <path
       d="m 397.27932,265.30756 c 0.21298,-0.82961 0.51172,-1.62794 0.93309,-2.36584 0.0549,-0.0959 0.11547,-0.18946 0.17551,-0.28354 -0.36695,0.96152 -0.68342,1.94197 -0.95514,2.93397 -0.0349,-0.10248 -0.0876,-0.19787 -0.15346,-0.28459 z m -0.44017,2.87406 c 0.0188,-0.25385 0.0409,-0.5077 0.0685,-0.76102 0.0634,-0.18184 0.12801,-0.36317 0.2014,-0.54212 -0.0992,0.43254 -0.18939,0.86692 -0.26996,1.30314 z m -1.35393,-2.65963 c -0.0724,0.39076 -0.13111,0.78441 -0.18038,1.1799 -0.33494,0.96914 -0.55615,1.97508 -0.65519,2.9952 -0.0729,0.0152 -0.14651,0.0271 -0.2199,0.041 0.0392,-1.04141 0.18734,-2.07231 0.42928,-3.04539 0.22842,-0.91869 0.56283,-1.8182 0.99808,-2.662 -0.15428,0.48983 -0.279,0.98964 -0.37189,1.4913 z m -1.00751,6.018 c 0.0396,0 0.0798,-0.003 0.12008,-0.008 0.027,0.69112 0.11137,1.37909 0.24308,2.05786 -0.18169,-0.66616 -0.2987,-1.35412 -0.36316,-2.04945 z m 5.02284,-6.81633 c 0.54107,-1.62768 1.22614,-3.20465 2.02947,-4.71933 0.0988,-0.18684 0.10249,-0.41178 0.0394,-0.62464 0.67194,-0.0407 1.28869,0.1582 1.54675,0.85352 0.47485,1.28002 -0.29406,2.86382 -0.90871,3.9612 -0.8685,1.55147 -2.11646,2.85777 -3.58549,3.83217 0.22993,-1.1163 0.5196,-2.2221 0.87856,-3.30292 z m 9.35193,10.20702 c 0.1716,-0.75287 -1.57144,-0.73999 -1.78798,-0.0465 -0.17055,0.54554 -0.38681,0.98912 -0.71661,1.45556 -0.34425,0.48641 -0.63646,0.7915 -1.11078,1.16177 -0.11064,0.0865 -0.22469,0.16765 -0.34031,0.2478 -0.0155,0.0105 -0.02,0.0139 -0.0197,0.0144 -0.008,0.005 -0.0184,0.011 -0.0332,0.0197 -0.0654,0.0397 -0.13086,0.0794 -0.19761,0.11694 -0.12193,0.0691 -0.24597,0.13428 -0.37262,0.19472 -0.0688,0.0331 -0.13823,0.0649 -0.20866,0.0954 -0.0205,0.009 -0.0413,0.0173 -0.0597,0.0247 -0.10275,0.0376 -0.20603,0.0717 -0.31009,0.10433 -0.0815,-0.0365 -0.16712,-0.0649 -0.25621,-0.0775 -1.27502,-0.18053 -2.40841,-1.06743 -3.3405,-1.90124 -0.88111,-0.78809 -1.71666,-1.73542 -1.95839,-2.92819 -0.1386,-0.68377 -0.0829,-1.40642 -0.0171,-2.09518 0.0308,-0.32112 0.0698,-0.64119 0.11087,-0.96126 2.09304,-1.05744 3.89232,-2.69011 5.15867,-4.67912 0.91737,-1.4411 1.73016,-3.27822 1.50522,-5.02625 -0.12693,-0.98938 -0.57155,-1.87365 -1.39406,-2.46149 -0.7831,-0.55894 -1.76722,-0.65959 -2.6959,-0.52189 -1.74988,0.25963 -3.3631,1.42087 -4.55301,2.68013 -1.17669,1.24533 -2.05741,2.78629 -2.61964,4.40004 -1.18509,3.40304 -1.28106,7.40996 0.14577,10.76176 0.86432,2.03 2.27986,3.7741 4.33356,4.67177 1.23566,0.54002 2.62973,0.73553 3.93944,0.48247 1.48184,0.17028 3.00361,-0.17134 4.25315,-1.15231 1.26109,-0.99017 2.00451,-2.43758 2.6796,-3.85608 0.16897,-0.35476 0.0741,-0.59337 -0.13428,-0.7245"
       style="fill:#e7c2a9;fill-opacity:1;fill-rule:nonzero;stroke:none;stroke-width:0.0262783"
       id="path667-2-2" />
    <path
       d="m 441.2885,287.47305 c -0.002,3.5e-4 -0.005,7.1e-4 -0.008,10e-4 -0.002,3.5e-4 -0.004,0.001 -0.007,0.002 0.002,-3.5e-4 0.005,-7e-4 0.008,-7e-4 0.002,-7.1e-4 0.005,-10e-4 0.007,-0.002"
       style="fill:#c1d9c8;fill-opacity:1;fill-rule:nonzero;stroke:none;stroke-width:0.0352778"
       id="path487-0" />
    <path
       d="m 441.25146,287.48187 c -0.002,7.1e-4 -0.003,10e-4 -0.005,0.002 -0.002,7.1e-4 -0.004,0.002 -0.006,0.003 0.001,-3.5e-4 0.002,-7.1e-4 0.002,-7.1e-4 0.003,-10e-4 0.006,-0.003 0.009,-0.004"
       style="fill:#c1d9c8;fill-opacity:1;fill-rule:nonzero;stroke:none;stroke-width:0.0352778"
       id="path489-2" />
    <path
       d="m 441.23841,287.48751 c -0.0205,0.009 -0.0413,0.0191 -0.0593,0.0268 -3.5e-4,0 -7.1e-4,3.6e-4 -10e-4,3.6e-4 0.0261,-0.0109 0.0462,-0.0201 0.0624,-0.0275 -7e-4,0 -10e-4,3.5e-4 -0.002,3.5e-4"
       style="fill:#c1d9c8;fill-opacity:1;fill-rule:nonzero;stroke:none;stroke-width:0.0352778"
       id="path493-3" />
    <path
       d="m 441.09059,287.57112 c -0.006,0.005 -0.0113,0.009 -0.0166,0.0134 -0.009,0.008 -0.0162,0.0159 -0.0251,0.0236 0.0113,-0.009 0.0289,-0.0233 0.0536,-0.0448 -0.004,0.003 -0.008,0.006 -0.012,0.008"
       style="fill:#c1d9c8;fill-opacity:1;fill-rule:nonzero;stroke:none;stroke-width:0.0352778"
       id="path495-7" />
    <path
       d="m 441.24264,287.4861 c -7.1e-4,3.6e-4 -10e-4,7.1e-4 -0.002,10e-4 0.0254,-0.006 0.0505,-0.0116 0.0706,-0.0152 -0.009,10e-4 -0.0183,0.002 -0.0293,0.003 -0.0138,0.004 -0.0272,0.007 -0.0392,0.0109"
       style="fill:#c1d9c8;fill-opacity:1;fill-rule:nonzero;stroke:none;stroke-width:0.0352778"
       id="path497-5" />
    <path
       d="m 441.31108,287.47199 c 0.0677,-0.006 0.10442,-0.0106 0.11959,-0.0127 -0.0265,0.003 -0.0533,0.004 -0.0801,0.007 -0.0134,0.002 -0.0265,0.004 -0.0374,0.006 -7e-4,0 -0.001,3.6e-4 -0.002,3.6e-4"
       style="fill:#c1d9c8;fill-opacity:1;fill-rule:nonzero;stroke:none;stroke-width:0.0352778"
       id="path499-9" />
    <path
       d="m 421.60149,264.95701 0.0186,0.0138 c -0.006,-0.005 -0.0124,-0.0102 -0.0186,-0.0152 0,3.5e-4 0,0.001 0,0.001"
       style="fill:#c67379;fill-opacity:1;fill-rule:nonzero;stroke:none;stroke-width:0.0352778"
       id="path527-2" />
    <path
       d="m 440.86728,280.19842 c -0.003,0.16051 -0.0113,0.28434 -0.22965,0.28046 -1.94628,-0.0339 -3.87492,0.29069 -5.82084,0.28681 -3.04835,-0.006 -6.09815,0.0924 -9.13839,-0.22437 -0.79414,-0.0829 -1.58722,-0.17745 -2.38192,-0.25188 -0.30801,-0.0289 -0.45544,-0.17286 -0.45339,-0.47908 2.8e-4,-0.0529 -0.009,-0.10583 -0.009,-0.1591 -0.0207,-4.2739 -0.19526,-8.54745 -0.0386,-12.6753 0.0631,-3.24874 0.13437,-6.35036 0.17914,-9.45269 0.0328,-2.26448 0.17473,-4.52225 0.32522,-6.78038 0.0218,-0.3235 0.124,-0.45297 0.47033,-0.46673 0.90357,-0.0363 1.80689,-0.10548 2.70785,-0.18979 0.33553,-0.0314 0.43614,0.055 0.42125,0.39899 -0.14263,3.31364 -0.15434,6.6294 -0.1119,9.94516 0.04,3.10232 -0.0138,6.20536 0.0765,9.30769 0.0544,1.87571 0.19459,3.74896 0.16704,5.62821 -0.0124,0.85972 0.42372,1.26648 1.28775,1.27847 2.78373,0.0377 5.5548,0.29739 8.33151,0.45755 1.30246,0.0748 2.60844,0.0448 3.90914,0.17322 0.29633,0.0296 0.38382,0.11712 0.37147,0.40745 -0.0353,0.83785 -0.0469,1.67676 -0.0632,2.51531 z m -12.80417,-30.34065 c 0.1192,0.14005 0.005,0.22436 -0.0204,0.38946 -0.0533,-0.17956 -0.0533,-0.27199 0.0204,-0.38946 z m 13.91013,27.08804 v 0 l -0.013,-0.0219 0.0138,-0.0222 c -0.10831,-0.52423 -0.51612,-0.7299 -0.95709,-0.89958 10e-4,0.002 0.002,0.003 0.004,0.005 -3.05294,-0.60149 -6.16797,-0.6022 -9.24737,-0.95074 -0.62053,-0.0702 -1.24883,-0.0727 -1.87395,-0.0984 -0.18027,-0.007 -0.29457,-0.0286 -0.29598,-0.2607 -0.0303,-4.58082 -0.25188,-9.15706 -0.34819,-13.73647 0,-0.0261 0.009,-0.0526 0.0138,-0.079 v 0 c -0.0173,-0.0173 -0.0166,-0.0342 0.002,-0.0501 -0.0356,-0.0843 -0.0381,-0.17145 -0.0356,-0.25893 -0.0522,-0.45438 -0.0483,-0.91158 -0.0452,-1.36878 v 0 0 c 0,-0.0427 3.5e-4,-0.0854 7e-4,-0.12771 -0.0346,-0.0787 -0.037,-0.15945 -0.0349,-0.24094 -0.048,-0.40782 -0.0413,-0.81845 -0.043,-1.22873 v 0 c -7.1e-4,-0.0699 -0.001,-0.14005 -0.002,-0.2099 -0.0905,-0.43216 -0.0739,-0.87172 -0.0792,-1.30916 0,-3.5e-4 0,-3.5e-4 0,-3.5e-4 -2.9e-4,-0.043 -2.9e-4,-0.0864 -6.7e-4,-0.12947 -0.0407,-0.55492 -0.0903,-1.10949 -0.12086,-1.66547 -0.0852,-1.53811 -0.0978,-3.08045 -0.23633,-4.61645 -0.002,-0.0201 0.0223,-0.043 0.0358,-0.0649 -0.002,-0.12876 -0.004,-0.25788 -0.007,-0.38664 -0.17459,-0.19509 -0.39275,-0.28187 -0.65624,-0.28399 -0.84197,-0.008 -1.68395,-0.0226 -2.52635,-0.0346 v 0 c -0.0168,0.0176 -0.0333,0.0173 -0.0492,-0.001 -0.21466,0.0829 -0.44097,0.0744 -0.66488,0.084 6.7e-4,-7e-4 10e-4,-0.001 0.002,-0.002 l 0.005,-0.003 c -0.38488,0.17992 -0.79968,0.14288 -1.20438,0.15099 -0.35871,0.007 -0.70806,0.0353 -1.04363,0.16828 v 0 c -0.0241,0.024 -0.0485,0.048 -0.0726,0.072 -0.20256,0.32243 0.0485,0.63923 0.0113,0.96096 -0.0685,0.59408 -0.11532,1.19098 -0.19431,1.78329 -0.25975,1.95404 -0.3496,3.91901 -0.40541,5.88645 -0.005,0.14429 0.0223,0.29352 -0.0482,0.43075 -4.3e-4,3.5e-4 -4.3e-4,3.5e-4 -4.3e-4,7e-4 l 0.0152,0.0229 -0.0127,0.024 c -0.0214,0.62265 0.0124,1.24742 -0.082,1.86725 -3.9e-4,7.1e-4 -3.9e-4,0.002 -3.9e-4,0.003 0.019,0.0152 0.0197,0.0314 0.002,0.0483 -0.0158,0.53129 0.006,1.06398 -0.0597,1.5928 -0.006,0.0582 -0.0138,0.11641 -0.0244,0.17497 0.002,-0.001 0.003,-0.003 0.005,-0.005 -0.0286,0.93522 0.005,1.87184 -0.0779,2.80565 -0.0117,0.7246 0.002,1.44956 -0.0799,2.17134 0.0161,0.0187 0.0158,0.0367 -0.001,0.054 v 0 c -0.01,1.91664 -0.0451,3.83364 -0.023,5.74993 0.0265,2.32904 0.10403,4.65737 0.15254,6.98641 0.007,0.32561 0.13271,0.62089 0.18439,0.9338 v 0 0 c 0.16122,0.29492 0.38862,0.51471 0.71064,0.62759 3.06754,0.68298 6.17954,0.78705 9.30501,0.71897 0.22507,-0.005 0.45049,-0.002 0.67592,-0.002 0.93063,-0.0861 1.86584,-0.0395 2.79788,-0.078 0.80116,-0.0533 1.60232,-0.1069 2.40348,-0.16087 0,0 0,0 3.5e-4,0 h -3.5e-4 l -0.007,0.006 c 0.23425,-0.0935 0.48154,-0.0797 0.72602,-0.0847 0,-3.5e-4 0,-3.5e-4 0,-3.5e-4 v 3.5e-4 0 l -0.007,0.005 c 0.23424,-0.0945 0.48154,-0.0783 0.72566,-0.085 0,0 0,0 0,-3.5e-4 v 3.5e-4 0 l -0.006,0.005 c 0.26141,-0.0991 0.53481,-0.0801 0.8061,-0.0836 v 0 0 0 l -0.006,0.005 c 0.36936,-0.0998 0.74824,-0.0713 1.1243,-0.0861 v 0 0 0 l -0.007,0.005 c 0.81668,-0.22649 0.9077,-0.34678 0.90593,-1.22026 -0.002,-1.16381 -0.0945,-2.32727 -0.0282,-3.49179"
       style="fill:#c67379;fill-opacity:1;fill-rule:nonzero;stroke:none;stroke-width:0.0352778"
       id="path529-2" />
    <path
       d="m 435.35548,282.15069 -0.013,-0.018 c 0.003,0.007 0.006,0.0145 0.009,0.0215 0.001,-0.001 0.003,-0.002 0.004,-0.003"
       style="fill:#c67379;fill-opacity:1;fill-rule:nonzero;stroke:none;stroke-width:0.0352778"
       id="path531-8" />
    <path
       d="m 432.55831,282.23007 -0.0138,-0.0194 c 0.003,0.007 0.007,0.0138 0.0106,0.0208 10e-4,-3.6e-4 0.002,-7.1e-4 0.003,-10e-4"
       style="fill:#c67379;fill-opacity:1;fill-rule:nonzero;stroke:none;stroke-width:0.0352778"
       id="path533-9" />
    <path
       d="m 427.64997,282.23289 c 0.0376,0.002 0.0755,0.004 0.11299,0.006 -6.7e-4,-0.002 -0.001,-0.003 -0.002,-0.005 -0.0368,-3.5e-4 -0.074,-7.1e-4 -0.11095,-10e-4"
       style="fill:#c67379;fill-opacity:1;fill-rule:nonzero;stroke:none;stroke-width:0.0352778"
       id="path535-7" />
    <path
       d="m 455.67911,273.21351 c -1.19342,-0.0574 -2.38794,-0.10652 -3.5842,-0.0493 -1.12007,0.0539 -2.24037,0.10675 -3.36016,0.16765 -0.4579,0.0249 -0.46362,0.0292 -0.44358,-0.53591 0.023,-0.64769 0.05,-1.29493 0.0755,-1.9424 0.087,-2.01923 0.19527,-4.03432 0.67705,-5.99418 0.34809,-1.4163 0.98833,-2.57305 1.9831,-3.35302 0.93125,-0.7302 1.96401,-1.02446 3.04894,-0.72517 0.46693,0.12901 0.79438,0.50382 1.07052,1.00481 0.78238,1.41914 1.10633,2.99218 1.09431,4.72086 -0.008,1.20281 -0.057,2.39994 -0.13687,3.59948 -0.0593,0.89479 -0.0591,1.79504 -0.0679,2.69246 -0.003,0.33071 -0.096,0.42742 -0.35669,0.41476 z m 4.21943,0.82603 c 0.12531,-3.13319 0.20367,-6.08804 0.038,-9.03896 -0.0696,-1.24342 -0.23533,-2.45321 -0.68087,-3.57656 -0.47217,-1.19037 -1.15958,-2.17248 -1.89589,-3.09609 -0.86228,-1.08209 -1.89939,-1.80464 -3.09937,-2.1561 -1.10916,-0.32483 -2.22726,-0.22092 -3.34057,-0.0233 -0.87253,0.15477 -1.74438,0.37568 -2.53938,0.90614 -1.28606,0.85812 -2.16394,2.16505 -2.70524,3.8658 -0.95948,3.014 -1.41039,6.15157 -1.61352,9.35091 -0.10982,1.72759 -0.072,3.45846 -0.0759,5.18692 -0.002,0.89479 0.008,1.79112 0.0487,2.68656 0.0444,0.97077 0.15492,1.94022 0.0912,2.9184 -0.0186,0.28356 0.0935,0.30212 0.26134,0.2816 1.15988,-0.14102 2.32239,-0.11701 3.48352,-0.15652 0.21217,-0.007 0.28226,-0.0701 0.30896,-0.34534 0.11314,-1.17116 0.17907,-2.34319 0.16046,-3.51958 -0.002,-0.1742 0.0425,-0.23773 0.17295,-0.25344 0.4487,-0.0539 0.89621,-0.14735 1.34515,-0.16744 1.77976,-0.0799 3.55997,-0.14385 5.34039,-0.19974 0.64637,-0.0205 0.65162,-0.002 0.59485,0.82494 -0.0792,1.1585 -0.16677,2.31612 -0.25234,3.47418 -0.0159,0.21677 -0.0127,0.39118 0.22375,0.39577 1.17399,0.0225 2.34384,0.12726 3.51347,0.23139 0.20475,0.0183 0.27811,-0.06 0.28138,-0.32329 0.0325,-2.4853 0.29426,-4.95903 0.33901,-7.26619"
       style="fill:#ebc532;fill-opacity:1;fill-rule:nonzero;stroke:none;stroke-width:0.0218296"
       id="path929-3" />
    <path
       d="m 448.55892,274.59096 c -0.67705,0.0157 -1.35394,0.031 -2.03075,0.0465 -0.019,-1.51257 -0.0377,-3.02536 -0.0507,-4.53815 -0.026,-3.01575 0.0567,-6.48207 2.16521,-8.87132 0.82441,-0.93387 1.9469,-1.65599 3.12219,-1.87625 0.0836,-0.0155 0.25126,-0.0358 0.38966,-0.0454 0.15063,-0.0107 0.2565,-0.012 0.40275,-0.005 0.30256,0.0151 0.59661,0.0668 0.88673,0.1539 0.62236,0.18686 1.19146,0.54574 1.66189,0.99041 2.39295,2.2611 2.22376,5.86647 2.23315,8.89009 0.005,1.68502 -0.002,3.36983 -0.0194,5.05463 -2.92014,0.0668 -5.8405,0.1336 -8.76068,0.20018 z m 9.8515,-4.58879 c -0.002,-1.78654 0.0677,-3.60668 -0.18664,-5.38012 -0.21786,-1.5189 -0.74024,-3.02514 -1.7682,-4.19149 -0.94631,-1.07358 -2.27791,-1.73392 -3.71888,-1.73218 -1.47,0.001 -2.88281,0.57324 -4.03452,1.46913 -1.18255,0.9199 -2.01651,2.162 -2.52176,3.56477 -0.57316,1.59137 -0.72497,3.29386 -0.76487,4.97343 -0.0426,1.79548 0.0152,3.59489 0.0371,5.39015 0.003,0.2589 0.006,0.5178 0.009,0.7767 -0.0449,0.0522 -0.0773,0.11264 -0.0878,0.18206 -0.016,0.1074 0.0256,0.18708 0.093,0.24514 0.0181,1.49489 0.0365,2.98956 0.0546,4.48423 0.005,0.47043 0.0115,0.94064 0.017,1.41085 0.003,0.22593 0.4718,0.18271 0.59715,0.15433 0.19698,-0.0445 0.4754,-0.16023 0.47258,-0.39664 -0.0226,-1.84918 -0.048,-3.69858 -0.0718,-5.54777 2.809,-0.0644 5.61823,-0.12835 8.42747,-0.19275 0.78216,-0.0177 1.56453,-0.0356 2.34668,-0.0537 -0.021,1.69179 -0.052,3.38358 -0.0956,5.07494 -0.0118,0.45405 -0.0243,0.90789 -0.0376,1.36172 -0.007,0.22507 0.47851,0.18119 0.59704,0.15434 0.20499,-0.0465 0.46563,-0.15914 0.47261,-0.39664 0.11046,-3.78241 0.16525,-7.56657 0.16307,-11.3505"
       style="fill:#ffffff;fill-opacity:1;fill-rule:nonzero;stroke:none;stroke-width:0.0218296"
       id="path931-6" />
    <path
       d="m 477.34872,279.55785 c -0.2928,-0.18168 -0.85478,-0.5648 -1.2326,-0.49212 -0.0339,0.007 -0.0677,0.0106 -0.10019,0.0127 -0.13723,-0.22225 -0.23777,-0.4752 -0.31186,-0.7232 -0.16298,-0.54222 -0.21625,-1.11301 -0.27516,-1.67393 -0.14782,-1.39629 -0.24166,-2.79823 -0.28399,-4.20158 -0.01,-0.32174 -0.008,-0.64347 -0.012,-0.96485 0.49495,-2.37561 0.60995,-4.81965 0.34078,-7.23865 -0.0455,-0.40887 -1.86478,-1.07138 -1.87819,-0.95179 -0.26564,2.39113 -0.38205,4.79566 -0.3503,7.19949 -0.53623,2.55058 -1.50425,5.01085 -2.88361,7.22594 -0.57926,0.92993 -1.33597,1.95863 -2.40559,2.34845 -0.21202,0.0773 -0.43603,0.13158 -0.66181,0.14287 -0.012,3.5e-4 -0.17392,-0.0123 -0.30974,-0.0251 -0.375,-0.49318 -0.80927,-0.91369 -1.14124,-1.44991 -1.17757,-1.90359 -1.66334,-4.13809 -1.87395,-6.34154 -0.27834,-2.91006 -0.15381,-5.86493 -0.15134,-8.78346 3.5e-4,-0.30339 -0.61348,-0.58455 -0.83644,-0.7052 -0.0635,-0.0346 -1.0474,-0.47449 -1.0474,-0.31609 -0.002,2.85503 -0.10548,5.73405 0.13194,8.58238 0.2099,2.51284 0.75671,5.06659 2.22391,7.16562 0.81351,1.16346 1.85561,2.08033 3.17747,2.63067 1.19416,0.49671 2.30505,0.39405 3.31117,-0.44309 1.01212,-0.84279 1.68522,-2.06905 2.28495,-3.22016 0.19155,-0.36724 0.369,-0.74119 0.53939,-1.1183 0.0751,0.64664 0.17075,1.31127 0.48507,1.89018 0.35525,0.65299 0.95991,1.11019 1.59773,1.46791 0.65758,0.36936 1.41993,0.72707 2.19111,0.57891 0.28046,-0.0536 -0.4826,-0.56798 -0.52811,-0.5962"
       style="fill:#cc6c6d;fill-opacity:1;fill-rule:nonzero;stroke:none;stroke-width:0.0352778"
       id="path941-1" />
    <path
       d="m 493.6553,271.20049 c -0.0586,-1.46123 -0.0841,-2.92926 -0.19851,-4.38831 -0.0858,-1.09225 -0.2606,-2.22289 -0.80876,-3.20566 -0.54246,-0.97134 -1.49255,-1.68071 -2.66431,-1.82095 -1.1949,-0.14351 -2.40288,0.34502 -3.30042,1.0582 -2.23242,1.77439 -2.22098,4.83763 -2.30458,7.35652 -0.10321,3.13077 -0.20696,6.26154 -0.31071,9.39231 -0.01,0.30962 -0.0204,0.61924 -0.0305,0.92913 -0.9098,0.16829 -1.83892,0.20315 -2.76124,0.10838 0.0357,-2.82033 0.0207,-5.64149 -0.0476,-8.46155 -0.0702,-2.90503 -0.19606,-5.80897 -0.37715,-8.71018 -0.0945,-1.51487 -0.20614,-3.02893 -0.33059,-4.54217 l 0.41283,0.0752 c 0.0629,0.12064 0.20232,0.16339 0.3442,0.14787 0.30935,-0.034 0.61896,-0.0678 0.92831,-0.10157 0.32895,0.009 0.65764,0.0174 0.98658,0.0261 0.14733,1.01327 0.29492,2.02682 0.44224,3.04064 0.0357,0.24535 0.42862,0.2753 0.54817,0.0781 0.92341,-1.52604 2.50826,-2.7008 4.35508,-3.05126 1.79073,-0.33985 3.77779,0.19497 5.05275,1.4438 1.47621,1.4457 1.75506,3.60269 2.07694,5.49063 0.39158,2.29368 0.6963,4.59962 0.91279,6.91319 0.21621,2.31084 0.34556,4.62876 0.38777,6.94777 0.004,0.18844 0.005,0.37661 0.008,0.56505 -1.00293,-0.0575 -2.00613,-0.11492 -3.00933,-0.17238 -0.0863,-3.04009 -0.1898,-6.07964 -0.31152,-9.11891 z m 3.58146,2.39771 c -0.20723,-2.38328 -0.50542,-4.76002 -0.89427,-7.12369 -0.33659,-2.0467 -0.59964,-4.32132 -2.03663,-5.99032 -1.24283,-1.4438 -3.33582,-2.17605 -5.28041,-1.98924 -1.97698,0.19007 -3.75327,1.25263 -4.91278,2.74844 -0.12254,-0.84171 -0.24508,-1.68343 -0.36762,-2.52515 -0.0139,-0.0958 -0.10811,-0.17019 -0.20696,-0.19933 -0.0469,-0.0934 -0.14351,-0.1525 -0.26224,-0.16257 -0.66008,-0.0553 -1.3237,-0.0177 -1.97316,0.10266 -0.021,0.004 -0.0398,0.009 -0.0572,0.0161 -0.32242,-0.0586 -0.64484,-0.11709 -0.96672,-0.17564 -0.17264,-0.0313 -0.40247,0.0654 -0.38559,0.26523 0.24263,2.8974 0.4308,5.79834 0.56342,8.70174 0.13234,2.90339 0.20995,5.80896 0.23173,8.71453 0.0123,1.63088 0.007,3.26203 -0.0155,4.89263 -0.002,0.16639 0.13289,0.26687 0.29518,0.28838 1.14426,0.15195 2.31057,0.10321 3.43712,-0.13316 0.1299,-0.027 0.22194,-0.1465 0.22576,-0.26795 0.10129,-3.05589 0.20232,-6.11151 0.30335,-9.16685 0.0465,-1.40104 0.0408,-2.81598 0.20914,-4.20967 0.14786,-1.22268 0.47926,-2.51263 1.30002,-3.49867 0.66689,-0.80087 1.68425,-1.41357 2.76913,-1.53911 1.02907,-0.119 2.02437,0.30526 2.62782,1.09878 0.62659,0.82402 0.85669,1.87487 0.96834,2.86309 0.0651,0.57567 0.0874,1.15406 0.11301,1.73245 0.0337,0.7682 0.0667,1.53639 0.098,2.30485 0.12499,3.03574 0.23229,6.07256 0.3216,9.10912 0.0112,0.37497 0.0221,0.74994 0.0324,1.12492 0.005,0.15739 0.12663,0.27857 0.29546,0.28838 1.20199,0.0686 2.40425,0.13751 3.60651,0.20641 0.1593,0.009 0.30717,-0.12853 0.30581,-0.27667 -0.0221,-2.40261 -0.13671,-4.8044 -0.34475,-7.19966"
       style="fill:#272726;fill-opacity:1;fill-rule:nonzero;stroke:none;stroke-width:0.0272312"
       id="path469-2" />
    <path
       d="m 511.5216,257.50495 c 0.16369,-0.0938 0.34925,0.0776 0.50589,0.16122 0.5969,0.31679 0.70767,0.87665 0.77152,1.41499 0.0945,0.80398 0.21555,1.61078 0.13229,2.425 -0.0381,0.54398 0.0882,1.09572 -0.0649,1.63477 -0.048,0.16827 -0.0452,0.43144 -0.34643,0.38206 -0.23318,-0.0384 -0.19402,-0.25894 -0.20284,-0.42545 -0.0854,-1.56069 -0.27693,-3.10939 -0.63077,-4.63974 -0.0384,-0.16545 -0.0977,-0.32738 -0.127,-0.49389 -0.0272,-0.15557 -0.24553,-0.34007 -0.0378,-0.45896 z m 2.65148,17.66993 c 0.31821,0.019 0.31962,0.22366 0.2607,0.4057 -0.17709,0.54469 -0.23071,1.12501 -0.59937,1.62666 0,-0.5581 0.002,-1.11619 -0.001,-1.67429 -7e-4,-0.21237 0.0413,-0.37606 0.34008,-0.35807 z M 510.15,282.2128 c 0.007,-0.0166 0.0166,-0.0328 0.0318,-0.0487 0.54928,-0.33514 1.21391,-0.3997 1.8154,-0.61842 1.69933,-0.61912 2.8829,-1.63618 3.48086,-3.22121 0.4131,-1.09608 0.79516,-2.19569 1.01811,-3.33622 0.18415,-0.9398 -0.14746,-1.3896 -1.17792,-1.61255 -0.73837,-0.16016 -1.48767,-0.23742 -2.25002,-0.20391 -0.70591,0.0314 -1.08021,0.28011 -1.28588,0.89041 -0.13511,0.40076 -0.18344,0.81351 -0.18415,1.23402 -0.002,0.58561 -0.0314,1.17017 -0.0727,1.75613 -0.0614,0.87842 -1.18286,1.35714 -2.06163,1.13771 -2.07328,-0.51788 -3.43606,-1.65629 -4.13033,-3.48686 -0.56162,-1.4799 -0.84984,-3.00002 -1.02623,-4.55118 -0.13335,-1.17299 -0.15416,-2.34668 -0.0974,-3.51579 0.09,-1.85631 0.31856,-3.70028 1.13066,-5.44089 0.34501,-0.74013 0.80574,-1.41288 1.38466,-2.02142 0.32173,-0.33831 0.72778,-0.57256 1.17263,-0.75036 0.70732,-0.28222 1.05586,-0.13123 1.25165,0.55281 0.26318,0.92075 0.35208,1.87043 0.40464,2.81164 0.0462,0.83079 0.13406,1.65946 0.16193,2.49167 0.042,1.27458 0.87735,1.96179 2.27859,1.85984 0.5842,-0.0423 1.17087,-0.0998 1.7466,-0.21484 0.91546,-0.18345 1.47179,-0.68862 1.67252,-1.51236 0.34219,-1.40229 0.30727,-2.82222 0.20038,-4.24004 -0.0438,-0.58384 -0.11783,-1.16769 -0.20744,-1.74942 -0.16227,-1.05163 -0.6925,-1.91558 -1.65135,-2.51883 -2.70969,-1.70463 -6.43608,-1.68628 -8.87731,-0.0413 -1.36066,0.91687 -2.26801,2.17981 -2.98908,3.53942 -1.21038,2.28247 -1.79141,4.71311 -2.02601,7.22665 -0.16298,1.74307 -0.19226,3.47521 0.13335,5.20488 0.5962,3.16583 2.13184,5.93231 4.46194,8.33403 0.92216,0.95003 2.17417,1.46931 3.53449,1.76036 0.26423,0.0564 0.54257,0.0758 0.76658,0.23812 0.0169,0.0155 0.0279,0.0318 0.0356,0.048 0.45156,-0.24342 0.90347,-0.24412 1.35502,-10e-4"
       style="fill:#afe0dc;fill-opacity:1;fill-rule:nonzero;stroke:none;stroke-width:0.0352778"
       id="path647-9" />
    <path
       d="m 522.70203,257.84271 c -0.0116,0.82339 -0.031,1.64677 -0.0476,2.4698 0.0444,0.73272 0.042,1.46262 -0.13053,2.18193 -0.0497,-0.005 -0.0991,-0.008 -0.14887,-0.0106 -0.008,-1.21955 -0.0152,-2.43946 -0.0226,-3.65936 -0.0353,-0.32703 -0.073,-0.65405 -0.10442,-0.98143 -0.0166,-0.17251 -0.005,-0.35278 0.2226,-0.3556 0.23284,-0.003 0.2339,0.19332 0.23143,0.35525 z m -1.85526,2.9718 c -0.0628,0.76765 0.22613,1.55787 -0.14816,2.30576 v 3.5e-4 c -0.27834,-0.78987 -0.26917,-1.56104 0.14816,-2.30611 z m 15.00823,6.84001 c -0.0959,-2.11702 -0.67874,-4.08834 -1.92264,-5.84835 -1.14547,-1.62066 -2.61055,-2.35726 -4.59599,-1.84009 -0.53693,0.1397 -1.07491,0.27376 -1.61113,0.41628 -1.20439,0.31962 -2.37879,0.72073 -3.49356,1.4852 -0.0109,-0.004 -0.0219,-0.008 -0.0321,-0.0141 0,-2.76684 0.003,-5.3654 -0.003,-7.96361 -7.1e-4,-0.35913 -0.0293,-0.72073 -0.0762,-1.07703 -0.0924,-0.70697 -0.52705,-1.09397 -1.22061,-1.14477 -0.6911,-0.0504 -1.38713,-0.0529 -2.08104,-0.0579 -0.63006,-0.005 -0.98531,0.32491 -1.04175,0.95109 -0.0621,0.69039 -0.10972,1.38254 -0.15981,2.07398 -0.28328,3.90032 -0.66076,7.79392 -0.79869,11.70447 -0.0797,2.274 -0.20532,4.54624 -0.31045,6.81919 0,0.005 0,0.009 -3.5e-4,0.0134 -0.007,0.82867 -0.0141,1.657 -0.0208,2.48567 0,0.007 0,0.0134 0,0.0201 -0.001,0.65546 -0.003,1.31057 -0.004,1.96568 0,0.005 0,0.01 0,0.0145 l -0.0691,-3.5e-4 -0.0695,0.002 c 0,1.27811 0,2.55587 0,3.83399 0.0512,0.003 0.10195,0.004 0.15311,0.005 0.22754,0.48189 0.6223,0.75882 1.13594,0.65122 0.71544,-0.14957 1.43475,-0.11606 2.15054,-0.17886 1.09325,-0.096 1.5441,-0.5147 1.59631,-1.63053 0.23672,-5.07224 0.46179,-10.14554 0.63183,-15.22025 0.0293,-0.87207 0.30304,-1.48061 0.99201,-1.96427 1.66793,-1.17051 3.59022,-1.56068 5.55237,-1.8108 0.73307,-0.0935 1.26683,0.33937 1.70921,0.86748 0.89076,1.06327 1.47461,2.28529 1.75754,3.63749 0.56515,2.70051 0.32032,5.41549 0.0741,8.12447 -0.19579,2.15265 -0.36971,4.30848 -0.74119,6.44208 -0.0847,0.48824 0.0723,0.92427 0.61948,1.00894 0.54116,0.0833 0.80116,-0.27481 0.90558,-0.76588 0.0349,-0.16263 0.0938,-0.32173 0.1143,-0.48613 0.51576,-4.15748 1.05163,-8.31603 0.86043,-12.51973"
       style="fill:#b3b2e9;fill-opacity:1;fill-rule:nonzero;stroke:none;stroke-width:0.0352778"
       id="path899-3" />
    <path
       d="m 250.68707,245.61663 c 0.55033,0.32279 1.07456,0.69814 1.53741,1.12889 -0.38912,-0.30375 -0.82409,-0.54963 -1.28764,-0.74542 -0.0593,-0.14076 -0.14429,-0.27094 -0.24977,-0.38347 z m -1.35784,-0.39688 c -0.26317,-0.14675 -0.53446,-0.27905 -0.81174,-0.40075 -0.0522,-0.0896 -0.10795,-0.17639 -0.16757,-0.25965 0.26035,0.0914 0.51929,0.18838 0.77611,0.29281 0.248,0.10054 0.49742,0.21202 0.74542,0.33161 -0.17745,-0.0272 -0.3616,-0.0169 -0.54222,0.036 z m -0.83749,13.11452 c 0.29421,-0.36407 0.58878,-0.72814 0.883,-1.0922 0.0967,0.20143 0.24906,0.36442 0.4325,0.48401 -0.0406,0.0236 -0.0811,0.0483 -0.12206,0.0709 -0.38488,0.21166 -0.78422,0.38947 -1.19344,0.53728 z m 7.99994,-10.41471 c -0.17498,-1.61396 -0.62618,-3.20534 -1.77518,-4.4069 -0.7934,-0.82938 -1.78118,-1.34867 -2.84304,-1.68451 -0.24412,-0.133 -0.49565,-0.25894 -0.75953,-0.37254 -3.15983,-1.35784 -7.01216,-1.19203 -10.29511,-0.4251 -0.64241,0.15029 -0.93522,0.63818 -0.95427,1.14724 -0.0903,0.16545 -0.14146,0.35101 -0.13546,0.54751 0.29457,9.42587 0.58878,18.85139 0.883,28.27726 0.0833,2.65642 0.16616,5.31283 0.24906,7.96925 0.0219,0.69674 0.51223,1.30951 1.24248,1.33597 0.10901,0.004 0.21943,-0.01 0.32774,-0.036 0.1143,0.0378 0.23565,0.0561 0.36124,0.0483 1.07491,-0.0646 2.14983,-0.12947 3.22439,-0.19403 0.69532,-0.042 1.30916,-0.49777 1.33597,-1.24213 0.005,-0.13758 -0.018,-0.27834 -0.0621,-0.41522 0.12594,-0.52952 0.0801,-1.12712 0.0797,-1.67534 -7.1e-4,-2.09127 -10e-4,-4.18218 -0.002,-6.2738 -7e-4,-2.37349 -0.002,-4.74663 -0.002,-7.11976 1.74237,0.10054 3.53801,-0.4251 4.97911,-1.37936 2.31669,-1.53424 3.7532,-4.04813 4.32329,-6.73418 0.50518,-2.37808 0.49283,-5.00133 -0.17709,-7.36671"
       style="fill:#ebc532;fill-opacity:1;fill-rule:nonzero;stroke:none;stroke-width:0.0352778"
       id="path485" />
    <path
       d="m 276.25115,274.52846 c 0.23216,-0.52763 0.4297,-1.07973 0.60192,-1.64478 0.0366,10e-4 0.0605,-0.004 0.0664,-0.0228 0.0765,-0.25467 0.15336,-0.51074 0.22934,-0.76766 0.0124,5.6e-4 0.0242,0.001 0.0366,0.001 -0.24567,0.84925 -0.55155,1.67038 -0.93425,2.43355 z m -4.76355,3.50906 c 0.10637,-0.11199 0.2119,-0.22793 0.31292,-0.34922 0.0203,0.0349 0.0481,0.0661 0.0816,0.0954 -0.12944,0.0895 -0.26057,0.17446 -0.39452,0.25381 z m -2.53907,1.59921 c 0.0307,-0.01 0.0613,-0.0169 0.0923,-0.0268 0.19417,-0.0639 0.38721,-0.1435 0.57828,-0.23157 0.0262,0.0194 0.0509,0.0416 0.0777,0.0591 0.0743,0.0489 0.15167,0.09 0.22962,0.12662 -0.3253,0.0464 -0.65172,0.072 -0.97787,0.0726 z m -1.59132,-2.07702 c -0.13338,-0.011 -0.26761,-0.0248 -0.40128,-0.0439 0.0152,-0.0357 0.0273,-0.0726 0.036,-0.11172 0.0366,0.006 0.0729,0.0141 0.10947,0.0212 0.0954,0.0369 0.19191,0.0687 0.28843,0.10022 -0.011,0.0113 -0.0231,0.0223 -0.0326,0.0343 z m -2.08011,-4.67632 c 0,-0.10946 2.8e-4,-0.21921 5.6e-4,-0.32895 0.0771,0.16631 0.16012,0.32895 0.2496,0.48766 -0.0841,-0.0504 -0.16658,-0.1058 -0.25016,-0.15871 z m -1.62481,2.82696 c -0.0189,-0.16153 -0.0363,-0.32333 -0.054,-0.48514 0.0538,0.0197 0.10806,0.0334 0.16124,0.0383 0.0152,0.0853 0.0315,0.17026 0.0473,0.25552 -0.0661,0.047 -0.11847,0.11116 -0.15448,0.19135 z m -1.5764,-18.703 c -0.0909,0.84448 -0.18516,1.6884 -0.29041,2.53091 -0.0912,0.72911 -0.19051,1.4571 -0.29406,2.18395 -0.0248,0.159 -0.0495,0.3177 -0.0743,0.47669 0.18319,-2.30129 0.42126,-4.59836 0.72939,-6.88643 0.0186,-0.13986 -0.004,-0.28731 -0.0462,-0.4311 0.0616,-8e-4 0.12325,-0.002 0.18516,-0.003 -0.006,0.0127 -0.0124,0.0228 -0.0177,0.036 -0.11228,0.28533 -0.0892,0.57489 0.0374,0.79439 -0.12466,0.4145 -0.18235,0.8639 -0.22934,1.29867 z m 18.20548,0.54676 c 0.0141,-0.1711 0.0276,-0.34162 0.0417,-0.51244 0.005,-0.0582 -0.01,-0.11256 -0.0343,-0.16377 2.8e-4,-0.0819 0.003,-0.16405 0.003,-0.24566 0.0366,-0.0448 0.0664,-0.0968 0.092,-0.1528 -0.006,-0.32108 -0.003,-0.64356 0.008,-0.96605 -0.0917,-0.22231 -0.25129,-0.38692 -0.47585,-0.39819 -1.67574,-0.0833 -3.35148,-0.16658 -5.02722,-0.24987 -0.52256,-0.0262 -0.69562,0.64581 -0.56646,1.15542 -0.049,0.0779 -0.0796,0.1559 -0.0771,0.22822 0.0124,0.32389 0.022,0.64863 0.0309,0.97337 -0.0965,0.0664 -0.16096,0.14407 -0.16181,0.23103 -0.0397,3.51468 -0.29687,7.02742 -0.59685,10.53338 -0.005,0.0613 -0.0107,0.12691 -0.016,0.18882 -0.21245,0.96773 -0.42463,1.93547 -0.63709,2.90321 -0.14604,0.46543 -0.30841,0.92299 -0.48401,1.37323 -0.20823,0.33177 -0.44011,0.64215 -0.70237,0.92271 -0.68465,0.73221 -1.46216,1.00291 -2.21828,0.92468 -0.10412,0.0468 -0.21133,0.0853 -0.32277,0.11201 -0.41759,0.0999 -0.82169,0.0212 -1.1951,-0.16688 -0.78821,-0.0692 -1.50915,-0.5462 -2.02018,-1.55726 -0.89682,-1.7734 -0.87572,-4.23762 -0.83097,-6.32392 0.0557,-2.61927 0.33965,-5.24052 0.64834,-7.84094 0.11763,-0.99109 0.24539,-1.98078 0.36132,-2.97188 0.0442,-0.37904 0.0816,-0.75893 0.12297,-1.13798 0.0104,-0.0943 0.0124,-0.3101 0.0149,-0.45221 -1.83248,-0.23328 -3.70069,-0.15083 -5.54809,-0.25439 -0.0101,0.0591 0.0234,0.15702 0.0689,0.2558 -0.24566,0.12551 -0.45868,0.33402 -0.48738,0.57743 -0.57096,4.79844 -0.93594,9.62502 -1.08424,14.45273 -0.0481,1.5539 -0.10411,3.16041 0.20289,4.63607 -0.0276,0.0425 -0.0377,0.0948 -0.0259,0.15758 0.51187,2.69892 2.12626,4.73288 4.00799,5.87424 2.30973,1.40137 5.01906,1.47172 7.54969,0.84561 2.33844,-0.57829 4.78549,-1.58822 6.30084,-4.2044 1.28318,-2.2149 1.80771,-4.97771 2.1195,-7.63075 0.15365,-1.30794 0.25917,-2.62236 0.3616,-3.93594 0.34472,-2.37445 0.5386,-4.77649 0.57772,-7.18021"
       style="fill:#a4dbd8;fill-opacity:1;fill-rule:nonzero;stroke:none;stroke-width:0.0281401"
       id="path947" />
    <path
       d="m 276.22048,257.09965 c -0.0183,-0.44237 -0.0428,-0.88416 -0.0715,-1.32568 -0.0197,-0.29491 -0.80903,-0.37427 -0.79299,-0.1317 0.22428,3.40354 0.13142,6.8265 -0.2828,10.21231 -0.20599,1.68587 -0.47698,3.37202 -0.85856,5.02777 -0.33712,1.4633 -0.83773,2.9384 -1.89523,4.04571 -0.44011,0.46121 -0.97618,0.85714 -1.57697,1.08113 -0.68239,0.25439 -1.41038,0.27015 -2.11472,0.0943 -1.39068,-0.34725 -2.64038,-1.25138 -3.53242,-2.35701 -1.78492,-2.2118 -1.97177,-5.16229 -1.72611,-7.88174 0.13395,-1.48185 0.38861,-2.94935 0.62443,-4.41743 0.27802,-1.73173 0.55604,-3.46319 0.83407,-5.19493 0.0673,-0.41957 0.13479,-0.8397 0.20204,-1.25927 0.0439,-0.27267 -0.74852,-0.40521 -0.7927,-0.13197 -0.28647,1.78436 -0.57293,3.56843 -0.85912,5.35252 -0.25523,1.58991 -0.53944,3.17898 -0.7246,4.77875 -0.32502,2.81062 -0.30138,5.84805 1.32117,8.28835 1.60567,2.41526 5.1803,4.39267 7.96785,2.7763 1.27869,-0.74177 2.09644,-2.02693 2.5903,-3.38805 0.28365,-0.78201 0.47106,-1.59414 0.63737,-2.40795 0.177,-0.86644 0.33261,-1.73737 0.46656,-2.6114 0.53607,-3.48655 0.7322,-7.02544 0.5839,-10.54998"
       style="fill:#7bbab4;fill-opacity:1;fill-rule:nonzero;stroke:none;stroke-width:0.0281401"
       id="path949" />
    <path
       d="m 277.6922,269.19846 c 0.5628,-4.3558 0.88529,-8.7417 0.95789,-13.13296 0.009,-0.52847 0.0138,-1.05694 0.0155,-1.58542 10e-4,-0.46458 -0.80171,-0.43841 -0.80312,0.0276 -0.0138,4.25423 -0.25776,8.50674 -0.73389,12.73451 -0.11678,1.03696 -0.24369,2.07391 -0.39593,3.10637 -0.14914,1.00939 -0.33852,2.01989 -0.68746,2.98172 -0.52932,1.45963 -1.50409,2.74 -2.75801,3.65483 -1.21705,0.88782 -2.68765,1.43881 -4.19933,1.4751 -1.49677,0.0357 -2.99579,-0.46008 -4.21172,-1.32651 -1.25139,-0.89177 -2.21181,-2.1516 -2.64348,-3.63401 -0.27155,-0.93369 -0.34865,-1.9079 -0.41309,-2.87395 -0.0701,-1.04567 -0.12269,-2.09277 -0.15759,-3.13986 -0.14014,-4.18949 -0.002,-8.38855 0.41338,-12.55976 0.0512,-0.51551 0.10665,-1.03076 0.16687,-1.54544 0.0242,-0.20712 -0.081,-0.38383 -0.29547,-0.42886 -0.17081,-0.0357 -0.46093,0.0568 -0.48542,0.26593 -0.50567,4.32625 -0.72432,8.68318 -0.63624,13.03869 0.022,1.07383 0.0616,2.14708 0.11987,3.21978 0.0563,1.03725 0.10103,2.08462 0.27099,3.11089 0.15055,0.90722 0.41197,1.76916 0.85827,2.57565 0.38468,0.69535 0.89204,1.31949 1.47285,1.85978 1.17963,1.0969 2.71467,1.84682 4.31134,2.07336 1.63831,0.23215 3.30476,-0.0912 4.77227,-0.84477 1.43458,-0.73727 2.67274,-1.8865 3.49977,-3.27269 1.04287,-1.74777 1.3057,-3.79777 1.56178,-5.77996"
       style="fill:#7bbab4;fill-opacity:1;fill-rule:nonzero;stroke:none;stroke-width:0.0281401"
       id="path951" />
    <path
       d="m 292.04695,274.79094 c -0.71163,0.8014 -1.66216,1.09604 -2.66898,1.17687 -1.33213,0.10732 -1.18941,0.4329 -1.22314,-1.06229 -0.004,-0.15554 -5.6e-4,-0.31137 -5.6e-4,-0.46691 -0.0201,-1.58244 -0.0201,-1.57407 1.59972,-1.64654 0.71917,-0.0321 1.4085,0.0128 2.05018,0.39442 0.7685,0.45742 0.84683,0.92432 0.24278,1.60445 z m 0.50927,-7.4765 c -1.43052,-0.2952 -2.86717,-0.23137 -4.2871,0.0555 -0.49227,0.0995 -0.56976,-0.0398 -0.53631,-0.47749 0.12655,-1.66327 0.24195,-3.32627 0.30383,-4.99456 0.10676,-2.89339 -0.0145,-5.78426 -0.0159,-8.67624 -2.8e-4,-1.17854 -0.23024,-1.40739 -1.42104,-1.55345 -0.19652,-0.0243 -0.38941,-0.0772 -0.58398,-0.11679 -0.39888,5.5e-4 -0.79749,0.001 -1.19637,0.001 -1.10495,0.33142 -1.23429,0.50397 -1.2708,1.67944 -0.0117,0.37463 -0.0312,0.74899 -0.0474,1.12334 0.0959,0.88669 0.041,1.77561 -8.7e-4,2.66035 -0.22996,4.89171 -0.33616,9.7876 -0.47247,14.68237 0.007,0.0602 0.0114,0.12181 -0.005,0.17339 -0.0259,0.92961 -0.053,1.85922 -0.0822,2.78884 -2.8e-4,0.22244 -5.6e-4,0.44488 -8.7e-4,0.66732 -0.0217,0.35847 0.15749,0.7384 -0.11512,1.06955 0,0.17811 0,0.35624 0,0.53407 0.26063,0.24502 0.3186,0.56335 0.32502,0.90119 0.006,0.28933 0.009,0.57868 0.0212,0.86773 0.0708,1.70593 0.45157,2.18536 2.13435,2.34871 2.56976,0.2492 5.14788,0.14997 7.65575,-0.45714 2.78216,-0.67373 4.30383,-2.73422 4.99624,-5.37059 1.1409,-4.34509 -1.85561,-7.17463 -5.40125,-7.9069"
       style="fill:#e7c079;fill-opacity:1;fill-rule:nonzero;stroke:none;stroke-width:0.0278746"
       id="path553" />
    <path
       d="m 293.88082,279.02844 c -0.90313,0.55582 -1.94871,0.81004 -2.98285,0.99067 -0.63359,0.11093 -1.27331,0.211 -1.91638,0.29072 -0.19178,0.012 -0.38355,0.0201 -0.57561,0.0298 0.80446,-0.0822 1.60362,-0.21965 2.38941,-0.41477 1.59832,-0.39694 3.20752,-1.05645 4.47749,-2.11735 -0.39666,0.47665 -0.86272,0.89505 -1.39206,1.22091 z m -10.53491,1.1554 c -8.7e-4,-0.0245 -0.002,-0.0491 -0.003,-0.0736 0.8577,0.16753 1.72739,0.26843 2.59986,0.30411 -0.3607,0.004 -0.72139,0.006 -1.08181,0.006 -0.50815,-0.0485 -1.01352,-0.12571 -1.51554,-0.23609 z m -0.28348,-22.29157 c 0.0195,-2.12125 0.0532,-4.24223 0.0998,-6.36292 5.5e-4,-0.0332 -0.007,-0.0608 -0.0167,-0.0861 h 3.78787 c 0.0343,3.87679 0.14384,7.75275 0.33673,11.62536 0.0151,0.30076 0.0346,0.60153 0.0507,0.90258 -0.0237,0.85631 -0.0474,1.71261 -0.0792,2.56864 -0.007,0.2007 0.21017,0.25533 0.4039,0.21017 0.17868,0.0574 0.43206,-0.0162 0.49728,-0.17393 0.7869,-0.0315 1.58662,-0.0533 2.37938,-0.0168 -0.91373,0.0243 -1.83025,0.12599 -2.71108,0.23247 -0.11513,0.0139 -0.37074,0.0842 -0.39025,0.22774 -0.0204,0.14996 0.19875,0.14996 0.29352,0.13853 2.18565,-0.26369 4.53185,-0.52683 6.54467,0.57478 1.76056,0.96334 2.56306,2.90313 2.6715,4.83512 0.002,0.0429 2.8e-4,0.0861 0.002,0.12906 -0.0254,0.0432 -0.0396,0.0911 -0.034,0.14411 0.23303,2.21965 -1.19749,4.21045 -3.01492,5.32878 -1.95289,1.20223 -4.37797,1.68111 -6.64362,1.74857 -1.31456,0.039 -2.62829,-0.0897 -3.91414,-0.36237 -0.2414,-7.21837 -0.33115,-14.44179 -0.26342,-21.66381 z m 12.57588,9.71568 c -2.19345,-1.50049 -4.94216,-1.45143 -7.49156,-1.34522 -0.0474,-0.78077 -0.0909,-1.56182 -0.13213,-2.34258 0.0886,-3.20585 0.12516,-6.41311 0.10146,-9.62007 -0.008,-1.15819 -0.0245,-2.3161 -0.0477,-3.47401 -0.003,-0.16446 -0.16306,-0.24279 -0.31637,-0.22411 -0.0571,0.007 -0.11429,0.0126 -0.17115,0.0192 -0.12627,-0.17923 -0.5168,-0.12822 -0.62634,0.0657 -1.35248,0.12655 -2.71136,0.15527 -4.06885,0.0777 -0.15833,-0.009 -0.3777,0.0454 -0.44572,0.20962 -0.0217,0.0524 -0.0201,0.1023 -0.004,0.1455 8.7e-4,0.0139 0.006,0.027 0.0184,0.0365 -0.007,0.0139 -0.0111,0.0279 -0.012,0.0424 -0.66871,7.48154 -0.88028,15.00349 -0.62913,22.51094 0.0719,2.14607 0.18202,4.29046 0.32836,6.43262 0.001,0.0145 0.006,0.027 0.0123,0.0382 0.0187,0.16084 0.0602,0.32083 0.12738,0.47666 0.0321,0.0739 0.13492,0.0694 0.2007,0.0705 0.51457,0.008 1.02941,0.012 1.54481,0.0131 1.91944,0.24947 3.87791,0.0864 5.79122,-0.1982 0.15247,-0.012 0.30578,-0.0228 0.45853,-0.0359 2.13325,-0.18703 4.28237,-0.69797 5.78676,-2.32808 2.56474,-2.77965 2.95108,-8.26174 -0.42508,-10.57059"
       style="fill:#000000;fill-opacity:1;fill-rule:nonzero;stroke:none;stroke-width:0.0278746"
       id="path555" />
    <path
       d="m 291.23692,273.98983 c -0.31749,0.43903 -0.86021,0.65394 -1.36056,0.80753 -0.52794,0.1614 -1.06899,0.25003 -1.61672,0.27373 -0.12042,-0.92627 -0.13296,-1.86146 -0.0435,-2.78997 0.57226,-0.0546 1.15512,-0.0859 1.72822,-0.0465 0.43094,0.0299 0.93296,0.10454 1.25631,0.42007 0.36906,0.35931 0.32251,0.93938 0.0362,1.3352 z m 0.75317,-1.42634 c -0.28432,-0.50118 -0.88976,-0.71582 -1.42634,-0.8053 -0.7462,-0.12432 -1.54035,-0.0792 -2.29408,-0.006 -0.0393,-0.27874 -0.65561,-0.18369 -0.69463,0.11122 -0.14439,1.07986 -0.14634,2.17199 -0.0167,3.25297 -0.10202,0.0502 -0.18983,0.13937 -0.1993,0.24362 -0.0164,0.18509 0.17895,0.23665 0.32111,0.24112 0.76098,0.0239 1.52725,-0.0719 2.25784,-0.28711 0.65868,-0.19373 1.34216,-0.47191 1.79958,-1.00627 0.40948,-0.47833 0.57422,-1.17826 0.25255,-1.74495"
       style="fill:#000000;fill-opacity:1;fill-rule:nonzero;stroke:none;stroke-width:0.0278746"
       id="path557" />
    <path
       d="m 310.16579,279.22873 c -0.21166,-0.76036 -1.11519,-0.85373 -1.76675,-0.74998 l -2.27485,0.36194 c -0.63526,0.10109 -1.27111,0.21818 -1.90933,0.30414 -0.0474,0.003 -0.0949,0.008 -0.14229,0.01 -0.032,-0.0466 -0.0623,-0.0943 -0.0895,-0.14436 -0.20751,-0.60503 -0.20484,-1.28831 -0.25434,-1.91616 -0.0664,-0.84899 -0.12658,-1.69827 -0.18023,-2.54815 -0.10613,-1.67516 -0.18735,-3.35179 -0.24368,-5.02932 -0.0303,-0.91006 -0.0528,-1.81981 -0.0691,-2.73017 -0.0596,-3.84031 0.009,-7.68241 0.20869,-11.51828 0.0569,-1.09681 0.12509,-2.19303 0.20336,-3.28865 0.0231,-0.32163 -0.0724,-0.58783 -0.32935,-0.79504 -0.26471,-0.21343 -0.69247,-0.31541 -1.02477,-0.29999 -0.40226,0.019 -0.83476,0.11472 -1.1644,0.3578 -0.25048,0.18468 -0.54959,0.4574 -0.57331,0.79089 -0.33052,4.62853 -0.47281,9.27041 -0.42449,13.9108 0.0252,2.39431 0.0949,4.78803 0.2167,7.17966 0.059,1.15847 0.13013,2.31664 0.21283,3.47363 0.0423,0.59109 0.0877,1.18159 0.13607,1.77208 0.0359,0.43309 0.0596,0.87746 0.20128,1.29187 0.24575,0.71708 0.71381,1.30461 1.46143,1.54561 0.4562,0.14703 0.92428,0.21877 1.40539,0.18972 0.40078,-0.024 0.79978,-0.0877 1.19612,-0.15088 1.29631,-0.20633 2.59291,-0.41264 3.88922,-0.61867 0.35454,-0.0563 0.77904,-0.27806 1.02359,-0.54366 0.1915,-0.2078 0.37411,-0.55789 0.2917,-0.85432"
       style="fill:#c1d9c8;fill-opacity:1;fill-rule:nonzero;stroke:none;stroke-width:0.0296435"
       id="path537" />
    <path
       d="m 316.18089,279.3143 c 0.0623,-3.90475 0.12433,-7.80949 0.18692,-11.71424 l 0.0538,-3.36077 c 0.005,-0.29446 -0.47824,-0.48678 -0.6754,-0.54653 -0.43927,-0.13314 -1.00343,-0.13201 -1.44981,-0.0589 -0.65662,0.10754 -1.79803,0.35961 -1.86972,1.17726 l -0.23983,2.74541 c -0.0105,0.12034 0.0751,0.22561 0.19118,0.31209 -0.0461,2.88568 -0.0925,5.77134 -0.13855,8.65701 l -0.0535,3.36078 c -0.005,0.29446 0.47824,0.48678 0.6754,0.54653 0.43926,0.13285 1.00314,0.13172 1.4498,0.0589 0.46686,-0.0765 0.98067,-0.18834 1.37498,-0.46317 0.25747,-0.1798 0.48906,-0.37326 0.49475,-0.71437"
       style="fill:#e2a56d;fill-opacity:1;fill-rule:nonzero;stroke:none;stroke-width:0.0284499"
       id="path767" />
    <path
       d="m 316.60138,256.70462 c 0.027,-0.67995 0.0538,-1.3599 0.0808,-2.03986 -0.0239,-0.16557 -0.101,-0.29474 -0.2313,-0.38805 -0.1229,-0.13969 -0.2771,-0.235 -0.46231,-0.28592 -0.21849,-0.0816 -0.44325,-0.1249 -0.67454,-0.12945 -0.2606,-0.0336 -0.52177,-0.0276 -0.78266,0.0179 -0.47027,0.0788 -0.99062,0.20854 -1.36758,0.51608 -0.0939,0.0871 -0.18749,0.17411 -0.28137,0.26146 -0.0942,0.10583 -0.15079,0.2239 -0.17781,0.35135 -0.0498,0.0671 -0.0799,0.14168 -0.068,0.22675 0.006,0.0401 0.0239,0.0754 0.0464,0.10839 -0.0253,0.64439 -0.0509,1.28878 -0.0762,1.93317 0.0239,0.16558 0.10099,0.29502 0.23129,0.38805 0.12262,0.13969 0.27682,0.235 0.46231,0.28593 0.21821,0.0816 0.44297,0.12489 0.67455,0.12944 0.2606,0.0336 0.52149,0.0276 0.78266,-0.0176 0.47027,-0.0791 0.99062,-0.20882 1.36758,-0.51608 0.0936,-0.0873 0.18748,-0.17468 0.28108,-0.26174 0.14794,-0.16643 0.21309,-0.3596 0.19517,-0.5798"
       style="fill:#e2a56d;fill-opacity:1;fill-rule:nonzero;stroke:none;stroke-width:0.0284499"
       id="path769" />
    <path
       d="m 328.3256,280.94594 c 0.0131,-0.012 0.0296,-0.0229 0.0504,-0.0321 0.2921,-0.0727 0.59725,-0.0353 0.89641,0.0194 1.77588,0.32491 3.35033,0.0187 4.74909,-0.76694 1.88878,-1.0608 3.32987,-2.45498 4.14902,-4.29965 0.55916,-1.25977 -0.53234,-2.77672 -2.1784,-3.01273 -0.46531,-0.067 -0.75212,0.12841 -1.00189,0.39476 -0.55492,0.59091 -1.10596,1.18428 -1.69404,1.75154 -0.45155,0.43533 -0.96343,0.78705 -1.57762,1.05164 -1.09467,0.47131 -2.20945,0.94156 -3.54401,0.51505 -1.78082,-0.56938 -3.22438,-1.50001 -4.15536,-3.01378 -1.41253,-2.29764 -1.64995,-4.6676 -1.06927,-6.94761 0.67627,-2.65677 1.9565,-5.1107 4.22592,-7.01393 1.00859,-0.84597 2.20663,-1.45803 3.76767,-1.415 0.97613,0.0265 1.16593,0.25506 0.92886,1.0414 -0.0861,0.28328 -0.19579,0.56339 -0.2092,0.86255 -0.0233,0.51999 0.14359,1.00012 0.71403,1.31762 0.59549,0.33161 1.18074,0.2981 1.68769,-0.0289 1.29257,-0.8322 2.06657,-2.60632 0.18662,-4.17124 -1.69193,-1.40864 -4.18042,-1.80763 -6.29003,-1.00683 -3.5687,1.35396 -5.96971,3.69182 -7.52299,6.68197 -0.63606,1.22591 -0.80857,2.62432 -0.98637,3.9931 -0.26387,2.02635 -0.25082,4.07352 0.003,6.14856 0.34537,2.81799 2.22144,4.77837 5.00133,6.27944 0.37676,0.20356 0.7747,0.37677 1.12395,0.62054 0.23177,0.19579 0.54363,0.24589 0.81491,0.37077 0.0695,0.0356 0.12841,0.0811 0.17745,0.13617 0.01,0.0155 0.0155,0.0303 0.0198,0.0444 0.65228,-0.11395 1.22907,0.0501 1.73319,0.47978"
       style="fill:#b3b2e9;fill-opacity:1;fill-rule:nonzero;stroke:none;stroke-width:0.0352778"
       id="path651" />
    <path
       d="m 336.85612,273.00703 c -0.91722,-0.58314 -1.46155,-0.52564 -2.09267,0.19156 -1.1864,1.34796 -2.40701,2.65818 -4.43724,3.19123 -0.63112,0.1658 -1.25871,0.25505 -1.91241,0.06 -1.71944,-0.51365 -3.17218,-1.33703 -4.08834,-2.7746 -0.6978,-1.09467 -1.16311,-2.22532 -1.30493,-3.43112 -0.49777,-4.22451 1.30951,-7.60377 4.31306,-10.53748 0.55739,-0.54434 1.31481,-0.88829 2.10891,-1.16558 0.57397,-0.20038 1.18004,-0.26388 1.82845,-0.17745 0.45578,0.0607 0.72319,0.14253 0.47448,0.60608 -0.17815,0.33161 -0.26388,0.72107 -0.29739,1.09819 -0.054,0.61278 0.20144,1.17193 0.87383,1.53 0.64629,0.34397 1.27106,0.27059 1.84397,-0.0427 1.78329,-0.97613 1.9244,-3.06246 0.26106,-4.43089 -1.90042,-1.56386 -4.07882,-1.9752 -6.26569,-1.18039 -4.24674,1.5434 -7.11623,4.24885 -8.33932,8.09626 -0.84455,2.65818 -0.90134,5.46558 -0.67027,8.30157 0.24271,2.98344 1.84891,5.29766 4.94418,6.94231 0.48965,0.26035 0.98107,0.51858 1.47214,0.77787 0.30762,0.0797 0.62759,0.13406 0.86466,0.36019 0,0 0,0 3.5e-4,0 l 0.0695,0.0155 0.0635,0.0318 v 0 c 0.009,-10e-4 0.0173,-0.002 0.0265,-0.003 -0.004,-0.0141 -0.0102,-0.0289 -0.0198,-0.0445 -0.049,-0.055 -0.10795,-0.10054 -0.17745,-0.13617 -0.27128,-0.12489 -0.58314,-0.17498 -0.81491,-0.37077 -0.34925,-0.24377 -0.74719,-0.41698 -1.12395,-0.62054 -2.77989,-1.50107 -4.65596,-3.46145 -5.00133,-6.27944 -0.25365,-2.07504 -0.2667,-4.12221 -0.003,-6.14857 0.1778,-1.36877 0.35031,-2.76719 0.98637,-3.99309 1.55328,-2.99015 3.95429,-5.32801 7.52299,-6.68197 2.10961,-0.80081 4.5981,-0.40181 6.29003,1.00682 1.87995,1.56493 1.10595,3.33905 -0.18662,4.17125 -0.50695,0.32702 -1.0922,0.36054 -1.68769,0.0289 -0.57044,-0.3175 -0.73731,-0.79763 -0.71403,-1.31763 0.0134,-0.29915 0.12312,-0.57926 0.2092,-0.86254 0.23707,-0.78634 0.0473,-1.01494 -0.92886,-1.0414 -1.56104,-0.043 -2.75908,0.56903 -3.76767,1.41499 -2.26942,1.90324 -3.54965,4.35717 -4.22592,7.01394 -0.58068,2.28001 -0.34326,4.64997 1.06927,6.94761 0.93098,1.51377 2.37454,2.4444 4.15536,3.01378 1.33456,0.42651 2.44934,-0.0438 3.54401,-0.51506 0.61419,-0.26458 1.12607,-0.6163 1.57762,-1.05163 0.58808,-0.56726 1.13912,-1.16064 1.69404,-1.75154 0.24977,-0.26635 0.53658,-0.46179 1.00189,-0.39476 1.64606,0.23601 2.73756,1.75296 2.1784,3.01273 -0.81915,1.84467 -2.26024,3.23885 -4.14902,4.29965 -1.39876,0.78564 -2.97321,1.09185 -4.74909,0.76694 -0.29916,-0.0547 -0.60431,-0.0921 -0.89641,-0.0194 -0.0208,0.009 -0.0374,0.0201 -0.0504,0.0321 0.005,0.004 0.01,0.007 0.0145,0.0113 3.01131,0.75001 5.37633,-0.066 7.38681,-1.69474 0.94227,-0.76342 1.73602,-1.62913 2.3047,-2.65325 0.97367,-1.75401 0.79728,-2.34809 -1.17546,-3.60221"
       style="fill:#b3b2e9;fill-opacity:1;fill-rule:nonzero;stroke:none;stroke-width:0.0352778"
       id="path653" />
  </g>
</svg>
