<?xml version="1.0" encoding="UTF-8" standalone="no"?>
<!-- Created with Inkscape (http://www.inkscape.org/) -->

<svg
   width="248.28897mm"
   height="39.037609mm"
   viewBox="0 0 248.28897 39.037609"
   version="1.1"
   id="svg18126"
   inkscape:version="1.1.1 (1:1.1+202109281949+c3084ef5ed)"
   sodipodi:docname="rm-presale-launch.svg"
   xmlns:inkscape="http://www.inkscape.org/namespaces/inkscape"
   xmlns:sodipodi="http://sodipodi.sourceforge.net/DTD/sodipodi-0.dtd"
   xmlns="http://www.w3.org/2000/svg"
   xmlns:svg="http://www.w3.org/2000/svg">
  <sodipodi:namedview
     id="namedview18128"
     pagecolor="#ffffff"
     bordercolor="#666666"
     borderopacity="1.0"
     inkscape:pageshadow="2"
     inkscape:pageopacity="0.0"
     inkscape:pagecheckerboard="0"
     inkscape:document-units="mm"
     showgrid="false"
     inkscape:zoom="0.71090067"
     inkscape:cx="-424.10988"
     inkscape:cy="-97.763306"
     inkscape:window-width="1920"
     inkscape:window-height="970"
     inkscape:window-x="0"
     inkscape:window-y="27"
     inkscape:window-maximized="1"
     inkscape:current-layer="layer1" />
  <defs
     id="defs18123" />
  <g
     inkscape:label="Layer 1"
     inkscape:groupmode="layer"
     id="layer1"
     transform="translate(-217.51717,-174.38719)">
    <path
       d="m 231.89113,186.22982 c 0.0257,0.57679 -0.2078,1.1049 -0.32951,1.65241 -0.0575,0.25894 -0.11959,0.5461 -0.35136,0.73413 0.18591,0.0653 0.22648,-0.10971 0.26988,-0.22154 0.2487,-0.63853 0.44308,-1.29293 0.48471,-1.98297 0.007,-0.12417 -0.0243,-0.25611 0.0766,-0.36054 -0.10618,0.012 -0.15523,0.0744 -0.15029,0.17851"
       style="fill:#617e83;fill-opacity:1;fill-rule:nonzero;stroke:none;stroke-width:0.0352778"
       id="path477" />
    <path
       d="m 231.97368,184.64514 c 0.006,0.36654 -0.0949,0.74401 0.0677,1.10173 0,-0.65934 0,-1.31833 0,-1.97768 -0.15839,0.28082 -0.0727,0.58562 -0.0677,0.87595"
       style="fill:#617e83;fill-opacity:1;fill-rule:nonzero;stroke:none;stroke-width:0.0352778"
       id="path481" />
    <path
       d="m 230.18226,185.33412 c -0.0275,0.41486 -0.10618,0.82585 -0.1531,1.23966 -0.11854,1.04387 -0.69109,1.88207 -1.31974,2.65077 -0.89781,1.0982 -1.92969,2.06199 -3.23275,2.70475 -0.71768,0.35384 -1.47492,0.44556 -2.24041,0.48824 -0.54226,0.03 -1.08409,0.0734 -1.62638,0.10266 -0.28522,0.0155 -0.36763,-0.0765 -0.36587,-0.36195 0.0113,-1.95121 0.006,-3.90243 0.006,-5.85399 -0.005,0 -0.011,0 -0.0165,0 0,-1.88772 0.0397,-3.7772 -0.0168,-5.66314 -0.0273,-0.92076 0.0468,-1.84891 -0.10929,-2.76508 -0.0358,-0.21167 0.0441,-0.30374 0.26667,-0.36265 1.13799,-0.30163 2.27968,-0.18662 3.42895,-0.10548 1.15462,0.0811 2.04643,0.65193 2.88358,1.37689 0.89816,0.77787 1.72719,1.60761 2.12796,2.76119 0.42685,1.23014 0.45226,2.50684 0.36794,3.78813 z m 1.6623,0.39017 c 0.11748,-1.53141 0.0152,-3.03565 -0.49989,-4.4891 -0.75248,-2.12407 -2.36607,-3.4865 -4.20193,-4.62597 -0.98531,-0.61172 -2.13393,-0.56127 -3.23607,-0.66464 -1.22989,-0.11571 -2.40908,0.18309 -3.58799,0.4819 -0.67014,0.16968 -1.38053,0.1972 -1.97542,0.61313 -0.25424,0.1778 -0.40968,0.40463 -0.44277,0.71402 -0.17184,1.61043 -0.20768,3.22897 -0.28966,4.8447 -0.0813,1.60584 -0.0431,3.21627 -0.0659,4.82388 -0.0499,3.52284 -0.0175,7.04638 -0.0165,10.56957 0,0.16369 0.0245,0.32738 0.0356,0.49107 0.0654,0.98496 0.0937,1.97873 0.0613,2.95734 -0.0424,1.28164 0.034,2.55446 0.052,3.83081 0.006,0.40711 0.37938,0.75671 0.72112,0.66358 0.5377,-0.14711 1.09555,-0.1778 1.62884,-0.33302 0.2256,-0.0275 0.45089,-0.055 0.67621,-0.0826 0,0.002 -2.9e-4,0.003 -6.7e-4,0.005 0.003,-0.002 0.005,-0.004 0.008,-0.006 v 0 c 0.55644,-0.17604 1.0094,-0.43533 0.91405,-1.13595 0.22352,-0.50871 0.17709,-1.0474 0.12679,-1.57127 -0.12789,-1.3328 -0.19086,-2.66947 -0.26183,-4.00544 -0.0742,-1.40053 -0.0955,-2.80353 -0.14538,-4.20546 -0.006,-0.15734 0.0427,-0.25471 0.20327,-0.24907 0.62215,0.0215 1.22809,-0.13582 1.84725,-0.1598 0.69479,-0.0268 1.3801,-0.12454 2.04639,-0.34185 1.37064,-0.44732 2.45402,-1.32256 3.49049,-2.28388 0.92004,-0.85337 1.62136,-1.86619 2.25883,-2.93194 0.007,-0.005 0.0127,-0.0113 0.0194,-0.0169 -0.004,-0.001 -0.007,-0.002 -0.0113,-0.004 0.36865,-0.9278 0.56868,-1.89018 0.64558,-2.88784"
       style="fill:#617e83;fill-opacity:1;fill-rule:nonzero;stroke:none;stroke-width:0.0352778"
       id="path483" />
    <path
       d="m 250.60801,183.42477 c -0.29634,-1.06151 -0.94827,-2.04999 -1.90006,-2.63172 -1.44569,-0.88371 -3.31365,-0.66111 -4.82777,-0.073 -1.13136,0.43921 -1.99108,1.25342 -2.58974,2.29729 -0.57538,1.00295 -0.95673,2.12796 -1.3021,3.22651 -0.17181,0.54645 -0.3235,1.09925 -0.46285,1.65558 -0.20567,-0.36759 -0.42333,-0.72884 -0.65758,-1.08056 -0.91757,-1.37865 -2.03376,-2.6169 -3.36797,-3.60292 -0.1912,-0.14111 -0.5715,-0.13194 -0.78316,-0.12559 -0.40217,0.012 -0.84138,0.0882 -1.22449,0.20885 -0.16687,0.0526 -1.40865,0.48754 -0.98037,0.80433 1.08232,0.7994 2.02494,1.76495 2.82892,2.84233 1.3843,1.90959 2.32657,4.11445 2.89384,6.39763 0.10548,0.42615 0.1965,0.85513 0.27763,1.28623 -0.0692,1.06009 -0.10477,2.12231 -0.11359,3.18382 -0.025,2.93546 0.14252,5.8681 0.31821,8.79686 0.0109,0.18345 0.4445,0.22366 0.53128,0.23178 0.36653,0.0353 0.7874,-0.0183 1.143,-0.0981 0.36759,-0.0825 0.75847,-0.17815 1.08585,-0.37077 0.17004,-0.10019 0.37606,-0.20673 0.39229,-0.42651 0.26599,-3.53871 0.48048,-7.11482 0.009,-10.64613 -0.0593,-0.44414 -0.13159,-0.88688 -0.2152,-1.32785 0.0434,-0.65864 0.0984,-1.31692 0.17075,-1.97379 0.1397,-1.27424 0.34149,-2.54071 0.61595,-3.79272 0.38382,-1.7025 0.87841,-3.43006 1.63265,-5.00768 0.15805,-0.3302 0.33373,-0.65264 0.53623,-0.95744 0.10018,-0.14993 0.20602,-0.29527 0.32032,-0.43497 0.0265,-0.0325 0.0533,-0.0642 0.0804,-0.096 0.005,-0.006 0.0176,-0.0201 0.0296,-0.0342 0.0162,-0.0173 0.0384,-0.0413 0.0462,-0.0494 0.0363,-0.036 0.073,-0.072 0.11077,-0.10654 0.0233,-0.0212 0.0476,-0.0402 0.0713,-0.0603 0.0138,0.005 0.0272,0.009 0.0409,0.0141 0.0159,0.005 0.0272,0.008 0.0367,0.0116 0.006,0.003 0.012,0.006 0.0201,0.01 0.18768,0.09 0.36795,0.19226 0.53834,0.31221 0.33726,0.23671 0.629,0.52846 0.88018,0.85407 1.04634,1.49437 0.97543,3.43994 0.84596,5.17878 -0.0131,0.17886 0.47308,0.22648 0.53093,0.23213 0.36654,0.0349 0.7874,-0.0187 1.14335,-0.0981 0.3676,-0.0829 0.75848,-0.17851 1.0855,-0.37113 0.17039,-0.0998 0.37642,-0.20672 0.39229,-0.4265 0.0931,-1.24672 0.15663,-2.53401 -0.18344,-3.7518"
       style="fill:#7bbab4;fill-opacity:1;fill-rule:nonzero;stroke:none;stroke-width:0.0352778"
       id="path715" />
    <path
       d="m 265.02059,193.02268 c -0.0127,0.21696 -0.0385,0.43744 -0.0773,0.66816 -3.58951,0.48295 -7.25099,0.82056 -10.88672,1.0033 -0.0159,7e-4 -0.0931,0.006 -0.18944,0.0282 -0.0882,-0.0649 -0.1905,-0.0981 -0.2727,-0.1076 -0.25505,-0.0293 -0.51011,0.0949 -0.6477,0.31644 -0.3249,0.52529 -0.34395,1.18322 -0.35806,1.663 -0.0155,0.52916 0.0208,1.05657 0.10865,1.56845 0.18697,1.09114 0.61913,2.0955 1.25025,2.90406 1.26753,1.62313 3.30341,2.42253 5.18724,2.03659 1.03434,-0.21202 1.9431,-0.73343 2.58974,-1.48061 0.0102,0.0116 0.0201,0.0226 0.0296,0.0332 0.12982,0.14887 0.2487,0.30903 0.37465,0.47837 0.0522,0.0709 0.10442,0.14181 0.15804,0.21166 l 0.94932,1.24531 c -2.82963,1.91946 -6.52533,2.0641 -9.08932,0.32703 -2.41511,-1.63654 -3.82834,-4.7043 -3.78036,-8.20667 0.024,-1.76601 0.37394,-3.6255 1.01212,-5.3774 0.57961,-1.59102 1.44709,-2.81481 2.57916,-3.63784 1.28622,-0.93522 2.8395,-1.38607 4.36068,-1.33597 1.10349,0.036 2.18969,0.3362 3.14361,0.90629 2.28493,1.3663 3.71474,4.08093 3.55846,6.75604 z m -2.1082,-7.06156 c -2.38618,-1.78047 -5.80072,-1.94592 -8.69914,-0.42227 -1.4224,0.74824 -2.56893,1.87713 -3.31435,3.26425 -0.41275,0.76765 -0.74507,1.63901 -1.04458,2.7425 -0.27657,1.01494 -0.46531,2.01683 -0.56232,2.97744 -0.21343,2.1149 0.004,4.04107 0.64558,5.72488 0.61101,1.60549 1.58679,2.98132 2.82046,3.97968 1.34937,1.0915 3.05188,1.69792 4.93677,1.75966 0.0748,0.002 0.14993,0.004 0.22543,0.005 1.80728,0.0176 3.68829,-0.47343 5.2966,-1.38218 0.39264,-0.22225 0.77717,-0.47343 1.1437,-0.74754 0.0423,-0.0317 0.15417,-0.11571 0.17569,-0.27058 0.0131,-0.0942 -0.013,-0.19015 -0.0734,-0.26952 -0.18204,-0.23848 -0.36407,-0.48578 -0.54081,-0.72531 -0.37289,-0.50624 -0.75883,-1.02941 -1.17404,-1.51624 -0.30374,-0.35701 -0.66181,-0.51576 -1.06433,-0.47343 -0.0995,0.0106 -0.20496,0.0328 -0.30692,0.0642 -0.16757,0.0212 -0.31256,0.0942 -0.40534,0.20355 -0.0977,0.0769 -0.17427,0.16793 -0.22719,0.27164 -0.9405,1.01 -2.48708,1.32715 -3.86362,0.78775 -1.4792,-0.57961 -2.59292,-1.97379 -2.97956,-3.72992 -0.10619,-0.4833 -0.15805,-0.98601 -0.15346,-1.49471 0.003,-0.38524 0.006,-0.81386 0.12806,-1.16452 3.83152,-0.19333 7.72336,-0.56163 11.56793,-1.09432 0.0833,-0.0116 0.50306,-0.0854 0.5715,-0.40181 0.64276,-2.97357 -0.60431,-6.22406 -3.10268,-8.08814"
       style="fill:#d8673f;fill-opacity:1;fill-rule:nonzero;stroke:none;stroke-width:0.0352778"
       id="path669-0" />
    <path
       d="m 254.20125,191.87968 c -0.003,-0.0145 -0.006,-0.0275 -0.01,-0.0388 -0.0131,-0.0416 -0.0325,-0.0804 -0.0582,-0.11466 0.22119,-1.4605 0.84455,-3.25578 2.53506,-3.89784 1.80058,-0.68333 3.94265,-0.14817 5.09376,1.27353 0.53904,0.66604 0.84702,1.49401 0.8643,2.30822 z m 5.98417,-5.0539 c -2.37631,-0.70203 -4.90326,0.0868 -6.14539,1.91841 -0.60148,0.88688 -0.96696,2.00448 -1.1176,3.417 -0.009,0.0825 0.005,0.16193 0.0395,0.23178 0.007,0.0628 0.0226,0.12488 0.0452,0.18485 0.0494,0.13088 0.16933,0.28117 0.46037,0.29069 0.0268,0.001 0.0554,7.1e-4 0.0854,-10e-4 l 9.62024,-0.53622 c 0.21696,-0.012 0.55422,-0.17216 0.58844,-0.47801 0.24835,-2.22709 -1.25554,-4.34164 -3.57611,-5.02744"
       style="fill:#d8673f;fill-opacity:1;fill-rule:nonzero;stroke:none;stroke-width:0.0352778"
       id="path671-6" />
    <path
       d="m 293.11511,197.96283 c -0.89579,-2.96743 -3.10471,-5.55473 -5.22754,-8.13011 -1.19012,-1.44344 -3.2225,-3.59623 -3.03956,-5.49453 0.12593,-0.20184 0.26408,-0.40107 0.42899,-0.5936 0.15909,-0.18527 0.007,-0.22831 -0.19719,-0.22162 0.23442,-0.47 0.64915,-0.91353 1.30092,-1.31285 0.35395,-0.21668 0.72012,-0.29956 1.11653,-0.44935 0.002,-5.8e-4 0.002,-5.8e-4 0.003,-0.001 -0.0108,-0.004 -0.0212,-0.008 -0.0326,-0.0148 0.009,0.005 0.025,0.009 0.0358,0.0139 0.17683,-0.0643 0.13175,0.0311 0.0297,0.0113 0.0794,0.032 0.17771,0.0558 0.25041,0.0878 0.72914,0.32254 1.15027,0.92632 1.43181,1.47892 0.60407,1.18604 1.03742,2.90112 -0.13117,4.03655 -0.39234,0.38158 2.00882,0.68871 2.43752,0.27194 1.08163,-1.05109 0.90218,-2.3715 0.52874,-3.52904 -0.34348,-1.06477 -0.96558,-2.14523 -2.41222,-2.67019 -1.58129,-0.57383 -3.7745,-0.50694 -5.2857,0.2635 -1.06418,0.54299 -1.72002,1.31953 -1.94833,2.16965 -0.039,0.006 -0.0689,0.0157 -0.0887,0.0302 -0.34872,-0.005 -0.6096,0.0125 -0.62385,0.0634 -0.18759,0.66079 -0.26147,1.32827 -0.23384,1.98963 -0.0131,0.1207 -0.0198,0.24111 -0.0204,0.36152 -0.0262,0.24256 -0.0523,0.48541 -0.0785,0.72797 -0.003,0.0308 0.0623,0.0593 0.16607,0.0852 0.0195,0.0832 0.0518,0.16403 0.0771,0.24605 0.018,0.71575 0.22395,1.42191 0.61658,2.07688 0.22889,0.68347 0.56714,1.3492 0.98333,1.97479 1.71304,2.57509 4.54639,4.70258 5.95202,7.39255 0.78585,1.50451 1.09297,3.12711 0.41415,4.72469 -0.0582,0.13611 0.12565,0.14745 0.35105,0.11807 -0.5462,0.68929 -1.35968,1.24829 -2.54572,1.44547 -1.76074,0.2923 -3.0605,-1.24566 -3.21231,-2.25924 -0.0794,-0.52845 -2.6129,-0.48918 -2.55444,-0.0989 0.41241,2.75133 5.12982,3.7268 8.49104,2.64342 3.8923,-1.25438 3.72914,-5.07862 3.01687,-7.4382"
       style="fill:#ebc532;fill-opacity:1;fill-rule:nonzero;stroke:none;stroke-width:0.029084"
       id="path435" />
    <path
       d="m 287.50075,181.75961 c 0.0113,0.005 0.0221,0.009 0.0329,0.0108 -0.0102,-0.004 -0.0209,-0.007 -0.0297,-0.0116 -10e-4,2.9e-4 -0.002,5.8e-4 -0.003,9.1e-4"
       style="fill:#ebc532;fill-opacity:1;fill-rule:nonzero;stroke:none;stroke-width:0.029084"
       id="path437" />
    <path
       d="m 311.50888,204.67108 c -0.84737,0.0201 -1.69545,0.0529 -2.54141,0.10407 -2.89313,0.17463 -5.78697,0.33373 -8.68292,0.45508 -1.28976,0.054 -2.57951,0.11536 -3.86856,0.1831 -0.24942,0.013 -0.28258,-0.0399 -0.17216,-0.26565 2.13396,-4.36774 4.28202,-8.72913 6.38387,-13.11239 1.19874,-2.49908 2.32022,-5.03591 3.47662,-7.55509 0.0522,-0.11395 0.11183,-0.22437 0.20355,-0.40746 0.15346,0.33655 0.19227,0.62371 0.26141,0.9024 1.48802,5.97818 3.03813,11.94012 4.71312,17.8689 0.14076,0.49918 0.29527,0.99484 0.45861,1.48732 0.0787,0.23706 0.0476,0.33302 -0.23213,0.33972 z m 1.56598,0.34713 c 3.6e-4,0 3.6e-4,0 3.6e-4,0 -0.0991,-0.12982 -0.14253,-0.27516 -0.12489,-0.43815 0,-3.5e-4 -3.5e-4,-7e-4 -3.5e-4,-0.001 -0.12735,-0.27093 -0.19897,-0.55703 -0.22648,-0.85478 v 0 0 c 0,3.6e-4 3.5e-4,7.1e-4 7e-4,0.001 -0.10971,-0.21519 -0.15028,-0.44626 -0.15557,-0.68544 l 0.004,0.005 c 0,0 0,0 0,-3.6e-4 -0.17357,-0.52246 -0.31609,-1.05269 -0.38771,-1.6002 l 0.004,0.006 c 0,0 0,0 0,-3.5e-4 -0.14534,-0.26035 -0.17639,-0.55527 -0.25188,-0.83679 -0.0755,-0.0843 -0.0533,-0.18732 -0.055,-0.2854 0,-3.5e-4 0,-3.5e-4 0,-7e-4 -0.10795,-0.16792 -0.12524,-0.36442 -0.17321,-0.55139 -0.0765,-0.084 -0.0526,-0.18768 -0.0554,-0.2861 v 0 0 c -0.12489,-0.2727 -0.20038,-0.5588 -0.23072,-0.8569 0.001,3.5e-4 0.002,10e-4 0.003,0.002 -0.13864,-0.26247 -0.20109,-0.54645 -0.23319,-0.83855 l 0.004,0.005 v 0 c -0.11959,-0.15734 -0.12453,-0.35243 -0.17427,-0.53305 v 0 c -0.0769,-0.0843 -0.0533,-0.18803 -0.0557,-0.28681 0,0 0,0 0,-3.5e-4 -0.0988,-0.17145 -0.14676,-0.35737 -0.1524,-0.55457 0.001,0.001 0.002,0.002 0.002,0.003 -0.13511,-0.26035 -0.19403,-0.54222 -0.23848,-0.82868 0,-3.5e-4 3.6e-4,-3.5e-4 3.6e-4,-3.5e-4 l -3.6e-4,3.5e-4 c -0.10089,-0.1651 -0.121,-0.35524 -0.16651,-0.53727 -0.0751,-0.0843 -0.054,-0.18698 -0.055,-0.28575 l -3.5e-4,-3.6e-4 c -0.0984,-0.1718 -0.14676,-0.35771 -0.1517,-0.55527 h -3.5e-4 c 0,0 0,0 3.5e-4,0 v 0 c 3.6e-4,3.5e-4 7.1e-4,7e-4 10e-4,0.001 -0.11359,-0.15875 -0.12417,-0.35031 -0.17215,-0.52987 -0.11607,-0.36901 -0.26317,-0.72955 -0.28681,-1.12184 v -3.5e-4 c -0.0981,-0.1718 -0.14781,-0.35701 -0.15275,-0.55421 3.5e-4,3.5e-4 7e-4,0.001 0.001,0.001 -0.1143,-0.15805 -0.12312,-0.35031 -0.17392,-0.52952 -0.0653,-0.16898 -0.12841,-0.33832 -0.12912,-0.52317 0,-3.5e-4 0,-3.5e-4 0,-3.5e-4 -0.0988,-0.16828 -0.14746,-0.35102 -0.15451,-0.5454 3.5e-4,7.1e-4 7e-4,0.001 0.001,0.002 -0.10548,-0.16157 -0.14428,-0.3429 -0.15416,-0.53199 7.1e-4,7.1e-4 0.002,0.001 0.003,0.002 -0.11606,-0.15804 -0.12594,-0.35172 -0.17568,-0.53163 -0.18027,-0.60713 -0.39123,-1.20544 -0.5073,-1.83057 -0.054,-0.0663 -0.0903,-0.13864 -0.0713,-0.22789 -0.0134,-0.019 -0.0162,-0.0392 -0.009,-0.061 v 0 0 c -0.10689,-0.16263 -0.12982,-0.35348 -0.1785,-0.53552 -3.5e-4,0 -3.5e-4,0 -3.5e-4,0 -0.012,-0.0293 -0.024,-0.0586 -0.0356,-0.0878 -0.005,-0.0444 -0.01,-0.0885 -0.0152,-0.133 0,-3.5e-4 0,-3.5e-4 0,-3.5e-4 -0.10055,-0.16898 -0.14888,-0.35313 -0.15452,-0.54892 7e-4,0.001 10e-4,0.002 0.002,0.003 -0.10548,-0.16263 -0.1517,-0.3422 -0.15628,-0.53446 0.001,10e-4 0.003,0.003 0.004,0.004 -0.12595,-0.24024 -0.20885,-0.49318 -0.23072,-0.76482 l 0.003,0.005 v 0 0 c -0.10866,-0.16263 -0.15452,-0.34326 -0.15734,-0.53693 10e-4,0.002 0.002,0.003 0.004,0.005 -0.19932,-0.44274 -0.30868,-0.91405 -0.44521,-1.37689 -0.20672,-0.30516 -0.4519,-0.41699 -0.77187,-0.15417 v 0 c -0.0487,0.0519 -0.0974,0.10372 -0.1457,0.15558 v 0 c -0.0483,0.10125 -0.0967,0.20179 -0.14464,0.30268 v 0 0 c 0,0 0,0 0,3.5e-4 -0.35525,0.90312 -0.7627,1.78012 -1.29787,2.59292 -0.30762,0.49671 -0.48507,1.06327 -0.82127,1.54482 v 0 c -0.002,0.1404 -0.0889,0.24235 -0.15804,0.35242 -0.25329,0.50765 -0.50588,1.01529 -0.75918,1.52294 0,3.5e-4 0,3.5e-4 0,3.5e-4 -0.0512,0.1009 -0.1023,0.20179 -0.15346,0.30269 -0.23495,0.49883 -0.44838,1.00859 -0.75141,1.47285 v 0 c -0.0519,0.14252 -0.10407,0.28469 -0.15628,0.42686 v 0 0 c -0.0413,0.25294 -0.1517,0.47307 -0.31292,0.66957 -0.12382,0.25859 -0.24835,0.51682 -0.37218,0.7754 v 0 0 c -0.0159,0.20074 -0.0963,0.37219 -0.2346,0.51753 -0.14887,0.30903 -0.29774,0.61807 -0.44696,0.92675 0,3.5e-4 0,3.5e-4 0,3.5e-4 v 0 0 c -0.0628,0.30621 -0.19968,0.5775 -0.38806,0.82479 -0.14887,0.30833 -0.2981,0.61666 -0.44732,0.92463 v 0 c 0,3.6e-4 0,3.6e-4 0,3.6e-4 -0.0617,0.30727 -0.19862,0.57926 -0.38771,0.82691 -0.0988,0.20637 -0.19755,0.4124 -0.29668,0.61842 v 0 3.5e-4 c -0.0402,0.25435 -0.14393,0.47943 -0.31009,0.67522 -0.0734,0.15522 -0.14676,0.31044 -0.22014,0.46531 0,0 0,0 0,3.5e-4 -0.0166,0.20215 -0.0949,0.37677 -0.2353,0.52317 -0.073,0.15487 -0.1464,0.3101 -0.21907,0.46496 0,0 -3.6e-4,0 -3.6e-4,3.6e-4 -0.0166,0.20214 -0.0956,0.37676 -0.23601,0.52317 -0.0988,0.20602 -0.1972,0.41204 -0.29562,0.61806 v 0 0 c -0.0413,0.25436 -0.145,0.47978 -0.31186,0.67593 -0.0483,0.10442 -0.0967,0.20884 -0.14464,0.31326 v 0 c -0.0342,0.25859 -0.15134,0.48119 -0.29986,0.68968 v 0 c 0,3.6e-4 0,3.6e-4 0,3.6e-4 l 3.5e-4,-3.6e-4 c -3.5e-4,3.6e-4 -3.5e-4,3.6e-4 -3.5e-4,7.1e-4 -0.18097,0.5528 -0.40358,1.08797 -0.68439,1.59808 7.1e-4,-3.5e-4 0.001,-0.001 0.002,-0.001 v 0 0 c -0.008,0.14535 -0.0557,0.27411 -0.15946,0.37924 -0.0332,0.15134 -0.0907,0.28892 -0.21872,0.38629 -0.15099,0.34325 -0.30586,0.68439 -0.45226,1.02941 -0.0646,0.15134 -0.0907,0.31326 -0.0797,0.47907 -7.1e-4,-3.5e-4 -7.1e-4,-0.001 -0.002,-0.001 0.16086,0.17709 0.35524,0.2293 0.59901,0.23742 0.78917,0.0272 1.57727,0.0878 2.36573,0.13582 -0.005,0.005 -0.009,0.0109 -0.0134,0.0162 3.6e-4,0 7.1e-4,0 7.1e-4,0 l 0.0127,-0.0162 c 0.58032,3.5e-4 1.16099,10e-4 1.74131,0.002 0.14535,-7.1e-4 0.29034,-0.001 0.43498,-0.002 0.37218,-0.0938 0.75177,-0.0416 1.12712,-0.0497 0.86995,-0.0183 1.7399,-0.0205 2.6102,-0.0293 0.14182,-0.0762 0.29634,-0.0409 0.44521,-0.0469 0.96943,-0.0374 1.93922,-0.0713 2.90865,-0.10619 v 0 c 0.0187,-0.0113 0.0367,-0.0106 0.0547,0.002 0.0624,-0.0219 0.12524,-0.0374 0.18698,-0.0335 0.42333,-0.0621 0.85161,-0.0325 1.27776,-0.0434 0.0194,-0.0113 0.0388,-0.012 0.0589,-0.001 0.61137,-0.0956 1.22767,-0.0688 1.84326,-0.0787 v 0 c 0.018,-0.0102 0.0367,-0.0102 0.0554,-3.5e-4 h -3.6e-4 c 0.33197,-0.0977 0.67346,-0.0328 1.00965,-0.0582 0.23813,-0.018 0.47978,-0.007 0.71402,-0.0444 0.64594,-0.1016 0.81386,-0.3616 0.6911,-1.02764"
       style="fill:#7b79cd;fill-opacity:1;fill-rule:nonzero;stroke:none;stroke-width:0.0352778"
       id="path911" />
    <path
       d="m 311.31309,204.03396 c -0.30974,-1.31656 -0.7112,-2.61055 -0.93945,-3.94687 -0.2734,-1.60126 -0.49706,-3.2124 -0.90628,-4.78685 -0.5521,-2.12513 -1.12995,-4.24356 -1.67041,-6.37187 -0.36583,-1.44004 -0.71014,-2.88431 -1.30034,-4.25238 -0.0815,-0.18944 -0.1524,-0.47202 -0.34995,-0.48084 -0.14147,-0.006 -0.19439,0.29457 -0.27305,0.4639 -0.97261,2.08704 -1.8983,4.19559 -2.80812,6.31155 -0.85371,1.98473 -1.7533,3.94935 -2.62043,5.92808 -1.01952,2.32728 -2.03094,4.65808 -3.11679,6.95466 -0.27375,0.5782 -0.47307,1.19063 -0.78987,1.74943 -0.0646,0.11359 -0.14287,0.2794 0.11042,0.24024 0.53869,-0.0833 1.08021,-0.0116 1.47073,-0.0395 0.84138,-0.0166 1.53459,-0.0494 2.22603,-0.0586 2.82151,-0.0385 5.64409,0.005 8.46455,-0.10301 0.83362,-0.0317 1.66617,-0.0811 2.50049,-0.0624 0.22119,0.005 0.31009,-0.0819 0.26776,-0.29351 -0.0829,-0.4184 -0.16722,-0.83679 -0.26529,-1.25201"
       style="fill:#b3b2e9;fill-opacity:1;fill-rule:nonzero;stroke:none;stroke-width:0.0352778"
       id="path913" />
    <path
       d="m 261.58532,195.03213 c -0.002,0.004 -0.003,0.004 -0.004,0.004 9.6e-4,0 0.002,0 0.004,-0.004"
       style="fill:#c2dac9;fill-opacity:1;fill-rule:nonzero;stroke:none;stroke-width:0.0352778"
       id="path229" />
    <path
       d="m 261.58874,195.03213 c -10e-4,0 -0.002,0 -0.003,0 9.5e-4,0 0.002,0 0.003,0"
       style="fill:#c2dac9;fill-opacity:1;fill-rule:nonzero;stroke:none;stroke-width:0.0352778"
       id="path231" />
    <path
       d="m 277.8548,195.66713 c -0.004,-0.0211 -0.0109,-0.0387 -0.0205,-0.0563 0.03,-0.0776 0.0201,-0.17639 -0.024,-0.24694 0.0363,0.003 0.0603,0.0246 0.0751,0.0846 0.036,0.15173 0.043,0.31408 0.0621,0.46923 0.0314,0.2504 0.0632,0.50451 0.0949,0.75847 -0.0624,-0.33514 -0.12489,-0.67387 -0.18768,-1.00901 z m -2.88502,0.52574 c 0.0169,-0.0106 0.0325,-0.0282 0.049,-0.0423 0.48013,-0.0742 0.96026,-0.14831 1.44074,-0.22229 0.0272,0 0.0547,0 0.0818,0 0.10653,0.0317 0.21096,0.0706 0.31291,0.11987 0.14252,0.0706 0.27023,0.007 0.3302,-0.0952 0.0737,0.003 0.14746,0.0106 0.22154,0.014 0.0307,0.16581 0.0614,0.33172 0.0921,0.49389 -0.83891,-0.12347 -1.68205,-0.21167 -2.52836,-0.26801 z m 1.64571,0.6984 c -0.0603,0.007 -0.10971,0.0282 -0.14887,0.0601 -0.17957,0.0211 -0.35878,0.0459 -0.53869,0.0634 0.0307,-0.081 0.0215,-0.17639 -0.0275,-0.2504 0.31503,0.0317 0.63006,0.067 0.94438,0.10929 -0.0765,0.007 -0.1531,0.0106 -0.2293,0.0176 z m -2.90054,-0.17639 c 0.01,-0.0176 0.0198,-0.0351 0.0289,-0.0529 0.006,-0.0105 0.0123,-0.0175 0.018,-0.0247 0.38382,0.007 0.76764,0.0247 1.15076,0.0495 -0.39934,0.0105 -0.79834,0.0176 -1.19768,0.0281 z m -0.60642,0.0142 c -0.0981,0.004 -0.19615,0.004 -0.29387,0.007 -0.21696,0.004 -0.45226,0.0247 -0.68298,0.0176 0.005,-0.004 0.0109,-0.007 0.0159,-0.014 0.031,-0.0319 0.0603,-0.0671 0.0878,-0.10241 0.009,0 0.0173,0 0.0257,-0.003 0.0744,0.0952 0.21978,0.14453 0.33761,0.081 0.0519,-0.0281 0.10195,-0.06 0.15311,-0.0882 0.13829,0 0.27657,0 0.41522,0 -0.0205,0.0353 -0.0395,0.0671 -0.0586,0.10238 z m -1.73073,0.56085 c -0.0885,0 -0.1771,0.004 -0.26529,0.004 -0.0621,0 -0.12386,-0.004 -0.18546,-0.004 0.004,-0.003 0.008,-0.007 0.0113,-0.0106 0.073,-0.0987 0.0652,-0.23978 -0.0255,-0.32797 -0.0829,-0.0777 -0.16634,-0.15875 -0.24942,-0.23647 0.0604,-0.003 0.12058,-0.0105 0.18122,-0.0141 0.008,0.004 0.0165,0.007 0.0248,0.0106 0.21813,0.29986 0.55175,0.45861 0.9144,0.50793 0.2159,0.0283 0.43427,0.0319 0.65264,0.0283 -0.35277,0.0142 -0.7059,0.0283 -1.05868,0.0423 z m -1.99277,-0.9525 c -0.0262,0.004 -0.0528,0.007 -0.079,0.0106 -0.003,-0.0317 -0.004,-0.0599 -0.003,-0.0918 0.0268,0.0282 0.0551,0.0565 0.0824,0.0811 z m 0.42262,0.93846 c -0.55534,-0.0847 -1.07858,-0.3211 -1.2423,-0.91021 -0.0441,-0.15875 -0.0375,-0.32811 0.0246,-0.47625 0.0492,-0.11645 0.13875,-0.2257 0.22902,-0.29284 0.11755,-0.0916 0.25287,-0.15155 0.39589,-0.19745 0.0196,0.0493 0.0533,0.0882 0.1009,0.11286 -0.0269,0.007 -0.0538,0.014 -0.0802,0.0212 -0.14164,0.0423 -0.22874,0.0846 -0.30109,0.21869 -0.05,0.0882 -0.0889,0.19043 -0.10996,0.2927 -0.0437,0.21523 -0.0296,0.44454 0.0548,0.64558 0.0388,0.0953 0.12912,0.19403 0.24391,0.17999 0.24804,-0.0318 0.49636,-0.0599 0.74511,-0.0847 0.21262,0.17996 0.43448,0.34573 0.66392,0.50448 -0.24183,-0.003 -0.48341,-0.007 -0.72457,-0.014 z m 1.96455,-0.56099 c -0.0476,-0.0105 -0.0945,-0.0247 -0.14076,-0.0423 10e-4,-0.003 0.003,-0.0106 0.004,-0.0176 0.0324,0 0.0653,0 0.0977,-0.003 0.01,0.0211 0.0236,0.0423 0.0392,0.0634 z m -0.60713,-0.99826 c -0.0166,-0.0142 -0.0356,-0.0248 -0.055,-0.0353 0.32561,-0.0353 0.65229,-0.0599 0.97966,-0.0671 -0.018,0.0176 -0.0374,0.0319 -0.0561,0.0459 -0.0713,0.0283 -0.14323,0.0565 -0.21625,0.0776 -0.20779,0.0706 -0.47061,0.14112 -0.65229,-0.0211 z m 1.96533,0.0916 c -0.0434,0.0283 -0.0857,0.06 -0.12982,0.0882 0.005,-0.0211 0.009,-0.0423 0.0134,-0.0635 0.0113,-0.003 0.0222,-0.007 0.0335,-0.007 0.0275,-0.007 0.0554,-0.014 0.0829,-0.0176 z m 1.58079,-0.18341 c -0.0201,0.0212 -0.0367,0.0495 -0.0455,0.0812 l -0.072,0.0106 c -0.003,-0.0282 -0.0116,-0.0565 -0.0222,-0.0812 0.0466,-0.004 0.0931,-0.007 0.1397,-0.0106 z m 4.13421,0.44457 c 0.0268,-0.38463 -0.0998,-0.74443 -0.24659,-1.09721 -0.0519,-0.12347 -0.17075,-0.20807 -0.3101,-0.16577 -0.0691,0.0176 -0.13158,0.0776 -0.16227,0.14813 -0.0914,-0.0565 -0.19791,-0.0776 -0.30939,-0.0846 0.0399,-0.0423 0.0642,-0.0988 0.0632,-0.16577 -0.002,-0.12362 -0.11924,-0.26117 -0.254,-0.24353 -1.86867,0.21869 -3.74474,0.38104 -5.62363,0.47985 -0.27799,-0.0212 -0.55598,-0.0424 -0.83362,-0.0671 -0.45109,-0.0353 -0.90515,-0.0916 -1.35812,-0.067 -0.7469,0.0387 -1.65019,0.33154 -1.76043,1.19243 -0.059,0.45861 0.14771,0.903 0.4699,1.2241 0.0717,0.0705 0.14979,0.13049 0.2311,0.18701 -0.0103,0.0282 -0.0165,0.0599 -0.0161,0.0882 0.003,0.14111 0.11878,0.23993 0.25382,0.24695 0.13614,0.003 0.27217,0.0105 0.40831,0.014 -0.004,0.0176 -0.006,0.0353 -0.006,0.0529 0.002,0.1305 0.1192,0.25757 0.25382,0.24695 1.40945,-0.12347 2.81898,-0.24335 4.22832,-0.3634 0.13653,-0.0106 0.27341,-0.0176 0.41028,-0.0282 0.90735,-0.0353 1.81434,-0.074 2.72204,-0.10929 0.42933,0.0812 0.89288,-0.0283 1.23719,-0.30346 0.0314,0 0.0628,-0.003 0.0938,-0.007 0.0727,-0.007 0.14993,-0.0459 0.19826,-0.10224 0.0624,-0.0106 0.12488,-0.0212 0.18768,-0.0319 0.10971,-0.0211 0.17568,-0.14454 0.1785,-0.24335 0.008,-0.26818 -0.012,-0.53619 -0.0564,-0.80077"
       style="fill:#b3b2e9;fill-opacity:1;fill-rule:nonzero;stroke:none;stroke-width:0.0352778"
       id="path239" />
    <path
       d="m 279.63456,195.96699 c -0.0106,-0.081 -0.0222,-0.16217 -0.0342,-0.24335 0.0141,-0.004 0.0282,-0.004 0.0423,-0.007 -0.003,0.0846 -0.005,0.16577 -0.008,0.25037 z m -0.83432,1.905 c 0.13406,-0.0176 0.26776,-0.0387 0.40182,-0.0563 -3.6e-4,0.0176 3.5e-4,0.0353 -3.6e-4,0.0563 -0.1337,0 -0.2674,0 -0.40146,0 z m -7.75853,-0.10583 c -0.76581,-0.0247 -1.53102,-0.067 -2.29472,-0.1305 -0.0427,-0.004 -0.0834,0.007 -0.11991,0.0283 -0.0648,-0.39507 -0.0962,-0.79029 -0.10057,-1.18882 0.64244,-0.0812 1.29257,-0.0918 1.93819,-0.0459 0.13642,0.0106 0.25425,-0.10943 0.26804,-0.23993 2.17329,0.0529 4.34887,-0.014 6.51457,-0.20806 0.60996,-0.0529 1.21815,-0.12005 1.82563,-0.19403 0.0741,0.50091 0.11536,1.00182 0.12735,1.50632 -0.0339,-0.007 -0.0699,-0.007 -0.10583,0 -2.66242,0.39868 -5.36152,0.55743 -8.05275,0.47266 z m -2.97618,0.45519 c -0.008,-0.29644 -0.0156,-0.58925 -0.0231,-0.88555 0.0338,0.2963 0.0831,0.58911 0.14785,0.87838 -0.0413,0.004 -0.0831,0.004 -0.12471,0.007 z m 5.45328,-2.61416 c 1.57374,-0.0882 3.14783,-0.17279 4.72157,-0.25756 -1.97837,0.21167 -3.96734,0.3175 -5.957,0.3247 0.41169,-0.0212 0.82373,-0.0459 1.23543,-0.0671 z m 6.53944,-0.13409 c -0.007,-0.26098 -0.0691,-0.51855 -0.26247,-0.64202 -0.19755,-0.12689 -0.45473,-0.067 -0.66922,-0.0529 -0.23918,0.0106 -0.47872,0.0247 -0.71825,0.0389 -0.47908,0.0247 -0.95815,0.0529 -1.43722,0.0776 -1.92264,0.10583 -3.84563,0.21166 -5.76898,0.3175 -1.08094,0.0565 -2.16203,0.11645 -3.24336,0.17638 -0.0163,0 -0.0317,0.003 -0.0473,0.007 -0.0292,-0.0247 -0.0648,-0.0423 -0.10639,-0.0459 -0.10333,-0.003 -0.22088,0.10943 -0.21746,0.254 0.0239,0.91017 0.0473,1.82037 0.0707,2.73403 -0.0276,0.0388 -0.0459,0.0918 -0.0487,0.15169 -0.006,0.13067 0.0817,0.2788 0.19336,0.27178 1.55511,-0.0988 3.11051,-0.17999 4.66626,-0.23992 1.5554,-0.0565 3.1115,-0.0954 4.66725,-0.11646 0.87313,-0.007 1.74625,-0.0142 2.61938,-0.0106 0.10971,0 0.21237,-0.10584 0.21731,-0.25397 0.0197,-0.59972 0.0399,-1.19944 0.06,-1.79917 0.01,-0.28924 0.0328,-0.58208 0.025,-0.8679"
       style="fill:#7b79cd;fill-opacity:1;fill-rule:nonzero;stroke:none;stroke-width:0.0352778"
       id="path241" />
    <path
       d="m 319.64757,182.50638 c -0.18909,-2.17593 -0.43074,-4.34693 -0.72354,-6.51122 -0.018,-0.13194 -0.0984,-0.25082 -0.2032,-0.35242 -0.004,-0.0656 -0.007,-0.13088 -0.0117,-0.19615 0.0286,-0.16475 -0.001,-0.31362 -0.0885,-0.44697 -0.055,-0.15346 -0.15628,-0.2727 -0.30269,-0.35772 -0.29598,-0.20708 -0.75812,-0.28292 -1.10878,-0.24553 -0.42827,0.0455 -0.88371,0.1718 -1.22449,0.44697 -0.23954,0.19368 -0.59267,0.51929 -0.5715,0.85866 0.24306,3.96699 0.44238,7.9368 0.59619,11.90802 0.15382,3.97157 0.26247,7.94455 0.32632,11.91859 0.036,2.2405 0.0575,4.48064 0.0649,6.72148 0.001,0.34184 0.10124,0.60113 0.39158,0.80469 0.29598,0.20708 0.75812,0.28257 1.10843,0.24518 0.42862,-0.0455 0.88406,-0.17181 1.22484,-0.44662 0.26458,-0.21414 0.54116,-0.49918 0.5715,-0.85901 0.32491,-3.86751 0.48578,-7.74877 0.47978,-11.63003 -0.006,-3.95781 -0.18733,-7.91492 -0.52917,-11.85792"
       style="fill:#e2a56d;fill-opacity:1;fill-rule:nonzero;stroke:none;stroke-width:0.0352778"
       id="path539" />
    <path
       d="m 327.19002,191.12423 c 0.21298,-0.8296 0.51172,-1.62794 0.93309,-2.36583 0.0549,-0.0959 0.11547,-0.18947 0.17551,-0.28355 -0.36695,0.96153 -0.68342,1.94197 -0.95514,2.93398 -0.0349,-0.10249 -0.0876,-0.19788 -0.15346,-0.2846 z m -0.44017,2.87407 c 0.0188,-0.25385 0.0409,-0.5077 0.0685,-0.76103 0.0634,-0.18184 0.12801,-0.36316 0.2014,-0.54212 -0.0992,0.43254 -0.18939,0.86693 -0.26996,1.30315 z m -1.35393,-2.65963 c -0.0724,0.39075 -0.13111,0.7844 -0.18038,1.17989 -0.33494,0.96915 -0.55615,1.97508 -0.65519,2.99521 -0.0729,0.0152 -0.14651,0.0271 -0.2199,0.041 0.0392,-1.04141 0.18734,-2.07231 0.42928,-3.0454 0.22842,-0.91869 0.56283,-1.8182 0.99808,-2.66199 -0.15428,0.48982 -0.279,0.98964 -0.37189,1.49129 z m -1.00751,6.018 c 0.0396,0 0.0798,-0.003 0.12008,-0.008 0.027,0.69112 0.11137,1.37908 0.24308,2.05785 -0.18169,-0.66615 -0.2987,-1.35412 -0.36316,-2.04944 z m 5.02284,-6.81634 c 0.54107,-1.62768 1.22614,-3.20464 2.02947,-4.71933 0.0988,-0.18684 0.10249,-0.41178 0.0394,-0.62463 0.67194,-0.0407 1.28869,0.15819 1.54675,0.85352 0.47485,1.28002 -0.29406,2.86381 -0.90871,3.96119 -0.8685,1.55148 -2.11646,2.85777 -3.58549,3.83217 0.22993,-1.1163 0.5196,-2.22209 0.87856,-3.30292 z m 9.35193,10.20703 c 0.1716,-0.75287 -1.57144,-0.74 -1.78798,-0.0465 -0.17055,0.54554 -0.38681,0.98912 -0.71661,1.45556 -0.34425,0.48641 -0.63646,0.7915 -1.11078,1.16176 -0.11064,0.0865 -0.22469,0.16766 -0.34031,0.24781 -0.0155,0.0105 -0.02,0.0139 -0.0197,0.0145 -0.008,0.005 -0.0184,0.011 -0.0332,0.0197 -0.0654,0.0397 -0.13086,0.0794 -0.19761,0.11693 -0.12193,0.0691 -0.24597,0.13429 -0.37262,0.19473 -0.0688,0.0331 -0.13823,0.0649 -0.20866,0.0954 -0.0205,0.009 -0.0413,0.0173 -0.0597,0.0247 -0.10275,0.0376 -0.20603,0.0717 -0.31009,0.10432 -0.0815,-0.0365 -0.16712,-0.0649 -0.25621,-0.0775 -1.27502,-0.18053 -2.40841,-1.06742 -3.3405,-1.90124 -0.88111,-0.78808 -1.71666,-1.73542 -1.95839,-2.92819 -0.1386,-0.68376 -0.0829,-1.40642 -0.0171,-2.09517 0.0308,-0.32112 0.0698,-0.64119 0.11087,-0.96126 2.09304,-1.05744 3.89232,-2.69012 5.15867,-4.67912 0.91737,-1.44111 1.73016,-3.27822 1.50522,-5.02626 -0.12693,-0.98938 -0.57155,-1.87364 -1.39406,-2.46149 -0.7831,-0.55894 -1.76722,-0.65959 -2.6959,-0.52189 -1.74988,0.25963 -3.3631,1.42087 -4.55301,2.68013 -1.17669,1.24533 -2.05741,2.78629 -2.61964,4.40004 -1.18509,3.40305 -1.28106,7.40997 0.14577,10.76177 0.86432,2.03 2.27986,3.77409 4.33356,4.67176 1.23566,0.54002 2.62973,0.73553 3.93944,0.48247 1.48184,0.17028 3.00361,-0.17133 4.25315,-1.1523 1.26109,-0.99017 2.00451,-2.43758 2.6796,-3.85609 0.16897,-0.35475 0.0741,-0.59336 -0.13428,-0.72449"
       style="fill:#e7c2a9;fill-opacity:1;fill-rule:nonzero;stroke:none;stroke-width:0.0262783"
       id="path667-2" />
    <path
       d="m 371.1992,213.28972 c -0.002,3.6e-4 -0.005,7.1e-4 -0.008,0.001 -0.002,3.6e-4 -0.004,0.001 -0.007,0.002 0.002,-3.5e-4 0.005,-7e-4 0.008,-7e-4 0.002,-7.1e-4 0.005,-0.001 0.007,-0.002"
       style="fill:#c1d9c8;fill-opacity:1;fill-rule:nonzero;stroke:none;stroke-width:0.0352778"
       id="path487" />
    <path
       d="m 371.16216,213.29854 c -0.002,7.1e-4 -0.003,0.001 -0.005,0.002 -0.002,7.1e-4 -0.004,0.002 -0.006,0.003 10e-4,-3.5e-4 0.002,-7e-4 0.002,-7e-4 0.003,-0.001 0.006,-0.003 0.009,-0.004"
       style="fill:#c1d9c8;fill-opacity:1;fill-rule:nonzero;stroke:none;stroke-width:0.0352778"
       id="path489" />
    <path
       d="m 371.14911,213.30419 c -0.0205,0.009 -0.0413,0.019 -0.0593,0.0268 -3.5e-4,0 -7.1e-4,3.5e-4 -10e-4,3.5e-4 0.0261,-0.0109 0.0462,-0.0201 0.0624,-0.0275 -7e-4,0 -10e-4,3.6e-4 -0.002,3.6e-4"
       style="fill:#c1d9c8;fill-opacity:1;fill-rule:nonzero;stroke:none;stroke-width:0.0352778"
       id="path493" />
    <path
       d="m 371.00129,213.3878 c -0.006,0.005 -0.0113,0.009 -0.0166,0.0134 -0.009,0.008 -0.0162,0.0159 -0.0251,0.0236 0.0113,-0.009 0.0289,-0.0233 0.0536,-0.0448 -0.004,0.003 -0.008,0.006 -0.012,0.008"
       style="fill:#c1d9c8;fill-opacity:1;fill-rule:nonzero;stroke:none;stroke-width:0.0352778"
       id="path495" />
    <path
       d="m 371.15334,213.30278 c -7.1e-4,3.5e-4 -0.001,7e-4 -0.002,10e-4 0.0254,-0.006 0.0505,-0.0116 0.0706,-0.0152 -0.009,0.001 -0.0183,0.002 -0.0293,0.003 -0.0138,0.004 -0.0272,0.007 -0.0392,0.0109"
       style="fill:#c1d9c8;fill-opacity:1;fill-rule:nonzero;stroke:none;stroke-width:0.0352778"
       id="path497" />
    <path
       d="m 371.22178,213.28867 c 0.0677,-0.006 0.10442,-0.0106 0.11959,-0.0127 -0.0265,0.002 -0.0533,0.004 -0.0801,0.007 -0.0134,0.002 -0.0265,0.004 -0.0374,0.006 -7e-4,0 -10e-4,3.5e-4 -0.002,3.5e-4"
       style="fill:#c1d9c8;fill-opacity:1;fill-rule:nonzero;stroke:none;stroke-width:0.0352778"
       id="path499" />
    <path
       d="m 351.51219,190.77368 0.0186,0.0138 c -0.006,-0.005 -0.0124,-0.0102 -0.0186,-0.0152 0,3.5e-4 0,0.001 0,0.001"
       style="fill:#c67379;fill-opacity:1;fill-rule:nonzero;stroke:none;stroke-width:0.0352778"
       id="path527" />
    <path
       d="m 370.77798,206.01509 c -0.003,0.16052 -0.0113,0.28434 -0.22965,0.28046 -1.94628,-0.0339 -3.87492,0.29069 -5.82084,0.28681 -3.04835,-0.006 -6.09815,0.0924 -9.13839,-0.22437 -0.79414,-0.0829 -1.58722,-0.17744 -2.38192,-0.25188 -0.30801,-0.0289 -0.45544,-0.17286 -0.45339,-0.47907 2.8e-4,-0.0529 -0.009,-0.10584 -0.009,-0.15911 -0.0207,-4.2739 -0.19526,-8.54745 -0.0386,-12.6753 0.0631,-3.24873 0.13437,-6.35035 0.17914,-9.45268 0.0328,-2.26448 0.17473,-4.52226 0.32522,-6.78039 0.0218,-0.3235 0.124,-0.45297 0.47033,-0.46673 0.90357,-0.0363 1.80689,-0.10548 2.70785,-0.18979 0.33553,-0.0314 0.43614,0.055 0.42125,0.39899 -0.14263,3.31364 -0.15434,6.6294 -0.1119,9.94516 0.04,3.10233 -0.0138,6.20536 0.0765,9.30769 0.0544,1.87572 0.19459,3.74897 0.16704,5.62822 -0.0124,0.85972 0.42372,1.26647 1.28775,1.27846 2.78373,0.0378 5.5548,0.2974 8.33151,0.45756 1.30246,0.0748 2.60844,0.0448 3.90914,0.17321 0.29633,0.0296 0.38382,0.11712 0.37147,0.40746 -0.0353,0.83785 -0.0469,1.67675 -0.0632,2.5153 z m -12.80417,-30.34065 c 0.1192,0.14005 0.005,0.22437 -0.0204,0.38947 -0.0533,-0.17957 -0.0533,-0.272 0.0204,-0.38947 z m 13.91013,27.08804 v 0 l -0.013,-0.0219 0.0138,-0.0222 c -0.10831,-0.52422 -0.51612,-0.72989 -0.95709,-0.89958 10e-4,0.002 0.002,0.003 0.004,0.005 -3.05294,-0.60149 -6.16797,-0.60219 -9.24737,-0.95074 -0.62053,-0.0702 -1.24883,-0.0727 -1.87395,-0.0984 -0.18027,-0.007 -0.29457,-0.0286 -0.29598,-0.2607 -0.0303,-4.58082 -0.25188,-9.15705 -0.34819,-13.73646 0,-0.0261 0.009,-0.0526 0.0138,-0.079 v 0 c -0.0173,-0.0173 -0.0166,-0.0342 0.002,-0.0501 -0.0356,-0.0843 -0.0381,-0.17145 -0.0356,-0.25894 -0.0522,-0.45438 -0.0483,-0.91158 -0.0452,-1.36878 v 0 0 c 0,-0.0427 3.5e-4,-0.0854 7e-4,-0.1277 -0.0346,-0.0787 -0.037,-0.15946 -0.0349,-0.24095 -0.048,-0.40781 -0.0413,-0.81845 -0.043,-1.22873 v 0 c -7.1e-4,-0.0699 -10e-4,-0.14005 -0.002,-0.2099 -0.0905,-0.43215 -0.0739,-0.87171 -0.0792,-1.30916 0,-3.5e-4 0,-3.5e-4 0,-3.5e-4 -2.9e-4,-0.043 -2.9e-4,-0.0864 -6.7e-4,-0.12947 -0.0407,-0.55492 -0.0903,-1.10949 -0.12086,-1.66546 -0.0852,-1.53811 -0.0978,-3.08046 -0.23633,-4.61645 -0.002,-0.0201 0.0223,-0.043 0.0358,-0.0649 -0.002,-0.12877 -0.004,-0.25788 -0.007,-0.38665 -0.17459,-0.19508 -0.39275,-0.28187 -0.65624,-0.28398 -0.84197,-0.008 -1.68395,-0.0226 -2.52635,-0.0346 v 0 c -0.0168,0.0176 -0.0333,0.0173 -0.0492,-10e-4 -0.21466,0.0829 -0.44097,0.0744 -0.66488,0.084 6.7e-4,-7.1e-4 10e-4,-0.001 0.002,-0.002 l 0.005,-0.003 c -0.38488,0.17991 -0.79968,0.14287 -1.20438,0.15098 -0.35871,0.007 -0.70806,0.0353 -1.04363,0.16828 v 0 c -0.0241,0.024 -0.0485,0.048 -0.0726,0.072 -0.20256,0.32244 0.0485,0.63923 0.0113,0.96097 -0.0685,0.59407 -0.11532,1.19097 -0.19431,1.78329 -0.25975,1.95403 -0.3496,3.91901 -0.40541,5.88645 -0.005,0.14428 0.0223,0.29351 -0.0482,0.43074 -4.3e-4,3.5e-4 -4.3e-4,3.5e-4 -4.3e-4,7.1e-4 l 0.0152,0.0229 -0.0127,0.024 c -0.0214,0.62265 0.0124,1.24742 -0.082,1.86725 -3.9e-4,7e-4 -3.9e-4,0.002 -3.9e-4,0.003 0.019,0.0152 0.0197,0.0314 0.002,0.0483 -0.0158,0.53128 0.006,1.06398 -0.0597,1.59279 -0.006,0.0582 -0.0138,0.11642 -0.0244,0.17498 0.002,-0.001 0.003,-0.003 0.005,-0.005 -0.0286,0.93521 0.005,1.87184 -0.0779,2.80564 -0.0117,0.72461 0.002,1.44956 -0.0799,2.17135 0.0161,0.0187 0.0158,0.0367 -10e-4,0.054 v 0 c -0.01,1.91664 -0.0451,3.83363 -0.023,5.74992 0.0265,2.32904 0.10403,4.65737 0.15254,6.98641 0.007,0.32562 0.13271,0.62089 0.18439,0.93381 v 0 0 c 0.16122,0.29492 0.38862,0.5147 0.71064,0.62759 3.06754,0.68298 6.17954,0.78705 9.30501,0.71896 0.22507,-0.005 0.45049,-0.002 0.67592,-0.002 0.93063,-0.0861 1.86584,-0.0395 2.79788,-0.078 0.80116,-0.0533 1.60232,-0.10689 2.40348,-0.16087 0,0 0,0 3.5e-4,0 h -3.5e-4 l -0.007,0.006 c 0.23425,-0.0935 0.48154,-0.0797 0.72602,-0.0847 0,-3.5e-4 0,-3.5e-4 0,-3.5e-4 v 3.5e-4 0 l -0.007,0.005 c 0.23424,-0.0945 0.48154,-0.0783 0.72566,-0.085 0,0 0,0 0,-3.5e-4 v 3.5e-4 0 l -0.006,0.005 c 0.26141,-0.0991 0.53481,-0.0801 0.8061,-0.0836 v 0 0 0 l -0.006,0.005 c 0.36936,-0.0998 0.74824,-0.0713 1.1243,-0.0861 v 0 0 0 l -0.007,0.005 c 0.81668,-0.22648 0.9077,-0.34678 0.90593,-1.22026 -0.002,-1.16381 -0.0945,-2.32727 -0.0282,-3.49179"
       style="fill:#c67379;fill-opacity:1;fill-rule:nonzero;stroke:none;stroke-width:0.0352778"
       id="path529" />
    <path
       d="m 365.26618,207.96737 -0.013,-0.018 c 0.003,0.007 0.006,0.0145 0.009,0.0215 10e-4,-0.001 0.003,-0.002 0.004,-0.004"
       style="fill:#c67379;fill-opacity:1;fill-rule:nonzero;stroke:none;stroke-width:0.0352778"
       id="path531" />
    <path
       d="m 362.46901,208.04674 -0.0138,-0.0194 c 0.003,0.007 0.007,0.0138 0.0106,0.0208 0.001,-3.5e-4 0.002,-7e-4 0.003,-10e-4"
       style="fill:#c67379;fill-opacity:1;fill-rule:nonzero;stroke:none;stroke-width:0.0352778"
       id="path533" />
    <path
       d="m 357.56067,208.04956 c 0.0376,0.002 0.0755,0.004 0.11299,0.006 -6.7e-4,-0.002 -10e-4,-0.003 -0.002,-0.005 -0.0368,-3.5e-4 -0.074,-7e-4 -0.11095,-10e-4"
       style="fill:#c67379;fill-opacity:1;fill-rule:nonzero;stroke:none;stroke-width:0.0352778"
       id="path535" />
    <path
       d="m 385.58981,199.03019 c -1.19342,-0.0574 -2.38794,-0.10653 -3.5842,-0.0493 -1.12007,0.0539 -2.24037,0.10674 -3.36016,0.16765 -0.4579,0.0249 -0.46362,0.0292 -0.44358,-0.53592 0.023,-0.64768 0.05,-1.29493 0.0755,-1.94239 0.087,-2.01924 0.19527,-4.03432 0.67705,-5.99418 0.34809,-1.41631 0.98833,-2.57305 1.9831,-3.35302 0.93125,-0.7302 1.96401,-1.02446 3.04894,-0.72518 0.46693,0.12901 0.79438,0.50383 1.07052,1.00481 0.78238,1.41914 1.10633,2.99218 1.09431,4.72086 -0.008,1.20281 -0.057,2.39995 -0.13687,3.59948 -0.0593,0.8948 -0.0591,1.79505 -0.0679,2.69246 -0.003,0.33072 -0.096,0.42742 -0.35669,0.41476 z m 4.21943,0.82603 c 0.12531,-3.1332 0.20367,-6.08805 0.038,-9.03897 -0.0696,-1.24341 -0.23533,-2.45321 -0.68087,-3.57656 -0.47217,-1.19036 -1.15958,-2.17247 -1.89589,-3.09608 -0.86228,-1.08209 -1.89939,-1.80465 -3.09937,-2.15611 -1.10916,-0.32482 -2.22726,-0.22092 -3.34057,-0.0233 -0.87253,0.15477 -1.74438,0.37569 -2.53938,0.90614 -1.28606,0.85812 -2.16394,2.16506 -2.70524,3.8658 -0.95948,3.01401 -1.41039,6.15157 -1.61352,9.35091 -0.10982,1.72759 -0.072,3.45846 -0.0759,5.18692 -0.002,0.8948 0.008,1.79112 0.0487,2.68657 0.0444,0.97076 0.15492,1.94021 0.0912,2.91839 -0.0186,0.28357 0.0935,0.30212 0.26134,0.28161 1.15988,-0.14102 2.32239,-0.11701 3.48352,-0.15652 0.21217,-0.007 0.28226,-0.0701 0.30896,-0.34535 0.11314,-1.17115 0.17907,-2.34318 0.16046,-3.51958 -0.002,-0.1742 0.0425,-0.23772 0.17295,-0.25344 0.4487,-0.0539 0.89621,-0.14735 1.34515,-0.16743 1.77976,-0.0799 3.55997,-0.14386 5.34039,-0.19974 0.64637,-0.0205 0.65162,-0.002 0.59485,0.82494 -0.0792,1.15849 -0.16677,2.31611 -0.25234,3.47417 -0.0159,0.21677 -0.0127,0.39119 0.22375,0.39577 1.17399,0.0225 2.34384,0.12727 3.51347,0.2314 0.20475,0.0183 0.27811,-0.06 0.28138,-0.3233 0.0325,-2.4853 0.29426,-4.95902 0.33901,-7.26619"
       style="fill:#ebc532;fill-opacity:1;fill-rule:nonzero;stroke:none;stroke-width:0.0218296"
       id="path929" />
    <path
       d="m 378.46962,200.40763 c -0.67705,0.0157 -1.35394,0.031 -2.03075,0.0465 -0.019,-1.51257 -0.0377,-3.02536 -0.0507,-4.53815 -0.026,-3.01575 0.0567,-6.48207 2.16521,-8.87131 0.82441,-0.93387 1.9469,-1.65599 3.12219,-1.87625 0.0836,-0.0155 0.25126,-0.0358 0.38966,-0.0454 0.15063,-0.0107 0.2565,-0.012 0.40275,-0.005 0.30256,0.0151 0.59661,0.0668 0.88673,0.15389 0.62236,0.18687 1.19146,0.54574 1.66189,0.99041 2.39295,2.26111 2.22376,5.86648 2.23315,8.89009 0.005,1.68502 -0.002,3.36983 -0.0194,5.05464 -2.92014,0.0668 -5.8405,0.13359 -8.76068,0.20017 z m 9.8515,-4.58879 c -0.002,-1.78653 0.0677,-3.60668 -0.18664,-5.38012 -0.21786,-1.5189 -0.74024,-3.02514 -1.7682,-4.19149 -0.94631,-1.07358 -2.27791,-1.73392 -3.71888,-1.73217 -1.47,0.001 -2.88281,0.57324 -4.03452,1.46912 -1.18255,0.9199 -2.01651,2.162 -2.52176,3.56477 -0.57316,1.59138 -0.72497,3.29386 -0.76487,4.97343 -0.0426,1.79548 0.0152,3.59489 0.0371,5.39016 0.003,0.2589 0.006,0.5178 0.009,0.77669 -0.0449,0.0522 -0.0773,0.11264 -0.0878,0.18206 -0.016,0.1074 0.0256,0.18708 0.093,0.24515 0.0181,1.49489 0.0365,2.98956 0.0546,4.48423 0.005,0.47043 0.0115,0.94063 0.017,1.41084 0.003,0.22594 0.4718,0.18272 0.59715,0.15434 0.19698,-0.0445 0.4754,-0.16023 0.47258,-0.39665 -0.0226,-1.84918 -0.048,-3.69858 -0.0718,-5.54776 2.809,-0.0644 5.61823,-0.12836 8.42747,-0.19276 0.78216,-0.0177 1.56453,-0.0356 2.34668,-0.0537 -0.021,1.69179 -0.052,3.38358 -0.0956,5.07494 -0.0118,0.45406 -0.0243,0.90789 -0.0376,1.36173 -0.007,0.22506 0.47851,0.18118 0.59704,0.15433 0.20499,-0.0465 0.46563,-0.15913 0.47261,-0.39664 0.11046,-3.78241 0.16525,-7.56656 0.16307,-11.3505"
       style="fill:#ffffff;fill-opacity:1;fill-rule:nonzero;stroke:none;stroke-width:0.0218296"
       id="path931" />
    <path
       d="m 407.25942,205.37452 c -0.2928,-0.18168 -0.85478,-0.5648 -1.2326,-0.49212 -0.0339,0.007 -0.0677,0.0106 -0.10019,0.0127 -0.13723,-0.22225 -0.23777,-0.4752 -0.31186,-0.7232 -0.16298,-0.54222 -0.21625,-1.11301 -0.27516,-1.67393 -0.14782,-1.39629 -0.24166,-2.79823 -0.28399,-4.20158 -0.01,-0.32174 -0.008,-0.64347 -0.012,-0.96485 0.49495,-2.37561 0.60995,-4.81965 0.34078,-7.23865 -0.0455,-0.40887 -1.86478,-1.07138 -1.87819,-0.95179 -0.26564,2.39113 -0.38205,4.79566 -0.3503,7.19949 -0.53623,2.55058 -1.50425,5.01085 -2.88361,7.22594 -0.57926,0.92993 -1.33597,1.95863 -2.40559,2.34845 -0.21202,0.0773 -0.43603,0.13158 -0.66181,0.14287 -0.012,3.5e-4 -0.17392,-0.0123 -0.30974,-0.0251 -0.375,-0.49318 -0.80927,-0.91369 -1.14124,-1.44991 -1.17757,-1.90359 -1.66334,-4.13809 -1.87395,-6.34154 -0.27834,-2.91006 -0.15381,-5.86493 -0.15134,-8.78346 3.5e-4,-0.30339 -0.61348,-0.58455 -0.83644,-0.7052 -0.0635,-0.0346 -1.0474,-0.47449 -1.0474,-0.31609 -0.002,2.85503 -0.10548,5.73405 0.13194,8.58238 0.2099,2.51284 0.75671,5.06659 2.22391,7.16562 0.81351,1.16346 1.85561,2.08033 3.17747,2.63067 1.19416,0.49671 2.30505,0.39405 3.31117,-0.44309 1.01212,-0.84279 1.68522,-2.06905 2.28495,-3.22016 0.19155,-0.36724 0.369,-0.74119 0.53939,-1.1183 0.0751,0.64664 0.17075,1.31127 0.48507,1.89018 0.35525,0.65299 0.95991,1.11019 1.59773,1.46791 0.65758,0.36936 1.41993,0.72707 2.19111,0.57891 0.28046,-0.0536 -0.4826,-0.56798 -0.52811,-0.5962"
       style="fill:#cc6c6d;fill-opacity:1;fill-rule:nonzero;stroke:none;stroke-width:0.0352778"
       id="path941" />
    <path
       d="m 423.566,197.01716 c -0.0586,-1.46123 -0.0841,-2.92926 -0.19851,-4.38831 -0.0858,-1.09224 -0.2606,-2.22288 -0.80876,-3.20566 -0.54246,-0.97134 -1.49255,-1.68071 -2.66431,-1.82095 -1.1949,-0.14351 -2.40288,0.34502 -3.30042,1.05821 -2.23242,1.77438 -2.22098,4.83762 -2.30458,7.35651 -0.10321,3.13077 -0.20696,6.26155 -0.31071,9.39232 -0.01,0.30962 -0.0204,0.61924 -0.0305,0.92913 -0.9098,0.16829 -1.83892,0.20314 -2.76124,0.10838 0.0357,-2.82034 0.0207,-5.64149 -0.0476,-8.46156 -0.0702,-2.90502 -0.19606,-5.80896 -0.37715,-8.71018 -0.0945,-1.51487 -0.20614,-3.02892 -0.33059,-4.54216 l 0.41283,0.0752 c 0.0629,0.12063 0.20232,0.16338 0.3442,0.14786 0.30935,-0.034 0.61896,-0.0678 0.92831,-0.10157 0.32895,0.009 0.65764,0.0174 0.98658,0.0261 0.14733,1.01328 0.29492,2.02682 0.44224,3.04064 0.0357,0.24535 0.42862,0.27531 0.54817,0.0781 0.92341,-1.52604 2.50826,-2.70079 4.35508,-3.05126 1.79073,-0.33984 3.77779,0.19498 5.05275,1.4438 1.47621,1.44571 1.75506,3.60269 2.07694,5.49063 0.39158,2.29369 0.6963,4.59963 0.91279,6.91319 0.21621,2.31084 0.34556,4.62876 0.38777,6.94777 0.004,0.18844 0.005,0.37661 0.008,0.56505 -1.00293,-0.0575 -2.00613,-0.11492 -3.00933,-0.17237 -0.0863,-3.0401 -0.1898,-6.07964 -0.31152,-9.11892 z m 3.58146,2.39771 c -0.20723,-2.38328 -0.50542,-4.76002 -0.89427,-7.12369 -0.33659,-2.04669 -0.59964,-4.32132 -2.03663,-5.99032 -1.24283,-1.4438 -3.33582,-2.17605 -5.28041,-1.98924 -1.97698,0.19007 -3.75327,1.25264 -4.91278,2.74845 -0.12254,-0.84172 -0.24508,-1.68344 -0.36762,-2.52515 -0.0139,-0.0959 -0.10811,-0.1702 -0.20696,-0.19934 -0.0469,-0.0934 -0.14351,-0.15249 -0.26224,-0.16257 -0.66008,-0.0553 -1.3237,-0.0177 -1.97316,0.10266 -0.021,0.004 -0.0398,0.009 -0.0572,0.0161 -0.32242,-0.0585 -0.64484,-0.11709 -0.96672,-0.17564 -0.17264,-0.0313 -0.40247,0.0654 -0.38559,0.26523 0.24263,2.89741 0.4308,5.79835 0.56342,8.70174 0.13234,2.90339 0.20995,5.80896 0.23173,8.71453 0.0123,1.63088 0.007,3.26203 -0.0155,4.89264 -0.002,0.16638 0.13289,0.26686 0.29518,0.28838 1.14426,0.15195 2.31057,0.1032 3.43712,-0.13317 0.1299,-0.027 0.22194,-0.1465 0.22576,-0.26795 0.10129,-3.05589 0.20232,-6.1115 0.30335,-9.16684 0.0465,-1.40105 0.0408,-2.81598 0.20914,-4.20968 0.14786,-1.22268 0.47926,-2.51262 1.30002,-3.49866 0.66689,-0.80088 1.68425,-1.41358 2.76913,-1.53911 1.02907,-0.119 2.02437,0.30526 2.62782,1.09878 0.62659,0.82401 0.85669,1.87487 0.96834,2.86309 0.0651,0.57566 0.0874,1.15406 0.11301,1.73245 0.0337,0.76819 0.0667,1.53638 0.098,2.30485 0.12499,3.03573 0.23229,6.07256 0.3216,9.10911 0.0112,0.37497 0.0221,0.74995 0.0324,1.12492 0.005,0.1574 0.12663,0.27858 0.29546,0.28838 1.20199,0.0686 2.40425,0.13752 3.60651,0.20641 0.1593,0.009 0.30717,-0.12853 0.30581,-0.27667 -0.0221,-2.40261 -0.13671,-4.8044 -0.34475,-7.19966"
       style="fill:#272726;fill-opacity:1;fill-rule:nonzero;stroke:none;stroke-width:0.0272312"
       id="path469" />
    <path
       d="m 441.4323,183.32162 c 0.16369,-0.0938 0.34925,0.0776 0.50589,0.16122 0.5969,0.3168 0.70767,0.87665 0.77152,1.41499 0.0945,0.80398 0.21555,1.61079 0.13229,2.425 -0.0381,0.54398 0.0882,1.09573 -0.0649,1.63477 -0.048,0.16828 -0.0452,0.43145 -0.34643,0.38206 -0.23318,-0.0385 -0.19402,-0.25894 -0.20284,-0.42545 -0.0854,-1.56069 -0.27693,-3.10938 -0.63077,-4.63973 -0.0384,-0.16546 -0.0977,-0.32738 -0.127,-0.49389 -0.0272,-0.15558 -0.24553,-0.34008 -0.0378,-0.45897 z m 2.65148,17.66994 c 0.31821,0.0191 0.31962,0.22366 0.2607,0.40569 -0.17709,0.54469 -0.23071,1.12501 -0.59937,1.62666 0,-0.55809 0.002,-1.11619 -0.001,-1.67428 -7e-4,-0.21238 0.0413,-0.37606 0.34008,-0.35807 z m -4.02308,7.03791 c 0.007,-0.0166 0.0166,-0.0328 0.0318,-0.0487 0.54928,-0.33514 1.21391,-0.39969 1.8154,-0.61842 1.69933,-0.61912 2.8829,-1.63618 3.48086,-3.22121 0.4131,-1.09608 0.79516,-2.19569 1.01811,-3.33622 0.18415,-0.9398 -0.14746,-1.38959 -1.17792,-1.61255 -0.73837,-0.16016 -1.48767,-0.23742 -2.25002,-0.2039 -0.70591,0.0314 -1.08021,0.2801 -1.28588,0.89041 -0.13511,0.40075 -0.18344,0.8135 -0.18415,1.23402 -0.002,0.58561 -0.0314,1.17016 -0.0727,1.75612 -0.0614,0.87842 -1.18286,1.35714 -2.06163,1.13771 -2.07328,-0.51788 -3.43606,-1.65629 -4.13033,-3.48685 -0.56162,-1.47991 -0.84984,-3.00003 -1.02623,-4.55119 -0.13335,-1.17299 -0.15416,-2.34668 -0.0974,-3.51578 0.09,-1.85632 0.31856,-3.70029 1.13066,-5.4409 0.34501,-0.74012 0.80574,-1.41287 1.38466,-2.02141 0.32173,-0.33832 0.72778,-0.57256 1.17263,-0.75036 0.70732,-0.28222 1.05586,-0.13123 1.25165,0.5528 0.26318,0.92075 0.35208,1.87043 0.40464,2.81164 0.0462,0.83079 0.13406,1.65947 0.16193,2.49167 0.042,1.27459 0.87735,1.9618 2.27859,1.85984 0.5842,-0.0423 1.17087,-0.0998 1.7466,-0.21484 0.91546,-0.18344 1.47179,-0.68862 1.67252,-1.51236 0.34219,-1.40229 0.30727,-2.82222 0.20038,-4.24003 -0.0438,-0.58385 -0.11783,-1.1677 -0.20744,-1.74943 -0.16227,-1.05163 -0.6925,-1.91558 -1.65135,-2.51883 -2.70969,-1.70462 -6.43608,-1.68628 -8.87731,-0.0413 -1.36066,0.91687 -2.26801,2.17981 -2.98908,3.53942 -1.21038,2.28247 -1.79141,4.71311 -2.02601,7.22665 -0.16298,1.74308 -0.19226,3.47522 0.13335,5.20489 0.5962,3.16582 2.13184,5.93231 4.46194,8.33402 0.92216,0.95003 2.17417,1.46932 3.53449,1.76036 0.26423,0.0564 0.54257,0.0759 0.76658,0.23813 0.0169,0.0155 0.0279,0.0317 0.0356,0.048 0.45156,-0.24342 0.90347,-0.24413 1.35502,-0.001"
       style="fill:#afe0dc;fill-opacity:1;fill-rule:nonzero;stroke:none;stroke-width:0.0352778"
       id="path647" />
    <path
       d="m 452.61273,183.65939 c -0.0116,0.82338 -0.031,1.64676 -0.0476,2.46979 0.0444,0.73272 0.042,1.46262 -0.13053,2.18193 -0.0497,-0.005 -0.0991,-0.009 -0.14887,-0.0106 -0.008,-1.21955 -0.0152,-2.43945 -0.0226,-3.65936 -0.0353,-0.32702 -0.073,-0.65405 -0.10442,-0.98143 -0.0166,-0.17251 -0.005,-0.35278 0.2226,-0.3556 0.23284,-0.003 0.2339,0.19332 0.23143,0.35525 z m -1.85526,2.9718 c -0.0628,0.76764 0.22613,1.55786 -0.14816,2.30575 v 3.6e-4 c -0.27834,-0.78987 -0.26917,-1.56105 0.14816,-2.30611 z m 15.00823,6.84001 c -0.0959,-2.11702 -0.67874,-4.08835 -1.92264,-5.84835 -1.14547,-1.62067 -2.61055,-2.35727 -4.59599,-1.84009 -0.53693,0.1397 -1.07491,0.27375 -1.61113,0.41627 -1.20439,0.31962 -2.37879,0.72073 -3.49356,1.4852 -0.0109,-0.004 -0.0219,-0.009 -0.0321,-0.0141 0,-2.76684 0.003,-5.3654 -0.003,-7.96361 -7.1e-4,-0.35913 -0.0293,-0.72072 -0.0762,-1.07703 -0.0924,-0.70696 -0.52705,-1.09396 -1.22061,-1.14476 -0.6911,-0.0505 -1.38713,-0.0529 -2.08104,-0.0579 -0.63006,-0.005 -0.98531,0.32491 -1.04175,0.95109 -0.0621,0.69038 -0.10972,1.38253 -0.15981,2.07398 -0.28328,3.90031 -0.66076,7.79392 -0.79869,11.70446 -0.0797,2.274 -0.20532,4.54625 -0.31045,6.81919 0,0.005 0,0.009 -3.5e-4,0.0134 -0.007,0.82868 -0.0141,1.657 -0.0208,2.48568 0,0.007 0,0.0134 0,0.0201 -0.001,0.65546 -0.003,1.31056 -0.004,1.96567 0,0.005 0,0.01 0,0.0145 l -0.0691,-3.5e-4 -0.0695,0.002 c 0,1.27811 0,2.55588 0,3.83399 0.0512,0.003 0.10195,0.004 0.15311,0.005 0.22754,0.48189 0.6223,0.75882 1.13594,0.65123 0.71544,-0.14958 1.43475,-0.11607 2.15054,-0.17886 1.09325,-0.096 1.5441,-0.5147 1.59631,-1.63054 0.23672,-5.07224 0.46179,-10.14554 0.63183,-15.22024 0.0293,-0.87207 0.30304,-1.48061 0.99201,-1.96427 1.66793,-1.17052 3.59022,-1.56069 5.55237,-1.81081 0.73307,-0.0935 1.26683,0.33937 1.70921,0.86748 0.89076,1.06327 1.47461,2.2853 1.75754,3.63749 0.56515,2.70052 0.32032,5.41549 0.0741,8.12448 -0.19579,2.15264 -0.36971,4.30847 -0.74119,6.44207 -0.0847,0.48824 0.0723,0.92428 0.61948,1.00894 0.54116,0.0833 0.80116,-0.27481 0.90558,-0.76588 0.0349,-0.16263 0.0938,-0.32173 0.1143,-0.48612 0.51576,-4.15749 1.05163,-8.31603 0.86043,-12.51973"
       style="fill:#b3b2e9;fill-opacity:1;fill-rule:nonzero;stroke:none;stroke-width:0.0352778"
       id="path899" />
  </g>
</svg>
