<?xml version="1.0" encoding="UTF-8" standalone="no"?>
<!-- Created with Inkscape (http://www.inkscape.org/) -->

<svg
   width="253.10428mm"
   height="36.080387mm"
   viewBox="0 0 253.10428 36.080387"
   version="1.1"
   id="svg17777"
   inkscape:version="1.1.1 (1:1.1+202109281949+c3084ef5ed)"
   sodipodi:docname="rm-sweet-giveaway.svg"
   xmlns:inkscape="http://www.inkscape.org/namespaces/inkscape"
   xmlns:sodipodi="http://sodipodi.sourceforge.net/DTD/sodipodi-0.dtd"
   xmlns="http://www.w3.org/2000/svg"
   xmlns:svg="http://www.w3.org/2000/svg">
  <sodipodi:namedview
     id="namedview17779"
     pagecolor="#ffffff"
     bordercolor="#666666"
     borderopacity="1.0"
     inkscape:pageshadow="2"
     inkscape:pageopacity="0.0"
     inkscape:pagecheckerboard="0"
     inkscape:document-units="mm"
     showgrid="false"
     inkscape:zoom="0.71090067"
     inkscape:cx="478.96987"
     inkscape:cy="68.223314"
     inkscape:window-width="1920"
     inkscape:window-height="970"
     inkscape:window-x="0"
     inkscape:window-y="27"
     inkscape:window-maximized="1"
     inkscape:current-layer="layer1" />
  <defs
     id="defs17774" />
  <g
     inkscape:label="Layer 1"
     inkscape:groupmode="layer"
     id="layer1"
     transform="translate(21.411166,-130.64587)">
    <path
       d="m -18.247026,155.48824 v 0 c 0,0 0,0.001 3.52e-4,0.003 -3.52e-4,-0.001 -3.52e-4,-0.002 -3.52e-4,-0.003"
       style="fill:#c8c7ee;fill-opacity:1;fill-rule:nonzero;stroke:none;stroke-width:0.0352778"
       id="path889" />
    <path
       d="m -4.066417,150.87991 c -0.107245,-0.27693 -0.171803,-0.44345 -0.236361,-0.61031 -0.159809,-0.34043 -0.310797,-0.68368 -0.385939,-1.05516 0,-3.5e-4 0,-3.5e-4 0,-3.5e-4 -0.06809,-0.139 -0.13582,-0.27764 -0.225072,-0.46038 0.239536,0.0388 0.265289,0.2152 0.324555,0.35984 0.158045,0.33972 0.307622,0.68227 0.388761,1.05057 0,0 0,0 0,3.5e-4 0.101953,0.18062 0.183798,0.36619 0.134056,0.71544 z m -1.125361,7.12858 c 0.02293,-0.28046 0.132291,-0.45932 0.373944,-0.69286 -0.04127,0.35454 -0.147461,0.5274 -0.373944,0.69286 z m -2.020006,-6.46007 c -0.1016,-0.0314 -0.118886,-0.12136 -0.148872,-0.20144 -0.06597,-0.14146 -0.131939,-0.28328 -0.197556,-0.42474 -0.116416,-0.21555 -0.23248,-0.43074 -0.348897,-0.64594 v 0 0 c -0.128764,-0.13511 -0.201436,-0.29457 -0.259292,-0.53763 0.188384,0.16051 0.271286,0.30656 0.3429,0.46108 0.121709,0.20532 0.243064,0.41099 0.364773,0.6163 v 0 c 0.09278,0.13618 0.175683,0.27693 0.199672,0.4445 v 0 c 0.08326,0.0836 0.09701,0.17886 0.04727,0.28787 z m -0.04974,3.54259 c -0.262466,-0.50658 -0.519641,-0.9592 -0.836789,-1.37195 -0.180622,-0.2353 0.0374,-0.39687 0.09102,-0.60219 0.366889,0.59902 1.045986,1.05798 0.745772,1.97414 z m -3.956755,-12.37297 c -0.09878,0.0635 -0.221898,0.15275 -0.267759,-0.0505 -0.07126,-0.31397 -0.237066,-0.61101 -0.191205,-1.08091 0.24765,0.35772 0.41663,0.6163 0.601133,0.86325 0.153458,0.20567 -0.04868,0.20849 -0.142169,0.26811 z m -2.904067,0.35383 c -0.200731,-0.18309 -0.15487,-0.31961 -0.03598,-0.47272 0.109714,0.14641 0.08326,0.28963 0.03598,0.47272 z m -0.899231,2.32834 c -0.217311,-0.27764 -0.281164,-0.65793 -0.32385,-1.12748 0.337961,0.37677 0.609247,0.67839 0.904522,1.00683 -0.213783,-0.0183 -0.46108,0.27305 -0.580672,0.12065 z m 12.688006,6.49076 c -0.0028,-0.06 -0.0056,-0.11959 -0.0095,-0.17957 -0.0014,-0.0265 -0.0025,-0.0529 -0.0042,-0.0794 v 0 0 l 0.0071,-0.001 c -0.04657,-0.38911 -0.125589,-0.77047 -0.220839,-1.14759 -0.06385,-0.254 -0.134409,-0.50623 -0.208492,-0.75741 -0.06914,-0.23495 -0.140405,-0.46919 -0.210608,-0.70344 0,-3.5e-4 0,-3.5e-4 0,-7e-4 v 3.5e-4 -3.5e-4 c 0,3.5e-4 0,3.5e-4 0,3.5e-4 l 0.0063,0.008 c -0.04657,-0.0529 -0.08008,-0.11077 -0.10795,-0.17109 -0.01729,-0.0381 -0.0321,-0.0776 -0.0441,-0.11818 -0.01552,-0.0543 -0.02822,-0.10972 -0.03528,-0.16757 0,0 0,0 0,-3.6e-4 v 3.6e-4 0 c 0.0011,3.5e-4 0.0014,10e-4 0.0025,0.002 -0.0187,-0.0342 -0.03775,-0.0684 -0.05644,-0.1023 -0.05468,-0.0988 -0.109009,-0.19756 -0.163689,-0.29634 -0.0254,-0.0459 -0.0508,-0.0917 -0.07585,-0.13758 h -3.53e-4 c -0.04904,-0.0829 -0.09843,-0.16616 -0.147109,-0.24906 -0.06033,-0.0709 -0.12065,-0.14182 -0.180622,-0.21308 -0.159455,-0.18838 -0.319264,-0.37641 -0.478719,-0.5648 -0.09066,-0.10689 -0.180975,-0.21378 -0.271639,-0.32032 -3.53e-4,-3.5e-4 -3.53e-4,-3.5e-4 -7.06e-4,-7e-4 -0.0194,-0.0215 -0.03845,-0.0427 -0.05786,-0.0642 -0.05221,-0.0533 -0.105128,-0.10725 -0.157339,-0.16051 -0.135114,-0.13794 -0.270581,-0.27552 -0.405695,-0.41346 -0.05397,-0.055 -0.107597,-0.11007 -0.161925,-0.1651 0,-3.5e-4 -3.52e-4,-3.5e-4 -3.52e-4,-3.5e-4 h 3.52e-4 c 0,0 -3.52e-4,0 -3.52e-4,-3.6e-4 3.52e-4,3.6e-4 0.0011,3.6e-4 0.0014,7.1e-4 -0.08502,-0.0582 -0.166864,-0.11924 -0.245886,-0.18274 -0.177095,-0.14358 -0.337962,-0.30409 -0.481189,-0.48154 -0.06138,-0.0762 -0.12065,-0.15452 -0.175331,-0.23742 0,-3.5e-4 -3.53e-4,-3.5e-4 -7.05e-4,-7.1e-4 l -0.0046,0.005 v 0 c -0.01976,-0.0194 -0.03916,-0.0395 -0.05891,-0.0593 -0.336198,-0.33796 -0.672042,-0.67592 -1.007887,-1.01424 -0.02963,-0.0296 -0.05891,-0.0593 -0.08855,-0.0889 v 0 l 0.0056,-0.002 c -0.05115,-0.0251 -0.09984,-0.0529 -0.146756,-0.0829 -0.116769,-0.0752 -0.219781,-0.16687 -0.313619,-0.26953 -0.02858,-0.0314 -0.05715,-0.0628 -0.08467,-0.096 -0.03563,-0.012 -0.06985,-0.0265 -0.101953,-0.0434 -0.06279,-0.0332 -0.11818,-0.0766 -0.167217,-0.12736 -0.0321,-0.0332 -0.06244,-0.0691 -0.0889,-0.109 h -3.52e-4 l -0.0011,0.004 v 0 c -0.04339,-0.0286 -0.08572,-0.0586 -0.128411,-0.0879 -0.526697,-0.36265 -0.993422,-0.78916 -1.393472,-1.28763 -0.04022,-0.0501 -0.08043,-0.0998 -0.119239,-0.15135 v 0 c -0.269169,-0.32561 -0.508,-0.67134 -0.690386,-1.05375 -0.05362,-0.0579 -0.100542,-0.11924 -0.14217,-0.18379 -0.03351,-0.0515 -0.06385,-0.10443 -0.08749,-0.16087 -0.01834,-0.043 -0.03351,-0.0878 -0.04516,-0.13476 -0.04198,-0.036 -0.07655,-0.0769 -0.106892,-0.1203 -0.02787,-0.0388 -0.05221,-0.0797 -0.07408,-0.12241 -0.03528,-0.0681 -0.06703,-0.13829 -0.100895,-0.20708 v 0 c -0.06668,-0.0289 -0.07655,-0.0857 -0.07197,-0.14923 -0.0568,-0.0709 -0.107245,-0.14499 -0.154164,-0.22084 -0.06703,-0.10689 -0.123472,-0.21837 -0.163689,-0.33831 -0.02081,-0.0617 -0.03845,-0.12488 -0.0508,-0.1905 0,0 0,-3.5e-4 -3.53e-4,-3.5e-4 h 3.53e-4 v 0 c 0.0014,0.001 0.0025,0.003 0.0039,0.004 -0.03951,-0.043 -0.06809,-0.0896 -0.09102,-0.139 -0.02222,-0.0494 -0.03916,-0.10125 -0.05292,-0.15416 -0.02187,-0.0825 -0.03845,-0.16722 -0.06456,-0.24871 v 0 c -0.07408,-0.10195 -0.06032,-0.21837 -0.05362,-0.33338 -0.107245,-0.14111 -0.07514,-0.31926 -0.125942,-0.47589 v 0 c -0.06809,-0.12524 -0.06738,-0.25083 0,-0.37607 0.03034,-0.11465 0.06103,-0.2293 0.09454,-0.3429 0.0635,-0.21413 0.140406,-0.42298 0.253648,-0.61665 0.04057,-0.0699 0.08537,-0.13794 0.136877,-0.20356 0,0 0,0 -3.52e-4,0 0.01129,-0.0416 0.02858,-0.079 0.04621,-0.11606 0.05045,-0.10407 0.123119,-0.19085 0.207433,-0.26917 0.03387,-0.0314 0.06914,-0.0617 0.105128,-0.0914 v 0 0 c 0.05468,-0.0529 0.110066,-0.10513 0.164747,-0.15804 0.03563,-0.042 0.07232,-0.0825 0.110067,-0.12136 0.0695,-0.0716 0.144638,-0.13511 0.231422,-0.1838 0.03951,-0.0219 0.08079,-0.0413 0.125589,-0.0561 0.03281,-0.042 0.06985,-0.0751 0.109714,-0.10336 0.02928,-0.0208 0.06103,-0.037 0.09419,-0.049 0.0508,-0.018 0.104423,-0.0286 0.165453,-0.024 v 0 c 0.07444,-0.0529 0.143581,-0.11853 0.24765,-0.0903 v 0 c 0.06597,-0.0258 0.131586,-0.0445 0.197556,-0.0575 0.152752,-0.0303 0.306211,-0.0275 0.459669,0.004 0.05891,0.012 0.118181,0.0279 0.177447,0.048 7.06e-4,0 0.0014,0 0.0021,0 0.146756,0.002 0.300567,-0.0236 0.415925,0.10442 0.06879,0.0342 0.137583,0.0681 0.206022,0.10195 0.0702,0.0208 0.13335,0.049 0.1905,0.0836 0.100895,0.061 0.181681,0.14288 0.245886,0.2413 0.03986,0.0614 0.07408,0.12877 0.101953,0.2025 0.238831,0.36301 0.478014,0.72601 0.716845,1.08902 0.02928,0.0247 0.05221,0.0515 0.07338,0.079 0.09384,0.12453 0.115006,0.27693 0.122414,0.43427 -0.0053,7.1e-4 -0.01094,0.001 -0.01693,0.002 0.0035,0.002 0.0071,0.004 0.01023,0.006 0,-0.002 0,-0.004 3.52e-4,-0.006 0.0011,0.003 0.0018,0.006 0.0028,0.008 0.119944,0.25859 0.178505,0.53094 0.180269,0.81563 0,0 0,0 0,3.5e-4 0.01094,0.12524 -0.03351,0.26212 0.07726,0.36654 0.127706,0.12135 0.0949,0.2801 0.101953,0.42968 3.53e-4,7.1e-4 0,0.001 3.53e-4,0.002 0.02505,0.048 0.04304,0.097 0.05609,0.14676 0.04092,0.15592 0.03175,0.31856 0.03069,0.48048 0,7.1e-4 0,0.001 0,0.002 v 0 c 0.06103,0.13935 0.06244,0.2854 0.0635,0.43145 0.0011,0.10654 0.0014,0.21308 0.0247,0.31679 0,0 0,0 0,3.5e-4 0.07585,0.33761 0.257175,0.58491 0.628297,0.58562 0.34925,7e-4 0.529872,-0.23107 0.614186,-0.54822 0.02963,-0.1136 0.05256,-0.22895 0.07867,-0.34325 0,-3.6e-4 0,-3.6e-4 0,-7.1e-4 0.01376,-0.15099 0.02752,-0.30127 0.04127,-0.45226 0.0187,-0.20391 0.03775,-0.40781 0.05644,-0.61207 v 0 c 0.0014,-0.06 0.0028,-0.11959 0.0042,-0.17956 0,-0.0515 0,-0.10231 0,-0.15346 0,-0.12665 0,-0.25365 3.53e-4,-0.3803 0,-0.0318 0,-0.0635 0,-0.0949 -0.0018,-0.0829 -0.0035,-0.1651 -0.0049,-0.248 v 0 c -0.05821,-0.28116 -0.09737,-0.56621 -0.140758,-0.8509 -0.06174,-0.4064 -0.132645,-0.81139 -0.279047,-1.19839 -0.03669,-0.0977 -0.07867,-0.19438 -0.126295,-0.28963 v 0 l 0.0053,-0.003 c -0.07549,-0.10725 -0.150636,-0.21449 -0.226131,-0.32173 -0.05362,-0.0759 -0.106891,-0.15205 -0.160161,-0.2279 -0.06174,-0.0882 -0.123825,-0.17603 -0.185561,-0.26388 0,0 -3.53e-4,0 -3.53e-4,-3.5e-4 -0.106891,-0.1464 -0.214136,-0.29245 -0.32138,-0.43885 -0.01976,-0.0198 -0.03951,-0.0392 -0.05927,-0.0593 -0.145344,-0.14464 -0.291042,-0.28928 -0.436386,-0.43392 -0.01976,-0.0194 -0.03916,-0.0388 -0.05856,-0.0582 -0.115359,-0.0797 -0.230717,-0.15981 -0.346428,-0.23954 -0.106186,-0.0684 -0.216958,-0.12559 -0.329847,-0.17533 -0.163689,-0.0723 -0.333375,-0.12911 -0.505884,-0.17709 -0.168275,-0.0473 -0.340077,-0.0871 -0.511175,-0.12736 0,-3.5e-4 0,-3.5e-4 0,-3.5e-4 l -0.0025,0.008 v 0 c -0.01976,3.5e-4 -0.04022,3.5e-4 -0.06032,7.1e-4 -0.142522,0.003 -0.285397,0.004 -0.428272,0.003 -0.663223,-0.005 -1.327503,-0.0399 -1.989667,-0.003 -0.121708,0.007 -0.243417,0.0173 -0.364772,0.0296 -0.150636,0.0155 -0.301273,0.0342 -0.451909,0.061 v 0 l -0.0028,-0.007 c -0.136525,0.054 -0.27305,0.1083 -0.409575,0.16228 -0.248356,0.0984 -0.496711,0.1972 -0.745067,0.29562 -0.127705,0.0504 -0.255764,0.1016 -0.383822,0.1524 -0.08149,0.0656 -0.163336,0.13159 -0.244828,0.19721 -0.04339,0.0423 -0.08325,0.0893 -0.127,0.13193 -0.04057,0.0399 -0.08431,0.0762 -0.135114,0.1016 -0.03739,0.0183 -0.07796,0.031 -0.12453,0.0349 v 0 c -0.14605,0.14641 -0.2921,0.29281 -0.43815,0.43921 v 0 c -0.01129,0.0649 -0.03704,0.11818 -0.06844,0.16687 -0.01905,0.0286 -0.04057,0.055 -0.06526,0.0787 -0.04198,0.0409 -0.08961,0.0769 -0.144992,0.10654 v 0 c -0.149225,0.21272 -0.29845,0.42509 -0.447675,0.63746 -0.0095,0.0593 -0.02575,0.1143 -0.04586,0.16687 -0.02752,0.0734 -0.06385,0.14146 -0.117475,0.19932 -0.03069,0.0328 -0.06668,0.0628 -0.107597,0.09 0,0 0,0 -3.53e-4,0 -0.02611,0.0568 -0.05292,0.11359 -0.07902,0.17039 -0.0067,0.0642 -0.02011,0.12559 -0.03775,0.18486 -0.02716,0.0917 -0.06738,0.17744 -0.113242,0.2614 -0.03704,0.0663 -0.07691,0.1323 -0.12065,0.1958 v 3.5e-4 l 0.0046,-0.007 c -0.07655,0.25506 -0.153458,0.51011 -0.230364,0.76553 -0.02469,0.0822 -0.04939,0.16475 -0.07444,0.24694 -0.07902,0.26282 -0.158044,0.52564 -0.237419,0.78882 0.0021,-0.002 0.0032,-0.003 0.0056,-0.005 -0.0067,0.15628 0.01023,0.3175 -0.09207,0.45437 0.0021,-0.001 0.0028,-0.003 0.0053,-0.004 -0.01235,0.14852 0.0194,0.30798 -0.10795,0.42757 v 0 c -0.117828,0.10619 -0.06597,0.248 -0.07902,0.37641 0,0.004 0,0.007 0,0.0109 0.0049,0.1196 0.0014,0.23813 -0.03881,0.34996 -0.01235,0.0335 -0.02681,0.0667 -0.04692,0.0991 -3.53e-4,0.001 -3.53e-4,0.002 -3.53e-4,0.002 0,0.003 -3.53e-4,0.006 -3.53e-4,0.009 -0.01164,0.20884 3.53e-4,0.42086 -0.08714,0.61877 l -0.0025,-0.002 c 7.06e-4,0.001 0.0014,0.002 0.0025,0.003 -0.0032,0.0713 -0.0056,0.14288 -0.0092,0.21449 -0.03845,0.89148 -0.04657,1.78119 0.01623,2.67054 0.01411,0.19896 0.03316,0.39828 0.05433,0.59725 0.006,0.0536 0.01235,0.10654 0.0187,0.15981 0.0074,0.0642 0.01376,0.12876 0.02222,0.19262 0.05503,0.41698 0.144639,0.82091 0.255412,1.21743 0.0071,0.0265 0.01482,0.0529 0.02222,0.079 0.190852,0.65935 0.447322,1.2947 0.740833,1.91805 0.101953,0.2166 0.206728,0.43215 0.316089,0.64665 v 0 l -0.0053,0.002 c 0.03845,0.0374 0.07373,0.0765 0.106539,0.11677 0.05292,0.0653 0.09737,0.13511 0.125942,0.21447 0.01517,0.042 0.0261,0.0868 0.03175,0.13442 v 0 c 0.05786,0.0889 0.115358,0.17744 0.173214,0.266 0.112183,0.12947 0.222602,0.25999 0.333022,0.39052 0.540808,0.63993 1.076678,1.28341 1.732139,1.81786 0.237067,0.19298 0.487539,0.3743 0.697442,0.59902 0.04339,0.0462 0.08749,0.0921 0.127,0.14323 0.05785,0.0303 0.113241,0.0646 0.166158,0.10054 0.135114,0.0921 0.254706,0.2025 0.364419,0.32384 0.03457,0.0374 0.06879,0.0755 0.1016,0.11536 v 0 c 0,0 0.0042,-0.004 0.0039,-0.004 h 3.53e-4 c 0.08608,0.0649 0.167922,0.13476 0.25153,0.20284 0.0508,0.0406 0.09913,0.084 0.148873,0.12595 0.379588,0.32102 0.731308,0.67027 1.048455,1.05445 0.08643,0.10477 0.17392,0.20814 0.255411,0.31785 0,0 0,0 0,3.5e-4 l -0.0042,0.005 c 0.03351,0.0261 0.06491,0.0543 0.09631,0.0822 0.10795,0.0949 0.202848,0.20144 0.277636,0.3242 0.02681,0.0441 0.05221,0.0903 0.07338,0.139 0.03881,0.0282 0.07444,0.0586 0.108303,0.0907 0.04374,0.0416 0.08008,0.0878 0.107597,0.14111 0.02117,0.0427 0.03775,0.0882 0.04304,0.14217 0.05856,0.0882 0.11677,0.17639 0.175331,0.26494 0.04304,0.0222 0.07832,0.049 0.108655,0.0797 0.06385,0.0642 0.103364,0.14358 0.133703,0.2293 0.01552,0.0448 0.02928,0.0914 0.04198,0.13759 0,3.5e-4 0,3.5e-4 0,3.5e-4 0,0 -3.53e-4,-0.004 -7.06e-4,-0.004 v -3.5e-4 c 0.06597,0.10372 0.111831,0.20849 0.143581,0.31397 0.09454,0.31539 0.05715,0.63783 -0.0032,0.96168 -0.01693,0.0885 -0.03493,0.17709 -0.05256,0.26564 0,0.001 0,0.003 0,0.005 -0.0011,0.13124 -0.0088,0.26106 -0.03105,0.38735 -0.0042,0.024 -0.0095,0.0473 -0.01482,0.0706 -0.02787,0.12171 -0.0702,0.23989 -0.137231,0.35242 0.0018,-0.002 0.0032,-0.004 0.0049,-0.006 -0.0085,0.0617 -0.02258,0.12065 -0.03881,0.17815 -0.04163,0.14817 -0.10795,0.28363 -0.20073,0.4064 -0.03598,0.0473 -0.07479,0.0935 -0.118181,0.13688 -0.01129,0.0427 -0.02752,0.0815 -0.04657,0.11888 -0.03175,0.0621 -0.07408,0.11677 -0.124884,0.16475 -0.0314,0.0296 -0.06526,0.0579 -0.103011,0.0829 v 0 l 0.0035,7.1e-4 v 0 0 0 c -0.03281,0.0536 -0.06703,0.10619 -0.102658,0.15734 -0.160162,0.23318 -0.348898,0.43744 -0.619478,0.55986 v 0 c -0.315031,0.24588 -0.692503,0.3436 -1.069975,0.43039 -0.318911,0.0734 -0.627945,0.10618 -0.930628,0.11147 -0.09031,0.001 -0.18027,0 -0.269875,-0.004 -0.10407,-0.004 -0.207434,-0.012 -0.310092,-0.0229 -0.16263,-0.018 -0.324203,-0.0416 -0.483305,-0.0744 -0.558448,-0.11465 -1.096434,-0.31503 -1.626306,-0.54927 -0.484364,-0.21414 -0.961672,-0.45685 -1.44145,-0.68933 -3.53e-4,-3.5e-4 -3.53e-4,-3.5e-4 -7.06e-4,-3.5e-4 l 0.0053,-0.002 c -0.05362,-0.018 -0.104422,-0.0409 -0.154164,-0.0646 -0.143228,-0.0688 -0.269169,-0.16122 -0.378883,-0.27552 -0.03457,-0.0363 -0.06915,-0.0723 -0.100542,-0.11324 -0.04339,-0.018 -0.08361,-0.0399 -0.121003,-0.0642 -0.07373,-0.049 -0.135819,-0.10972 -0.184855,-0.1838 -0.02222,-0.0339 -0.04163,-0.0702 -0.05891,-0.10901 -0.02716,-0.0169 -0.05115,-0.036 -0.07514,-0.0554 -0.07373,-0.06 -0.129822,-0.13335 -0.166158,-0.22083 -0.01235,-0.0293 -0.02399,-0.0586 -0.0314,-0.0907 0,-3.5e-4 0,-3.5e-4 0,-3.5e-4 0.0011,3.5e-4 0.0018,7e-4 0.0028,10e-4 -0.05821,-0.0709 -0.107245,-0.14499 -0.150989,-0.22049 -0.116417,-0.20179 -0.189442,-0.4191 -0.238831,-0.64593 -0.02187,-0.1016 -0.03986,-0.20497 -0.05468,-0.30939 0,-3.5e-4 -3.53e-4,-3.5e-4 -3.53e-4,-3.5e-4 h 3.53e-4 v 0 0 l 0.006,0.008 c -0.04445,-0.0903 -0.07761,-0.18345 -0.10407,-0.27729 -0.0254,-0.0917 -0.04445,-0.1845 -0.0568,-0.27834 -0.01517,-0.11571 -0.02187,-0.23283 -0.02434,-0.35066 0,-3.5e-4 0,-3.5e-4 0,-3.5e-4 v 0 0 0 l 0.0063,0.008 c -0.101953,-0.13547 -0.08819,-0.29492 -0.09666,-0.44979 0,-3.5e-4 0,-3.5e-4 0,-3.5e-4 -0.0381,-0.0864 -0.07479,-0.17322 -0.11183,-0.26036 -0.05009,-0.11747 -0.1016,-0.23389 -0.160161,-0.34678 -0.01341,-0.0247 -0.02646,-0.0497 -0.04022,-0.0744 -0.05115,-0.0928 -0.109008,-0.18168 -0.182033,-0.248 -0.08784,-0.0804 -0.19685,-0.127 -0.342195,-0.10407 -0.09278,0.0152 -0.161219,0.0515 -0.215194,0.0995 -0.135467,0.121 -0.169686,0.32597 -0.193322,0.52035 -0.03775,0.31044 -0.03246,0.62089 -0.01764,0.93098 0.0028,0.061 0.006,0.12241 0.0092,0.18379 0.0046,0.0819 0.0095,0.16334 0.0134,0.24483 0.0032,0.0564 0.006,0.11289 0.0085,0.16934 7.06e-4,0.0109 0.0014,0.0219 0.0018,0.0332 v 0 0 l -0.0053,3.5e-4 c 0.104775,0.16863 0.08819,0.35913 0.09737,0.54504 v 0 3.5e-4 c -0.0018,-0.002 -0.0025,-0.004 -0.0046,-0.005 0.0568,0.14323 0.101247,0.28963 0.140406,0.43745 0.01799,0.067 0.03493,0.13405 0.05009,0.20143 0.03351,0.1457 0.0635,0.29281 0.09066,0.44027 0,0 0,3.5e-4 3.53e-4,3.5e-4 l -3.53e-4,-3.5e-4 c 0,3.5e-4 0,3.5e-4 0,3.5e-4 0,-3.5e-4 -3.53e-4,-7e-4 -3.53e-4,-0.001 l -0.0071,-0.008 c 0.0448,0.0547 0.07726,0.1143 0.103716,0.17604 0.01094,0.0261 0.02152,0.0526 0.02999,0.0794 0.02081,0.066 0.03563,0.13406 0.0441,0.20461 0.04127,0.0473 0.07303,0.0981 0.09984,0.15099 0.02258,0.0441 0.04092,0.09 0.05503,0.13794 0.01482,0.0512 0.02646,0.10336 0.03281,0.15804 v 0 h 3.53e-4 c 0,0 7.06e-4,-0.004 0.0011,-0.005 v -7.1e-4 0 c 0.05256,0.0914 0.108656,0.17922 0.164395,0.2667 0.532342,0.83115 1.228019,1.49614 2.109611,1.9738 0.0568,0.0307 0.119945,0.0571 0.166158,0.10336 0.0247,0.0247 0.04551,0.0533 0.05468,0.0945 0.08925,0.0607 0.178506,0.12101 0.268111,0.18133 0.08185,0.0243 0.160161,0.0547 0.236361,0.0885 0.165453,0.0737 0.318559,0.16757 0.461434,0.27869 0.06844,0.0529 0.135466,0.11007 0.200025,0.17004 0.06033,0.0318 0.12065,0.0632 0.180975,0.0949 0.295275,0.0885 0.591255,0.17604 0.88653,0.26494 0.797278,0.24059 1.603023,0.30974 2.411942,0.31185 0.0025,0 0.0046,-3.5e-4 0.0067,-3.5e-4 0.756355,0.002 1.514828,-0.0547 2.272242,-0.0857 0.17533,-0.007 0.34678,-0.0847 0.527402,-0.0409 0.230012,0.0296 0.371476,-0.20955 0.596548,-0.1965 0.09066,-0.048 0.179564,-0.10054 0.269875,-0.15098 0.0889,-0.0498 0.178505,-0.097 0.27305,-0.13547 0.06738,-0.0279 0.13723,-0.0515 0.210255,-0.0677 v -3.6e-4 c 0.167923,-0.121 0.33655,-0.24271 0.504473,-0.36442 0.127705,-0.0977 0.255058,-0.19544 0.382411,-0.29315 0,-3.6e-4 0,-3.6e-4 0,-3.6e-4 0.02681,-0.0205 0.05327,-0.0413 0.07937,-0.0621 0.153458,-0.12911 0.306211,-0.25823 0.459316,-0.38735 3.53e-4,-3.5e-4 3.53e-4,-3.5e-4 3.53e-4,-3.5e-4 0.02611,-0.0208 0.05221,-0.0409 0.07832,-0.0614 0.04339,-0.0519 0.0896,-0.0995 0.1397,-0.14288 0.02258,-0.0198 0.04692,-0.0377 0.07197,-0.0543 0.04798,-0.0324 0.09913,-0.0607 0.158044,-0.078 0.02716,-0.0392 0.0575,-0.0737 0.08996,-0.10583 0.04586,-0.0459 0.09701,-0.0854 0.153811,-0.11712 0.03528,-0.0198 0.07303,-0.0367 0.112889,-0.0508 0.02223,-0.0275 0.04727,-0.0529 0.07091,-0.079 0.115358,-0.12876 0.242358,-0.24412 0.378178,-0.3496 0.05962,-0.0459 0.120297,-0.0907 0.182386,-0.13441 0,0 0,0 3.52e-4,-3.5e-4 0.137937,-0.13935 0.275873,-0.27834 0.413809,-0.41769 0.101247,-0.12771 0.202141,-0.25612 0.303036,-0.38382 v -3.5e-4 c 0.141111,-0.26212 0.281517,-0.52388 0.422275,-0.78599 v 0 c 0.01446,-0.0416 0.02928,-0.0833 0.04374,-0.12453 0.03422,-0.0977 0.06844,-0.19615 0.102659,-0.29387 0.02505,-0.072 0.05115,-0.14358 0.07479,-0.21625 0.377472,-1.13595 0.655814,-2.28635 0.800805,-3.45546 0.02999,-0.24306 0.05433,-0.48683 0.07267,-0.73131 0.04233,-0.57008 0.05045,-1.1444 0.02222,-1.72401"
       style="fill:#c8c7ee;fill-opacity:1;fill-rule:nonzero;stroke:none;stroke-width:0.0352778"
       id="path891" />
    <path
       d="m -6.63217,138.5034 c 0,0 0,0 0,-3.5e-4 0,3.5e-4 0,3.5e-4 0,3.5e-4 v 0"
       style="fill:#c8c7ee;fill-opacity:1;fill-rule:nonzero;stroke:none;stroke-width:0.0352778"
       id="path893" />
    <path
       d="m -2.836986,154.76787 c -0.09243,0.89288 -0.233539,1.78611 -0.496359,2.64583 -0.25788,0.84138 -0.661458,1.65876 -1.250597,2.31811 -0.581731,0.65052 -1.326797,1.11301 -2.127956,1.44568 -1.658408,0.68862 -3.566936,0.85443 -5.343172,0.71261 -1.609373,-0.12876 -3.199342,-0.53693 -4.667956,-1.21038 -1.227667,-1.02129 -2.319867,-2.19463 -3.252259,-3.48968 0.01023,-0.0102 0.02222,-0.0191 0.03175,-0.0303 0.115711,-0.13934 0.238125,-0.27234 0.366184,-0.4004 0.160513,-0.1083 0.321027,-0.2166 0.481541,-0.32455 0.201084,-0.042 0.394759,-0.14147 0.485423,-0.32527 3.52e-4,-7e-4 7.05e-4,-0.002 0.0011,-0.002 0.125942,-0.085 0.252236,-0.16968 0.378178,-0.25505 0.557741,1.42839 1.516239,2.72662 2.855736,3.50343 0.178153,0.10301 0.361244,0.19403 0.548569,0.27376 0.03493,0.0215 0.06914,0.0441 0.10407,0.0653 0.04833,0.0286 0.113242,0.0427 0.185208,0.0469 1.272823,0.45015 2.704395,0.38382 3.950406,-0.16686 0.726017,-0.32068 1.383595,-0.80892 1.842558,-1.46191 0.479073,-0.68263 0.675923,-1.5046 0.647348,-2.3301 -0.06103,-1.76213 -1.148998,-3.37679 -2.364317,-4.57659 -1.2827,-1.26718 -2.791178,-2.31845 -3.890081,-3.76449 -1.113719,-1.46614 -1.577975,-3.30447 -1.593144,-5.12621 -0.0074,-0.92675 0.09066,-1.85385 0.26035,-2.76473 0.180975,-0.97049 0.434622,-1.94627 0.879475,-2.83281 0.690386,-1.37689 1.845028,-2.42217 3.24238,-2.98203 0.629709,-0.25223 1.289403,-0.39864 2.02177,-0.43427 0.659694,-0.0325 1.412875,0.0667 2.07892,0.27658 0.36195,0.11395 0.737305,0.26353 1.051277,0.47872 0.388762,0.26741 0.534459,0.65899 0.641703,1.10102 0.253647,1.0481 0.439209,2.1142 0.564445,3.18488 0.02011,0.17639 0.03634,0.35313 0.05327,0.52987 -0.0448,0.0226 -0.09031,0.0441 -0.13088,0.073 -0.169334,0.1203 -0.16757,0.2921 0.07867,0.29422 0.01834,3.5e-4 0.02752,-0.001 0.03281,-0.004 0.0021,0.005 0.0074,0.0116 0.01976,0.0229 0.01623,0.0148 0.02716,0.0265 0.03881,0.0392 0.01482,0.1838 0.02822,0.3683 0.03951,0.5521 -0.01834,0.0339 -0.03563,0.0624 -0.03528,0.0459 3.53e-4,-0.0102 -0.0039,-0.005 -0.0092,0.007 -0.333728,0.018 -0.661459,0.0335 -0.98037,0.0875 -0.219428,-1.02553 -0.43815,-2.05035 -0.657225,-3.07552 -0.155575,-0.72814 -0.332669,-1.64571 -1.152525,-1.88701 -0.03669,-0.0106 -0.07514,-0.0173 -0.114653,-0.0212 -0.03739,-0.0332 -0.08361,-0.061 -0.141464,-0.0794 -1.869722,-0.59232 -3.645605,0.98601 -4.097867,2.71251 -0.421216,1.60726 0.07726,3.28119 1.125009,4.5332 1.801989,2.15335 4.616097,3.10162 6.527447,5.13256 0.536575,0.57044 0.981428,1.2185 1.277762,1.94557 0.346427,0.84878 0.517525,1.76142 0.581377,2.67335 0.06597,0.9458 0.0095,1.90147 -0.08749,2.84339 z m 0.944386,-5.04931 c -0.456495,-1.62595 -1.456267,-2.8889 -2.752373,-3.93382 -1.137003,-0.91617 -2.408767,-1.64395 -3.592336,-2.49591 -1.074561,-0.77329 -2.141714,-1.70039 -2.651125,-2.95734 -0.349956,-0.86183 -0.430389,-1.79775 -0.211667,-2.70404 0.18662,-0.77506 0.691092,-1.56104 1.415345,-1.89512 0.120297,-0.0557 0.25153,-0.0942 0.357364,-0.10478 0.164394,-0.0162 0.303036,7.1e-4 0.479425,0.0568 0.103716,0.0328 0.21978,0.0402 0.334433,0.025 0.430036,0.39829 0.520347,1.20403 0.629003,1.71415 l 0.666397,3.11715 c 0.02928,0.13723 0.333022,0.1023 0.410986,0.0935 0.204259,-0.0233 0.403225,-0.0868 0.581731,-0.18909 0.0078,0 0.01305,-3.5e-4 0.02258,-3.5e-4 0.08079,-3.6e-4 0.16263,-0.008 0.243416,-0.0106 0.198614,-0.005 0.394406,-0.0127 0.591256,-0.0388 0.307269,-0.0409 0.630767,-0.12312 0.9144,-0.26882 0.02258,-0.004 0.04304,-0.008 0.05856,-0.0127 0.221192,-0.0593 0.517525,-0.20426 0.502003,-0.46955 -0.0011,-0.0205 -0.0032,-0.0413 -0.0046,-0.0621 0.0762,-0.20602 0.06279,-0.43109 -0.04375,-0.60007 -0.06985,-0.85725 -0.177094,-1.71062 -0.327378,-2.558 -0.09631,-0.54292 -0.206022,-1.08514 -0.338313,-1.62066 -0.105481,-0.42651 -0.265642,-0.84243 -0.609248,-1.13383 -0.614186,-0.52035 -1.48343,-0.79093 -2.263069,-0.93839 -0.786342,-0.14852 -1.594909,-0.17109 -2.389012,-0.0748 -1.604433,0.19438 -3.159125,0.85055 -4.387144,1.90536 -1.401939,1.20367 -2.133248,2.90618 -2.513895,4.68136 -0.38735,1.80516 -0.509764,3.72358 -0.10548,5.53685 0.198613,0.89289 0.539397,1.74696 1.021291,2.52519 0.473781,0.76482 1.087967,1.43016 1.7399,2.04576 1.299987,1.22802 2.801409,2.29058 3.803651,3.798 0.902405,1.35714 1.498952,3.2505 0.578908,4.75263 -0.363008,0.59196 -0.909461,0.99342 -1.514475,1.23013 -0.260703,0.10195 -0.568678,0.16828 -0.90417,0.19897 -0.289983,0.0265 -0.648052,0.0127 -0.970491,-0.0497 -0.257528,-0.0494 -0.505884,-0.127 -0.746125,-0.22402 -1.369484,-0.9592 -2.41547,-2.35161 -2.976034,-3.92465 -0.0642,-0.17886 -0.303036,-0.22437 -0.549628,-0.18838 0.04198,-0.0328 0.08396,-0.0649 0.126295,-0.0974 0.06315,-0.0487 0.14358,-0.15064 0.119591,-0.23954 -0.02046,-0.0773 -0.1016,-0.11218 -0.170038,-0.13229 -0.242006,-0.0702 -0.565503,-0.001 -0.774701,0.13194 -0.509058,0.3242 -0.983544,0.69109 -1.429455,1.0915 -0.156281,0.0342 -0.305859,0.0868 -0.448734,0.15345 0.02469,0.0416 0.04833,0.084 0.07267,0.12559 -0.193675,0.14817 -0.379236,0.30692 -0.554214,0.47661 -0.105834,0.0709 -0.211314,0.14216 -0.316795,0.21343 -0.100894,0.0148 -0.201083,0.042 -0.28963,0.0794 -0.171803,0.0723 -0.459317,0.24765 -0.314325,0.46143 1.002594,1.47955 2.210858,2.80988 3.58775,3.95006 0.04198,0.0349 0.09031,0.0578 0.142169,0.0741 0.0078,0.0367 0.01164,0.073 0.01588,0.10936 0.669573,0.31327 1.362428,0.5782 2.071159,0.7867 1.942042,0.57255 4.005792,0.76094 6.018036,0.52563 1.954742,-0.2286 3.969103,-0.81526 5.463117,-2.15194 1.437923,-1.28658 2.050698,-3.16583 2.32022,-5.02497 0.272344,-1.88242 0.379589,-3.90877 -0.139347,-5.75839"
       style="fill:#7b79cd;fill-opacity:1;fill-rule:nonzero;stroke:none;stroke-width:0.0352778"
       id="path895" />
    <path
       d="m 18.824372,142.51839 c -0.23989,-0.16051 -0.63148,-0.2099 -0.91017,-0.19932 -0.36689,0.0138 -0.762,0.0751 -1.09361,0.2473 -0.19756,0.10442 -0.55386,0.28681 -0.58914,0.53869 -0.32808,2.37278 -0.65969,4.74592 -0.98778,7.11906 -0.31044,2.23414 -0.62089,4.46828 -0.93133,6.70242 -1.05128,-1.83585 -2.17664,-3.62867 -3.38314,-5.36857 -0.58561,-0.84526 -1.18533,-1.67816 -1.80622,-2.49908 -0.29634,-0.39052 -1.04423,-0.39264 -1.46756,-0.31609 -0.49036,0.0889 -1.05833,0.27376 -1.29822,0.75177 l -3.40078,6.82943 c -0.0494,-0.72496 -0.0953,-1.45027 -0.14464,-2.17558 l -0.46566,-6.9596 c -0.0882,-1.3208 -0.17639,-2.64196 -0.26812,-3.96276 -0.0141,-0.23248 -0.32102,-0.38699 -0.50094,-0.44802 -0.31044,-0.1069 -0.72672,-0.11148 -1.04775,-0.0533 -0.33514,0.0607 -0.70556,0.15522 -0.97719,0.37288 -0.18698,0.14887 -0.35631,0.32032 -0.33867,0.58032 l 0.46567,6.99453 c 0.15522,2.31986 0.31397,4.63973 0.46919,6.95995 0.0882,1.32045 0.17639,2.64125 0.26458,3.9624 0.0141,0.22684 0.32103,0.39405 0.50095,0.44803 0.27869,0.084 0.56797,0.096 0.85372,0.0702 0.55033,-0.0483 1.22767,-0.23601 1.49225,-0.76835 1.53811,-3.09316 3.07975,-6.18596 4.61786,-9.27876 0.0176,-0.0349 0.0353,-0.0695 0.0529,-0.10443 1.59808,2.2733 3.06916,4.63445 4.39914,7.07179 0.49389,0.90205 0.97014,1.81398 1.42522,2.73579 0.0564,0.0501 0.11289,0.10054 0.17286,0.15099 0.12347,0.0765 0.25753,0.12523 0.39864,0.1457 0.28928,0.0639 0.60325,0.0723 0.89606,0.0194 0.23988,-0.0441 0.4833,-0.11113 0.70555,-0.21343 0.16933,-0.0755 0.56092,-0.31362 0.59267,-0.5387 0.32808,-2.37278 0.65969,-4.74592 0.98778,-7.11905 l 0.98777,-7.11906 c 0.18698,-1.3462 0.37395,-2.69275 0.56092,-4.03895 0.0353,-0.24483 -0.0141,-0.3937 -0.23283,-0.53763"
       style="fill:#ebc532;fill-opacity:1;fill-rule:nonzero;stroke:none;stroke-width:0.0352778"
       id="path543" />
    <path
       d="m 34.992706,150.24323 c -0.0127,0.21696 -0.0385,0.43745 -0.0773,0.66816 -3.58951,0.48296 -7.25099,0.82056 -10.88672,1.0033 -0.0159,7.1e-4 -0.0931,0.006 -0.18944,0.0282 -0.0882,-0.0649 -0.1905,-0.0981 -0.2727,-0.10759 -0.25505,-0.0293 -0.51011,0.0949 -0.6477,0.31644 -0.3249,0.52528 -0.34395,1.18321 -0.35806,1.66299 -0.0155,0.52917 0.0208,1.05657 0.10865,1.56845 0.18697,1.09114 0.61913,2.0955 1.25025,2.90407 1.26753,1.62313 3.30341,2.42252 5.18724,2.03658 1.03434,-0.21201 1.9431,-0.73342 2.58974,-1.4806 0.0102,0.0116 0.0201,0.0226 0.0296,0.0332 0.12982,0.14887 0.2487,0.30903 0.37465,0.47836 0.0522,0.0709 0.10442,0.14182 0.15804,0.21167 l 0.94932,1.24531 c -2.82963,1.91946 -6.52533,2.0641 -9.08932,0.32702 -2.41511,-1.63653 -3.82834,-4.70429 -3.78036,-8.20667 0.024,-1.766 0.37394,-3.6255 1.01212,-5.37739 0.57961,-1.59103 1.44709,-2.81482 2.57916,-3.63785 1.28622,-0.93521 2.8395,-1.38606 4.36068,-1.33597 1.10349,0.036 2.18969,0.3362 3.14361,0.90629 2.28493,1.36631 3.71474,4.08093 3.55846,6.75605 z m -2.1082,-7.06155 c -2.38618,-1.78047 -5.80072,-1.94592 -8.69914,-0.42228 -1.4224,0.74824 -2.56893,1.87713 -3.31435,3.26426 -0.41275,0.76764 -0.74507,1.639 -1.04458,2.74249 -0.27657,1.01494 -0.46531,2.01683 -0.56232,2.97744 -0.21343,2.11491 0.004,4.04107 0.64558,5.72488 0.61101,1.60549 1.58679,2.98133 2.82046,3.97969 1.34937,1.09149 3.05188,1.69792 4.93677,1.75966 0.0748,0.002 0.14993,0.004 0.22543,0.005 1.80728,0.0176 3.68829,-0.47343 5.2966,-1.38219 0.39264,-0.22225 0.77717,-0.47343 1.1437,-0.74753 0.0423,-0.0317 0.15417,-0.11571 0.17569,-0.27058 0.0131,-0.0942 -0.013,-0.19015 -0.0734,-0.26953 -0.18204,-0.23847 -0.36407,-0.48577 -0.54081,-0.72531 -0.37289,-0.50623 -0.75883,-1.0294 -1.17404,-1.51624 -0.30374,-0.35701 -0.66181,-0.51576 -1.06433,-0.47342 -0.0995,0.0106 -0.20496,0.0328 -0.30692,0.0642 -0.16757,0.0212 -0.31256,0.0942 -0.40534,0.20355 -0.0977,0.0769 -0.17427,0.16792 -0.22719,0.27164 -0.9405,1.01 -2.48708,1.32715 -3.86362,0.78775 -1.4792,-0.57961 -2.59292,-1.97379 -2.97956,-3.72992 -0.10619,-0.48331 -0.15805,-0.98601 -0.15346,-1.49472 0.003,-0.38523 0.006,-0.81386 0.12806,-1.16452 3.83152,-0.19332 7.72336,-0.56162 11.56793,-1.09432 0.0833,-0.0116 0.50306,-0.0854 0.5715,-0.40181 0.64276,-2.97356 -0.60431,-6.22406 -3.10268,-8.08814"
       style="fill:#d8673f;fill-opacity:1;fill-rule:nonzero;stroke:none;stroke-width:0.0352778"
       id="path669" />
    <path
       d="m 24.173366,149.10023 c -0.003,-0.0145 -0.006,-0.0275 -0.01,-0.0388 -0.0131,-0.0416 -0.0325,-0.0804 -0.0582,-0.11465 0.22119,-1.4605 0.84455,-3.25579 2.53506,-3.89784 1.80058,-0.68333 3.94265,-0.14817 5.09376,1.27352 0.53904,0.66605 0.84702,1.49402 0.8643,2.30823 z m 5.98417,-5.05389 c -2.37631,-0.70203 -4.90326,0.0868 -6.14539,1.9184 -0.60148,0.88689 -0.96696,2.00449 -1.1176,3.41701 -0.009,0.0825 0.005,0.16192 0.0395,0.23177 0.007,0.0628 0.0226,0.12489 0.0452,0.18486 0.0494,0.13088 0.16933,0.28116 0.46037,0.29069 0.0268,0.001 0.0554,7e-4 0.0854,-0.001 l 9.62024,-0.53623 c 0.21696,-0.012 0.55422,-0.17215 0.58844,-0.47801 0.24835,-2.22709 -1.25554,-4.34163 -3.57611,-5.02743"
       style="fill:#d8673f;fill-opacity:1;fill-rule:nonzero;stroke:none;stroke-width:0.0352778"
       id="path671" />
    <path
       d="m 39.270282,161.51679 c -0.278631,-0.0522 -0.154025,-0.26355 -0.187398,-0.40052 0,-4.9e-4 -2.46e-4,-10e-4 -4.98e-4,-0.002 -0.200259,-0.80029 0.0014,-1.60577 -0.02845,-2.40829 0,0 0,-2.5e-4 -2.45e-4,-2.5e-4 -0.216574,-0.44898 -0.02698,-0.91773 -0.06553,-1.37536 -0.104085,-0.72414 -0.102607,-1.44779 0.0314,-2.17243 -0.07368,0.73057 0.117184,1.44829 0.08059,2.17614 v 2.5e-4 c -0.08158,0.42697 0.09172,0.8396 0.07022,1.26336 v 0 c 0.02446,0.38321 0.0492,0.76642 0.07417,1.14938 -0.03217,0.5815 0.19309,1.16076 0.02572,1.76995 z m 7.603405,-0.26701 c -1.384999,-0.0527 -2.763073,0.10928 -4.144119,0.16762 -0.428206,0.0181 -0.562455,-0.0376 -0.561467,-0.491 0.0021,-1.25298 -0.05291,-2.5062 -0.07713,-3.75943 -0.01927,-0.98843 -0.02053,-1.97712 -0.04226,-2.96531 -0.007,-0.30484 0.07714,-0.44699 0.417575,-0.44032 0.795842,0.0156 1.592924,0.0143 2.388023,-0.0185 0.698933,-0.0287 1.398104,-0.0892 2.092089,-0.17603 0.332278,-0.0418 0.60325,-0.21806 0.643301,-0.61685 0.04107,-0.40842 -0.08579,-0.70065 -0.479142,-0.87124 -0.199761,-0.087 -0.401751,-0.10681 -0.610412,-0.11398 -1.253721,-0.0438 -2.507442,-0.0853 -3.761409,-0.12955 -0.845284,-0.0297 -0.878664,-0.0613 -0.904377,-0.92267 -0.04647,-1.55683 -0.196797,-3.10451 -0.41609,-4.64501 -0.189627,-1.33111 -0.119412,-1.37413 1.248528,-1.13481 1.256686,0.21955 2.537844,0.16911 3.808868,0.17851 0.580754,0.004 0.893501,-0.35454 0.937015,-0.88213 0.04745,-0.57432 -0.192599,-0.88163 -0.788182,-1.06829 -0.260088,-0.0818 -0.520673,-0.10112 -0.785701,-0.10978 -2.146724,-0.071 -4.293946,-0.12955 -6.439928,-0.21286 -1.289568,-0.0502 -1.764995,0.35527 -1.823345,1.66437 -0.05586,1.25619 -0.08579,2.51337 -0.141419,4.20321 0.01409,1.14592 -0.05684,2.72376 -0.06602,4.30309 -0.01261,2.14944 0.0129,4.30086 -0.04646,6.4508 -0.0225,0.81612 0.0035,1.63421 0.02747,2.45057 0.02102,0.71574 0.388898,1.22035 1.004013,1.35682 0.367635,0.0813 0.751585,0.14043 1.126144,0.13004 2.479256,-0.0682 4.943675,-0.35898 7.417239,-0.51869 0.613384,-0.0395 1.057906,-0.43464 1.063842,-0.90661 0.007,-0.53056 -0.405711,-0.89597 -1.08659,-0.92193"
       style="fill:#b3b2e9;fill-opacity:1;fill-rule:nonzero;stroke:none;stroke-width:0.0247233"
       id="path661" />
    <path
       d="m 52.040839,146.70798 c -0.003,0.006 -0.005,0.0113 -0.008,0.0169 0,-0.005 0,-0.01 0,-0.0148 0.003,-7e-4 0.005,-0.001 0.008,-0.002 z m 0.68439,-4.73111 c 0.0138,0 0.0279,-3.5e-4 0.0416,-3.5e-4 0.0102,-3.6e-4 0.0205,-3.6e-4 0.031,-3.6e-4 0.008,0.15452 0.0473,0.31186 -0.0342,0.47132 -0.001,-0.002 -0.001,-0.004 -0.002,-0.006 -0.0822,-0.15593 -0.0413,-0.31186 -0.036,-0.46461 z m 0.0787,-3.37538 v 0 0 c 0.009,0.0702 0.0176,0.1397 0.0875,0.17957 -0.005,0.0843 -0.004,0.16862 -0.002,0.25294 0.007,0.28822 0.0325,0.57785 -0.0406,0.86113 -0.009,0.036 -0.0183,0.072 -0.031,0.10759 0,0 0,0 0,-3.5e-4 v 0 c -0.004,0.0836 -0.008,0.16687 -0.013,0.24977 -10e-4,0.21484 -0.002,0.42898 -0.003,0.64347 -7e-4,0.18767 -10e-4,0.37535 -0.002,0.56268 -0.006,0 -0.0131,0 -0.019,3.5e-4 -0.0183,0 -0.0363,3.5e-4 -0.0543,3.5e-4 0.002,-0.40181 0.004,-0.80363 0.006,-1.20544 3.5e-4,-0.17251 3.5e-4,-0.34502 7e-4,-0.51788 v 0 c 0.0113,-7e-4 0.0226,0.001 0.0339,0.002 0.0116,7.1e-4 0.0233,0 0.0346,0.002 -0.01,-0.14711 0.0621,-0.30727 -0.0709,-0.43391 v 0 c 0.0159,-0.23601 -0.0702,-0.4826 0.0737,-0.70485 z m -0.072,4.60305 c 0,0.018 0,0.0335 0,0.0505 -0.0371,0.0138 0,-0.0639 -0.004,-0.0977 0.007,0.024 0.0127,0.0466 0.0169,0.0688 -0.004,-0.007 -0.007,-0.0138 -0.0127,-0.0215 z m 3.70699,16.46202 c 0,3.6e-4 0,3.6e-4 0,7.1e-4 -0.0134,-0.005 -0.0229,-0.0159 -0.0296,-0.0286 0.01,0.01 0.0198,0.0187 0.0296,0.0279 z m -2.0761,-10.78336 c 0,-0.003 0,-0.006 0,-0.008 10e-4,7.1e-4 0.003,0.001 0.004,0.001 -0.002,0.002 -0.002,0.005 -0.004,0.007 z m 0.14605,-0.6103 c 3.5e-4,-0.001 3.5e-4,-0.002 7e-4,-0.004 -3.5e-4,0.003 -3.5e-4,0.006 -7e-4,0.01 0,-0.002 0,-0.004 0,-0.006 z m 8.04827,9.63683 c -0.0847,-0.75953 -0.5969,-1.43616 -1.5173,-1.37654 -0.24306,0.0155 -0.48754,0.001 -0.73131,0.007 -0.34748,0.008 -0.56021,0.18027 -0.63006,0.5274 -0.1337,0.66146 -0.23424,1.32609 -0.23177,2.00272 0,3.5e-4 0,3.5e-4 0,3.5e-4 v 0 c -0.1136,0.55986 -0.2533,1.11231 -0.44027,1.65347 -0.12171,0.3549 -0.35842,0.52882 -0.72496,0.56656 -0.52528,0.054 -0.91263,-0.1845 -1.22943,-0.56515 -0.16122,-0.19367 -0.29316,-0.41239 -0.4385,-0.61983 10e-4,-0.16862 -0.0677,-0.30938 -0.1711,-0.43673 -0.025,-0.17675 -0.0639,-0.34784 -0.18132,-0.49037 0,3.6e-4 0,3.6e-4 0,3.6e-4 -0.13194,-0.0998 -0.0212,-0.25365 -0.0829,-0.36866 -0.007,-0.18273 -0.004,-0.36618 -0.0547,-0.54257 -0.005,-0.0293 -0.0134,-0.0582 -0.0265,-0.0864 -3.5e-4,-0.001 -3.5e-4,-0.002 -0.001,-0.003 0.0191,-0.0198 0.0194,-0.0399 0.002,-0.06 0.003,-0.14358 0.0145,-0.28681 0.008,-0.42969 -0.0959,-2.17946 -0.18979,-4.35892 -0.29245,-6.53803 -0.0914,-1.94945 -0.18803,-3.89855 -0.29139,-5.84729 -0.0356,-0.66992 -0.048,-0.66922 0.63993,-0.66534 0.0861,7.1e-4 0.17216,0.002 0.25824,0 0.70273,-0.0176 1.40582,-0.0392 2.10855,-0.0536 0.28893,-0.006 0.54786,-0.0921 0.53728,-0.41769 -0.0102,-0.32314 -0.27728,-0.39476 -0.56268,-0.39194 -0.50235,0.004 -1.00471,0.004 -1.50742,0.004 -0.50235,7.1e-4 -1.00259,-0.0332 -1.49966,-0.109 v 0 c 0.0159,-1.03188 0.036,-2.06376 0.0462,-3.09563 0.0113,-1.16135 0.0166,-2.32304 0.0194,-3.48439 10e-4,-0.36159 -0.12947,-0.6925 -0.50694,-0.75282 -0.6597,-0.10619 -1.33068,-0.16934 -1.99425,0.01 v 0 c -0.35137,0.0215 -0.82586,-0.11677 -0.8435,0.44979 -0.0332,1.06821 -0.21625,2.12654 -0.19544,3.19722 v 0 0 c -0.0818,0.20426 -0.0593,0.42086 -0.0688,0.63288 -0.0445,0.99378 -0.0854,1.98791 -0.12735,2.98204 -3.5e-4,0 -3.5e-4,3.5e-4 -3.5e-4,3.5e-4 -0.82374,0.0159 -1.65065,-0.066 -2.4698,0.084 v 0 c -0.1143,0.006 -0.22895,0.0123 -0.34325,0.0191 -0.127,-0.024 -0.24765,-0.002 -0.36583,0.0469 -0.10725,0.0444 -0.2092,0.10054 -0.21238,0.2293 -0.004,0.1457 0.079,0.23002 0.2279,0.24236 v 0 c 0.12735,0.10301 0.28222,0.085 0.43039,0.0963 v 0 c 0.14076,0.10054 0.30339,0.0677 0.45826,0.0698 0.64523,0.008 1.29081,0.0222 1.93604,0.0106 0.2861,-0.005 0.36689,0.10266 0.3616,0.37924 -0.0483,2.45286 0.0247,4.90502 0.11218,7.35577 0.031,0.87136 0.0219,1.74625 0.1457,2.61303 0.0176,1.3088 0.22966,2.58903 0.51294,3.86574 0.22295,1.00365 0.54645,1.95403 1.12536,2.80811 v 3.5e-4 c 0.16757,0.27975 0.33478,0.55986 0.50235,0.83961 0.1203,0.23389 0.28223,0.4251 0.53411,0.52423 0.43286,0.51929 1.00718,0.78987 1.65312,0.9331 0.18591,0.002 0.37182,0.004 0.55774,0.005 0.12488,0.001 0.24941,0.002 0.37394,0.004 0.14993,0.001 0.29951,0.002 0.44909,0.004 v 0 0 c 0.35137,-0.0804 0.72178,-0.0466 1.06609,-0.17357 0,0 0,0 3.6e-4,0 0.23071,0.0148 0.46143,0.0289 0.67521,-0.0885 0.45403,-0.0265 0.85549,-0.23284 1.26965,-0.3863 0.78493,-0.29033 1.24248,-0.88758 1.48378,-1.66934 0.51576,-1.13877 0.37818,-2.33539 0.2473,-3.51155"
       style="fill:#617e83;fill-opacity:1;fill-rule:nonzero;stroke:none;stroke-width:0.0352778"
       id="path443" />
    <path
       d="m 81.768935,146.41498 c -0.0123,-0.007 -0.0229,-0.0138 -0.0346,-0.0208 0.0131,-0.004 0.0243,-0.01 0.0346,-0.0159 0,0.0127 0,0.0243 0,0.0367 z m -0.0582,-2.19286 c 0.0233,0.0198 0.0402,0.0575 0.049,0.11994 -0.013,-0.0116 -0.0296,-0.0222 -0.0483,-0.0328 -3.5e-4,-0.0289 -3.5e-4,-0.0579 -7e-4,-0.0871 z m 14.32983,-4.31165 c -0.084,-0.55034 -0.14781,-1.10349 -0.25471,-1.65065 -0.33231,-1.70039 -1.02658,-3.27307 -2.46768,-4.51556 -1.71803,-1.48096 -3.89784,-2.19816 -6.2678,-2.36467 -3.39549,-0.23883 -6.22088,0.78987 -8.29628,3.16301 -1.14864,1.31339 -1.92757,2.77601 -2.30258,4.39067 -0.0924,0.0522 -0.109,0.13123 -0.10583,0.21767 -0.0589,0.21025 -0.176036,0.41098 -0.140756,0.63641 v 0 c -0.19649,0.30762 -0.26246,0.63958 -0.25047,0.98601 -0.16545,0.11994 -0.11042,0.28399 -0.11747,0.43603 -0.003,0.0684 -0.006,0.13724 -0.008,0.20603 v 0 c -0.18804,0.16016 -0.10478,0.36371 -0.11924,0.55139 -0.003,0.0684 -0.005,0.13688 -0.007,0.20567 0,0 0,0 -3.6e-4,0 -0.18662,0.16157 -0.10336,0.36477 -0.115,0.55351 -0.004,0.1397 -0.007,0.27975 -0.0113,0.4198 v 0 c -0.22825,0.27411 -0.0847,0.58455 -0.11712,0.87771 -0.003,0.14111 -0.005,0.28258 -0.008,0.42369 0,0 0,0 -3.6e-4,0 -0.25505,0.67945 -0.0709,1.3776 -0.11923,2.06551 3.5e-4,0.9017 7e-4,1.8034 0.001,2.7051 v 0 c -0.0268,0.93451 0.0494,1.86267 0.18803,2.78801 -0.0176,0.11112 0.018,0.23142 0.0568,0.36124 0.002,0.14111 0.005,0.28222 0.007,0.42369 0.0568,1.70462 0.26741,3.39795 0.56974,5.08176 0.191196,1.06186 0.400746,2.12337 0.815616,3.14431 v 0 c 0.33867,1.1744 1.04105,2.17064 2.02001,3.03142 v 0 c 0.40922,0.31997 0.89006,0.514 1.4097,0.68086 1.30422,0.4191 2.67476,0.43427 4.0266,0.49212 1.89265,0.0808 3.71299,-0.31291 5.4483,-0.92956 2.18193,-0.77576 3.48404,-2.14419 3.79378,-4.21429 0.20496,-1.37125 0.31891,-2.74673 0.46284,-4.1208 0.16933,-1.61889 -0.50447,-2.31739 -2.35761,-2.3943 -1.29893,-0.054 -2.59539,-0.16475 -3.90067,-0.12912 -1.45944,0.0399 -1.25942,-0.16756 -1.30457,1.14124 -0.0127,0.37006 0.11218,0.49848 0.56338,0.50095 1.1109,0.007 2.22145,0.0716 3.33234,0.0981 0.45756,0.0106 0.70062,0.1337 0.66287,0.57714 -0.0413,0.48401 -0.0406,0.97437 -0.01,1.45944 0.0861,1.37654 -0.21237,2.68358 -0.90699,3.92501 -0.51329,0.91687 -1.1878,1.6637 -2.50437,1.72402 v 0 0 c -1.04951,0.078 -1.75013,-0.35101 -2.34279,-1.06397 -0.80469,-0.96838 -1.50637,-1.95898 -1.70004,-3.16019 -0.0843,-0.44097 -0.16157,-0.883 -0.25259,-1.32256 -0.14041,-0.67875 -0.28646,-1.35608 -0.43109,-2.03412 0.0208,-0.0967 -0.03,-0.22084 -0.0702,-0.32773 -0.12876,-0.82797 -0.25752,-1.65629 -0.38629,-2.48426 -0.0991,-0.58314 -0.13511,-1.17546 -0.30198,-1.74907 0,-0.0674 -0.0293,-0.14358 -0.0667,-0.20991 -0.001,-0.0688 -0.003,-0.13758 -0.004,-0.20602 -0.049,-0.87171 -0.066,-1.74589 -0.248,-2.60844 -0.002,-0.1404 -0.005,-0.28116 -0.007,-0.42227 v 0 c -3.6e-4,-1.51554 -3.6e-4,-3.03107 -7.1e-4,-4.5466 0.003,-0.17674 0.005,-0.35349 0.008,-0.53023 v 0 c 0.23107,-0.34854 0.0811,-0.72848 0.12206,-1.0929 v 0 c 0.19685,-0.42475 0.16616,-0.8823 0.24448,-1.32327 0.35665,-2.01401 1.15146,-3.86186 2.69734,-5.43913 0.078,-0.0794 0.21272,-0.21343 0.27269,-0.1965 0.62901,0.17815 0.96097,-0.25365 1.38889,-0.47731 1.36878,-0.71508 2.7185,-0.63112 3.65125,0.29563 0.71226,0.70803 1.29469,1.50425 1.86443,2.30152 0.98672,1.38078 1.02976,2.9457 1.10208,4.48593 0.10124,2.159 -0.0921,4.32329 0.1397,6.48158 0.0251,0.23001 -0.0402,0.53658 0.39158,0.45509 0.54257,-0.10196 1.0862,-0.072 1.62984,-0.0998 0.41275,-0.0212 0.64946,-0.18557 0.63323,-0.58526 -0.0233,-0.55845 -3.5e-4,-1.11796 0.003,-1.67711 h 0.0628 0.0631 c 0,-1.8041 0,-3.60786 0,-5.41196 -0.0423,0 -0.0843,0 -0.12665,3.5e-4"
       style="fill:#afe0dc;fill-opacity:1;fill-rule:nonzero;stroke:none;stroke-width:0.0352778"
       id="path567" />
    <path
       d="m 95.720245,144.63169 c -0.0113,0.63712 -0.0797,1.28305 -0.36795,1.86055 -0.11042,0.22013 -0.24342,0.42122 -0.4311,0.58209 -0.0201,0.0169 -0.0974,0.0635 -0.16227,0.10512 -0.0318,-0.004 -0.061,-0.008 -0.0691,-0.01 -0.10372,-0.0265 -0.19826,-0.0716 -0.28857,-0.12947 -0.0864,-0.0557 -0.15593,-0.13476 -0.22014,-0.22013 0.003,-0.0166 0.008,-0.0332 0.007,-0.0505 -0.25576,-2.4698 -0.4766,-4.94594 -0.77293,-7.41115 -0.25012,-2.08281 -0.77082,-4.27638 -2.45498,-5.68255 -1.65629,-1.38359 -3.98322,-1.22026 -5.80461,-0.24165 -1.88842,1.01494 -3.00743,2.80705 -3.43112,4.87539 -0.46672,2.27859 -0.30974,4.68101 -0.24835,6.99064 0.0632,2.3689 0.14887,4.74698 0.42368,7.10248 0.26529,2.27577 0.72849,4.54483 1.60091,6.67067 0.67945,1.65629 1.82139,3.58281 3.83787,3.62797 1.10419,0.0247 2.25284,-0.38594 3.07904,-1.12113 0.75812,-0.6738 1.18569,-1.60478 1.35749,-2.5915 0.0967,-0.55598 0.12983,-1.11972 0.13265,-1.68346 0.003,-0.50729 0.031,-1.05163 -0.0632,-1.55293 -0.2226,-1.18709 -1.53353,-0.9532 -2.44934,-0.93733 l -1.8228,0.0317 c -0.0466,0.001 -0.0945,0.007 -0.14182,0.01 0.12594,-0.0878 0.18909,-0.17286 0.13406,-0.23319 -0.30657,-0.33408 -0.1838,-0.91863 0.12382,-1.20967 0.0261,-0.025 0.13053,-0.0804 0.12277,-0.0868 0.0459,-0.007 0.11007,-0.009 0.15346,-0.0138 0.27234,-0.0293 0.54645,-0.0501 0.8195,-0.0684 1.03717,-0.0688 2.15618,-0.0462 3.07658,0.496 0.92745,0.5461 1.39206,1.51589 1.60584,2.53683 0.23107,1.10419 0.27658,2.30223 0.2346,3.42688 -0.0254,0.67663 -0.13159,1.3642 -0.4632,1.96392 -0.13935,0.25294 -0.31185,0.49036 -0.5267,0.68544 -0.0526,0.048 -0.22965,0.13865 -0.27481,0.20356 -0.32738,0.0254 -0.84314,0.13476 -1.06362,0.37747 -0.0882,0.0974 -0.0794,0.15487 -0.0261,0.18803 -2.0694,1.18816 -4.31307,2.35867 -6.74829,2.38654 -2.35268,0.0268 -4.56988,-0.94791 -5.98982,-2.84974 -1.27846,-1.71203 -1.88383,-3.84386 -2.21791,-5.92631 -0.423686,-2.64372 -0.495646,-5.36751 -0.445556,-8.04016 0.0529,-2.84127 0.22472,-5.76333 0.861486,-8.54075 0.55245,-2.40877 1.60619,-4.67113 3.4491,-6.35953 1.60232,-1.4679 3.58564,-2.42675 5.73511,-2.50119 2.39536,-0.0829 4.80625,0.70767 6.7183,2.14489 0.98743,0.74189 1.8789,1.66582 2.37455,2.81199 0.55421,1.28164 0.50941,2.72309 0.54328,4.09152 0.0349,1.42769 0.11888,2.86349 0.0935,4.29154 z m 1.54199,-5.01368 c -0.0367,-1.4799 -0.0413,-2.99579 -0.79163,-4.32117 -1.30034,-2.29694 -3.92395,-3.77049 -6.42938,-4.35081 -2.71286,-0.62795 -5.61728,-0.24659 -8.13435,0.91934 -2.33821,1.08303 -4.33881,2.88219 -5.52097,5.18583 -1.352906,2.63702 -1.685216,5.70054 -1.914876,8.61378 -0.25259,3.20357 -0.24483,6.43502 0.0455,9.63577 0.21202,2.33609 0.65299,4.75121 1.81363,6.81884 1.235066,2.19922 3.300936,3.64596 5.820476,3.95394 3.04306,0.37147 6.07166,-0.62865 8.74783,-2.00484 0.66569,-0.34219 1.31974,-0.70556 1.96779,-1.08021 0.0519,-0.0303 0.0882,-0.0607 0.11607,-0.0907 1.01706,-0.38135 1.85067,-1.1564 2.16006,-2.25248 0.22119,-0.78246 0.22154,-1.59879 0.19403,-2.40453 -0.0233,-0.68192 -0.0529,-1.36702 -0.16087,-2.04188 -0.20567,-1.28129 -0.76941,-2.52766 -1.99073,-3.1235 -1.27282,-0.62124 -2.79153,-0.51576 -4.1603,-0.39934 -0.92781,0.0787 -1.99743,0.23248 -2.74709,0.83608 -0.50517,0.40675 -0.73554,1.14088 -0.26493,1.65418 0.0547,0.0596 0.16616,0.0787 0.30409,0.0716 -0.13441,0.14287 -0.0928,0.29633 0.19368,0.29104 0.53975,-0.009 1.07985,-0.0187 1.62031,-0.0282 0.26987,-0.005 0.5401,-0.01 0.80997,-0.0145 0.24624,-0.004 0.5581,-0.0582 0.79658,0.0159 0.38135,0.11853 0.4646,0.58279 0.49635,0.92569 0.0441,0.47766 0.0367,0.96802 0.0307,1.44709 -0.0141,1.02729 -0.1344,2.09374 -0.66251,2.99685 -0.18909,0.32279 -0.42581,0.61454 -0.7112,0.8576 -0.12383,0.10513 -0.25682,0.18521 -0.39511,0.26741 0.0222,-0.0134 -0.043,0.006 -0.072,0.0187 -0.0268,0.002 -0.0578,0.004 -0.0734,0.003 -1.74414,-0.0963 -2.72521,-2.17276 -3.27872,-3.562 -0.7553,-1.89583 -1.19239,-3.90278 -1.45874,-5.92138 -0.27799,-2.10926 -0.37782,-4.23897 -0.45332,-6.36376 -0.0765,-2.15582 -0.18909,-4.34763 -0.0318,-6.5024 0.1397,-1.91029 0.63253,-3.91653 2.05317,-5.29025 0.27305,-0.26388 0.56974,-0.50095 0.89712,-0.69392 0.31608,-0.18626 0.58173,-0.29562 0.8636,-0.33125 0.75494,-0.0952 1.52682,0.20884 2.13853,0.63217 1.85138,1.28023 2.41477,3.57788 2.67688,5.68431 0.28152,2.26307 0.48684,4.53814 0.71473,6.80791 -0.17639,0.0963 -0.28646,0.19191 -0.25153,0.25012 0.15557,0.26211 0.28751,0.58878 0.5267,0.78493 0.20955,0.1718 0.48824,0.26811 0.75424,0.30268 0.69779,0.091 1.45908,-0.0889 2.09126,-0.37923 0.56303,-0.25788 1.05869,-0.63677 1.35114,-1.19204 0.30092,-0.57115 0.39194,-1.23719 0.41487,-1.87431 0.0575,-1.57727 -0.0572,-3.17429 -0.096,-4.75192"
       style="fill:#7bbab4;fill-opacity:1;fill-rule:nonzero;stroke:none;stroke-width:0.0352778"
       id="path569" />
    <path
       d="m 103.58943,144.46906 c 3.2e-4,1.24826 6.5e-4,2.49624 9.2e-4,3.74449 0.0377,-0.0102 0.0793,-0.007 0.12578,0.0107 0,-1.25787 0,-2.51575 0,-3.77363 -0.0442,0.0181 -0.0865,0.0239 -0.12708,0.0184"
       style="fill:#dfa6a8;fill-opacity:1;fill-rule:nonzero;stroke:none;stroke-width:0.0300066"
       id="path771" />
    <path
       d="m 103.58943,144.46906 c 0.0406,0.005 0.0828,-2.7e-4 0.12709,-0.0184 -0.0426,-0.002 -0.0849,-0.003 -0.12709,-0.003 0,0.007 0,0.0143 0,0.0214"
       style="fill:#dfa6a8;fill-opacity:1;fill-rule:nonzero;stroke:none;stroke-width:0.0300066"
       id="path773" />
    <path
       d="m 103.59073,148.21355 c 0,0.005 0,0.009 0,0.014 0,0 0,0 3.4e-4,0 0.042,2.8e-4 0.0836,-8.5e-4 0.12545,-0.003 -0.0465,-0.0179 -0.0881,-0.0209 -0.12579,-0.0107"
       style="fill:#dfa6a8;fill-opacity:1;fill-rule:nonzero;stroke:none;stroke-width:0.0300066"
       id="path775" />
    <path
       d="m 102.44594,159.17846 c -0.0229,2.8e-4 -0.0455,8.6e-4 -0.0688,0.001 v -0.86589 c 0.0232,-5.5e-4 0.0459,-0.001 0.0688,-0.002 v 0.86671 z m -1.60042,3.21204 c -0.13986,0.0585 -0.27678,0.0874 -0.2509,-0.10473 0.0302,-0.22513 0.0877,-0.44807 0.13331,-0.6721 -0.0649,-0.2452 0.0727,-0.46456 0.12611,-0.69464 v 0 0 -0.55829 c 0.18605,0.24657 0.11496,0.40876 0.12709,0.55994 -0.0665,0.48848 0.17884,0.99729 -0.13561,1.46954 z m -0.25975,-10.95804 c 0.0279,-0.2342 -0.10612,-0.4882 0.12316,-0.69738 v 0 c 0.004,-0.30293 0.008,-0.60558 0.0125,-0.90823 v -2.7e-4 0 c 0.0128,-0.19517 -0.0662,-0.39721 0.0616,-0.59925 0.12448,0.20314 0.0498,0.40436 0.0573,0.60035 l 0.004,1.1339 c -0.0337,0.27131 0.11922,0.56269 -0.12414,0.81174 v 1.57729 c -0.0448,2.8e-4 -0.0898,5.5e-4 -0.1343,8.6e-4 v -1.91898 z m -6.4e-4,-5.037 c -0.037,-0.22458 -0.0881,-0.44806 -0.10645,-0.67375 -0.0137,-0.16713 -0.16378,-0.43074 0.207,-0.43404 0.31019,-0.003 0.30365,0.24162 0.28825,0.43157 -0.0259,0.32052 -0.0986,0.63938 -0.10612,0.95962 -0.017,0.70069 -0.006,1.4022 -0.0498,2.1048 -0.16379,-0.25152 -0.0832,-0.52255 -0.10581,-0.78424 v -2.8e-4 c -0.26827,-0.52201 -0.0809,-1.0693 -0.12708,-1.60341 z m 2.78616,1.31148 c -0.0206,-0.91262 -0.0206,-1.82524 -3.4e-4,-2.73786 0.004,-0.18253 0.0268,-0.36753 0.19883,-0.50497 -0.0302,-0.007 -0.0593,-0.0181 -0.0875,-0.0382 -0.31773,-0.37439 -0.75698,-0.49699 -1.29646,-0.50084 -0.58795,-0.004 -1.17001,-0.13524 -1.76518,-0.0869 -0.847695,0.069 -1.170335,0.31584 -1.299065,1.00416 -0.0527,0.28258 -0.10351,0.56516 -0.10383,0.85187 -0.004,2.45692 -0.10842,4.91825 0.0298,7.37023 0.13397,2.38133 0.0364,4.75937 0.1094,7.13768 0.0197,0.63251 -0.15166,1.25018 -0.14117,1.87966 0.0137,0.82109 0.66787,1.3802 1.654455,1.40165 0.36358,0.008 0.72782,0.0154 1.09042,-0.0146 1.02294,-0.0852 1.46187,-0.47005 1.46777,-1.32962 0.0141,-2.00006 0.005,-3.99986 0.005,-5.99992 9.3e-4,-1.77137 -0.0268,-3.54328 0.0122,-5.31382 0.0187,-0.85077 0.0495,-1.70786 0.25484,-2.54901 0.0229,-0.0294 0.0501,-0.0476 0.0796,-0.058 -0.1818,-0.13744 -0.20473,-0.32601 -0.20865,-0.51156"
       style="fill:#dfa6a8;fill-opacity:1;fill-rule:nonzero;stroke:none;stroke-width:0.0300066"
       id="path777"
       sodipodi:nodetypes="sccccscccscccccccssscsccccccccccccccccccccccccccccccccccccc" />
    <path
       d="m 103.50033,148.2765 c -0.20538,0.84115 -0.23616,1.69824 -0.25484,2.54901 -0.039,1.77054 -0.0111,3.54245 -0.0122,5.31382 -6.5e-4,2.00006 0.009,3.99985 -0.005,5.99992 -0.006,0.85957 -0.44482,1.24441 -1.46776,1.32962 -0.3626,0.03 -0.72684,0.0225 -1.09042,0.0146 -0.986585,-0.0214 -1.640705,-0.58056 -1.654465,-1.40164 -0.0105,-0.62949 0.16083,-1.24715 0.14118,-1.87967 -0.0731,-2.37831 0.0246,-4.75634 -0.10941,-7.13767 -0.13822,-2.45198 -0.0337,-4.91331 -0.0298,-7.37023 3.2e-4,-0.28671 0.0511,-0.56929 0.10383,-0.85187 0.12873,-0.68832 0.45136,-0.93516 1.299075,-1.00416 0.59516,-0.0484 1.17722,0.0825 1.76517,0.0869 0.53948,0.004 0.97873,0.12645 1.29646,0.50084 0.0281,0.0201 0.0573,0.0316 0.0875,0.0382 0.006,-0.006 0.0122,-0.0113 0.0197,-0.0165 v 0 0 c -0.0865,-0.30787 -0.21684,-0.65258 -0.63612,-0.66027 -0.93024,-0.017 -1.85426,-0.25152 -2.77861,-0.11985 -0.518205,0.0737 -1.112375,0.19571 -1.221455,0.75758 -0.0836,0.42937 -0.1392,0.86836 -0.13888,1.30268 0.002,2.95145 -0.0141,5.90179 0.0875,8.85406 0.0809,2.3566 0.2057,4.72529 -0.10514,7.07776 -0.10449,0.78974 0.18638,1.36425 0.86146,1.84778 0.431055,0.30869 0.963655,0.10885 1.447445,0.15943 0.13398,0.0143 0.27254,0.004 0.40879,0.001 1.303,-0.0256 1.96432,-0.46098 1.95909,-1.61358 -0.02,-4.609 -0.1533,-9.21938 0.11725,-13.82701 v 0 c -0.004,-0.003 -0.006,-0.006 -0.0108,-0.009 -0.0294,0.0104 -0.0566,0.0286 -0.0796,0.058"
       style="fill:#dfa6a8;fill-opacity:1;fill-rule:nonzero;stroke:none;stroke-width:0.0300066"
       id="path779"
       sodipodi:nodetypes="cccccccccccccccscsccccccccccsscc" />
    <path
       d="m 103.37095,144.96908 c -0.0203,0.91262 -0.0203,1.82524 3.4e-4,2.73786 0.004,0.18554 0.0268,0.37412 0.20865,0.51156 0.004,-0.001 0.007,-0.004 0.0108,-0.005 -6.6e-4,-1.24826 -9.3e-4,-2.49624 -9.3e-4,-3.74449 -0.007,-8.6e-4 -0.0131,-0.003 -0.0197,-0.005 -0.17196,0.13744 -0.1949,0.32244 -0.19882,0.50496"
       style="fill:#dfa6a8;fill-opacity:1;fill-rule:nonzero;stroke:none;stroke-width:0.0300066"
       id="path781" />
    <path
       d="m 103.57994,148.2185 c 0.004,0.003 0.007,0.006 0.0108,0.009 0,-0.005 0,-0.009 0,-0.014 -0.004,8.6e-4 -0.007,0.004 -0.0108,0.005"
       style="fill:#dfa6a8;fill-opacity:1;fill-rule:nonzero;stroke:none;stroke-width:0.0300066"
       id="path783" />
    <path
       d="m 103.56977,144.46411 c 0.007,0.002 0.0131,0.004 0.0197,0.005 0,-0.007 0,-0.0143 0,-0.0214 v 0 c -0.007,0.005 -0.0131,0.011 -0.0197,0.0165"
       style="fill:#dfa6a8;fill-opacity:1;fill-rule:nonzero;stroke:none;stroke-width:0.0300066"
       id="path785" />
    <path
       d="m 101.54779,141.01567 c 0.73437,-0.0181 1.54867,-0.53767 1.49495,-1.9044 -0.003,-0.87964 -0.56044,-1.47586 -1.38586,-1.48219 -1.664625,-0.0124 -2.591595,0.56434 -2.586025,1.60891 0.005,0.90822 1.237155,1.8082 2.476935,1.77768"
       style="fill:#dfa6a8;fill-opacity:1;fill-rule:nonzero;stroke:none;stroke-width:0.0300066"
       id="path787" />
    <path
       d="m 100.71222,147.99942 v -2.8e-4 2.8e-4 c 0.0226,0.26169 -0.0579,0.53272 0.10579,0.78424 0.0446,-0.7026 0.0328,-1.40411 0.0498,-2.1048 0.007,-0.32024 0.0802,-0.6391 0.10612,-0.95962 0.0154,-0.18995 0.0219,-0.43459 -0.28824,-0.43157 -0.37079,0.003 -0.22077,0.26691 -0.20702,0.43404 0.0184,0.22569 0.0694,0.44917 0.10646,0.67375 v 2.7e-4 -2.7e-4 c 0.26957,0.52201 0.0682,1.07013 0.12709,1.60396"
       style="fill:#dfa6a8;fill-opacity:1;fill-rule:nonzero;stroke:none;stroke-width:0.0300066"
       id="path789" />
    <path
       d="m 100.58577,153.35144 c 0.0446,-2.8e-4 0.0894,-5.5e-4 0.1343,-8.6e-4 0,-0.52586 0,-1.05171 0,-1.57729 -0.0151,-0.12178 0.0226,-0.2584 -0.1343,-0.34086 v 0 c 0,0.63966 0,1.27932 0,1.91897"
       style="fill:#dfa6a8;fill-opacity:1;fill-rule:nonzero;stroke:none;stroke-width:0.0300066"
       id="path791" />
    <path
       d="m 100.98113,160.92068 -0.0639,-0.002 -0.0632,2.7e-4 v 0 c -0.0534,0.23008 -0.19096,0.44944 -0.1261,0.69463 0.24008,0.23751 0.0787,0.51789 0.11759,0.77656 0.31445,-0.47226 0.0691,-0.98107 0.1356,-1.46954"
       style="fill:#dfa6a8;fill-opacity:1;fill-rule:nonzero;stroke:none;stroke-width:0.0300066"
       id="path793"
       sodipodi:nodetypes="cccsccc" />
    <path
       d="m 100.71222,147.99914 c -0.17722,-0.52696 0.0511,-1.07673 -0.12709,-1.60341 0.0461,0.53411 -0.14118,1.0814 0.12709,1.60341"
       style="fill:#dfa6a8;fill-opacity:1;fill-rule:nonzero;stroke:none;stroke-width:0.0300066"
       id="path795" />
    <path
       d="m 100.71222,147.99914 v 2.8e-4 c -0.059,-0.53383 0.14248,-1.08195 -0.12709,-1.60396 v 2.7e-4 c 0.17819,0.52668 -0.0501,1.07645 0.12709,1.60341"
       style="fill:#dfa6a8;fill-opacity:1;fill-rule:nonzero;stroke:none;stroke-width:0.0300066"
       id="path797" />
    <path
       d="m 100.72007,151.77332 c 0.24337,-0.24905 0.0904,-0.54043 0.12414,-0.81174 -0.11006,-0.0484 -0.1225,-0.13744 -0.13528,-0.2265 v 0 0 c -0.22929,0.20918 -0.0953,0.46318 -0.12316,0.69738 v 0 c 0.33281,0.0338 0.17196,0.20452 0.1343,0.34086"
       style="fill:#dfa6a8;fill-opacity:1;fill-rule:nonzero;stroke:none;stroke-width:0.0300066"
       id="path799" />
    <path
       d="m 100.72007,151.77332 c 0.0377,-0.13634 0.1985,-0.30705 -0.1343,-0.34086 0.1569,0.0825 0.11925,0.21908 0.1343,0.34086"
       style="fill:#dfa6a8;fill-opacity:1;fill-rule:nonzero;stroke:none;stroke-width:0.0300066"
       id="path801" />
    <path
       d="m 102.37717,159.17956 c 0.0232,-2.8e-4 0.0459,-8.6e-4 0.0688,-0.001 0,-0.28891 0,-0.57781 0,-0.86672 -0.0229,5.5e-4 -0.0455,0.001 -0.0688,0.002 0,0.28863 0,0.57726 0,0.86589"
       style="fill:#dfa6a8;fill-opacity:1;fill-rule:nonzero;stroke:none;stroke-width:0.0300066"
       id="path803" />
    <path
       d="m 100.84422,150.96158 c -9.2e-4,-0.37797 -0.003,-0.75593 -0.004,-1.1339 l -0.0596,-10e-4 c 0,0 -0.059,2.7e-4 -0.0593,2.7e-4 0,2.8e-4 0,2.8e-4 0,2.8e-4 -0.005,0.30265 -0.008,0.6053 -0.0124,0.90822 0.10579,0.05 0.0436,0.17043 0.13527,0.22651"
       style="fill:#dfa6a8;fill-opacity:1;fill-rule:nonzero;stroke:none;stroke-width:0.0300066"
       id="path805" />
    <path
       d="m 100.84422,150.96158 c -0.0917,-0.0561 -0.0295,-0.17647 -0.13528,-0.2265 v 0 c 0.0128,0.0891 0.0253,0.17812 0.13528,0.2265"
       style="fill:#dfa6a8;fill-opacity:1;fill-rule:nonzero;stroke:none;stroke-width:0.0300066"
       id="path807" />
    <path
       d="m 100.84028,149.82768 c -0.007,-0.19599 0.0671,-0.39721 -0.0573,-0.60035 -0.12774,0.20204 -0.0488,0.40408 -0.0616,0.59925 v 0 c 0.0403,-0.0528 0.0799,-0.0525 0.1189,0.001"
       style="fill:#dfa6a8;fill-opacity:1;fill-rule:nonzero;stroke:none;stroke-width:0.0300066"
       id="path809" />
    <path
       d="m 100.84028,149.82768 c -0.039,-0.0536 -0.0786,-0.0539 -0.1189,-10e-4 3.4e-4,0 0.0593,-2.8e-4 0.0593,-2.8e-4 l 0.0596,0.001"
       style="fill:#dfa6a8;fill-opacity:1;fill-rule:nonzero;stroke:none;stroke-width:0.0300066"
       id="path811" />
    <path
       d="m 100.98113,160.92068 c -0.0122,-0.15118 0.059,-0.31337 -0.12708,-0.55994 0,0.26059 0,0.40958 0,0.55829 v 0 c 0.0433,-0.0533 0.0858,-0.0528 0.12708,0.002"
       style="fill:#dfa6a8;fill-opacity:1;fill-rule:nonzero;stroke:none;stroke-width:0.0300066"
       id="path813" />
    <path
       d="m 100.98113,160.92068 c -0.0413,-0.0544 -0.0838,-0.055 -0.12708,-0.002 l 0.0632,-2.7e-4 0.0639,0.002"
       style="fill:#dfa6a8;fill-opacity:1;fill-rule:nonzero;stroke:none;stroke-width:0.0300066"
       id="path815" />
    <path
       d="m 100.70403,148.09288 c -0.0433,-1.28812 -0.0996,-2.57595 -0.16805,-3.86352 -0.0157,-0.29523 -0.669175,-0.22293 -0.655425,0.0349 0.241415,4.54468 0.326575,9.09514 0.252885,13.64394 -0.0213,1.28867 -0.0551,2.57706 -0.10122,3.86489 -0.0105,0.29441 0.64626,0.22568 0.65543,-0.0346 0.1628,-4.54715 0.16934,-9.09816 0.0163,-13.64559"
       style="fill:#ffffff;fill-opacity:1;fill-rule:nonzero;stroke:none;stroke-width:0.0300066"
       id="path817"
       sodipodi:nodetypes="ccccccc" />
    <path
       d="m 102.386,149.86259 c -0.11562,-1.08525 -0.25942,-2.1683 -0.4291,-3.2486 -0.0272,-0.17235 -0.67606,-0.0514 -0.64527,0.14514 0.59615,3.79122 0.85949,7.619 0.77466,11.44266 -0.024,1.07425 -0.0757,2.14768 -0.15264,3.22001 -0.0154,0.21166 0.63152,0.10363 0.64397,-0.0709 0.27514,-3.82668 0.21421,-7.66958 -0.19162,-11.48829"
       style="fill:#ffffff;fill-opacity:1;fill-rule:nonzero;stroke:none;stroke-width:0.0300066"
       id="path819"
       sodipodi:nodetypes="ccccccc" />
    <path
       d="m 102.3395,144.89596 c -0.0108,-0.0245 -0.0305,-0.0434 -0.0593,-0.0564 -0.0298,-0.0168 -0.0629,-0.0269 -0.0983,-0.0305 -0.039,-0.009 -0.0793,-0.011 -0.11988,-0.007 -0.0292,0.004 -0.0583,0.008 -0.0877,0.0129 -0.056,0.0124 -0.10777,0.0324 -0.15527,0.0605 -0.0187,0.014 -0.0377,0.028 -0.0564,0.042 -0.0308,0.0272 -0.0504,0.0591 -0.0583,0.0959 v 0.18637 c -0.006,0.0261 -3.2e-4,0.0497 0.0164,0.0709 0.0111,0.0247 0.0305,0.0434 0.0593,0.0566 0.0302,0.0168 0.0628,0.0269 0.0986,0.0302 0.039,0.009 0.0789,0.011 0.11956,0.007 0.0294,-0.004 0.0586,-0.009 0.0881,-0.0132 0.056,-0.0124 0.10777,-0.0324 0.15494,-0.0605 0.019,-0.014 0.038,-0.028 0.0566,-0.042 0.0308,-0.0272 0.0501,-0.0591 0.0583,-0.0957 v -0.18637 c 0.006,-0.0264 3.3e-4,-0.05 -0.0167,-0.0712"
       style="fill:#ffffff;fill-opacity:1;fill-rule:nonzero;stroke:none;stroke-width:0.0300066"
       id="path821"
       sodipodi:nodetypes="ccccccccccccccccccc" />
    <path
       d="m 101.65622,138.37897 c -0.11988,-0.0665 -0.29774,-0.0399 -0.4232,0.005 -0.0629,0.0228 -0.13364,0.0506 -0.17523,0.0984 -0.0229,0.0261 -0.0461,0.0759 -0.004,0.0995 0.42975,0.23723 0.68131,0.64626 0.66886,1.07783 -9.3e-4,0.0396 0.0947,0.0596 0.12152,0.0635 0.075,0.0107 0.16737,0.001 0.23944,-0.0162 0.11104,-0.0269 0.28104,-0.0778 0.28432,-0.19215 0.0128,-0.44641 -0.26794,-0.89118 -0.71243,-1.13638"
       style="fill:#ffffff;fill-opacity:1;fill-rule:nonzero;stroke:none;stroke-width:0.0300066"
       id="path823" />
    <path
       d="m 127.26879,141.53384 c 0.0393,-0.28698 -0.63218,-0.51624 -0.87785,-0.57754 -0.55028,-0.13882 -1.27417,-0.14404 -1.84084,-0.0693 -0.59287,0.0781 -1.24469,0.19819 -1.72946,0.4794 -0.11792,0.0783 -0.23584,0.15669 -0.35705,0.2353 -0.18342,0.14432 -0.2653,0.31502 -0.24565,0.51239 -0.0262,0.18417 -0.0524,0.36807 -0.0786,0.55197 -0.4291,2.80713 -1.14643,5.58897 -2.14219,8.31502 -0.94007,2.5787 -2.13236,5.10654 -3.55722,7.55798 -0.50115,-1.25266 -0.99903,-2.50504 -1.49691,-3.75741 -1.0973,-2.75326 -2.1946,-5.50624 -3.29189,-8.2595 l -1.86049,-4.66315 c -0.12447,-0.3175 -0.46841,-0.47556 -0.87457,-0.57781 -0.55356,-0.13827 -1.27745,-0.14349 -1.84085,-0.069 -0.59287,0.0783 -1.24797,0.19791 -1.72947,0.47967 -0.27513,0.16054 -0.72717,0.44257 -0.60597,0.74742 1.10384,2.76315 2.20442,5.52657 3.30499,8.28999 l 3.2919,8.25922 c 0.61908,1.55475 1.23815,3.10895 1.85722,4.66316 0.27514,0.69078 1.61155,0.71827 2.37802,0.66879 0.53391,-0.0341 1.10714,-0.11353 1.58863,-0.29605 0.1605,-0.0684 0.321,-0.13689 0.4815,-0.20507 0.25222,-0.12177 0.44221,-0.28423 0.56339,-0.48846 1.926,-2.58612 3.57359,-5.28606 4.92312,-8.06817 1.35277,-2.79147 2.41077,-5.6632 3.15432,-8.58001 0.43564,-1.70401 0.75664,-3.4226 0.98593,-5.14888"
       style="fill:#ebc532;fill-opacity:1;fill-rule:nonzero;stroke:none;stroke-width:0.0300066"
       id="path741" />
    <path
       d="m 124.64509,143.0086 c -0.58959,2.56798 -1.40847,5.106 -2.45663,7.59096 -1.04162,2.47287 -2.30924,4.89324 -3.78977,7.23829 -0.73699,1.16881 -1.52969,2.31756 -2.37149,3.44624 -2.57783,-4.6277 -4.86741,-9.34447 -6.8491,-14.13324 -0.58304,-1.40329 -1.1366,-2.81291 -1.66396,-4.22774 -0.0557,-0.14459 -0.68786,-0.017 -0.63545,0.12699 1.86049,4.97736 4.04527,9.88708 6.54448,14.70556 0.71079,1.36975 1.44778,2.73181 2.2077,4.08644 0.0753,0.1358 0.53719,0.0288 0.60925,-0.0665 1.7262,-2.26258 3.25257,-4.60982 4.55624,-7.02607 1.31021,-2.42751 2.39768,-4.92237 3.25259,-7.46067 0.48477,-1.4371 0.89094,-2.88767 1.22504,-4.34814 0.0393,-0.15888 -0.59614,-0.077 -0.6289,0.0679"
       style="fill:#ffffff;fill-opacity:1;fill-rule:nonzero;stroke:none;stroke-width:0.0300066"
       id="path743" />
    <path
       d="m 132.97191,148.43379 c 0.26547,-0.86782 0.63783,-1.70292 1.16306,-2.4748 0.0684,-0.10033 0.14393,-0.19819 0.21878,-0.2966 -0.4574,1.00581 -0.85186,2.03141 -1.19056,3.0691 -0.0435,-0.10721 -0.10914,-0.20699 -0.19128,-0.2977 z m -0.54866,3.00642 c 0.0234,-0.26554 0.051,-0.53108 0.0854,-0.79607 0.079,-0.19022 0.15955,-0.37989 0.25104,-0.56709 -0.12371,0.45246 -0.23607,0.90685 -0.3365,1.36316 z m -1.68764,-2.78212 c -0.0902,0.40876 -0.16342,0.82054 -0.22483,1.23424 -0.4175,1.01378 -0.69323,2.06604 -0.81669,3.13315 -0.0909,0.0159 -0.18261,0.0283 -0.2741,0.0429 0.0489,-1.08938 0.23352,-2.16775 0.53509,-3.18565 0.28472,-0.961 0.70155,-1.90194 1.24408,-2.78459 -0.19231,0.51238 -0.34776,1.03522 -0.46355,1.55997 z m -1.25583,6.29516 c 0.0493,0 0.0995,-0.004 0.14968,-0.009 0.0336,0.72295 0.13882,1.4426 0.30299,2.15263 -0.22647,-0.69684 -0.37233,-1.41649 -0.45267,-2.14384 z m 6.26082,-7.13026 c 0.67443,-1.70264 1.52835,-3.35223 2.52968,-4.93667 0.12317,-0.19544 0.12775,-0.43074 0.0491,-0.6534 0.83754,-0.0426 1.60632,0.16548 1.92797,0.89283 0.59188,1.33897 -0.36654,2.9957 -1.13268,4.14362 -1.08256,1.62293 -2.6381,2.98938 -4.46921,4.00866 0.28661,-1.16771 0.64767,-2.32443 1.0951,-3.45504 z m 11.65691,10.67711 c 0.21389,-0.78755 -1.95875,-0.77408 -2.22866,-0.0487 -0.21259,0.57066 -0.48214,1.03466 -0.89323,1.52259 -0.42909,0.50881 -0.79333,0.82795 -1.38456,1.21526 -0.1379,0.0904 -0.28006,0.17538 -0.42418,0.25922 -0.0193,0.011 -0.0249,0.0146 -0.0246,0.0151 -0.01,0.005 -0.0229,0.0115 -0.0413,0.0206 -0.0815,0.0415 -0.16312,0.083 -0.24632,0.12233 -0.15199,0.0723 -0.30659,0.14046 -0.46446,0.20369 -0.0858,0.0346 -0.17231,0.0679 -0.26008,0.0998 -0.0255,0.009 -0.0514,0.0181 -0.0744,0.0258 -0.12808,0.0393 -0.25681,0.0751 -0.38652,0.10913 -0.10154,-0.0382 -0.20831,-0.0679 -0.31936,-0.0811 -1.58927,-0.18885 -3.00201,-1.11659 -4.16384,-1.9888 -1.09828,-0.82438 -2.13976,-1.81534 -2.44107,-3.06305 -0.17276,-0.71525 -0.10329,-1.47119 -0.0214,-2.19166 0.0384,-0.33591 0.087,-0.67072 0.1382,-1.00553 2.60892,-1.10614 4.85166,-2.814 6.43013,-4.89461 1.14349,-1.50748 2.1566,-3.4292 1.87622,-5.25774 -0.15821,-1.03494 -0.71243,-1.95993 -1.73766,-2.57485 -0.97611,-0.58468 -2.20278,-0.68996 -3.36036,-0.54593 -2.18117,0.27159 -4.192,1.48631 -5.67519,2.80356 -1.46671,1.30269 -2.5645,2.91461 -3.2653,4.60269 -1.47719,3.55976 -1.59682,7.75122 0.18169,11.25738 1.07735,2.12349 2.84178,3.94791 5.40166,4.88692 1.54021,0.56489 3.27788,0.7694 4.91039,0.50469 1.84707,0.17812 3.74392,-0.17923 5.30143,-1.20537 1.57192,-1.03577 2.49856,-2.54984 3.34005,-4.03367 0.21061,-0.3711 0.0924,-0.6207 -0.16738,-0.75786"
       style="fill:#e7c2a9;fill-opacity:1;fill-rule:nonzero;stroke:none;stroke-width:0.0300066"
       id="path667" />
    <path
       d="m 161.2429,161.22576 c -0.38355,0.34416 -0.81986,1.11082 -0.97676,1.36399 -0.20374,0.32849 -0.41599,0.66769 -0.86179,0.79661 -1.21325,0.35076 -2.47498,0.41646 -3.72852,0.29386 -1.63416,-0.15944 -2.8022,-1.03577 -3.89328,-1.99842 -0.58664,-0.51734 -0.92927,-1.14985 -1.25518,-1.79445 -0.006,-0.006 -0.009,-0.0121 -0.0141,-0.0181 0.054,-0.14624 -0.0279,-0.29358 -0.0531,-0.43817 -0.11071,-0.64543 -0.19555,-1.28756 -0.0337,-1.93959 0.4006,-1.61276 1.62073,-2.76782 3.05442,-3.74147 1.64792,-1.11988 3.90934,-1.34391 5.79473,-0.55307 0.52931,0.22211 1.40519,0.84775 2.00854,0.58936 0.87588,-0.37467 0.55094,-1.45745 0.61252,-2.09271 0.0501,-0.51926 0.0868,-1.03961 0.1022,-1.56052 0.0229,-0.7881 9.3e-4,-1.57867 -0.18769,-2.35165 -0.49362,-2.02261 -1.71014,-3.46411 -4.22542,-3.98969 -1.79957,-0.37576 -4.40917,0.88101 -4.59948,2.34835 -0.057,0.44147 -0.36424,1.24138 -1.01967,1.20263 -0.26892,-0.0159 -0.51327,-0.14734 -0.69801,-0.31475 -0.0694,-0.063 -0.13397,-0.13414 -0.15722,-0.21826 -0.0259,-0.0915 -6.6e-4,-0.18747 0.0275,-0.27846 0.24403,-0.78535 0.72552,-1.40714 1.33936,-2.01436 0.58893,-0.58303 1.21652,-1.12236 2.10157,-1.38707 1.81464,-0.5429 3.64107,-0.56187 5.4521,-0.0399 1.68034,0.48407 3.03772,1.37085 3.82089,2.73291 0.84181,1.46322 1.1913,3.05975 1.26141,4.6835 0.0649,1.51105 -0.006,3.02429 -0.10679,4.53506 -0.0167,0.24822 -0.6859,9.27519 -0.52146,9.29223 -0.72618,0.0115 -1.45269,0.0124 -2.1792,0.002 -0.0399,-5.5e-4 -0.0828,-0.002 -0.11399,-0.0239 -0.036,-0.0256 -0.0426,-0.0698 -0.0465,-0.1094 -0.0855,-0.84527 -0.17098,-1.69082 -0.25647,-2.53609 -0.0731,-0.72048 -0.34361,-0.71278 -0.64692,-0.44092 z m 4.76129,-1.67102 c 0.005,-0.1828 0.0105,-0.3656 0.0193,-0.54785 0.0986,-2.05477 0.26565,-4.10707 0.32297,-6.16293 0.0603,-2.14576 -0.25254,-4.23077 -1.00263,-6.28801 -0.56635,-1.552 -1.69344,-2.68563 -3.17104,-3.63151 -1.56078,-0.99921 -3.36034,-1.2653 -5.25327,-1.21995 -1.39505,0.0333 -2.76355,0.2419 -3.89361,0.97915 -1.41928,0.92581 -2.38949,2.16445 -3.02788,3.57956 -0.14806,0.32793 -0.16837,0.6993 -0.0315,1.05116 0.28432,0.73037 0.96923,1.21499 1.74978,1.24578 1.0105,0.0399 1.72227,-0.31447 2.12581,-1.07068 0.20996,-0.39364 0.31478,-0.81723 0.4435,-1.23314 0.21783,-0.70453 1.49593,-1.47971 2.33054,-1.37387 2.48448,0.31447 3.92603,1.74634 4.23,3.68759 0.20406,1.30323 -0.0167,2.60371 -0.0943,3.90502 -0.006,0.10088 -0.0206,0.19792 -0.14248,0.25152 -1.7881,-1.67763 -5.01907,-1.19713 -7.08494,-0.20452 -1.6774,0.80569 -2.90736,2.07979 -3.56737,3.61585 -0.33737,0.7848 -0.49362,1.59021 -0.62824,2.41377 -0.30987,1.89973 1.06126,3.59935 2.75241,4.71044 1.99315,1.309 4.0754,1.7249 6.55366,1.54155 0.92959,-0.0687 1.75731,-0.38923 2.49791,-0.86396 0.0642,0.29193 0.14182,0.60942 0.31838,0.87386 0.13725,0.20479 0.35474,0.38264 0.62432,0.43542 0.15754,0.0308 0.32132,0.0179 0.48182,0.005 0.44285,-0.0357 0.88505,-0.0715 1.32789,-0.10748 0.45366,-0.0363 0.91715,-0.0751 1.33085,-0.23778 0.9951,-0.39034 0.80021,-1.17238 0.80348,-1.95361 0.006,-1.13363 -0.0426,-2.26725 -0.0154,-3.40061"
       style="fill:#e2a56d;fill-opacity:1;fill-rule:nonzero;stroke:none;stroke-width:0.0300066"
       id="path915" />
    <path
       d="m 159.49377,155.95099 c 0.57781,1.21499 -1.18082,3.33491 -2.10615,4.13345 -0.74617,0.64433 -1.5716,0.67952 -2.42454,0.15998 -1.66396,-1.01322 -1.81791,-1.73232 -0.85066,-3.37422 0.27286,-0.46318 0.67477,-0.85654 1.11302,-1.21994 0.62891,-0.52146 1.36917,-0.76528 2.24963,-0.68364 0.87293,0.0808 1.59846,0.19435 1.9961,0.94011 0.008,0.0146 0.0154,0.0294 0.0226,0.0443 z m 0.85491,-0.41426 c -0.10089,-0.1806 -0.23452,-0.3513 -0.40551,-0.50936 -1.19392,-1.10147 -3.62567,-1.45304 -5.03676,-0.48517 -0.74682,0.51238 -1.36359,1.10449 -1.8369,1.80242 -0.49821,0.73587 -0.82772,1.53634 -0.78055,2.38903 0.0593,1.08223 0.88471,1.78291 1.85623,2.36869 1.39144,0.83895 3.00365,0.69931 4.1455,-0.38511 1.21587,-1.15507 2.96205,-3.56279 2.058,-5.18049"
       style="fill:#e2a56d;fill-opacity:1;fill-rule:nonzero;stroke:none;stroke-width:0.0300066"
       id="path917" />
    <path
       d="m 190.92873,154.71486 c -0.14217,-0.007 -0.1854,-0.0899 -0.19392,-0.17867 -0.0426,-0.43927 0.0579,-0.87276 0.12578,-1.30626 0.02,-0.12617 0.22896,-0.19709 0.37243,-0.27873 v 0 c 0.21421,-0.56462 0.19751,-1.14957 0.29185,-1.72436 0.12741,-0.776 0.15789,-1.55997 0.22994,-2.34065 v 0 c 3.3e-4,0 0.0465,-8.6e-4 0.0465,-8.6e-4 l 0.0468,5.5e-4 c 0.0632,1.05419 -0.12545,2.09738 -0.27743,3.1425 -0.0592,0.40793 -0.0396,0.82218 -0.22274,1.21884 -0.0731,0.43349 -0.14476,0.86671 -0.22043,1.29938 -0.0148,0.0827 -0.0396,0.17675 -0.19883,0.16823 z m -9.96839,6.30973 c -0.77761,-1.31368 -1.42486,-2.55534 -1.49724,-3.88551 -0.0315,-0.58138 -0.0331,-1.19108 0.28333,-1.75954 0.19817,-0.35653 0.41665,-0.40601 0.88833,-0.21029 0.24467,0.10143 0.39404,0.25399 0.52244,0.42552 0.71636,0.95743 0.76942,1.9811 0.57617,3.01852 -0.14609,0.78397 -0.32822,1.5674 -0.77303,2.4113 z m -5.67549,3.70078 c 0.51295,-0.001 1.08485,0.28093 1.44581,0.67759 -0.65118,-0.0676 -1.0023,-0.36202 -1.44581,-0.67759 z m -0.26171,-2.77194 c 0.17949,0.38181 0.35932,0.76473 0.53981,1.14819 v 0 c 0.10841,0.0855 0.20963,0.1729 0.15426,0.33564 -0.10185,-0.10391 -0.1808,-0.18445 -0.25973,-0.26527 -0.0596,-0.0709 -0.10679,-0.14871 -0.18016,-0.21193 -0.34524,-0.29661 -0.59288,-0.60503 -0.25418,-1.00663 z m -0.73896,1.71308 c 0.22404,0.0805 0.32985,0.20781 0.34524,0.42745 -0.24207,-0.1292 -0.29938,-0.27571 -0.34524,-0.42745 z m -2.49726,-4.70906 c -0.31609,-0.87276 -0.66427,-1.74085 -0.82281,-2.6378 -0.0259,-0.039 -0.0469,-0.0759 -0.0396,-0.10309 -0.14674,-0.36394 -0.22273,-0.73696 -0.26433,-1.11383 0,-2.8e-4 0,-2.8e-4 0,-2.8e-4 -0.13265,-0.2977 -0.20505,-0.60117 -0.1284,-0.92141 0.0773,0.28313 0.1546,0.56654 0.23223,0.84994 0.10154,0.38099 0.20308,0.76226 0.30463,1.1438 0.27416,0.87991 0.54865,1.76009 0.82281,2.64 0.0131,0.0206 0.0249,0.0409 0.0321,0.0594 0.16345,0.28094 0.25648,0.57534 0.25582,0.89366 -0.13069,-0.26994 -0.26171,-0.54016 -0.3924,-0.81037 z m -1.33248,-9.63969 c -0.1795,-0.18005 -0.0697,-0.38319 -0.0927,-0.57588 -0.002,-0.11958 -0.005,-0.2386 -0.006,-0.35818 v 0 c -0.22077,-0.48242 -0.0662,-0.98656 -0.1795,-1.47971 -0.0927,-0.4038 -0.0193,-0.82603 0.0475,-1.24275 0.15888,0.90409 0.25811,1.81012 0.23879,2.72219 0.59385,0.24849 0.43596,0.68831 0.47822,1.04704 0.096,0.81393 0.0953,1.63309 0.13397,2.45005 0,2.7e-4 0,2.7e-4 3.3e-4,2.7e-4 0.18376,0.22981 0.0675,0.47941 0.0956,0.71938 0.002,0.0467 0.003,0.0932 0.005,0.13992 0,2.7e-4 0,2.7e-4 0,5.5e-4 0.14511,0.42332 0.16673,0.85627 0.20636,1.28784 6.6e-4,0.003 0.002,0.006 0.003,0.008 0.004,0.008 0.007,0.0173 0.0105,0.0256 0.0154,0.0333 0.0367,0.0679 0.0386,0.0979 0.10285,0.30429 0.0924,0.61766 0.1212,0.92911 -0.0983,-0.28313 -0.28956,-0.54977 -0.27777,-0.8483 -0.007,-0.33893 -0.23845,-0.6545 -0.20668,-0.99728 -0.006,-0.0217 -0.007,-0.044 -0.004,-0.066 0,0 0,0 -3.3e-4,-2.8e-4 -0.15002,-0.10528 -0.0855,-0.23915 -0.097,-0.36285 -0.28268,-1.15754 -0.4743,-2.32168 -0.51427,-3.49682 z m -0.73208,-5.91691 c -0.10448,0.0195 -0.14478,-0.0377 -0.16016,-0.0943 -0.0161,-0.0596 0.006,-0.1149 0.10973,-0.12782 0.097,-0.0118 0.15198,0.0214 0.16901,0.0882 -0.005,0.0597 -0.0285,0.1171 -0.11858,0.13387 z m 1.24208,-0.29385 c 0.11464,-0.0157 0.34229,-0.14019 0.40616,0.0654 0.092,0.29495 -0.16639,0.39473 -0.62791,0.45493 0.15493,-0.18582 -0.33934,-0.44394 0.22175,-0.52036 z m 19.43529,0.12287 c -0.0163,-0.0926 -0.0223,-0.1762 0.13168,-0.18967 0.19849,-0.0176 0.19587,0.0907 0.20242,0.18857 0.0279,0.43597 -0.0596,0.86424 -0.17393,1.29416 0.002,-0.43541 -0.0849,-0.86396 -0.16017,-1.29306 z m -0.12087,14.67971 c 3.3e-4,0.32794 0.15526,0.66385 -0.12479,1.01351 -0.12282,-0.37027 0.13691,-0.68474 0.12479,-1.01351 z m 2.2493,-14.01146 c -0.006,-0.0157 -0.0111,-0.0316 -0.017,-0.047 -0.10481,-0.30292 -0.16705,-0.60832 -0.34328,-0.89448 v -2.7e-4 c 0.52342,0.009 0.34294,0.30072 0.40355,0.49534 0,0.1861 0,0.37247 0,0.55884 -0.0154,-0.0374 -0.0295,-0.075 -0.0433,-0.11242 z m -0.47658,1.26832 c -0.15755,0.0621 -0.0416,0.19957 -0.19849,0.31474 0,-0.65395 0,-1.26887 0,-1.88351 0.0197,0.0547 0.0367,0.10968 0.0531,0.16466 0.13691,0.46263 0.15656,0.93241 0.14543,1.40384 0,0 0,0 0,2.7e-4 z m 1.55063,-0.13744 c -0.0219,-0.42113 -0.039,-0.84253 -0.0367,-1.26393 0,-0.011 -9.3e-4,-0.022 -0.002,-0.0327 -0.006,-0.42139 -0.17885,-0.8373 0.0705,-1.26282 0.10285,-0.17483 -0.23157,-0.29523 -0.36259,-0.44202 -3.4e-4,-2.7e-4 -3.4e-4,-2.7e-4 -3.4e-4,-2.7e-4 0,0 -0.002,0.003 -9.3e-4,0.003 -3.2e-4,0 -3.2e-4,0 -3.2e-4,0 -0.0868,-0.0127 -0.17393,-0.0234 -0.26073,-0.0346 -0.84115,-0.10831 -1.68624,-0.15311 -2.53722,-0.0687 -0.0832,0.008 -0.1664,0.0157 -0.24992,0.0264 -0.17459,0.0445 -0.35179,0.0855 -0.52441,0.13442 -0.85327,0.2419 -0.99838,0.39941 -1.00886,1.03687 -0.0334,2.11771 0.0488,4.23543 -0.0727,6.35398 -0.11104,1.92557 0.0174,3.85444 -0.10121,5.78249 -0.0819,1.32962 -0.0324,2.66419 -0.14019,3.99491 -0.0714,0.8887 -0.23257,1.76999 -0.54701,2.63615 -0.32461,0.892 -1.14906,1.54926 -2.03901,2.17737 -0.17197,0.1215 -0.39372,0.11188 -0.6217,0.0805 -1.18475,-0.16136 -2.11401,-0.61657 -2.89752,-1.23699 -0.34786,-0.27543 -0.4648,-0.55746 -0.26335,-0.94285 0.84901,-1.6243 1.24437,-3.30413 0.97577,-5.03398 -0.14543,-0.93516 -0.52703,-1.82139 -1.57552,-2.48277 -0.96858,-0.61134 -2.23915,-0.45576 -2.79697,0.36835 -0.69146,1.02147 -0.72684,2.11992 -0.54439,3.21259 0.22405,1.34336 0.8595,2.61883 1.62859,3.84757 0.4078,0.65148 0.29676,1.18283 -0.23813,1.7271 -0.2021,0.20534 -0.42516,0.40106 -0.61154,0.613 -0.21029,0.23915 -0.37669,0.19022 -0.54636,-0.0148 -0.077,-0.0924 -0.15133,-0.18555 -0.22339,-0.27984 -0.95612,-1.2576 -1.47464,-2.6323 -2.09535,-3.97457 -0.68883,-1.48932 -1.13889,-3.02429 -1.48446,-4.57629 -0.4042,-1.81727 -0.73896,-3.64113 -0.94302,-5.4716 -0.16115,-1.44314 -0.23977,-2.89427 -0.25156,-4.34566 -0.007,-0.90108 -0.11595,-1.80215 -0.19293,-2.7024 -0.0285,-0.33509 -0.25025,-0.50332 -0.78187,-0.56709 -0.94269,-0.11298 -1.85984,0.009 -2.78386,0.0451 -0.57191,0.022 -1.20702,0.0148 -1.61221,0.40518 h -3.2e-4 c -0.009,0.088 -0.0148,0.17593 -0.0229,0.26417 -0.0197,0.21441 -0.0396,0.42854 -0.0557,0.64295 -0.0609,0.81779 -0.0937,1.63612 -0.1058,2.45418 -0.007,0.40848 -0.007,0.81641 -0.004,1.22434 0.0105,1.10312 0.0524,2.20568 0.11628,3.30605 9.3e-4,0.0217 0.002,0.0437 0.004,0.0657 0.009,0.15504 0.0184,0.31062 0.0281,0.46593 0.018,0.27736 0.0377,0.55472 0.059,0.8318 9.3e-4,0.01 0.002,0.0192 0.002,0.0289 0.0141,0.17758 0.0285,0.35488 0.0446,0.53218 0.021,0.23228 0.0442,0.46456 0.0697,0.69684 0.015,0.14184 0.0315,0.28368 0.0485,0.42552 0.0252,0.20616 0.0524,0.41233 0.0819,0.61794 0.007,0.042 0.0114,0.0838 0.0177,0.12618 0.0465,0.31474 0.0989,0.62948 0.15754,0.9434 0.039,0.088 0.0498,0.17978 0.054,0.27269 0.17066,0.8505 0.39176,1.69714 0.68656,2.53637 0.0321,0.091 0.0216,0.18939 0.0315,0.28396 l -0.003,-0.002 v 0 c 0.13691,0.1795 0.20242,0.37137 0.2057,0.57423 -6.6e-4,-5.5e-4 -9.3e-4,-0.001 -0.002,-0.001 0.22109,0.31694 0.34458,0.6534 0.40977,1.00196 l -0.003,-0.003 c 0,0 0,0 0,2.8e-4 0.24632,0.36587 0.43401,0.74494 0.50967,1.14819 0.0101,0.0761 -0.015,0.16026 0.0976,0.21331 0.2129,0.16136 0.2676,0.3645 0.3056,0.57149 3.2e-4,0.13909 0.0645,0.26087 0.2034,0.36148 0,0 0,0 0,-2.8e-4 0.18737,0.14047 0.29644,0.3043 0.3102,0.49754 0.0246,0.10886 0.0838,0.20589 0.19915,0.28341 v 0 c 0.19752,0.0792 0.26892,0.21084 0.30331,0.35818 0.17098,0.29385 0.45529,0.53712 0.7157,0.79084 v 0 c 0.22438,0.13717 0.41076,0.29385 0.51393,0.49315 0.15362,0.069 0.28858,0.14761 0.30234,0.28918 0.0678,0.0492 0.13527,0.0987 0.20242,0.14761 0,0 3.3e-4,0 3.3e-4,2.7e-4 0,-2.7e-4 -3.3e-4,-2.7e-4 -3.3e-4,-2.7e-4 0.41108,0.23338 0.78547,0.49259 1.11859,0.78095 0.36162,0.22073 0.74715,0.41288 1.22177,0.49672 0,2.7e-4 3.2e-4,2.7e-4 3.2e-4,2.7e-4 0.33935,0.0236 0.67902,0.0476 1.01869,0.0709 -3.3e-4,5.5e-4 -9.3e-4,0.001 -0.002,0.002 v 0 c 0.14969,-0.10088 0.33804,-0.0591 0.51262,-0.0685 0.52442,-0.12892 0.99412,-0.32436 1.41895,-0.57478 v 0 c 0.10023,-0.10776 0.22438,-0.1949 0.40847,-0.22926 0.13068,-0.091 0.26105,-0.18197 0.39142,-0.27296 0,-2.7e-4 3.3e-4,-2.7e-4 3.3e-4,-5.5e-4 0.0973,-0.19077 0.31838,-0.30815 0.52735,-0.43239 0.30102,-0.33262 0.60205,-0.66523 0.90274,-0.99784 3.2e-4,0 3.2e-4,0 3.2e-4,0 0.19326,-0.15586 0.26369,-0.13139 0.43074,0.14954 0.0321,0.0223 0.0635,0.0445 0.0953,0.0668 v 0 c 0.29218,0.0456 0.4458,0.20864 0.61678,0.35707 0.1913,0.0212 0.31806,0.10089 0.40355,0.21826 0.63906,0.33509 1.33347,0.57974 2.13892,0.64214 v 0 c 0.0727,0.006 0.14706,0.005 0.22109,0.004 0.20603,-0.005 0.41402,-0.0184 0.60466,0.066 3.3e-4,0 3.3e-4,0 6.5e-4,0 0.0606,0 0.12087,0 0.18147,0 0.36228,-0.10473 0.76025,-0.0662 1.13071,-0.13827 v 0 0 c 0.0992,-0.0253 0.19784,-0.0506 0.29676,-0.0756 0.14511,-0.0992 0.31936,-0.14624 0.52114,-0.14404 v 0 c 0.0609,-0.0247 0.12119,-0.0489 0.18211,-0.0734 0.042,-0.0377 0.0894,-0.0682 0.13954,-0.0959 0.0583,-0.0319 0.12217,-0.0572 0.19097,-0.0759 0.0629,-0.0173 0.12806,-0.0311 0.19882,-0.0379 0.44514,-0.20204 0.80152,-0.4772 1.20047,-0.71773 0.0328,-0.0517 0.0708,-0.1006 0.11268,-0.14761 0.0678,-0.0759 0.14642,-0.14624 0.23027,-0.21386 0.0593,-0.0484 0.12087,-0.0954 0.18408,-0.14129 v -2.8e-4 c 0.23093,-0.30897 0.46185,-0.61767 0.69278,-0.92636 0.0131,-0.0503 0.0265,-0.10061 0.0468,-0.14899 0.0167,-0.0396 0.039,-0.0778 0.0688,-0.1138 0.0279,-0.033 0.0622,-0.0643 0.10711,-0.0921 9.3e-4,-0.0448 0.0101,-0.0869 0.0236,-0.12782 0.0101,-0.0305 0.0236,-0.0594 0.041,-0.0877 0.0331,-0.0525 0.078,-0.10171 0.14085,-0.14597 3.3e-4,0 3.3e-4,0 3.3e-4,0 -0.002,-0.0553 0.007,-0.10748 0.0806,-0.14102 0.0305,-0.13441 0.0757,-0.26444 0.22174,-0.36422 v -2.7e-4 c -6.5e-4,-0.21304 0.18016,-0.37962 0.29349,-0.56324 0.0275,-0.13442 0.0724,-0.26389 0.21684,-0.36395 3.2e-4,0 3.2e-4,0 3.2e-4,0 0.004,-0.0748 -0.0187,-0.15504 0.0891,-0.20782 0.0262,-0.13496 0.0708,-0.26526 0.21422,-0.36669 v -2.8e-4 c 9.3e-4,-0.0739 -0.0154,-0.15174 0.0836,-0.20616 0.0311,-0.12755 0.0763,-0.2518 0.12609,-0.37522 0.036,-0.0891 0.0753,-0.17758 0.1176,-0.26554 0.059,-0.1215 0.12119,-0.24272 0.18539,-0.36312 v -2.8e-4 c 0.007,-0.0968 -0.038,-0.20122 0.0822,-0.28148 0.0482,-0.11683 -0.0281,-0.2551 0.1212,-0.35515 0.007,-0.11985 0.0226,-0.23915 0.0446,-0.35736 0.005,-0.0269 0.008,-0.0541 0.0141,-0.0808 0.0315,-0.14404 0.078,-0.28615 0.1451,-0.42607 0,0 0,0 0,-2.7e-4 -0.007,-0.0209 -0.007,-0.0415 9.3e-4,-0.0624 0.0341,-0.24108 -0.0724,-0.49177 0.10056,-0.72323 v -2.7e-4 c 3.2e-4,-0.0685 6.6e-4,-0.1369 9.3e-4,-0.20534 0.0409,-0.40573 -0.0828,-0.81861 0.10285,-1.21857 v 0 l -0.002,0.002 c 0.0439,-0.45439 -0.0806,-0.91482 0.10252,-1.36398 0,-2.8e-4 0,-5.5e-4 0,-8.6e-4 3.4e-4,-0.11628 6.6e-4,-0.23283 9.3e-4,-0.3491 0.0344,-0.38182 -0.0767,-0.76996 0.10188,-1.14573 -6.6e-4,2.8e-4 -9.3e-4,5.5e-4 -9.3e-4,8.6e-4 0.021,-0.83703 0.038,-1.67405 0.059,-2.51053 0.003,-0.11903 0.006,-0.23805 0.009,-0.3568 0.0128,-0.49287 0.0268,-0.98574 0.0448,-1.47834 0.0341,-0.93351 -0.0412,-1.86454 -0.0898,-2.79641"
       style="fill:#d2d1f1;fill-opacity:1;fill-rule:nonzero;stroke:none;stroke-width:0.0300066"
       id="path431" />
    <path
       d="m 193.3752,155.02988 c 0.0406,-0.047 0.0553,-0.0957 0.0596,-0.14541 -0.0163,0.0487 -0.0347,0.097 -0.0596,0.14541"
       style="fill:#d2d1f1;fill-opacity:1;fill-rule:nonzero;stroke:none;stroke-width:0.0300066"
       id="path433" />
    <path
       d="m 199.14616,164.36683 c -0.26564,0.0646 -0.52408,0.0726 -0.793,0.0467 -0.0105,-8.5e-4 -0.0311,-0.007 -0.0534,-0.0132 -0.0635,-0.0888 -0.20504,-0.1718 -0.2758,-0.25234 -0.73274,-0.83236 -1.03212,-2.03855 -1.17853,-3.15706 0.0459,0.12205 0.0877,0.24547 0.14281,0.3645 0.56896,1.22543 1.64693,2.31646 2.93486,2.71174 -0.24861,0.12837 -0.50737,0.2342 -0.77695,0.29963 z m 11.91175,0.35323 c -0.18867,-0.1072 -0.75468,-0.43679 -0.9915,-0.2889 -0.42418,0.26444 -0.90437,0.39473 -1.3957,0.31501 -0.35801,-0.058 -0.5968,-0.35295 -0.8097,-0.63608 -0.66494,-0.88348 -0.91683,-2.0523 -1.04523,-3.14634 -0.16966,-1.44727 -0.10907,-2.91406 0.14872,-4.34731 0.39273,-1.07398 0.72126,-2.17188 0.96693,-3.29066 0.0783,-0.3568 -1.38292,-0.99618 -1.50444,-0.70701 -0.44908,1.06876 -0.78941,2.21421 -0.99968,3.38632 -0.5634,1.51819 -1.26763,2.98196 -2.11533,4.36023 -0.65053,1.05749 -1.36623,2.13147 -2.30237,2.9476 -0.18998,-0.20341 -0.43532,-0.36202 -0.64888,-0.36587 -1.13071,-0.0212 -1.87523,-0.85902 -2.21916,-1.9143 -0.4648,-1.42638 -0.22797,-3.03034 0.0514,-4.48036 0.54734,-2.84204 1.61025,-5.57083 3.11862,-8.02831 0.77073,-1.25595 1.66036,-2.42971 2.6417,-3.51881 9.3e-4,0.002 0.002,0.003 0.004,0.004 0.0302,0.0467 0.0705,0.0695 0.12152,0.0685 l 0.3852,0.0113 c 0.0249,-0.0272 0.0331,-0.0588 0.0249,-0.0943 0.002,-0.0621 -0.007,-0.12315 -0.0272,-0.18252 -0.0223,-0.0896 -0.0504,-0.17703 -0.0845,-0.26252 -0.0157,-0.0445 -0.036,-0.0866 -0.0538,-0.13002 -0.0108,-0.11958 -0.0734,-0.2485 -0.16869,-0.37027 -9.3e-4,-0.001 -9.3e-4,-0.003 -0.002,-0.004 -0.004,-0.007 -0.009,-0.0132 -0.0128,-0.0206 0.10973,-0.0451 0.22109,-0.0855 0.3377,-0.11353 0.094,-0.0225 0.20734,-0.014 0.30987,-0.019 0.0547,0.0761 0.13102,0.16795 0.15263,0.22183 0.0626,0.15669 0.0812,0.31612 0.0662,0.48518 -0.0406,0.45548 1.48872,0.87743 1.50412,0.707 0.12414,-1.38927 -1.75273,-2.24251 -2.87034,-2.26011 -1.40782,-0.0223 -2.51199,1.37003 -3.35052,2.37254 -1.99971,2.39013 -3.48679,5.22915 -4.32893,8.25289 -0.44514,1.59653 -0.73044,3.25794 -0.73273,4.91578 -0.002,1.50609 0.17327,3.1653 0.92729,4.47733 0.73503,1.27849 2.21917,2.21063 3.68955,2.18919 1.40618,-0.0203 2.62598,-1.05034 3.513,-2.09738 0.73469,-0.86726 1.37112,-1.8475 1.93222,-2.86348 0.0557,0.44586 0.132,0.88733 0.23649,1.32055 0.32165,1.33759 1.01148,2.47782 2.17167,3.18785 1.08124,0.66192 2.58766,1.15946 3.76881,0.4225 0.22667,-0.14157 -0.32264,-0.45466 -0.40878,-0.50387"
       style="fill:#c1d9c8;fill-opacity:1;fill-rule:nonzero;stroke:none;stroke-width:0.0300066"
       id="path919" />
    <path
       d="m 229.50555,147.15484 c -0.12153,-0.80267 -0.19752,-1.66416 -0.46906,-2.46188 l -0.0154,-0.50084 c 0.056,-7.8e-4 0.11202,-0.002 0.1677,-0.003 0.0547,0.005 0.10842,0.014 0.16279,0.0206 6.6e-4,0.0129 9.3e-4,0.0261 0.002,0.039 0.0504,0.83896 0.0966,1.67818 0.13823,2.51768 0.007,0.14102 0.0118,0.28231 0.0187,0.4236 -0.002,-0.0115 -0.004,-0.0234 -0.005,-0.0349 z m 1.81201,-2.26176 c -0.0301,-0.51294 -0.036,-1.03301 -0.10024,-1.54376 -0.0452,-0.35899 -0.1618,-0.74576 -0.53587,-0.96264 -0.46839,-0.27159 -1.16215,-0.33124 -1.71309,-0.31722 -0.23846,0.006 -0.48281,0.0261 -0.69015,0.10033 -0.009,-0.002 -0.0193,-0.006 -0.0292,-0.007 -0.23976,-0.0319 -0.50934,-0.0225 -0.72159,0.0888 -0.17656,0.0929 -0.38127,0.24987 -0.39372,0.43844 -0.0655,0.99454 -0.1307,1.98907 -0.1962,2.98361 -0.005,0.0599 -0.003,0.11545 0.002,0.16905 -0.15427,1.07288 -0.43368,2.13202 -0.85851,3.15349 -0.49231,1.18476 -1.2483,2.61444 -2.67446,3.19389 -1.57487,0.64021 -3.25455,-0.35954 -4.11405,-1.44149 -1.1258,-1.41676 -1.65577,-3.1862 -2.0816,-4.83002 -0.52506,-2.02892 -0.75434,-4.10294 -0.67311,-6.17805 0.0233,-0.59733 -0.76222,-0.7969 -1.33641,-0.63828 -0.28726,0.0195 -0.58469,0.0987 -0.7763,0.2298 -0.15035,-0.003 -0.34852,0.0371 -0.47331,0.0541 -0.40617,0.0553 -0.8274,0.16658 -1.14873,0.39171 -0.59614,0.41837 -0.49001,1.23176 -0.5149,1.82112 -0.0613,1.43929 0.0894,2.88492 0.44382,4.29398 0.34721,1.38103 0.88898,2.72907 1.61877,4.00096 0.67966,1.18504 1.52443,2.30245 2.80548,3.09109 1.35606,0.83455 3.12156,1.09762 4.73705,0.75154 0.43138,0.0281 0.87195,0.007 1.31708,-0.0764 1.91356,-0.35873 3.24866,-1.65647 4.08622,-3.0779 0.0695,2.15015 0.19718,4.30774 0.13265,6.45844 -0.0564,1.86317 -0.25516,3.8286 -1.25419,5.52465 -0.51622,0.87413 -1.35836,1.77301 -2.45271,2.12486 -0.62955,0.0907 -1.27287,0.099 -1.90602,0.0192 -1.75568,-0.47831 -2.97712,-2.12212 -3.47205,-3.51304 -0.14249,-0.40133 -0.63316,-0.58001 -1.10778,-0.50304 -0.40027,0.066 -0.94368,0.41233 -0.79988,0.81641 0.6266,1.76202 1.99315,3.52678 4.06033,4.29096 0.42615,0.15669 0.85917,0.26114 1.29251,0.31887 1.58339,0.66798 3.48614,0.82741 5.14781,0.26115 1.75371,-0.59651 2.83758,-1.93795 3.39311,-3.40859 0.16214,-0.42882 0.28203,-0.86589 0.37538,-1.3057 0.7324,-1.74553 0.9345,-3.66973 0.97184,-5.51806 0.0763,-3.74696 -0.14118,-7.51371 -0.35965,-11.25546"
       style="fill:#617e83;fill-opacity:1;fill-rule:nonzero;stroke:none;stroke-width:0.0300066"
       id="path959" />
  </g>
</svg>
