<?xml version="1.0" encoding="UTF-8" standalone="no"?>
<!-- Created with Inkscape (http://www.inkscape.org/) -->

<svg
   width="313.32401mm"
   height="37.312141mm"
   viewBox="0 0 313.32401 37.312141"
   version="1.1"
   id="svg21305"
   inkscape:version="1.1.1 (1:1.1+202109281949+c3084ef5ed)"
   sodipodi:docname="rm-upcoming-collection.svg"
   xmlns:inkscape="http://www.inkscape.org/namespaces/inkscape"
   xmlns:sodipodi="http://sodipodi.sourceforge.net/DTD/sodipodi-0.dtd"
   xmlns="http://www.w3.org/2000/svg"
   xmlns:svg="http://www.w3.org/2000/svg">
  <sodipodi:namedview
     id="namedview21307"
     pagecolor="#ffffff"
     bordercolor="#666666"
     borderopacity="1.0"
     inkscape:pageshadow="2"
     inkscape:pageopacity="0.0"
     inkscape:pagecheckerboard="0"
     inkscape:document-units="mm"
     showgrid="false"
     inkscape:zoom="0.71090067"
     inkscape:cx="145.58996"
     inkscape:cy="-156.84329"
     inkscape:window-width="1920"
     inkscape:window-height="970"
     inkscape:window-x="0"
     inkscape:window-y="27"
     inkscape:window-maximized="1"
     inkscape:current-layer="layer1" />
  <defs
     id="defs21302" />
  <g
     inkscape:label="Layer 1"
     inkscape:groupmode="layer"
     id="layer1"
     transform="translate(-215.51865,-190.13716)">
    <path
       d="m 337.13122,211.92402 c -0.0543,-1.35302 -0.0779,-2.71234 -0.18381,-4.06335 -0.0795,-1.01137 -0.2413,-2.05829 -0.74887,-2.96829 -0.50229,-0.89941 -1.38203,-1.55625 -2.46702,-1.68611 -1.10642,-0.13287 -2.22495,0.31948 -3.05603,0.97984 -2.06711,1.643 -2.05651,4.47941 -2.13392,6.81177 -0.0956,2.89894 -0.19164,5.79789 -0.2877,8.69682 -0.009,0.28669 -0.0189,0.57338 -0.0282,0.86033 -0.84243,0.15582 -1.70275,0.1881 -2.55678,0.10032 0.0331,-2.61147 0.0192,-5.22372 -0.0441,-7.83496 -0.065,-2.68992 -0.18154,-5.37882 -0.34922,-8.0652 -0.0875,-1.40269 -0.19087,-2.80463 -0.30611,-4.20582 l 0.38226,0.0696 c 0.0582,0.1117 0.18734,0.15129 0.31871,0.13692 0.28645,-0.0315 0.57313,-0.0628 0.85957,-0.094 0.30459,0.008 0.60895,0.0161 0.91353,0.0242 0.13642,0.93824 0.27308,1.87673 0.40949,2.81549 0.0331,0.22717 0.39688,0.25491 0.50758,0.0724 0.85503,-1.41303 2.32252,-2.50081 4.03258,-2.82532 1.65813,-0.31468 3.49805,0.18054 4.6786,1.33689 1.3669,1.33865 1.6251,3.33592 1.92314,5.08406 0.36259,2.12383 0.64474,4.25901 0.8452,6.40126 0.2002,2.13973 0.31997,4.286 0.35906,6.43329 0.004,0.17449 0.005,0.34873 0.007,0.52321 -0.92867,-0.0532 -1.85758,-0.10641 -2.78649,-0.15961 -0.0799,-2.81498 -0.17575,-5.62945 -0.28846,-8.44366 z m 3.31625,2.22016 c -0.19188,-2.2068 -0.46799,-4.40754 -0.82805,-6.59618 -0.31166,-1.89514 -0.55523,-4.00133 -1.88581,-5.54674 -1.1508,-1.33688 -3.08881,-2.01491 -4.8894,-1.84193 -1.83059,0.17599 -3.47534,1.15986 -4.54899,2.54492 -0.11347,-0.77939 -0.22693,-1.55878 -0.3404,-2.33817 -0.0129,-0.0887 -0.1001,-0.15758 -0.19163,-0.18457 -0.0434,-0.0865 -0.13289,-0.14121 -0.24282,-0.15053 -0.61121,-0.0512 -1.22568,-0.0164 -1.82705,0.0951 -0.0195,0.004 -0.0369,0.008 -0.053,0.0149 -0.29855,-0.0543 -0.59709,-0.10843 -0.89514,-0.16264 -0.15985,-0.029 -0.37266,0.0605 -0.35703,0.24559 0.22466,2.68285 0.39889,5.36898 0.52169,8.05738 0.12254,2.68839 0.19441,5.37881 0.21457,8.06922 0.0114,1.51011 0.006,3.02048 -0.0144,4.53034 -0.002,0.15406 0.12305,0.2471 0.27333,0.26702 1.05952,0.14069 2.13947,0.0956 3.1826,-0.12331 0.12028,-0.025 0.2055,-0.13564 0.20904,-0.2481 0.0938,-2.8296 0.18734,-5.65896 0.28089,-8.48805 0.043,-1.29729 0.0378,-2.60746 0.19365,-3.89794 0.13691,-1.13215 0.44377,-2.32658 1.20375,-3.2396 0.61751,-0.74156 1.55954,-1.30889 2.56408,-1.42513 0.95287,-0.1102 1.87447,0.28265 2.43323,1.01741 0.58019,0.763 0.79325,1.73603 0.89664,2.65108 0.0603,0.53304 0.0809,1.0686 0.10464,1.60416 0.0312,0.71131 0.0618,1.42262 0.0908,2.13417 0.11573,2.81095 0.21509,5.6229 0.29779,8.4346 0.0104,0.3472 0.0205,0.6944 0.03,1.04162 0.005,0.14573 0.11725,0.25794 0.27358,0.26703 1.11298,0.0636 2.22621,0.12732 3.33945,0.19112 0.1475,0.008 0.28442,-0.11902 0.28316,-0.25618 -0.0205,-2.2247 -0.12659,-4.44863 -0.31922,-6.66653"
       style="fill:#272726;fill-opacity:1;fill-rule:nonzero;stroke:none;stroke-width:0.0252147"
       id="path469-2-5" />
    <path
       d="m 463.4186,197.64662 c 0.16369,-0.0938 0.34925,0.0776 0.50589,0.16122 0.5969,0.31679 0.70767,0.87665 0.77152,1.41499 0.0945,0.80398 0.21555,1.61078 0.13229,2.425 -0.0381,0.54398 0.0882,1.09572 -0.0649,1.63477 -0.048,0.16827 -0.0452,0.43144 -0.34643,0.38206 -0.23318,-0.0384 -0.19402,-0.25894 -0.20284,-0.42545 -0.0854,-1.56069 -0.27693,-3.10939 -0.63077,-4.63974 -0.0384,-0.16545 -0.0977,-0.32738 -0.127,-0.49389 -0.0272,-0.15557 -0.24553,-0.34007 -0.0378,-0.45896 z m 2.65148,17.66993 c 0.31821,0.019 0.31962,0.22366 0.2607,0.4057 -0.17709,0.54469 -0.23071,1.12501 -0.59937,1.62666 0,-0.5581 0.002,-1.11619 -10e-4,-1.67429 -7e-4,-0.21237 0.0413,-0.37606 0.34008,-0.35807 z m -4.02308,7.03792 c 0.007,-0.0166 0.0166,-0.0328 0.0318,-0.0487 0.54928,-0.33514 1.21391,-0.3997 1.8154,-0.61842 1.69933,-0.61912 2.8829,-1.63618 3.48086,-3.22121 0.4131,-1.09608 0.79516,-2.19569 1.01811,-3.33622 0.18415,-0.9398 -0.14746,-1.3896 -1.17792,-1.61255 -0.73837,-0.16016 -1.48767,-0.23742 -2.25002,-0.20391 -0.70591,0.0314 -1.08021,0.28011 -1.28588,0.89041 -0.13511,0.40076 -0.18344,0.81351 -0.18415,1.23402 -0.002,0.58561 -0.0314,1.17017 -0.0727,1.75613 -0.0614,0.87842 -1.18286,1.35714 -2.06163,1.13771 -2.07328,-0.51788 -3.43606,-1.65629 -4.13033,-3.48686 -0.56162,-1.4799 -0.84984,-3.00002 -1.02623,-4.55118 -0.13335,-1.17299 -0.15416,-2.34668 -0.0974,-3.51579 0.09,-1.85631 0.31856,-3.70028 1.13066,-5.44089 0.34501,-0.74013 0.80574,-1.41288 1.38466,-2.02142 0.32173,-0.33831 0.72778,-0.57256 1.17263,-0.75036 0.70732,-0.28222 1.05586,-0.13123 1.25165,0.55281 0.26318,0.92075 0.35208,1.87043 0.40464,2.81164 0.0462,0.83079 0.13406,1.65946 0.16193,2.49167 0.042,1.27458 0.87735,1.96179 2.27859,1.85984 0.5842,-0.0423 1.17087,-0.0998 1.7466,-0.21484 0.91546,-0.18345 1.47179,-0.68862 1.67252,-1.51236 0.34219,-1.40229 0.30727,-2.82222 0.20038,-4.24004 -0.0438,-0.58384 -0.11783,-1.16769 -0.20744,-1.74942 -0.16227,-1.05163 -0.6925,-1.91558 -1.65135,-2.51883 -2.70969,-1.70463 -6.43608,-1.68628 -8.87731,-0.0413 -1.36066,0.91687 -2.26801,2.17981 -2.98908,3.53942 -1.21038,2.28247 -1.79141,4.71311 -2.02601,7.22665 -0.16298,1.74307 -0.19226,3.47521 0.13335,5.20488 0.5962,3.16583 2.13184,5.93231 4.46194,8.33403 0.92216,0.95003 2.17417,1.46931 3.53449,1.76036 0.26423,0.0564 0.54257,0.0758 0.76658,0.23812 0.0169,0.0155 0.0279,0.0318 0.0356,0.048 0.45156,-0.24342 0.90347,-0.24412 1.35502,-0.001"
       style="fill:#afe0dc;fill-opacity:1;fill-rule:nonzero;stroke:none;stroke-width:0.0352778"
       id="path647-9-4" />
    <path
       d="m 449.85733,207.41074 c -0.0127,0.21696 -0.0385,0.43745 -0.0773,0.66817 -3.58951,0.48295 -7.25099,0.82056 -10.88672,1.0033 -0.0159,7e-4 -0.0931,0.006 -0.18944,0.0282 -0.0882,-0.0649 -0.1905,-0.0981 -0.2727,-0.1076 -0.25505,-0.0293 -0.51011,0.0949 -0.6477,0.31644 -0.3249,0.52529 -0.34395,1.18322 -0.35806,1.663 -0.0155,0.52916 0.0208,1.05657 0.10865,1.56845 0.18697,1.09114 0.61913,2.0955 1.25025,2.90406 1.26753,1.62313 3.30341,2.42253 5.18724,2.03659 1.03434,-0.21202 1.9431,-0.73343 2.58974,-1.48061 0.0102,0.0116 0.0201,0.0226 0.0296,0.0332 0.12982,0.14887 0.2487,0.30903 0.37465,0.47837 0.0522,0.0709 0.10442,0.14181 0.15804,0.21166 l 0.94932,1.24531 c -2.82963,1.91946 -6.52533,2.0641 -9.08932,0.32703 -2.41511,-1.63654 -3.82834,-4.7043 -3.78036,-8.20667 0.024,-1.76601 0.37394,-3.6255 1.01212,-5.3774 0.57961,-1.59103 1.44709,-2.81481 2.57916,-3.63784 1.28622,-0.93522 2.8395,-1.38607 4.36068,-1.33597 1.10349,0.036 2.18969,0.3362 3.14361,0.90629 2.28493,1.3663 3.71474,4.08093 3.55846,6.75604 z m -2.1082,-7.06155 c -2.38618,-1.78047 -5.80072,-1.94592 -8.69914,-0.42227 -1.4224,0.74824 -2.56893,1.87713 -3.31435,3.26425 -0.41275,0.76764 -0.74507,1.63901 -1.04458,2.74249 -0.27657,1.01495 -0.46531,2.01683 -0.56232,2.97745 -0.21343,2.1149 0.004,4.04107 0.64558,5.72488 0.61101,1.60549 1.58679,2.98132 2.82046,3.97968 1.34937,1.0915 3.05188,1.69792 4.93677,1.75966 0.0748,0.002 0.14993,0.004 0.22543,0.005 1.80728,0.0176 3.68829,-0.47343 5.2966,-1.38218 0.39264,-0.22225 0.77717,-0.47343 1.1437,-0.74754 0.0423,-0.0318 0.15417,-0.11571 0.17569,-0.27058 0.0131,-0.0942 -0.013,-0.19015 -0.0734,-0.26952 -0.18204,-0.23848 -0.36407,-0.48578 -0.54081,-0.72531 -0.37289,-0.50624 -0.75883,-1.02941 -1.17404,-1.51624 -0.30374,-0.35701 -0.66181,-0.51576 -1.06433,-0.47343 -0.0995,0.0106 -0.20496,0.0328 -0.30692,0.0642 -0.16757,0.0212 -0.31256,0.0942 -0.40534,0.20355 -0.0977,0.0769 -0.17427,0.16793 -0.22719,0.27164 -0.9405,1.01 -2.48708,1.32715 -3.86362,0.78775 -1.4792,-0.57961 -2.59292,-1.97379 -2.97956,-3.72992 -0.10619,-0.4833 -0.15805,-0.98601 -0.15346,-1.49471 0.003,-0.38524 0.006,-0.81386 0.12806,-1.16452 3.83152,-0.19333 7.72336,-0.56163 11.56793,-1.09432 0.0833,-0.0116 0.50306,-0.0854 0.5715,-0.40182 0.64276,-2.97356 -0.60431,-6.22405 -3.10268,-8.08813"
       style="fill:#d8673f;fill-opacity:1;fill-rule:nonzero;stroke:none;stroke-width:0.0352778"
       id="path669-9-7-0" />
    <path
       d="m 439.03799,206.26774 c -0.003,-0.0144 -0.006,-0.0275 -0.01,-0.0388 -0.0131,-0.0416 -0.0325,-0.0804 -0.0582,-0.11465 0.22119,-1.4605 0.84455,-3.25578 2.53506,-3.89784 1.80058,-0.68333 3.94265,-0.14817 5.09376,1.27353 0.53904,0.66604 0.84702,1.49401 0.8643,2.30822 z m 5.98417,-5.05389 c -2.37631,-0.70203 -4.90326,0.0868 -6.14539,1.91841 -0.60148,0.88688 -0.96696,2.00448 -1.1176,3.417 -0.009,0.0825 0.005,0.16193 0.0395,0.23178 0.007,0.0628 0.0226,0.12488 0.0452,0.18485 0.0494,0.13088 0.16933,0.28117 0.46037,0.29069 0.0268,10e-4 0.0554,7.1e-4 0.0854,-0.001 l 9.62024,-0.53622 c 0.21696,-0.012 0.55422,-0.17216 0.58844,-0.47802 0.24835,-2.22708 -1.25554,-4.34163 -3.57611,-5.02743"
       style="fill:#d8673f;fill-opacity:1;fill-rule:nonzero;stroke:none;stroke-width:0.0352778"
       id="path671-3-7-0" />
    <path
       d="m 486.63957,209.97372 c 0.0572,-1.52612 0.22684,-3.04765 0.51294,-4.54801 7.1e-4,-0.004 10e-4,-0.007 0.002,-0.0106 -0.0511,0.34642 -0.10513,0.69215 -0.15099,1.03928 -0.15416,1.16911 -0.27446,2.3428 -0.36406,3.51931 z m 1.11196,-2.60068 c 0.121,-1.04704 0.26881,-2.09091 0.44203,-3.13055 0.0871,-0.52176 0.1711,-1.04669 0.28222,-1.56386 0.002,-0.008 0.004,-0.0162 0.006,-0.0243 0.15064,2.5086 -0.24483,5.03343 -0.92322,7.44749 -0.0272,0.0963 -0.0568,0.19297 -0.0847,0.28928 0.0695,-1.00789 0.16157,-2.01472 0.27799,-3.01802 z m 4.93077,10.18293 c -0.21484,0.78811 -0.55068,1.53635 -1.02658,2.2024 -0.22472,0.31503 -0.47554,0.61947 -0.75671,0.88617 -0.12277,0.11642 -0.2801,0.28399 -0.45014,0.3295 -0.11959,0.0317 -0.23107,0.007 -0.33585,-0.0437 -0.0254,-0.0208 -0.055,-0.037 -0.0885,-0.0483 -0.0811,-0.0501 -0.15698,-0.11113 -0.2286,-0.16722 -1.08832,-0.85619 -1.7205,-2.15194 -2.0581,-3.46851 -0.32526,-1.27071 -0.40499,-2.58974 -0.39229,-3.89855 0.85654,-2.27929 1.54411,-4.63514 1.8609,-7.04779 0.21661,-1.65312 0.23671,-3.31964 0.0307,-4.97452 -0.008,-0.0593 -0.0356,-0.10054 -0.0744,-0.13124 -0.01,-0.1471 -0.0183,-0.29421 -0.0279,-0.44132 -0.005,-0.0882 -0.31679,-0.024 -0.34572,-0.0173 -0.0935,0.0208 -0.20743,0.0494 -0.30833,0.0938 -0.11606,0.0106 -0.23213,0.0406 -0.33479,0.0713 -0.13934,0.042 -0.27763,0.10054 -0.39652,0.18485 -0.14746,0.0487 -0.27693,0.12454 -0.31044,0.2212 -1.48802,4.29683 -2.00343,8.92986 -1.48449,13.44859 -0.39829,0.94827 -0.83961,1.87502 -1.34232,2.75661 -0.69497,1.21849 -1.56281,2.34068 -2.65783,3.22439 -0.45332,0.36583 0.24201,0.67733 0.58561,0.40005 1.62066,-1.30775 2.73791,-3.06529 3.61809,-4.92831 0.0406,0.24553 0.0811,0.49072 0.12806,0.73519 0.26247,1.36843 0.66358,2.71709 1.51765,3.83999 0.0483,0.0639 0.15699,0.079 0.2794,0.0653 0.0529,0.0582 0.10971,0.11394 0.16969,0.16721 0.25752,0.22613 0.53587,0.39688 0.85584,0.52106 0.0942,0.0363 0.23353,0.0198 0.32631,-0.007 0.0318,-0.009 0.0663,-0.0236 0.10019,-0.0399 0.0293,0.0145 0.0572,0.0335 0.0871,0.0462 1.00824,0.43709 1.87855,-0.42475 2.46945,-1.14018 0.66287,-0.80257 1.14511,-1.74519 1.41887,-2.74849 0.13265,-0.48754 -0.72355,-0.47625 -0.82832,-0.091"
       style="fill:#000000;fill-opacity:1;fill-rule:nonzero;stroke:none;stroke-width:0.0352778"
       id="path757-6" />
    <path
       d="m 489.42334,197.92424 c 0.0307,-0.11465 0.0198,-0.23354 -0.0208,-0.34255 -0.0176,-0.14781 -0.0667,-0.29139 -0.18838,-0.37676 -0.13794,-0.0974 -0.31574,-0.10478 -0.47766,-0.0868 -0.19932,0.0226 -0.39935,0.0868 -0.56974,0.19367 -0.13899,0.0878 -0.24765,0.19474 -0.31926,0.34361 -0.002,0.005 -0.002,0.0109 -0.005,0.0159 -0.048,0.0557 -0.0861,0.11889 -0.10584,0.19156 -0.0215,0.0787 -0.019,0.15416 0,0.22472 -0.043,0.15381 -0.0554,0.31644 -0.031,0.47836 0.031,0.20744 0.13512,0.40393 0.29105,0.54469 0.0709,0.0642 0.19543,0.0522 0.28151,0.0427 0.12806,-0.0145 0.26741,-0.0501 0.37712,-0.12065 0.10372,-0.0667 0.20109,-0.14322 0.28963,-0.2286 0.18697,-0.0924 0.35172,-0.22542 0.4438,-0.41522 0.066,-0.13546 0.0586,-0.2794 0.007,-0.41028 0.0123,-0.0166 0.0222,-0.0346 0.0275,-0.0543"
       style="fill:#000000;fill-opacity:1;fill-rule:nonzero;stroke:none;stroke-width:0.0352778"
       id="path759-2" />
    <path
       d="m 486.32755,197.36035 c -0.11289,-0.13582 0,-0.20532 0.18697,-0.21414 -0.0952,-0.18697 -0.24341,-0.24165 -0.45861,-0.0952 -0.19755,0.133 -0.37747,0.0543 -0.56444,-0.0113 0,3.5e-4 0,7e-4 0,7e-4 0,0 0,0 0,-3.5e-4 0.25753,0.47272 0.1658,0.70979 -0.381,0.96626 0.007,0.0624 -0.0176,0.14675 0.0282,0.18344 0.11642,0.0988 0.17286,-0.0109 0.21519,-0.0691 0.25753,-0.35419 0.44098,-0.75353 1.18887,-0.52281 0.21519,0.0663 0.3175,-0.11677 0.0917,-0.26282 -0.0882,0.0945 -0.21872,0.12947 -0.30692,0.0254"
       style="fill:#c1d9c8;fill-opacity:1;fill-rule:nonzero;stroke:none;stroke-width:0.0352778"
       id="path847-7-6" />
    <path
       d="m 485.49147,197.04002 v 0 c 0.0282,0.35701 0.0459,0.71085 -0.381,0.96626 0.5468,-0.25647 0.63853,-0.49353 0.381,-0.96626"
       style="fill:#c1d9c8;fill-opacity:1;fill-rule:nonzero;stroke:none;stroke-width:0.0352778"
       id="path849-8-7" />
    <path
       d="m 485.49147,197.03967 v 0 c 0.0388,-0.30409 -0.53975,-0.59161 -0.0423,-0.90805 -0.0706,-0.054 -0.14111,-0.10795 -0.21166,-0.16193 -0.45509,0.42969 0.06,0.72849 0.254,1.06998"
       style="fill:#c1d9c8;fill-opacity:1;fill-rule:nonzero;stroke:none;stroke-width:0.0352778"
       id="path857-4-5" />
    <path
       d="m 485.49147,197.04002 c 0,-3.5e-4 0,-3.5e-4 0,-3.5e-4 v 0 0 0 0 c -0.19403,-0.34149 -0.70909,-0.64029 -0.254,-1.06998 -0.508,0.33444 -0.47272,0.48084 0.254,1.07033"
       style="fill:#c1d9c8;fill-opacity:1;fill-rule:nonzero;stroke:none;stroke-width:0.0352778"
       id="path859-5-6" />
    <path
       d="m 485.49147,197.04038 c 0,0 0,-3.6e-4 0,-7.1e-4 v 0 c 0,3.5e-4 0,3.5e-4 0,7.1e-4"
       style="fill:#c1d9c8;fill-opacity:1;fill-rule:nonzero;stroke:none;stroke-width:0.0352778"
       id="path861-0-9" />
    <path
       d="m 485.49147,197.03967 v 3.5e-4 c 0,3.6e-4 0,3.6e-4 0,3.6e-4 v -7.1e-4 0"
       style="fill:#c1d9c8;fill-opacity:1;fill-rule:nonzero;stroke:none;stroke-width:0.0352778"
       id="path863-3-8" />
    <path
       d="m 485.49147,197.04002 v 0 -3.5e-4 c 0,0 0,0 0,3.5e-4"
       style="fill:#c1d9c8;fill-opacity:1;fill-rule:nonzero;stroke:none;stroke-width:0.0352778"
       id="path865-6-7" />
    <path
       d="m 485.49147,197.03967 v 0 0 7.1e-4 c 0,-3.6e-4 0,-3.6e-4 0,-7.1e-4 v 0"
       style="fill:#c1d9c8;fill-opacity:1;fill-rule:nonzero;stroke:none;stroke-width:0.0352778"
       id="path867-1-2" />
    <path
       d="m 524.28599,221.04103 c -0.73237,-0.27058 -0.62795,-0.7493 -0.88865,-1.06504 -3.5e-4,0 -3.5e-4,0 -3.5e-4,0 -0.0699,-0.37218 -0.1397,-0.74436 -0.2092,-1.11654 v 0 c 0,-3.5e-4 0,-3.5e-4 0,-3.5e-4 3.5e-4,-1.3261 7e-4,-2.65219 0.001,-3.97863 v 0 h -3.5e-4 c 3.5e-4,-0.22119 3.5e-4,-0.44203 3.5e-4,-0.77435 0.28116,0.32032 0.17004,0.55174 0.1845,0.77258 0.004,1.32892 0.009,2.65748 0.0127,3.98639 0.28081,0.35066 0.20532,0.73731 0.19509,1.1176 0.20849,0.31256 0.41663,0.62513 0.70485,1.05834 z m 2.18369,-25.11567 c 0.57221,1.09397 0.18133,5.17984 -0.7172,7.95585 -0.29704,-2.71392 0.2152,-5.29026 0.7172,-7.95585 z m -11.83887,17.79835 c 0.54716,0.12453 0.95356,-0.0755 1.24178,-0.41381 0.13017,-0.1531 0.21131,-0.33443 0.28328,-0.51082 1.65805,-4.06259 3.5493,-8.05921 5.78873,-11.95776 0.55809,-0.9719 1.12677,-1.93992 1.69051,-2.91006 0.30656,3.50061 -0.87242,6.8386 -1.39065,10.23161 -0.5401,3.53801 -1.14265,7.06403 -0.95179,10.63378 0.06,1.12466 0.38699,2.21651 1.2894,3.14855 0.68051,0.70343 1.93005,0.98425 2.77036,0.59302 1.26013,-0.58703 2.35585,-1.31657 3.10374,-2.31564 0.32597,-0.43533 0.48825,-0.88441 0.31786,-1.37477 -0.3041,-0.87489 -1.25307,-1.0721 -2.13043,-0.46038 -0.26564,0.18521 -0.42968,0.48789 -0.91687,0.50271 -0.0723,-1.23754 0.0699,-2.44863 0.14182,-3.66501 0.17674,-2.97638 0.73977,-5.91326 1.39947,-8.84096 0.64805,-2.8762 1.32221,-5.74993 1.49648,-8.66916 0.0536,-0.89359 -0.0533,-1.81046 -0.40816,-2.679 -0.59973,-1.46967 -2.33857,-1.82809 -3.82376,-0.80574 -0.67769,0.46672 -1.22979,1.01141 -1.68275,1.61784 -1.81822,2.43381 -3.05718,5.06694 -4.48416,7.63411 -0.8509,1.5307 -1.56351,3.10621 -2.33821,4.6616 -0.139,-0.56268 -0.096,-1.09008 -0.0466,-1.62101 0.0766,-0.81739 0.17392,-1.64818 -0.11713,-2.46027 -0.11218,-0.31398 -0.37429,-0.50977 -0.81385,-0.52247 -0.47167,-0.0127 -0.6911,0.24271 -0.79799,0.53199 -0.0833,0.22472 -0.072,0.47237 -0.0808,0.7105 -0.061,1.67357 0.0632,3.34786 -0.15099,5.02285 -0.13158,1.0294 -0.0459,2.07468 -0.0614,3.11255 -0.006,0.38312 0.1651,0.69004 0.67205,0.80575"
       style="fill:#b3b2e9;fill-opacity:1;fill-rule:nonzero;stroke:none;stroke-width:0.0352778"
       id="path455-8" />
    <path
       d="m 506.08147,218.25069 c -0.51832,0.72538 -1.09542,1.42244 -1.75534,2.02091 -0.0481,0.0414 -0.0935,0.0825 -0.1416,0.1229 -0.005,0.006 -0.0133,0.0123 -0.0187,0.0182 -0.0908,0.0708 -0.18168,0.1416 -0.27519,0.20867 -0.0962,0.0682 -0.19236,0.13358 -0.29389,0.19583 -0.0401,0.0224 -0.0828,0.0454 -0.1229,0.0668 -0.0294,0.0144 -0.0748,0.028 -0.11221,0.0454 -0.0187,7.6e-4 -0.0401,0.002 -0.0588,0.003 -0.0588,-0.003 -0.12023,-0.008 -0.17901,-0.0139 -0.008,-7.6e-4 -0.0133,-0.002 -0.0214,-0.003 -0.0427,-0.0115 -0.14695,-0.0264 -0.16031,-0.0292 -0.21641,-0.0507 -0.42212,-0.12343 -0.62518,-0.21053 -0.88435,-0.43603 -1.59771,-1.14965 -2.18014,-1.93515 -0.84695,-1.19132 -1.44809,-2.57529 -1.88359,-3.96593 -0.45419,-1.4521 -0.71602,-2.96483 -0.77747,-4.48532 -0.0348,-0.83172 -0.008,-1.66477 0.0748,-2.49274 0.21641,-1.96935 0.7561,-3.92613 1.66984,-5.68815 0.22977,-0.44538 0.48892,-0.8758 0.77213,-1.28885 0.32061,-0.44377 0.67061,-0.8651 1.06335,-1.24663 0.0989,-0.0962 0.20039,-0.18997 0.30191,-0.28107 0.0561,-0.0484 0.26183,-0.19878 0.0241,-0.0233 0.0642,-0.0481 0.12558,-0.10125 0.18969,-0.14988 0.10421,-0.0783 0.2084,-0.15362 0.31527,-0.22576 0.0535,-0.036 0.10687,-0.0713 0.16298,-0.10607 0.0187,-0.012 0.0374,-0.0238 0.0561,-0.0358 0.032,-0.0163 0.0614,-0.0323 0.0935,-0.0491 0.0294,-0.006 0.0588,-0.0117 0.0775,-0.0147 0.005,-7.6e-4 0.0107,-0.002 0.0161,-0.003 -0.0374,0.0863 -0.0267,0.17366 0.0721,0.25595 1.00191,0.84748 1.89694,1.81572 2.67175,2.87426 0.96984,1.35057 1.74465,2.83553 2.30304,4.40036 0.56641,1.58542 0.91374,3.24991 1.02061,4.93045 0.0481,0.7398 0.0454,1.48174 -0.003,2.22102 -0.32595,1.18251 -0.78282,2.32895 -1.36793,3.40914 -0.27519,0.50843 -0.57977,1.0003 -0.9084,1.47507 z m 5.06563,-13.6601 c -0.2458,-1.01767 -0.59313,-2.01369 -1.05,-2.95628 -0.16565,-0.34412 -0.35,-0.6837 -0.55305,-1.01286 0.0294,-0.0521 0.0428,-0.10821 0.0267,-0.16886 -0.4729,-1.92392 -2.39656,-2.9488 -4.23472,-3.16468 -1.27442,-0.14988 -2.62899,0.0786 -3.81258,0.56454 -0.11488,0.0478 -0.22976,0.0994 -0.34198,0.15122 -0.0348,0.0115 -0.0694,0.0224 -0.10419,0.0342 -1.19695,0.40449 -2.31374,1.06094 -3.25152,1.90628 -0.84427,0.75958 -1.5122,1.72995 -2.0145,2.74121 -1.0206,2.04468 -1.41067,4.37097 -1.57632,6.63073 -0.15229,2.09946 -0.0428,4.24541 0.50763,6.28475 0.54503,2.01556 1.56297,3.92773 3.10456,5.35765 0.85496,0.79458 1.9103,1.43606 3.05113,1.72034 1.42672,0.3556 2.96297,0.1766 4.32556,-0.35134 1.10877,-0.42908 2.11068,-1.09836 2.9122,-1.97682 0.7,-0.76653 1.26641,-1.66877 1.69389,-2.6127 0.69198,-1.51942 1.04198,-3.20182 1.15686,-4.8754 0.17634,-0.64042 0.30993,-1.29152 0.40878,-1.94797 0.30993,-2.10186 0.24848,-4.25529 -0.24847,-6.32402"
       style="fill:#ebc532;fill-opacity:1;fill-rule:nonzero;stroke:none;stroke-width:0.0267175"
       id="path681-2" />
    <path
       d="m 503.32957,220.93873 c -0.005,5.3e-4 -0.008,7.5e-4 -0.0107,0.002 0.005,-5.3e-4 0.008,-7.6e-4 0.0107,-0.002 v 2.7e-4"
       style="fill:#ebc532;fill-opacity:1;fill-rule:nonzero;stroke:none;stroke-width:0.0267175"
       id="path683-9" />
    <path
       d="m 503.86392,220.39877 c -1.48282,-0.28481 -2.56487,-1.58328 -3.31029,-2.80399 -0.87098,-1.42592 -1.4748,-3.02682 -1.85686,-4.64937 -0.76946,-3.28384 -0.58779,-6.82792 0.6332,-9.98218 0.62519,-1.61667 1.55763,-3.19247 3.08587,-4.09659 0.18435,-0.1082 0.26717,-0.37324 0.0668,-0.50495 -0.2271,-0.14935 -0.53703,-0.0521 -0.74809,0.0724 -1.46412,0.86645 -2.47671,2.31721 -3.15266,3.84918 -0.70802,1.59744 -1.13817,3.3282 -1.3145,5.0643 -0.35534,3.55341 0.36335,7.22011 2.11602,10.33751 0.90572,1.60892 2.22289,3.06689 4.10647,3.42918 0.23245,0.0449 0.57443,-0.094 0.68397,-0.31099 0.12023,-0.24286 -0.10954,-0.36603 -0.30992,-0.4045"
       style="fill:#000000;fill-opacity:1;fill-rule:nonzero;stroke:none;stroke-width:0.0267175"
       id="path685-96" />
    <path
       d="m 507.31315,199.88458 c -0.12558,-0.12877 -0.53436,0.0147 -0.67061,0.0644 -0.0828,0.0294 -0.43817,0.16057 -0.31527,0.28828 1.33855,1.36446 2.20686,3.14705 2.47404,5.03784 0.0294,0.19557 1.08205,-0.0195 1.04732,-0.27999 -0.27519,-1.9274 -1.17289,-3.72147 -2.53548,-5.11051"
       style="fill:#000000;fill-opacity:1;fill-rule:nonzero;stroke:none;stroke-width:0.0267175"
       id="path687-0" />
    <path
       d="m 510.40969,207.40634 c 0,-0.002 0,-0.005 0,-0.006 0.0133,-0.0414 0.008,-0.0775 -0.0187,-0.10901 -0.003,-0.005 -0.005,-0.008 -0.008,-0.0117 -0.032,-0.12476 -0.0748,-0.2466 -0.13091,-0.36175 -0.0133,-0.0414 -0.0374,-0.0716 -0.0748,-0.0903 -0.0348,-0.0318 -0.0802,-0.0505 -0.13092,-0.0569 -0.12022,-0.0275 -0.27252,-0.0131 -0.39007,0.0211 -0.12291,0.0358 -0.25649,0.0855 -0.34733,0.17687 -0.0507,0.0505 -0.14427,0.14935 -0.1042,0.2295 0.0775,0.15389 0.12825,0.31767 0.15763,0.48573 0,0.18648 -0.003,0.37324 -0.003,0.55999 -0.0133,0.0411 -0.008,0.0775 0.0187,0.10874 0.0161,0.0393 0.0454,0.0668 0.0882,0.0823 0.0962,0.0502 0.24313,0.0535 0.34465,0.0388 0.13626,-0.0195 0.28054,-0.0577 0.39542,-0.13466 0.0802,-0.0529 0.17901,-0.12343 0.19771,-0.22362 0.0454,-0.23298 0.0481,-0.47477 0.005,-0.70882"
       style="fill:#000000;fill-opacity:1;fill-rule:nonzero;stroke:none;stroke-width:0.0267175"
       id="path689-2" />
    <path
       d="m 354.29304,205.24344 c 0.0564,-0.055 0.11892,-0.0913 0.19436,-0.11201 -0.0754,0.0207 -0.13792,0.0571 -0.19436,0.11201 z m -0.1074,11.08351 c -0.0204,0.40138 -0.0389,0.80306 -0.061,1.20417 0.0222,-0.40111 0.0406,-0.80279 0.061,-1.20417 0.0645,-1.26781 0.10452,-2.53649 0.13619,-3.80517 -0.0317,1.26868 -0.0717,2.53736 -0.13619,3.80517 z m -0.2341,3.20479 c -0.17824,1.35161 -0.45322,2.66722 -1.36485,3.76026 -0.0789,0.0947 -0.15981,0.18571 -0.24274,0.27296 0.0829,-0.0872 0.16384,-0.17823 0.24274,-0.27296 0.91163,-1.09304 1.18661,-2.40865 1.36485,-3.76026 0.0351,-0.26577 0.0636,-0.53211 0.0878,-0.79875 -0.0242,0.26664 -0.0527,0.53298 -0.0878,0.79875 z m -4.64538,7.22075 c 0.129,0.0573 0.25914,0.10827 0.38958,0.15262 -0.13044,-0.0443 -0.26058,-0.0953 -0.38958,-0.15262 z m -1.33145,-0.84281 c -0.10424,-0.0866 -0.20473,-0.1768 -0.30234,-0.26923 -0.19494,-0.18514 -0.37778,-0.38036 -0.55429,-0.58164 0.17651,0.20128 0.35935,0.3965 0.55429,0.58164 0.0976,0.0925 0.1981,0.18256 0.30234,0.26923 0.31069,0.25944 0.62627,0.47568 0.9456,0.65132 -0.31933,-0.17564 -0.63491,-0.39188 -0.9456,-0.65132 z m -1.4521,-1.57246 c -0.68818,-0.8641 -0.67522,-1.93122 -0.66774,-2.94421 9e-4,-0.0979 0.003,-0.18745 0.006,-0.26952 0.005,-0.12323 0.0141,-0.22891 0.0288,-0.31961 -0.0147,0.0907 -0.0236,0.19638 -0.0288,0.31961 -0.003,0.0821 -0.005,0.17162 -0.006,0.26952 -0.008,1.01299 -0.0207,2.08011 0.66746,2.94421 0.11114,0.13966 0.22258,0.27845 0.33602,0.41579 -0.11344,-0.13734 -0.22488,-0.27613 -0.33602,-0.41579 z m 3.69316,0.41263 c 0.27585,-0.0502 0.53413,-0.12727 0.77658,-0.22949 -0.24245,0.10221 -0.50073,0.17939 -0.77658,0.22949 -0.07,0.0127 -0.14052,0.0224 -0.21106,0.029 0.0706,-0.006 0.14109,-0.0164 0.21106,-0.029 z m 3.43487,-13.85092 c -0.0803,0.0538 -0.16096,0.10597 -0.24187,0.15607 0.0809,-0.0502 0.16153,-0.10221 0.24187,-0.15607 0.0507,-0.0346 0.099,-0.0637 0.14512,-0.0879 -0.0461,0.0242 -0.0944,0.0533 -0.14512,0.0879 z m -2.01647,-1.44836 c -0.11546,0.0582 -0.22949,0.10856 -0.34236,0.15118 -0.16902,0.0639 -0.33488,0.11028 -0.49613,0.13965 0.16125,-0.0294 0.32711,-0.0757 0.49613,-0.13965 0.11287,-0.0426 0.2269,-0.093 0.34236,-0.15118 0.87247,-0.44055 1.3948,-1.15579 1.75818,-2.03144 0.24476,-0.5897 0.40456,-1.21021 0.66573,-1.79215 0.0265,-0.0587 0.0518,-0.11172 0.0772,-0.15952 -0.0254,0.0479 -0.0507,0.10074 -0.0772,0.15952 -0.26117,0.58194 -0.42097,1.20245 -0.66573,1.79215 -0.36338,0.87565 -0.88571,1.59089 -1.75818,2.03144 z m -2.20074,2.45847 c -0.26261,-0.0337 -0.51571,-0.0808 -0.75873,-0.14224 -0.36396,-0.0925 -0.70546,-0.21654 -1.02162,-0.37462 0.31616,0.15808 0.65766,0.28218 1.02162,0.37462 0.24302,0.0613 0.49612,0.10854 0.75873,0.14224 0.28448,0.0366 0.56581,0.0545 0.84309,0.0533 -0.27728,8.2e-4 -0.55861,-0.0168 -0.84309,-0.0533 z m -2.60675,-11.8408 c 0.04,-0.0143 0.0711,-0.0351 0.0944,-0.0613 -0.0233,0.0262 -0.0544,0.0469 -0.0944,0.0613 -0.0106,0.0158 -0.0207,0.0316 -0.0308,0.0472 0.0101,-0.0155 0.0202,-0.0314 0.0308,-0.0472 z m 0.20876,-0.30809 c 0.0628,-0.10221 0.13101,-0.2007 0.2007,-0.29802 0.004,-0.006 0.01,-0.0124 0.0135,-0.0191 0.0325,-8.2e-4 0.0599,-0.005 0.0832,-0.0138 -0.0233,0.008 -0.0507,0.0127 -0.0832,0.0138 -0.004,0.006 -0.009,0.0125 -0.0135,0.0191 -0.0697,0.0973 -0.13793,0.1958 -0.20041,0.29802 -0.009,0.0127 -0.0178,0.0257 -0.0271,0.0383 0.009,-0.0127 0.0179,-0.0256 0.0268,-0.0383 z m 0.52751,0.56148 c -0.0441,0.0673 -0.0867,0.1365 -0.12669,0.20704 -0.0668,0.11576 -0.13159,0.23236 -0.19552,0.34985 0.0639,-0.11749 0.12871,-0.23409 0.19552,-0.34985 0.04,-0.0705 0.0826,-0.13965 0.12669,-0.20704 z m -0.0625,-1.18545 c 0.0441,-0.0435 0.087,-0.0879 0.12583,-0.13592 0.0127,-0.0181 0.0268,-0.0349 0.0394,-0.0527 0.33747,-0.0677 0.53097,-0.2652 0.60065,-0.61102 0.0363,-0.0245 0.0703,-0.0518 0.10856,-0.0743 0.087,-0.0769 0.17794,-0.14801 0.27124,-0.21595 -0.0933,0.068 -0.18429,0.13908 -0.27124,0.21595 -0.0383,0.0224 -0.0723,0.0498 -0.10856,0.0743 -0.0697,0.34582 -0.26318,0.54334 -0.60036,0.61102 -0.013,0.0179 -0.0271,0.0346 -0.0397,0.0527 -0.0389,0.0481 -0.0818,0.0925 -0.12583,0.13592 -0.008,0.007 -0.0147,0.0155 -0.0219,0.0234 0.007,-0.008 0.0141,-0.0161 0.0219,-0.0234 z m 1.62285,-1.41553 c 0.70661,-0.47885 1.51774,-0.67062 2.32168,-0.88658 0.0435,-0.0219 0.0786,-0.0527 0.10971,-0.0881 v 0 c -0.0311,0.0354 -0.0662,0.0662 -0.10971,0.0881 -0.80394,0.21596 -1.61507,0.40773 -2.32168,0.88658 -0.0642,0.0435 -0.12814,0.0861 -0.19235,0.129 0.0642,-0.0429 0.12814,-0.0856 0.19235,-0.129 z m 1.38558,1.11607 c -0.007,0.0115 -0.0144,0.0222 -0.0219,0.0331 0.007,-0.0109 0.015,-0.0216 0.0219,-0.0331 0.0423,-0.0524 0.0864,-0.10169 0.13303,-0.14772 -0.0464,0.046 -0.0907,0.0953 -0.13303,0.14772 z m -0.0435,-1.08238 c 0.0259,0.0285 0.0446,0.0688 0.0438,0.10913 -0.001,0.0339 -0.007,0.0627 -0.0184,0.0864 0.0109,-0.0236 0.0173,-0.0524 0.0184,-0.0864 9e-4,-0.0403 -0.0179,-0.0806 -0.0438,-0.10913 z m -0.17622,0.26923 c -0.0291,-0.005 -0.0541,-0.006 -0.0757,-0.003 0.0216,-0.004 0.0466,-0.003 0.0757,0.003 0.0317,0.006 0.0613,0.008 0.0875,0.005 -0.0262,0.003 -0.0559,0.002 -0.0875,-0.005 z m -0.0314,1.12096 c -0.0161,0.0143 -0.034,0.0273 -0.0504,0.0413 0.0164,-0.0138 0.0343,-0.0268 0.0504,-0.0413 0.005,-0.10421 0.0354,-0.18487 0.11287,-0.22115 -0.0775,0.0362 -0.10769,0.11691 -0.11287,0.22115 z m -0.35158,-0.84396 v 0 c 0.0233,-0.002 0.0432,-0.008 0.0611,-0.0181 -0.0179,0.009 -0.0377,0.0161 -0.0611,0.0181 z m -0.097,-0.16557 c -0.004,0.008 -0.004,0.0201 -5.8e-4,0.0322 -0.003,-0.012 -0.003,-0.0233 5.8e-4,-0.0322 0.0132,-0.03 0.0288,-0.0571 0.0458,-0.0818 -0.017,0.0247 -0.0325,0.0518 -0.0458,0.0818 z m -0.75902,0.82092 c 0.0199,0.0132 0.0403,0.0291 0.0611,0.0481 0.038,0.0346 0.072,0.0686 0.0993,0.10306 -0.0274,-0.0346 -0.0613,-0.0686 -0.0993,-0.10306 -0.0207,-0.0191 -0.0412,-0.0349 -0.0611,-0.0481 z m -1.46649,8.81365 c 0.0158,0.10158 0.0343,0.20299 0.0544,0.30464 0.0979,0.48461 0.26951,0.98649 0.60468,1.3925 0.0112,0.0132 0.0222,0.0268 0.0331,0.0403 -0.0109,-0.0135 -0.0219,-0.0271 -0.0331,-0.0403 -0.33517,-0.40601 -0.50707,-0.90789 -0.60468,-1.3925 -0.0202,-0.10169 -0.0386,-0.20301 -0.0544,-0.30464 z m -0.0412,-0.30465 c -0.0466,-0.40628 -0.0605,-0.81344 -0.0504,-1.22 -0.01,0.40656 0.004,0.81372 0.0504,1.22 z m 1.68015,-7.98379 c -0.58079,0.99226 -0.9505,2.06254 -1.21138,3.16248 0.26088,-1.09994 0.63059,-2.17022 1.21138,-3.16248 0.0156,-0.0265 0.0276,-0.0519 0.0371,-0.0757 -0.01,0.0239 -0.0216,0.0492 -0.0371,0.0757 z m -0.0898,1.78265 c -0.0297,0.0728 -0.0562,0.14599 -0.0795,0.2197 0.0233,-0.0737 0.0498,-0.14685 0.0792,-0.2197 0.0106,-0.0257 0.0204,-0.0518 0.0302,-0.0778 -0.01,0.0259 -0.0196,0.0521 -0.0299,0.0778 z m -0.19782,0.89637 c -0.0199,0.0677 -0.0383,0.13563 -0.0541,0.20415 -0.007,0.0214 -0.0133,0.0429 -0.0199,0.0642 0.007,-0.0213 0.0127,-0.0429 0.0199,-0.0642 0.0158,-0.0686 0.0343,-0.13648 0.0541,-0.20415 0.002,-0.0769 0.008,-0.15318 0.0181,-0.22891 -0.01,0.0757 -0.0158,0.15203 -0.0181,0.22891 z m -0.34928,1.28826 c -0.004,0.0158 -0.007,0.032 -0.0106,0.0479 0.004,-0.0158 0.006,-0.0321 0.0106,-0.0479 0.0161,-0.0535 0.0291,-0.1077 0.0435,-0.16154 -0.0144,0.0538 -0.0274,0.10798 -0.0435,0.16154 z m -0.10163,0.69567 c -0.0317,0.0109 -0.0544,0.0265 -0.0706,0.0464 0.0161,-0.0198 0.0389,-0.0354 0.0706,-0.0464 0.003,-0.0107 0.005,-0.0211 0.008,-0.0314 -0.002,0.0105 -0.005,0.0207 -0.008,0.0314 z m -0.078,5.77268 v 0 c 0.002,-0.0291 10e-4,-0.0564 -2.9e-4,-0.0821 0.002,0.0257 0.002,0.053 2.9e-4,0.0821 z m -2.26669,-8.63023 c 0.0225,-0.0498 0.0469,-0.0985 0.0754,-0.14541 0.0371,-0.0867 0.0786,-0.17075 0.12238,-0.25339 -0.0438,0.0826 -0.0852,0.16672 -0.12238,0.25339 -0.0285,0.0469 -0.053,0.0956 -0.0754,0.14541 5.8e-4,0.0332 10e-4,0.0665 5.8e-4,0.0994 5.7e-4,-0.0328 0,-0.0662 -5.8e-4,-0.0994 z m -0.17997,0.44114 c -0.003,0.006 -0.006,0.0138 -0.009,0.0204 0.003,-0.006 0.005,-0.0135 0.009,-0.0204 0.0236,-0.0105 0.0441,-0.0224 0.0622,-0.036 -0.0181,0.0135 -0.0386,0.0257 -0.0622,0.036 z m -0.1981,0.45897 c -0.004,0.0316 -0.0135,0.0613 -0.0259,0.0902 0.0124,-0.0288 0.0216,-0.0584 0.0259,-0.0902 0.0109,-0.0328 0.0242,-0.0645 0.036,-0.097 -0.0118,0.0326 -0.0251,0.0642 -0.036,0.097 z m -0.087,0.28737 c -0.0112,0.0441 -0.0251,0.0866 -0.0403,0.12957 -0.008,0.0234 -0.0164,0.0469 -0.0248,0.0705 0.005,0.0426 0.007,0.0849 0.005,0.1264 0.002,-0.0415 -2.9e-4,-0.0838 -0.005,-0.1264 0.008,-0.0236 0.0167,-0.0472 0.0248,-0.0705 0.0153,-0.0429 0.0291,-0.0856 0.0403,-0.12957 0.008,-0.0283 0.0161,-0.0564 0.0245,-0.0844 -0.008,0.0279 -0.0167,0.0561 -0.0245,0.0844 z m -0.18601,0.67149 c -0.025,0.0305 -0.0452,0.0627 -0.0634,0.0958 0.0181,-0.0331 0.0383,-0.0653 0.0634,-0.0958 0.0279,-0.0339 0.0507,-0.0693 0.0688,-0.10654 -0.0181,0.0372 -0.0409,0.0726 -0.0688,0.10654 z m -0.16701,0.42414 c -0.0242,0.1336 -0.0415,0.26893 -0.0895,0.39246 -0.0173,0.091 -0.0328,0.18255 -0.0441,0.27528 -0.18486,0.74635 -0.24878,1.48376 -0.20674,2.21427 -0.042,-0.73051 0.0219,-1.46792 0.20674,-2.21427 0.0112,-0.0927 0.0268,-0.18429 0.0441,-0.27528 0.0481,-0.12353 0.0654,-0.25886 0.0895,-0.39246 0.0133,-0.0495 0.0288,-0.0982 0.0429,-0.14772 -0.0141,0.0495 -0.0297,0.0981 -0.0429,0.14772 z m 6.76321,-6.82022 v 0 c -0.0613,0.026 -0.12296,0.0386 -0.18429,0.038 0.0613,5.8e-4 0.12295,-0.012 0.18429,-0.038 z m 0.31299,0.0579 c 0.0184,0.008 0.0374,0.012 0.0562,0.0181 -0.0187,-0.005 -0.0377,-0.0105 -0.0562,-0.0181 -0.0179,-0.008 -0.0348,-0.0186 -0.0521,-0.0283 0.0173,0.009 0.0343,0.0196 0.0521,0.0283 z m 0.58539,1.30611 v 0 c -0.0933,-0.0233 -0.18774,-0.0417 -0.28334,-0.0556 0.0956,0.0138 0.19004,0.0323 0.28334,0.0556 z m 0.79328,0.34928 c 0.0377,0.0247 0.076,0.0466 0.11287,0.0737 0.095,0.0728 0.18515,0.14888 0.26981,0.22864 -0.0847,-0.0797 -0.17479,-0.15579 -0.26981,-0.22864 -0.0369,-0.0271 -0.0752,-0.049 -0.11287,-0.0737 -0.0343,-0.0558 -0.0717,-0.1074 -0.11374,-0.15232 0.042,0.0449 0.0795,0.0965 0.11374,0.15232 z m 0.97728,-0.50936 c 0.0464,0.0639 0.095,0.12525 0.14599,0.18485 -0.051,-0.0596 -0.0996,-0.12094 -0.14599,-0.18485 -0.007,-0.0105 -0.0156,-0.0188 -0.0233,-0.028 0.008,0.009 0.0161,0.0176 0.0233,0.028 z m 0.15808,2.11349 c 0.0118,0.002 0.023,0.003 0.0334,0.005 -0.0104,-0.002 -0.0216,-0.004 -0.0334,-0.005 -2.9e-4,-0.005 -9e-4,-0.008 -0.002,-0.0132 5.7e-4,0.004 0.001,0.008 0.002,0.0132 z m 0.0893,0.0316 c 0.0256,0.13273 0.0815,0.22171 0.15549,0.28477 -0.074,-0.063 -0.12986,-0.15204 -0.15549,-0.28477 -9e-4,-0.004 -0.004,-0.007 -0.009,-0.0107 0.005,0.003 0.008,0.006 0.009,0.0107 z m 0.50044,-1.40172 c 0.004,0.017 0.0112,0.0314 0.0164,0.0472 -0.005,-0.0158 -0.0127,-0.0302 -0.0164,-0.0472 -0.0138,-0.0135 -0.0302,-0.0253 -0.0452,-0.0383 0.015,0.013 0.0314,0.0247 0.0452,0.0383 z m 0.31703,0.4944 c 0.008,0.0193 0.015,0.0389 0.0222,0.0582 -0.007,-0.0193 -0.0138,-0.0388 -0.0222,-0.0582 -0.009,-0.0176 -0.0173,-0.0357 -0.0256,-0.0535 0.008,0.0179 0.0164,0.036 0.0256,0.0535 z m 0.11316,0.41867 c 0.002,0.0176 0.003,0.0357 0.005,0.0535 -0.002,-0.0179 -0.003,-0.036 -0.005,-0.0535 -0.0127,-0.009 -0.0233,-0.0193 -0.0328,-0.0296 0.01,0.0105 0.0202,0.0205 0.0328,0.0296 z m 0.11863,0.40024 c 0.004,0.0105 0.0112,0.0207 0.0167,0.0311 -0.005,-0.0105 -0.0124,-0.0207 -0.0167,-0.0311 -0.0331,-0.0435 -0.0573,-0.0899 -0.0751,-0.13907 0.0179,0.0492 0.042,0.0956 0.0751,0.13907 z m -0.0616,0.49555 v 0 c 0.0377,-0.0105 0.0697,-0.0217 0.0967,-0.0337 -0.0271,0.012 -0.059,0.0234 -0.0967,0.0337 z m 0.22057,-0.15607 c -10e-4,0.008 -0.006,0.0147 -0.009,0.0219 0.003,-0.007 0.008,-0.0141 0.009,-0.0219 -0.005,-0.0173 -0.0133,-0.0354 -0.0204,-0.0533 0.007,0.0179 0.0156,0.036 0.0204,0.0533 z m 1.66747,7.59277 c -0.0584,-0.72647 -0.16931,-1.44922 -0.27671,-2.17081 -0.0547,-0.36653 -0.17622,-0.7472 -0.6424,-0.71553 -0.76478,0.0518 -1.51976,0.0118 -2.27676,-0.0887 -0.29025,-0.0386 -0.50794,0.068 -0.62282,0.36684 -0.30666,0.79529 -0.62052,1.58771 -0.94215,2.37696 -0.30695,0.75355 -0.85145,1.28884 -1.57534,1.64531 -1.40977,0.69452 -2.58054,0.16441 -2.98078,-1.34988 -0.18861,-0.71352 -0.18227,-1.44432 -0.18141,-2.17397 0.13303,-0.30838 0.0864,-0.63635 0.1051,-0.95711 v 0 0 0 c -0.002,0 -0.005,5.6e-4 -0.007,5.6e-4 0.01,-0.0155 0.0176,-0.0314 0.0236,-0.0479 0.10741,-0.22257 0.0651,-0.46531 0.0777,-0.70085 v 0 0 0 c -0.002,0 -0.003,5.8e-4 -0.005,5.8e-4 0.10942,-0.14398 0.0919,-0.30983 0.0809,-0.47481 0.005,-0.0498 0.01,-0.0996 0.0147,-0.14945 0.0921,-0.35417 0.18457,-0.70805 0.27671,-1.06222 0.19293,-0.4872 0.37231,-0.97844 0.47857,-1.49356 0.21711,-0.5923 0.45149,-1.17625 0.83618,-1.6859 0.16384,-0.065 0.23237,-0.21914 0.32682,-0.349 v 0 c 0.30234,-0.3867 0.76679,-0.52117 1.16962,-0.75181 0.77226,-0.0829 1.49154,0.0541 2.13337,0.51311 v 0 c 0.40024,0.39218 0.77284,0.8025 0.9004,1.37319 -0.0423,0.41666 0.16412,0.57071 0.55832,0.53501 0.0348,-0.003 0.0703,-0.002 0.10539,-0.003 0.0662,0.008 0.13533,0.0109 0.2125,8.1e-4 0.11949,0.008 0.23928,0.0168 0.35877,0.0247 0.0921,0.0501 0.23122,0.12208 0.27067,0.005 0.078,-0.22951 0.087,-0.47569 -0.15635,-0.643 -0.11403,-0.0765 -0.0636,-0.19924 -0.0844,-0.30204 0.0173,-0.2148 -0.0602,-0.39794 -0.19091,-0.56265 -0.0706,-0.21826 -0.17046,-0.41606 -0.37317,-0.54391 v 0 c -0.21826,-0.22374 -0.43681,-0.44747 -0.65536,-0.67148 -0.1575,-0.23612 -0.36165,-0.40802 -0.64729,-0.46734 -0.39391,-0.25828 -0.84598,-0.38844 -1.27185,-0.57646 -0.1503,-0.1123 -0.32451,-0.10305 -0.49814,-0.0956 v -2.9e-4 c 0,2.9e-4 0,2.9e-4 0,2.9e-4 v 0 c 0,2.9e-4 2.9e-4,2.9e-4 5.8e-4,8.1e-4 -0.0628,-0.0279 -0.12583,-0.0558 -0.18889,-0.0838 0,-0.0311 0,-0.0622 2.8e-4,-0.0933 -0.21797,-8.2e-4 -0.43565,-0.002 -0.65363,-0.002 5.8e-4,0.0331 9e-4,0.0662 10e-4,0.0993 -0.0426,0.0254 -0.0847,0.0509 -0.12698,0.0766 -2.9e-4,0 -2.9e-4,0 -2.9e-4,0 -0.1814,-0.0693 -0.3176,0.0786 -0.48057,0.10856 -1.01932,0.18717 -1.92029,0.63003 -2.68018,1.34384 -0.30838,0.20616 -0.55889,0.46991 -0.77168,0.77168 v 0 c -0.0225,0.0268 -0.0452,0.0533 -0.0677,0.0797 -0.13764,0.10074 -0.23525,0.23265 -0.30551,0.38613 v 0 c -0.0896,0.0594 -0.17133,0.12323 -0.16787,0.24561 -0.13793,0.1074 -0.21049,0.26058 -0.28794,0.41061 -0.21049,0.32738 -0.46877,0.63031 -0.54508,1.02882 -0.15319,0.19119 -0.2341,0.41693 -0.31127,0.64499 -0.0783,0.0454 -0.0711,0.12007 -0.0651,0.19407 -0.10423,0.13879 -0.15894,0.29688 -0.18111,0.46762 v 0 c -0.023,0.0173 -0.0288,0.0387 -0.0167,0.0648 -0.24936,0.5419 -0.41147,1.10916 -0.49095,1.70002 0,2.8e-4 0,2.8e-4 0,2.8e-4 -0.49583,1.95485 -0.23611,3.82993 0.69539,5.59329 0.36165,0.68444 0.9194,1.26724 1.62918,1.62659 1.5068,0.76363 3.07811,0.90213 4.70124,0.39391 0.71928,-0.22488 1.3516,-0.61246 2.02942,-1.07173 0.0141,0.003 0.0271,0.008 0.0397,0.0141 -5.7e-4,-0.0135 -0.002,-0.0253 -0.002,-0.0392 v 0 c 5.8e-4,0.0138 0.002,0.0257 0.003,0.0392 0.0383,0.0176 0.0703,0.0458 0.0965,0.0849 -0.0262,-0.0392 -0.0582,-0.0674 -0.0967,-0.0849 0.0147,0.24302 0.0348,0.43134 0.0322,0.61765 -0.0363,2.48695 -0.0921,4.97363 -0.3081,7.45224 -0.0913,1.04956 -0.20271,2.11092 -0.63837,3.08905 -0.59316,1.33261 -1.46678,2.39108 -2.98337,2.70206 -1.20188,0.24677 -2.24912,-0.3202 -2.33493,-1.76307 -0.0351,-0.59058 -0.0582,-1.17827 -0.0225,-1.76941 0.0397,-0.6663 -0.095,-0.79818 -0.74117,-0.8264 -0.24676,-0.0107 -0.49123,-0.066 -0.73771,-0.0922 -0.36453,-0.0387 -0.60554,0.095 -0.65276,0.48749 -0.22431,1.86385 0.0334,3.56962 1.57735,4.86191 0.22603,0.18918 0.43364,0.4011 0.64557,0.6067 0.48086,0.46675 1.06279,0.74001 1.69771,0.93206 2.16274,0.65364 4.75134,-0.0726 5.9702,-2.33118 0.43595,-0.80854 0.8431,-1.62572 1.13565,-2.49791 0.95136,-2.83566 1.04495,-5.79369 1.24334,-8.73561 0.12468,-1.85118 -0.032,-3.69631 -0.17968,-5.53916"
       style="fill:#b3b2e9;fill-opacity:1;fill-rule:nonzero;stroke:none;stroke-width:0.0287943"
       id="path571" />
    <path
       d="m 357.51627,205.19881 c -0.14915,0.0783 -0.24993,0.1745 -0.23784,0.28018 0.29917,2.66893 0.40456,5.35832 0.30637,8.04252 -0.0872,2.38561 -0.25569,4.82765 -0.81689,7.15567 -0.45409,1.88315 -1.23009,3.80546 -2.73949,5.09055 -0.0858,0.0731 -0.17334,0.14282 -0.26318,0.20961 -0.184,0.12382 -0.37346,0.24216 -0.57157,0.34957 -0.20962,0.11374 -0.425,0.21307 -0.64413,0.29946 -0.29427,0.10191 -0.59863,0.17133 -0.91133,0.20041 -1.01759,0.0948 -2.07492,-0.12814 -2.9661,-0.62915 -1.97011,-1.10656 -3.0833,-3.54112 -2.56442,-5.75195 0.0179,-0.0754 -0.0446,-0.12181 -0.14916,-0.14484 -0.0639,-0.11288 -0.37375,-0.0892 -0.55486,0.0224 -0.30494,0.0613 -0.60123,0.18832 -0.63895,0.3487 -0.48576,2.06945 0.34956,4.32347 2.0418,5.60856 0.73052,0.55487 1.57505,0.89204 2.45875,1.04523 0.78436,0.16989 1.60989,0.16298 2.41987,-0.0107 0.68617,-0.11517 1.3565,-0.31818 1.97644,-0.59979 4.40236,-2.00063 4.91259,-7.68174 5.19651,-11.88685 0.21365,-3.17141 0.14253,-6.35865 -0.2007,-9.51854 -0.38066,-0.0328 -0.76103,-0.0703 -1.14112,-0.11114"
       style="fill:#272726;fill-opacity:1;fill-rule:nonzero;stroke:none;stroke-width:0.0287943"
       id="path573" />
    <path
       d="m 350.71852,208.78255 c -0.0228,0.0118 -0.0461,0.0242 -0.0703,0.0392 -0.0518,-0.0257 -0.10021,-0.0573 -0.14887,-0.0884 -0.51311,-0.14656 -0.74462,-0.54133 -0.75729,-0.96202 -0.0587,-0.15807 -0.1028,-0.3225 -0.13418,-0.4895 -0.19033,-1.01241 -0.0282,-2.12474 0.10107,-3.13599 0.24907,-1.94649 0.76017,-3.87629 1.74292,-5.58177 0.002,-8.2e-4 0.005,-0.002 0.007,-0.003 0.0798,-0.0452 0.16096,-0.0833 0.2436,-0.12238 0.006,-0.003 0.008,-0.004 0.0132,-0.006 0.04,-0.0115 0.0795,-0.0247 0.11979,-0.0351 0.0127,-0.003 0.0559,-0.0173 0.0953,-0.0273 0.006,8.2e-4 0.0181,8.2e-4 0.0415,-8.2e-4 0.0101,-8.1e-4 0.0202,-0.002 0.0303,-0.002 0.0766,-0.0703 0.15836,-0.13591 0.25223,-0.19119 0.16528,-0.0979 0.33373,-0.13159 0.50678,-0.15175 -0.54248,-0.27557 -1.1175,-0.35763 -1.71585,-0.30809 -0.0582,0.028 -0.11834,0.0522 -0.17478,0.0844 -0.15376,0.0872 -0.34985,0.24331 -0.38815,0.42356 -0.0443,0.0375 -0.0844,0.0783 -0.11517,0.12642 -1.02566,1.60412 -1.59866,3.43746 -1.90187,5.30707 -0.14973,0.92372 -0.25022,1.86385 -0.28391,2.79937 -0.0311,0.86153 0.055,1.80167 0.67811,2.45732 0.64499,0.67867 1.59693,0.74806 2.43887,0.47078 0.17248,-0.0806 0.34669,-0.15894 0.52003,-0.23842 0.0619,-0.0481 0.11604,-0.10567 0.12813,-0.16182 0.0541,-0.0314 0.1051,-0.068 0.15808,-0.1019 -0.45898,0.025 -0.92372,-0.007 -1.38702,-0.0988"
       style="fill:#272726;fill-opacity:1;fill-rule:nonzero;stroke:none;stroke-width:0.0287943"
       id="path575" />
    <path
       d="m 315.96292,219.21306 c -0.0184,0.52688 -0.0159,1.05459 0.0157,1.5831 -0.12308,-0.007 -0.2459,-0.0168 -0.36898,-0.0246 0.15575,-0.51097 0.27262,-1.03111 0.35333,-1.55856 z m -0.52014,-14.35655 c -0.0194,1.51185 -0.0386,3.02344 -0.0583,4.53557 -0.0335,2.61073 -0.008,5.23088 -0.11283,7.84052 -0.0302,-3.94011 -0.0605,-7.87994 -0.091,-11.82004 -0.009,-1.12721 -0.0173,-2.25469 -0.0259,-3.38218 0.13172,0.93881 0.22917,1.88113 0.28801,2.82613 z m 0.23969,-3.99408 c -0.11013,0.0585 -0.19003,0.14387 -0.19138,0.24779 -8.4e-4,0.0466 -10e-4,0.0931 -0.002,0.13981 -0.13874,0.0357 -0.27046,0.1096 -0.33902,0.20784 -0.002,-0.18895 -0.003,-0.37842 -0.004,-0.56738 0.17896,-0.0108 0.35765,-0.02 0.53661,-0.0281 z m 0.53526,10.73225 0.18679,2.02659 c -0.0748,0.0154 -0.14846,0.0367 -0.21351,0.0635 z m 0.0491,-3.82594 c 0.0642,-0.0529 0.10716,-0.11769 0.10824,-0.19272 0.002,-0.11635 -0.002,-0.23296 -0.002,-0.34928 0.0254,0.47372 0.0505,0.94716 0.0756,1.42088 0.0453,0.85431 0.091,1.70862 0.13632,2.56295 -0.1652,0.041 -0.31878,0.10824 -0.36494,0.18867 0.0157,-1.21035 0.031,-2.42042 0.0467,-3.6305 z m 0.5709,12.37096 c 0.0645,-0.027 0.1193,-0.0591 0.15844,-0.0945 0.0246,0.26669 0.0491,0.53337 0.0734,0.80006 -0.12389,-0.004 -0.24779,-0.009 -0.37195,-0.0147 0.0837,-0.0461 0.14036,-0.10127 0.14036,-0.16195 z m 0.66131,-14.16056 c 0.003,0.68993 0.007,1.37986 0.005,2.06979 -0.003,1.20792 -0.0132,2.41582 -0.0273,3.62401 -0.0972,-1.83279 -0.19434,-3.66504 -0.29179,-5.49757 0.13227,-0.0407 0.25454,-0.10878 0.31366,-0.19623 z m 3.08067,14.8567 c -0.67104,0.002 -1.3418,0.0143 -2.01257,0.0367 -0.20055,-2.7e-4 -0.40111,-0.002 -0.60166,-0.004 -0.002,-0.0448 -0.005,-0.0897 -0.007,-0.13443 0.10662,-0.0613 0.18436,-0.15331 0.1884,-0.271 0.18328,-5.45143 0.25697,-10.90608 0.21702,-16.36046 -0.008,-1.07188 0.0866,-2.31705 -0.50017,-3.26152 0.7118,0.0133 1.42332,0.0465 2.1343,0.10744 0.19516,0.0168 0.47399,-0.0607 0.55794,-0.25994 0.0799,-0.19004 -0.0721,-0.33553 -0.25859,-0.35144 -2.77403,-0.23836 -5.56722,-0.14387 -8.31722,0.29232 -0.17923,0.0283 -0.45455,0.12173 -0.47264,0.34172 -0.0165,0.20217 0.22296,0.29989 0.39355,0.27289 0.79143,-0.1255 1.58609,-0.21944 2.38237,-0.28854 l 0.12443,16.12482 c 0.009,1.20036 0.0186,2.40045 0.0278,3.60081 -0.38518,-0.0351 -0.77009,-0.0729 -1.15447,-0.11742 -0.20244,-0.0236 -0.4748,0.0621 -0.5547,0.2702 -0.0758,0.19677 0.0713,0.36818 0.26912,0.39112 0.11121,0.0128 0.22269,0.0232 0.33363,0.0351 -0.36467,0.0419 -0.7288,0.0864 -1.09266,0.13442 -0.19192,0.0251 -0.4524,0.1339 -0.46697,0.3617 -0.0138,0.20893 0.21621,0.33283 0.40273,0.30827 0.7647,-0.10064 1.53101,-0.18625 2.29814,-0.25995 0.11661,0.24267 0.62893,0.13957 0.7782,-0.0707 1.06944,-0.0897 2.14078,-0.15278 3.21346,-0.18922 0.68454,0.002 1.36934,-0.0105 2.0536,-0.0378 0.50179,-0.0202 0.64485,-0.67158 0.0642,-0.67022"
       style="fill:#c67379;fill-opacity:1;fill-rule:nonzero;stroke:none;stroke-width:0.0269925"
       id="path761-0-2"
       sodipodi:nodetypes="sccssccccccscccccsccccccccccccccccccccccccccccccccccccccccccccccccccc" />
    <path
       d="m 317.67533,196.20755 c -0.0451,-0.0899 -0.1023,-0.16816 -0.16546,-0.2405 -0.21567,-0.34523 -0.61084,-0.51582 -1.02383,-0.50097 -0.33093,0.0116 -0.69236,0.1058 -0.9855,0.29178 -0.18841,0.11364 -0.34901,0.26615 -0.4505,0.46103 -0.20839,0.39922 -0.17761,0.87591 0.0688,1.25084 0.27532,0.41946 0.80842,0.52689 1.27647,0.43026 0.44538,-0.0446 0.88752,-0.298 1.10049,-0.69182 0.14117,-0.26128 0.20676,-0.58087 0.15359,-0.87753 0.0267,-0.0392 0.0456,-0.0837 0.0259,-0.12309"
       style="fill:#c67379;fill-opacity:1;fill-rule:nonzero;stroke:none;stroke-width:0.0269925"
       id="path763-9-0" />
    <path
       d="m 316.51303,197.40332 c 5.4e-4,-5.4e-4 10e-4,-7.6e-4 0.002,-7.6e-4 -8.4e-4,2.7e-4 -0.002,7.6e-4 -0.002,7.6e-4 2.7e-4,0 2.7e-4,0 5.4e-4,0"
       style="fill:#c67379;fill-opacity:1;fill-rule:nonzero;stroke:none;stroke-width:0.0269925"
       id="path765-6-5" />
    <path
       d="m 477.70767,191.62203 c -0.0138,0.003 -0.0265,0.007 -0.0388,0.0141 3.5e-4,-0.004 0,-0.009 0,-0.0138 0,0 0,0 0,-3.5e-4 0.013,0 0.0257,0 0.0388,0 z m -0.86289,30.2761 c -0.013,-0.003 -0.0254,-0.01 -0.0381,-0.0145 -0.0452,-0.0166 -0.0892,-0.0406 -0.13053,-0.0825 0.22895,-0.0663 0.45967,-0.16087 0.69956,-0.11007 0.24271,0.0512 0.13017,0.14499 0.002,0.22084 -0.17039,-0.0501 -0.3616,0.0289 -0.5334,-0.0138 z m 0.0307,-30.18226 c -0.002,0.0356 -0.006,0.072 -0.0109,0.1076 -0.0148,0.0984 -0.0395,0.19544 -0.085,0.29139 -0.007,-0.15769 -0.013,-0.31503 -0.0198,-0.47237 0,-3.5e-4 0,-3.5e-4 0,-7e-4 0,3.5e-4 0,3.5e-4 0,7e-4 0.002,-0.11147 0.003,-0.2226 0.005,-0.33408 7e-4,-0.0455 0.001,-0.091 0.002,-0.13652 0.001,-0.11571 0.003,-0.23107 0.004,-0.34713 0.03,-0.0931 0.0642,-0.10055 0.10407,-0.005 -0.0406,0.29598 0.0215,0.59901 3.5e-4,0.8964 z m 6.8065,12.32571 c -1.5935,-0.0236 -3.187,-0.0783 -4.78014,-0.0656 -0.49707,0.004 -0.59796,-0.15487 -0.61101,-0.6103 -0.0498,-1.75684 -0.14112,-3.51261 -0.21661,-5.26839 v 0 0 c 0.0473,-1.52153 -0.0762,-3.03741 -0.16051,-4.55366 -0.0356,-0.64029 0.0229,-1.2901 -0.13865,-1.92228 -0.0102,-0.26388 0.002,-0.53164 -0.0363,-0.79164 -0.0854,-0.57749 -0.28258,-0.71367 -0.8763,-0.69003 -0.71932,0.0289 -1.2506,0.34925 -1.59491,0.98072 -0.0896,0.29493 -0.23777,0.58561 -0.25929,0.88548 -0.14041,1.99849 -0.38947,3.98921 -0.44591,5.9944 -0.055,1.95439 -0.13512,3.90807 -0.20426,5.86211 -0.85443,-0.0547 -1.7085,-0.1143 -2.56364,-0.16263 -0.56444,-0.0314 -1.11513,0.0423 -1.64147,0.26035 h -3.6e-4 c -0.34889,0.0215 -0.62124,0.16016 -0.66886,0.53516 -0.0519,0.41099 0.23671,0.5962 0.5655,0.71155 0.21696,0.0762 0.44803,0.13723 0.67628,0.1524 0.84419,0.0564 1.69015,0.0935 2.53541,0.13335 1.35749,0.0631 1.09149,-0.11042 1.07315,1.13066 -0.0765,5.17419 -0.23283,10.34803 -0.0656,15.52363 0.0194,0.60431 0.28081,0.85655 0.90276,0.87277 0.65052,0.0173 1.29293,-0.0751 1.92899,-0.18979 1.19168,-0.21484 1.36137,-0.4385 1.36984,-1.65312 0.0318,-4.82776 3.5e-4,-9.65482 -0.085,-14.48153 -0.0226,-1.28481 -0.0198,-1.28764 1.30069,-1.29857 1.36137,-0.0113 2.72168,-0.0444 4.07493,-0.21061 0.38735,-0.0473 0.69992,-0.21096 0.6597,-0.64841 -0.0388,-0.41804 -0.37712,-0.49036 -0.73836,-0.496"
       style="fill:#b3b2e9;fill-opacity:1;fill-rule:nonzero;stroke:none;stroke-width:0.0352778"
       id="path447-9-6-4" />
    <path
       d="m 250.19786,208.94624 c 0.0185,0.41542 -0.14965,0.79579 -0.23732,1.19013 -0.0414,0.1865 -0.0862,0.39332 -0.25306,0.52875 0.1339,0.047 0.16312,-0.079 0.19437,-0.15956 0.17913,-0.4599 0.31913,-0.93122 0.34911,-1.42822 0.006,-0.0894 -0.0175,-0.18446 0.0552,-0.25967 -0.0765,0.008 -0.11179,0.0535 -0.10823,0.12857"
       style="fill:#617e83;fill-opacity:1;fill-rule:nonzero;stroke:none;stroke-width:0.0254084"
       id="path477-6-1" />
    <path
       d="m 240.55825,223.22552 c 0.43246,-0.093 0.88138,-0.0882 1.30734,-0.21444 0.10105,-0.0297 0.26006,0.003 0.27397,-0.16846 -0.10146,0.0816 -0.23097,0.0752 -0.34759,0.10951 -0.40524,0.11866 -0.84691,0.0724 -1.23372,0.27339"
       style="fill:#617e83;fill-opacity:1;fill-rule:nonzero;stroke:none;stroke-width:0.0254084"
       id="path479-2-4" />
    <path
       d="m 250.25732,207.80489 c 0.005,0.264 -0.0683,0.53587 0.0488,0.79351 0,-0.47489 0,-0.94952 0,-1.4244 -0.11409,0.20226 -0.0524,0.42178 -0.0488,0.63089"
       style="fill:#617e83;fill-opacity:1;fill-rule:nonzero;stroke:none;stroke-width:0.0254084"
       id="path481-1-9" />
    <path
       d="m 250.25401,196.26743 -0.009,-0.0129 c 0.002,0.006 0.005,0.0105 0.006,0.0155 7.2e-4,-7.2e-4 0.002,-0.002 0.003,-0.003"
       style="fill:#c67379;fill-opacity:1;fill-rule:nonzero;stroke:none;stroke-width:0.0254084"
       id="path531-85-0" />
    <path
       d="m 248.23938,196.3246 -0.01,-0.0139 c 0.002,0.005 0.005,0.01 0.007,0.0149 7.3e-4,-2.6e-4 0.002,-5e-4 0.002,-7.2e-4"
       style="fill:#c67379;fill-opacity:1;fill-rule:nonzero;stroke:none;stroke-width:0.0254084"
       id="path533-7-7" />
    <path
       d="m 244.7042,196.32663 c 0.0271,0.002 0.0544,0.003 0.0814,0.005 -4.9e-4,-0.002 -7.2e-4,-0.002 -0.002,-0.004 -0.0265,-2.5e-4 -0.0533,-5e-4 -0.0799,-7.2e-4"
       style="fill:#c67379;fill-opacity:1;fill-rule:nonzero;stroke:none;stroke-width:0.0254084"
       id="path535-4-5" />
    <path
       d="m 385.4857,197.15266 c 0.51647,0.0384 1.02835,0.12453 1.53282,0.25718 0.57433,0.18873 1.1303,0.4378 1.663,0.74718 0.57679,0.38171 1.11337,0.83397 1.59526,1.36137 0.44662,0.54928 0.82656,1.16099 1.12818,1.82739 0.03,0.0769 0.0614,0.15346 0.0896,0.23178 0.16581,0.46284 0.40464,0.76517 0.81986,0.95497 0.42898,0.19543 1.01423,0.20637 1.45309,0.054 0.45755,-0.15875 0.94474,-0.42156 1.23402,-0.87771 0.21978,-0.34642 0.44943,-0.85795 0.2928,-1.29575 -0.69709,-1.94733 -1.89053,-3.59234 -3.46004,-4.70464 -1.59632,-1.13136 -3.43923,-1.81928 -5.31989,-1.91029 -2.11138,-0.10196 -4.23404,0.34889 -6.07801,1.57691 -1.02941,0.68545 -1.91558,1.48943 -2.74496,2.46415 -0.69886,0.82162 -1.26083,1.75895 -1.76601,2.74603 -1.92864,3.77119 -2.24966,8.64411 -0.72108,12.66013 0.29492,0.77435 0.64029,1.51554 1.03399,2.21686 0.18662,1.09608 0.5013,2.16711 1.07703,3.06282 0.88266,1.37336 2.28212,2.28776 3.69853,2.74178 1.33456,0.42793 2.71674,0.60608 4.10033,0.42757 1.40582,-0.18133 2.76755,-0.61559 4.0446,-1.31586 0.0444,-0.0243 0.0882,-0.0515 0.13265,-0.0765 0.40887,-0.19579 0.80786,-0.42086 1.19203,-0.6798 1.7466,-1.17793 3.27942,-2.85009 4.04919,-5.03732 0.19261,-0.54857 0.32914,-1.12783 0.43038,-1.70638 0.0723,-0.41381 -0.1905,-0.94368 -0.47872,-1.1677 -0.31926,-0.24871 -0.67768,-0.35595 -1.0608,-0.37288 -0.42051,-0.018 -0.88124,0.0663 -1.25624,0.29915 -0.37782,0.23495 -0.82374,0.58773 -0.96379,1.0795 -0.17674,0.62124 -0.4131,1.21426 -0.69744,1.77977 -0.31221,0.54716 -0.66993,1.05657 -1.06645,1.52682 -0.38805,0.41275 -0.80363,0.78705 -1.24424,1.12289 -0.1651,0.11148 -0.33232,0.21767 -0.50201,0.31785 -0.008,0.004 -0.0152,0.007 -0.0226,0.0102 -0.34643,0.13441 -0.69956,0.24483 -1.05833,0.32879 0.007,-0.25505 -0.0427,-0.50764 -0.19861,-0.69215 -0.98743,-1.16663 -1.79705,-2.5086 -2.42641,-3.96169 -0.71085,-1.77836 -1.14723,-3.68512 -1.30951,-5.63104 -0.10654,-1.82915 0.0303,-3.66889 0.42263,-5.44724 0.3249,-1.29611 0.78634,-2.54141 1.38677,-3.70241 0.0293,-0.0522 0.0575,-0.10512 0.0871,-0.15698 0.17286,-0.30198 0.34642,-0.66746 0.3309,-1.04422 0.19297,-0.0124 0.38629,-0.0159 0.58032,-0.0145"
       style="fill:#ebc532;fill-opacity:1;fill-rule:nonzero;stroke:none;stroke-width:0.0352778"
       id="path655-9" />
    <path
       d="m 382.54319,196.75649 c -0.3997,-0.14181 -0.94086,0.006 -1.21779,0.32632 -2.80953,3.25367 -4.06295,7.66833 -3.51543,11.91895 0.15381,1.1931 0.46178,2.36044 0.91404,3.47487 0.16052,0.39616 0.64559,0.44943 1.01671,0.3503 0.28716,-0.0773 0.86536,-0.41698 0.7052,-0.81174 -1.51342,-3.73027 -1.31762,-8.0391 0.46426,-11.64343 0.49918,-1.00965 1.11724,-1.94169 1.85314,-2.79365 0.26,-0.30092 0.15205,-0.68932 -0.22013,-0.82162"
       style="fill:#e2ae2b;fill-opacity:1;fill-rule:nonzero;stroke:none;stroke-width:0.0352778"
       id="path657-33" />
    <path
       d="m 381.87785,217.23454 c -0.19368,-0.41346 -0.38735,-0.82691 -0.58068,-1.24072 -0.0219,-0.091 -0.0677,-0.16439 -0.13899,-0.22084 -0.0607,-0.0727 -0.13829,-0.12382 -0.23178,-0.1531 -0.19438,-0.0765 -0.45931,-0.0801 -0.65757,-0.0201 -0.20744,0.0632 -0.42828,0.16651 -0.55986,0.34642 -0.0339,0.054 -0.067,0.10831 -0.1009,0.16228 -0.0512,0.11183 -0.0621,0.22754 -0.0332,0.34678 0.19368,0.41381 0.387,0.82727 0.58068,1.24072 0.0215,0.091 0.0677,0.16475 0.13829,0.22084 0.0614,0.0727 0.13864,0.12382 0.23177,0.15346 0.19473,0.0765 0.45967,0.0797 0.65828,0.0198 0.20744,-0.0628 0.42828,-0.16651 0.55986,-0.34608 0.0335,-0.0543 0.067,-0.1083 0.1009,-0.16263 0.0508,-0.11183 0.0621,-0.22719 0.0332,-0.34678"
       style="fill:#e2ae2b;fill-opacity:1;fill-rule:nonzero;stroke:none;stroke-width:0.0352778"
       id="path659-8" />
    <path
       d="m 409.09333,211.83391 c -0.0609,0.56267 -0.11021,1.12642 -0.18163,1.68748 -0.27325,2.14235 -1.14312,3.97454 -2.84623,5.34699 -0.94587,0.76209 -2.02594,1.08627 -3.24291,0.83862 -0.0665,-0.0137 -0.13582,-0.0121 -0.20453,-0.0154 -0.007,-2.7e-4 -0.0135,-2.7e-4 -0.0202,-7.6e-4 v 0 c -1.23745,-0.28727 -1.96289,-1.19083 -2.61637,-2.18144 -0.0825,-0.12504 -0.166,-0.24953 -0.249,-0.3743 -0.004,-0.008 -0.006,-0.0162 -0.01,-0.0245 -1.16981,-2.7274 -1.38539,-5.59007 -1.23017,-8.51391 0.13419,-2.52152 0.5085,-5.00126 1.16441,-7.43762 0.12585,-0.46727 0.29966,-0.92162 0.45192,-1.38188 7.6e-4,-0.003 0.002,-0.006 0.003,-0.01 0.28376,-0.55324 0.68744,-1.01297 1.12292,-1.44792 v 0 0 c 0.14471,0.0984 0.0283,0.29024 0.14201,0.39992 0.20615,1.44656 1.68613,2.92896 3.2615,3.23374 0.90114,0.17435 1.80336,0.17435 2.68536,-0.13151 0.007,-0.002 0.0134,-0.004 0.0205,-0.007 0.53168,-0.0539 1.01863,-0.26273 1.5072,-0.45514 0.23471,-0.0924 0.30046,-0.0291 0.34115,0.19834 0.1431,0.79469 0.21074,1.59908 0.22771,2.40186 0.0547,2.63038 -0.0437,5.25618 -0.32688,7.87363 z m -5.51945,-14.86552 c 0.42416,-0.30236 0.89223,-0.15414 1.33769,-0.1051 0.62223,0.0682 1.15606,0.37754 1.66349,0.72894 0.002,0 0.003,0 0.005,0 0.19619,0.19914 0.40692,0.38697 0.58396,0.60201 0.13259,0.16115 0.38805,0.23876 0.37081,0.50959 v 2.7e-4 c -0.14202,0.0776 -0.29024,0.14525 -0.42417,0.23498 -0.63974,0.4282 -1.33526,0.55001 -2.08172,0.38724 -0.77799,-0.1695 -1.28137,-0.67558 -1.54788,-1.3932 -0.11131,-0.29993 -0.13367,-0.66265 0.093,-0.96473 z m 9.6565,-1.20969 c 0.0943,-0.24388 0.07,-0.38239 -0.15899,-0.52522 -0.41231,-0.25816 -0.80575,-0.54839 -1.20996,-0.82514 -0.0242,-0.0175 -0.0512,-0.0348 -0.0781,-0.0523 -0.19133,-0.128 -0.38535,-0.25466 -0.57399,-0.3867 -0.11857,-0.0825 -0.19753,-0.0819 -0.25331,0.0676 -0.37565,1.00542 -1.01944,1.87342 -1.45492,2.84812 -0.0623,0.0865 -0.14228,0.16519 -0.18297,0.26086 -0.13232,0.31151 -0.28646,0.31879 -0.47752,0.0539 -0.18837,-0.25924 -0.41177,-0.48291 -0.66966,-0.67262 v 0 c -0.0781,-0.0779 -0.15656,-0.15576 -0.23471,-0.23364 -0.0558,-0.12989 -0.14471,-0.21666 -0.29293,-0.2269 -0.0752,-0.0501 -0.15063,-0.10024 -0.22581,-0.15037 -0.15415,-0.1924 -0.37054,-0.26571 -0.59906,-0.31502 -2.7e-4,0 -2.7e-4,0 -2.7e-4,-2.7e-4 v 2.7e-4 0 c 2.7e-4,2.7e-4 5.4e-4,5.4e-4 7.7e-4,5.4e-4 -0.13312,-0.11022 -0.28781,-0.15333 -0.45866,-0.14498 v 0 c -0.31313,-0.0399 -0.61629,-0.12154 -0.91514,-0.22044 -0.94049,-0.25357 -1.87477,-0.22986 -2.80205,0.0672 -2.7e-4,0 -2.7e-4,0 -5.3e-4,2.7e-4 -0.34305,0.10024 -0.67316,0.22717 -0.97282,0.42955 -0.66723,0.45164 -1.22479,1.02401 -1.76725,1.61229 -0.35598,0.38616 -0.7222,0.7672 -0.93374,1.26196 -0.13528,0.13043 -0.19187,0.30344 -0.25493,0.47321 0,0 0,0 -2.6e-4,0 -0.0582,0.0916 -0.12908,0.17894 -0.11669,0.29858 -0.0247,0.0426 -0.0577,0.0827 -0.0733,0.12855 -0.81922,2.40213 -1.46031,4.84469 -1.67454,7.38479 -0.0122,0.14633 0.063,0.332 -0.13205,0.42578 0,0.22662 0,0.45326 0,0.67989 0,0.15117 0,0.30209 0,0.45326 0,0.30182 0,0.6039 0,0.90599 0,0.15091 0,0.30209 0,0.45326 0,0.2261 0,0.45273 0,0.67936 0,0.22663 0,0.45326 0,0.67963 0.0294,-0.002 0.0582,-0.003 0.0873,-0.005 0.0173,0.007 0.0348,0.0116 0.0528,0.015 -0.006,0.4088 -0.0321,0.81895 0.079,1.2202 0,2.7e-4 0,5.4e-4 2.8e-4,7.7e-4 -0.0157,0.0164 -0.0159,0.0331 -2.8e-4,0.0496 -0.005,0.46889 0.034,0.9324 0.14984,1.38781 v 2.7e-4 c -0.0146,0.0162 -0.014,0.0323 0.002,0.0474 2.7e-4,0.31232 0.0445,0.6171 0.15171,0.91138 -7.6e-4,-7.6e-4 -0.002,-0.002 -0.002,-0.002 -0.002,0.13177 -0.0148,0.2657 0.0727,0.37969 -5.3e-4,-5.3e-4 -7.6e-4,-7.6e-4 -10e-4,-0.002 -2.7e-4,0.15603 -0.008,0.31314 0.0811,0.45273 -0.005,0.13366 -0.001,0.26516 0.0746,0.38266 7.7e-4,0.002 7.7e-4,0.003 0.002,0.005 -0.008,0.31664 0.10753,0.60606 0.19619,0.90168 0.0512,0.18055 0.0684,0.37295 0.18055,0.53249 0,2.7e-4 0,2.7e-4 0,2.7e-4 0.0515,0.35194 0.22394,0.66238 0.33954,0.99249 0.66022,1.885 2.63658,2.72065 4.38711,2.77913 0.64487,0.0757 1.29027,0.13286 1.93513,5.4e-4 2.7e-4,0 2.7e-4,0 5.4e-4,0 l 0.0226,0.0118 0.0229,-0.0121 c 0.15765,0.004 0.31798,0.0224 0.45892,-0.0746 -5.4e-4,7.7e-4 -10e-4,0.002 -0.002,0.002 0.13716,0.005 0.27298,0.005 0.39182,-0.0798 2.6e-4,-2.7e-4 2.6e-4,-2.7e-4 5.4e-4,-2.7e-4 0.18702,0.007 0.35248,-0.0593 0.50932,-0.15361 0.31178,-0.0167 0.58826,-0.15467 0.83322,-0.31852 1.20645,-0.80816 2.32102,-1.7252 3.08365,-2.98824 0.87311,-1.44603 1.2175,-3.07341 1.50935,-4.70969 0.43116,-2.4121 0.47967,-4.85007 0.43925,-7.29047 -0.0296,-1.84243 -0.31798,-3.65306 -0.82326,-5.42461 -0.0817,-0.28646 -0.0552,-0.49396 0.12558,-0.72517 0.88631,-1.13343 1.63008,-2.35147 2.15287,-3.69913"
       style="fill:#617e83;fill-opacity:1;fill-rule:nonzero;stroke:none;stroke-width:0.0269479"
       id="path675-3-0" />
    <path
       d="m 420.60335,220.12533 c -1.69413,0.0101 -3.39201,-0.0719 -5.07917,0.13712 -0.56587,0.0698 -0.45368,-0.30902 -0.44789,-0.61109 0.0791,-4.38372 0.1635,-8.76686 0.20989,-11.21267 0.16089,-6.24568 0.31511,-10.55403 0.22438,-14.86441 -0.0127,-0.60037 0.10957,-0.82039 0.7569,-0.79691 1.22217,0.0444 2.43304,0.16872 3.64652,0.29859 0.52384,0.0562 0.74734,0.29047 0.79256,0.78241 0.14988,1.63528 0.36121,3.26677 0.45136,4.90465 0.24757,4.48084 0.13104,8.96747 0.16524,13.45178 0.0177,2.34174 0.0632,4.68347 0.13335,7.02433 0.0197,0.65168 -0.21829,0.88272 -0.85314,0.8862 z m 1.19144,-26.62671 c -0.17538,-1.06303 -0.4786,-1.32075 -1.54744,-1.49352 -1.68165,-0.2722 -3.37432,-0.27801 -5.06959,-0.27945 -0.53949,-2.9e-4 -0.77053,0.22496 -0.75923,0.76357 0.0977,4.66173 -0.1003,9.31765 -0.25742,13.97416 -0.25539,4.63013 -0.0484,9.26982 -0.31627,13.89995 -0.0476,0.82329 0.35338,1.19087 1.18682,1.11579 1.93675,-0.17452 3.87988,-0.20177 5.82157,-0.25337 1.3448,-0.0357 1.7176,-0.38584 1.70774,-1.74978 -0.0484,-6.57934 -0.073,-13.15898 -0.17451,-19.73775 -0.0325,-2.08693 -0.25104,-4.17355 -0.59167,-6.2396"
       style="fill:#2f2c2c;fill-opacity:1;fill-rule:nonzero;stroke:none;stroke-width:0.028989"
       id="path525-5" />
    <path
       d="m 430.6981,220.2263 c -1.69413,0.0101 -3.39201,-0.0719 -5.07917,0.13712 -0.56587,0.0698 -0.45368,-0.30902 -0.44789,-0.61109 0.0791,-4.38372 0.1635,-8.76686 0.20989,-11.21267 0.16089,-6.24568 0.31511,-10.55403 0.22438,-14.86441 -0.0127,-0.60037 0.10957,-0.82039 0.7569,-0.79691 1.22217,0.0444 2.43304,0.16872 3.64652,0.29859 0.52384,0.0562 0.74734,0.29047 0.79256,0.78241 0.14988,1.63528 0.36121,3.26677 0.45136,4.90465 0.24757,4.48084 0.13104,8.96747 0.16524,13.45178 0.0177,2.34174 0.0632,4.68347 0.13335,7.02433 0.0197,0.65168 -0.21829,0.88272 -0.85314,0.8862 z m 1.19144,-26.62671 c -0.17538,-1.06303 -0.4786,-1.32075 -1.54744,-1.49352 -1.68165,-0.2722 -3.37432,-0.27801 -5.06959,-0.27945 -0.53949,-2.9e-4 -0.77053,0.22496 -0.75923,0.76357 0.0977,4.66173 -0.1003,9.31765 -0.25742,13.97416 -0.25539,4.63013 -0.0484,9.26982 -0.31627,13.89995 -0.0476,0.82329 0.35338,1.19087 1.18682,1.11579 1.93675,-0.17452 3.87988,-0.20177 5.82157,-0.25337 1.3448,-0.0357 1.7176,-0.38584 1.70774,-1.74978 -0.0484,-6.57934 -0.073,-13.15898 -0.17451,-19.73775 -0.0325,-2.08693 -0.25104,-4.17355 -0.59167,-6.2396"
       style="fill:#2f2c2c;fill-opacity:1;fill-rule:nonzero;stroke:none;stroke-width:0.028989"
       id="path525-3-6" />
    <path
       d="m 433.87695,220.06146 -0.0107,-0.0148 c 0.002,0.006 0.005,0.0119 0.007,0.0177 8.2e-4,-8.2e-4 0.002,-0.002 0.003,-0.002"
       style="fill:#c67379;fill-opacity:1;fill-rule:nonzero;stroke:none;stroke-width:0.028989"
       id="path531-9-6" />
    <path
       d="m 232.62038,217.96309 c 0.23215,-0.52763 0.4297,-1.07973 0.60191,-1.64478 0.0366,0.001 0.0605,-0.004 0.0664,-0.0228 0.0765,-0.25467 0.15337,-0.51074 0.22934,-0.76766 0.0124,5.6e-4 0.0242,0.001 0.0366,0.001 -0.24566,0.84925 -0.55154,1.67038 -0.93425,2.43355 z m -4.76355,3.50906 c 0.10637,-0.11199 0.2119,-0.22793 0.31292,-0.34922 0.0203,0.0349 0.0481,0.0661 0.0816,0.0954 -0.12944,0.0895 -0.26058,0.17446 -0.39452,0.25381 z m -2.53907,1.59921 c 0.0307,-0.01 0.0613,-0.0169 0.0923,-0.0268 0.19416,-0.0639 0.3872,-0.1435 0.57827,-0.23157 0.0262,0.0194 0.0509,0.0416 0.0777,0.0591 0.0743,0.0489 0.15168,0.09 0.22963,0.12662 -0.3253,0.0464 -0.65173,0.072 -0.97787,0.0726 z m -1.59132,-2.07702 c -0.13339,-0.011 -0.26761,-0.0248 -0.40128,-0.0439 0.0152,-0.0357 0.0273,-0.0726 0.036,-0.11172 0.0366,0.006 0.0729,0.0141 0.10946,0.0212 0.0954,0.0369 0.19192,0.0687 0.28844,0.10022 -0.011,0.0113 -0.0231,0.0223 -0.0326,0.0343 z m -2.08011,-4.67632 c 0,-0.10946 2.8e-4,-0.21921 5.6e-4,-0.32895 0.0771,0.16631 0.16012,0.32895 0.2496,0.48766 -0.0841,-0.0504 -0.16659,-0.1058 -0.25016,-0.15871 z m -1.62481,2.82696 c -0.0189,-0.16153 -0.0363,-0.32333 -0.054,-0.48514 0.0538,0.0197 0.10806,0.0334 0.16124,0.0383 0.0152,0.0853 0.0315,0.17026 0.0473,0.25552 -0.0661,0.047 -0.11847,0.11116 -0.15449,0.19135 z m -1.5764,-18.703 c -0.0909,0.84448 -0.18517,1.6884 -0.29041,2.53091 -0.0912,0.72911 -0.19051,1.4571 -0.29406,2.18395 -0.0248,0.159 -0.0495,0.3177 -0.0743,0.47669 0.18319,-2.30129 0.42125,-4.59836 0.72939,-6.88643 0.0186,-0.13986 -0.004,-0.28731 -0.0461,-0.4311 0.0616,-8e-4 0.12325,-0.002 0.18516,-0.003 -0.006,0.0127 -0.0124,0.0228 -0.0177,0.036 -0.11228,0.28533 -0.0892,0.57489 0.0374,0.79439 -0.12466,0.4145 -0.18235,0.8639 -0.22934,1.29867 z m 18.20547,0.54676 c 0.0141,-0.1711 0.0276,-0.34162 0.0417,-0.51244 0.005,-0.0582 -0.01,-0.11256 -0.0343,-0.16377 2.8e-4,-0.0819 0.003,-0.16405 0.003,-0.24566 0.0366,-0.0447 0.0664,-0.0968 0.092,-0.1528 -0.006,-0.32108 -0.003,-0.64356 0.008,-0.96605 -0.0917,-0.22231 -0.25129,-0.38692 -0.47585,-0.39819 -1.67573,-0.0833 -3.35147,-0.16658 -5.02721,-0.24987 -0.52256,-0.0262 -0.69562,0.64581 -0.56646,1.15542 -0.049,0.0779 -0.0796,0.1559 -0.0771,0.22822 0.0124,0.32389 0.022,0.64863 0.0309,0.97337 -0.0965,0.0664 -0.16096,0.14407 -0.16181,0.23103 -0.0397,3.51468 -0.29687,7.02742 -0.59685,10.53338 -0.005,0.0613 -0.0107,0.12691 -0.016,0.18882 -0.21245,0.96773 -0.42463,1.93547 -0.63709,2.90321 -0.14604,0.46543 -0.30841,0.92299 -0.48401,1.37323 -0.20823,0.33177 -0.44011,0.64215 -0.70237,0.92271 -0.68465,0.73221 -1.46216,1.00291 -2.21828,0.92468 -0.10412,0.0468 -0.21133,0.0853 -0.32277,0.11201 -0.41759,0.0999 -0.82168,0.0212 -1.1951,-0.16688 -0.7882,-0.0692 -1.50915,-0.5462 -2.02018,-1.55726 -0.89682,-1.7734 -0.87571,-4.23762 -0.83097,-6.32392 0.0557,-2.61927 0.33965,-5.24052 0.64835,-7.84094 0.11762,-0.99109 0.24538,-1.98078 0.36131,-2.97188 0.0442,-0.37904 0.0816,-0.75893 0.12297,-1.13798 0.0104,-0.0943 0.0124,-0.3101 0.0149,-0.45221 -1.83247,-0.23328 -3.70069,-0.15083 -5.54808,-0.25439 -0.0101,0.0591 0.0234,0.15702 0.0689,0.2558 -0.24567,0.12551 -0.45869,0.33402 -0.48739,0.57743 -0.57096,4.79844 -0.93594,9.62502 -1.08424,14.45273 -0.0481,1.5539 -0.10411,3.16041 0.20289,4.63607 -0.0276,0.0425 -0.0377,0.0948 -0.0259,0.15758 0.51187,2.69892 2.12627,4.73288 4.00799,5.87424 2.30973,1.40137 5.01906,1.47172 7.54969,0.84561 2.33844,-0.57829 4.78549,-1.58822 6.30084,-4.2044 1.28318,-2.2149 1.80771,-4.97771 2.1195,-7.63075 0.15365,-1.30794 0.25917,-2.62236 0.3616,-3.93594 0.34472,-2.37445 0.5386,-4.77649 0.57772,-7.18021"
       style="fill:#a4dbd8;fill-opacity:1;fill-rule:nonzero;stroke:none;stroke-width:0.0281401"
       id="path947-1" />
    <path
       d="m 232.5897,200.53428 c -0.0183,-0.44237 -0.0428,-0.88416 -0.0715,-1.32568 -0.0197,-0.29491 -0.80902,-0.37427 -0.79298,-0.1317 0.22427,3.40354 0.13141,6.8265 -0.28281,10.21231 -0.20598,1.68587 -0.47697,3.37202 -0.85855,5.02777 -0.33712,1.4633 -0.83773,2.9384 -1.89523,4.04571 -0.44011,0.46121 -0.97618,0.85714 -1.57697,1.08113 -0.6824,0.25439 -1.41038,0.27015 -2.11472,0.0943 -1.39068,-0.34725 -2.64038,-1.25138 -3.53242,-2.35701 -1.78492,-2.2118 -1.97178,-5.16229 -1.72611,-7.88174 0.13394,-1.48185 0.38861,-2.94935 0.62442,-4.41743 0.27803,-1.73173 0.55605,-3.46319 0.83408,-5.19493 0.0673,-0.41957 0.13479,-0.8397 0.20204,-1.25927 0.0439,-0.27267 -0.74852,-0.40521 -0.7927,-0.13197 -0.28647,1.78436 -0.57293,3.56843 -0.85912,5.35252 -0.25523,1.58991 -0.53944,3.17898 -0.7246,4.77875 -0.32502,2.81062 -0.30138,5.84805 1.32117,8.28835 1.60567,2.41526 5.1803,4.39267 7.96785,2.7763 1.27868,-0.74177 2.09643,-2.02693 2.59029,-3.38805 0.28365,-0.78201 0.47107,-1.59414 0.63737,-2.40795 0.177,-0.86644 0.33262,-1.73737 0.46656,-2.6114 0.53607,-3.48655 0.73221,-7.02544 0.58391,-10.54998"
       style="fill:#7bbab4;fill-opacity:1;fill-rule:nonzero;stroke:none;stroke-width:0.0281401"
       id="path949-3" />
    <path
       d="m 234.06143,212.63309 c 0.5628,-4.3558 0.88528,-8.7417 0.95788,-13.13296 0.009,-0.52847 0.0138,-1.05694 0.0155,-1.58542 0.001,-0.46458 -0.8017,-0.43841 -0.80311,0.0276 -0.0138,4.25423 -0.25776,8.50674 -0.73389,12.73451 -0.11679,1.03696 -0.2437,2.07391 -0.39593,3.10637 -0.14915,1.00939 -0.33853,2.01989 -0.68747,2.98172 -0.52931,1.45963 -1.50408,2.74 -2.758,3.65483 -1.21706,0.88782 -2.68765,1.43881 -4.19934,1.4751 -1.49677,0.0357 -2.99579,-0.46008 -4.21172,-1.32651 -1.25138,-0.89177 -2.2118,-2.1516 -2.64347,-3.63401 -0.27155,-0.93369 -0.34866,-1.9079 -0.4131,-2.87395 -0.0701,-1.04567 -0.12269,-2.09277 -0.15758,-3.13986 -0.14014,-4.18949 -0.002,-8.38855 0.41338,-12.55975 0.0512,-0.51552 0.10665,-1.03077 0.16687,-1.54545 0.0242,-0.20712 -0.081,-0.38383 -0.29547,-0.42886 -0.17081,-0.0357 -0.46094,0.0568 -0.48542,0.26593 -0.50568,4.32625 -0.72432,8.68318 -0.63625,13.03869 0.022,1.07383 0.0616,2.14708 0.11988,3.21978 0.0563,1.03725 0.10102,2.08462 0.27099,3.11089 0.15055,0.90722 0.41197,1.76916 0.85827,2.57565 0.38468,0.69535 0.89204,1.31949 1.47285,1.85978 1.17963,1.0969 2.71467,1.84682 4.31134,2.07336 1.63831,0.23215 3.30476,-0.0912 4.77226,-0.84477 1.43458,-0.73727 2.67274,-1.8865 3.49978,-3.27269 1.04287,-1.74777 1.3057,-3.79777 1.56177,-5.77996"
       style="fill:#7bbab4;fill-opacity:1;fill-rule:nonzero;stroke:none;stroke-width:0.0281401"
       id="path951-2" />
    <path
       d="m 263.08863,201.20393 c 0.47343,0.0352 0.94265,0.11416 1.40509,0.23575 0.52646,0.173 1.0361,0.40132 1.52441,0.68492 0.52872,0.3499 1.02058,0.76447 1.46232,1.24792 0.4094,0.5035 0.75768,1.06424 1.03417,1.67511 0.0275,0.0705 0.0563,0.14067 0.0821,0.21246 0.15199,0.42427 0.37091,0.70141 0.75153,0.87539 0.39323,0.17914 0.92972,0.18917 1.332,0.0495 0.41943,-0.14552 0.86601,-0.38643 1.13118,-0.80457 0.20147,-0.31755 0.41199,-0.78645 0.26841,-1.18777 -0.639,-1.78505 -1.73299,-3.29298 -3.17171,-4.31258 -1.46329,-1.03708 -3.15262,-1.66768 -4.87656,-1.7511 -1.93543,-0.0935 -3.8812,0.31981 -5.57151,1.4455 -0.94362,0.62833 -1.75595,1.36531 -2.51621,2.2588 -0.64062,0.75315 -1.15576,1.61237 -1.61884,2.51719 -1.76792,3.45693 -2.06219,7.92377 -0.66099,11.60512 0.27035,0.70982 0.58693,1.38924 0.94783,2.03212 0.17106,1.00474 0.45952,1.98652 0.98727,2.80759 0.8091,1.25891 2.09195,2.09711 3.39032,2.51329 1.22334,0.39227 2.49034,0.55558 3.75864,0.39194 1.28866,-0.16622 2.53691,-0.56429 3.70754,-1.2062 0.0408,-0.0223 0.0808,-0.0472 0.12159,-0.0701 0.3748,-0.17947 0.74054,-0.38579 1.0927,-0.62315 1.60105,-1.07977 3.00614,-2.61258 3.71175,-4.61754 0.17657,-0.50285 0.30172,-1.03384 0.39453,-1.56418 0.0663,-0.37933 -0.17463,-0.86504 -0.43883,-1.07039 -0.29266,-0.22799 -0.62121,-0.32629 -0.9724,-0.34181 -0.38547,-0.0165 -0.8078,0.0608 -1.15156,0.27422 -0.34634,0.21537 -0.75509,0.53875 -0.88347,0.98954 -0.16201,0.56947 -0.37868,1.11308 -0.63932,1.63146 -0.28619,0.50156 -0.6141,0.96852 -0.97758,1.39958 -0.35572,0.37836 -0.73666,0.72147 -1.14056,1.02932 -0.15134,0.10219 -0.30462,0.19953 -0.46017,0.29136 -0.007,0.004 -0.0139,0.006 -0.0207,0.009 -0.31755,0.12321 -0.64126,0.22443 -0.97013,0.30139 0.006,-0.23379 -0.0391,-0.46533 -0.18207,-0.63447 -0.90514,-1.06941 -1.64729,-2.29955 -2.2242,-3.63155 -0.65161,-1.63016 -1.05163,-3.37802 -1.20039,-5.16178 -0.0977,-1.67672 0.0278,-3.36315 0.38741,-4.9933 0.29783,-1.1881 0.72081,-2.32963 1.27121,-3.39388 0.0268,-0.0479 0.0527,-0.0964 0.0799,-0.1439 0.15845,-0.27681 0.31756,-0.61183 0.30333,-0.9572 0.17689,-0.0114 0.3541,-0.0146 0.53196,-0.0133"
       style="fill:#ebc532;fill-opacity:1;fill-rule:nonzero;stroke:none;stroke-width:0.032338"
       id="path655-1" />
    <path
       d="m 260.39132,200.84078 c -0.36639,-0.13 -0.86245,0.005 -1.1163,0.29912 -2.5754,2.98253 -3.72436,7.0293 -3.22248,10.9257 0.14099,1.09368 0.4233,2.16374 0.83788,3.1853 0.14713,0.36315 0.59178,0.41198 0.93198,0.32111 0.26323,-0.0709 0.79325,-0.38223 0.64643,-0.7441 -1.3873,-3.41941 -1.20782,-7.36917 0.42557,-10.67314 0.45758,-0.92551 1.02414,-1.77988 1.69871,-2.56084 0.23833,-0.27584 0.13938,-0.63188 -0.20179,-0.75315"
       style="fill:#e2ae2b;fill-opacity:1;fill-rule:nonzero;stroke:none;stroke-width:0.032338"
       id="path657-5" />
    <path
       d="m 259.78143,219.61232 c -0.17754,-0.37901 -0.35507,-0.758 -0.53228,-1.13733 -0.02,-0.0834 -0.0621,-0.15069 -0.12741,-0.20244 -0.0556,-0.0666 -0.12677,-0.1135 -0.21246,-0.14034 -0.17819,-0.0701 -0.42105,-0.0734 -0.60278,-0.0184 -0.19015,0.0579 -0.39259,0.15263 -0.51321,0.31755 -0.031,0.0495 -0.0614,0.0993 -0.0925,0.14876 -0.0469,0.10251 -0.0569,0.20857 -0.0304,0.31788 0.17754,0.37932 0.35475,0.75833 0.53229,1.13732 0.0197,0.0834 0.0621,0.15102 0.12676,0.20244 0.0563,0.0666 0.12709,0.1135 0.21246,0.14067 0.17851,0.0701 0.42136,0.0731 0.60343,0.0181 0.19014,-0.0576 0.39258,-0.15263 0.5132,-0.31724 0.0307,-0.0498 0.0614,-0.0993 0.0925,-0.14908 0.0466,-0.10251 0.0569,-0.20825 0.0304,-0.31788"
       style="fill:#e2ae2b;fill-opacity:1;fill-rule:nonzero;stroke:none;stroke-width:0.032338"
       id="path659-9" />
    <path
       d="m 284.72895,214.66174 c -0.0558,0.51578 -0.10103,1.03255 -0.16649,1.54686 -0.25048,1.96382 -1.04787,3.64333 -2.60905,4.9014 -0.86705,0.69859 -1.85711,0.99575 -2.97266,0.76874 -0.061,-0.0126 -0.1245,-0.0111 -0.18749,-0.0141 -0.006,-2.5e-4 -0.0123,-2.5e-4 -0.0185,-6.9e-4 v 0 c -1.13433,-0.26334 -1.79932,-1.0916 -2.39834,-1.99966 -0.0756,-0.11462 -0.15217,-0.22873 -0.22825,-0.34311 -0.004,-0.007 -0.006,-0.0149 -0.009,-0.0225 -1.07233,-2.50012 -1.26994,-5.12423 -1.12766,-7.80442 0.12302,-2.31139 0.46613,-4.58449 1.06738,-6.81782 0.11536,-0.42833 0.27469,-0.84481 0.41426,-1.26672 7e-4,-0.003 0.002,-0.005 0.003,-0.009 0.26012,-0.50713 0.63016,-0.92855 1.02934,-1.32725 v 0 0 c 0.13265,0.0902 0.0259,0.26605 0.13018,0.36659 0.18897,1.32601 1.54562,2.68488 2.98971,2.96426 0.82604,0.15982 1.65307,0.15982 2.46158,-0.12055 0.006,-0.002 0.0123,-0.004 0.0188,-0.006 0.48737,-0.0494 0.93374,-0.24083 1.38159,-0.41721 0.21516,-0.0847 0.27543,-0.0267 0.31273,0.18181 0.13117,0.72847 0.19317,1.46582 0.20873,2.20171 0.0501,2.41118 -0.0401,4.81816 -0.29964,7.21749 z m -5.0595,-13.62672 c 0.38882,-0.27716 0.81788,-0.1413 1.22622,-0.0963 0.57037,0.0625 1.05972,0.34608 1.52487,0.66819 10e-4,0 0.003,0 0.004,0 0.17983,0.18255 0.373,0.35472 0.53529,0.55184 0.12154,0.14773 0.35571,0.21887 0.33991,0.46713 v 2.5e-4 c -0.13018,0.0711 -0.26605,0.13314 -0.38882,0.21539 -0.58642,0.39252 -1.22399,0.50418 -1.90824,0.35497 -0.71316,-0.15537 -1.17459,-0.61928 -1.4189,-1.2771 -0.10202,-0.27493 -0.12253,-0.60742 0.0852,-0.88433 z m 8.85179,-1.10888 c 0.0864,-0.22356 0.0642,-0.35053 -0.14574,-0.48145 -0.37794,-0.23665 -0.7386,-0.5027 -1.10913,-0.75638 -0.0222,-0.016 -0.0469,-0.0319 -0.0716,-0.0479 -0.17538,-0.11734 -0.35324,-0.23344 -0.52616,-0.35448 -0.10868,-0.0756 -0.18106,-0.0751 -0.2322,0.062 -0.34434,0.92163 -0.93448,1.7173 -1.33367,2.61077 -0.0571,0.0793 -0.13042,0.15143 -0.16772,0.23912 -0.1213,0.28556 -0.26259,0.29223 -0.43773,0.0494 -0.17267,-0.23763 -0.37746,-0.44266 -0.61385,-0.61657 v 0 c -0.0716,-0.0714 -0.14352,-0.14277 -0.21516,-0.21416 -0.0511,-0.11907 -0.13265,-0.19861 -0.26851,-0.208 -0.0689,-0.0459 -0.13808,-0.0919 -0.207,-0.13784 -0.1413,-0.17636 -0.33966,-0.24356 -0.54913,-0.28876 -2.5e-4,0 -2.5e-4,0 -2.5e-4,-2.5e-4 v 2.5e-4 0 c 2.5e-4,2.4e-4 4.9e-4,4.9e-4 7e-4,4.9e-4 -0.12203,-0.10103 -0.26382,-0.14055 -0.42043,-0.1329 v 0 c -0.28704,-0.0366 -0.56494,-0.11141 -0.83889,-0.20207 -0.86211,-0.23244 -1.71853,-0.2107 -2.56854,0.0616 -2.4e-4,0 -2.4e-4,0 -4.9e-4,2.5e-4 -0.31446,0.0919 -0.61706,0.20824 -0.89175,0.39375 -0.61163,0.41401 -1.12272,0.93868 -1.61997,1.47794 -0.32632,0.35398 -0.66202,0.70326 -0.85593,1.15679 -0.12401,0.11956 -0.17588,0.27816 -0.23368,0.43378 0,0 0,0 -2.5e-4,0 -0.0534,0.084 -0.11832,0.16403 -0.10696,0.2737 -0.0227,0.039 -0.0529,0.0758 -0.0672,0.11783 -0.75095,2.20196 -1.33861,4.44097 -1.535,6.76939 -0.0111,0.13414 0.0578,0.30434 -0.12104,0.3903 0,0.20774 0,0.41549 0,0.62323 0,0.13858 0,0.27692 0,0.41549 0,0.27667 0,0.55358 0,0.83049 0,0.13834 0,0.27692 0,0.41549 0,0.20726 0,0.415 0,0.62275 0,0.20774 0,0.41549 0,0.62299 0.027,-0.002 0.0534,-0.003 0.08,-0.005 0.0158,0.006 0.0319,0.0106 0.0484,0.0137 -0.006,0.37473 -0.0294,0.7507 0.0724,1.11851 0,2.5e-4 0,5e-4 2.5e-4,7.1e-4 -0.0144,0.015 -0.0146,0.0303 -2.5e-4,0.0455 -0.004,0.42981 0.0312,0.8547 0.13735,1.27216 v 2.4e-4 c -0.0134,0.0149 -0.0128,0.0296 0.002,0.0435 2.4e-4,0.2863 0.0408,0.56568 0.13907,0.83543 -7e-4,-6.9e-4 -10e-4,-0.002 -0.002,-0.002 -0.002,0.12079 -0.0136,0.24356 0.0667,0.34805 -4.9e-4,-4.9e-4 -7e-4,-7e-4 -0.001,-0.002 -2.5e-4,0.14302 -0.008,0.28704 0.0744,0.415 -0.005,0.12252 -0.001,0.24306 0.0684,0.35077 7e-4,0.002 7e-4,0.003 0.002,0.005 -0.007,0.29026 0.0986,0.55556 0.17984,0.82654 0.0469,0.16551 0.0627,0.34187 0.1655,0.48812 0,2.5e-4 0,2.5e-4 0,2.5e-4 0.0472,0.32261 0.20528,0.60718 0.31125,0.90978 0.6052,1.72792 2.41687,2.49393 4.02152,2.54753 0.59112,0.0694 1.18274,0.12179 1.77387,5e-4 2.4e-4,0 2.4e-4,0 4.9e-4,0 l 0.0207,0.0108 0.021,-0.0111 c 0.14451,0.004 0.29148,0.0205 0.42067,-0.0684 -4.9e-4,7.1e-4 -10e-4,0.002 -0.002,0.002 0.12574,0.005 0.25024,0.005 0.35918,-0.0731 2.3e-4,-2.4e-4 2.3e-4,-2.4e-4 4.9e-4,-2.4e-4 0.17143,0.006 0.32311,-0.0544 0.46687,-0.14081 0.28581,-0.0153 0.53924,-0.14178 0.76379,-0.29198 1.10591,-0.74081 2.1276,-1.58143 2.82668,-2.73922 0.80035,-1.32553 1.11604,-2.81729 1.38357,-4.31721 0.39523,-2.21109 0.4397,-4.4459 0.40265,-6.68293 -0.0272,-1.6889 -0.29149,-3.34864 -0.75466,-4.97256 -0.0748,-0.26259 -0.0506,-0.4528 0.11511,-0.66474 0.81246,-1.03898 1.49424,-2.15551 1.97347,-3.39087"
       style="fill:#617e83;fill-opacity:1;fill-rule:nonzero;stroke:none;stroke-width:0.0247022"
       id="path675-3-9" />
    <path
       d="m 298.97921,215.51432 c -0.77972,-3.01147 0.31564,-5.77308 1.17797,-8.55238 0.58258,2.99922 0.75095,5.92607 -1.17797,8.55238 z m 10.35366,-3.21601 c 0.1752,-2.69952 0.10142,-5.37454 -0.10199,-8.05383 -0.0786,-1.0381 -0.31621,-2.07136 -0.78313,-3.02998 -0.96916,-1.99017 -3.06103,-2.69695 -5.06744,-1.76598 -0.95577,0.44299 -1.69702,1.11873 -2.37732,1.87822 -0.39854,0.44527 -0.61876,0.58627 -1.10533,0.009 -1.06944,-1.26743 -2.62972,-1.61754 -4.1034,-0.99195 -1.06118,0.45068 -1.96624,1.14693 -2.779,1.98248 -1.92066,1.97563 -2.90008,4.39398 -3.5496,7.01914 -0.83242,3.363 -1.28509,6.75336 -1.14237,10.22006 0.0225,0.53671 0.10768,1.04892 0.35695,1.51669 0.2262,0.4242 0.62702,0.62275 1.07884,0.44157 0.4014,-0.16096 0.60708,-0.5652 0.47945,-0.97515 -0.47347,-1.52011 -0.30225,-3.03909 -0.13788,-4.57914 0.34955,-3.27413 0.94979,-6.48842 2.29015,-9.51185 0.80108,-1.80813 2.05598,-3.26387 3.81254,-4.25496 0.84211,-0.47517 1.58365,-0.35638 2.23089,0.29998 0.53216,0.53985 1.03469,1.0965 0.62104,1.9876 -0.92899,2.00242 -1.5449,4.1111 -1.93376,6.28074 -0.34214,1.91154 -0.59227,3.83534 0.13019,5.72352 0.45096,1.17911 1.59191,1.53208 2.63058,0.80934 1.17456,-0.8176 1.72551,-2.06339 2.05113,-3.37525 0.74069,-2.98811 0.58799,-5.97792 -0.20283,-8.94208 -0.13219,-0.49542 -0.42761,-0.98285 -0.0732,-1.50104 0.61619,-0.90164 1.29705,-1.73321 2.30268,-2.23944 1.46257,-0.73583 2.44968,-0.3561 2.96217,1.23524 0.77545,2.40894 0.78143,4.92129 0.67118,7.39719 -0.0761,1.70641 -0.0302,3.41171 -0.11879,4.7609 0,1.70159 -0.0251,3.04993 0.0105,4.39626 0.0174,0.65124 0.11452,1.30532 0.23702,1.9463 0.10198,0.53386 0.41507,0.87087 1.03582,0.82643 0.63244,-0.0456 0.73243,-0.44897 0.71847,-0.95634 -0.01,-0.36123 0.0114,-0.72786 -0.0424,-1.08283 -0.37775,-2.48614 -0.26124,-4.99536 -0.10114,-7.47153"
       style="fill:#b2b1e8;fill-opacity:1;fill-rule:nonzero;stroke:none;stroke-width:0.0284879"
       id="path391" />
    <path
       d="m 235.97821,208.22243 c 0.0227,0.50971 -0.18363,0.97641 -0.29118,1.46024 -0.0508,0.22883 -0.10568,0.4826 -0.3105,0.64876 0.16429,0.0577 0.20014,-0.0969 0.23848,-0.19578 0.21979,-0.56427 0.39157,-1.14257 0.42836,-1.75236 0.006,-0.10973 -0.0215,-0.22633 0.0677,-0.31862 -0.0938,0.0106 -0.13717,0.0657 -0.13281,0.15776"
       style="fill:#617e83;fill-opacity:1;fill-rule:nonzero;stroke:none;stroke-width:0.0311753"
       id="path477-8" />
    <path
       d="m 236.05116,206.82203 c 0.005,0.32392 -0.0839,0.65749 0.0598,0.97361 0,-0.58267 0,-1.16502 0,-1.74768 -0.13997,0.24815 -0.0642,0.5175 -0.0598,0.77407"
       style="fill:#617e83;fill-opacity:1;fill-rule:nonzero;stroke:none;stroke-width:0.0311753"
       id="path481-7" />
    <path
       d="m 241.05435,199.6011 c -0.002,2.9e-4 -0.004,5.7e-4 -0.006,8.2e-4 -0.002,2.7e-4 -0.003,8.1e-4 -0.006,0.002 0.002,-2.9e-4 0.004,-5.7e-4 0.007,-5.7e-4 0.002,-5.6e-4 0.004,-8.1e-4 0.006,-0.002"
       style="fill:#c1d9c8;fill-opacity:1;fill-rule:nonzero;stroke:none;stroke-width:0.0285812"
       id="path487-04" />
    <path
       d="m 241.02434,199.60825 c -0.002,5.6e-4 -0.002,8.1e-4 -0.004,0.002 -0.002,5.7e-4 -0.003,0.002 -0.005,0.003 8.1e-4,-2.9e-4 0.002,-5.7e-4 0.002,-5.7e-4 0.002,-8.2e-4 0.005,-0.003 0.007,-0.004"
       style="fill:#c1d9c8;fill-opacity:1;fill-rule:nonzero;stroke:none;stroke-width:0.0285812"
       id="path489-8" />
    <path
       d="m 250.05083,206.2908 c -0.1612,1.00577 -0.5682,1.96467 -1.1924,2.77037 -0.2458,0.30039 -0.51646,0.57933 -0.81171,0.83171 -0.0771,0.066 -0.15605,0.13033 -0.23608,0.19293 -0.012,0.009 -0.0237,0.0183 -0.0361,0.0275 -0.036,0.0263 -0.0723,0.0529 -0.10889,0.0786 -0.17206,0.1209 -0.34927,0.2338 -0.53133,0.33897 -0.0226,0.0131 -0.0451,0.0257 -0.068,0.0386 -0.0131,0.007 -0.0266,0.0154 -0.0391,0.0217 -0.0963,0.0503 -0.19349,0.0986 -0.2921,0.14462 -0.0591,0.0277 -0.11889,0.0534 -0.17863,0.0795 -0.009,0.004 -0.0186,0.008 -0.0269,0.012 -0.009,0.004 -0.0174,0.008 -0.0266,0.0117 -0.0511,0.0203 -0.1026,0.0401 -0.15405,0.0589 -0.0852,0.0317 -0.17063,0.0611 -0.25695,0.0897 -0.0395,0.0117 -0.0792,0.0238 -0.11889,0.0348 -0.0918,0.0257 -0.18464,0.0498 -0.27752,0.0721 -0.036,0.008 -0.0717,0.0154 -0.10776,0.0223 -0.10803,0.0212 -0.21635,0.0397 -0.32497,0.0563 -0.0283,-0.009 -0.14147,0.0185 -0.16747,0.0215 -0.11462,0.012 -0.2298,0.0215 -0.34527,0.0282 -0.0574,0.004 -0.1149,0.006 -0.17263,0.009 -0.0223,8e-4 -0.0472,0 -0.0694,0.003 -0.34526,0.01 -0.67995,0.0803 -1.00063,0.21293 -0.15977,0.0664 -0.51446,0.20036 -0.50617,0.42071 0.11032,2.86611 0.22036,5.73252 0.33069,8.59835 0.0152,0.40014 0.0306,0.80056 0.046,1.2004 0.0131,0.34355 0.0518,0.69881 0.0135,1.04236 -0.0197,0.10204 -0.05,0.19863 -0.0975,0.28781 -0.27895,0.0456 -0.55762,0.0908 -0.83657,0.13633 -0.41729,0.0677 -0.83457,0.13577 -1.25186,0.2035 -0.14833,-2.95557 -0.28009,-5.91229 -0.39471,-8.86901 -0.11746,-3.03017 -0.21692,-6.06063 -0.29838,-9.09195 -0.0331,-1.2367 -0.0623,-2.47341 -0.0897,-3.71011 0.0766,-0.0609 0.15462,-0.14147 0.11289,-0.20292 -0.0518,-0.0772 -0.0917,-0.15834 -0.12261,-0.2418 -0.006,-0.26066 -0.012,-0.5216 -0.0174,-0.78226 0.0617,-0.19379 0.15748,-0.37442 0.27895,-0.53876 0.0578,-0.0672 0.11919,-0.1309 0.18578,-0.18921 -0.0309,0.0237 -0.006,-0.005 0.0209,-0.0215 0.004,-0.004 0.009,-0.005 0.0129,-0.008 0.0129,-0.0101 0.026,-0.02 0.0383,-0.0309 -0.0112,0.01 -0.0194,0.0171 -0.0286,0.0246 0.0206,-0.0131 0.0406,-0.0266 0.0612,-0.0394 -0.009,0.004 -0.0177,0.008 -0.028,0.0126 0.006,-0.003 0.0166,-0.007 0.0288,-0.0128 0.002,-8e-4 0.004,-0.003 0.006,-0.004 0.004,-0.004 0.01,-0.005 0.0152,-0.009 0.007,-0.003 0.0148,-0.006 0.0234,-0.008 8.1e-4,-5.7e-4 0.002,-8.1e-4 0.004,-8.1e-4 5.6e-4,-2.8e-4 8.1e-4,-2.8e-4 0.002,-5.7e-4 -0.002,2.9e-4 -0.003,8.1e-4 -0.005,8.1e-4 0.003,-8.1e-4 0.007,-0.003 0.01,-0.004 0.002,-8.1e-4 0.003,-0.002 0.004,-0.003 5.7e-4,0 8.1e-4,-2.9e-4 0.002,-2.9e-4 -8.1e-4,2.9e-4 -0.002,5.8e-4 -0.002,8e-4 8.1e-4,-5.6e-4 0.002,-8e-4 0.004,-8e-4 0.005,-8.1e-4 0.009,-0.003 0.0143,-0.004 -0.002,0 -0.004,2.9e-4 -0.006,5.8e-4 8.1e-4,-2.9e-4 0.002,-8.2e-4 0.002,-8.2e-4 0.003,-2.8e-4 0.007,-5.7e-4 0.009,-8e-4 0.0123,-0.004 0.0249,-0.006 0.0369,-0.009 -0.0114,0.004 -0.0206,0.005 -0.0306,0.008 0.0114,-0.002 0.0226,-0.003 0.0337,-0.004 0.006,-8.2e-4 0.0112,-8.2e-4 0.0166,-0.002 0.0434,-0.005 0.0912,-0.009 0.0649,-0.005 0.0423,-0.004 0.084,-0.008 0.12633,-0.0108 0.056,-0.004 0.11232,-0.006 0.16833,-0.009 0.0297,-2.9e-4 0.0595,-8.1e-4 0.0892,-8.1e-4 0.2478,-8.2e-4 0.49589,0.007 0.7434,0.0183 0.22637,0.0103 0.45273,0.0248 0.6788,0.044 0.1109,0.009 0.22208,0.02 0.33297,0.0315 0.0454,0.005 0.0909,0.0101 0.13605,0.0151 0.002,2.9e-4 0.0706,0.008 0.0869,0.0105 0.46129,0.0597 0.92031,0.13975 1.37331,0.2455 0.47989,0.11233 0.95261,0.25438 1.41306,0.43072 1.03921,0.41815 2.00354,1.03235 2.71549,1.90779 0.8883,1.14554 1.21699,2.59031 1.01749,4.01794 z m 1.92465,-1.7323 c -0.0649,-0.91403 -0.36469,-1.7966 -0.88744,-2.55058 -0.48503,-0.69967 -1.11866,-1.2753 -1.84663,-1.71429 -1.5428,-0.93061 -3.37714,-1.29845 -5.15289,-1.43765 -1.23899,-0.0972 -2.49141,-0.0963 -3.68067,0.31069 -0.61221,0.21008 -1.18441,0.5316 -1.57911,1.05236 -0.0808,0.10689 -0.15006,0.22493 -0.20693,0.34896 -0.0612,0.0514 -0.10975,0.11291 -0.10804,0.19836 5.7e-4,0.0315 0.002,0.0629 0.002,0.094 -0.0492,0.18292 -0.0703,0.37213 -0.0535,0.55848 0.009,0.10689 0.0348,0.21007 0.0724,0.30839 0.0586,2.7112 0.13005,5.42213 0.21722,8.13276 0.0972,3.03075 0.21207,6.06092 0.34526,9.08995 0.0749,1.70314 0.1552,3.40572 0.24122,5.1083 0.018,0.0226 0.0361,0.0455 0.054,0.0686 0.0609,0.0343 0.12576,0.0523 0.19464,0.0537 0.17263,0.0205 0.34469,0.002 0.51589,-0.0266 1.0352,-0.16835 2.07441,-0.32068 3.10677,-0.50589 0.40414,-0.0726 0.80913,-0.17977 1.18212,-0.35469 0.2921,-0.13747 0.58619,-0.32326 0.74967,-0.61135 0.22408,-0.39557 0.13662,-0.93889 0.12033,-1.37161 l -0.24494,-6.3693 c -0.0395,-1.02463 -0.0786,-2.04899 -0.11804,-3.07362 1.80461,-0.27524 3.57235,-0.9849 4.93482,-2.19046 1.44564,-1.28015 2.27935,-3.18051 2.14187,-5.11859"
       style="fill:#c1d9c8;fill-opacity:1;fill-rule:nonzero;stroke:none;stroke-width:0.0285812"
       id="path491-0" />
    <path
       d="m 241.01377,199.61282 c -0.0166,0.007 -0.0335,0.0154 -0.048,0.0217 -2.9e-4,0 -5.8e-4,2.8e-4 -8.1e-4,2.8e-4 0.0211,-0.009 0.0374,-0.0163 0.0505,-0.0223 -5.7e-4,0 -8.1e-4,3e-4 -0.002,3e-4"
       style="fill:#c1d9c8;fill-opacity:1;fill-rule:nonzero;stroke:none;stroke-width:0.0285812"
       id="path493-4" />
    <path
       d="m 240.89401,199.68056 c -0.005,0.004 -0.009,0.007 -0.0135,0.0108 -0.007,0.006 -0.0131,0.0128 -0.0203,0.0191 0.009,-0.007 0.0234,-0.0189 0.0434,-0.0363 -0.003,0.003 -0.006,0.005 -0.01,0.006"
       style="fill:#c1d9c8;fill-opacity:1;fill-rule:nonzero;stroke:none;stroke-width:0.0285812"
       id="path495-29" />
    <path
       d="m 241.01719,199.61167 c -5.7e-4,2.9e-4 -8.1e-4,5.7e-4 -0.002,8.2e-4 0.0206,-0.005 0.0409,-0.009 0.0572,-0.0123 -0.007,8.1e-4 -0.0148,0.002 -0.0237,0.003 -0.0112,0.004 -0.022,0.006 -0.0318,0.009"
       style="fill:#c1d9c8;fill-opacity:1;fill-rule:nonzero;stroke:none;stroke-width:0.0285812"
       id="path497-61" />
    <path
       d="m 241.07264,199.60024 c 0.0548,-0.005 0.0846,-0.008 0.0969,-0.0103 -0.0215,0.002 -0.0432,0.004 -0.0649,0.005 -0.0108,0.002 -0.0215,0.004 -0.0303,0.005 -5.7e-4,0 -8.1e-4,2.8e-4 -0.002,2.8e-4"
       style="fill:#c1d9c8;fill-opacity:1;fill-rule:nonzero;stroke:none;stroke-width:0.0285812"
       id="path499-0" />
    <path
       d="m 244.7416,207.65212 c 0,-8.2e-4 -2.9e-4,-0.002 -2.9e-4,-0.003 -0.006,0.005 -0.0129,0.0108 -0.0194,0.0163 l -2.8e-4,2.9e-4 c 0.007,-0.006 0.0137,-0.0115 0.0197,-0.0166 -0.18321,-1.49937 -0.36698,-2.99874 -0.55076,-4.49839 -0.005,-5.7e-4 -0.01,-8.1e-4 -0.0157,-0.002 0.005,5.6e-4 0.01,5.6e-4 0.0152,8e-4 2.8e-4,0 2.8e-4,2.9e-4 5.7e-4,2.9e-4 v 0 c 0.003,0 0.006,2.8e-4 0.009,2.8e-4 0.0471,0.004 0.1309,0.0163 0.0626,0.009 0.0449,0.005 0.0894,0.0115 0.13376,0.0185 0.10431,0.0171 0.20749,0.0402 0.30982,0.0672 0.13718,0.0469 0.26894,0.10575 0.39384,0.1792 0.15605,0.11376 0.28867,0.25095 0.39613,0.41157 0.22665,0.42157 0.28353,0.91373 0.28496,1.38761 -0.0154,0.55219 -0.12548,1.09809 -0.35927,1.59969 -0.11404,0.2135 -0.25008,0.41242 -0.41042,0.59364 -0.0849,0.0809 -0.17406,0.15433 -0.26438,0.22892 0.12033,-0.0983 0.0511,-0.0346 -0.005,0.006 z m 2.86811,-3.59351 c -0.0583,-0.36527 -0.18834,-0.70709 -0.40642,-1.00777 -0.18921,-0.26066 -0.46816,-0.45901 -0.75682,-0.5962 -0.70053,-0.33268 -1.52481,-0.3564 -2.28592,-0.34498 -0.24952,0.004 -0.50503,0.0526 -0.73568,0.14891 -0.16291,0.068 -0.40785,0.19493 -0.50617,0.35583 -0.0397,0.0652 -0.0724,0.14034 -0.072,0.21322 -0.13577,0.0546 -0.2661,0.12433 -0.37013,0.22151 -0.11433,0.10775 -0.21093,0.22093 -0.19035,0.38985 0.2095,1.71 0.41871,3.4203 0.62821,5.1306 0.028,0.22921 0.41157,0.25151 0.56848,0.26094 0.96633,0.0583 1.94095,-0.30125 2.71092,-0.86801 0.59849,-0.44044 1.03121,-1.08236 1.26215,-1.78461 0.22036,-0.66851 0.26466,-1.42562 0.15376,-2.11929"
       style="fill:#c1d9c8;fill-opacity:1;fill-rule:nonzero;stroke:none;stroke-width:0.0285812"
       id="path501-4" />
    <path
       d="m 244.74131,207.64955 v 0 c 0.002,-8.1e-4 0.003,-0.003 0.005,-0.004 -0.002,8.1e-4 -0.003,0.003 -0.005,0.004"
       style="fill:#c1d9c8;fill-opacity:1;fill-rule:nonzero;stroke:none;stroke-width:0.0285812"
       id="path503-2" />
    <path
       d="m 244.21142,203.15259 c -0.007,-8.1e-4 -0.0137,-0.002 -0.0208,-0.003 0,3e-4 0,5.8e-4 0,8.2e-4 0.0329,0.004 0.0566,0.006 0.0714,0.008 -0.0168,-0.003 -0.0337,-0.005 -0.0506,-0.007"
       style="fill:#c1d9c8;fill-opacity:1;fill-rule:nonzero;stroke:none;stroke-width:0.0285812"
       id="path505-2" />
  </g>
</svg>
