<?xml version="1.0" encoding="UTF-8" standalone="no"?>
<!-- Created with Inkscape (http://www.inkscape.org/) -->

<svg
   width="178.01216mm"
   height="31.696619mm"
   viewBox="0 0 178.01216 31.696619"
   version="1.1"
   id="svg8258"
   inkscape:version="1.1.1 (1:1.1+202109281949+c3084ef5ed)"
   sodipodi:docname="title-artists-trust.svg"
   xmlns:inkscape="http://www.inkscape.org/namespaces/inkscape"
   xmlns:sodipodi="http://sodipodi.sourceforge.net/DTD/sodipodi-0.dtd"
   xmlns="http://www.w3.org/2000/svg"
   xmlns:svg="http://www.w3.org/2000/svg">
  <sodipodi:namedview
     id="namedview8260"
     pagecolor="#ffffff"
     bordercolor="#666666"
     borderopacity="1.0"
     inkscape:pageshadow="2"
     inkscape:pageopacity="0.0"
     inkscape:pagecheckerboard="0"
     inkscape:document-units="mm"
     showgrid="false"
     fit-margin-top="0"
     fit-margin-left="0"
     fit-margin-right="0"
     fit-margin-bottom="0"
     inkscape:zoom="0.71090067"
     inkscape:cx="-92.136641"
     inkscape:cy="541.56651"
     inkscape:window-width="1920"
     inkscape:window-height="1043"
     inkscape:window-x="1920"
     inkscape:window-y="0"
     inkscape:window-maximized="1"
     inkscape:current-layer="layer1" />
  <defs
     id="defs8255" />
  <g
     inkscape:label="Layer 1"
     inkscape:groupmode="layer"
     id="layer1"
     transform="translate(-1.5765269,-5.1814947)">
    <path
       d="m 14.876491,26.367541 c -1.35702,-0.0705 -2.71528,-0.13083 -4.07553,-0.0606 -1.2736197,0.0663 -2.5474897,0.1311 -3.8207797,0.2059 -0.52067,0.0305 -0.52717,0.0359 -0.50438,-0.65818 0.0262,-0.79545 0.0569,-1.59037 0.0858,-2.38555 0.0989,-2.47992 0.22204,-4.954744 0.76986,-7.361741 0.39581,-1.739429 1.12382,-3.160087 2.25496,-4.118006 1.0588997,-0.896792 2.2332297,-1.25819 3.4668897,-0.890626 0.53094,0.158447 0.90328,0.618773 1.21727,1.234061 0.88963,1.742914 1.25798,3.674838 1.24433,5.797914 -0.01,1.47723 -0.0648,2.947488 -0.15564,4.420688 -0.0675,1.09894 -0.0673,2.20459 -0.0772,3.30675 -0.004,0.40616 -0.10921,0.52493 -0.40559,0.50938 z m 4.79785,1.01449 c 0.14248,-3.84803 0.23159,-7.477025 0.0432,-11.101192 -0.0792,-1.527094 -0.26759,-3.012901 -0.7742,-4.392539 -0.53691,-1.461947 -1.31855,-2.6681252 -2.15579,-3.8024542 -0.98048,-1.328968 -2.15977,-2.216374 -3.52424,-2.64802 -1.26121,-0.398929 -2.53259,-0.271315 -3.7985097,-0.02865 -0.99214,0.190082 -1.9835,0.461398 -2.88748,1.11288 -1.46236,1.053896 -2.46058,2.659006 -3.07609,4.7477682 -1.091,3.701648 -1.60373,7.555042 -1.8347,11.484307 -0.12488,2.12174 -0.0819,4.24749 -0.0863,6.37031 -0.002,1.09893 0.009,2.19975 0.0553,3.2995 0.0506,1.19223 0.17616,2.38286 0.10376,3.58421 -0.0212,0.34827 0.10636,0.37106 0.29716,0.34585 1.31888,-0.17319 2.64075,-0.1437 3.96105,-0.19223 0.24125,-0.009 0.32095,-0.0861 0.35131,-0.42413 0.12865,-1.43835 0.20362,-2.87778 0.18246,-4.32257 -0.003,-0.21393 0.0483,-0.29195 0.19665,-0.31126 0.51021,-0.0662 1.01906,-0.18097 1.52956,-0.20563 2.0237297,-0.0981 4.0479697,-0.17667 6.0724597,-0.24531 0.73498,-0.0252 0.74094,-0.003 0.6764,1.01315 -0.0901,1.4228 -0.18964,2.84454 -0.28695,4.2668 -0.0181,0.26622 -0.0144,0.48043 0.25443,0.48606 1.33493,0.0276 2.66514,0.15631 3.99511,0.28419 0.23282,0.0225 0.31623,-0.0737 0.31995,-0.39706 0.037,-3.05231 0.3346,-6.09041 0.38549,-8.92395"
       style="fill:#ebc532;fill-opacity:1;fill-rule:nonzero;stroke:none;stroke-width:0.0257969"
       id="path929" />
    <path
       d="m 6.7802413,28.059241 c -0.76985,0.0193 -1.53954,0.0381 -2.30912,0.0571 -0.0216,-1.85766 -0.0429,-3.71559 -0.0577,-5.57352 -0.0296,-3.703792 0.0645,-7.96094 2.46203,-10.895287 0.93742,-1.146929 2.21378,-2.0338012 3.5501897,-2.3043142 0.0951,-0.01904 0.2857,-0.04397 0.44308,-0.05577 0.17127,-0.01314 0.29165,-0.01474 0.45796,-0.0056 0.34403,0.0185 0.67839,0.08204 1.00827,0.18901 0.70768,0.229493 1.35479,0.6702492 1.88971,1.2163672 2.72099,2.776972 2.52861,7.204903 2.53929,10.918344 0.006,2.06946 -0.002,4.13865 -0.0221,6.20784 -3.32045,0.082 -6.64114,0.16408 -9.9616297,0.24585 z m 11.2019897,-5.63571 c -10e-4,-2.194123 0.0769,-4.429537 -0.21224,-6.607577 -0.24772,-1.865435 -0.84171,-3.71532 -2.01058,-5.147775 -1.07603,-1.3185122 -2.59018,-2.1295132 -4.22868,-2.1273682 -1.6715197,0.0019 -3.2779997,0.704028 -4.5875897,1.8043082 -1.34465,1.129771 -2.29293,2.655256 -2.86744,4.378063 -0.65174,1.954444 -0.82436,4.045347 -0.86973,6.108109 -0.0485,2.20511 0.0173,4.41506 0.0422,6.61991 0.004,0.31797 0.007,0.63593 0.0106,0.9539 -0.0511,0.0641 -0.0879,0.13833 -0.0999,0.22359 -0.0182,0.1319 0.0291,0.22976 0.10569,0.30107 0.0206,1.83595 0.0415,3.67163 0.0621,5.5073 0.006,0.57776 0.0131,1.15524 0.0194,1.73273 0.004,0.27748 0.53648,0.2244 0.679,0.18954 0.224,-0.0547 0.54058,-0.19678 0.53738,-0.48714 -0.0257,-2.27106 -0.0545,-4.5424 -0.0816,-6.81347 3.19407,-0.0791 6.3883997,-0.15764 9.5827397,-0.23673 0.88938,-0.0217 1.77899,-0.0437 2.66837,-0.066 -0.0238,2.07776 -0.0591,4.15553 -0.10872,6.23276 -0.0134,0.55765 -0.0276,1.11504 -0.0427,1.67241 -0.008,0.27641 0.5441,0.22253 0.67888,0.18955 0.23308,-0.0571 0.52945,-0.19545 0.5374,-0.48714 0.1256,-4.64535 0.1879,-9.29286 0.18542,-13.9401"
       style="fill:#ffffff;fill-opacity:1;fill-rule:nonzero;stroke:none;stroke-width:0.0257969"
       id="path931" />
    <path
       d="m 24.940811,21.637181 c 0.27949,-0.74987 0.61285,-1.482853 1.04923,-2.141576 0.17276,-0.241822 0.36016,-0.471316 0.57164,-0.674266 0.009,-0.0078 0.0179,-0.01558 0.027,-0.02333 0.0556,-0.04583 0.112701,-0.08981 0.170785,-0.131367 0.01914,-0.01368 0.03849,-0.02629 0.05784,-0.03891 0.03399,-0.02014 0.112938,-0.0665 0.153642,-0.08499 0.03152,-0.01452 0.08241,-0.03139 0.123119,-0.044 0.02336,-0.0061 0.04693,-0.01231 0.07124,-0.01718 0.0028,-7.6e-4 0.0056,-7.6e-4 0.0084,-0.0015 0.05312,-0.0038 0.106239,-0.0046 0.159109,-0.0038 0.02631,0.0038 0.05235,0.0068 0.07869,0.01155 0.03771,0.0061 0.105247,0.02789 0.144467,0.0402 0.05861,0.02363 0.116413,0.04879 0.173259,0.07749 0.112437,0.07585 0.217192,0.162732 0.314988,0.259787 0.174996,0.209386 0.316233,0.445584 0.427186,0.701077 0.131063,0.360862 0.203043,0.742102 0.219177,1.129245 -0.0042,0.32306 -0.04792,0.6429 -0.136516,0.95148 -0.09607,0.26382 -0.225882,0.51046 -0.376055,0.74264 -0.08713,0.12037 -0.177973,0.23754 -0.275775,0.34799 -0.06128,0.0689 -0.124604,0.13593 -0.189139,0.20135 -0.03574,0.0356 -0.154395,0.13753 -0.167799,0.15067 -0.247722,0.2 -0.49942,0.38767 -0.77122,0.55121 -0.02083,0.0115 -0.04172,0.0233 -0.06276,0.0349 -0.08216,0.0445 -0.164828,0.0874 -0.247978,0.12869 -0.16754,0.0834 -0.33758,0.16086 -0.5091,0.2327 -0.17177,0.0724 -0.34502,0.13969 -0.51977,0.20216 -0.0273,0.01 -0.0549,0.0193 -0.0819,0.0292 -0.0799,0.026 -0.16035,0.0517 -0.24077,0.0764 -0.0804,0.0249 -0.16234,0.0544 -0.24201,0.0901 0.006,-0.87802 -0.005,-1.7555 -0.032,-2.633 0.0434,-0.0493 0.0804,-0.10348 0.103,-0.16461 z m 9.261347,10.67331 c -0.03771,-0.18821 -0.200566,-0.34451 -0.362159,-0.40885 -0.216693,-0.0855 -0.468883,-0.0973 -0.705938,-0.0405 0.0375,-0.044 0.07022,-0.092 0.09309,-0.1445 0.06776,-0.15737 0.114675,-0.39089 -0.01091,-0.53513 -1.404932,-1.60752 -2.956554,-3.05311 -4.644453,-4.29602 -0.343288,-0.31556 -0.686575,-0.63111 -1.029862,-0.94693 l -0.815907,-0.75068 c 0.838246,-0.36059 1.630068,-0.82709 2.326571,-1.47213 0.863809,-0.79947 1.486594,-1.93916 1.472444,-3.190393 -0.01316,-1.128159 -0.42421,-2.348004 -1.354039,-2.966245 -1.158941,-0.770249 -2.688724,-0.571586 -3.748624,0.314482 -0.27652,0.231098 -0.52573,0.491425 -0.75261,0.772658 -0.0705,-0.926817 -0.1596,-1.852031 -0.26634,-2.77483 -0.0156,-0.134317 -0.15588,-0.21501 -0.2569,-0.257104 -0.15961,-0.06619 -0.34106,-0.08553 -0.51084,-0.06809 -0.35297,0.03617 -0.75484,0.16166 -0.98618,0.471316 -0.0489,0.06543 -0.0931,0.133245 -0.13553,0.201611 -0.0258,0.0053 -0.0511,0.01102 -0.0755,0.0174 -0.31126,0.0807 -0.83798,0.280438 -0.81366,0.713953 l 0.35024,6.230092 c 0.11666,2.07643 0.23357,4.15313 0.35048,6.22983 l 0.19759,3.52014 c 0.009,0.15496 0.23134,0.26328 0.33882,0.29089 0.15563,0.0405 0.31301,0.0423 0.47062,0.0247 7.1e-4,5.4e-4 0.001,7.6e-4 0.002,0.002 0.16135,0.10161 0.41354,0.12037 0.59226,0.10214 0.23729,-0.0247 0.4875,-0.0828 0.69427,-0.21555 0.12311,-0.0791 0.35049,-0.22252 0.35992,-0.39706 0.0938,-1.71985 0.10723,-3.44293 0.0343,-5.16332 0.61509,0.88822 1.29099,1.72629 2.018524,2.51451 0.573391,0.62065 1.181034,1.20403 1.81946,1.74559 0.633206,0.53754 1.297941,1.09223 2.040369,1.44157 1.016458,0.47882 2.323095,0.49437 3.135519,-0.43083 0.120136,-0.13674 0.212225,-0.34023 0.173005,-0.53406"
       style="fill:#c67379;fill-opacity:1;fill-rule:nonzero;stroke:none;stroke-width:0.0257969"
       id="path717" />
    <path
       d="m 23.868991,25.670751 c -0.0772,-1.80485 -0.1884,-3.61265 -0.21943,-5.419363 -0.0174,-0.996533 0.0244,-1.994666 0.21844,-2.971892 0.0687,-0.345579 -0.71488,-0.252278 -0.77569,0.05282 -0.3485,1.754983 -0.21446,3.569485 -0.13801,5.347245 0.0784,1.83031 0.15688,3.66062 0.23532,5.49094 0.045,1.04613 0.0896,2.09198 0.13453,3.13784 0.008,0.18499 0.33236,0.16488 0.43587,0.14075 0.14621,-0.0343 0.35123,-0.13244 0.34304,-0.3228 l -0.23407,-5.45554"
       style="fill:#ffffff;fill-opacity:1;fill-rule:nonzero;stroke:none;stroke-width:0.0257969"
       id="path719" />
    <path
       d="m 32.266537,31.514231 c -1.532766,-1.15631 -2.972935,-2.4515 -4.30315,-3.87054 -0.158117,-0.16837 -0.875475,0.10804 -0.734484,0.25791 1.330215,1.41904 2.770384,2.71423 4.303149,3.87054 0.134039,0.10108 0.358183,0.0464 0.500659,-0.005 0.04644,-0.0161 0.358183,-0.15978 0.233826,-0.25362"
       style="fill:#ffffff;fill-opacity:1;fill-rule:nonzero;stroke:none;stroke-width:0.0257969"
       id="path721" />
    <path
       d="m 29.076656,18.062346 c -0.150173,-0.09919 -0.406092,-0.0421 -0.548068,0.04879 -0.110707,0.07075 -0.23854,0.218772 -0.08142,0.322257 0.03399,0.0228 0.06727,0.04689 0.100533,0.07159 0.0049,0.0038 0.0072,0.0053 0.01041,0.0078 0.0014,0.0015 0.0035,0.003 0.007,0.0061 0.01562,0.01368 0.03082,0.02759 0.04595,0.0421 0.05981,0.05707 0.115667,0.119573 0.166553,0.186329 0.103263,0.135395 0.175243,0.265152 0.230596,0.415557 0.120389,0.325471 0.148935,0.65845 0.07249,0.984999 -0.07323,0.31153 0.70693,0.21984 0.77345,-0.063 0.181695,-0.775082 -0.149926,-1.608598 -0.777179,-2.022545"
       style="fill:#ffffff;fill-opacity:1;fill-rule:nonzero;stroke:none;stroke-width:0.0257969"
       id="path723" />
    <path
       d="m 29.648555,21.067481 c -0.180702,-0.01 -0.413782,0.0314 -0.514062,0.21877 -0.08862,0.16595 0.05657,0.31769 0.211732,0.32573 0.180703,0.01 0.41403,-0.0314 0.513816,-0.21849 0.08886,-0.16596 -0.05636,-0.31824 -0.211486,-0.32601"
       style="fill:#ffffff;fill-opacity:1;fill-rule:nonzero;stroke:none;stroke-width:0.0257969"
       id="path725" />
    <path
       d="m 45.662323,16.756959 c -0.0075,-0.0421 -0.02062,-0.08418 -0.03673,-0.125471 0.09184,-0.03435 0.174005,-0.08713 0.224398,-0.161668 l -0.0042,0.19196 c -0.04419,0.01315 -0.118405,0.05229 -0.183187,0.09518 z m -0.439845,-0.550408 -3.687309,0.0038 c -0.141237,2.66e-4 -0.348255,0.04423 -0.471121,0.156568 -0.0042,-0.0097 -0.008,-0.01961 -0.01238,-0.02895 l -0.02857,-0.03245 c -0.01238,-0.0078 -0.02505,-0.01558 -0.03771,-0.02356 -0.03849,-0.01794 -0.08142,-0.01961 -0.122373,-0.01338 -0.03596,0.0061 -0.06776,0.01771 -0.0988,0.03807 -0.03004,0.01961 -0.06804,0.05145 -0.07893,0.08928 -0.0042,0.01337 -0.008,0.02705 -0.01189,0.0402 -0.0014,-2.74e-4 -0.0021,-0.0015 -0.0035,-0.0015 -0.04665,-0.02014 -0.100533,-0.02196 -0.148934,-0.0093 -0.04489,0.01208 -0.09954,0.0421 -0.12808,0.08311 -0.02406,0.03542 -0.04468,0.08151 -0.0318,0.126808 0.0089,0.03002 0.02582,0.05525 0.04813,0.07372 -0.01886,0.03298 -0.03004,0.0684 -0.03004,0.106433 l 0.01639,17.528871 c -0.815907,0.0917 -0.603428,0.19196 -1.419328,0.28339 -0.01238,-0.002 -0.02533,-0.003 -0.03799,-0.005 -0.07919,-0.0129 -0.161593,-0.009 -0.243008,0.005 0.299353,-4.5727 0.271553,-13.55993 -0.07223,-18.128878 -0.0063,-0.08525 -0.05509,-0.13941 -0.123864,-0.168638 0.0049,-0.0061 0.01316,-0.01049 0.01738,-0.0174 0.101025,-0.162466 -0.08762,-0.208847 -0.207018,-0.203755 -1.567017,0.06247 -3.133535,0.125471 -4.700299,0.18794 -0.01639,7.6e-4 -0.03701,0.0046 -0.05537,0.0061 l 0.04545,-1.887955 c 1.397234,-0.0684 2.697412,-0.121716 3.969783,-0.158985 -0.06079,0.03055 -0.118397,0.08284 -0.147935,0.134316 -0.04517,0.07856 -0.01091,0.121451 0.06825,0.119308 1.918748,-0.04963 3.837735,-0.07212 5.757222,-0.06809 0.541116,0.0015 1.082486,0.0046 1.623856,0.01 0.09383,7.6e-4 0.1884,-0.05259 0.251944,-0.12601 2.46e-4,-2.66e-4 4.99e-4,-7.6e-4 7.03e-4,-7.6e-4 0.04961,-0.0038 0.0648,-0.03944 0.04271,-0.08311 0.0021,-0.0078 0.0028,-0.01558 0.0035,-0.0228 0.02554,5.4e-4 0.05087,7.6e-4 0.0762,0.0015 0.06333,1.084731 0.01513,0.901617 -0.02259,1.987959 z m -3.453237,0.909659 c 7.03e-4,-0.0053 0.0021,-0.0099 0.0028,-0.01497 7.04e-4,-0.01208 4.93e-4,-0.0247 -4.99e-4,-0.03701 l 2.990806,-0.02493 c 0.0021,0.02143 0.0082,0.0421 0.01766,0.0611 z m -0.549806,17.961321 -0.08216,0.0102 c 0.04644,-0.0477 0.07596,-0.10322 0.07596,-0.16488 v -0.081 c 0.0035,-0.004 0.0075,-0.006 0.01091,-0.01 0.0166,-0.0166 0.03124,-0.0343 0.04595,-0.0523 0.0028,0.003 0.0049,0.005 0.0084,0.008 -0.01787,0.0968 -0.03722,0.19357 -0.0591,0.29009 z m -0.9487,0.11743 c 0.0082,-0.0115 0.01414,-0.0247 0.01935,-0.0378 0.04665,-0.002 0.09606,-0.004 0.149427,-0.006 0.0056,0.008 0.01344,0.0137 0.02012,0.0201 z M 37.542792,17.335514 c -0.0102,-0.0061 -0.114921,-0.05335 -0.164815,-0.07106 0.09035,-0.0081 0.180703,-0.01718 0.271054,-0.02873 7.04e-4,0.05525 0.0014,0.110188 0.0021,0.165148 -0.038,-0.02812 -0.08538,-0.05198 -0.108223,-0.06543 z m -1.193193,-0.731909 c 0,-2.66e-4 0,-5.4e-4 0,-7.6e-4 2.47e-4,0 2.47e-4,0 5e-4,0 -2.53e-4,2.66e-4 -2.53e-4,5.4e-4 -5e-4,7.6e-4 z m -2.258306,0.08927 c 0.101025,-0.0038 0.20205,-0.0081 0.303076,-0.01208 0.0014,0.0099 0.0028,0.01984 0.0056,0.02873 -0.10301,-0.0046 -0.205773,-0.01102 -0.308783,-0.01664 z m -0.633705,-2.196264 c -0.03026,-0.0061 -0.06333,-0.0078 -0.09706,-0.0078 0.0056,-0.0209 0.0097,-0.04233 0.01217,-0.06407 0.03919,-0.0015 0.07918,-0.0038 0.118152,-0.0061 -0.01344,0.04795 -0.02533,0.07936 -0.03328,0.07775 z m 12.792522,-0.68473 c 0.01393,-0.06323 0.01611,-0.129756 0.0042,-0.198928 -0.0021,-0.01284 -0.108969,0.03032 -0.203043,0.08633 -0.02955,-0.02014 -0.05981,-0.03511 -0.08837,-0.03944 -0.04517,-0.0061 -0.09035,-0.01155 -0.135531,-0.0174 -7.03e-4,-5.39e-4 -0.0014,-7.6e-4 -0.0021,-0.0015 0.01865,2.66e-4 0.03722,2.66e-4 0.05587,2.66e-4 0.05861,5.4e-4 0.14149,-0.03268 0.0906,-0.103484 -0.05312,-0.07349 -0.189638,-0.08338 -0.26634,-0.08364 l -1.584889,-0.0086 c -1.366697,-0.131641 -2.738116,-0.201611 -4.110528,-0.20456 -0.558741,-0.0015 -1.117483,0.0083 -1.675733,0.02812 -0.04545,0.0015 0,0.06969 0.03497,0.114481 -1.26741,-0.07075 -2.53532,-0.141559 -3.802984,-0.212069 -0.380523,-0.0212 -0.761039,-0.04233 -1.141561,-0.06384 -0.09135,-0.0053 -0.132301,0.09383 -0.09805,0.1748 0.01963,0.04636 0.05235,0.08177 0.09085,0.108045 -0.01914,0.003 -0.03947,0.0088 -0.0546,0.01984 -0.04763,-0.003 -0.09581,-0.0061 -0.143467,-0.0097 -0.09284,-0.04689 -0.23904,-0.0665 -0.291657,-0.01961 -0.05931,-0.0046 -0.11865,-0.0076 -0.177979,-0.01178 -0.08638,-0.0061 -0.189639,0.0665 -0.251198,0.125737 -0.01238,0.01208 -0.02906,0.03108 -0.04144,0.05069 -0.0772,-0.01231 -0.141736,-0.003 -0.137761,0.04317 0.03624,0.438615 0.05756,0.878027 0.06628,1.317713 -0.0014,0.06862 -0.0035,0.137266 -0.0056,0.205898 -2.46e-4,0.0053 0.0014,0.01049 0.0028,0.01581 -0.01288,0.53111 -0.02582,1.062212 -0.03849,1.593856 -7.04e-4,0.04423 0.04989,0.08472 0.114682,0.114474 0.02181,0.05335 0.05263,0.102413 0.09557,0.144508 0.09383,0.09116 0.221907,0.114207 0.344526,0.11233 0.03947,0.02599 0.0983,0.03944 0.144467,0.0456 -0.01914,0.0053 -0.0375,0.01208 -0.05488,0.02014 -0.01217,0.0053 -0.03251,0.01687 -0.03603,0.02576 -0.01119,0.01155 0.0035,0.01984 0.05087,0.02067 l 1.108055,0.01718 c 0.01288,0 0.02632,-7.6e-4 0.03968,-0.0015 0.583566,0.05928 1.170607,0.08123 1.756656,0.063 0.03596,-7.6e-4 0.09234,-0.0053 0.142229,-0.02143 0.432893,0.03944 0.868024,0.04127 1.301916,0.0046 0.07869,0.699207 0.08464,1.404304 0.01815,2.105115 -0.0049,0.04826 0.13081,0.115287 0.161839,0.133784 0.007,0.0038 0.06403,0.03352 0.114183,0.05548 -0.02033,1.456054 -0.04968,2.912104 -0.09035,4.367884 -0.01815,0.63674 -0.038,1.27374 -0.0596,1.91047 0,0.009 0.04714,0.0126 0.109469,0.011 -0.0021,0.10134 -0.0014,0.20242 0.0014,0.30349 -0.03652,0.011 -0.05932,0.0321 -0.05488,0.0667 0.16134,1.21691 0.125103,2.45982 -0.100033,3.66465 -0.01393,0.0737 0.142475,0.13566 0.262864,0.14022 -0.01611,0.78178 -0.03251,1.56328 -0.0489,2.3448 -0.01217,0.30858 -0.02111,0.61743 -0.02582,0.92628 -2.46e-4,0.0156 0.0021,0.0295 0.0056,0.0432 l -0.0387,1.85444 c -7.03e-4,0.0378 0.02554,0.0796 0.06403,0.11769 -7.03e-4,0.0603 -0.0014,0.12065 -0.0028,0.18124 -7.04e-4,0.0917 0.08117,0.29732 0.18071,0.30966 0.220415,0.0268 0.442075,0.0233 0.660013,-0.008 0.1884,0.0134 0.383752,-0.0156 0.565947,-0.0381 0.771466,-0.0957 1.542932,-0.19089 2.314152,-0.28607 0.03152,-0.004 0.03919,-0.0158 0.04714,-0.0498 0.04172,-0.17775 0.07596,-0.35685 0.104501,-0.53647 0.02857,-0.005 0.04763,-0.0193 0.04813,-0.0488 0.0028,-0.12386 0.0056,-0.24772 0.0087,-0.37159 0.07173,-0.65657 0.07223,-1.32092 0.04616,-1.98393 0.007,-0.28499 0.01344,-0.56998 0.02012,-0.85497 7.04e-4,-0.0311 -0.02779,-0.0654 -0.06853,-0.0971 l 0.0084,-0.37319 c 0.09159,0.0223 0.182687,-0.0185 0.176481,-0.15792 -0.07695,-1.77562 -0.123858,-3.55285 -0.138008,-5.33035 -0.01464,-1.7791 0.0028,-3.55821 0.05087,-5.336513 0.02582,-0.956045 0.06157,-1.911285 0.10524,-2.866259 1.207842,-0.0061 2.415431,-0.01231 3.622781,-0.01877 0.04018,-2.66e-4 0.07496,-0.01581 0.101517,-0.03997 0.107478,0.01178 0.213471,-0.02196 0.29141,-0.121724 0.0042,-0.0061 0.008,-0.01208 0.01189,-0.01824 0.0021,2.66e-4 0.0035,7.6e-4 0.0056,0.0015 0.06206,0.0097 0.156632,-0.06437 0.203789,-0.09732 0.03722,-0.0263 0.115175,-0.07053 0.127094,-0.123328 0.0087,-0.01284 0.01463,-0.02652 0.01492,-0.0402 l 0.0102,-0.447195 h -2.53e-4 c 0.02083,-0.915556 0.04144,-1.831384 0.06234,-2.74668"
       style="fill:#000000;fill-opacity:1;fill-rule:nonzero;stroke:none;stroke-width:0.0257969"
       id="path449" />
    <path
       d="m 52.289,33.214361 c -0.01689,0.52332 -0.01463,1.04746 0.01442,1.5724 -0.11319,-0.007 -0.226135,-0.0166 -0.339319,-0.0244 0.143221,-0.50751 0.250699,-1.02414 0.324916,-1.548 z M 51.810682,18.954949 c -0.01787,1.501629 -0.03546,3.002992 -0.05362,4.504882 -0.03075,2.59306 -0.0077,5.19549 -0.103755,7.78748 -0.02779,-3.91345 -0.05559,-7.82663 -0.08365,-11.740071 -0.008,-1.119583 -0.0159,-2.239439 -0.02385,-3.359287 0.121128,0.932447 0.21074,1.868384 0.264849,2.806996 z m 0.220422,-3.967062 c -0.101279,0.05814 -0.174751,0.142897 -0.175989,0.246115 -7.03e-4,0.04636 -0.0014,0.0925 -0.0014,0.138877 -0.127587,0.03541 -0.248714,0.10885 -0.311766,0.206437 -0.0014,-0.187674 -0.0028,-0.37588 -0.0042,-0.563546 0.164569,-0.01072 0.328891,-0.01984 0.49346,-0.02789 z m 0.492222,10.659634 0.171767,2.01289 c -0.06874,0.0153 -0.136523,0.0365 -0.196345,0.063 z m 0.04517,-3.80004 c 0.0591,-0.0525 0.09855,-0.1169 0.09954,-0.19143 0.0014,-0.11555 -0.0021,-0.23137 -0.0014,-0.34691 0.02336,0.47051 0.04644,0.94075 0.06952,1.41127 0.04172,0.84853 0.08365,1.69707 0.125356,2.5456 -0.151911,0.0407 -0.293148,0.10751 -0.335597,0.1874 0.01442,-1.20215 0.02857,-2.40404 0.04292,-3.60593 z m 0.524989,12.28726 c 0.05931,-0.0268 0.109715,-0.0587 0.145705,-0.0938 0.02259,0.26488 0.04517,0.52977 0.06755,0.79465 -0.113929,-0.005 -0.227866,-0.009 -0.342042,-0.0144 0.07695,-0.0458 0.129072,-0.10054 0.129072,-0.16086 z m 0.608136,-14.064763 c 0.0028,0.685263 0.0063,1.370533 0.0049,2.055793 -0.0028,1.19974 -0.01217,2.39949 -0.02505,3.5995 -0.08936,-1.8204 -0.178719,-3.64026 -0.268325,-5.460383 0.121628,-0.0405 0.234073,-0.10804 0.288434,-0.19491 z m 2.832943,14.756193 c -0.617079,0.002 -1.233904,0.0142 -1.850737,0.0365 -0.184424,-2.8e-4 -0.368849,-0.002 -0.553281,-0.005 -0.0021,-0.0445 -0.0042,-0.089 -0.007,-0.13352 0.09805,-0.0609 0.169537,-0.15228 0.173259,-0.26917 0.168544,-5.41454 0.23631,-10.83229 0.199574,-16.249771 -0.007,-1.064622 0.07968,-2.301368 -0.459954,-3.23944 0.654553,0.01315 1.308867,0.04613 1.962675,0.106699 0.179464,0.01664 0.435876,-0.06034 0.51307,-0.258175 0.07348,-0.188746 -0.06628,-0.333253 -0.237794,-0.349068 -2.550962,-0.23673 -5.119542,-0.142897 -7.648411,0.290353 -0.164815,0.02812 -0.418003,0.12091 -0.434633,0.339408 -0.01514,0.200806 0.205029,0.297862 0.361908,0.27105 0.727778,-0.124665 1.45854,-0.217966 2.190787,-0.286599 l 0.114429,16.015723 c 0.0084,1.19224 0.0171,2.38421 0.02554,3.57645 -0.354207,-0.0349 -0.708175,-0.0724 -1.061637,-0.11663 -0.18617,-0.0233 -0.436622,0.0616 -0.510094,0.26837 -0.06973,0.19545 0.06551,0.36569 0.247476,0.38848 0.102264,0.0126 0.20478,0.023 0.306798,0.0349 -0.335344,0.0416 -0.670195,0.0858 -1.004793,0.13351 -0.176488,0.0249 -0.41602,0.13298 -0.429424,0.35925 -0.01266,0.20751 0.198828,0.33057 0.370349,0.30617 0.703208,-0.1 1.407901,-0.18498 2.113347,-0.25818 0.107231,0.24103 0.578352,0.13861 0.71562,-0.0702 0.983445,-0.089 1.968635,-0.15174 2.955063,-0.18794 0.629484,0.002 1.25922,-0.0102 1.888458,-0.0375 0.461438,-0.0201 0.593001,-0.66703 0.0591,-0.66568"
       style="fill:#c67379;fill-opacity:1;fill-rule:nonzero;stroke:none;stroke-width:0.0257969"
       id="path761-3"
       sodipodi:nodetypes="sccssccccccscccccsccccccccccccccccccccccccccccccccccccccccccccccccccc" />
    <path
       d="m 53.863715,10.364516 c -0.04144,-0.08928 -0.09408,-0.167025 -0.152164,-0.23888 -0.198328,-0.3428972 -0.561718,-0.5123392 -0.941495,-0.4975882 -0.304321,0.01155 -0.636689,0.105096 -0.906251,0.289813 -0.173259,0.1128712 -0.320955,0.2643472 -0.414283,0.4579112 -0.191623,0.39652 -0.16333,0.869987 0.06333,1.242378 0.253182,0.416621 0.74342,0.523328 1.173829,0.427344 0.409568,-0.04423 0.816153,-0.295976 1.011998,-0.687131 0.129817,-0.259521 0.190138,-0.576952 0.141237,-0.871598 0.02456,-0.03884 0.04194,-0.08311 0.02385,-0.122249"
       style="fill:#c67379;fill-opacity:1;fill-rule:nonzero;stroke:none;stroke-width:0.0257969"
       id="path763-6" />
    <path
       d="m 52.794879,11.552192 c 4.93e-4,-5.32e-4 0.0014,-7.6e-4 0.0014,-7.6e-4 -7.04e-4,2.74e-4 -0.0014,7.6e-4 -0.0021,7.6e-4 2.46e-4,0 2.46e-4,0 4.92e-4,0"
       style="fill:#c67379;fill-opacity:1;fill-rule:nonzero;stroke:none;stroke-width:0.0257969"
       id="path765-7" />
    <path
       d="m 61.648868,29.549361 v 0 c 0,0 0,7.6e-4 2.46e-4,0.002 -2.46e-4,-7.6e-4 -2.46e-4,-0.002 -2.46e-4,-0.002"
       style="fill:#c8c7ee;fill-opacity:1;fill-rule:nonzero;stroke:none;stroke-width:0.0257969"
       id="path889" />
    <path
       d="m 71.62658,26.047181 c -0.07546,-0.21046 -0.120889,-0.33701 -0.166314,-0.46382 -0.112438,-0.25871 -0.218677,-0.51957 -0.271547,-0.80188 0,-2.7e-4 0,-2.7e-4 0,-2.7e-4 -0.04792,-0.10563 -0.09557,-0.21099 -0.15837,-0.34987 0.168544,0.0295 0.186663,0.16354 0.228366,0.27347 0.1112,0.25817 0.216446,0.5185 0.273538,0.79839 0,0 0,0 0,2.7e-4 0.07173,0.13726 0.129325,0.27829 0.09433,0.54371 z m -0.791829,5.41748 c 0.01611,-0.21314 0.09309,-0.34907 0.263117,-0.52655 -0.02906,0.26944 -0.103755,0.40081 -0.263117,0.52655 z m -1.421306,-4.90944 c -0.07149,-0.0239 -0.08365,-0.0922 -0.104747,-0.15308 -0.04644,-0.10751 -0.09284,-0.21529 -0.139006,-0.32279 -0.08191,-0.16381 -0.163577,-0.32735 -0.245492,-0.49089 v 0 0 c -0.0906,-0.10268 -0.14173,-0.22387 -0.182441,-0.40858 0.132554,0.12198 0.190884,0.23297 0.24127,0.3504 0.08564,0.15604 0.171028,0.31234 0.256658,0.46837 v 0 c 0.0653,0.10349 0.123619,0.21046 0.140499,0.3378 v 0 c 0.05861,0.0635 0.06825,0.13593 0.03328,0.21877 z m -0.03497,2.69225 c -0.184679,-0.38498 -0.365628,-0.72895 -0.58878,-1.04263 -0.127087,-0.17882 0.02632,-0.30161 0.06403,-0.45765 0.258149,0.45524 0.735975,0.80403 0.524736,1.50028 z m -2.784042,-9.403042 c -0.06952,0.04826 -0.156125,0.116089 -0.188393,-0.03838 -0.05017,-0.238607 -0.166807,-0.464347 -0.134539,-0.821456 0.174251,0.271856 0.293148,0.468368 0.422965,0.656042 0.107977,0.156302 -0.03427,0.158445 -0.100033,0.203754 z m -2.043345,0.268899 c -0.141237,-0.13914 -0.108969,-0.242893 -0.02533,-0.359251 0.07719,0.111267 0.05861,0.220111 0.02533,0.359251 z m -0.632713,1.769463 c -0.152903,-0.211 -0.197836,-0.5 -0.227866,-0.85685 0.237794,0.28634 0.428671,0.51556 0.636435,0.76516 -0.150419,-0.0139 -0.324423,0.20751 -0.408569,0.0917 z m 8.927487,4.93276 c -0.0021,-0.0456 -0.0042,-0.0909 -0.007,-0.13647 -7.04e-4,-0.0201 -0.0014,-0.0402 -0.0028,-0.0603 v 0 0 l 0.0049,-7.6e-4 c -0.03279,-0.29571 -0.08837,-0.58553 -0.155386,-0.87213 -0.04496,-0.19303 -0.09457,-0.38471 -0.146697,-0.5756 -0.04862,-0.17856 -0.09879,-0.35657 -0.148189,-0.53459 0,-2.7e-4 0,-2.7e-4 0,-5.4e-4 v 2.7e-4 -2.7e-4 c 0,2.7e-4 0,2.7e-4 0,2.7e-4 l 0.0042,0.006 c -0.03279,-0.0402 -0.05636,-0.0842 -0.07596,-0.13002 -0.01217,-0.029 -0.02259,-0.059 -0.03103,-0.0898 -0.01091,-0.0413 -0.01984,-0.0834 -0.02484,-0.12734 0,0 0,0 0,-2.8e-4 v 2.8e-4 0 c 7.04e-4,2.6e-4 7.04e-4,7.6e-4 0.0014,0.002 -0.01316,-0.026 -0.0266,-0.052 -0.03968,-0.0778 -0.03849,-0.0751 -0.0767,-0.15014 -0.115174,-0.22521 -0.01787,-0.0349 -0.03574,-0.0697 -0.05341,-0.10455 h -2.46e-4 c -0.03448,-0.063 -0.06924,-0.12628 -0.103509,-0.18928 -0.04243,-0.0539 -0.08489,-0.10778 -0.127087,-0.16193 -0.112199,-0.14317 -0.224637,-0.28606 -0.336836,-0.42923 -0.06382,-0.0812 -0.127333,-0.16247 -0.19113,-0.24344 -2.46e-4,-2.6e-4 -2.46e-4,-2.6e-4 -4.93e-4,-5.3e-4 -0.01365,-0.0163 -0.02709,-0.0324 -0.04074,-0.0488 -0.03673,-0.0405 -0.07397,-0.0815 -0.110707,-0.12198 -0.09507,-0.10483 -0.190385,-0.20939 -0.285457,-0.31422 -0.038,-0.0418 -0.0757,-0.0836 -0.11393,-0.12547 0,-2.6e-4 -2.53e-4,-2.6e-4 -2.53e-4,-2.6e-4 h 2.53e-4 c 0,0 -2.53e-4,0 -2.53e-4,-2.8e-4 2.53e-4,2.8e-4 7.03e-4,2.8e-4 7.03e-4,5.4e-4 -0.05981,-0.0442 -0.117412,-0.0906 -0.173012,-0.13887 -0.12461,-0.10912 -0.237794,-0.2311 -0.338573,-0.36596 -0.0432,-0.0579 -0.08489,-0.11743 -0.123365,-0.18043 0,-2.6e-4 -2.46e-4,-2.6e-4 -5e-4,-5.4e-4 l -0.0035,0.004 v 0 c -0.01393,-0.0147 -0.02758,-0.03 -0.04144,-0.0451 -0.236549,-0.25684 -0.472858,-0.51368 -0.709161,-0.77079 -0.02083,-0.0225 -0.04144,-0.0451 -0.06227,-0.0676 v 0 l 0.0042,-0.002 c -0.03603,-0.0191 -0.07022,-0.0402 -0.103263,-0.063 -0.08216,-0.0572 -0.154641,-0.126823 -0.220668,-0.204843 -0.02012,-0.0239 -0.04025,-0.0477 -0.0596,-0.073 -0.02505,-0.009 -0.04918,-0.0201 -0.07173,-0.033 -0.04419,-0.0252 -0.08315,-0.0582 -0.117659,-0.0968 -0.02259,-0.0252 -0.04391,-0.0525 -0.06255,-0.0828 h -2.46e-4 l -7.03e-4,0.003 v 0 c -0.03054,-0.0217 -0.0603,-0.0445 -0.09035,-0.0668 -0.370595,-0.275606 -0.698987,-0.599739 -0.980468,-0.97856 -0.02829,-0.03807 -0.05657,-0.07585 -0.0839,-0.115021 v 0 c -0.189392,-0.247453 -0.357437,-0.510196 -0.485769,-0.800815 -0.03771,-0.044 -0.07074,-0.09062 -0.100034,-0.139674 -0.02357,-0.03914 -0.04496,-0.07936 -0.06157,-0.122256 -0.01288,-0.03268 -0.02357,-0.06673 -0.0318,-0.102413 -0.02955,-0.02736 -0.05383,-0.05844 -0.07521,-0.09142 -0.01963,-0.02949 -0.03673,-0.06057 -0.05214,-0.09303 -0.02484,-0.05175 -0.04714,-0.105096 -0.07099,-0.157374 v 0 c -0.04693,-0.02196 -0.05383,-0.06513 -0.05066,-0.11341 -0.03997,-0.05388 -0.07546,-0.110188 -0.108477,-0.167831 -0.04714,-0.08123 -0.08688,-0.165954 -0.115175,-0.257104 -0.01464,-0.04689 -0.02702,-0.0949 -0.03574,-0.144774 0,0 0,-2.66e-4 -2.46e-4,-2.66e-4 h 2.46e-4 v 0 c 7.04e-4,7.6e-4 0.0014,0.0023 0.0028,0.003 -0.02779,-0.03268 -0.04792,-0.06809 -0.06403,-0.105636 -0.01562,-0.03754 -0.02758,-0.07695 -0.03722,-0.117156 -0.01541,-0.0627 -0.02702,-0.127082 -0.04545,-0.189009 v 0 c -0.05214,-0.07748 -0.04243,-0.165954 -0.03771,-0.253358 -0.07546,-0.107239 -0.05284,-0.242627 -0.08861,-0.36166 v 0 c -0.04792,-0.09518 -0.04742,-0.190623 0,-0.285793 0.02132,-0.08714 0.04292,-0.174268 0.06649,-0.260593 0.04468,-0.162738 0.09879,-0.321453 0.178473,-0.46864 0.02857,-0.05308 0.06009,-0.104827 0.09631,-0.154693 0,0 0,0 -2.54e-4,0 0.008,-0.03164 0.02012,-0.06005 0.03251,-0.0882 0.03546,-0.07909 0.08663,-0.145042 0.145959,-0.204561 0.02385,-0.02386 0.04862,-0.04692 0.07396,-0.06944 v 0 0 c 0.03849,-0.04022 0.07745,-0.07989 0.115921,-0.120109 0.02505,-0.0319 0.05087,-0.06274 0.07745,-0.09222 0.0489,-0.05442 0.101771,-0.102683 0.162831,-0.139681 0.02779,-0.01662 0.05685,-0.03136 0.08837,-0.04263 0.02308,-0.0319 0.04918,-0.0571 0.07719,-0.07855 0.02062,-0.01582 0.04292,-0.02815 0.06628,-0.03727 0.03574,-0.01367 0.07348,-0.02172 0.116421,-0.01823 v 0 c 0.05235,-0.04022 0.101025,-0.09008 0.17425,-0.06863 v 0 c 0.04644,-0.01957 0.09258,-0.03378 0.139,-0.0437 0.107477,-0.02306 0.215454,-0.02092 0.323431,0.003 0.04144,0.0091 0.08315,0.02118 0.124857,0.03646 4.92e-4,0 7.04e-4,0 0.0014,0 0.103256,0.0014 0.211486,-0.01797 0.292648,0.07936 0.04841,0.02601 0.09681,0.05175 0.144966,0.07748 0.04939,0.01582 0.09383,0.03727 0.134039,0.06354 0.07099,0.04638 0.127833,0.108581 0.173006,0.18338 0.02807,0.04665 0.05214,0.09786 0.07173,0.153889 0.168052,0.275875 0.336343,0.551749 0.504388,0.827623 0.02062,0.01876 0.03673,0.03915 0.05164,0.06005 0.066,0.09464 0.08092,0.21046 0.08613,0.330033 -0.0035,5.32e-4 -0.0077,7.6e-4 -0.01189,0.0015 0.0028,0.0015 0.0049,0.003 0.0072,0.0046 0,-0.0015 0,-0.003 2.53e-4,-0.0046 7.04e-4,0.0023 0.0014,0.0046 0.0021,0.0061 0.08439,0.196512 0.125595,0.403489 0.126834,0.619844 0,0 0,0 0,2.66e-4 0.0077,0.09518 -0.02357,0.199202 0.05439,0.278558 0.08986,0.09222 0.06677,0.212864 0.07174,0.32654 2.46e-4,5.4e-4 0,7.6e-4 2.46e-4,0.0015 0.01759,0.03648 0.03026,0.07372 0.03947,0.111533 0.02878,0.118494 0.02237,0.242095 0.0216,0.365149 0,5.39e-4 0,7.59e-4 0,0.0015 v 0 c 0.04292,0.105902 0.04391,0.216895 0.04468,0.327888 7.04e-4,0.08097 7.04e-4,0.161934 0.01738,0.24075 0,0 0,0 0,2.66e-4 0.05341,0.256572 0.180956,0.444512 0.442083,0.445051 0.245738,5.32e-4 0.372825,-0.175605 0.432147,-0.416628 0.02083,-0.08633 0.03701,-0.173995 0.05537,-0.260859 0,-2.74e-4 0,-2.74e-4 0,-5.4e-4 0.0097,-0.114747 0.01935,-0.228955 0.02906,-0.343702 0.01316,-0.154965 0.0266,-0.309922 0.03968,-0.465153 v 0 c 7.03e-4,-0.0456 0.0021,-0.09088 0.0028,-0.136459 0,-0.03914 0,-0.07775 0,-0.116623 0,-0.09625 0,-0.192765 2.53e-4,-0.289015 0,-0.02417 0,-0.04826 0,-0.07212 -0.0014,-0.063 -0.0028,-0.12547 -0.0035,-0.188471 v 0 c -0.04095,-0.213673 -0.06853,-0.430301 -0.09904,-0.646656 -0.04341,-0.30885 -0.09333,-0.616628 -0.196344,-0.910732 -0.02582,-0.07426 -0.05537,-0.147724 -0.08886,-0.22011 v 0 l 0.0035,-0.0021 c -0.05312,-0.0815 -0.105993,-0.163005 -0.159109,-0.244507 -0.03771,-0.05764 -0.07522,-0.115551 -0.112699,-0.173192 -0.04341,-0.06702 -0.08712,-0.133782 -0.130563,-0.200539 0,0 -2.46e-4,0 -2.46e-4,-2.68e-4 -0.07521,-0.111261 -0.150672,-0.222254 -0.226128,-0.333515 -0.01393,-0.01502 -0.02779,-0.02976 -0.04172,-0.04504 -0.102263,-0.109921 -0.20478,-0.219842 -0.307051,-0.329763 -0.01393,-0.01474 -0.02758,-0.02949 -0.04123,-0.04424 -0.08116,-0.06059 -0.162331,-0.121449 -0.243747,-0.18204 -0.07472,-0.05201 -0.152656,-0.09544 -0.232088,-0.133245 -0.115175,-0.05496 -0.234571,-0.09812 -0.355945,-0.134586 -0.118405,-0.03592 -0.239286,-0.06622 -0.359675,-0.09678 0,-2.68e-4 0,-2.68e-4 0,-2.68e-4 l -0.0021,0.0065 v 0 c -0.01393,2.69e-4 -0.02828,2.69e-4 -0.04243,5.37e-4 -0.100279,0.0024 -0.200812,0.003 -0.301338,0.0021 -0.466652,-0.0035 -0.93405,-0.03029 -1.399964,-0.0019 -0.08564,0.0051 -0.171275,0.01314 -0.256658,0.02252 -0.105993,0.0118 -0.211979,0.02601 -0.317972,0.04638 v 0 l -0.0021,-0.0056 c -0.09606,0.04102 -0.192122,0.08231 -0.28818,0.123326 -0.17475,0.0748 -0.3495,0.149867 -0.524243,0.224666 -0.08986,0.03834 -0.179964,0.07721 -0.270062,0.115819 -0.05734,0.04987 -0.114929,0.100002 -0.172267,0.149868 -0.03054,0.03217 -0.05861,0.06783 -0.08936,0.100269 -0.02857,0.03029 -0.05931,0.05791 -0.09507,0.07721 -0.02632,0.01394 -0.05488,0.0236 -0.08762,0.02654 v 0 c -0.102763,0.111262 -0.205527,0.222523 -0.30829,0.333785 v 0 c -0.008,0.04933 -0.02603,0.08981 -0.04813,0.12681 -0.01337,0.02172 -0.02857,0.04182 -0.04595,0.05979 -0.02955,0.0311 -0.06304,0.05844 -0.102018,0.08097 v 0 c -0.104993,0.161663 -0.209994,0.323059 -0.314988,0.484455 -0.007,0.04504 -0.01815,0.08686 -0.0323,0.126811 -0.01935,0.05577 -0.04496,0.107508 -0.08266,0.151476 -0.0216,0.02493 -0.04693,0.04772 -0.0757,0.06837 0,0 0,0 -2.53e-4,0 -0.01836,0.04317 -0.03722,0.08633 -0.05559,0.129492 -0.0049,0.0488 -0.01414,0.09544 -0.0266,0.140484 -0.01914,0.0697 -0.04742,0.134853 -0.07968,0.198662 -0.02603,0.0504 -0.05411,0.100537 -0.08489,0.148794 v 2.69e-4 l 0.0035,-0.0056 c -0.05383,0.193835 -0.107977,0.387672 -0.162085,0.581775 -0.01738,0.06247 -0.03476,0.125204 -0.05235,0.187666 -0.05559,0.199734 -0.111207,0.399469 -0.167053,0.599475 0.0014,-0.0015 0.0021,-0.0023 0.0042,-0.0038 -0.0049,0.118767 0.0072,0.241289 -0.0648,0.345306 0.0014,-7.6e-4 0.0021,-0.0023 0.0035,-0.003 -0.0087,0.11287 0.01365,0.234054 -0.07596,0.324939 v 0 c -0.08291,0.0807 -0.04644,0.188472 -0.05558,0.286059 0,0.003 0,0.0053 0,0.0083 0.0035,0.09089 7.03e-4,0.180971 -0.0273,0.265958 -0.0087,0.02546 -0.01886,0.05069 -0.033,0.07531 -2.54e-4,7.6e-4 -2.54e-4,0.0015 -2.54e-4,0.0015 0,0.0023 -2.46e-4,0.0046 -2.46e-4,0.0068 -0.0082,0.158711 2.46e-4,0.319839 -0.06129,0.470244 l -0.0014,-0.0015 c 4.99e-4,7.6e-4 7.03e-4,0.0015 0.0014,0.0023 -0.0021,0.05419 -0.0042,0.108584 -0.0063,0.163005 -0.02702,0.677495 -0.03279,1.353645 0.0114,2.029518 0.0099,0.151203 0.02336,0.302683 0.03821,0.453893 0.0042,0.0407 0.0087,0.081 0.01316,0.12145 0.0049,0.0488 0.0097,0.0978 0.01562,0.14639 0.0387,0.31689 0.101771,0.62386 0.179711,0.9252 0.0049,0.0201 0.01041,0.0402 0.01562,0.06 0.134293,0.50108 0.314749,0.98393 0.521268,1.45765 0.07173,0.16461 0.145451,0.32842 0.222406,0.49144 v 0 l -0.0035,0.002 c 0.02702,0.0284 0.05186,0.0581 0.07496,0.0887 0.03722,0.0496 0.06853,0.10268 0.08862,0.16299 0.01069,0.0319 0.01837,0.066 0.02237,0.10215 v 0 c 0.04074,0.0676 0.08116,0.13485 0.121874,0.20215 0.07893,0.0984 0.156625,0.19759 0.234318,0.29678 0.380523,0.48633 0.75757,0.97535 1.218763,1.38152 0.166806,0.14666 0.343041,0.28445 0.49073,0.45523 0.03054,0.0351 0.06157,0.07 0.08936,0.10885 0.04074,0.023 0.07968,0.0491 0.116913,0.0764 0.09507,0.07 0.179218,0.15389 0.256412,0.24611 0.02435,0.0284 0.04841,0.0574 0.07149,0.0877 v 0 c 0,0 0.0028,-0.003 0.0028,-0.003 h 2.46e-4 c 0.06058,0.0493 0.118159,0.10241 0.176981,0.15415 0.03574,0.0309 0.06973,0.0638 0.104754,0.0957 0.267079,0.24396 0.514555,0.50938 0.737707,0.80134 0.06079,0.0796 0.122373,0.15818 0.179711,0.24156 0,0 0,0 0,2.6e-4 l -0.0028,0.004 c 0.02357,0.0198 0.04566,0.0413 0.06776,0.0625 0.07595,0.0721 0.142728,0.15309 0.195352,0.24638 0.01886,0.0335 0.03673,0.0686 0.05164,0.10564 0.0273,0.0214 0.05235,0.0445 0.0762,0.0689 0.03075,0.0316 0.05636,0.0667 0.07571,0.10724 0.01492,0.0324 0.0266,0.067 0.03025,0.10804 0.04123,0.067 0.08216,0.13405 0.123366,0.20135 0.03025,0.0169 0.05509,0.0372 0.07645,0.0606 0.04496,0.0488 0.07273,0.10911 0.09408,0.17426 0.01091,0.034 0.02062,0.0695 0.02955,0.10456 0,2.7e-4 0,2.7e-4 0,2.7e-4 0,0 -2.53e-4,-0.003 -5e-4,-0.003 v -2.7e-4 c 0.04644,0.0788 0.07869,0.15845 0.101026,0.23861 0.06649,0.23968 0.04025,0.48473 -0.0021,0.73084 -0.01189,0.0673 -0.02456,0.13459 -0.03701,0.20188 0,7.6e-4 0,0.002 0,0.004 -7.04e-4,0.0997 -0.0063,0.1984 -0.02181,0.29437 -0.0028,0.0182 -0.007,0.0359 -0.01041,0.0537 -0.01963,0.0925 -0.04939,0.18231 -0.09656,0.26782 0.0014,-0.002 0.0021,-0.003 0.0035,-0.005 -0.0056,0.0469 -0.0159,0.0917 -0.0273,0.13539 -0.02927,0.11261 -0.07595,0.21555 -0.141237,0.30885 -0.02533,0.0359 -0.05263,0.0711 -0.08315,0.10403 -0.008,0.0324 -0.01935,0.0619 -0.03279,0.0903 -0.02231,0.0472 -0.05214,0.0887 -0.08787,0.12521 -0.02209,0.0225 -0.04595,0.044 -0.07248,0.063 v 0 l 0.0028,5.4e-4 v 0 0 0 c -0.02308,0.0407 -0.04714,0.0807 -0.07223,0.11957 -0.112692,0.17721 -0.245492,0.33244 -0.435877,0.42548 v 0 c -0.22166,0.18686 -0.487254,0.26112 -0.752855,0.32708 -0.224391,0.0558 -0.441829,0.0807 -0.6548,0.0847 -0.06354,7.6e-4 -0.126841,0 -0.189892,-0.003 -0.07322,-0.003 -0.145951,-0.009 -0.218185,-0.0174 -0.114429,-0.0137 -0.228112,-0.0316 -0.340064,-0.0565 -0.392928,-0.0871 -0.771467,-0.23942 -1.144292,-0.41743 -0.340811,-0.16274 -0.676647,-0.34719 -1.014228,-0.52387 -2.46e-4,-2.6e-4 -2.46e-4,-2.6e-4 -5e-4,-2.6e-4 l 0.0035,-0.002 c -0.03771,-0.0137 -0.07347,-0.0311 -0.108469,-0.0491 -0.100779,-0.0523 -0.189393,-0.12252 -0.266586,-0.20938 -0.02435,-0.0276 -0.04869,-0.0549 -0.07075,-0.0861 -0.03054,-0.0137 -0.05882,-0.0303 -0.08514,-0.0488 -0.05186,-0.0372 -0.09556,-0.0834 -0.130063,-0.13968 -0.01562,-0.0258 -0.02927,-0.0533 -0.04144,-0.0828 -0.01914,-0.0128 -0.03596,-0.0274 -0.05284,-0.0421 -0.05186,-0.0456 -0.09135,-0.10134 -0.116913,-0.16782 -0.0087,-0.0223 -0.01689,-0.0445 -0.02209,-0.0689 0,-2.7e-4 0,-2.7e-4 0,-2.7e-4 7.03e-4,2.7e-4 0.0014,5.3e-4 0.0021,7.6e-4 -0.04095,-0.0539 -0.07546,-0.11019 -0.106239,-0.16756 -0.08191,-0.15336 -0.133293,-0.31851 -0.168045,-0.49089 -0.01541,-0.0772 -0.02807,-0.15577 -0.03849,-0.23512 0,-2.7e-4 -2.53e-4,-2.7e-4 -2.53e-4,-2.7e-4 h 2.53e-4 v 0 0 l 0.0042,0.006 c -0.03124,-0.0686 -0.0546,-0.13942 -0.07323,-0.21073 -0.01787,-0.0697 -0.03124,-0.14022 -0.03996,-0.21153 -0.01069,-0.0879 -0.01541,-0.17694 -0.0171,-0.26649 0,-2.7e-4 0,-2.7e-4 0,-2.7e-4 v 0 0 0 l 0.0042,0.006 c -0.07174,-0.10295 -0.06206,-0.22413 -0.06804,-0.34182 0,-2.7e-4 0,-2.7e-4 0,-2.7e-4 -0.02681,-0.0657 -0.05263,-0.13164 -0.07868,-0.19786 -0.03525,-0.0893 -0.07149,-0.17775 -0.112692,-0.26355 -0.0094,-0.0188 -0.01864,-0.0378 -0.02828,-0.0565 -0.03602,-0.0705 -0.0767,-0.13807 -0.128086,-0.18847 -0.06178,-0.0611 -0.138507,-0.0965 -0.240771,-0.0791 -0.0653,0.0115 -0.113437,0.0391 -0.151418,0.0756 -0.09531,0.092 -0.11939,0.24772 -0.136023,0.39545 -0.02653,0.23592 -0.02287,0.47185 -0.01238,0.70751 0.0021,0.0464 0.0042,0.093 0.0063,0.13968 0.0035,0.0622 0.007,0.12413 0.0094,0.18606 0.0021,0.0429 0.0042,0.0858 0.0056,0.12869 5e-4,0.008 7.04e-4,0.0166 0.0014,0.0252 v 0 0 l -0.0035,2.7e-4 c 0.07372,0.12815 0.06206,0.27292 0.06853,0.41421 v 0 2.7e-4 c -0.0014,-0.002 -0.0014,-0.003 -0.0035,-0.004 0.03997,0.10885 0.07124,0.2201 0.0988,0.33244 0.01266,0.0509 0.02456,0.10188 0.03525,0.15308 0.02357,0.11073 0.04468,0.22253 0.06382,0.33459 0,0 0,2.7e-4 2.47e-4,2.7e-4 l -2.47e-4,-2.7e-4 c 0,2.7e-4 0,2.7e-4 0,2.7e-4 0,-2.7e-4 -2.46e-4,-5.3e-4 -2.46e-4,-7.6e-4 l -0.0049,-0.006 c 0.03152,0.0416 0.05439,0.0869 0.07297,0.13378 0.0077,0.0198 0.01513,0.04 0.02111,0.0603 0.01464,0.0502 0.02505,0.10188 0.03103,0.15549 0.02906,0.0359 0.05136,0.0746 0.07022,0.11475 0.0159,0.0335 0.02878,0.0684 0.0387,0.10483 0.01041,0.0389 0.01865,0.0786 0.02308,0.1201 v 0 h 2.47e-4 c 0,0 4.99e-4,-0.003 7.03e-4,-0.004 v -5.4e-4 0 c 0.03701,0.0695 0.07645,0.1362 0.115675,0.20268 0.374563,0.63164 0.864055,1.13701 1.484356,1.50002 0.03997,0.0233 0.0844,0.0434 0.116913,0.0785 0.01738,0.0188 0.03202,0.0405 0.03849,0.0718 0.06276,0.0461 0.125595,0.092 0.188647,0.1378 0.05763,0.0185 0.112691,0.0416 0.166306,0.0673 0.116414,0.056 0.224144,0.12735 0.32467,0.21179 0.04813,0.0402 0.09532,0.0837 0.140745,0.12923 0.04243,0.0242 0.08489,0.048 0.127333,0.0721 0.207764,0.0673 0.41602,0.13378 0.623777,0.20135 0.56098,0.18284 1.127919,0.23539 1.697088,0.23699 0.0021,0 0.0035,-2.6e-4 0.0049,-2.6e-4 0.532181,0.002 1.065853,-0.0416 1.598786,-0.0651 0.123365,-0.005 0.244,-0.0644 0.371087,-0.0311 0.161839,0.0225 0.26138,-0.15925 0.419743,-0.14933 0.06382,-0.0365 0.126341,-0.0764 0.189885,-0.11474 0.06255,-0.0379 0.125602,-0.0737 0.192122,-0.10295 0.04742,-0.0212 0.09656,-0.0391 0.147943,-0.0515 v -2.8e-4 c 0.118151,-0.092 0.236802,-0.18445 0.354953,-0.27694 0.08986,-0.0742 0.179465,-0.14853 0.26907,-0.22279 0,-2.7e-4 0,-2.7e-4 0,-2.7e-4 0.01886,-0.0156 0.0375,-0.0314 0.05587,-0.0472 0.107977,-0.0981 0.215455,-0.19625 0.323185,-0.29438 2.47e-4,-2.6e-4 2.47e-4,-2.6e-4 2.47e-4,-2.6e-4 0.01836,-0.0158 0.03673,-0.0311 0.05509,-0.0467 0.03054,-0.0394 0.06304,-0.0756 0.0983,-0.10858 0.0159,-0.0151 0.033,-0.0286 0.05066,-0.0413 0.03377,-0.0246 0.06973,-0.0461 0.111207,-0.0593 0.01914,-0.0298 0.04046,-0.056 0.06333,-0.0804 0.0323,-0.0349 0.06825,-0.0649 0.108223,-0.089 0.02484,-0.0151 0.05136,-0.0279 0.07943,-0.0386 0.01562,-0.0209 0.03328,-0.0402 0.04989,-0.06 0.08116,-0.0979 0.170522,-0.18552 0.266087,-0.26569 0.04194,-0.0349 0.08464,-0.0689 0.128333,-0.10214 0,0 0,0 2.46e-4,-2.7e-4 0.09706,-0.1059 0.194107,-0.21153 0.291164,-0.31743 0.07124,-0.097 0.142229,-0.19464 0.213224,-0.29169 v -2.7e-4 c 0.09929,-0.1992 0.198075,-0.39813 0.297116,-0.59732 v 0 c 0.0102,-0.0316 0.02062,-0.0633 0.03075,-0.0946 0.02406,-0.0743 0.04813,-0.14907 0.07223,-0.22333 0.01759,-0.0547 0.03602,-0.10912 0.05263,-0.16434 0.265594,-0.86329 0.461438,-1.73755 0.563463,-2.62604 0.02111,-0.18472 0.03821,-0.36997 0.05115,-0.55577 0.02976,-0.43324 0.03553,-0.86971 0.01562,-1.31019"
       style="fill:#c8c7ee;fill-opacity:1;fill-rule:nonzero;stroke:none;stroke-width:0.0257969"
       id="path891" />
    <path
       d="m 69.821269,16.641444 c 0,0 0,0 0,-2.66e-4 0,2.66e-4 0,2.66e-4 0,2.66e-4 v 0"
       style="fill:#c8c7ee;fill-opacity:1;fill-rule:nonzero;stroke:none;stroke-width:0.0257969"
       id="path893" />
    <path
       d="m 72.491627,29.001901 c -0.06501,0.67856 -0.164323,1.35738 -0.349247,2.01074 -0.181449,0.63942 -0.465414,1.2606 -0.879943,1.76169 -0.409315,0.49437 -0.933558,0.84585 -1.497268,1.09867 -1.166877,0.52332 -2.509751,0.64933 -3.759542,0.54156 -1.13238,-0.0979 -2.251109,-0.40805 -3.284447,-0.91985 -0.863809,-0.77615 -1.632299,-1.66785 -2.288344,-2.65204 0.0072,-0.008 0.01562,-0.0145 0.02237,-0.023 0.08141,-0.10589 0.167545,-0.20697 0.25765,-0.30429 0.112945,-0.0823 0.225882,-0.16461 0.33882,-0.24665 0.14149,-0.0319 0.277759,-0.10751 0.341556,-0.24719 2.47e-4,-5.3e-4 4.93e-4,-0.002 7.04e-4,-0.002 0.08861,-0.0646 0.177473,-0.12895 0.266087,-0.19383 0.392442,1.08553 1.066851,2.07214 2.009345,2.66249 0.12535,0.0783 0.254175,0.14746 0.385983,0.20805 0.02456,0.0163 0.04862,0.0335 0.07323,0.0496 0.03398,0.0217 0.07968,0.0324 0.130317,0.0357 0.895577,0.34209 1.902853,0.29169 2.779566,-0.12681 0.51084,-0.24371 0.973524,-0.61475 1.296456,-1.11101 0.337082,-0.51877 0.475588,-1.14344 0.455486,-1.77079 -0.04292,-1.33916 -0.808455,-2.56625 -1.663575,-3.47806 -0.902528,-0.96301 -1.96392,-1.76194 -2.737124,-2.86089 -0.783632,-1.11421 -1.110286,-2.51128 -1.12096,-3.895747 -0.0049,-0.704299 0.06382,-1.408864 0.183187,-2.101102 0.127333,-0.73754 0.305806,-1.479098 0.618809,-2.152831 0.48577,-1.046394 1.298194,-1.840771 2.281393,-2.266246 0.443074,-0.19169 0.907243,-0.302952 1.42255,-0.330029 0.464176,-0.02467 0.994126,0.05067 1.462763,0.21019 0.254674,0.0866 0.518783,0.20027 0.739698,0.36381 0.273538,0.20322 0.376055,0.50081 0.451511,0.836738 0.178472,0.796523 0.309035,1.606718 0.397156,2.420397 0.01414,0.13405 0.02554,0.268367 0.0375,0.402683 -0.03152,0.01718 -0.06354,0.03352 -0.09209,0.05548 -0.11915,0.09142 -0.117905,0.221986 0.05537,0.223597 0.01288,2.66e-4 0.01935,-7.6e-4 0.02308,-0.003 0.0014,0.0038 0.0049,0.0088 0.01393,0.0174 0.0114,0.01125 0.01914,0.02014 0.0273,0.02979 0.01041,0.139682 0.01984,0.279896 0.02779,0.419578 -0.01288,0.02576 -0.02505,0.04742 -0.02484,0.03488 2.46e-4,-0.0078 -0.0028,-0.0038 -0.0063,0.0053 -0.234818,0.01368 -0.465414,0.02546 -0.689804,0.0665 -0.154395,-0.779369 -0.30829,-1.558195 -0.462438,-2.33729 -0.109462,-0.553356 -0.234072,-1.250682 -0.810932,-1.434062 -0.02582,-0.008 -0.05284,-0.01314 -0.08068,-0.01609 -0.02632,-0.0252 -0.05882,-0.04638 -0.09953,-0.06033 -1.315566,-0.450139 -2.565111,0.749338 -2.883329,2.061415 -0.29637,1.221461 0.05439,2.493592 0.791576,3.445078 1.26791,1.636471 3.247964,2.357131 4.592822,3.900571 0.377539,0.43352 0.69055,0.92602 0.899053,1.47857 0.243754,0.64504 0.364142,1.33862 0.409068,2.03166 0.04644,0.71877 0.007,1.44505 -0.06157,2.16088 z m 0.664481,-3.83731 c -0.321194,-1.23567 -1.024648,-2.19546 -1.936613,-2.98957 -0.800012,-0.69626 -1.69485,-1.24935 -2.527629,-1.896813 -0.756079,-0.587672 -1.506943,-1.292237 -1.865372,-2.247477 -0.246238,-0.654962 -0.30283,-1.36623 -0.148935,-2.054978 0.131309,-0.589012 0.486263,-1.186338 0.995864,-1.440228 0.08464,-0.04236 0.176981,-0.07158 0.251444,-0.07963 0.115668,-0.01233 0.213224,5.36e-4 0.337335,0.04317 0.07297,0.02493 0.154641,0.03057 0.235311,0.01904 0.302576,0.302684 0.366127,0.915027 0.442574,1.302693 l 0.46889,2.368928 c 0.02062,0.10429 0.234319,0.07774 0.289173,0.07106 0.143721,-0.01771 0.283719,-0.06597 0.409322,-0.143703 0.0056,0 0.0092,-2.66e-4 0.0159,-2.66e-4 0.05685,-2.73e-4 0.11443,-0.0061 0.171268,-0.0081 0.139752,-0.0038 0.277513,-0.0097 0.41602,-0.02949 0.2162,-0.03108 0.443813,-0.09357 0.643387,-0.204294 0.0159,-0.003 0.03025,-0.0061 0.04123,-0.0097 0.155633,-0.04507 0.364136,-0.15523 0.353215,-0.356842 -7.03e-4,-0.01558 -0.0021,-0.03139 -0.0035,-0.04719 0.05362,-0.156568 0.04419,-0.327614 -0.03082,-0.456033 -0.04918,-0.651479 -0.124604,-1.300012 -0.23035,-1.943989 -0.06776,-0.412604 -0.144959,-0.824673 -0.238041,-1.231648 -0.07422,-0.324132 -0.186908,-0.640221 -0.428678,-0.861671 -0.432147,-0.395446 -1.043766,-0.601079 -1.592333,-0.713144 -0.553282,-0.112871 -1.122205,-0.130028 -1.680947,-0.05684 -1.128904,0.147723 -2.222809,0.646387 -3.086865,1.448004 -0.986428,0.914755 -1.500989,2.2086 -1.768821,3.557675 -0.272546,1.371861 -0.358676,2.829793 -0.07422,4.207826 0.139753,0.67856 0.379531,1.32763 0.718597,1.91906 0.333359,0.58123 0.765514,1.08687 1.224222,1.55471 0.914695,0.93325 1.971119,1.74076 2.676311,2.88635 0.634951,1.03138 1.054693,2.47027 0.407331,3.61184 -0.25542,0.44987 -0.639911,0.75497 -1.065606,0.93486 -0.18344,0.0775 -0.400133,0.12788 -0.636189,0.15121 -0.204042,0.0201 -0.455979,0.01 -0.682853,-0.0378 -0.181202,-0.0375 -0.355952,-0.0965 -0.524989,-0.17025 -0.963589,-0.72896 -1.699565,-1.78715 -2.093984,-2.9826 -0.04517,-0.13593 -0.213224,-0.17052 -0.386729,-0.14317 0.02955,-0.0249 0.0591,-0.0493 0.08886,-0.074 0.0444,-0.037 0.101025,-0.11448 0.08415,-0.18204 -0.01442,-0.0587 -0.07149,-0.0853 -0.119643,-0.10053 -0.170282,-0.0534 -0.397902,-7.6e-4 -0.545091,0.10027 -0.358183,0.24638 -0.692042,0.5252 -1.005792,0.8295 -0.109961,0.026 -0.215208,0.066 -0.315734,0.11662 0.01738,0.0316 0.03399,0.0638 0.05115,0.0954 -0.136276,0.1126 -0.266839,0.23325 -0.389958,0.36221 -0.07446,0.0539 -0.148681,0.10803 -0.222899,0.1622 -0.07099,0.0112 -0.141483,0.0319 -0.203788,0.0603 -0.120882,0.0549 -0.323186,0.1882 -0.221168,0.35067 0.705446,1.12441 1.555597,2.13541 2.5244,3.00191 0.02955,0.0265 0.06354,0.0439 0.100033,0.0563 0.0056,0.0279 0.0082,0.0555 0.01119,0.0831 0.471127,0.23807 0.958628,0.43941 1.457302,0.59786 1.366451,0.43512 2.81854,0.57829 4.234392,0.39946 1.375388,-0.17372 2.792725,-0.61957 3.843935,-1.6354 1.011751,-0.97776 1.442906,-2.40592 1.632545,-3.81881 0.19163,-1.43057 0.267086,-2.97053 -0.09804,-4.37618"
       style="fill:#7b79cd;fill-opacity:1;fill-rule:nonzero;stroke:none;stroke-width:0.0257969"
       id="path895" />
    <path
       d="m 77.587527,22.097371 c -0.0021,0.005 -0.0035,0.009 -0.0056,0.0128 0,-0.004 0,-0.008 0,-0.0112 0.0021,-5.3e-4 0.0035,-7.6e-4 0.0056,-0.002 z m 0.481549,-3.595491 c 0.0097,0 0.01963,-2.66e-4 0.02927,-2.66e-4 0.0072,-2.74e-4 0.01442,-2.74e-4 0.02181,-2.74e-4 0.0056,0.11743 0.03328,0.237004 -0.02406,0.358188 -7.03e-4,-0.0015 -7.03e-4,-0.003 -0.0014,-0.0046 -0.05784,-0.118502 -0.02906,-0.237003 -0.02533,-0.353088 z m 0.05537,-2.565178 v 0 0 c 0.0063,0.05335 0.01238,0.106168 0.06157,0.136468 -0.0035,0.06406 -0.0028,0.128145 -0.0014,0.192226 0.0049,0.219039 0.02287,0.439148 -0.02857,0.654431 -0.0063,0.02736 -0.01288,0.05472 -0.02181,0.08176 0,0 0,0 0,-2.66e-4 v 0 c -0.0028,0.06353 -0.0056,0.126816 -0.0091,0.189817 -7.03e-4,0.163271 -0.0014,0.32601 -0.0021,0.489015 -4.93e-4,0.142623 -7.04e-4,0.285254 -0.0014,0.427618 -0.0042,0 -0.0092,0 -0.01337,2.66e-4 -0.01288,0 -0.02554,2.66e-4 -0.03821,2.66e-4 0.0014,-0.305362 0.0028,-0.610732 0.0042,-0.916094 2.46e-4,-0.131102 2.46e-4,-0.262203 4.93e-4,-0.393571 v 0 c 0.0079,-5.32e-4 0.0159,7.6e-4 0.02385,0.0015 0.0082,5.39e-4 0.01639,0 0.02435,0.0015 -0.007,-0.111799 0.04369,-0.233515 -0.04989,-0.329757 v 0 c 0.01119,-0.179362 -0.04939,-0.366762 0.05186,-0.535664 z m -0.05066,3.498166 c 0,0.01368 0,0.02546 0,0.03838 -0.0261,0.01049 0,-0.04856 -0.0028,-0.07425 0.0049,0.01824 0.0089,0.03541 0.01189,0.05228 -0.0028,-0.0053 -0.0049,-0.01049 -0.0089,-0.01634 z m 2.608299,12.510593 c 0,2.7e-4 0,2.7e-4 0,5.3e-4 -0.0094,-0.004 -0.01611,-0.0121 -0.02083,-0.0217 0.007,0.008 0.01393,0.0142 0.02083,0.0212 z m -1.460778,-8.195 c 0,-0.002 0,-0.005 0,-0.006 7.04e-4,5.4e-4 0.0021,7.6e-4 0.0028,7.6e-4 -0.0014,0.002 -0.0014,0.004 -0.0028,0.005 z m 0.102763,-0.46381 c 2.46e-4,-7.6e-4 2.46e-4,-0.002 4.93e-4,-0.003 -2.47e-4,0.002 -2.47e-4,0.005 -4.93e-4,0.008 0,-0.002 0,-0.003 0,-0.005 z m 5.662898,7.32367 c -0.0596,-0.57721 -0.41999,-1.09143 -1.0676,-1.04612 -0.17102,0.0118 -0.34304,7.6e-4 -0.51456,0.005 -0.24449,0.006 -0.39417,0.137 -0.44332,0.4008 -0.0941,0.50269 -0.16481,1.00779 -0.16308,1.52201 0,2.6e-4 0,2.6e-4 0,2.6e-4 v 0 c -0.0799,0.42548 -0.17822,0.84532 -0.30978,1.25658 -0.0856,0.26972 -0.25219,0.40189 -0.51009,0.43057 -0.3696,0.041 -0.64214,-0.14021 -0.865051,-0.4295 -0.113437,-0.14718 -0.206273,-0.3134 -0.308536,-0.47105 7.03e-4,-0.12814 -0.04763,-0.23511 -0.120389,-0.3319 -0.01759,-0.13432 -0.04496,-0.26434 -0.12758,-0.37266 0,2.7e-4 0,2.7e-4 0,2.7e-4 -0.09284,-0.0758 -0.01492,-0.19276 -0.05833,-0.28017 -0.0049,-0.13886 -0.0028,-0.27828 -0.03849,-0.41233 -0.0035,-0.0223 -0.0094,-0.0442 -0.01865,-0.0657 -2.46e-4,-7.6e-4 -2.46e-4,-0.002 -7.04e-4,-0.002 0.01344,-0.0151 0.01365,-0.0303 0.0014,-0.0456 0.0021,-0.10912 0.0102,-0.21797 0.0056,-0.32655 -0.06748,-1.65632 -0.133539,-3.31263 -0.205772,-4.96868 -0.06431,-1.48152 -0.132301,-2.96277 -0.205027,-4.44375 -0.02505,-0.509123 -0.03377,-0.508583 0.450265,-0.505643 0.06058,5.4e-4 0.121135,0.002 0.181702,0 0.494453,-0.0134 0.989152,-0.0298 1.483612,-0.0407 0.20329,-0.005 0.38548,-0.07 0.37803,-0.31743 -0.007,-0.245576 -0.19509,-0.300005 -0.39591,-0.297862 -0.35346,0.003 -0.70693,0.003 -1.060639,0.003 -0.353462,5.4e-4 -0.705439,-0.02523 -1.055185,-0.08284 v 0 c 0.01119,-0.784195 0.02533,-1.568389 0.03251,-2.352576 0.008,-0.882587 0.01168,-1.765434 0.01365,-2.648021 7.04e-4,-0.274796 -0.0911,-0.526277 -0.356691,-0.572118 -0.464176,-0.0807 -0.936289,-0.128693 -1.403188,0.0076 v 0 c -0.247229,0.01634 -0.581088,-0.08874 -0.5935,0.341825 -0.02336,0.811804 -0.152157,1.616099 -0.137515,2.429782 v 0 0 c -0.05756,0.155231 -0.04172,0.319839 -0.04841,0.480967 -0.03131,0.75524 -0.06009,1.510746 -0.0896,2.266251 -2.47e-4,0 -2.47e-4,2.66e-4 -2.47e-4,2.66e-4 -0.579597,0.01208 -1.161424,-0.05016 -1.737792,0.06384 v 0 c -0.08042,0.0046 -0.161093,0.0093 -0.241516,0.01452 -0.08936,-0.01824 -0.174251,-0.0015 -0.257404,0.03564 -0.07546,0.03374 -0.147197,0.07641 -0.149434,0.174256 -0.0028,0.11073 0.05558,0.17481 0.160354,0.18419 v 0 c 0.08961,0.0783 0.198575,0.0646 0.302829,0.0732 v 0 c 0.09904,0.0764 0.213471,0.0515 0.32244,0.053 0.453994,0.006 0.908235,0.0169 1.36223,0.008 0.201304,-0.004 0.258149,0.078 0.254427,0.288203 -0.03398,1.8641 0.01738,3.72766 0.07893,5.59014 0.02181,0.66221 0.01541,1.3271 0.102517,1.98582 0.01238,0.99464 0.161592,1.96758 0.360913,2.93783 0.156871,0.76274 0.384491,1.485 0.791822,2.13407 v 2.7e-4 c 0.117905,0.2126 0.235557,0.42547 0.353462,0.63807 0.08465,0.17775 0.198581,0.32307 0.375808,0.3984 0.304568,0.39464 0.708669,0.60028 1.163163,0.70913 0.130809,0.002 0.261618,0.003 0.392435,0.004 0.08787,7.6e-4 0.175491,0.002 0.263111,0.003 0.10549,7.6e-4 0.21074,0.002 0.31599,0.003 v 0 0 c 0.24723,-0.0611 0.50785,-0.0354 0.75012,-0.13191 0,0 0,0 2.5e-4,0 0.16233,0.0113 0.32467,0.022 0.47509,-0.0673 0.31946,-0.0201 0.60194,-0.17695 0.89335,-0.29357 0.55229,-0.22064 0.87423,-0.67453 1.04401,-1.26865 0.3629,-0.86542 0.26609,-1.77481 0.174,-2.66866"
       style="fill:#617e83;fill-opacity:1;fill-rule:nonzero;stroke:none;stroke-width:0.0257969"
       id="path443" />
    <path
       d="m 98.082341,27.529861 c -0.76452,-2.73542 -2.64975,-5.12043 -4.46151,-7.494453 -1.01572,-1.330579 -2.75028,-3.315049 -2.59415,-5.064931 0.10748,-0.186062 0.22538,-0.369709 0.36613,-0.547191 0.13578,-0.17078 0.006,-0.210458 -0.1683,-0.204292 0.20007,-0.433249 0.55403,-0.8421 1.11029,-1.2102 0.30209,-0.199734 0.6146,-0.276143 0.95292,-0.414214 10e-4,-5.36e-4 10e-4,-5.36e-4 0.003,-0.0011 -0.009,-0.0037 -0.0182,-0.007 -0.0278,-0.01367 0.008,0.0051 0.0213,0.008 0.0305,0.01287 0.15092,-0.05925 0.11244,0.02869 0.0253,0.01046 0.0678,0.0295 0.15166,0.05147 0.21371,0.08097 0.6223,0.297322 0.98172,0.853896 1.222,1.363285 0.51555,1.093306 0.8854,2.674292 -0.11195,3.720949 -0.33485,0.351743 1.71445,0.634861 2.08033,0.250675 0.92314,-0.968912 0.76998,-2.18608 0.45127,-3.253118 -0.29315,-0.981512 -0.8241,-1.9775 -2.05874,-2.46142 -1.34958,-0.52896 -3.2214,-0.467297 -4.51116,0.242898 -0.90824,0.500542 -1.46797,1.216366 -1.66282,2.000021 -0.0333,0.0056 -0.0588,0.01448 -0.0757,0.02788 -0.29762,-0.0046 -0.52027,0.01153 -0.53244,0.05844 -0.1601,0.609123 -0.22315,1.224407 -0.19956,1.834065 -0.0112,0.111259 -0.0169,0.222252 -0.0174,0.333245 -0.0223,0.223598 -0.0447,0.447461 -0.067,0.671059 -0.003,0.02842 0.0531,0.05472 0.14173,0.07855 0.0166,0.07667 0.0442,0.15121 0.0658,0.226812 0.0154,0.659795 0.19113,1.310737 0.52623,1.9145 0.19535,0.630027 0.48403,1.24371 0.83923,1.8204 1.46203,2.37374 3.88019,4.3349 5.07983,6.81455 0.6707,1.38688 0.93281,2.8826 0.35347,4.35527 -0.0496,0.12548 0.10723,0.13592 0.2996,0.10885 -0.46616,0.6354 -1.16043,1.15069 -2.17267,1.33245 -1.50273,0.26944 -2.61202,-1.14827 -2.74159,-2.08259 -0.0678,-0.48714 -2.23002,-0.45094 -2.18012,-0.0911 0.35197,2.53621 4.3781,3.43542 7.24679,2.43675 3.32193,-1.15632 3.18268,-4.68155 2.57479,-6.85664"
       style="fill:#ebc532;fill-opacity:1;fill-rule:nonzero;stroke:none;stroke-width:0.0257969"
       id="path435" />
    <path
       d="m 124.81524,14.280484 c -0.007,-0.0421 -0.0206,-0.08418 -0.0367,-0.125471 0.0918,-0.03435 0.17401,-0.08713 0.2244,-0.16166 l -0.004,0.19196 c -0.0442,0.01315 -0.11841,0.05229 -0.18319,0.09517 z m -0.43984,-0.550406 -3.68731,0.0038 c -0.14124,2.66e-4 -0.34826,0.04423 -0.47112,0.156568 -0.004,-0.0097 -0.008,-0.01961 -0.0124,-0.02896 l -0.0286,-0.03245 c -0.0124,-0.0078 -0.0251,-0.01558 -0.0377,-0.02356 -0.0385,-0.01794 -0.0814,-0.01961 -0.12237,-0.01338 -0.036,0.0061 -0.0678,0.01771 -0.0988,0.03808 -0.03,0.01961 -0.068,0.05145 -0.0789,0.08928 -0.004,0.01337 -0.008,0.02705 -0.0119,0.0402 -0.001,-2.74e-4 -0.002,-0.0015 -0.004,-0.0015 -0.0466,-0.02014 -0.10053,-0.02196 -0.14893,-0.0093 -0.0449,0.01208 -0.0995,0.0421 -0.12808,0.08311 -0.0241,0.03542 -0.0447,0.08151 -0.0318,0.126808 0.009,0.03002 0.0258,0.05525 0.0481,0.07372 -0.0189,0.03298 -0.03,0.0684 -0.03,0.106433 l 0.0164,17.528874 c -0.8159,0.0917 -0.60342,0.19196 -1.41932,0.28338 -0.0124,-0.002 -0.0253,-0.003 -0.038,-0.005 -0.0792,-0.0129 -0.16159,-0.009 -0.24301,0.005 0.29936,-4.57269 0.27156,-13.559919 -0.0722,-18.128871 -0.006,-0.08525 -0.0551,-0.139408 -0.12387,-0.168637 0.005,-0.0061 0.0132,-0.01049 0.0174,-0.0174 0.10103,-0.162465 -0.0876,-0.208846 -0.20701,-0.203754 -1.56702,0.06247 -3.13354,0.12547 -4.7003,0.187939 -0.0164,7.6e-4 -0.037,0.0046 -0.0554,0.0061 l 0.0455,-1.887955 c 1.39723,-0.0684 2.69741,-0.121716 3.96978,-0.158985 -0.0608,0.03055 -0.1184,0.08284 -0.14794,0.134317 -0.0452,0.07856 -0.0109,0.12145 0.0683,0.119307 1.91875,-0.04963 3.83774,-0.07212 5.75723,-0.06809 0.54111,0.0015 1.08248,0.0046 1.62385,0.01 0.0938,7.6e-4 0.1884,-0.05259 0.25195,-0.12601 2.4e-4,-2.66e-4 5e-4,-7.6e-4 7e-4,-7.6e-4 0.0496,-0.0038 0.0648,-0.03944 0.0427,-0.08311 0.002,-0.0078 0.003,-0.01558 0.004,-0.0228 0.0255,5.39e-4 0.0509,7.6e-4 0.0762,0.0015 0.0633,1.08473 0.0151,0.901616 -0.0226,1.987958 z m -3.45324,0.909657 c 7e-4,-0.0053 0.002,-0.0099 0.003,-0.01497 7.1e-4,-0.01208 5e-4,-0.0247 -5e-4,-0.03701 l 2.99081,-0.02493 c 0.002,0.02143 0.008,0.0421 0.0177,0.0611 z m -0.54981,17.961326 -0.0822,0.0102 c 0.0464,-0.0477 0.076,-0.10322 0.076,-0.16488 v -0.081 c 0.004,-0.004 0.007,-0.006 0.0109,-0.01 0.0166,-0.0166 0.0312,-0.0344 0.0459,-0.0523 0.003,0.003 0.005,0.005 0.008,0.008 -0.0179,0.0968 -0.0372,0.19357 -0.0591,0.29009 z m -0.9487,0.11743 c 0.008,-0.0116 0.0142,-0.0247 0.0194,-0.0379 0.0466,-0.002 0.0961,-0.004 0.14943,-0.006 0.006,0.008 0.0134,0.0137 0.0201,0.0201 z m -2.72794,-17.859452 c -0.0102,-0.0061 -0.11492,-0.05335 -0.16481,-0.07106 0.0904,-0.0081 0.1807,-0.01718 0.27105,-0.02873 7e-4,0.05525 10e-4,0.110188 0.002,0.165148 -0.038,-0.02812 -0.0854,-0.05198 -0.10822,-0.06543 z m -1.19319,-0.731909 c 0,-2.66e-4 0,-5.4e-4 0,-7.6e-4 2.4e-4,0 2.4e-4,0 5e-4,0 -2.6e-4,2.66e-4 -2.6e-4,5.4e-4 -5e-4,7.6e-4 z m -2.25831,0.08927 c 0.10103,-0.0038 0.20205,-0.0081 0.30308,-0.01208 10e-4,0.0099 0.003,0.01984 0.006,0.02873 -0.10301,-0.0046 -0.20578,-0.01102 -0.30879,-0.01664 z m -0.6337,-2.196265 c -0.0303,-0.0061 -0.0633,-0.0078 -0.0971,-0.0078 0.006,-0.0209 0.01,-0.04233 0.0122,-0.06406 0.0392,-0.0015 0.0792,-0.0038 0.11815,-0.0061 -0.0134,0.04795 -0.0253,0.07936 -0.0333,0.07775 z m 12.79252,-0.68473 c 0.0139,-0.06323 0.0161,-0.129757 0.004,-0.198929 -0.002,-0.01284 -0.10897,0.03032 -0.20304,0.08633 -0.0296,-0.02014 -0.0598,-0.03511 -0.0884,-0.03944 -0.0452,-0.0061 -0.0904,-0.01155 -0.13553,-0.0174 -7e-4,-5.4e-4 -10e-4,-7.6e-4 -0.002,-0.0015 0.0187,2.66e-4 0.0372,2.66e-4 0.0559,2.66e-4 0.0586,5.39e-4 0.14149,-0.03268 0.0906,-0.103485 -0.0531,-0.07349 -0.18964,-0.08338 -0.26634,-0.08364 l -1.58489,-0.0086 c -1.3667,-0.131642 -2.73811,-0.201612 -4.11053,-0.204561 -0.55874,-0.0015 -1.11748,0.0083 -1.67573,0.02812 -0.0455,0.0015 0,0.06969 0.035,0.114482 -1.26741,-0.07075 -2.53532,-0.141559 -3.80298,-0.212069 -0.38053,-0.0212 -0.76104,-0.04233 -1.14156,-0.06384 -0.0914,-0.0053 -0.13231,0.09383 -0.0981,0.1748 0.0196,0.04636 0.0523,0.08177 0.0908,0.108044 -0.0191,0.003 -0.0395,0.0088 -0.0546,0.01984 -0.0476,-0.003 -0.0958,-0.0061 -0.14347,-0.0097 -0.0928,-0.04689 -0.23904,-0.0665 -0.29166,-0.01961 -0.0593,-0.0046 -0.11865,-0.0076 -0.17798,-0.01178 -0.0864,-0.0061 -0.18964,0.0665 -0.25119,0.125737 -0.0124,0.01208 -0.0291,0.03108 -0.0414,0.05069 -0.0772,-0.01231 -0.14173,-0.003 -0.13776,0.04317 0.0362,0.438615 0.0576,0.878028 0.0663,1.317714 -0.001,0.06862 -0.004,0.137265 -0.006,0.205898 -2.4e-4,0.0053 10e-4,0.01049 0.003,0.01581 -0.0129,0.53111 -0.0258,1.062213 -0.0385,1.593855 -7e-4,0.04423 0.0499,0.08472 0.11468,0.114474 0.0218,0.05335 0.0526,0.102413 0.0956,0.144508 0.0938,0.09116 0.2219,0.114207 0.34452,0.11233 0.0395,0.02599 0.0983,0.03944 0.14447,0.0456 -0.0191,0.0053 -0.0375,0.01208 -0.0549,0.02014 -0.0122,0.0053 -0.0325,0.01687 -0.036,0.02576 -0.0112,0.01155 0.004,0.01984 0.0509,0.02067 l 1.10806,0.01718 c 0.0129,0 0.0263,-7.6e-4 0.0397,-0.0015 0.58357,0.05928 1.17061,0.08123 1.75666,0.063 0.0359,-7.6e-4 0.0923,-0.0053 0.14223,-0.02143 0.43289,0.03944 0.86802,0.04127 1.30191,0.0046 0.0787,0.699207 0.0846,1.404304 0.0182,2.105117 -0.005,0.04826 0.13081,0.115287 0.16184,0.133784 0.007,0.0038 0.064,0.03352 0.11418,0.05548 -0.0203,1.45605 -0.0497,2.912098 -0.0904,4.367881 -0.0182,0.63673 -0.038,1.27374 -0.0596,1.91047 0,0.009 0.0471,0.0126 0.10947,0.011 -0.002,0.10134 -10e-4,0.20242 0.001,0.30348 -0.0365,0.011 -0.0593,0.0322 -0.0549,0.0667 0.16133,1.2169 0.1251,2.45981 -0.10004,3.66465 -0.0139,0.0737 0.14248,0.13566 0.26287,0.14022 -0.0161,0.78178 -0.0325,1.56328 -0.0489,2.34479 -0.0122,0.30859 -0.0211,0.61744 -0.0258,0.92629 -2.4e-4,0.0156 0.002,0.0295 0.006,0.0432 l -0.0387,1.85444 c -7e-4,0.0378 0.0255,0.0796 0.064,0.1177 -7e-4,0.0603 -0.001,0.12065 -0.003,0.18124 -7.1e-4,0.0917 0.0812,0.29732 0.18071,0.30965 0.22041,0.0268 0.44207,0.0233 0.66001,-0.008 0.1884,0.0134 0.38375,-0.0156 0.56595,-0.0381 0.77146,-0.0957 1.54293,-0.19088 2.31415,-0.28606 0.0315,-0.004 0.0392,-0.0158 0.0471,-0.0499 0.0417,-0.17775 0.076,-0.35684 0.1045,-0.53646 0.0286,-0.005 0.0476,-0.0193 0.0481,-0.0488 0.003,-0.12386 0.006,-0.24772 0.009,-0.37159 0.0717,-0.65657 0.0722,-1.32092 0.0462,-1.98393 0.007,-0.28499 0.0134,-0.56998 0.0201,-0.85497 7e-4,-0.0311 -0.0278,-0.0654 -0.0685,-0.0971 l 0.008,-0.37319 c 0.0916,0.0223 0.18268,-0.0185 0.17648,-0.15791 -0.077,-1.77562 -0.12386,-3.55285 -0.13801,-5.33035 -0.0146,-1.77911 0.003,-3.558211 0.0509,-5.336517 0.0258,-0.956038 0.0616,-1.91128 0.10524,-2.866254 1.20784,-0.0061 2.41543,-0.01231 3.62278,-0.01877 0.0402,-2.66e-4 0.075,-0.01581 0.10152,-0.03997 0.10748,0.01178 0.21347,-0.02196 0.29141,-0.121724 0.004,-0.0061 0.008,-0.01208 0.0119,-0.01824 0.002,2.66e-4 0.004,7.6e-4 0.006,0.0015 0.0621,0.0097 0.15663,-0.06437 0.20379,-0.09732 0.0372,-0.02629 0.11517,-0.07052 0.12709,-0.123328 0.009,-0.01284 0.0146,-0.02652 0.0149,-0.0402 l 0.0102,-0.447195 h -2.5e-4 c 0.0208,-0.915554 0.0414,-1.831382 0.0623,-2.746678"
       style="fill:#000000;fill-opacity:1;fill-rule:nonzero;stroke:none;stroke-width:0.0257969"
       id="path449-5" />
    <path
       d="m 129.86446,32.069011 c -0.0276,0.0809 -0.0598,0.15921 -0.0976,0.23443 -0.0144,0.0207 -0.0277,0.0426 -0.0431,0.0623 -0.0104,0.0133 -0.0219,0.0261 -0.0329,0.0387 -0.004,0.003 -0.007,0.005 -0.0103,0.008 -0.004,-0.004 -0.008,-0.008 -0.0116,-0.0118 -0.0336,-0.0514 -0.063,-0.1054 -0.0891,-0.16225 -0.10749,-1.82312 -0.21517,-3.64646 -0.32304,-5.46958 -0.11717,-1.988 -0.23453,-3.976 -0.3519,-5.96378 l -0.0602,-1.016204 c 0.0112,-0.402152 0.053,-0.801674 0.15193,-1.189394 0.0501,-0.157229 0.10882,-0.308995 0.18155,-0.453099 0.15497,1.626746 0.28942,3.255897 0.40166,4.887237 0.11737,1.70044 0.21118,3.40307 0.28202,5.10723 0.0384,0.92588 0.0706,1.85176 0.0942,2.77808 0.007,0.38663 -1.8e-4,0.77587 -0.0917,1.14982 z m 6.26058,-13.954501 c -0.82592,-0.543414 -1.80149,-0.589993 -2.71704,-0.353818 -0.59443,0.153293 -1.19398,0.426197 -1.70047,0.83797 -0.0131,-0.15001 -0.0258,-0.300028 -0.0389,-0.45025 -0.0234,-0.270077 -0.0291,-0.553484 -0.0885,-0.817428 -0.0883,-0.391215 -0.28715,-0.661938 -0.58911,-0.858747 -0.53118,-0.346387 -1.21276,-0.269851 -1.76578,-0.04742 -0.30936,0.12443 -0.60506,0.334363 -0.85745,0.592181 -0.15876,-0.0671 -0.36291,-0.07676 -0.52111,-0.03108 -0.17871,0.0516 -0.37109,0.141703 -0.49111,0.310522 -0.10654,0.149797 -0.14756,0.290627 -0.13578,0.486561 l 0.12761,2.162287 c -0.004,0.31686 0.007,0.634823 0.0218,0.949933 0.11377,2.47325 0.26607,4.94519 0.39957,7.41734 0.0331,0.61251 0.0663,1.22504 0.0993,1.83756 0.0313,0.58102 0.05,1.16533 0.0967,1.74504 0.0198,0.24645 0.06,0.48875 0.13046,0.71639 0.001,0.0188 0.002,0.0376 0.004,0.0564 0.009,0.14433 0.008,0.29325 0.0256,0.43626 0.0342,0.27947 0.24727,0.4109 0.45085,0.51696 0.20036,0.10452 0.42141,0.17253 0.64038,0.19615 0.53042,0.0571 1.069,-0.0448 1.54796,-0.32168 0.41837,-0.24207 0.80864,-0.56899 1.10015,-0.99541 0.3179,-0.46491 0.51523,-0.99455 0.62974,-1.57077 0.2277,-1.14478 0.0739,-2.35647 -0.0256,-3.50935 -0.10673,-1.23946 -0.21365,-2.47871 -0.32038,-3.71818 -0.0923,-1.06998 -0.18459,-2.14019 -0.2767,-3.209973 0.0332,-0.0341 0.0592,-0.072 0.0682,-0.11525 0.0756,-0.35819 0.21099,-0.691888 0.39387,-0.993222 0.0712,-0.106502 0.14643,-0.20906 0.22828,-0.304846 0.0425,-0.05008 0.0866,-0.0984 0.13179,-0.145412 0.0226,-0.02363 0.0456,-0.04659 0.069,-0.06931 0.0312,-0.0304 0.14641,-0.121807 0.008,-0.01071 0.10805,-0.08682 0.2125,-0.17648 0.32646,-0.253449 0.0146,-0.01003 0.0294,-0.01946 0.0442,-0.02911 0.0538,-0.03131 0.10844,-0.06034 0.16352,-0.08813 -0.0821,0.03937 7e-4,-0.0038 0.0481,-0.02363 0.0175,-0.0083 0.0349,-0.01664 0.0526,-0.02515 -0.0171,0.0083 -0.0317,0.01535 -0.045,0.02189 0.0454,-0.01839 0.0912,-0.0345 0.13712,-0.05077 0.019,-0.0053 0.0379,-0.01026 0.0568,-0.0149 0.0158,-0.0046 0.0317,-0.0076 0.0475,-0.01117 0.0454,-0.0068 0.0906,-0.01178 0.13579,-0.01664 0.0231,-6.24e-4 0.0464,-0.0015 0.0695,-0.0015 0.0329,-2.21e-4 0.0659,6.23e-4 0.0988,0.0015 0.0519,0.0061 0.10388,0.01163 0.15534,0.0206 0.0386,0.0068 0.0771,0.01421 0.11509,0.02272 0.007,0.0015 0.0217,0.0053 0.0363,0.009 0.0207,0.0061 0.0507,0.01505 0.0621,0.019 0.0376,0.01246 0.0746,0.02576 0.11147,0.04051 0.14072,0.05532 0.27613,0.125957 0.40603,0.209264 -0.0198,-0.01246 -0.0393,-0.02515 -0.0592,-0.03807 0.27708,0.177133 0.6607,0.105407 0.94842,-0.01026 0.14053,-0.05685 0.3162,-0.123768 0.4159,-0.257157 0.0469,-0.06255 0.12781,-0.198564 0.0287,-0.263731"
       style="fill:#e2a56d;fill-opacity:1;fill-rule:nonzero;stroke:none;stroke-width:0.0203787"
       id="path713-3" />
    <path
       d="m 153.46023,26.960021 c -0.0117,0.0509 0.13056,0.056 0.27503,0.0488 -0.18542,0.75712 -0.45474,1.48876 -0.84841,2.15016 -0.56272,0.94478 -1.32724,1.73541 -2.21811,2.31369 -1.95125,1.26597 -4.358,1.30538 -6.45993,0.46033 -0.66076,-0.26568 -1.31209,-0.61663 -1.90013,-1.05792 0.0169,-0.0276 0.0156,-0.0568 -0.0176,-0.0869 -0.83873,-0.75631 -1.4156,-1.79868 -1.62881,-2.95633 -0.35223,-3.7164 -0.41528,-7.458533 -0.18096,-11.186721 0.006,-0.09436 -0.0221,-0.19142 -0.0655,-0.28499 0.79902,-0.06566 1.59804,-0.131368 2.39732,-0.197052 -0.0449,2.297344 -0.0206,4.598443 0.0953,6.893373 0.0993,1.96705 0.3567,4.13141 1.76733,5.54457 0.59201,0.59303 1.32674,0.99598 2.14065,1.04933 0.85934,0.0563 1.72191,-0.29597 2.4276,-0.8051 0.73275,-0.52869 1.34982,-1.2362 1.76459,-2.0783 0.44556,-0.90403 0.64811,-1.93836 0.7258,-2.95178 0.0958,-1.24505 0.0312,-2.50753 -0.0492,-3.750973 -0.0712,-1.099751 -0.18319,-2.195737 -0.32715,-3.286905 0.83898,-0.02227 1.67771,-0.04476 2.5167,-0.06703 0.13628,1.48822 0.22191,2.981 0.2517,4.475918 0.0109,0.54987 0.0191,1.10189 0.0161,1.65391 -0.13503,1.38714 -0.3619,2.76464 -0.68236,4.11988 z m 1.81102,-9.812706 c -2.5e-4,-0.114747 -5e-4,-0.229494 -7.1e-4,-0.343976 0,-0.03914 -0.0149,-0.07455 -0.038,-0.107238 -0.005,-0.05472 -0.009,-0.109382 -0.0144,-0.164077 0.25939,-0.31073 0.0665,-1.002961 -0.4036,-0.990361 -1.35851,0.03595 -2.71702,0.07212 -4.07553,0.108311 -0.42347,0.01125 -0.51878,0.468641 -0.38077,0.801083 -0.0345,0.05472 -0.0538,0.10831 -0.0469,0.156302 0.30729,2.117184 0.50538,4.268142 0.51108,6.412672 0.004,1.78554 -0.19311,3.83328 -1.44911,5.14322 -1.09862,1.14558 -2.70088,0.87776 -3.76575,-0.18714 -1.32227,-1.3228 -1.62361,-3.30512 -1.72985,-5.15796 -0.14,-2.449363 -0.15911,-4.911044 -0.10673,-7.364157 0.004,-0.157374 -0.27701,-0.09357 -0.53492,0.05122 -0.12336,-0.104556 -0.26684,-0.197857 -0.39492,-0.1874 -1.19766,0.09866 -2.39532,0.197052 -3.59273,0.295711 -0.0896,0.0076 -0.045,0.107778 0.0234,0.207243 -0.19014,0.09706 -0.34801,0.24746 -0.35521,0.411803 -0.14322,3.229526 -0.11766,6.46683 0.0824,9.69287 0.064,1.03835 0.12536,2.11208 0.47063,3.07885 -0.0191,0.03 -0.0239,0.0654 -0.0102,0.1067 0.59225,1.7708 2.03019,3.03837 3.62525,3.69629 1.95722,0.80752 4.14926,0.70618 6.15115,0.15067 1.84949,-0.51341 3.75831,-1.32065 4.80828,-3.14748 0.88887,-1.5464 1.1294,-3.41666 1.20536,-5.2022 0.0375,-0.88017 0.0355,-1.76196 0.0312,-2.6432 0.12088,-1.601893 0.11839,-3.213703 -0.009,-4.817741"
       style="fill:#617e83;fill-opacity:1;fill-rule:nonzero;stroke:none;stroke-width:0.0257969"
       id="path943" />
    <path
       d="m 167.33902,28.175881 c -0.76452,-2.73541 -2.64975,-5.12042 -4.46151,-7.49444 -1.01572,-1.330587 -2.75028,-3.315058 -2.59415,-5.064944 0.10748,-0.186062 0.22538,-0.369708 0.36613,-0.547191 0.13578,-0.17078 0.006,-0.210457 -0.1683,-0.204286 0.20007,-0.43325 0.55403,-0.842104 1.11029,-1.210202 0.30209,-0.199734 0.6146,-0.276141 0.95292,-0.414219 0.001,-5.32e-4 0.001,-5.32e-4 0.003,-7.6e-4 -0.009,-0.0038 -0.0181,-0.0068 -0.0278,-0.01368 0.008,0.0053 0.0213,0.0081 0.0305,0.01284 0.15092,-0.05928 0.11244,0.02865 0.0253,0.01041 0.0678,0.02949 0.15166,0.05145 0.21371,0.08097 0.6223,0.297322 0.98172,0.853898 1.222,1.363289 0.51555,1.093303 0.8854,2.674294 -0.11195,3.720951 -0.33485,0.351742 1.71445,0.63486 2.08033,0.250675 0.92313,-0.968912 0.76998,-2.186082 0.45127,-3.253123 -0.29315,-0.981512 -0.8241,-1.977502 -2.05874,-2.461418 -1.34958,-0.52896 -3.2214,-0.467296 -4.51116,0.2429 -0.90824,0.500537 -1.46797,1.216365 -1.66282,2.00002 -0.0333,0.0053 -0.0588,0.01444 -0.0757,0.02789 -0.29762,-0.0046 -0.52027,0.01155 -0.53244,0.05844 -0.1601,0.609121 -0.22315,1.224407 -0.19956,1.834068 -0.0112,0.111259 -0.0169,0.222252 -0.0174,0.333245 -0.0223,0.223597 -0.0447,0.447461 -0.067,0.671058 -0.003,0.02842 0.0531,0.05472 0.14173,0.07855 0.0166,0.07667 0.0442,0.151211 0.0658,0.226812 0.0154,0.659796 0.19113,1.310737 0.52623,1.914502 0.19535,0.630033 0.48403,1.243713 0.83923,1.820403 1.46202,2.37374 3.88019,4.3349 5.07983,6.81455 0.67069,1.38688 0.93281,2.8826 0.35347,4.35528 -0.0496,0.12547 0.10723,0.13592 0.2996,0.10884 -0.46616,0.6354 -1.16043,1.15069 -2.17267,1.33245 -1.50273,0.26944 -2.61202,-1.14827 -2.74159,-2.08259 -0.0678,-0.48714 -2.23002,-0.45094 -2.18012,-0.0911 0.35197,2.53621 4.3781,3.43542 7.24679,2.43675 3.32193,-1.15632 3.18268,-4.68155 2.57479,-6.85664"
       style="fill:#ebc532;fill-opacity:1;fill-rule:nonzero;stroke:none;stroke-width:0.0257969"
       id="path435-5" />
    <path
       d="m 172.10446,20.592441 c -0.002,0.005 -0.004,0.009 -0.006,0.0129 0,-0.004 0,-0.008 0,-0.0112 0.002,-5.3e-4 0.004,-7.6e-4 0.006,-0.002 z m 0.48155,-3.595485 c 0.01,0 0.0196,-2.66e-4 0.0293,-2.66e-4 0.007,-2.73e-4 0.0144,-2.73e-4 0.0218,-2.73e-4 0.006,0.11743 0.0333,0.237003 -0.0241,0.358187 -7e-4,-0.0015 -7e-4,-0.003 -0.001,-0.0046 -0.0578,-0.118501 -0.0291,-0.237003 -0.0253,-0.353088 z m 0.0554,-2.565178 v 0 0 c 0.006,0.05335 0.0124,0.106167 0.0616,0.136467 -0.004,0.06406 -0.003,0.128146 -0.001,0.192226 0.005,0.219038 0.0229,0.439147 -0.0286,0.65443 -0.006,0.02736 -0.0129,0.05472 -0.0218,0.08177 0,0 0,0 0,-2.66e-4 v 0 c -0.003,0.06353 -0.006,0.126815 -0.009,0.189817 -7e-4,0.163271 -0.001,0.32601 -0.002,0.489015 -4.9e-4,0.142623 -7e-4,0.285256 -0.001,0.427621 -0.004,0 -0.009,0 -0.0134,2.66e-4 -0.0129,0 -0.0255,2.66e-4 -0.0382,2.66e-4 0.001,-0.305365 0.003,-0.610735 0.004,-0.916097 2.4e-4,-0.131102 2.4e-4,-0.262203 4.9e-4,-0.393571 v 0 c 0.008,-5.32e-4 0.0159,7.6e-4 0.0239,0.0015 0.008,5.39e-4 0.0164,0 0.0243,0.0015 -0.007,-0.111799 0.0437,-0.233515 -0.0499,-0.329758 v 0 c 0.0112,-0.179359 -0.0494,-0.366759 0.0519,-0.535662 z m -0.0507,3.498166 c 0,0.01368 0,0.02546 0,0.03838 -0.0261,0.01049 0,-0.04856 -0.003,-0.07425 0.005,0.01824 0.009,0.03541 0.0119,0.05229 -0.003,-0.0053 -0.005,-0.01049 -0.009,-0.01634 z m 2.6083,12.510587 c 0,2.7e-4 0,2.7e-4 0,5.4e-4 -0.009,-0.004 -0.0161,-0.0121 -0.0208,-0.0217 0.007,0.008 0.0139,0.0142 0.0208,0.0212 z m -1.46078,-8.19499 c 0,-0.002 0,-0.005 0,-0.006 7e-4,5.4e-4 0.002,7.6e-4 0.003,7.6e-4 -0.001,0.002 -0.001,0.004 -0.003,0.005 z m 0.10276,-0.46381 c 2.5e-4,-7.6e-4 2.5e-4,-0.002 4.9e-4,-0.003 -2.4e-4,0.002 -2.4e-4,0.005 -4.9e-4,0.008 0,-0.002 0,-0.003 0,-0.005 z m 5.6629,7.32367 c -0.0596,-0.57722 -0.41999,-1.09143 -1.0676,-1.04613 -0.17102,0.0118 -0.34304,7.6e-4 -0.51456,0.005 -0.2445,0.006 -0.39418,0.137 -0.44332,0.40081 -0.0941,0.50269 -0.16482,1.00779 -0.16308,1.522 0,2.7e-4 0,2.7e-4 0,2.7e-4 v 0 c -0.0799,0.42547 -0.17823,0.84532 -0.30978,1.25658 -0.0856,0.26971 -0.25219,0.40188 -0.5101,0.43057 -0.36959,0.041 -0.64214,-0.14022 -0.86504,-0.4295 -0.11344,-0.14718 -0.20628,-0.3134 -0.30854,-0.47105 7e-4,-0.12814 -0.0476,-0.23512 -0.12039,-0.3319 -0.0176,-0.13432 -0.045,-0.26435 -0.12758,-0.37266 0,2.7e-4 0,2.7e-4 0,2.7e-4 -0.0928,-0.0759 -0.0149,-0.19277 -0.0583,-0.28017 -0.005,-0.13887 -0.003,-0.27828 -0.0385,-0.41234 -0.004,-0.0223 -0.009,-0.0442 -0.0187,-0.0657 -2.5e-4,-7.6e-4 -2.5e-4,-0.002 -7e-4,-0.002 0.0134,-0.015 0.0137,-0.0303 0.001,-0.0456 0.002,-0.10912 0.0102,-0.21797 0.006,-0.32655 -0.0675,-1.65632 -0.13354,-3.31264 -0.20577,-4.96869 -0.0643,-1.48152 -0.1323,-2.96277 -0.20503,-4.443746 -0.025,-0.509117 -0.0338,-0.508585 0.45027,-0.505637 0.0606,5.4e-4 0.12113,0.0015 0.1817,0 0.49445,-0.01337 0.98916,-0.02979 1.48361,-0.04073 0.2033,-0.0046 0.38548,-0.06999 0.37804,-0.31743 -0.007,-0.245576 -0.1951,-0.300005 -0.39591,-0.297862 -0.35346,0.003 -0.70693,0.003 -1.06065,0.003 -0.35346,5.4e-4 -0.70544,-0.02523 -1.05518,-0.08284 v 0 c 0.0112,-0.784194 0.0253,-1.568389 0.0325,-2.352578 0.008,-0.882587 0.0117,-1.765432 0.0136,-2.64802 7.1e-4,-0.274796 -0.0911,-0.526277 -0.35669,-0.572118 -0.46417,-0.0807 -0.93629,-0.128692 -1.40318,0.0076 v 0 c -0.24723,0.01634 -0.58109,-0.08874 -0.5935,0.341825 -0.0234,0.811804 -0.15216,1.6161 -0.13752,2.429781 v 0 0 c -0.0576,0.15523 -0.0417,0.319839 -0.0484,0.480967 -0.0313,0.755242 -0.0601,1.510748 -0.0896,2.266253 -2.5e-4,0 -2.5e-4,2.66e-4 -2.5e-4,2.66e-4 -0.5796,0.01208 -1.16142,-0.05016 -1.73779,0.06384 v 0 c -0.0804,0.0046 -0.1611,0.0093 -0.24152,0.01452 -0.0894,-0.01824 -0.17425,-0.0015 -0.2574,0.03564 -0.0755,0.03374 -0.1472,0.07641 -0.14944,0.174261 -0.003,0.110727 0.0556,0.174807 0.16036,0.184185 v 0 c 0.0896,0.07828 0.19857,0.0646 0.30283,0.07319 v 0 c 0.099,0.07641 0.21347,0.05145 0.32244,0.05305 0.45399,0.0061 0.90823,0.01687 1.36223,0.0081 0.2013,-0.0038 0.25815,0.07802 0.25442,0.28821 -0.034,1.864093 0.0174,3.727653 0.0789,5.590143 0.0218,0.6622 0.0154,1.32709 0.10251,1.98582 0.0124,0.99464 0.16159,1.96757 0.36092,2.93783 0.15687,0.76274 0.38449,1.485 0.79182,2.13407 v 2.6e-4 c 0.1179,0.21261 0.23555,0.42548 0.35346,0.63808 0.0846,0.17775 0.19858,0.32306 0.37581,0.3984 0.30457,0.39464 0.70867,0.60027 1.16316,0.70912 0.13081,0.002 0.26162,0.003 0.39244,0.004 0.0879,7.6e-4 0.17548,0.002 0.26311,0.003 0.10549,7.6e-4 0.21074,0.002 0.31598,0.003 v 0 0 c 0.24723,-0.0611 0.50786,-0.0354 0.75012,-0.13191 0,0 0,0 2.5e-4,0 0.16234,0.0113 0.32467,0.022 0.47509,-0.0673 0.31947,-0.0201 0.60194,-0.17695 0.89335,-0.29358 0.55229,-0.22064 0.87423,-0.67453 1.04401,-1.26864 0.3629,-0.86543 0.2661,-1.77482 0.17401,-2.66866"
       style="fill:#617e83;fill-opacity:1;fill-rule:nonzero;stroke:none;stroke-width:0.0257969"
       id="path443-6" />
  </g>
</svg>
