<?xml version="1.0" encoding="UTF-8" standalone="no"?>
<!-- Created with Inkscape (http://www.inkscape.org/) -->

<svg
   width="88.733627mm"
   height="47.812881mm"
   viewBox="0 0 88.733627 47.812881"
   version="1.1"
   id="svg9044"
   inkscape:version="1.1.1 (1:1.1+202109281949+c3084ef5ed)"
   sodipodi:docname="title-team.svg"
   xmlns:inkscape="http://www.inkscape.org/namespaces/inkscape"
   xmlns:sodipodi="http://sodipodi.sourceforge.net/DTD/sodipodi-0.dtd"
   xmlns="http://www.w3.org/2000/svg"
   xmlns:svg="http://www.w3.org/2000/svg">
  <sodipodi:namedview
     id="namedview9046"
     pagecolor="#ffffff"
     bordercolor="#666666"
     borderopacity="1.0"
     inkscape:pageshadow="2"
     inkscape:pageopacity="0.0"
     inkscape:pagecheckerboard="0"
     inkscape:document-units="mm"
     showgrid="false"
     inkscape:zoom="0.71090067"
     inkscape:cx="-23.209993"
     inkscape:cy="-341.8199"
     inkscape:window-width="1920"
     inkscape:window-height="1043"
     inkscape:window-x="1920"
     inkscape:window-y="0"
     inkscape:window-maximized="1"
     inkscape:current-layer="layer1" />
  <defs
     id="defs9041" />
  <g
     inkscape:label="Layer 1"
     inkscape:groupmode="layer"
     id="layer1"
     transform="translate(-111.20487,-238.85296)">
    <path
       d="m 128.21793,254.22701 c -0.14193,0.34114 -1.17228,0.60996 -1.44929,0.38065 -0.11617,-0.0956 -0.0654,-0.21625 -0.0386,-0.33126 0.52115,-2.21474 0.98664,-4.44394 1.58679,-6.63716 0.31694,-1.15888 0.64643,-2.34774 1.39185,-3.34434 0.11007,-0.1471 0.0684,-0.32808 0.11536,-0.57008 0.58032,0.39475 0.63958,0.92709 0.6671,1.45097 0.0847,1.64924 -0.32526,3.22545 -0.75106,4.79602 -0.39511,1.45768 -0.94227,2.86279 -1.5222,4.2552 z m -0.7637,1.73708 c -0.4531,0.9772 -0.92396,1.94592 -1.38948,2.91783 -0.12609,-0.0758 -0.0937,-0.20638 -0.11092,-0.31997 0.0838,-0.9017 0.3077,-1.77906 0.47266,-2.66665 0.0476,-0.25329 0.87686,-0.54575 1.07805,-0.38276 0.18672,0.15169 0.0103,0.32067 -0.0503,0.45155 z m -1.29674,22.83213 c -0.0342,0.0321 -0.0679,0.0639 -0.10195,0.096 -0.46785,-0.19085 -0.83234,-0.52705 -1.19892,-0.85866 -0.2946,-0.266 0.10915,-0.58067 -0.05,-0.87666 0.50712,0.51153 0.84543,1.14477 1.35089,1.63936 z m 1.57399,-0.12664 c 0.0363,-0.0868 0.11853,-0.0893 0.19294,-0.10584 0.16675,0.007 0.33319,0.0127 0.49995,0.0194 0,0 0,0 0,3.5e-4 0.002,0.16721 0.003,0.33408 0.004,0.5013 -0.34756,0.055 -0.43437,-0.32738 -0.6973,-0.41522 z m -3.51977,-6.48759 c -4.2e-4,0 -4.2e-4,0 -4.2e-4,0 -0.0313,-10e-4 -0.0627,-0.003 -0.094,-0.005 -0.0707,-0.31997 -0.14164,-0.64029 -0.21262,-0.96026 0.25079,0.28999 0.31252,0.61948 0.30702,0.9652 z m -0.83894,-15.881 c -0.0961,0.55457 -0.12569,1.12113 -0.29492,1.66265 v 0 c -0.0313,0.20884 0.0503,0.43568 -0.10195,0.62441 v 0 c -0.004,0.0628 -0.008,0.12559 -0.0113,0.18803 v 0 c -0.0572,1.08374 -0.2928,2.13889 -0.51717,3.19546 0,0 0,0 4.2e-4,0 -0.0362,0.27411 -0.0724,0.54822 -0.10816,0.82198 -0.0335,-0.0709 -0.0669,-0.14147 -0.10033,-0.21238 -2.8e-4,7.1e-4 -2.8e-4,10e-4 -7.1e-4,10e-4 4.3e-4,-3.5e-4 4.3e-4,-7e-4 7.1e-4,-10e-4 0.0369,-0.27587 -0.0719,-0.56938 0.10128,-0.82797 0.0858,-1.14793 0.24875,-2.28458 0.51538,-3.40465 4.2e-4,0 4.2e-4,0 4.2e-4,0 -0.003,-0.0289 2.8e-4,-0.0575 0.01,-0.0854 -0.0213,-0.24765 0.041,-0.48189 0.11261,-0.71472 0.0654,-0.45967 0.12195,-0.92075 0.29351,-1.35749 v 0 c 0.0245,-0.11959 -0.0464,-0.27058 0.12954,-0.36125 0.0948,0.17075 -0.0496,0.31856 -0.0289,0.47131 z m 12.8881,-2.22038 c -0.26846,-0.0914 -0.54645,-0.0459 -0.8188,-0.0279 -1.94909,0.12912 -3.89819,0.26035 -5.84623,0.40217 -0.39052,0.0286 -0.49706,-0.0579 -0.32385,-0.44944 0.47731,-1.08338 0.86678,-2.20204 1.19945,-3.33763 0.56021,-1.91241 1.01106,-3.8414 0.86853,-5.86282 -0.0688,-0.97684 -0.50694,-1.64112 -1.34972,-1.90994 -0.003,-0.0325 -0.005,-0.0649 -0.004,-0.0974 -0.24094,0 -0.48154,0 -0.72249,0 7.1e-4,0.0328 -7e-4,0.0656 -0.004,0.0984 v 0 c -0.61137,0.14464 -1.08367,0.52423 -1.48608,0.96944 -0.99466,1.10066 -1.75602,2.36608 -2.47149,3.6576 -1.19793,2.16182 -1.96067,4.48698 -2.54593,6.87528 -0.0879,0.35913 -0.17501,0.58914 -0.64742,0.59302 -0.83604,0.007 -1.67251,0.11289 -2.5069,0.19826 -1.60102,0.16299 -3.20118,0.33303 -4.81048,0.38418 -0.54667,0.0173 -1.09651,0.048 -1.63986,-0.0857 -0.23219,-0.0572 -0.46506,-0.002 -0.52983,0.27482 -0.0641,0.27128 0.11476,0.40993 0.34244,0.49318 0.0792,0.0289 0.16605,0.0381 0.24984,0.0547 1.336,0.25929 2.66925,0.0296 4,-0.0448 1.57166,-0.0878 3.13987,-0.23883 4.70878,-0.37253 0.39204,-0.0332 0.46369,0.11465 0.38833,0.47872 -0.66671,3.22086 -1.14861,6.4643 -1.22234,9.76136 -0.0145,0.65052 -0.0806,1.27035 -0.53163,1.86831 -1.33767,1.77482 -2.76737,3.4477 -4.50688,4.84258 -0.94767,0.75988 -1.82591,1.62242 -3.0117,2.02671 -0.30484,0.10336 -0.64795,0.31714 -0.935,0.1397 -0.35444,-0.21908 -0.60936,-0.10619 -0.89874,0.0579 0,0.13759 0,0.27517 0,0.41275 0.44193,0.40887 0.94393,0.48613 1.52435,0.34361 0.6422,-0.15734 1.26436,-0.36724 1.79808,-0.74542 2.14905,-1.52047 4.18676,-3.16653 5.78019,-5.29661 0.23523,-0.31467 0.43547,-0.66781 0.77749,-0.93944 0.0889,1.45203 0.1881,2.8522 0.44164,4.23474 0.40076,2.18123 1.12173,4.18959 2.84635,5.73723 1.75398,1.57339 3.41934,1.78505 5.43536,0.5789 1.03117,-0.617 1.71414,-1.56598 2.41829,-2.49519 1.17087,-1.54482 1.63442,-3.33446 1.78999,-5.22641 0.0247,-0.2995 -0.0579,-0.55915 -0.40322,-0.61595 -0.31433,-0.0511 -0.48049,0.1517 -0.57291,0.41064 -0.13794,0.38699 -0.29845,0.77364 -0.3736,1.17439 -0.36618,1.94875 -1.66087,3.23921 -3.14148,4.36175 -1.07509,0.81562 -1.95125,0.62406 -2.62784,-0.4893 -1.20855,-1.98791 -1.62913,-4.21041 -1.74047,-6.48477 -0.0995,-2.0387 -0.0533,-4.08269 0.0789,-6.12351 0.0593,-0.91193 0.15985,-1.77412 0.62357,-2.60879 0.99244,-1.78541 1.82312,-3.65513 2.66249,-5.5178 0.11077,-0.24659 0.23036,-0.38806 0.51999,-0.40076 2.26025,-0.0995 4.50921,-0.37782 6.77298,-0.42262 0.15205,-0.003 0.3041,-0.0459 0.45438,-0.0766 0.21378,-0.043 0.32562,-0.16968 0.32491,-0.39546 -7.1e-4,-0.23107 -0.14393,-0.33902 -0.33373,-0.40358"
       style="fill:#d8673f;fill-opacity:1;fill-rule:nonzero;stroke:none;stroke-width:0.0352778"
       id="path445" />
    <path
       d="m 121.30817,239.38459 c 0.60043,-0.12911 1.22372,-0.12241 1.81515,-0.29774 0.1403,-0.0413 0.36107,0.004 0.38037,-0.23389 -0.14087,0.11324 -0.32068,0.10442 -0.4826,0.15204 -0.56265,0.16475 -1.17588,0.10055 -1.71292,0.37959"
       style="fill:#617e83;fill-opacity:1;fill-rule:nonzero;stroke:none;stroke-width:0.0352778"
       id="path479" />
    <path
       d="m 171.70165,275.60299 c -0.84737,0.0201 -1.69545,0.0529 -2.54141,0.10407 -2.89313,0.17462 -5.78697,0.33373 -8.68292,0.45508 -1.28976,0.054 -2.57951,0.11536 -3.86856,0.18309 -0.24942,0.013 -0.28258,-0.0399 -0.17216,-0.26564 2.13396,-4.36774 4.28202,-8.72913 6.38387,-13.1124 1.19874,-2.49907 2.32022,-5.0359 3.47662,-7.55509 0.0522,-0.11394 0.11183,-0.22436 0.20355,-0.40745 0.15346,0.33655 0.19227,0.62371 0.26141,0.9024 1.48802,5.97817 3.03812,11.94012 4.71311,17.8689 0.14076,0.49918 0.29528,0.99484 0.45862,1.48731 0.0787,0.23707 0.0476,0.33303 -0.23213,0.33973 z m 1.56598,0.34713 c 3.5e-4,0 3.5e-4,0 3.5e-4,0 -0.0991,-0.12982 -0.14252,-0.27516 -0.12488,-0.43815 0,-3.5e-4 -3.6e-4,-7e-4 -3.6e-4,-0.001 -0.12735,-0.27093 -0.19896,-0.55703 -0.22648,-0.85478 v 0 0 c 0,3.5e-4 3.5e-4,7.1e-4 7.1e-4,0.001 -0.10972,-0.21519 -0.15029,-0.44626 -0.15558,-0.68545 l 0.004,0.005 c 0,0 0,0 0,-3.5e-4 -0.17357,-0.52246 -0.31609,-1.05269 -0.3877,-1.6002 l 0.004,0.006 c 0,0 0,0 0,-3.5e-4 -0.14535,-0.26035 -0.17639,-0.55527 -0.25188,-0.83679 -0.0755,-0.0843 -0.0533,-0.18732 -0.055,-0.2854 0,-3.5e-4 0,-3.5e-4 0,-7e-4 -0.10795,-0.16792 -0.12524,-0.36442 -0.17322,-0.55139 -0.0765,-0.084 -0.0526,-0.18768 -0.0554,-0.28611 v 0 0 c -0.12488,-0.27269 -0.20038,-0.5588 -0.23072,-0.85689 0.001,3.5e-4 0.002,0.001 0.004,0.002 -0.13864,-0.26247 -0.20108,-0.54646 -0.23318,-0.83856 l 0.004,0.005 v 0 c -0.11959,-0.15733 -0.12453,-0.35242 -0.17427,-0.53304 v 0 c -0.0769,-0.0843 -0.0533,-0.18803 -0.0557,-0.28681 0,0 0,0 0,-3.5e-4 -0.0988,-0.17145 -0.14676,-0.35737 -0.1524,-0.55457 10e-4,0.001 0.002,0.002 0.002,0.003 -0.13512,-0.26035 -0.19403,-0.54222 -0.23848,-0.82868 0,-3.5e-4 3.5e-4,-3.5e-4 3.5e-4,-3.5e-4 l -3.5e-4,3.5e-4 c -0.1009,-0.1651 -0.121,-0.35524 -0.16651,-0.53728 -0.0751,-0.0843 -0.054,-0.18697 -0.055,-0.28575 l -3.6e-4,-3.5e-4 c -0.0984,-0.1718 -0.14675,-0.35772 -0.15169,-0.55527 h -3.5e-4 c 0,0 0,0 3.5e-4,0 v 0 c 3.5e-4,3.5e-4 7.1e-4,7e-4 0.001,10e-4 -0.11359,-0.15875 -0.12418,-0.35031 -0.17216,-0.52987 -0.11606,-0.36901 -0.26317,-0.72955 -0.2868,-1.12184 v -3.5e-4 c -0.0981,-0.1718 -0.14782,-0.35701 -0.15276,-0.55421 3.6e-4,3.5e-4 7.1e-4,0.001 0.001,0.001 -0.1143,-0.15805 -0.12312,-0.35031 -0.17392,-0.52952 -0.0653,-0.16898 -0.12841,-0.33832 -0.12911,-0.52317 0,-3.6e-4 0,-3.6e-4 0,-3.6e-4 -0.0988,-0.16827 -0.14746,-0.35101 -0.15452,-0.54539 3.5e-4,7.1e-4 7.1e-4,0.001 0.001,0.002 -0.10548,-0.16157 -0.14429,-0.3429 -0.15416,-0.53199 7e-4,7.1e-4 0.002,0.001 0.003,0.002 -0.11607,-0.15804 -0.12594,-0.35172 -0.17569,-0.53163 -0.18027,-0.60714 -0.39123,-1.20545 -0.50729,-1.83057 -0.054,-0.0663 -0.0903,-0.13864 -0.0713,-0.22789 -0.0134,-0.019 -0.0162,-0.0392 -0.009,-0.061 v 0 0 c -0.10689,-0.16263 -0.12982,-0.35349 -0.17851,-0.53552 -3.5e-4,0 -3.5e-4,0 -3.5e-4,0 -0.012,-0.0293 -0.024,-0.0586 -0.0356,-0.0878 -0.005,-0.0444 -0.01,-0.0885 -0.0152,-0.133 0,-3.5e-4 0,-3.5e-4 0,-3.5e-4 -0.10054,-0.16898 -0.14887,-0.35313 -0.15451,-0.54892 7e-4,0.001 0.001,0.002 0.002,0.003 -0.10548,-0.16263 -0.1517,-0.3422 -0.15628,-0.53446 0.001,10e-4 0.003,0.003 0.004,0.004 -0.12595,-0.24024 -0.20885,-0.49319 -0.23072,-0.76482 l 0.003,0.005 v 0 0 c -0.10866,-0.16263 -0.15452,-0.34326 -0.15734,-0.53693 0.001,0.002 0.002,0.003 0.004,0.005 -0.19932,-0.44274 -0.30868,-0.91405 -0.44521,-1.37689 -0.20672,-0.30516 -0.4519,-0.41699 -0.77187,-0.15417 v 0 c -0.0487,0.0519 -0.0974,0.10372 -0.1457,0.15558 v 0 c -0.0483,0.10124 -0.0967,0.20179 -0.14464,0.30268 v 0 0 c 0,0 0,0 0,3.5e-4 -0.35525,0.90311 -0.7627,1.78012 -1.29787,2.59292 -0.30762,0.49671 -0.48507,1.06327 -0.82127,1.54481 v 0 c -0.002,0.14041 -0.0889,0.24236 -0.15804,0.35243 -0.25329,0.50765 -0.50588,1.01529 -0.75918,1.52294 0,3.5e-4 0,3.5e-4 0,3.5e-4 -0.0512,0.1009 -0.1023,0.20179 -0.15346,0.30269 -0.23495,0.49882 -0.44838,1.00859 -0.75141,1.47284 v 0 c -0.0519,0.14253 -0.10407,0.2847 -0.15628,0.42687 v 0 0 c -0.0413,0.25294 -0.1517,0.47307 -0.31292,0.66957 -0.12382,0.25858 -0.24835,0.51682 -0.37218,0.7754 v 0 0 c -0.0159,0.20073 -0.0963,0.37218 -0.2346,0.51753 -0.14887,0.30903 -0.29774,0.61807 -0.44696,0.92675 0,3.5e-4 0,3.5e-4 0,3.5e-4 v 0 0 c -0.0628,0.30621 -0.19968,0.5775 -0.38806,0.82479 -0.14887,0.30833 -0.2981,0.61666 -0.44732,0.92463 v 0 c 0,3.6e-4 0,3.6e-4 0,3.6e-4 -0.0617,0.30727 -0.19862,0.57926 -0.38771,0.82691 -0.0988,0.20637 -0.19755,0.41239 -0.29668,0.61842 v 0 3.5e-4 c -0.0402,0.25435 -0.14393,0.47942 -0.31009,0.67522 -0.0734,0.15522 -0.14676,0.31044 -0.22014,0.46531 0,0 0,0 0,3.5e-4 -0.0166,0.20215 -0.0949,0.37677 -0.2353,0.52317 -0.073,0.15487 -0.1464,0.3101 -0.21907,0.46496 0,0 -3.6e-4,0 -3.6e-4,3.6e-4 -0.0166,0.20214 -0.0956,0.37676 -0.23601,0.52317 -0.0988,0.20602 -0.1972,0.41204 -0.29562,0.61806 v 0 0 c -0.0413,0.25436 -0.145,0.47978 -0.31186,0.67593 -0.0483,0.10442 -0.0967,0.20884 -0.14464,0.31326 v 0 c -0.0342,0.25859 -0.15134,0.48119 -0.29986,0.68968 v 0 c 0,3.6e-4 0,3.6e-4 0,3.6e-4 l 3.5e-4,-3.6e-4 c -3.5e-4,3.6e-4 -3.5e-4,3.6e-4 -3.5e-4,7.1e-4 -0.18097,0.5528 -0.40358,1.08796 -0.68439,1.59808 7.1e-4,-3.5e-4 10e-4,-10e-4 0.002,-10e-4 v 0 0 c -0.008,0.14535 -0.0557,0.27411 -0.15946,0.37924 -0.0332,0.15134 -0.0907,0.28892 -0.21872,0.38629 -0.15099,0.34325 -0.30586,0.68439 -0.45226,1.0294 -0.0646,0.15135 -0.0907,0.31327 -0.0797,0.47908 -7.1e-4,-3.6e-4 -7.1e-4,-10e-4 -0.002,-10e-4 0.16086,0.17709 0.35524,0.2293 0.59901,0.23742 0.78917,0.0272 1.57727,0.0878 2.36573,0.13582 -0.005,0.005 -0.009,0.0109 -0.0134,0.0162 3.6e-4,0 7.1e-4,0 7.1e-4,0 l 0.0127,-0.0162 c 0.58032,3.5e-4 1.16099,10e-4 1.74131,0.002 0.14535,-7.1e-4 0.29034,-10e-4 0.43498,-0.002 0.37218,-0.0938 0.75177,-0.0416 1.12712,-0.0497 0.86995,-0.0183 1.7399,-0.0205 2.6102,-0.0293 0.14182,-0.0762 0.29634,-0.0409 0.44521,-0.0469 0.96943,-0.0374 1.93922,-0.0713 2.90865,-0.10619 v 0 c 0.0187,-0.0113 0.0367,-0.0106 0.0547,0.002 0.0624,-0.0219 0.12524,-0.0374 0.18698,-0.0335 0.42333,-0.0621 0.8516,-0.0325 1.27776,-0.0434 0.0194,-0.0113 0.0388,-0.012 0.0589,-10e-4 0.61136,-0.0956 1.22766,-0.0688 1.84326,-0.0787 v 0 c 0.018,-0.0102 0.0367,-0.0102 0.0554,-3.5e-4 h -3.5e-4 c 0.33196,-0.0977 0.67345,-0.0328 1.00965,-0.0582 0.23812,-0.018 0.47978,-0.007 0.71402,-0.0444 0.64594,-0.1016 0.81386,-0.3616 0.69109,-1.02765"
       style="fill:#7b79cd;fill-opacity:1;fill-rule:nonzero;stroke:none;stroke-width:0.0352778"
       id="path911" />
    <path
       d="m 171.50586,274.96587 c -0.30974,-1.31656 -0.7112,-2.61055 -0.93945,-3.94688 -0.2734,-1.60125 -0.49707,-3.21239 -0.90629,-4.78684 -0.5521,-2.12513 -1.12994,-4.24356 -1.6704,-6.37187 -0.36583,-1.44004 -0.71014,-2.88431 -1.30034,-4.25238 -0.0815,-0.18945 -0.1524,-0.47202 -0.34995,-0.48084 -0.14147,-0.006 -0.19439,0.29457 -0.27305,0.4639 -0.97261,2.08704 -1.8983,4.19559 -2.80812,6.31155 -0.85371,1.98473 -1.7533,3.94935 -2.62043,5.92808 -1.01952,2.32727 -2.03094,4.65808 -3.11679,6.95466 -0.27375,0.5782 -0.47307,1.19063 -0.78987,1.74943 -0.0646,0.11359 -0.14287,0.2794 0.11042,0.24024 0.53869,-0.0833 1.08021,-0.0116 1.47073,-0.0395 0.84138,-0.0166 1.53459,-0.0494 2.22603,-0.0586 2.82151,-0.0385 5.64409,0.005 8.46455,-0.10301 0.83361,-0.0317 1.66617,-0.0811 2.50049,-0.0624 0.22119,0.005 0.31009,-0.0819 0.26775,-0.29351 -0.0829,-0.4184 -0.16721,-0.83679 -0.26528,-1.25201"
       style="fill:#b3b2e9;fill-opacity:1;fill-rule:nonzero;stroke:none;stroke-width:0.0352778"
       id="path913" />
    <path
       d="m 187.85104,267.4353 c -0.0632,-0.42722 -0.26811,-0.8322 0.33197,-1.18534 0.0589,0.55528 -0.0519,0.87207 -0.33197,1.18534 z m -10.13249,-11.10792 c -0.17073,-0.89323 0.003,-1.75048 0,-2.61408 0,0.87171 0,1.74272 0,2.61408 z m 21.60836,-6.56202 c -0.51471,-1.79846 -1.95757,-2.43346 -3.62162,-1.57691 -1.0153,0.52281 -1.83551,1.28869 -2.54529,2.18475 -1.50284,1.89653 -2.46874,4.07988 -3.40431,6.28156 -0.0381,0.35313 0.042,0.76341 -0.44521,0.91934 -0.242,-0.39264 -0.12594,-0.80927 -0.13264,-1.21144 -0.39335,-1.63583 -0.42968,-3.3528 -1.11654,-4.9216 -0.7359,-1.68169 -2.32516,-2.1269 -3.79695,-1.03223 -1.06927,0.79516 -1.89971,1.80516 -2.50613,2.99826 -0.36478,0.71861 -0.7553,1.42416 -1.2947,2.43628 0,-2.12584 0.01,-3.86327 -0.002,-5.60035 -0.0113,-1.57091 -0.54398,-2.31351 -1.62701,-2.31563 -1.82633,-0.004 -4.33846,1.55328 -4.32647,2.68358 7.1e-4,0.0938 0.0127,0.18733 0.0247,0.28046 0.64876,5.10575 1.25871,10.2168 1.96003,15.3155 0.49072,3.56905 1.05481,7.13069 1.68805,10.67752 0.29174,1.63477 1.39241,1.99214 2.79929,1.07844 2.19675,-1.42663 2.39536,-2.09797 1.89653,-5.1308 -0.55562,-3.38067 -0.9144,-6.79414 -0.69144,-10.22209 0.14464,-2.22532 0.81774,-4.34375 1.80516,-6.51474 0.45403,0.5789 0.33197,1.06468 0.38136,1.51482 0.38841,3.5553 0.24976,7.12541 0.3175,10.68988 0.0402,2.10008 0.68368,2.72344 2.92382,2.93581 1.71591,0.16263 2.63031,-0.53093 2.89701,-2.48567 0.38171,-2.79964 1.17793,-5.49734 1.88771,-8.21267 0.45227,-1.7272 0.91829,-3.49567 2.00978,-4.98051 0.44027,0.2286 0.3676,0.5401 0.37783,0.80609 0.17921,4.55895 -0.38524,9.08086 -0.68968,13.61546 -0.17569,2.61867 -0.50236,5.22746 -0.46602,7.85989 0.01,0.73625 0.23353,1.41852 0.99095,1.48661 1.44357,0.12947 2.89772,0.0296 4.15466,-0.84102 0.30798,-0.21343 0.60855,-0.56339 0.52635,-0.94686 -0.25612,-1.19309 0.26494,-2.30611 0.28081,-3.46322 0.0878,-6.42867 0.56586,-12.85452 0.24871,-19.2846 -0.0829,-1.67499 -0.0342,-3.38278 -0.50377,-5.02391"
       style="fill:#e2a56d;fill-opacity:1;fill-rule:nonzero;stroke:none;stroke-width:0.0352778"
       id="path389" />
    <path
       d="m 144.82335,275.80995 c -0.46602,-0.47836 -0.97508,-0.93803 -1.47955,-1.39911 -0.38947,-0.35631 -0.61348,-0.75001 -0.69709,-1.18287 v -3.5e-4 c -0.16545,-0.22578 -0.15522,-0.46849 -0.12241,-0.72143 0.0815,0.16369 0.16298,0.32773 0.24447,0.49177 0.6985,1.40723 1.72332,2.64372 3.85163,3.32564 -0.77258,0.0875 -1.42099,-0.12806 -1.79705,-0.51365 z m -3.90454,-15.80515 c -0.24483,0.45791 -0.48966,0.91581 -0.73449,1.37372 0,0 0,0 -3.5e-4,0 -0.0374,-0.0265 -0.0744,-0.0533 -0.11183,-0.0797 0.18344,-0.5013 0.37571,-1.00048 0.72848,-1.4598 0.56762,-1.2834 1.39065,-2.46909 2.75026,-3.44875 0.0928,-0.067 0.19826,-0.11536 0.34325,-0.10689 v 0 h 3.6e-4 c 0.0346,-0.21555 0.29986,-0.28999 0.52563,-0.38841 -0.12876,0.15769 -0.16051,0.37465 -0.52563,0.38841 v 0 h -3.6e-4 c -0.25012,0.29457 -0.47096,0.6036 -0.75565,0.88159 -0.90487,0.88582 -1.55998,1.86302 -2.21967,2.83986 z m 5.02002,-2.85044 c 0.4445,-0.72531 1.14441,-1.35185 1.94593,-1.91347 0.48859,-0.34219 1.1049,-0.31644 1.50459,0.0921 0.70697,0.72284 1.2252,1.50354 1.43757,2.36714 0.11501,0.46814 0.0593,0.93098 0.0702,1.60267 0.20038,0.9966 -0.65475,1.99602 -1.23225,3.04835 -0.40605,0.73978 -0.92251,1.43933 -1.70815,2.0186 -1.04669,0.77187 -2.37278,1.18321 -3.92783,1.26541 -0.39723,0.0208 -0.57538,-0.0529 -0.56197,-0.36724 0.11747,-2.81799 0.889,-5.53226 2.47191,-8.11354 z m 6.80826,14.89886 c -0.0109,-0.03 -0.024,-0.0572 -0.0381,-0.0825 -0.0861,-0.15698 -0.2293,-0.22154 -0.47131,-0.17603 -0.0607,0.0113 -0.12524,0.0272 -0.19897,0.0526 -0.29633,0.10336 -0.35383,0.28398 -0.45508,0.44767 -0.0289,0.0473 -0.061,0.0935 -0.10442,0.13547 v 0 c -0.29528,1.27352 -1.31304,2.21333 -2.84586,2.909 -0.40005,0.18168 -0.8442,0.127 -1.24707,-0.0141 -0.9659,-0.33796 -1.63019,-0.8763 -1.99214,-1.5628 -0.36794,-0.69886 -0.6798,-1.41147 -0.98918,-2.12302 -0.63112,-1.45344 -1.02341,-2.92806 -0.99625,-4.44112 0.005,-0.28398 0.15416,-0.39088 0.55986,-0.39299 0.03,0 0.0593,-0.001 0.0892,-0.002 0.0741,-0.001 0.14746,-0.002 0.22049,-0.005 1.8542,-0.0603 3.42935,-0.5775 4.77978,-1.42205 1.12042,-0.70062 1.89583,-1.57903 2.5393,-2.51143 0.86183,-1.24918 1.4545,-2.54776 1.48343,-3.96275 0.0145,-0.70132 -0.27094,-1.35502 -0.52564,-2.0193 -0.16722,-0.10971 -0.21343,-0.25012 -0.23072,-0.39793 -3.5e-4,0 -3.5e-4,0 -3.5e-4,-3.6e-4 -0.16298,-0.1397 -0.2734,-0.29527 -0.31538,-0.47095 -0.0723,-0.048 -0.13406,-0.10019 -0.19015,-0.15452 -0.0977,-0.096 -0.17463,-0.20003 -0.24554,-0.30656 -0.0413,-0.0621 -0.0811,-0.12489 -0.1217,-0.18733 -3.6e-4,0 -3.6e-4,0 -3.6e-4,-3.5e-4 -0.10689,-0.10619 -0.21449,-0.21237 -0.32173,-0.31891 -0.0684,-0.0381 -0.13441,-0.078 -0.19791,-0.11889 -0.10407,-0.0674 -0.20108,-0.13899 -0.2921,-0.21414 -0.0628,-0.0519 -0.12347,-0.10512 -0.17991,-0.16086 -3.6e-4,0 -3.6e-4,0 -3.6e-4,0 -0.62512,-0.37712 -1.38783,-0.56551 -2.1463,-0.76059 v 0 c -0.0293,-0.002 -0.0586,-0.004 -0.0878,-0.006 -0.13723,-0.01 -0.27446,-0.0183 -0.41169,-0.0261 -0.67063,-0.0367 -1.3402,-0.0441 -2.00836,0.0152 -0.74577,0.17039 -1.46156,0.38029 -2.08598,0.71085 -0.0339,0.042 -0.0723,0.0801 -0.11606,0.11218 -0.0476,0.0356 -0.10337,0.0635 -0.16898,0.0819 -0.0512,0.0141 -0.1076,0.0229 -0.17216,0.0236 -0.121,0.0741 -0.24165,0.14817 -0.3623,0.22225 v 0 c -0.0508,0.0416 -0.10513,0.0808 -0.15804,0.121 -0.26847,0.20461 -0.56092,0.39194 -0.87595,0.56339 -0.0783,0.0427 -0.15664,0.0857 -0.23777,0.12629 v 0 c -0.63253,0.4184 -1.20897,0.86501 -1.54094,1.43581 -0.0166,0.12065 -0.0783,0.22401 -0.22966,0.29386 v 0 c -0.13864,0.0822 -0.20955,0.18909 -0.23742,0.31221 -3.5e-4,0.0339 -0.004,0.067 -0.0109,0.0991 -0.0173,0.0804 -0.0571,0.15346 -0.13299,0.2159 -0.0279,0.0229 -0.0596,0.0448 -0.0981,0.0642 v 0 c -0.57362,0.75812 -0.9398,1.57445 -1.32398,2.38372 -0.28645,0.60254 -0.62089,1.19803 -0.75247,1.83374 -0.0289,0.12982 0.0536,0.2794 -0.13088,0.3817 v 0 c -0.16334,0.0794 -0.10125,0.2032 -0.12065,0.31115 -0.0339,0.15699 0.0617,0.33303 -0.13089,0.46638 0,0 0,0 -3.5e-4,0 h 0.003 v 0 0 c -0.007,0.0279 -0.009,0.0557 -0.01,0.084 -0.006,0.15557 0.0448,0.31855 -0.11853,0.45367 -10e-4,10e-4 -0.002,0.002 -0.004,0.004 -0.004,0.0596 -0.01,0.11924 -0.0141,0.17886 -0.005,0.0681 -0.01,0.13652 -0.0159,0.20461 -0.0226,0.24588 -0.054,0.49142 -0.0942,0.73625 -0.0141,0.085 -0.0282,0.16968 -0.0445,0.25435 -0.0356,0.18626 -0.0759,0.37218 -0.12382,0.55703 -3.6e-4,0.002 -7.1e-4,0.004 -0.001,0.006 v 0 c -0.004,0.0565 -0.006,0.11289 -0.009,0.16899 -0.0265,0.50905 -0.0374,1.01776 -0.0191,1.52611 0.0148,0.41769 0.0508,0.83538 0.11395,1.25272 0.0346,0.2286 0.0744,0.45684 0.127,0.68509 0.0529,0.22895 0.13265,0.45508 0.2092,0.68121 0.0378,0.11183 0.0741,0.22402 0.10583,0.33655 0.0543,0.19262 0.0952,0.387 0.10196,0.58491 0,0 0,0 0,3.5e-4 h -0.003 c 0.0632,0.0843 0.1083,0.1711 0.14216,0.25929 0.0173,0.0444 0.0307,0.0892 0.0409,0.13477 0.0176,0.0783 0.0286,0.15698 0.0261,0.23777 0.0603,0.0586 0.10443,0.11959 0.13688,0.18274 0.0243,0.048 0.0427,0.0974 0.054,0.14746 0.0166,0.0727 0.0212,0.14746 0.0169,0.22366 v 0 0 c 0.007,0.16968 0.0617,0.3309 0.21061,0.47343 0.0614,0.0367 0.10619,0.0776 0.1397,0.121 0.0289,0.0378 0.0494,0.0773 0.0617,0.11889 0.0152,0.0505 0.0198,0.10301 0.018,0.15769 v 0 c 0.0349,0.054 0.0702,0.10724 0.10478,0.16086 0.0526,0.037 0.0963,0.0769 0.13511,0.11818 0.0589,0.0628 0.10301,0.13018 0.13582,0.20109 0.0236,0.0508 0.0434,0.10266 0.0561,0.15628 0.10089,0.24624 0.33973,0.4385 0.55069,0.64205 0.0554,0.0219 0.10477,0.0469 0.14957,0.0741 0.0663,0.0399 0.12101,0.0854 0.1524,0.14182 0.018,0.0321 0.0293,0.0674 0.0325,0.10654 v 0 0 c 0.0363,0.0272 0.0727,0.0543 0.10937,0.0815 0.0787,0.0448 0.15487,0.0917 0.23001,0.13899 0.20884,0.13159 0.40216,0.2727 0.57926,0.4244 0.0653,0.0554 0.12911,0.11147 0.18979,0.17003 v 0 0 c 0.0755,0.054 0.15134,0.10831 0.22754,0.16228 0.0688,0.006 0.12771,0.0194 0.18027,0.0388 0.0642,0.024 0.11748,0.0572 0.16263,0.097 0.0385,0.0339 0.0716,0.072 0.1009,0.1136 v 0 c 0.54187,0.36195 1.13559,0.67627 1.80446,0.92039 0.0914,0.0127 0.17603,0.0332 0.25858,0.0572 0.0667,0.0198 0.13018,0.043 0.19086,0.0709 0.0772,0.0353 0.15134,0.0748 0.21836,0.12348 0.25859,0.16545 0.57856,0.22577 0.9137,0.25999 v 0 c 0.19015,0.0106 0.37924,0.0293 0.56832,0.0494 0.16369,0.0173 0.32738,0.0353 0.49107,0.0519 0.21802,0.0215 0.43603,0.0385 0.65582,0.0423 0.0533,0.001 0.10724,3.6e-4 0.16086,-3.5e-4 0.0201,-3.5e-4 0.0406,3.5e-4 0.061,-3.5e-4 l 0.0529,-7.1e-4 0.0529,0.004 c 0.21167,-0.11747 0.46285,-0.0409 0.69568,-0.0533 3.5e-4,0 3.5e-4,0 3.5e-4,0 0.26529,-0.0437 0.53093,-0.0871 0.79657,-0.13088 0.16193,-0.10689 0.35913,-0.14781 0.58385,-0.13723 v 0 c 0.59514,-0.21378 1.10243,-0.50694 1.60408,-0.80574 0.0205,-0.0504 0.0522,-0.0942 0.0903,-0.1337 0.0582,-0.0603 0.13371,-0.10972 0.21767,-0.15417 0.0572,-0.0303 0.11747,-0.0586 0.17921,-0.0861 v 0 c 0.0741,-0.10019 0.19015,-0.1711 0.33478,-0.22154 0.0197,-0.0522 0.0519,-0.0974 0.091,-0.13794 0.0529,-0.055 0.12065,-0.10125 0.19544,-0.14358 0.0617,-0.0349 0.12736,-0.0674 0.19368,-0.0995 0,-3.5e-4 3.5e-4,-3.5e-4 3.5e-4,-3.5e-4 0.004,-0.0607 0.0229,-0.11536 0.11324,-0.14323 0.0349,-0.0755 0.0769,-0.14852 0.127,-0.21837 0.0131,-0.018 0.0268,-0.0356 0.0413,-0.0533 0.055,-0.0667 0.11818,-0.12982 0.19862,-0.18662 3.5e-4,0 3.5e-4,0 3.5e-4,-3.5e-4 0.03,-0.2921 0.30268,-0.51047 0.47202,-0.76059 v 0 c 0.0709,-0.18521 0.14675,-0.36936 0.21131,-0.55527 0.0247,-0.0688 0.0476,-0.13794 0.0691,-0.20744 0.14605,-0.47025 0.21802,-0.94509 0.036,-1.42839"
       style="fill:#ebc532;fill-opacity:1;fill-rule:nonzero;stroke:none;stroke-width:0.0352778"
       id="path665" />
    <path
       d="m 142.83724,286.63234 c -0.12241,-0.23107 -0.58102,-0.18732 -0.77857,0.0335 0.25858,-0.0148 0.51787,-0.0254 0.77857,-0.0335"
       style="fill:#d8673f;fill-opacity:1;fill-rule:nonzero;stroke:none;stroke-width:0.0352778"
       id="path923" />
  </g>
</svg>
