<?xml version="1.0" encoding="UTF-8" standalone="no"?>
<!-- Created with Inkscape (http://www.inkscape.org/) -->

<svg
   width="73.941826mm"
   height="28.75083mm"
   viewBox="0 0 73.941826 28.75083"
   version="1.1"
   id="svg752"
   inkscape:version="1.1.1 (1:1.1+202109281949+c3084ef5ed)"
   sodipodi:docname="title-mint.svg"
   xmlns:inkscape="http://www.inkscape.org/namespaces/inkscape"
   xmlns:sodipodi="http://sodipodi.sourceforge.net/DTD/sodipodi-0.dtd"
   xmlns="http://www.w3.org/2000/svg"
   xmlns:svg="http://www.w3.org/2000/svg">
  <sodipodi:namedview
     id="namedview754"
     pagecolor="#ffffff"
     bordercolor="#666666"
     borderopacity="1.0"
     inkscape:pageshadow="2"
     inkscape:pageopacity="0.0"
     inkscape:pagecheckerboard="0"
     inkscape:document-units="mm"
     showgrid="false"
     inkscape:zoom="0.71090067"
     inkscape:cx="-256.71659"
     inkscape:cy="-71.036647"
     inkscape:window-width="1920"
     inkscape:window-height="970"
     inkscape:window-x="0"
     inkscape:window-y="27"
     inkscape:window-maximized="1"
     inkscape:current-layer="layer1" />
  <defs
     id="defs749" />
  <g
     inkscape:label="Layer 1"
     inkscape:groupmode="layer"
     id="layer1"
     transform="translate(-172.93886,-167.62082)">
    <path
       d="m 198.17763,189.75367 c 0.058,-6.26896 0.14621,-12.53701 0.19141,-18.80552 0.0138,-1.92247 -0.66328,-2.47365 -2.58751,-2.27517 -1.2685,0.13116 -2.5534,0.44752 -3.80373,0.34782 -2.61233,-0.20779 -4.03058,0.82368 -4.83032,3.35182 -0.94107,2.97473 -2.00133,5.922 -3.03102,8.96411 -0.39167,-0.25831 -0.35667,-0.55428 -0.42091,-0.80992 -0.69119,-2.73417 -1.18653,-5.51706 -2.05051,-8.20738 -0.4382,-1.36376 -0.96545,-1.69871 -2.3261,-1.4054 -1.7005,0.36641 -3.38238,0.80903 -5.0266,1.38812 -0.91094,0.32079 -1.42623,0.8733 -1.34515,1.89456 0.10635,1.34825 0.12805,2.70536 0.28268,4.04742 0.62827,5.44263 0.49047,10.93799 1.15552,16.3784 0.12494,1.02349 0.56446,1.60701 1.66327,1.70892 2.40319,0.22285 3.21622,-0.44707 3.24546,-2.85735 0.0253,-2.10856 0.005,-4.21799 0.005,-6.32655 0.56713,0.42845 0.87595,0.93708 1.18078,1.44839 0.95082,1.5977 1.90474,3.19097 3.29907,4.46168 1.49934,1.36643 2.66771,1.18564 3.59283,-0.61453 0.48338,-0.94063 0.87329,-1.92913 1.37794,-3.0585 0.15551,1.78202 -0.1276,3.37218 0.20558,4.94197 0.22862,1.07843 0.83031,1.66373 1.96589,1.786 1.74657,0.18876 3.48073,0.0151 5.21844,-0.0586 1.65397,-0.0699 2.15419,-0.66504 2.09704,-2.35533 -0.0447,-1.31413 -0.0713,-2.6305 -0.0593,-3.94507"
       style="fill:#ebc532;fill-opacity:1;fill-rule:nonzero;stroke:none;stroke-width:0.0443068"
       id="path393-6" />
    <path
       d="m 223.44787,184.23916 c -0.10972,-2.3749 -0.26776,-4.75368 -0.31186,-7.13105 -0.0247,-1.31128 0.0346,-2.62467 0.31045,-3.91055 0.0977,-0.45473 -1.016,-0.33196 -1.10243,0.0695 -0.4953,2.30929 -0.3048,4.69689 -0.19615,7.03616 0.11148,2.40841 0.22296,4.81683 0.33444,7.22524 0.0639,1.37654 0.12735,2.75272 0.1912,4.12891 0.0113,0.24342 0.47237,0.21696 0.61948,0.18521 0.20779,-0.0451 0.49918,-0.17427 0.48754,-0.42474 l -0.33267,-7.17868"
       style="fill:#ffffff;fill-opacity:1;fill-rule:nonzero;stroke:none;stroke-width:0.0352778"
       id="path719-0-8-7" />
    <path
       d="m 205.21383,192.83534 c -0.0195,0.55943 -0.0169,1.11973 0.0166,1.68088 -0.13068,-0.008 -0.26108,-0.0178 -0.39178,-0.0261 0.16538,-0.54253 0.28947,-1.0948 0.37516,-1.65481 z m -0.55227,-15.24318 c -0.0206,1.60522 -0.041,3.21016 -0.0619,4.81567 -0.0355,2.77196 -0.009,5.55394 -0.1198,8.32475 -0.0321,-4.18344 -0.0642,-8.3666 -0.0966,-12.55003 -0.009,-1.19683 -0.0184,-2.39394 -0.0275,-3.59105 0.13987,0.99678 0.24333,1.99729 0.30581,3.00066 z m 0.2545,-4.24076 c -0.11694,0.0621 -0.20177,0.15275 -0.2032,0.26309 -8.1e-4,0.0496 -0.002,0.0989 -0.002,0.14846 -0.14731,0.0379 -0.28717,0.11636 -0.35997,0.22068 -0.002,-0.20062 -0.003,-0.40181 -0.005,-0.60243 0.19001,-0.0115 0.37974,-0.0212 0.56975,-0.0298 z m 0.56831,11.39506 0.19834,2.15175 c -0.0794,0.0163 -0.15763,0.039 -0.2267,0.0674 z m 0.0522,-4.06222 c 0.0682,-0.0561 0.11378,-0.12496 0.11493,-0.20463 0.002,-0.12352 -0.002,-0.24733 -0.002,-0.37085 0.027,0.50297 0.0536,1.00566 0.0803,1.50864 0.0482,0.90707 0.0966,1.81415 0.14473,2.72122 -0.1754,0.0435 -0.33847,0.11493 -0.38747,0.20033 0.0166,-1.28509 0.033,-2.5699 0.0495,-3.85471 z m 0.60615,13.13498 c 0.0685,-0.0287 0.12668,-0.0628 0.16824,-0.10031 0.0261,0.28316 0.0521,0.56632 0.078,0.84947 -0.13155,-0.005 -0.2631,-0.01 -0.39493,-0.0155 0.0888,-0.049 0.14903,-0.10747 0.14903,-0.17195 z m 0.70216,-15.03511 c 0.003,0.73254 0.007,1.46508 0.006,2.19762 -0.003,1.28252 -0.0141,2.56503 -0.0289,3.84783 -0.10318,-1.94598 -0.20635,-3.8914 -0.30981,-5.83709 0.14043,-0.0433 0.27026,-0.1155 0.33302,-0.20836 z m 3.27093,15.77425 c -0.71249,0.002 -1.42467,0.0152 -2.13686,0.039 -0.21295,-2.8e-4 -0.42589,-0.002 -0.63883,-0.005 -0.002,-0.0476 -0.005,-0.0952 -0.008,-0.14273 0.11321,-0.0651 0.19575,-0.16278 0.20005,-0.28774 0.1946,-5.7881 0.27284,-11.57963 0.23043,-17.37087 -0.008,-1.13807 0.092,-2.46015 -0.53107,-3.46294 0.75575,0.0141 1.51123,0.0493 2.26611,0.11406 0.20721,0.0178 0.50327,-0.0645 0.5924,-0.27598 0.0848,-0.20177 -0.0765,-0.35625 -0.27456,-0.37315 -2.94534,-0.25307 -5.91104,-0.15276 -8.83088,0.31038 -0.1903,0.0301 -0.48263,0.12925 -0.50183,0.36283 -0.0175,0.21466 0.23673,0.31841 0.41786,0.28975 0.8403,-0.13327 1.68404,-0.23301 2.52949,-0.30638 l 0.13213,17.12067 c 0.01,1.2745 0.0197,2.54871 0.0295,3.8232 -0.40898,-0.0373 -0.81766,-0.0773 -1.22577,-0.12467 -0.21495,-0.0249 -0.50413,0.0659 -0.58896,0.28688 -0.0805,0.20893 0.0756,0.39092 0.28574,0.41528 0.11807,0.0135 0.23644,0.0246 0.35423,0.0373 -0.38719,0.0444 -0.77381,0.0917 -1.16014,0.14272 -0.20377,0.0267 -0.48034,0.14215 -0.49581,0.38404 -0.0146,0.22182 0.22956,0.35337 0.42759,0.3273 0.81193,-0.10691 1.62558,-0.19776 2.44008,-0.276 0.12381,0.25765 0.66778,0.14817 0.82626,-0.0751 1.1355,-0.0951 2.27299,-0.16221 3.41193,-0.2009 0.72681,0.002 1.45389,-0.0109 2.18042,-0.0401 0.53278,-0.0215 0.68468,-0.71305 0.0682,-0.71162"
       style="fill:#c67379;fill-opacity:1;fill-rule:nonzero;stroke:none;stroke-width:0.0286596"
       id="path761-0-3"
       sodipodi:nodetypes="sccssccccccscccccsccccccccccccccccccccccccccccccccccccccccccccccccccc" />
    <path
       d="m 207.032,168.40905 c -0.0478,-0.0954 -0.10863,-0.17855 -0.17569,-0.25536 -0.22899,-0.36655 -0.64856,-0.54768 -1.08705,-0.53192 -0.35137,0.0123 -0.73512,0.11235 -1.04637,0.30981 -0.20004,0.12066 -0.37057,0.28259 -0.47832,0.4895 -0.22126,0.42388 -0.18859,0.93001 0.0731,1.3281 0.29233,0.44536 0.85836,0.55943 1.35531,0.45682 0.47289,-0.0473 0.94233,-0.31639 1.16845,-0.73453 0.14989,-0.27743 0.21954,-0.61676 0.16308,-0.93174 0.0283,-0.0415 0.0484,-0.0888 0.0275,-0.13068"
       style="fill:#c67379;fill-opacity:1;fill-rule:nonzero;stroke:none;stroke-width:0.0286596"
       id="path763-9-5" />
    <path
       d="m 205.79791,169.67867 c 5.8e-4,-5.7e-4 0.002,-8.1e-4 0.002,-8.1e-4 -8.2e-4,2.9e-4 -0.002,8.1e-4 -0.002,8.1e-4 2.9e-4,0 2.9e-4,0 5.8e-4,0"
       style="fill:#c67379;fill-opacity:1;fill-rule:nonzero;stroke:none;stroke-width:0.0286596"
       id="path765-6-6" />
    <path
       d="m 246.52022,175.39498 c -0.0937,-0.11278 0,-0.17049 0.15524,-0.17781 -0.079,-0.15524 -0.2021,-0.20064 -0.38079,-0.079 -0.16402,0.11043 -0.31341,0.0451 -0.46865,-0.009 0,2.9e-4 0,5.9e-4 0,5.9e-4 0,0 0,0 0,-3e-4 0.21382,0.3925 0.13766,0.58935 -0.31635,0.8023 0.005,0.0518 -0.0146,0.12185 0.0234,0.15231 0.0967,0.0821 0.14353,-0.009 0.17867,-0.0574 0.21383,-0.2941 0.36615,-0.62566 0.98713,-0.4341 0.17867,0.055 0.26363,-0.097 0.0762,-0.21822 -0.0732,0.0785 -0.18162,0.1075 -0.25485,0.0211"
       style="fill:#c1d9c8;fill-opacity:1;fill-rule:nonzero;stroke:none;stroke-width:0.0292915"
       id="path847-7-6-2" />
    <path
       d="m 245.82602,175.12901 v 0 c 0.0234,0.29642 0.0381,0.59022 -0.31635,0.80228 0.45401,-0.21294 0.53017,-0.40977 0.31635,-0.80228"
       style="fill:#c1d9c8;fill-opacity:1;fill-rule:nonzero;stroke:none;stroke-width:0.0292915"
       id="path849-8-7-9" />
    <path
       d="m 245.82602,175.12871 v 0 c 0.0322,-0.25249 -0.44816,-0.49122 -0.0352,-0.75396 -0.0586,-0.0448 -0.11716,-0.0896 -0.17574,-0.13445 -0.37787,0.35677 0.0498,0.60487 0.2109,0.88841"
       style="fill:#c1d9c8;fill-opacity:1;fill-rule:nonzero;stroke:none;stroke-width:0.0292915"
       id="path857-4-5-1" />
    <path
       d="m 245.82602,175.12901 c 0,-3e-4 0,-3e-4 0,-3e-4 v 0 0 0 0 c -0.16111,-0.28354 -0.58877,-0.53164 -0.21091,-0.88841 -0.42179,0.27769 -0.3925,0.39924 0.21091,0.88871"
       style="fill:#c1d9c8;fill-opacity:1;fill-rule:nonzero;stroke:none;stroke-width:0.0292915"
       id="path859-5-6-2" />
    <path
       d="m 245.82602,175.1293 c 0,0 0,-2.9e-4 0,-5.9e-4 v 0 c 0,3e-4 0,3e-4 0,5.9e-4"
       style="fill:#c1d9c8;fill-opacity:1;fill-rule:nonzero;stroke:none;stroke-width:0.0292915"
       id="path861-0-9-7" />
    <path
       d="m 245.82602,175.12871 v 3e-4 c 0,2.9e-4 0,2.9e-4 0,2.9e-4 v -5.9e-4 0"
       style="fill:#c1d9c8;fill-opacity:1;fill-rule:nonzero;stroke:none;stroke-width:0.0292915"
       id="path863-3-8-0" />
    <path
       d="m 245.82602,175.12901 v 0 -3e-4 c 0,0 0,0 0,3e-4"
       style="fill:#c1d9c8;fill-opacity:1;fill-rule:nonzero;stroke:none;stroke-width:0.0292915"
       id="path865-6-7-9" />
    <path
       d="m 245.82602,175.12871 v 0 0 5.9e-4 c 0,-2.9e-4 0,-2.9e-4 0,-5.9e-4 v 0"
       style="fill:#c1d9c8;fill-opacity:1;fill-rule:nonzero;stroke:none;stroke-width:0.0292915"
       id="path867-1-2-3" />
    <path
       d="m 239.36306,169.57206 c -0.0115,0.003 -0.022,0.005 -0.0322,0.0117 2.9e-4,-0.004 0,-0.007 0,-0.0114 0,0 0,0 0,-3e-4 0.0108,0 0.0213,0 0.0322,0 z m -0.71647,25.13851 c -0.0108,-0.003 -0.0211,-0.008 -0.0316,-0.0121 -0.0375,-0.0138 -0.0741,-0.0337 -0.10838,-0.0685 0.1901,-0.055 0.38167,-0.13357 0.58085,-0.0914 0.20153,0.0425 0.10808,0.12038 0.002,0.18336 -0.14147,-0.0416 -0.30024,0.024 -0.44288,-0.0115 z m 0.0255,-25.0606 c -0.002,0.0295 -0.005,0.0598 -0.009,0.0893 -0.0123,0.0817 -0.0328,0.16227 -0.0706,0.24194 -0.005,-0.13093 -0.0108,-0.26158 -0.0165,-0.39221 0,-2.9e-4 0,-2.9e-4 0,-5.9e-4 0,3e-4 0,3e-4 0,5.9e-4 0.002,-0.0925 0.003,-0.18483 0.004,-0.2774 5.8e-4,-0.0378 8.3e-4,-0.0755 0.002,-0.11334 8.3e-4,-0.0961 0.003,-0.19187 0.004,-0.28823 0.0249,-0.0773 0.0533,-0.0835 0.0865,-0.004 -0.0337,0.24576 0.0178,0.49737 2.8e-4,0.74429 z m 5.6515,10.23415 c -1.3231,-0.0196 -2.6462,-0.0651 -3.96899,-0.0545 -0.41273,0.004 -0.49649,-0.12858 -0.50733,-0.50673 -0.0413,-1.45873 -0.11718,-2.91655 -0.17986,-4.37439 v 0 0 c 0.0393,-1.26335 -0.0633,-2.52199 -0.13327,-3.78095 -0.0295,-0.53164 0.019,-1.07118 -0.11513,-1.59608 -0.008,-0.21911 0.002,-0.44143 -0.0301,-0.65732 -0.0709,-0.47948 -0.23463,-0.59256 -0.7276,-0.57293 -0.59726,0.024 -1.03838,0.28998 -1.32427,0.8143 -0.0744,0.24489 -0.19742,0.48624 -0.21529,0.73522 -0.11658,1.65937 -0.32338,3.31228 -0.37024,4.97721 -0.0456,1.62275 -0.11219,3.24491 -0.1696,4.86736 -0.70944,-0.0454 -1.41859,-0.0949 -2.12862,-0.13503 -0.46866,-0.026 -0.9259,0.0352 -1.36292,0.21617 h -3e-4 c -0.28969,0.0178 -0.51583,0.13298 -0.55536,0.44435 -0.0431,0.34125 0.19654,0.49503 0.46954,0.5908 0.18015,0.0633 0.372,0.11395 0.56152,0.12654 0.70094,0.0468 1.40335,0.0777 2.10518,0.11072 1.12713,0.0525 0.90627,-0.0917 0.89104,0.9388 -0.0635,4.29618 -0.19332,8.59207 -0.0545,12.88941 0.0161,0.50176 0.23316,0.71121 0.74957,0.72467 0.54013,0.0144 1.07353,-0.0624 1.60165,-0.15758 0.98947,-0.17839 1.13036,-0.3641 1.13739,-1.3726 0.0264,-4.00854 2.9e-4,-8.01649 -0.0706,-12.02415 -0.0188,-1.06679 -0.0165,-1.06914 1.07998,-1.07822 1.13036,-0.009 2.25983,-0.0369 3.38345,-0.17486 0.32162,-0.0393 0.58115,-0.17517 0.54776,-0.53838 -0.0322,-0.34711 -0.31314,-0.40716 -0.61307,-0.41184"
       style="fill:#b3b2e9;fill-opacity:1;fill-rule:nonzero;stroke:none;stroke-width:0.0292915"
       id="path447-9-6-4-6" />
    <path
       d="m 225.61042,185.34742 c -0.75642,-0.93267 -1.48794,-1.87859 -2.19656,-2.83681 0.36975,0.36808 0.74049,0.73551 1.11422,1.1006 0.70397,0.96884 1.39997,1.94166 2.08669,2.91813 -0.33688,-0.39264 -0.67211,-0.78662 -1.00435,-1.18192 z m 5.66765,5.1336 c -0.11352,-0.81051 -0.22736,-1.6207 -0.34087,-2.43155 0.1384,-0.11849 0.20478,-0.2476 0.12546,-0.36177 -0.0714,-0.10356 -0.14637,-0.20512 -0.21939,-0.30769 -0.0196,-0.14138 -0.0395,-0.28277 -0.0591,-0.42417 0.0452,-1.27486 0.0784,-2.55004 0.0856,-3.82557 0.01,-1.67014 -0.0136,-3.3403 -0.0693,-5.00946 -0.0285,-0.84636 -0.065,-1.69239 -0.11019,-2.53843 -0.0319,-0.60009 -0.009,-1.24067 -0.088,-1.85105 -0.0385,-1.09562 -0.0843,-2.19125 -0.14836,-3.28621 -0.009,-0.16296 -0.15202,-0.21342 -0.34685,-0.19648 -0.0209,-0.34685 -0.0356,-0.69402 -0.0608,-1.0412 -0.0355,-0.48757 -1.54303,0.0564 -1.5437,0.47994 -9.4e-4,0.49122 -0.002,0.98277 -0.004,1.47399 -0.44243,-0.0179 -1.26722,0.3515 -1.26987,0.6678 -0.002,0.23433 -0.005,0.46899 -0.007,0.70332 -0.0402,0.0793 -0.0398,0.14803 -0.002,0.1998 l -0.0388,4.45487 c -0.0259,0.99107 -0.0328,1.98247 -0.0263,2.97387 -0.008,0.90877 -0.0159,1.8172 -0.0235,2.72629 -1.3263,-1.40861 -2.74288,-2.75847 -4.20858,-4.06884 -0.88221,-1.12882 -1.78433,-2.24635 -2.71798,-3.3463 -0.93101,-1.09728 -1.90051,-2.17066 -2.89324,-3.22911 -0.0252,-0.22172 -0.0482,-0.4431 -0.0754,-0.66448 -0.0498,-0.4046 -1.46803,-1.03257 -1.4823,-0.48227 -0.002,0.0787 -0.005,0.15733 -0.007,0.23566 -9.4e-4,-3.3e-4 -0.002,-6.6e-4 -0.002,-9.4e-4 -0.18985,-0.0756 -0.79691,-0.20976 -0.80886,0.11683 -0.009,0.25822 -0.0156,0.51612 -0.0232,0.77467 -0.6273,-0.14836 -1.2722,0.066 -1.60079,0.621 -0.19085,0.32228 0.22537,0.65187 0.56291,0.72887 0.008,0.50449 0.0189,1.00833 0.0312,1.5125 -0.086,0.004 -0.14703,0.0199 -0.14604,0.0488 0.0136,0.34717 0.0276,0.69435 0.0411,1.04152 0.002,0.0369 0.0574,0.0707 0.13608,0.0976 -0.0116,0.31 -0.0232,0.62033 -0.0345,0.93034 -0.15035,-0.0332 -0.29739,-0.009 -0.30668,0.12479 -0.13342,1.97485 -0.17558,3.95302 -0.12977,5.93018 -0.33888,2.03394 -0.43978,4.0891 -0.29076,6.13531 0.0452,0.62465 0.11418,1.2483 0.20512,1.86996 -0.0421,1.1411 -0.0847,2.28253 -0.12713,3.42363 -0.0289,0.77799 1.63531,0.79557 1.69473,0.0213 0.0196,-0.25956 0.0395,-0.51878 0.0591,-0.77766 0.38899,0.22038 0.854,0.30303 0.93697,-0.0378 0.0471,-0.19517 0.0913,-0.39066 0.13709,-0.58582 0.0199,-0.0302 0.0358,-0.0641 0.0415,-0.10787 0.006,-0.0471 0.0106,-0.0943 0.0163,-0.14139 0.008,-0.0299 0.0139,-0.0595 0.0213,-0.0889 0.41123,-0.0594 0.84337,-0.33356 0.85166,-0.70364 -9.4e-4,-1.25993 -0.002,-2.52051 -0.003,-3.78075 0.49156,-3.23478 0.72256,-6.49642 0.69601,-9.7584 1.68775,2.90584 3.64367,5.70016 5.85982,8.3448 0.88652,1.05812 1.81454,2.09102 2.77906,3.09968 0.063,0.0664 0.16661,0.0969 0.29108,0.10157 0.15135,0.16429 0.29341,0.33256 0.42716,0.50516 -9.4e-4,0.11815 -0.002,0.23698 -0.003,0.35514 -0.002,0.155 0.13741,0.20478 0.33257,0.18885 0.19782,0.3724 0.39597,0.74514 0.59378,1.11786 0.0196,0.33423 0.0391,0.66847 0.0597,1.0027 0.0169,0.28543 0.41322,0.231 0.79658,0.079 0.007,0.0804 0.0146,0.16064 0.0215,0.24096 0.0458,0.50317 1.50985,-0.074 1.54437,-0.47993 0.0163,-0.19085 0.0302,-0.3817 0.0452,-0.57288 0.0803,0.0448 0.17889,0.0693 0.2768,0.0385 0.13642,-0.0432 0.18587,-0.1769 0.12181,-0.27382 -0.11351,-0.17193 -0.22702,-0.34419 -0.34086,-0.51612 0.0172,-0.23632 0.0341,-0.4723 0.0504,-0.70829 0.11118,0.0561 0.26851,0.0737 0.36244,-0.0113 0.10256,-0.0926 0.0537,-0.231 -0.0395,-0.31896 0.23831,-0.13376 0.41223,-0.29905 0.39298,-0.43778"
       style="fill:#e2a56d;fill-opacity:1;fill-rule:nonzero;stroke:none;stroke-width:0.0331907"
       id="path467-7-3" />
  </g>
</svg>
