<?xml version="1.0" encoding="UTF-8" standalone="no"?>
<!-- Created with Inkscape (http://www.inkscape.org/) -->

<svg
   width="86.332748mm"
   height="28.747622mm"
   viewBox="0 0 86.332748 28.747622"
   version="1.1"
   id="svg8010"
   inkscape:version="1.1.1 (1:1.1+202109281949+c3084ef5ed)"
   sodipodi:docname="title-intro.svg"
   xmlns:inkscape="http://www.inkscape.org/namespaces/inkscape"
   xmlns:sodipodi="http://sodipodi.sourceforge.net/DTD/sodipodi-0.dtd"
   xmlns="http://www.w3.org/2000/svg"
   xmlns:svg="http://www.w3.org/2000/svg">
  <sodipodi:namedview
     id="namedview8012"
     pagecolor="#ffffff"
     bordercolor="#666666"
     borderopacity="1.0"
     inkscape:pageshadow="2"
     inkscape:pageopacity="0.0"
     inkscape:pagecheckerboard="false"
     inkscape:document-units="mm"
     showgrid="false"
     fit-margin-top="0"
     fit-margin-left="0"
     fit-margin-right="0"
     fit-margin-bottom="0"
     inkscape:zoom="0.71090067"
     inkscape:cx="-113.23663"
     inkscape:cy="550.00651"
     inkscape:window-width="1920"
     inkscape:window-height="1043"
     inkscape:window-x="1920"
     inkscape:window-y="0"
     inkscape:window-maximized="1"
     inkscape:current-layer="layer1" />
  <defs
     id="defs8007" />
  <g
     inkscape:label="Layer 1"
     inkscape:groupmode="layer"
     id="layer1"
     transform="translate(-7.1011585,-2.8416085)">
    <path
       d="m 12.144717,28.36077 c -0.02077,0.509451 -0.01802,1.019686 0.01772,1.530703 -0.139303,-0.007 -0.2783,-0.01618 -0.417603,-0.02375 0.176267,-0.494053 0.308543,-0.99698 0.399885,-1.506954 z M 11.556041,14.479515 c -0.02199,1.461803 -0.04369,2.923345 -0.06598,4.385409 -0.03788,2.524291 -0.0095,5.057717 -0.127694,7.580964 -0.03421,-3.809664 -0.06843,-7.619069 -0.10295,-11.428734 -0.0098,-1.089893 -0.01955,-2.180046 -0.02933,-3.270199 0.149079,0.907721 0.25936,1.818836 0.325957,2.73256 z m 0.271274,-3.861862 c -0.124639,0.05663 -0.215064,0.139107 -0.216591,0.239588 -9.52e-4,0.04515 -0.0016,0.09004 -0.0022,0.135193 -0.157021,0.03445 -0.3061,0.105961 -0.383693,0.200961 -0.0018,-0.182692 -0.0034,-0.365907 -0.0048,-0.548599 0.202538,-0.01044 0.404771,-0.01932 0.60731,-0.02714 z m 0.605783,10.376945 0.211399,1.959511 c -0.08462,0.01488 -0.168019,0.0355 -0.241642,0.06133 z m 0.0556,-3.699266 c 0.0727,-0.05115 0.121279,-0.113791 0.122501,-0.186346 0.0022,-0.112487 -0.0028,-0.225235 -0.0022,-0.337721 0.02871,0.458037 0.05713,0.915812 0.08554,1.373849 0.05133,0.826032 0.10295,1.652065 0.154272,2.478097 -0.186959,0.03967 -0.360782,0.104657 -0.41302,0.182431 0.01772,-1.170277 0.03513,-2.340293 0.05285,-3.51031 z m 0.646108,11.961415 c 0.07301,-0.0261 0.135026,-0.05716 0.179322,-0.09135 0.0278,0.257857 0.0556,0.515715 0.0831,0.773573 -0.14022,-0.0041 -0.280439,-0.0091 -0.420964,-0.01409 0.0947,-0.04463 0.158855,-0.09787 0.158855,-0.156594 z m 0.748447,-13.691776 c 0.0036,0.667089 0.008,1.334179 0.0061,2.001268 -0.0036,1.167929 -0.01497,2.335858 -0.03085,3.504047 -0.109976,-1.772119 -0.219952,-3.543717 -0.330234,-5.315575 0.14969,-0.03941 0.288076,-0.105179 0.354979,-0.18974 z m 3.486539,14.364868 c -0.759445,0.0018 -1.518584,0.01384 -2.277722,0.0355 -0.226977,-2.61e-4 -0.453955,-0.0019 -0.680933,-0.0047 -0.0028,-0.04332 -0.0055,-0.08665 -0.0082,-0.129973 0.120668,-0.05924 0.208649,-0.148242 0.213231,-0.262033 0.207427,-5.270947 0.290825,-10.545024 0.245612,-15.818841 -0.0086,-1.03639 0.09806,-2.240335 -0.566069,-3.153537 0.805573,0.01279 1.61084,0.04489 2.415496,0.103873 0.220868,0.01618 0.536438,-0.05873 0.631444,-0.251333 0.09043,-0.183736 -0.08156,-0.324409 -0.292658,-0.339808 -3.139503,-0.2304539 -6.300697,-0.1391069 -9.413013,0.282652 -0.202844,0.0274 -0.514443,0.117706 -0.53491,0.330413 -0.01863,0.195481 0.252334,0.289959 0.445402,0.26386 0.895692,-0.12136 1.795049,-0.212184 2.696241,-0.278997 l 0.14083,15.590995 c 0.01039,1.160621 0.02108,2.320982 0.03147,3.481603 -0.435932,-0.03393 -0.871559,-0.07047 -1.306574,-0.113531 -0.229116,-0.0227 -0.537354,0.06003 -0.627779,0.261251 -0.08584,0.190261 0.08065,0.355989 0.304572,0.378173 0.125861,0.01227 0.252028,0.02245 0.377583,0.03393 -0.412714,0.04045 -0.824818,0.08352 -1.236616,0.129973 -0.217203,0.02427 -0.511999,0.129451 -0.528496,0.349726 -0.01558,0.202006 0.244696,0.321801 0.455789,0.29805 0.865449,-0.09735 1.73273,-0.180083 2.600928,-0.251333 0.131971,0.23463 0.711789,0.134932 0.880724,-0.06838 1.210344,-0.08665 2.422828,-0.147719 3.636839,-0.182953 0.774719,0.0016 1.549742,-0.0099 2.324156,-0.03654 0.567903,-0.01958 0.729811,-0.649342 0.0727,-0.648037"
       style="fill:#c67379;fill-opacity:1;fill-rule:nonzero;stroke:none;stroke-width:0.0282364"
       id="path761"
       sodipodi:nodetypes="sccssccccccscccccsccccccccccccccccccccccccccccccccccccccccccccccccccc" />
    <path
       d="m 14.082736,3.5594091 c -0.05101,-0.08691 -0.11578,-0.162596 -0.187264,-0.232542 -0.244086,-0.333805 -0.69132,-0.498751 -1.158718,-0.484396 -0.374529,0.01122 -0.783577,0.102308 -1.115338,0.28213 -0.213231,0.109876 -0.394997,0.257335 -0.50986,0.445769 -0.235837,0.386005 -0.201011,0.846912 0.0779,1.209426 0.311598,0.405578 0.914937,0.509452 1.444655,0.416018 0.504055,-0.04306 1.004445,-0.288132 1.245476,-0.668916 0.15977,-0.252638 0.234004,-0.56165 0.173823,-0.848478 0.03024,-0.03784 0.05163,-0.08091 0.02933,-0.119011"
       style="fill:#c67379;fill-opacity:1;fill-rule:nonzero;stroke:none;stroke-width:0.0282364"
       id="path763" />
    <path
       d="m 12.767303,20.553314 c 6.11e-4,-5.22e-4 0.0016,-8.14e-4 0.0022,-0.001 -9.53e-4,2.61e-4 -0.0022,8.14e-4 -0.0028,0.001 3.06e-4,0 3.06e-4,0 6.12e-4,0"
       style="fill:#c67379;fill-opacity:1;fill-rule:nonzero;stroke:none;stroke-width:0.0282364"
       id="path765" />
    <path
       d="m 36.201578,12.245694 c -0.45976,-0.501099 -0.988865,-0.958876 -1.576014,-1.363409 -0.08495,-0.05872 -0.194597,-0.04463 -0.289601,-0.0055 -0.265474,-0.188696 -0.545913,-0.362776 -0.844674,-0.514671 1.922437,0.317623 3.316073,1.723314 3.974707,3.16502 0.310072,0.67779 0.498251,1.384289 0.631443,2.098096 -0.330845,-1.2183 -0.97726,-2.379182 -1.895861,-3.379555 z m 1.211569,9.710902 c -0.13869,-0.894412 -0.271579,-1.789345 -0.399272,-2.68454 0.01619,-0.007 0.03178,-0.01435 0.04676,-0.02219 0.08252,0.447598 0.166496,0.895456 0.245618,1.343836 0.03178,0.454383 0.06902,0.908504 0.106919,1.362888 z m 0.170463,7.576266 -0.01645,-0.272473 c 0.03083,0.01462 0.06417,0.02506 0.09836,0.03184 -0.02684,0.08038 -0.05438,0.160248 -0.08183,0.240632 z M 34.960072,11.978441 c -0.06356,-0.04855 -0.128299,-0.09631 -0.195203,-0.142761 -0.05681,-0.03941 -0.139305,-0.05455 -0.222393,-0.05872 -0.123728,-0.05429 -0.2502,-0.104918 -0.378508,-0.151635 -0.0069,-0.0063 -0.01134,-0.01253 -0.01862,-0.01853 -0.275545,-0.212708 -0.598138,-0.341115 -0.942432,-0.408972 -0.302122,-0.122404 -0.61525,-0.2268 -0.93876,-0.30849 0.94671,0.103614 1.867147,0.442116 2.583513,0.944783 0.05984,0.05742 0.117311,0.117184 0.174741,0.17669 -0.02018,-0.01122 -0.04183,-0.0214 -0.06235,-0.03236 z m -4.117373,0.477872 c -0.01282,-0.06342 -0.07517,-0.105701 -0.175347,-0.09552 -0.252338,0.02532 -0.499784,0.0689 -0.742337,0.125797 0.01862,-0.0091 0.03698,-0.01905 0.05594,-0.02766 0.241029,-0.07125 0.489392,-0.128407 0.74264,-0.169643 0.613111,-0.09996 1.239063,-0.126059 1.860427,-0.07908 0.33023,0.02506 0.656495,0.07021 0.970229,0.144067 -0.886838,-0.199657 -1.842398,-0.150069 -2.711519,0.102047 z m -2.431379,1.42422 c 0.06568,-0.12397 0.140524,-0.24272 0.226366,-0.351292 0.187265,-0.108832 0.380333,-0.210879 0.579511,-0.304053 -0.290213,0.197047 -0.559349,0.417323 -0.805877,0.655345 z m 3.120866,-2.135677 c 0.06079,-0.01462 0.125555,-0.02923 0.191237,-0.04306 0.10142,-0.0026 0.202849,-0.0016 0.304269,0.0013 -0.166799,0.0073 -0.332066,0.02192 -0.495506,0.04202 z m 0.690709,-1.428919 c 0.02814,0.02114 0.05923,0.03784 0.09409,0.04776 0.119138,0.03419 0.23553,0.07282 0.35039,0.113531 -0.05282,-0.0091 -0.105698,-0.01853 -0.15885,-0.02636 -0.252641,-0.0381 -0.508945,-0.06133 -0.766168,-0.06968 0.158244,-0.02845 0.318627,-0.05089 0.480534,-0.06524 z m 6.382875,10.912758 c 0.02685,-0.648037 0.01134,-1.295291 -0.04399,-1.939935 0.02875,0.273517 0.05741,0.546773 0.08556,0.82029 0.132889,1.299989 0.249887,2.601022 0.353758,3.90336 -0.159465,-0.882405 -0.346121,-1.761941 -0.520861,-2.641736 0.06902,-0.02453 0.122506,-0.07099 0.125554,-0.141979 z m -0.259361,-3.870736 c 0.05256,0.431415 0.101117,0.863354 0.147861,1.295552 -0.04035,-0.313709 -0.09104,-0.626114 -0.150606,-0.937736 0.0035,-0.119272 0.0052,-0.238805 0.0026,-0.357816 z m 1.405863,10.733458 c 0.01619,-0.0089 0.03143,-0.01879 0.04616,-0.02923 0.02286,0.06237 0.04486,0.124753 0.06477,0.187391 -0.03758,-0.0034 -0.07517,-0.0055 -0.11273,-0.0036 z m -0.470454,2.110101 c -0.02537,0.01879 -0.04217,0.0415 -0.05196,0.06707 -0.03455,0.0021 -0.06876,0.0041 -0.102953,0.0065 l -0.0043,-0.04802 c 0.0069,-0.0029 0.01524,-0.0044 0.02234,-0.0073 0.01983,-0.0084 0.05256,-0.0214 0.07023,-0.03888 0.04399,-0.0034 0.08829,-0.0107 0.124333,-0.01696 -0.02078,0.01044 -0.04061,0.02245 -0.05802,0.03758 z M 27.425203,15.112404 c -0.03574,0.05898 -0.07209,0.117706 -0.10631,0.177473 0.05193,-0.139368 0.113031,-0.276388 0.17871,-0.41158 -0.02444,0.07803 -0.04827,0.156071 -0.0724,0.234107 z M 27.28254,30.609966 27.23549,30.471903 c 0.01833,-8.14e-4 0.03635,-0.0021 0.05407,-0.0036 -3.06e-4,0.0475 -0.0028,0.09474 -0.007,0.141717 z M 25.738296,14.415562 c 0.03177,-0.122665 0.05927,-0.245591 0.08218,-0.369562 0.0048,0.05716 0.0092,0.114053 0.01405,0.170688 -0.03269,0.06603 -0.06446,0.132582 -0.09623,0.198874 z m 0.968703,15.09877 c -0.03757,-0.184781 -0.07515,-0.369822 -0.112725,-0.554603 -3.06e-4,-0.0024 -0.0024,-0.0044 -0.0034,-0.0068 -0.07118,-0.872227 -0.142052,-1.744455 -0.213536,-2.616943 -0.02871,-0.353902 -0.05774,-0.707543 -0.08646,-1.061184 0.07668,0.718244 0.15366,1.436748 0.230643,2.155253 0.07362,0.687968 0.147246,1.375676 0.220868,2.063645 -0.01374,0.0063 -0.02597,0.01305 -0.03543,0.02062 z M 24.870098,13.914723 c -0.0611,-0.765221 -0.12189,-1.530965 -0.182988,-2.296448 0.0086,0.0029 0.01741,0.0058 0.02597,0.0081 0.04765,0.197569 0.09104,0.395921 0.128,0.595056 0.0098,0.564521 0.01924,1.129042 0.02902,1.693301 z m 0.141136,7.057941 c -0.02902,-0.355728 -0.05835,-0.711718 -0.08737,-1.067969 0.01252,0.0031 0.02535,0.0058 0.03849,0.0076 0.01344,0.33485 0.04521,0.669177 0.09776,1.001417 0.0022,0.01227 0.0095,0.02427 0.01894,0.03601 -0.02322,0.0063 -0.04583,0.01384 -0.06782,0.02296 z m 14.989705,2.175088 c -0.178715,-1.751241 -0.303966,-3.517357 -0.596623,-5.260768 -0.08157,-0.894672 -0.171069,-1.79091 -0.365362,-2.67175 -0.146329,-0.660565 -0.362618,-1.309646 -0.693454,-1.924538 -0.05741,-0.107527 -0.230949,-0.152417 -0.365371,-0.163901 -0.740198,-1.463368 -2.099923,-2.798852 -4.035801,-3.2020809 -0.914938,-0.287611 -1.911752,-0.348682 -2.8774,-0.146937 -1.119614,0.2333249 -2.123143,0.7628719 -2.938186,1.4208269 -0.728284,0.587487 -1.282134,1.270759 -1.734868,2.00153 -0.05865,-0.540771 -0.127388,-1.081281 -0.207121,-1.620485 -0.09348,-0.634205 -0.202539,-1.266843 -0.324734,-1.8973939 -0.03819,-0.195743 -0.620142,-0.236457 -0.655884,-0.0227 -0.04125,0.246374 -0.07424,0.4932699 -0.1002,0.7406879 -0.0064,-0.0034 -0.01314,-0.0076 -0.01925,-0.01096 -0.03666,-0.01983 -0.278911,-0.128668 -0.277383,-0.02453 0.0016,0.08795 0.003,0.175646 0.0046,0.263338 -0.0089,-0.0076 -0.01802,-0.01461 -0.02719,-0.02192 -0.0028,-0.04124 -0.0052,-0.08221 -0.008,-0.123448 -0.007,-0.106745 -0.13686,-0.20044 -0.241031,-0.258641 -0.07362,-0.223929 -0.222395,-0.4196709 -0.538271,-0.4778719 -0.255999,-0.04724 -0.575234,0.03758 -0.692848,0.219754 -0.0086,-0.0018 -0.0168,-0.0047 -0.02535,-0.006 l -0.01955,-0.241676 c -0.0018,-0.02401 -0.633277,0.07777 -0.624113,0.191566 l 0.03697,0.4601249 c -0.011,0.03158 -0.01374,0.06681 -0.0058,0.10544 0.0028,0.01488 0.0092,0.02819 0.01741,0.04071 l 0.625029,7.764441 c 0.0889,1.65885 0.222701,3.316134 0.40019,4.969764 l 0.552934,6.874466 c 6.11e-4,0.005 0.03147,0.0041 0.07882,-0.0013 -0.08646,0.407405 -0.0556,0.826293 0.08951,1.225607 0.01772,0.04855 0.164964,0.0047 0.192458,-0.0036 0.03055,-0.0091 0.06049,-0.02062 0.09043,-0.03314 0.0999,0.0016 0.299379,-0.083 0.418825,-0.16886 0.02811,0.132321 0.05621,0.264382 0.08401,0.396443 0.02841,0.133366 0.364142,-0.04202 0.42249,-0.08038 0.0076,-0.0047 0.01406,-0.0099 0.02138,-0.01488 0.01772,0.0026 0.03543,0.0039 0.05132,10e-4 0.232171,-0.04045 0.464342,-0.08065 0.696207,-0.121099 0.0028,10e-4 0.0058,0.0021 0.0089,0.0031 0.03665,0.04281 0.144496,0.06394 0.261498,0.0689 0.03727,0.0036 0.07424,0.0055 0.112419,0.0031 0.02383,-0.0013 0.04797,-0.0044 0.07179,-0.0089 0.118224,-0.01227 0.211093,-0.03993 0.206816,-0.07804 0.03849,-0.02271 0.07118,-0.04932 0.10081,-0.0783 0.13411,0.126579 0.468925,0.265948 0.519026,0.18478 0.213536,-0.347638 0.185431,-0.745647 0.147245,-1.124604 -0.04551,-0.454644 -0.09256,-0.908766 -0.138997,-1.36341 -0.09256,-0.908766 -0.185126,-1.817792 -0.277995,-2.726558 -0.166185,-1.630924 -0.332371,-3.261587 -0.498556,-4.892511 0.12586,-0.984714 0.141441,-1.976474 0.04337,-2.962493 0.01192,-0.07908 0.02138,-0.157377 0.03483,-0.2375 0.02536,-0.03289 0.04583,-0.06864 0.05774,-0.107006 0.26883,-0.865442 0.537354,-1.731405 0.805879,-2.596847 0.520857,-0.98915 1.293437,-1.853026 2.442381,-2.394319 0.969008,-0.456992 2.142086,-0.571567 3.187766,-0.233585 0.547134,0.176689 1.024004,0.461168 1.39761,0.847955 0.433184,0.447597 0.728897,0.988107 0.97604,1.526528 0.02806,0.06186 0.05499,0.124492 0.08183,0.18713 0.0052,0.02584 0.0088,0.05168 0.01342,0.07751 -0.07482,0.0582 -0.111803,0.143283 -0.09959,0.239588 0.239808,1.909139 0.50375,3.81619 0.792744,5.72037 0.0116,0.07516 0.02381,0.15033 0.03542,0.225234 -0.0087,0.01201 -0.01463,0.0274 -0.01316,0.05063 0.03845,0.63812 0.07698,1.275717 0.115474,1.913576 -0.08676,0.05559 -0.141132,0.140412 -0.114253,0.24533 0.062,0.242981 0.118531,0.486745 0.172904,0.731292 0.08183,1.355842 0.16344,2.711943 0.245307,4.068307 0.04035,0.665262 0.08036,1.330786 0.12067,1.996309 0.0069,0.123187 0.08036,0.239327 0.182985,0.324671 0.04096,0.03393 0.219648,0.156594 0.255698,0.05063 l 0.143583,-0.420194 c 0.0052,0.04828 0.0098,0.09657 0.01585,0.145111 0.01438,0.117445 0.127087,0.249767 0.236448,0.315797 0.08036,0.04855 0.187877,0.07778 0.209257,-0.03314 0.0043,-0.02636 0.0087,-0.05272 0.01282,-0.07934 0.07794,0.0997 0.20956,0.152418 0.349481,0.144588 0.581036,-0.03237 1.162383,-0.06499 1.743419,-0.09735 0.168627,-0.0094 0.280136,-0.141979 0.250503,-0.280825 -0.04434,-0.209574 -0.0892,-0.41941 -0.133504,-0.629246 0.0035,0.0013 0.0052,0.0031 0.0087,0.0044 0.126784,0.04828 0.211404,-0.0036 0.199792,-0.114835 l -0.693133,-6.792738"
       style="fill:#ebc532;fill-opacity:1;fill-rule:nonzero;stroke:none;stroke-width:0.0282364"
       id="path471" />
    <path
       d="m 49.459941,8.1745601 c -0.01195,0.0022 -0.02295,0.0052 -0.0336,0.01043 3.04e-4,-0.003 0,-0.0067 0,-0.01021 0,0 0,0 0,-2.59e-4 0.01126,0 0.02226,0 0.0336,0 z m -0.74722,22.3986529 c -0.01126,-0.0022 -0.022,-0.0074 -0.03299,-0.01073 -0.03914,-0.01228 -0.07724,-0.03004 -0.113033,-0.06103 0.19826,-0.04905 0.398052,-0.119014 0.605785,-0.08143 0.210175,0.03788 0.112721,0.107265 0.0017,0.16338 -0.147549,-0.03706 -0.313128,0.02138 -0.461898,-0.01021 z m 0.02658,-22.3292289 c -0.0017,0.02634 -0.0052,0.05327 -0.0094,0.0796 -0.01282,0.0728 -0.03421,0.144589 -0.07361,0.215574 -0.0061,-0.116661 -0.01126,-0.233063 -0.01715,-0.349465 0,-2.59e-4 0,-2.59e-4 0,-5.18e-4 0,2.59e-4 0,2.59e-4 0,5.18e-4 0.0017,-0.08247 0.0026,-0.164682 0.0043,-0.247157 6.06e-4,-0.03366 8.66e-4,-0.06732 0.0017,-0.100999 8.66e-4,-0.0856 0.0026,-0.170949 0.0035,-0.256811 0.02598,-0.06888 0.05559,-0.07439 0.09012,-0.0037 -0.03516,0.21897 0.01862,0.443155 3.03e-4,0.663168 z m 5.894098,9.1187209 c -1.379894,-0.01746 -2.759787,-0.05793 -4.139369,-0.04853 -0.430438,0.003 -0.517804,-0.114575 -0.529104,-0.451508 -0.04312,-1.299733 -0.122204,-2.598674 -0.187574,-3.897623 v 0 0 c 0.04096,-1.125648 -0.06599,-2.247115 -0.138994,-3.3688569 -0.03083,-0.473695 0.01983,-0.954433 -0.120064,-1.422128 -0.0088,-0.195221 0.0017,-0.393314 -0.03143,-0.585665 -0.07395,-0.427235 -0.244701,-0.527983 -0.758833,-0.510493 -0.622896,0.02138 -1.082959,0.258379 -1.381115,0.725549 -0.07759,0.218193 -0.205897,0.433242 -0.224532,0.65509 -0.121588,1.478509 -0.337262,2.9512689 -0.386137,4.4347349 -0.04763,1.445883 -0.117007,2.891241 -0.176879,4.336865 -0.739894,-0.04047 -1.479478,-0.08456 -2.219987,-0.120316 -0.488778,-0.02323 -0.965648,0.03129 -1.421433,0.19261 h -3.12e-4 c -0.302122,0.01591 -0.537963,0.118489 -0.5792,0.395919 -0.04494,0.304055 0.204979,0.441076 0.489695,0.526414 0.187877,0.05637 0.387973,0.101524 0.585626,0.112747 0.731027,0.04173 1.463587,0.06917 2.195541,0.09865 1.175521,0.04668 0.945178,-0.08169 0.929296,0.836477 -0.06625,3.827933 -0.201619,7.655607 -0.05681,11.484583 0.0168,0.447077 0.243167,0.633687 0.781746,0.645687 0.563318,0.0128 1.119614,-0.05556 1.670411,-0.140409 1.031937,-0.158942 1.17888,-0.324408 1.186215,-1.223 0.02754,-3.571639 3.03e-4,-7.142761 -0.07361,-10.713624 -0.01957,-0.950519 -0.01715,-0.952613 1.126334,-0.960699 1.17888,-0.0084 2.356843,-0.03285 3.528691,-0.155812 0.335426,-0.03499 0.606097,-0.156071 0.571268,-0.479702 -0.0336,-0.309271 -0.326567,-0.362775 -0.639384,-0.366947"
       style="fill:#b3b2e9;fill-opacity:1;fill-rule:nonzero;stroke:none;stroke-width:0.0282364"
       id="path447" />
    <path
       d="m 61.802062,29.180468 c -0.04434,0.09657 -0.09623,0.19 -0.157023,0.279781 -0.02321,0.02479 -0.0446,0.05089 -0.06936,0.07438 -0.0168,0.01592 -0.03516,0.03106 -0.05282,0.04619 -0.0052,0.0034 -0.011,0.0065 -0.01654,0.0099 -0.0061,-0.0044 -0.01256,-0.0094 -0.01862,-0.01409 -0.05403,-0.06133 -0.10142,-0.125797 -0.143271,-0.193654 -0.172913,-2.175871 -0.346121,-4.352002 -0.51964,-6.527873 -0.188483,-2.372656 -0.377278,-4.745313 -0.566073,-7.117708 l -0.09684,-1.212818 c 0.01801,-0.479961 0.08521,-0.956789 0.244397,-1.419523 0.08062,-0.187651 0.175044,-0.368778 0.292043,-0.54077 0.249281,1.941501 0.465561,3.885874 0.646112,5.832856 0.188786,2.029455 0.339695,4.06152 0.453646,6.095412 0.06174,1.10503 0.113638,2.21006 0.151524,3.315612 0.01195,0.46143 -3.03e-4,0.925991 -0.14755,1.372283 z m 10.070729,-16.65453 c -1.328568,-0.648559 -2.897863,-0.704149 -4.370622,-0.42228 -0.956184,0.182953 -1.920611,0.508668 -2.73535,1.000111 -0.02104,-0.179038 -0.04157,-0.358077 -0.06261,-0.537377 -0.03758,-0.322322 -0.04676,-0.660565 -0.142354,-0.975579 -0.142051,-0.46691 -0.461898,-0.790016 -0.947628,-1.024906 -0.854451,-0.413408 -1.950849,-0.322062 -2.840432,-0.05663 -0.497637,0.148503 -0.973283,0.399053 -1.379276,0.70676 -0.255389,-0.08012 -0.583789,-0.09161 -0.838261,-0.03706 -0.287465,0.0616 -0.596925,0.169122 -0.789993,0.370606 -0.171379,0.178777 -0.237364,0.346855 -0.218424,0.580701 l 0.205288,2.580666 c -0.007,0.378174 0.01192,0.757653 0.03513,1.133739 0.182988,2.951792 0.42799,5.902018 0.642747,8.852506 0.05315,0.731032 0.106616,1.462063 0.159771,2.193096 0.05041,0.693448 0.08034,1.390813 0.155494,2.082697 0.03177,0.294135 0.09653,0.583311 0.20987,0.855002 0.0018,0.02245 0.0036,0.04489 0.0055,0.06734 0.01375,0.172254 0.01344,0.349987 0.04124,0.520675 0.05499,0.333544 0.397746,0.4904 0.72523,0.616979 0.32229,0.124754 0.677874,0.205921 1.030109,0.234108 0.85323,0.06812 1.719589,-0.0535 2.490034,-0.383916 0.672991,-0.288915 1.300771,-0.679094 1.769693,-1.188024 0.511387,-0.554864 0.828793,-1.186981 1.012998,-1.874689 0.36628,-1.36628 0.118835,-2.812424 -0.04122,-4.188361 -0.171684,-1.479289 -0.34367,-2.958317 -0.515354,-4.437606 -0.148467,-1.277022 -0.296934,-2.554305 -0.445099,-3.831066 0.05343,-0.04071 0.09532,-0.08587 0.109673,-0.137542 0.12158,-0.4275 0.339392,-0.825771 0.633582,-1.185414 0.114557,-0.127103 0.23553,-0.249507 0.367198,-0.36382 0.06841,-0.05977 0.139297,-0.117445 0.212002,-0.173558 0.03637,-0.02819 0.07335,-0.05559 0.110894,-0.08273 0.05014,-0.03628 0.23553,-0.145371 0.01282,-0.01279 0.173822,-0.103613 0.341843,-0.210619 0.525139,-0.302487 0.02355,-0.01201 0.04737,-0.02323 0.07118,-0.03471 0.08642,-0.03732 0.174429,-0.07204 0.263024,-0.10518 -0.131971,0.04698 0.0017,-0.0047 0.07724,-0.02819 0.02814,-0.0099 0.0562,-0.01983 0.0846,-0.03001 -0.02754,0.0099 -0.051,0.01827 -0.07239,0.0261 0.073,-0.02192 0.146631,-0.04124 0.220566,-0.06055 0.03057,-0.0063 0.06105,-0.01227 0.09134,-0.01775 0.02537,-0.005 0.051,-0.0091 0.07638,-0.01331 0.073,-0.0081 0.145713,-0.01409 0.218419,-0.01984 0.03724,-8.13e-4 0.07456,-0.0018 0.111811,-0.0018 0.05282,-2.61e-4 0.106001,8.14e-4 0.15885,0.0024 0.08339,0.007 0.167103,0.01384 0.249888,0.02453 0.062,0.0078 0.124032,0.01696 0.185133,0.02714 0.0116,0.0021 0.03481,0.006 0.05836,0.0107 0.03325,0.0073 0.08157,0.01801 0.0999,0.0227 0.06044,0.01488 0.120055,0.0308 0.179321,0.04828 0.226359,0.06603 0.444181,0.15033 0.653135,0.249767 -0.03178,-0.01488 -0.06321,-0.03001 -0.09531,-0.04541 0.445705,0.211402 1.06279,0.125796 1.525607,-0.01227 0.226065,-0.06786 0.508642,-0.14772 0.669016,-0.306924 0.07543,-0.07464 0.205594,-0.236978 0.04615,-0.314754"
       style="fill:#e2a56d;fill-opacity:1;fill-rule:nonzero;stroke:none;stroke-width:0.0282364"
       id="path713" />
    <path
       d="m 85.662773,29.418925 c 0.7259,-0.228151 1.37619,-0.564598 1.96278,-0.963653 0.11818,0.02313 0.23404,0.04202 0.34067,0.05612 -0.0402,0.02623 -0.0799,0.0533 -0.12347,0.07755 -0.67571,0.376775 -1.41216,0.649767 -2.17998,0.829976 z m -3.75787,0.185003 c 0.17067,-0.05359 0.33143,-0.115627 0.4846,-0.180773 0.0178,0.01438 0.0369,0.02876 0.0562,0.04287 0.022,0.05951 0.0627,0.126344 0.11785,0.196848 -0.22018,-0.0141 -0.44003,-0.03271 -0.65856,-0.05895 z m -0.0869,-0.893993 c -0.0158,0.08715 -0.0426,0.172594 -0.0779,0.256353 -0.0564,-0.04174 -0.10633,-0.08827 -0.14624,-0.139035 -0.0419,-0.05358 -0.0733,-0.109986 -0.10135,-0.167518 -0.0251,-0.09193 -0.0463,-0.184157 -0.0631,-0.276377 0.12875,0.106598 0.25518,0.214051 0.38953,0.317552 -3.3e-4,0.0028 -3.3e-4,0.0059 -9.3e-4,0.0091 z m -2.69429,0.201642 c 0.1644,-0.05019 0.32383,-0.112807 0.45984,-0.180492 0.009,0.03948 0.0151,0.07925 0.0241,0.11873 0.0191,0.08883 0.0469,0.178517 0.0826,0.265659 -0.19213,-0.06289 -0.38061,-0.131419 -0.56646,-0.203897 z M 77.138248,14.368811 c -0.26012,0.197977 -0.51297,0.400464 -0.755592,0.608874 0.72622,-1.088303 1.672616,-2.102435 2.986087,-2.863599 0.58296,-0.337575 1.25538,-0.617617 1.96939,-0.822079 -1.52045,0.530474 -2.765595,1.297841 -3.64069,2.331151 -0.205324,0.242253 -0.39084,0.490992 -0.559195,0.745653 z m -0.846703,12.771418 c -0.199383,-0.196285 -0.380941,-0.397644 -0.549951,-0.601824 0.08553,-0.02228 0.161749,-0.04991 0.230085,-0.08065 0.102653,0.146932 0.203668,0.294426 0.313259,0.439383 0.06934,0.09193 0.21094,0.148058 0.384245,0.175415 0.02639,0.05189 0.04987,0.104059 0.07654,0.155391 0.09114,0.174851 0.18387,0.359289 0.285872,0.543165 -0.265734,-0.197131 -0.513972,-0.407515 -0.740088,-0.630871 z M 81.987763,12.59013 c -0.1119,1.071383 -0.20103,2.143893 -0.27101,3.21725 -0.14425,-0.168365 -0.42352,-0.304861 -0.65624,-0.394825 0.13731,-0.621283 0.29609,-1.24031 0.50868,-1.84862 0.11454,-0.326858 0.25287,-0.65428 0.41857,-0.973805 z m 1.84229,-1.08097 c 0.0789,0.01438 0.15449,0.01382 0.22216,-0.0068 0.0324,-0.0098 0.0663,-0.01636 0.0991,-0.02594 0.11553,0.133393 0.26375,0.254097 0.42517,0.335035 0.022,0.12719 0.0465,0.253816 0.0696,0.380723 -0.14624,-0.164697 -0.34727,-0.318397 -0.54335,-0.426691 -0.038,-0.02088 -0.16274,-0.07925 -0.28785,-0.116756 0.004,-0.04653 0.01,-0.09307 0.0151,-0.139598 z m -3.32972,1.067152 c -0.22382,0.02763 -0.43606,0.07529 -0.58692,0.13424 0.306,-0.285965 0.65161,-0.548241 1.04345,-0.759472 -0.17166,0.200515 -0.31889,0.411181 -0.45653,0.625232 z m 0.99888,14.334073 c 0.0402,-0.147213 0.0877,-0.294426 0.14789,-0.440511 0.0359,-0.08771 -0.16242,-0.194027 -0.43871,-0.286247 0.0654,-0.217434 0.13171,-0.434306 0.19343,-0.652022 0.0821,0.04512 0.17033,0.08375 0.26045,0.115344 0.0264,0.4642 0.0568,0.928117 0.0898,1.392317 -0.0832,-0.04456 -0.16737,-0.08771 -0.25286,-0.128881 z m 3.75886,-11.378818 c 0.006,0.05838 0.01,0.116755 0.0162,0.174851 -0.002,-0.0023 -0.003,-0.0048 -0.005,-0.007 -0.0882,-0.207 -0.18024,-0.413437 -0.27266,-0.619309 -0.009,-0.04851 -0.0212,-0.09617 -0.029,-0.144393 0.0974,0.19854 0.19181,0.397927 0.29083,0.595902 z m 1.00813,-3.572308 c 0.008,0.176542 0.0169,0.353085 0.0257,0.529627 -0.14095,0.129164 -0.19311,0.278069 -0.0789,0.427538 0.037,0.04879 0.0702,0.09871 0.10698,0.147777 0.003,0.09025 0.008,0.180491 0.0129,0.270736 -0.10828,-0.0028 -0.1885,0.03779 -0.17925,0.163852 0.002,0.02454 0.002,0.04936 0.004,0.07389 -0.0835,-0.389747 -0.17198,-0.77893 -0.272,-1.166704 -0.0458,-0.177389 -0.18024,-0.348854 -0.34991,-0.498606 0.24625,0.0051 0.48987,0.02228 0.7302,0.05189 z m 3.98035,1.844673 c 0.10492,0.104069 0.20202,0.210948 0.29511,0.319243 0.0291,0.126907 0.0463,0.256352 0.0687,0.384671 -0.0594,-0.07615 -0.12775,-0.149188 -0.19377,-0.222794 -0.18156,-0.340394 -0.41824,-0.663022 -0.71598,-0.955473 0.19573,0.150032 0.37894,0.308527 0.54598,0.474353 z m 1.76902,5.88682 c -0.0122,0.940808 -0.0792,1.891487 -0.23966,2.828348 -0.0776,-0.02538 -0.16141,-0.04936 -0.24988,-0.07191 0.23536,-0.910914 0.40041,-1.830571 0.48954,-2.756431 z m -0.28224,-5.72043 c -0.0835,-0.105755 -0.17265,-0.210104 -0.26474,-0.313886 -0.0387,-0.08122 -0.0715,-0.164133 -0.11521,-0.244226 -0.64172,-1.178831 -1.88851,-2.220883 -3.49511,-2.791403 -0.57966,-0.20559 -1.19133,-0.349419 -1.8139,-0.42641 -2.20804,-0.8091059 -4.89177,-0.5434459 -6.9549,0.376493 -2.214639,0.98734 -3.611302,2.67493 -4.548124,4.357726 -2.027479,3.642247 -2.769214,7.82766 -0.230085,11.415197 6.65e-4,0.0014 9.36e-4,0.0028 0.0018,0.0044 0.0084,0.01805 0.02414,0.03356 0.03733,0.0502 0.08842,0.122676 0.170329,0.246765 0.26639,0.368031 1.257681,1.588601 3.210554,2.963716 5.627549,3.63971 2.35,0.657664 5.03966,0.727604 7.33848,-0.07811 2.2942,-0.80403 3.81299,-2.397143 4.65673,-4.061325 1.0111,-1.993859 1.13852,-4.200359 1.18936,-6.299411 0.0499,-2.054493 -0.25649,-4.173286 -1.69573,-5.99709"
       style="fill:#d8673f;fill-opacity:1;fill-rule:nonzero;stroke:none;stroke-width:0.0305113"
       id="path677" />
    <path
       d="m 90.967823,19.242175 c -0.0957,-0.128317 -0.3466,-0.152288 -0.50341,-0.150596 -2.19615,0.02341 -4.39033,0.112525 -6.57923,0.263121 0.61695,-0.773573 1.24184,-1.542632 1.88289,-2.301822 0.66945,-0.792749 1.3521,-1.57732 2.04663,-2.353995 0.26408,-0.295272 -0.33241,-0.715478 -0.59616,-0.419923 -1.33129,1.487921 -2.61209,3.00771 -3.84865,4.553727 -0.0138,-1.067152 -0.0169,-2.134304 -0.01,-3.201456 0.009,-1.207315 0.0311,-2.414065 0.0663,-3.620816 0.004,-0.168363 -0.26309,-0.220818 -0.40998,-0.190643 -0.19938,0.04089 -0.32647,0.174287 -0.33176,0.344906 -0.0689,2.335382 -0.0855,4.671894 -0.0525,7.007838 -0.44828,-0.585466 -0.8982,-1.170651 -1.35309,-1.752452 -0.68165,-0.872278 -1.37025,-1.740326 -2.06544,-2.60499 -0.10695,-0.133394 -0.30237,-0.172595 -0.48326,-0.135368 -0.115206,0.02341 -0.362451,0.150033 -0.254179,0.284555 1.204869,1.498919 2.387289,3.011376 3.551889,4.533704 -1.21049,0.103216 -2.41866,0.22364 -3.623855,0.366057 -1.133568,0.133958 -2.263832,0.28653 -3.391457,0.453765 -0.162076,0.02398 -0.163396,0.152572 -0.05615,0.231255 0.142276,0.104631 0.359147,0.121266 0.535091,0.09504 2.256569,-0.334754 4.527671,-0.597311 6.806691,-0.793031 0.0437,0.05697 0.0871,0.113371 0.13039,0.170055 -0.75362,0.969857 -1.49008,1.949302 -2.20574,2.939745 -0.6163,0.853664 -1.21807,1.714663 -1.806977,2.582429 -0.09969,0.147495 0.06896,0.348008 0.21952,0.411181 0.186837,0.07811 0.368067,0.02538 0.468087,-0.122396 1.13258,-1.669258 2.32326,-3.310033 3.56179,-4.92317 0.0339,1.363835 0.0832,2.727668 0.15185,4.090656 0.0611,1.206186 0.13567,2.411527 0.22315,3.616302 0.0268,0.36493 0.76649,0.182748 0.74173,-0.153981 -0.17231,-2.370916 -0.29114,-4.744088 -0.35914,-7.118388 0.74205,0.987059 1.47917,1.976938 2.20276,2.973868 0.647,0.891455 1.28706,1.786013 1.92052,2.684519 0.16109,0.228716 0.88005,0.171467 0.73744,-0.148906 -0.0683,-0.153698 -0.13665,-0.307397 -0.20499,-0.461097 -0.0339,-0.07615 -0.12081,-0.120421 -0.22381,-0.139034 -1.45145,-2.045751 -2.93988,-4.072325 -4.46163,-6.080284 -9.4e-4,-0.06599 -0.002,-0.131984 -0.003,-0.197976 0.0598,-0.07501 0.12016,-0.149751 0.1799,-0.225049 1.27221,-0.09475 2.54673,-0.170056 3.82224,-0.221666 1.12763,-0.04569 2.25624,-0.07389 3.38518,-0.08573 0.13303,-0.0014 0.27828,-0.08179 0.19014,-0.19995"
       style="fill:#ffffff;fill-opacity:1;fill-rule:nonzero;stroke:none;stroke-width:0.0305113"
       id="path679" />
  </g>
</svg>
