<?xml version="1.0" encoding="UTF-8" standalone="no"?>
<!-- Created with Inkscape (http://www.inkscape.org/) -->

<svg
   width="137.25578mm"
   height="43.496124mm"
   viewBox="0 0 137.25578 43.496124"
   version="1.1"
   id="svg8736"
   inkscape:version="1.1.1 (1:1.1+202109281949+c3084ef5ed)"
   sodipodi:docname="title-roadmap.svg"
   xmlns:inkscape="http://www.inkscape.org/namespaces/inkscape"
   xmlns:sodipodi="http://sodipodi.sourceforge.net/DTD/sodipodi-0.dtd"
   xmlns="http://www.w3.org/2000/svg"
   xmlns:svg="http://www.w3.org/2000/svg">
  <sodipodi:namedview
     id="namedview8738"
     pagecolor="#ffffff"
     bordercolor="#666666"
     borderopacity="1.0"
     inkscape:pageshadow="2"
     inkscape:pageopacity="0.0"
     inkscape:pagecheckerboard="0"
     inkscape:document-units="mm"
     showgrid="false"
     inkscape:zoom="0.71090067"
     inkscape:cx="626.66982"
     inkscape:cy="303.83991"
     inkscape:window-width="1920"
     inkscape:window-height="1043"
     inkscape:window-x="1920"
     inkscape:window-y="0"
     inkscape:window-maximized="1"
     inkscape:current-layer="layer1" />
  <defs
     id="defs8733" />
  <g
     inkscape:label="Layer 1"
     inkscape:groupmode="layer"
     id="layer1"
     transform="translate(60.812098,-67.947424)">
    <path
       d="M -51.939282,67.947424 Z"
       style="fill:#617e83;fill-opacity:1;fill-rule:nonzero;stroke:none;stroke-width:0.0352778"
       id="path459" />
    <path
       d="m -56.032916,99.056434 c -0.245886,-3.42512 -0.491772,-6.85024 -0.737658,-10.27571 l -0.737659,-10.27572 c -0.138641,-1.93145 -0.277283,-3.86291 -0.415925,-5.79437 -0.01129,-0.15628 -0.233539,-0.26847 -0.352777,-0.30551 -0.204612,-0.0642 -0.473428,-0.0547 -0.676981,-7e-4 -0.307975,0.0815 -0.703439,0.25964 -0.773642,0.59161 -0.112183,-0.002 -0.224719,0.009 -0.322086,0.0353 -0.401108,0.10795 -0.802922,0.37747 -0.759178,0.83608 0.31362,3.30482 0.603956,6.61176 0.869245,9.92117 0.26423,3.296 0.504119,6.59447 0.720019,9.89401 0.121709,1.86196 0.235656,3.72427 0.341842,5.58694 0.01482,0.26105 0.371475,0.39511 0.576086,0.42968 0.196497,0.0335 0.40887,0.0342 0.620889,0.003 0.06491,0.042 0.13582,0.073 0.187678,0.0896 0.204258,0.0635 0.473428,0.0543 0.677333,7.1e-4 0.349956,-0.0928 0.813506,-0.31045 0.782814,-0.73625"
       style="fill:#bf7340;fill-opacity:1;fill-rule:nonzero;stroke:none;stroke-width:0.0352778"
       id="path699" />
    <path
       d="m -51.723029,73.929124 c -1.302809,-1.10313 -3.261078,-0.99377 -4.687359,-0.19861 -0.07232,0.0399 -0.241653,0.16475 -0.214842,0.27764 0.02716,0.115 0.233186,0.14499 0.316795,0.15204 0.432505,0.0342 0.891469,-0.09 1.269294,-0.29774 7.06e-4,-3.5e-4 0.0014,-3.5e-4 0.0018,-3.5e-4 -0.07479,0.0416 -0.04022,0.0226 0.0074,-0.001 0.006,-3.6e-4 0.01164,-7.1e-4 0.01729,-10e-4 0.01905,0.002 0.108655,0.003 0.129469,0.005 0.05891,0.005 0.117828,0.0123 0.176389,0.0208 0.01164,0.004 0.108303,0.0229 0.130175,0.0279 0.498828,0.12417 0.929217,0.37747 1.301044,0.73342 0.762706,0.72954 1.157464,1.78329 1.301398,2.81129 0.26423,1.88454 -0.378178,3.90207 -1.599848,5.3086 -0.179563,0.20672 -0.371122,0.40287 -0.573969,0.58631 -0.101247,0.0917 -0.20567,0.18027 -0.312561,0.26529 -0.01905,0.0152 -0.08537,0.0663 -0.09631,0.0748 -0.04939,0.0363 -0.09948,0.072 -0.14993,0.10689 -0.105481,0.072 -0.213078,0.14076 -0.322086,0.20673 -0.06315,0.0374 -0.126647,0.0734 -0.190147,0.10936 -3.53e-4,0 -7.06e-4,3.6e-4 -0.0011,3.6e-4 -0.01764,0.009 -0.03881,0.0201 -0.04551,0.0236 -0.325261,0.16263 -0.663222,0.29739 -1.000125,0.4325 -0.169334,0.0681 -0.614186,0.38135 -0.226836,0.49318 0.404636,0.11642 0.892528,-0.0356 1.265766,-0.1852 1.145823,-0.45897 2.208389,-1.034 3.069167,-1.93534 0.747536,-0.78246 1.329267,-1.72579 1.675695,-2.75132 0.693561,-2.05175 0.517878,-4.77484 -1.241072,-6.26462"
       style="fill:#bf7340;fill-opacity:1;fill-rule:nonzero;stroke:none;stroke-width:0.0352778"
       id="path701" />
    <path
       d="m -41.428973,100.11511 c -0.0018,-7e-4 -0.02293,-0.008 -0.04022,-0.0127 -0.01517,-0.007 -0.03316,-0.0155 -0.03492,-0.0166 -0.05715,-0.0332 -0.112889,-0.0667 -0.166511,-0.104416 -0.108303,-0.0765 -0.147814,-0.11818 -0.269875,-0.22542 -0.228247,-0.19968 -0.455789,-0.40041 -0.682625,-0.60255 -0.462845,-0.41134 -0.922867,-0.82585 -1.379714,-1.24354 -0.905228,-0.82726 -1.798814,-1.66688 -2.681111,-2.51848 -1.763889,-1.70357 -3.481564,-3.45546 -5.149851,-5.25286 -0.941564,-1.01459 -1.8669,-2.04364 -2.776714,-3.08681 -0.269522,-0.30868 -0.865364,-0.22754 -1.196975,-0.0825 -0.237067,0.10337 -0.770114,0.43815 -0.488244,0.76094 1.63583,1.87537 3.323519,3.70593 5.06095,5.48817 1.737431,1.78188 3.524603,3.51543 5.358342,5.19783 0.518936,0.47625 1.0414,0.94826 1.567745,1.41605 0.254,0.225766 0.508705,0.450846 0.764822,0.674506 0.307975,0.26846 0.602192,0.49741 0.999772,0.61454 0.400756,0.11818 0.981781,-0.005 1.281642,-0.30375 0.274108,-0.2734 0.220486,-0.58808 -0.166511,-0.70238"
       style="fill:#bf7340;fill-opacity:1;fill-rule:nonzero;stroke:none;stroke-width:0.0352778"
       id="path703" />
    <path
       d="m -55.44413,73.404904 c 0.109714,-0.0466 0.217664,-0.0963 0.329495,-0.13829 0.0071,-0.002 0.01376,-0.005 0.02081,-0.007 0.0046,-0.001 0.0088,-0.002 0.0134,-0.004 0.08467,-0.0222 0.170039,-0.0406 0.255764,-0.0582 0.06138,-0.007 0.122414,-0.0138 0.183797,-0.0187 0.135467,-0.0109 0.575381,0.009 0.06985,-0.0116 0.121003,0.005 0.241653,0.005 0.362303,0.0141 0.121356,0.01 0.240595,0.0275 0.361245,0.0399 -0.432506,-0.0438 -0.01164,0.001 0.108302,0.0286 0.127353,0.0286 0.253648,0.0621 0.378531,0.10054 0.05856,0.0176 0.116417,0.0363 0.174272,0.0561 0.01517,0.005 0.03739,0.0138 0.06032,0.0226 0.413103,0.18027 0.800806,0.3937 1.161345,0.66428 0.468841,0.39723 0.850547,0.87559 1.147586,1.41287 0.415219,0.84244 0.610306,1.76989 0.613833,2.70687 -0.02999,0.88194 -0.225777,1.74907 -0.581378,2.55658 -0.205669,0.41875 -0.45085,0.81633 -0.734836,1.1871 -0.07055,0.0928 -0.143933,0.18415 -0.219075,0.2734 -0.02469,0.0293 -0.04974,0.0579 -0.07479,0.0868 0.0074,-0.008 0.0127,-0.0127 0.02117,-0.0215 -0.01235,0.0123 -0.02399,0.0254 -0.03598,0.0388 -0.0085,0.01 -0.01623,0.0187 -0.02434,0.0286 -0.02046,0.0233 -0.0508,0.0519 -0.0575,0.0561 -0.16263,0.16933 -0.332669,0.33232 -0.509764,0.48718 -0.173214,0.15135 -0.354189,0.29316 -0.537633,0.4311 -3.53e-4,3.5e-4 -3.53e-4,3.5e-4 -7.06e-4,7e-4 -0.04868,0.0335 -0.09737,0.0663 -0.146402,0.0988 -0.106186,0.0702 -0.214489,0.13829 -0.323498,0.20426 -0.200377,0.1203 -0.405694,0.23037 -0.61348,0.33761 -0.05045,0.0236 -0.101247,0.0469 -0.1524,0.0695 -0.117122,0.0519 -0.235303,0.1016 -0.354189,0.14887 -0.137583,0.0547 -0.276225,0.10654 -0.415925,0.15487 -0.03951,0.0138 -0.07902,0.0268 -0.118886,0.0402 -0.07408,0.0215 -0.148872,0.0409 -0.222956,0.0607 -0.146755,-2.09832 -0.272697,-4.1977 -0.372886,-6.29884 -0.07126,-1.48978 -0.127705,-2.98027 -0.175683,-4.47111 0.06315,-0.0384 0.123825,-0.0808 0.183091,-0.12453 0.0575,-0.037 0.1143,-0.0748 0.172862,-0.11007 0.118533,-0.0713 0.51823,-0.23953 0.05433,-0.043 z m 16.029871,25.70339 c -1.957564,-1.85667 -3.915834,-3.71405 -5.874103,-5.57107 -1.957917,-1.85667 -3.916187,-3.71369 -5.874104,-5.57072 -0.860425,-0.81562 -1.720497,-1.63159 -2.581275,-2.44721 2.758723,-1.03223 5.246512,-3.07199 6.025445,-5.97782 0.408164,-1.52224 0.333375,-3.25367 -0.375355,-4.67713 -0.356306,-0.71614 -0.805745,-1.35396 -1.433337,-1.85702 -0.655108,-0.52529 -1.3716,-0.90382 -2.178755,-1.14618 -1.531762,-0.45967 -3.217687,-0.34572 -4.681362,0.28011 -0.0025,-7.1e-4 -0.006,-0.001 -0.0078,-0.002 -0.31115,-0.0649 -0.700969,-0.0296 -1.004005,0.0487 -0.438503,0.11324 -1.230137,0.36618 -1.214614,0.93486 0.0949,3.36303 0.24765,6.72465 0.459669,10.08203 0.212372,3.35774 0.483306,6.71196 0.813506,10.05982 0.185208,1.88418 0.389819,3.76661 0.612422,5.64656 0.02469,0.20637 0.350308,0.30727 0.500944,0.33902 0.311503,0.0649 0.700617,0.03 1.004359,-0.0487 0.317147,-0.0819 0.664986,-0.19191 0.918633,-0.40711 0.162278,-0.13793 0.323145,-0.29422 0.295275,-0.52775 -0.395464,-3.34116 -0.733072,-6.68902 -1.011767,-10.04183 -0.01517,-0.18344 -0.02822,-0.36688 -0.04304,-0.55033 1.309158,1.24178 2.618669,2.48321 3.927828,3.72498 1.958269,1.85667 3.916186,3.7137 5.874456,5.57072 1.105605,1.0481 2.211211,2.09656 3.316464,3.145356 0.45085,0.42722 1.264002,0.33726 1.792816,0.10972 0.263878,-0.11395 0.583495,-0.267056 0.733425,-0.525986 0.1016,-0.17533 0.180623,-0.42404 0.0042,-0.59091"
       style="fill:#e7c079;fill-opacity:1;fill-rule:nonzero;stroke:none;stroke-width:0.0352778"
       id="path705" />
    <path
       d="m -51.910002,82.418724 c 0.0127,-0.0127 0.02575,-0.0254 0.0381,-0.0381 0.01482,-0.0155 0.02928,-0.031 0.04375,-0.0466 0.0053,-0.006 0.0099,-0.0116 0.01482,-0.0173 -0.08255,0.0825 -0.103363,0.10619 -0.09666,0.10195"
       style="fill:#e7c079;fill-opacity:1;fill-rule:nonzero;stroke:none;stroke-width:0.0352778"
       id="path707" />
    <path
       d="m -37.974573,85.530224 c -0.109714,-2.3749 -0.267758,-4.75368 -0.311856,-7.13105 -0.02469,-1.31127 0.03457,-2.62467 0.310445,-3.91054 0.09772,-0.45473 -1.016,-0.33197 -1.102431,0.0695 -0.4953,2.30928 -0.3048,4.69688 -0.196144,7.03615 0.111478,2.40842 0.222955,4.81683 0.334433,7.22524 0.06385,1.37654 0.127353,2.75273 0.191206,4.12892 0.01129,0.24341 0.472369,0.21695 0.619478,0.1852 0.207786,-0.0452 0.49918,-0.17427 0.487538,-0.42474 l -0.332669,-7.17868"
       style="fill:#ffffff;fill-opacity:1;fill-rule:nonzero;stroke:none;stroke-width:0.0352778"
       id="path719-2" />
    <path
       d="m -30.236496,95.119944 c 0.67177,-0.21114 1.27358,-0.5225 1.81643,-0.8918 0.10937,0.0214 0.21659,0.0389 0.31527,0.0519 -0.0372,0.0243 -0.0739,0.0493 -0.11426,0.0718 -0.62533,0.34868 -1.30687,0.60132 -2.01744,0.76809 z m -3.47768,0.17121 c 0.15794,-0.0496 0.30671,-0.107 0.44846,-0.16729 0.0165,0.0133 0.0342,0.0266 0.052,0.0397 0.0204,0.0551 0.058,0.11692 0.10907,0.18217 -0.20377,-0.013 -0.40722,-0.0303 -0.60946,-0.0545 z m -0.0804,-0.82733 c -0.0146,0.0806 -0.0394,0.15972 -0.0721,0.23724 -0.0522,-0.0386 -0.0984,-0.0817 -0.13533,-0.12867 -0.0388,-0.0496 -0.0678,-0.10179 -0.0938,-0.15503 -0.0232,-0.0851 -0.0428,-0.17043 -0.0584,-0.25577 0.11915,0.0987 0.23615,0.19809 0.36048,0.29387 -3e-4,0.003 -3e-4,0.006 -8.6e-4,0.008 z m -2.493398,0.1866 c 0.152138,-0.0464 0.299688,-0.10439 0.425548,-0.16703 0.008,0.0365 0.014,0.0733 0.0223,0.10988 0.0177,0.0822 0.0434,0.1652 0.0764,0.24585 -0.1778,-0.0582 -0.35223,-0.12162 -0.524225,-0.1887 z m -1.837457,-13.45845 c -0.240726,0.18322 -0.474723,0.37061 -0.699255,0.56348 0.672073,-1.00716 1.547905,-1.94568 2.76344,-2.65009 0.5395,-0.3124 1.16178,-0.57157 1.82255,-0.76078 -1.40708,0.49092 -2.559387,1.20107 -3.369234,2.15734 -0.190015,0.22419 -0.361699,0.45438 -0.517501,0.69005 z m -0.783573,11.81918 c -0.184517,-0.18165 -0.352538,-0.368 -0.508946,-0.55695 0.07915,-0.0206 0.149689,-0.0462 0.212929,-0.0746 0.095,0.13597 0.188483,0.27247 0.289903,0.40662 0.06417,0.0851 0.195212,0.13702 0.355595,0.16233 0.02442,0.048 0.04615,0.0963 0.07083,0.14381 0.08434,0.16181 0.17016,0.3325 0.264557,0.50267 -0.245921,-0.18244 -0.47565,-0.37713 -0.684907,-0.58384 z m 5.271508,-13.46524 c -0.10356,0.9915 -0.18604,1.98404 -0.25081,2.97737 -0.13349,-0.15581 -0.39194,-0.28213 -0.60731,-0.36538 0.12708,-0.57496 0.27402,-1.14784 0.47076,-1.71079 0.106,-0.30249 0.23401,-0.6055 0.38736,-0.9012 z m 1.70493,-1.00037 c 0.073,0.0133 0.14297,0.0128 0.20559,-0.006 0.03,-0.009 0.0614,-0.0151 0.0917,-0.024 0.10692,0.12345 0.24409,0.23515 0.39347,0.31005 0.0204,0.11771 0.043,0.23489 0.0644,0.35234 -0.13533,-0.15242 -0.32137,-0.29466 -0.50283,-0.39488 -0.0352,-0.0193 -0.15061,-0.0733 -0.26639,-0.10805 0.004,-0.0431 0.009,-0.0861 0.014,-0.12919 z m -3.08146,0.98758 c -0.20713,0.0256 -0.40355,0.0697 -0.54316,0.12423 0.28319,-0.26464 0.60303,-0.50736 0.96565,-0.70284 -0.15886,0.18556 -0.29511,0.38052 -0.42249,0.57861 z m 0.9244,13.26532 c 0.0372,-0.13624 0.0812,-0.27247 0.13687,-0.40766 0.0332,-0.0812 -0.15031,-0.17957 -0.406,-0.26491 0.0605,-0.20122 0.12189,-0.40192 0.17901,-0.60341 0.076,0.0418 0.15763,0.0775 0.24103,0.10675 0.0244,0.42959 0.0526,0.85891 0.0831,1.2885 -0.077,-0.0412 -0.15489,-0.0812 -0.23401,-0.11927 z m 3.4786,-10.53041 c 0.006,0.054 0.009,0.10805 0.015,0.16182 -0.002,-0.002 -0.003,-0.004 -0.005,-0.007 -0.0816,-0.19157 -0.1668,-0.38261 -0.25233,-0.57314 -0.008,-0.0449 -0.0196,-0.089 -0.0268,-0.13362 0.0901,0.18373 0.1775,0.36825 0.26914,0.55147 z m 0.93297,-3.30595 c 0.007,0.16338 0.0156,0.32676 0.0238,0.49014 -0.13044,0.11953 -0.17871,0.25733 -0.073,0.39566 0.0342,0.0451 0.065,0.0914 0.099,0.13676 0.003,0.0835 0.007,0.16703 0.0119,0.25054 -0.1002,-0.003 -0.17444,0.035 -0.16588,0.15164 0.002,0.0227 0.002,0.0457 0.004,0.0684 -0.0773,-0.36069 -0.15916,-0.72085 -0.25172,-1.07971 -0.0424,-0.16417 -0.1668,-0.32285 -0.32382,-0.46143 0.22789,0.005 0.45334,0.0206 0.67575,0.048 z m 3.68357,1.70713 c 0.0971,0.0963 0.18696,0.19522 0.27311,0.29544 0.0269,0.11745 0.0428,0.23724 0.0636,0.35599 -0.055,-0.0705 -0.11822,-0.13806 -0.17932,-0.20618 -0.16802,-0.31501 -0.38706,-0.61359 -0.6626,-0.88423 0.18114,0.13884 0.35069,0.28552 0.50527,0.43898 z m 1.63712,5.4479 c -0.0113,0.87066 -0.0733,1.75045 -0.22179,2.61746 -0.0718,-0.0235 -0.14938,-0.0457 -0.23125,-0.0665 0.21781,-0.84299 0.37056,-1.69408 0.45304,-2.55091 z m -0.2612,-5.29391 c -0.0773,-0.0979 -0.15977,-0.19444 -0.245,-0.29049 -0.0358,-0.0752 -0.0662,-0.15189 -0.10662,-0.22601 -0.59387,-1.09094 -1.7477,-2.0553 -3.23451,-2.58328 -0.53644,-0.19026 -1.1025,-0.32336 -1.67865,-0.39461 -2.04341,-0.74878 -4.52704,-0.50293 -6.436343,0.34842 -2.049516,0.91372 -3.342043,2.47548 -4.209016,4.03281 -1.876309,3.37068 -2.56274,7.24402 -0.212929,10.56407 6.15e-4,0.001 8.66e-4,0.003 0.0017,0.004 0.0078,0.0167 0.02234,0.0311 0.03455,0.0465 0.08183,0.11353 0.157629,0.22837 0.246528,0.3406 1.163908,1.47015 2.971174,2.74274 5.20796,3.36833 2.17478,0.60863 4.6639,0.67335 6.79132,-0.0723 2.12314,-0.74408 3.52869,-2.21841 4.30952,-3.75851 0.93571,-1.8452 1.05363,-3.88718 1.10068,-5.82973 0.0462,-1.90131 -0.23737,-3.86212 -1.5693,-5.54994"
       style="fill:#d8673f;fill-opacity:1;fill-rule:nonzero;stroke:none;stroke-width:0.0282364"
       id="path677-9" />
    <path
       d="m -25.326996,85.701984 c -0.0886,-0.11875 -0.32076,-0.14094 -0.46587,-0.13937 -2.03241,0.0217 -4.06299,0.10413 -6.08868,0.2435 0.57095,-0.71589 1.14924,-1.42761 1.7425,-2.1302 0.61953,-0.73364 1.25128,-1.45971 1.89403,-2.17848 0.24439,-0.27325 -0.30763,-0.66213 -0.55171,-0.38861 -1.23203,1.37698 -2.41733,2.78345 -3.56169,4.2142 -0.0128,-0.98758 -0.0156,-1.97517 -0.009,-2.96275 0.008,-1.1173 0.0288,-2.23407 0.0614,-3.35085 0.004,-0.15581 -0.24347,-0.20435 -0.37941,-0.17643 -0.18451,0.0378 -0.30213,0.16129 -0.30702,0.31919 -0.0638,2.16126 -0.0791,4.32356 -0.0486,6.48533 -0.41485,-0.54181 -0.83123,-1.08337 -1.2522,-1.62179 -0.63083,-0.80724 -1.26808,-1.61056 -1.91144,-2.41076 -0.09898,-0.12345 -0.279823,-0.15972 -0.447228,-0.12527 -0.106616,0.0217 -0.335427,0.13884 -0.235227,0.26334 1.115035,1.38715 2.209295,2.78684 3.287055,4.19567 -1.12023,0.0955 -2.23832,0.20696 -3.353656,0.33876 -1.049048,0.12397 -2.095039,0.26516 -3.138588,0.41993 -0.149992,0.0222 -0.151213,0.1412 -0.05196,0.21401 0.131668,0.0968 0.332369,0.11223 0.495194,0.0879 2.088319,-0.30979 4.19008,-0.55277 6.29918,-0.7339 0.0404,0.0527 0.0806,0.10492 0.12067,0.15738 -0.69743,0.89754 -1.37898,1.80396 -2.04128,2.72055 -0.57035,0.79002 -1.127252,1.58682 -1.672247,2.38988 -0.09226,0.1365 0.06382,0.32207 0.203152,0.38053 0.172905,0.0723 0.340622,0.0235 0.433184,-0.11327 1.048131,-1.5448 2.150031,-3.06324 3.296221,-4.5561 0.0314,1.26215 0.077,2.52429 0.14053,3.78566 0.0565,1.11625 0.12555,2.23172 0.20651,3.34667 0.0248,0.33772 0.70934,0.16912 0.68643,-0.1425 -0.15947,-2.19414 -0.26944,-4.39037 -0.33237,-6.58764 0.68673,0.91346 1.36889,1.82953 2.03852,2.75213 0.59876,0.82499 1.1911,1.65285 1.77733,2.48436 0.14908,0.21167 0.81443,0.15869 0.68246,-0.1378 -0.0632,-0.14224 -0.12647,-0.28448 -0.18971,-0.42672 -0.0314,-0.0705 -0.1118,-0.11144 -0.20712,-0.12867 -1.34323,-1.89321 -2.72068,-3.76869 -4.12897,-5.62693 -8.7e-4,-0.0611 -0.002,-0.12214 -0.003,-0.18322 0.0553,-0.0694 0.1112,-0.13858 0.16649,-0.20826 1.17735,-0.0877 2.35684,-0.15738 3.53725,-0.20514 1.04355,-0.0423 2.08801,-0.0684 3.13278,-0.0793 0.12311,-10e-4 0.25753,-0.0757 0.17596,-0.18505"
       style="fill:#ffffff;fill-opacity:1;fill-rule:nonzero;stroke:none;stroke-width:0.0282364"
       id="path679-1" />
    <path
       d="m -14.158786,81.564124 c 0.0059,1.23357 -0.147826,2.46305 -0.08697,3.69756 0.01784,0.35896 -0.169198,0.3706 -0.40875,0.3404 -0.312582,-8.9e-4 -0.62486,-0.007 -0.937139,-0.002 -0.224414,0.004 -0.338406,-0.0371 -0.225904,-0.32405 0.540261,-1.37891 1.120297,-2.74115 1.562588,-4.16254 v 0 0 c 0.146345,0.1227 0.06681,0.29983 0.0947,0.45083 2.94e-4,6.4e-4 2.94e-4,8.9e-4 2.94e-4,8.9e-4 5.98e-4,-6.2e-4 5.98e-4,-0.002 8.42e-4,-0.002 z m 7.051545,13.75862 c -0.145159,-1.46543 -0.304857,-2.92771 -0.561036,-4.37332 -0.47881,-2.70686 -1.011944,-5.40429 -1.322144,-8.14041 -0.275474,-2.43189 -0.762294,-4.80244 -1.552793,-7.09999 -0.216993,-0.63047 -0.412916,-1.27353 -0.778332,-1.82943 -0.559253,-0.85038 -1.609188,-0.77896 -2.027741,0.14377 -0.453583,0.99887 -0.818991,2.05091 -1.34233,3.00448 -1.267231,2.31014 -2.26285,4.76595 -3.413717,7.13806 -1.070416,2.20665 -1.837758,4.55926 -2.744622,6.84361 -0.916363,2.3092 -1.638579,4.70649 -2.553453,7.02104 -0.226796,0.57446 -0.474358,1.15114 -0.507015,1.79419 -0.01161,0.224306 0.03559,0.352986 0.284082,0.359276 0.584487,0.0148 1.169866,0.0403 1.752275,0.0947 0.336319,0.0317 0.528085,-0.0956 0.670273,-0.419996 0.399554,-0.91298 0.78901,-1.82722 1.073689,-2.79242 0.860256,-2.9167 2.0693,-5.6868 3.126068,-8.52077 0.07775,-0.20858 0.216101,-0.22588 0.390946,-0.22273 0.694018,0.0132 1.387448,0.002 2.081172,0.0736 0.279925,0.029 0.358887,0.11231 0.374916,0.41055 0.06681,1.23735 0.201258,2.46745 0.369868,3.69441 0.190277,1.38395 0.342259,2.77387 0.530761,4.15814 0.149315,1.09514 0.225895,2.20254 0.479996,3.28133 0.06858,0.291316 0.160001,0.444526 0.485045,0.432576 0.803558,-0.0299 1.608598,-0.0101 2.413049,-0.0101 0,-0.004 0,-0.009 0,-0.0136 0.818107,0 1.636206,-0.005 2.454313,0.003 0.311092,0.003 0.462477,-0.0912 0.464261,-0.476936 0.0067,-1.52018 0.0034,-3.03563 -0.147531,-4.55265"
       style="fill:#dfa6a8;fill-opacity:1;fill-rule:nonzero;stroke:none;stroke-width:0.0305596"
       id="path933" />
    <path
       d="m -11.391008,81.400224 c -0.122591,-1.59725 -0.236876,-3.19513 -0.342848,-4.79364 -0.01868,-0.27779 -0.906266,-0.089 -0.88401,0.25106 0.376994,5.68365 0.860256,11.35943 1.45187,17.02232 0.166237,1.59285 0.341073,3.18444 0.524526,4.77508 0.03298,0.28692 0.922001,0.0821 0.883412,-0.25105 -0.650987,-5.65566 -1.195994,-11.32484 -1.63295,-17.00377"
       style="fill:#c67379;fill-opacity:1;fill-rule:nonzero;stroke:none;stroke-width:0.0305596"
       id="path935" />
    <path
       d="m -8.850311,91.513824 c -0.0034,-0.19694 -0.888756,-0.045 -0.884002,0.25074 0.03475,2.00813 0.23718,4.00807 0.605558,5.97812 0.04392,0.23407 0.933285,0.0119 0.884009,-0.25073 -0.368386,-1.97037 -0.571133,-3.97001 -0.605565,-5.97813"
       style="fill:#c67379;fill-opacity:1;fill-rule:nonzero;stroke:none;stroke-width:0.0305596"
       id="path937" />
    <path
       d="m -9.266787,88.041214 c -0.02314,-0.10634 -0.06504,-0.20292 -0.111315,-0.30013 -0.03711,-0.0777 -0.08313,-0.14912 -0.138031,-0.21393 -0.06799,-0.0799 -0.151091,-0.12239 -0.252317,-0.13654 -0.110129,-0.0157 -0.249944,0.009 -0.348798,0.0639 -0.08905,0.0497 -0.187601,0.12081 -0.225895,0.22432 -0.03113,0.083 -0.04367,0.19033 0.01843,0.26332 0.04569,0.0538 0.08339,0.11325 0.116658,0.17587 0.03745,0.0915 0.06176,0.18687 0.07329,0.28566 0.0017,0.096 -0.0067,0.19128 -0.03113,0.28409 -0.02289,0.0865 0.04746,0.19221 0.107756,0.23815 0.08044,0.0607 0.206003,0.0849 0.302181,0.0743 0.116364,-0.0126 0.240444,-0.049 0.33217,-0.1293 0.0255,-0.0255 0.05108,-0.051 0.07657,-0.0764 0.04216,-0.0507 0.06799,-0.10917 0.0775,-0.17587 0.04897,-0.1853 0.04426,-0.39074 0.0034,-0.5773"
       style="fill:#c67379;fill-opacity:1;fill-rule:nonzero;stroke:none;stroke-width:0.0305596"
       id="path939" />
    <path
       d="m 8.66127,81.065254 c 0.256697,0.21781 0.411726,0.4651 0.399018,0.75 -0.132156,-0.25009 -0.264319,-0.49992 -0.399018,-0.75 z m -1.949346,-2.28101 c -0.142321,0.0856 -0.327853,0.0117 -0.462552,-0.122 -0.424434,-0.41782 -0.963237,-0.74059 -1.537621,-1.03719 -0.45493,-0.2361 -1.003898,-0.34945 -1.425789,-0.6275 v -2.5e-4 c -0.429513,-0.16622 -0.85649,-0.33243 -1.28601,-0.49865 h -0.0029 c -0.277027,-0.0704 -0.554054,-0.1408 -0.831081,-0.21094 v 0 c -0.284649,-0.0277 -0.536259,-0.16368 -0.833616,-0.13953 v 0 0 c -0.188069,-0.032 -0.378687,-0.064 -0.566755,-0.0961 0.226193,-0.0267 0.452386,-0.0991 0.658249,0.0259 0.287192,-0.002 0.566762,0.0333 0.833617,0.11258 0.02795,0.004 0.06102,0.0148 0.09404,0.0272 0.27194,0.0226 0.53118,0.0686 0.747208,0.20636 0.510842,0.0859 0.950528,0.28898 1.390206,0.49179 1.059818,0.31845 2.051007,0.72128 2.846498,1.35514 0.08387,0.0674 0.195698,0.12606 0.243988,0.20636 0.05843,0.1004 0.322775,0.19418 0.132156,0.30677 z m -0.01779,5.89352 c -0.221114,-0.61682 -0.142328,-1.17647 -0.12199,-1.73407 0.10166,0.55379 0.216028,1.10683 0.12199,1.73407 z m -0.843782,3.08591 c -0.0559,-0.2206 -0.08133,-0.43968 0.0076,-0.72763 0.249067,0.30599 -0.02032,0.50931 -0.0076,0.72763 z m -0.317688,-7.22197 c -0.538802,-0.16622 -0.670965,0.12148 -0.856497,0.37665 -0.03047,0.0419 -0.07118,0.12097 -0.15503,0.0498 -0.03307,-0.0264 -0.01527,-0.0872 -0.02032,-0.13216 -0.180446,-0.66536 -0.42952,-1.31777 -0.744665,-1.99661 0.388852,0.12961 0.627754,0.31566 0.83616,0.52939 0.05079,0.0389 0.10166,0.0778 0.152486,0.11666 -0.358349,0.22798 0.05843,0.43511 0.03047,0.65419 0.134699,0.0473 0.264319,0.10394 0.40664,0.008 0.155036,-0.10547 0.261775,-0.0661 0.330396,0.0686 v 0 c 0.03047,0.0452 0.05843,0.0905 0.08642,0.13596 0.162658,0.10522 0.08895,0.23713 -0.06606,0.18935 z m 0.06102,1.70764 c -0.396475,-0.20205 -0.439679,-0.41808 -0.147408,-0.92994 0.177911,0.33192 0.195698,0.62572 0.147408,0.92994 z M 4.91256,92.637794 c -0.05843,-0.17206 -0.06606,-0.29914 0.23128,-0.43155 -0.05338,0.20459 -0.06354,0.32557 -0.23128,0.43155 z m -1.906142,-0.12656 c -0.03559,0.38478 -0.142321,0.76576 -0.218564,1.14851 -0.254153,-0.38225 -0.465102,-0.75585 -0.505763,-1.16122 -0.01016,-0.0971 -0.06858,-0.31566 0.109282,-0.2755 0.210949,0.0481 0.643005,-0.0236 0.615045,0.28821 z m -0.759909,2.87165 c -0.21095,0.16673 -0.419348,0.33828 -0.785327,0.39165 0.111825,-0.34819 0.208399,-0.65825 0.322767,-1.01711 0.213492,0.15248 0.289736,0.35352 0.515929,0.45442 0.106746,0.0483 0.0076,0.12276 -0.05338,0.17104 z M 1.204464,80.362524 c -0.0559,-0.10827 -0.06606,-0.2018 0.01016,-0.30778 0.05591,0.10827 0.06858,0.2018 -0.01016,0.30778 z m -0.899694,9.26866 c -0.162659,0.0132 -0.165202,-0.0877 -0.15758,-0.16596 0.05843,-0.50017 -0.104196,-0.9917 -0.09403,-1.48958 v 0 c 0.0559,-0.67834 -0.160116,-1.34981 -0.09404,-2.02865 v 0 c -0.175367,-0.29761 -0.06858,-0.60411 -0.04323,-0.90909 0.0076,0.30701 0.09657,0.60589 0.134699,0.90935 -0.03047,0.49203 0.160115,0.97594 0.09404,1.46899 0.198233,0.37234 0.07624,0.77135 0.162651,1.15716 0.06606,0.28922 0.09658,0.59446 0.111832,0.8941 0.005,0.0671 0.0076,0.15402 -0.114368,0.16368 z m -0.104203,6.21604 c -0.221115,-0.11691 -0.132163,-0.25898 -0.137242,-0.45417 0.226193,0.1713 0.177903,0.30016 0.137242,0.45417 z m -1.476622,0.52025 c -0.213493,0.0228 -0.35327,-0.0216 -0.348191,-0.21959 0.01268,-0.41223 0.005,-0.82447 0.005,-1.23645 0.144864,0.23637 0.203319,0.48264 0.327853,0.71722 0.119454,0.22619 0.259239,0.43892 0.480347,0.65648 -0.177903,0.0321 -0.320231,0.0666 -0.465096,0.0823 z m -0.803121,-16.71759 v 0 c 0,0.58226 0,1.16478 -0.0029,1.74704 v 0 0 c 0,0.79346 0.0029,1.58666 0.0029,2.38013 v 0 c 0,0.36826 0,0.73653 0,1.10454 -0.03047,5.1e-4 -0.06102,7.2e-4 -0.0915,10e-4 0,-0.36877 0,-0.73754 0,-1.10607 0.06102,-0.97696 -0.147407,-1.94934 -0.09149,-2.9263 0.0076,-0.12301 -0.05843,-0.25898 0.08895,-0.36369 v 0 c 0,-0.48873 0.0029,-0.97772 0.0029,-1.46696 0.03559,-0.44197 0.07371,-0.8842 0.109282,-1.32642 0.01016,0.65368 0.190618,1.30787 -0.01779,1.9562 z m 11.942589,0.79346 c -0.56422,-0.77974 -1.303799,-1.46824 -1.92393,-2.21696 -0.338019,-0.40792 -0.777704,-0.74772 -1.301255,-1.025 -1.748563,-0.92993 -3.664871,-1.59124 -5.79212,-1.79456 -1.151305,-0.1103 -2.343278,-0.12504 -3.446292,0.29608 -0.238909,0.0905 -0.490519,0.18249 -0.790412,0.17384 -0.648092,-0.018 -0.803121,0.10497 -0.81583,0.60921 -0.01268,0.46636 0.03307,0.93552 -0.02284,1.39859 -0.188076,1.57244 -0.340562,3.14741 -0.426978,4.72392 -0.07624,1.34751 -0.139777,2.69629 -0.185525,4.04432 -0.05338,1.60598 -0.01268,3.21374 -0.01268,4.82049 -0.172824,1.04914 -0.04827,2.09573 0.01268,3.14132 0.05843,0.99449 0.233816,1.98518 0.355806,2.97789 0.03559,0.2816 0.294822,0.44985 0.604888,0.44629 1.021685,-0.0115 2.020503,0.2356 3.037109,0.14461 1.509661,-0.1347 3.03203,-0.16799 4.541691,-0.33141 1.555408,-0.1685 2.765169,-0.68901 3.649619,-1.68731 1.537614,-1.73739 2.442394,-3.67148 3.174351,-5.662 0.569306,-1.55032 0.528637,-3.15224 0.625218,-4.73738 0.06102,-0.99551 -0.06606,-1.99662 -0.264318,-2.98578 -0.162659,-0.82066 -0.48289,-1.59912 -1.019149,-2.33616"
       style="fill:#c1d9c8;fill-opacity:1;fill-rule:nonzero;stroke:none;stroke-width:0.0254152"
       id="path841" />
    <path
       d="m 0.307302,88.573404 c -0.08641,-0.38581 0.03559,-0.78482 -0.162652,-1.15716 -0.04063,0.18554 0.09403,0.38759 -0.09149,0.5594 -0.01016,0.49788 0.152486,0.98941 0.09403,1.48958 -0.0076,0.0783 -0.005,0.17918 0.15758,0.16596 0.12199,-0.01 0.119447,-0.0966 0.114368,-0.16368 -0.01527,-0.29964 -0.04575,-0.60488 -0.111832,-0.8941"
       style="fill:#c1d9c8;fill-opacity:1;fill-rule:nonzero;stroke:none;stroke-width:0.0254152"
       id="path843" />
    <path
       d="m -2.173218,80.487064 v 0 0 c -0.147407,0.1047 -0.08133,0.24068 -0.08895,0.36368 -0.05591,0.97696 0.152493,1.94935 0.09149,2.92631 0.03047,2.5e-4 0.06102,2.5e-4 0.0915,0 v 0 c 0,-0.79347 -0.0029,-1.58667 -0.0029,-2.38013 v 0 c -0.200777,-0.29355 -0.03559,-0.60793 -0.0915,-0.90986"
       style="fill:#c1d9c8;fill-opacity:1;fill-rule:nonzero;stroke:none;stroke-width:0.0254152"
       id="path845" />
    <path
       d="m 5.37763,80.370664 c -0.08133,-0.0979 0,-0.14792 0.134699,-0.15428 -0.06858,-0.1347 -0.17536,-0.17409 -0.330397,-0.0686 -0.142321,0.0958 -0.27194,0.0391 -0.406639,-0.008 0,2.5e-4 0,5e-4 0,5e-4 0,0 0,0 0,-2.5e-4 0.185532,0.34056 0.119447,0.51135 -0.274484,0.69612 0.005,0.045 -0.01268,0.10573 0.02032,0.13216 0.08387,0.0712 0.124534,-0.008 0.155029,-0.0498 0.185533,-0.25517 0.317696,-0.54287 0.856498,-0.37665 0.155029,0.0478 0.228737,-0.0841 0.06606,-0.18935 -0.06354,0.0681 -0.157572,0.0933 -0.221114,0.0183"
       style="fill:#c1d9c8;fill-opacity:1;fill-rule:nonzero;stroke:none;stroke-width:0.0254152"
       id="path847" />
    <path
       d="m 4.775293,80.139884 v 0 c 0.02032,0.2572 0.03307,0.51212 -0.274484,0.69612 0.393931,-0.18477 0.460016,-0.35555 0.274484,-0.69612"
       style="fill:#c1d9c8;fill-opacity:1;fill-rule:nonzero;stroke:none;stroke-width:0.0254152"
       id="path849" />
    <path
       d="m -2.170675,79.020094 c 0.185533,0.19697 0.04827,0.42087 0.0915,0.62954 v 2.5e-4 0 c 0.208406,-0.64834 0.02795,-1.30253 0.01779,-1.9562 -0.03559,0.44222 -0.0737,0.88444 -0.109282,1.32641"
       style="fill:#c1d9c8;fill-opacity:1;fill-rule:nonzero;stroke:none;stroke-width:0.0254152"
       id="path851" />
    <path
       d="m 0.14465,87.416244 c 0.06606,-0.49305 -0.124533,-0.97696 -0.09404,-1.46899 -0.03047,-2.6e-4 -0.06102,-2.6e-4 -0.09149,-2.6e-4 v 0 c -0.06606,0.67884 0.14995,1.35031 0.09404,2.02865 0.127076,-0.17715 -0.03307,-0.38174 0.09149,-0.5594"
       style="fill:#c1d9c8;fill-opacity:1;fill-rule:nonzero;stroke:none;stroke-width:0.0254152"
       id="path853" />
    <path
       d="m 0.14465,87.416244 c -0.124533,0.17766 0.03559,0.38225 -0.09149,0.5594 v 0 c 0.185525,-0.17181 0.05079,-0.37386 0.09149,-0.5594"
       style="fill:#c1d9c8;fill-opacity:1;fill-rule:nonzero;stroke:none;stroke-width:0.0254152"
       id="path855" />
    <path
       d="m 4.775293,80.139634 v 0 c 0.02795,-0.21908 -0.388852,-0.42622 -0.03047,-0.65419 -0.05086,-0.0389 -0.10166,-0.0778 -0.152487,-0.11665 -0.32786,0.30955 0.04323,0.52482 0.18299,0.77084"
       style="fill:#c1d9c8;fill-opacity:1;fill-rule:nonzero;stroke:none;stroke-width:0.0254152"
       id="path857" />
    <path
       d="m 4.775293,80.139884 c 0,-2.5e-4 0,-2.5e-4 0,-2.5e-4 v 0 0 0 0 c -0.139785,-0.24602 -0.51085,-0.46129 -0.182989,-0.77084 -0.365979,0.24093 -0.340562,0.3464 0.182989,0.77109"
       style="fill:#c1d9c8;fill-opacity:1;fill-rule:nonzero;stroke:none;stroke-width:0.0254152"
       id="path859" />
    <path
       d="m 4.775293,80.140144 c 0,0 0,-2.6e-4 0,-5.1e-4 v 0 c 0,2.5e-4 0,2.5e-4 0,5.1e-4"
       style="fill:#c1d9c8;fill-opacity:1;fill-rule:nonzero;stroke:none;stroke-width:0.0254152"
       id="path861" />
    <path
       d="m 4.775293,80.139634 v 2.5e-4 c 0,2.6e-4 0,2.6e-4 0,2.6e-4 v -5.1e-4 0"
       style="fill:#c1d9c8;fill-opacity:1;fill-rule:nonzero;stroke:none;stroke-width:0.0254152"
       id="path863" />
    <path
       d="m 4.775293,80.139884 v 0 -2.5e-4 c 0,0 0,0 0,2.5e-4"
       style="fill:#c1d9c8;fill-opacity:1;fill-rule:nonzero;stroke:none;stroke-width:0.0254152"
       id="path865" />
    <path
       d="m 4.775293,80.139634 v 0 0 5.1e-4 c 0,-2.6e-4 0,-2.6e-4 0,-5.1e-4 v 0"
       style="fill:#c1d9c8;fill-opacity:1;fill-rule:nonzero;stroke:none;stroke-width:0.0254152"
       id="path867" />
    <path
       d="m 9.060288,81.815254 c 0.01268,-0.2849 -0.142321,-0.53219 -0.399018,-0.75 0.134699,0.25008 0.266862,0.49991 0.399018,0.75"
       style="fill:#c1d9c8;fill-opacity:1;fill-rule:nonzero;stroke:none;stroke-width:0.0254152"
       id="path869" />
    <path
       d="m -2.170675,83.777054 c 0,0.36851 0,0.7373 0,1.10607 0.03047,-5.1e-4 0.06102,-7.2e-4 0.0915,-10e-4 0,-0.36802 0,-0.73628 0,-1.10455 -0.03047,0.0313 -0.06102,0.0331 -0.0915,0"
       style="fill:#c1d9c8;fill-opacity:1;fill-rule:nonzero;stroke:none;stroke-width:0.0254152"
       id="path871" />
    <path
       d="m -2.07918,83.777054 c -0.03047,2.5e-4 -0.06102,2.5e-4 -0.0915,0 0.03047,0.0331 0.06102,0.0313 0.0915,0"
       style="fill:#c1d9c8;fill-opacity:1;fill-rule:nonzero;stroke:none;stroke-width:0.0254152"
       id="path873" />
    <path
       d="m 0.050612,85.947254 c -0.03811,-0.30346 -0.127076,-0.60234 -0.134698,-0.90935 -0.02543,0.30498 -0.132163,0.61148 0.04323,0.90909 0.03047,-0.0328 0.06102,-0.0326 0.09149,2.6e-4"
       style="fill:#c1d9c8;fill-opacity:1;fill-rule:nonzero;stroke:none;stroke-width:0.0254152"
       id="path875" />
    <path
       d="m -0.040882,85.946994 c 0.03047,0 0.06102,0 0.09149,2.6e-4 -0.03047,-0.0328 -0.06102,-0.0331 -0.09149,-2.6e-4"
       style="fill:#c1d9c8;fill-opacity:1;fill-rule:nonzero;stroke:none;stroke-width:0.0254152"
       id="path877" />
    <path
       d="m 0.200563,95.847224 c 0.04063,-0.15401 0.08895,-0.28287 -0.137242,-0.45417 0.005,0.19519 -0.08387,0.33726 0.137242,0.45417"
       style="fill:#c1d9c8;fill-opacity:1;fill-rule:nonzero;stroke:none;stroke-width:0.0254152"
       id="path879" />
    <path
       d="m 0.424213,76.078034 c -0.205863,-0.12504 -0.432056,-0.0526 -0.65825,-0.0259 0.188069,0.032 0.378687,0.064 0.566755,0.0961 v 0 c -0.02291,-0.0625 -0.0076,-0.0966 0.0915,-0.0702"
       style="fill:#c1d9c8;fill-opacity:1;fill-rule:nonzero;stroke:none;stroke-width:0.0254152"
       id="path881" />
    <path
       d="m 0.332718,76.148184 c 0.03048,-0.0234 0.06102,-0.0465 0.0915,-0.0702 -0.09912,-0.0264 -0.114368,0.008 -0.0915,0.0702"
       style="fill:#c1d9c8;fill-opacity:1;fill-rule:nonzero;stroke:none;stroke-width:0.0254152"
       id="path883" />
    <path
       d="m 1.20446,80.362524 c 0.07879,-0.10598 0.06606,-0.19951 0.01016,-0.30778 -0.07624,0.10598 -0.06606,0.19951 -0.01016,0.30778"
       style="fill:#c1d9c8;fill-opacity:1;fill-rule:nonzero;stroke:none;stroke-width:0.0254152"
       id="path885" />
    <path
       d="m 7.664995,89.862464 c -0.599794,1.84336 -1.8426,3.40766 -3.509834,4.39708 -1.677398,0.99449 -3.657241,1.38919 -5.576084,0.94442 -0.08896,-4.5727 -0.03811,-9.14793 0.157572,-13.71733 0.05079,-1.22475 0.116911,-2.449 0.188068,-3.67274 3.758908,0.0579 7.408527,2.50212 8.664035,6.09024 0.668415,1.91375 0.70654,4.02855 0.07624,5.95833 z m 1.446126,-5.37303 c -0.526094,-2.12191 -1.786688,-3.96781 -3.520006,-5.28864 -1.962048,-1.49517 -4.450189,-2.26678 -6.910378,-2.18214 -0.198241,0.007 -0.495599,0.0851 -0.645549,0.25847 -0.182989,0.0669 -0.355813,0.17739 -0.363435,0.3426 -0.282113,4.67512 -0.419355,9.35938 -0.409183,14.04315 0.005,1.32311 0.02032,2.64622 0.04575,3.96883 0.0029,0.10395 0.157573,0.2084 0.241438,0.23102 4.20113,1.1292 9.078304,-0.94697 10.941235,-4.93664 0.932733,-1.99636 1.148761,-4.29719 0.620131,-6.43665"
       style="fill:#ffffff;fill-opacity:1;fill-rule:nonzero;stroke:none;stroke-width:0.0254152"
       id="path887" />
    <path
       d="m 32.861373,90.779174 c -0.0438,-0.13615 -0.31973,-0.0786 -0.40624,-0.0588 -0.11096,0.0253 -0.31327,0.0778 -0.39932,0.18892 -0.0429,0.006 -0.0764,0.0125 -0.0893,0.0154 -0.0699,0.0159 -0.1661,0.041 -0.25146,0.0819 -0.01,-0.0217 -0.0196,-0.0429 -0.0272,-0.0653 -0.0835,-0.24916 -0.0403,-0.53447 -0.0235,-0.79134 0.0445,-0.67543 0.089,-1.35062 0.13357,-2.02605 0.0434,-0.6629 0.0872,-1.32556 0.1308,-1.98847 0.0224,-0.33759 0.0445,-0.67543 0.0667,-1.01302 0.0184,-0.27904 0.0685,-0.58724 -0.007,-0.8617 -0.0794,-0.29109 -0.3075,-0.43929 -0.56956,-0.47687 -0.0734,-0.1041 -0.16333,-0.19808 -0.27521,-0.27664 -0.18086,-0.12674 -0.7991,0.004 -0.81548,0.27495 -0.0828,1.3511 -0.1015,2.70582 -0.0526,4.05861 0.0247,0.68266 0.066,1.3646 0.12435,2.04461 0.0309,0.36001 0.0233,0.87013 0.20416,1.23038 0.0805,0.1988 0.19377,0.3764 0.34718,0.50507 -4.6e-4,0.0106 -2.4e-4,0.0214 0.005,0.032 0.33357,0.6282 1.51792,0.37157 1.72762,-0.23687 0.17255,-0.16362 0.2609,-0.37592 0.17647,-0.63688"
       style="fill:#c67379;fill-opacity:1;fill-rule:nonzero;stroke:none;stroke-width:0.0235771"
       id="path379" />
    <path
       d="m 39.092923,99.264364 c -0.0242,-0.094 -0.17901,-0.0976 -0.24729,-0.0935 -0.7968,0.0506 -1.4914,-0.60121 -1.85566,-1.28628 -0.33864,-0.63712 -0.50935,-1.3699 -0.61155,-2.09786 0.24223,-0.0299 0.53958,-0.15929 0.53658,-0.32892 -0.012,-0.64869 -0.024,-1.29762 -0.036,-1.9463 0.001,-0.0571 0.005,-0.11446 0.006,-0.17157 0.0863,-0.047 0.14879,-0.1053 0.15871,-0.16844 0.0826,-0.52265 0.13057,-1.04989 0.14603,-1.57833 l 0.34142,-3.69379 c 0.36471,-1.67521 0.88791,-3.3256 1.06255,-5.03719 0.0422,-0.41543 0.11788,-0.88603 -0.0286,-1.28821 -0.002,-0.005 -0.005,-0.01 -0.007,-0.015 0.0595,-0.21759 0.11903,-0.43519 0.17901,-0.65254 0.0671,-0.2441 -0.76496,-0.12362 -0.83578,0.13374 -0.005,0.0186 -0.0101,0.0374 -0.0154,0.0559 -0.0533,0.002 -0.10796,0.008 -0.16494,0.0202 -0.1338,0.0292 -0.451,0.0918 -0.48652,0.26747 -0.0298,0.1482 0.18709,0.15398 0.30243,0.14097 0.007,0.005 0.0129,0.0113 0.0214,0.0217 0.0379,0.0477 0.0794,0.0824 0.10958,0.13687 0.0139,0.0246 0.0249,0.0506 0.0358,0.0766 -0.71052,2.59136 -1.39659,5.19622 -1.81874,7.85819 -0.053,0.33398 -0.10127,0.66844 -0.14511,1.00387 -0.098,0.53495 -0.17993,1.07255 -0.2383,1.61472 -0.11004,1.02026 -0.14118,2.05353 -0.0475,3.07668 0.0152,0.16433 0.0337,0.33108 0.0542,0.49808 0.006,0.11277 0.0115,0.2253 0.0192,0.33783 0.0438,0.63808 0.0962,1.29111 0.29459,1.90051 0.20531,0.63061 0.57625,1.16966 1.15205,1.47497 0.6134,0.3253 1.3456,0.27349 1.94884,-0.0506 0.0609,-0.0328 0.19356,-0.11566 0.16956,-0.20988"
       style="fill:#c67379;fill-opacity:1;fill-rule:nonzero;stroke:none;stroke-width:0.0235771"
       id="path381" />
    <path
       d="m 24.966793,95.503584 c -0.0468,-0.004 -0.0983,-0.007 -0.11626,-0.0118 -0.0874,-0.0234 -0.16933,-0.0622 -0.24546,-0.11253 -0.16148,-0.10651 -0.28881,-0.25181 -0.39309,-0.41519 0.0588,-0.0424 0.10566,-0.0937 0.13334,-0.15157 0.18155,0.25688 0.39886,0.47929 0.66599,0.63881 -0.0139,0.0164 -0.0298,0.0347 -0.0445,0.0522 z m 0.88792,-0.31904 c -0.54673,-0.30266 -0.87247,-0.86363 -1.11076,-1.45231 0.003,-0.001 0.007,-0.003 0.0104,-0.004 0.0607,-0.0229 0.3594,-0.14169 0.25236,-0.2441 -0.29043,-0.27808 -0.50566,-0.61423 -0.6706,-0.97881 -0.17602,-0.64387 -0.29482,-1.3034 -0.36818,-1.96895 0.0335,-0.094 0.069,-0.18747 0.10842,-0.27952 0.0798,-0.18651 -0.015,-0.29567 -0.16448,-0.33687 -0.12041,-1.79111 0.0711,-3.59548 0.37026,-5.35839 0.18385,-1.08219 0.40947,-2.15595 0.64061,-3.22801 0.0394,-0.18241 -0.78294,-0.0585 -0.82978,0.15735 -0.006,0.0277 -0.0118,0.0557 -0.0178,0.0834 -0.34234,0.0562 -0.69414,0.25133 -0.82633,0.55711 -0.0842,0.19495 -0.10888,0.42435 -0.14625,0.63279 -0.0432,0.24072 -0.0824,0.48217 -0.11834,0.7241 -0.0738,0.49375 -0.13265,0.99014 -0.17625,1.48773 -0.0895,1.01978 -0.11534,2.04558 -0.0775,3.06897 0.007,0.20097 0.0175,0.40218 0.0293,0.60362 -0.16333,1.34267 -0.23646,2.69764 -0.077,4.04271 0.0634,0.53399 0.16378,1.06363 0.30912,1.57978 0.12065,0.42893 0.27659,0.85665 0.57302,1.18822 0.28168,0.31518 0.67131,0.43543 1.07616,0.40771 0.44546,-0.0301 0.97834,-0.2 1.23141,-0.61253 0.0143,-0.0289 0.008,-0.052 -0.0178,-0.0701"
       style="fill:#c67379;fill-opacity:1;fill-rule:nonzero;stroke:none;stroke-width:0.0235771"
       id="path383" />
    <path
       d="m 11.847157,93.031734 c 0.0664,0.0238 0.12757,0.0644 0.17417,0.1176 -0.0824,-0.0186 -0.19355,-0.009 -0.24222,-0.003 0.0194,-0.0405 0.0415,-0.0791 0.068,-0.11471 z m 3.11059,4.34152 c -0.17579,-0.021 -0.36034,0.0396 -0.51674,0.11662 -0.0581,0.0289 -0.11673,0.0462 -0.18363,0.0544 -0.0235,-0.0481 -0.072,-0.0877 -0.14625,-0.10747 -0.0131,-0.003 -0.0258,-0.008 -0.0388,-0.0118 0.0189,-0.0347 0.0184,-0.0684 -0.01,-0.0981 -0.5728,-0.60001 -1.02494,-1.30966 -1.32806,-2.09618 -0.13173,-0.34169 -0.26921,-0.71543 -0.29228,-1.08604 -0.009,-0.15084 6.5e-4,-0.30169 0.0424,-0.44699 0.0173,-0.0602 0.0388,-0.12627 0.0722,-0.17952 6.6e-4,-6.8e-4 0.006,-0.007 0.012,-0.0142 0.16424,-0.0397 0.34972,-0.11326 0.36771,-0.23543 0.0978,-0.66266 -0.75619,-0.73109 -1.18411,-0.61519 -0.32966,0.0892 -0.61433,0.26603 -0.78411,0.58146 -0.1511,0.28025 -0.16887,0.62435 -0.15295,0.93881 0.0687,1.36484 0.57326,2.90414 1.82843,3.52897 0.01,0.005 0.0198,0.009 0.0298,0.0135 0.16909,0.12772 0.35572,0.2282 0.56287,0.28603 0.62655,0.17422 1.3576,0.0135 1.83882,-0.44531 0.1075,-0.10289 -0.0325,-0.17349 -0.11765,-0.18362"
       style="fill:#c67379;fill-opacity:1;fill-rule:nonzero;stroke:none;stroke-width:0.0235771"
       id="path385" />
    <path
       d="m 44.107833,91.523044 c -0.47152,-0.21157 -0.74466,0.0645 -0.99749,0.49133 -1.16728,1.97256 -2.52395,3.80487 -3.91407,5.60948 -0.18155,0.23566 -0.3774,0.60169 -0.70475,0.53013 -0.35018,-0.0766 -0.3195,-0.49784 -0.37049,-0.79784 -0.0674,-0.39664 -0.12387,-0.80002 -0.13541,-1.20195 -0.11765,-4.11789 0.63878,-8.11217 1.57629,-12.08091 0.27821,-1.17785 0.63301,-2.34437 0.58733,-3.57909 -0.0579,-1.56147 -1.22126,-2.19955 -2.4905,-1.35135 -0.95504,0.63833 -1.63165,1.55473 -2.2109,2.55595 -0.84732,1.46484 -1.50778,3.02559 -2.16662,4.58754 -0.0215,0.18048 -0.0671,0.44916 -0.2526,0.36916 -0.12965,-0.0559 -0.0674,-0.35374 0.10727,-0.4947 v 0 c 0.0106,-0.69447 0.0459,-1.38942 0.0256,-2.08268 -0.0254,-0.87062 -0.34742,-1.59184 -1.17235,-1.92341 -0.80879,-0.32482 -1.46233,0.0559 -2.02244,0.63157 -0.68098,0.70001 -1.14813,1.55112 -1.50708,2.46993 -0.0182,0.16626 -0.0639,0.31566 -0.29943,0.43904 0.0106,-0.46073 -0.10519,-0.87953 0.1481,-1.27472 v 0 c 0.0489,-1.39352 0.0346,-2.78751 -0.47752,-4.1003 -0.57349,-1.46894 -2.49581,-1.72823 -3.50598,-0.59495 -1.92001,2.15352 -3.20056,4.69019 -4.306236,7.35529 -0.93498,2.25377 -1.85103,4.52055 -3.10482,6.61166 -0.55988,0.93423 -1.18942,1.81112 -1.98645,2.54872 -0.43092,0.39904 -0.78064,0.35928 -1.09807,-0.12892 -0.47337,-0.72796 -0.84685,-1.50894 -0.86093,-2.40148 -0.009,-0.55085 -0.0651,-1.0646 -0.68698,-1.0499 -0.61593,0.0147 -0.83809,0.54074 -0.78018,1.11399 0.13979,1.38002 0.57141,2.65137 1.51169,3.67355 0.72574,0.78894 1.49532,0.88652 2.40469,0.33302 0.70613,-0.42988 1.23902,-1.06074 1.74491,-1.71569 1.68863,-2.18581 2.77009,-4.72223 3.856856,-7.25793 0.92644,-2.16149 1.75968,-4.37598 3.13711,-6.29312 0.036,-0.14554 0.17141,-0.31976 0.25376,-0.23012 0.15687,0.17109 0.0874,0.40892 -0.0579,0.59712 v 0 c -0.20831,1.80774 -0.43807,3.61283 -0.61893,5.42321 -0.20577,2.05859 -0.13103,4.10826 0.40716,6.1119 0.2962,1.10267 0.79864,1.55617 1.54953,1.52749 1.01456,-0.0388 1.62242,-0.54265 1.91101,-1.60797 0.098,-0.36097 0.15941,-0.73278 0.23692,-1.09977 0.51282,-2.42968 0.99795,-4.86682 1.98045,-7.15529 0.2729,-0.63616 0.57072,-1.25617 0.98227,-1.80726 0.16401,-0.21952 0.32642,-0.56579 0.63253,-0.45639 0.25768,0.0923 0.20855,0.44651 0.2007,0.70266 -0.0159,0.51976 -0.0471,1.03953 -0.0826,1.55858 -0.11258,1.64412 -0.41593,3.27065 -0.42447,4.9244 -0.003,0.50532 0.13173,0.93954 0.66715,1.05135 0.50059,0.10458 0.87338,-0.14603 1.08308,-0.60917 0.27175,-0.60097 0.5089,-1.21954 0.75319,-1.83352 0.97858,-2.45835 1.95069,-4.92128 3.25984,-7.21456 0.40417,-0.70821 0.87638,-1.38123 1.67871,-1.8316 0.05,0.84676 -0.15594,1.56509 -0.33311,2.27474 -0.98642,3.95716 -1.74192,7.95264 -1.83604,12.05415 -0.0272,1.18243 -0.0318,2.37908 0.34672,3.52198 0.54881,1.657136 1.87065,2.021956 3.10297,0.8458 0.38687,-0.36916 0.7472,-0.78098 1.06163,-1.21882 1.09738,-1.52893 2.17123,-3.07619 3.24853,-4.62055 0.14627,-0.20939 0.29621,-0.42844 0.38341,-0.66772 0.19193,-0.52627 0.0913,-0.99592 -0.43508,-1.23206"
       style="fill:#dfa6a8;fill-opacity:1;fill-rule:nonzero;stroke:none;stroke-width:0.0235771"
       id="path387" />
    <path
       d="m 56.387883,94.429634 c -0.30397,0.34446 -0.64974,1.11177 -0.77408,1.36517 -0.16146,0.32877 -0.32967,0.66828 -0.68297,0.79731 -0.9615,0.35105 -1.96142,0.41681 -2.95485,0.29411 -1.29507,-0.15957 -2.22075,-1.03668 -3.08543,-2.00017 -0.46492,-0.51777 -0.73645,-1.15083 -0.99473,-1.79601 -0.004,-0.005 -0.007,-0.0121 -0.0112,-0.0182 0.0428,-0.14636 -0.0221,-0.29383 -0.0421,-0.43854 -0.0877,-0.646 -0.15497,-1.28869 -0.0267,-1.94129 0.31748,-1.61415 1.28443,-2.77022 2.42063,-3.74472 1.30598,-1.12086 3.09816,-1.34508 4.59233,-0.55355 0.41948,0.2223 1.11361,0.84848 1.59177,0.58986 0.69413,-0.37499 0.43662,-1.4587 0.48542,-2.09451 0.0397,-0.51972 0.0688,-1.04053 0.081,-1.56189 0.0182,-0.78879 7.3e-4,-1.58005 -0.14875,-2.3537 -0.39119,-2.02437 -1.35529,-3.46711 -3.34865,-3.99316 -1.42616,-0.37609 -3.49427,0.88178 -3.64509,2.3504 -0.0452,0.44185 -0.28866,1.24246 -0.80809,1.20367 -0.21312,-0.016 -0.40677,-0.14747 -0.55317,-0.31502 -0.055,-0.063 -0.10618,-0.13426 -0.1246,-0.21845 -0.0205,-0.0916 -5.2e-4,-0.18763 0.0218,-0.2787 0.19339,-0.78604 0.57498,-1.40837 1.06144,-2.01612 0.46673,-0.58354 0.9641,-1.12333 1.6655,-1.38827 1.4381,-0.54338 2.88555,-0.56236 4.3208,-0.0399 1.33167,0.48449 2.40739,1.37204 3.02805,2.73528 0.66714,1.46449 0.94411,3.06242 0.99967,4.68758 0.0514,1.51236 -0.005,3.02692 -0.0846,4.53901 -0.0132,0.24844 -0.54357,9.28326 -0.41326,9.30032 -0.5755,0.0115 -1.15126,0.0124 -1.72702,0.002 -0.0316,-5.5e-4 -0.0657,-0.002 -0.0903,-0.0239 -0.0285,-0.0256 -0.0338,-0.0699 -0.0369,-0.10951 -0.0678,-0.846 -0.1355,-1.69228 -0.20325,-2.53829 -0.0579,-0.7211 -0.27231,-0.71341 -0.51269,-0.44131 z m 3.77333,-1.67249 c 0.004,-0.18296 0.008,-0.36591 0.0153,-0.54832 0.0781,-2.05656 0.21052,-4.11064 0.25595,-6.1683 0.0478,-2.14763 -0.20014,-4.23445 -0.79459,-6.29348 -0.44883,-1.55335 -1.34205,-2.68797 -2.51304,-3.63467 -1.23692,-1.00008 -2.66308,-1.2664 -4.16322,-1.22101 -1.10558,0.0333 -2.19013,0.24211 -3.0857,0.98 -1.12478,0.92662 -1.89367,2.16633 -2.3996,3.58268 -0.11733,0.32822 -0.13343,0.69991 -0.0249,1.05207 0.22532,0.73101 0.76811,1.21606 1.3867,1.24687 0.80082,0.0399 1.3649,-0.31475 1.6847,-1.07161 0.1664,-0.39398 0.24946,-0.81795 0.35148,-1.23421 0.17263,-0.70515 1.18553,-1.481 1.84695,-1.37508 1.96896,0.31474 3.11139,1.74787 3.35228,3.6908 0.16172,1.30437 -0.0132,2.60598 -0.0748,3.90842 -0.004,0.10098 -0.0163,0.19809 -0.11292,0.25174 -1.41707,-1.67908 -3.97762,-1.19817 -5.61482,-0.20469 -1.32934,0.80639 -2.30408,2.08159 -2.82714,3.61899 -0.26737,0.78548 -0.3912,1.5916 -0.49789,2.41587 -0.24557,1.90139 0.84106,3.60249 2.1813,4.71455 1.57957,1.31013 3.22975,1.7264 5.19378,1.54289 0.7367,-0.0688 1.39267,-0.38957 1.97959,-0.86472 0.0508,0.29219 0.1124,0.60996 0.25232,0.87462 0.10877,0.20497 0.28113,0.38298 0.49477,0.4358 0.12485,0.0308 0.25465,0.0179 0.38184,0.005 0.35097,-0.0358 0.70141,-0.0715 1.05236,-0.10757 0.35953,-0.0363 0.72684,-0.0751 1.0547,-0.23799 0.78862,-0.39067 0.63417,-1.1734 0.63676,-1.95531 0.004,-1.13461 -0.0338,-2.26923 -0.0122,-3.40356"
       style="fill:#e2a56d;fill-opacity:1;fill-rule:nonzero;stroke:none;stroke-width:0.0267242"
       id="path915" />
    <path
       d="m 55.001703,89.150254 c 0.45791,1.21606 -0.9358,3.33782 -1.66913,4.13706 -0.59134,0.6449 -1.24549,0.68011 -1.92145,0.16012 -1.31869,-1.01411 -1.4407,-1.73384 -0.67414,-3.37716 0.21623,-0.46358 0.53475,-0.85728 0.88207,-1.221 0.4984,-0.52192 1.08506,-0.76595 1.78283,-0.68423 0.69179,0.0809 1.26678,0.19451 1.58191,0.94092 0.007,0.0146 0.0122,0.0294 0.0179,0.0443 z m 0.67752,-0.4146 c -0.08,-0.18077 -0.18587,-0.35161 -0.32137,-0.50981 -0.94618,-1.10243 -2.87335,-1.45431 -3.99164,-0.4856 -0.59185,0.51283 -1.08065,1.10545 -1.45575,1.80399 -0.39483,0.73652 -0.65597,1.53768 -0.61859,2.39111 0.047,1.08317 0.70114,1.78446 1.47107,2.37076 1.10271,0.83968 2.38039,0.69992 3.28531,-0.38545 0.96358,-1.15608 2.34743,-3.5659 1.63097,-5.185"
       style="fill:#e2a56d;fill-opacity:1;fill-rule:nonzero;stroke:none;stroke-width:0.0267242"
       id="path917" />
    <path
       d="m 71.779813,74.302914 c 0.40495,0.25174 0.7907,0.54447 1.13128,0.8804 -0.28633,-0.23689 -0.60639,-0.42864 -0.94749,-0.58134 -0.0436,-0.10977 -0.10617,-0.2113 -0.18379,-0.29906 z m -0.99914,-0.30952 c -0.19365,-0.11444 -0.39327,-0.21762 -0.5973,-0.31254 -0.0384,-0.0699 -0.0794,-0.13756 -0.12331,-0.20249 0.19158,0.0713 0.38211,0.14691 0.57109,0.22836 0.18249,0.0784 0.36602,0.16535 0.5485,0.25861 -0.13057,-0.0212 -0.26607,-0.0132 -0.39898,0.0281 z m -0.61625,10.22776 c 0.21649,-0.28392 0.43324,-0.56785 0.64974,-0.85178 0.0711,0.1571 0.18326,0.2842 0.31825,0.37748 -0.0299,0.0184 -0.0597,0.0377 -0.0898,0.0553 -0.28321,0.16507 -0.57705,0.30373 -0.87817,0.41901 z m 5.88661,-8.12223 c -0.12876,-1.25869 -0.46076,-2.49978 -1.30624,-3.43685 -0.5838,-0.64682 -1.31064,-1.05181 -2.09199,-1.31373 -0.17964,-0.10372 -0.36472,-0.20193 -0.55889,-0.29053 -2.3251,-1.05895 -5.15977,-0.92965 -7.57547,-0.33153 -0.4727,0.11721 -0.68816,0.49771 -0.70218,0.89471 -0.0664,0.12904 -0.10409,0.27375 -0.0997,0.427 0.21676,7.35106 0.43325,14.70184 0.64974,22.0529 0.0613,2.07169 0.12227,4.14338 0.18327,6.215066 0.0161,0.54337 0.37691,1.02127 0.91426,1.0419 0.0802,0.003 0.16146,-0.008 0.24116,-0.0281 0.0841,0.0294 0.1734,0.0437 0.26581,0.0377 0.79095,-0.0504 1.58191,-0.10097 2.37261,-0.15132 0.51164,-0.0327 0.96332,-0.3882 0.98305,-0.96871 0.004,-0.1073 -0.0132,-0.21708 -0.0457,-0.323816 0.0927,-0.41297 0.0589,-0.87903 0.0587,-1.30657 -5.3e-4,-1.63094 -7.4e-4,-3.2616 -10e-4,-4.89283 -5.1e-4,-1.85103 -0.001,-3.7018 -0.001,-5.55256 1.28209,0.0784 2.60338,-0.33152 3.66379,-1.07574 1.70469,-1.19652 2.76172,-3.15705 3.18121,-5.25185 0.37173,-1.85462 0.36264,-3.90045 -0.1303,-5.74516"
       style="fill:#ebc532;fill-opacity:1;fill-rule:nonzero;stroke:none;stroke-width:0.0267242"
       id="path485" />
    <path
       d="m -53.205748,111.44355 c 0.60043,-0.12911 1.22372,-0.12241 1.81515,-0.29774 0.1403,-0.0413 0.36107,0.004 0.38037,-0.23389 -0.14087,0.11324 -0.32068,0.10442 -0.4826,0.15204 -0.56265,0.16475 -1.17588,0.10055 -1.71292,0.37959"
       style="fill:#617e83;fill-opacity:1;fill-rule:nonzero;stroke:none;stroke-width:0.0352778"
       id="path479" />
  </g>
</svg>
